<?xml version="1.0" encoding="UTF-8"?>
<svg width="320px" height="150px" viewBox="0 0 320 150" version="1.1" xmlns="http://www.w3.org/2000/svg" xmlns:xlink="http://www.w3.org/1999/xlink">
    <!-- Generator: sketchtool 50.2 (55047) - http://www.bohemiancoding.com/sketch -->
    <title>8F3AB464-3C2C-4F4A-8253-BDBD4474E6BB</title>
    <desc>Created with sketchtool.</desc>
    <defs>
        <polygon id="path-1" points="0 150 320 150 320 0 0 0"></polygon>
    </defs>
    <g id="home" stroke="none" stroke-width="1" fill="none" fill-rule="evenodd">
        <g id="home_mobile_collapse" transform="translate(0.000000, -31.000000)">
            <g id="meetpeople" transform="translate(0.000000, 31.000000)">
                <polygon id="Fill-1" fill="#E0E0E0" points="0 150 320 150 320 0 0 0"></polygon>
                <g id="Group-180">
                    <path d="M8.5,150 C8.5,129.29 25.29,112.5 46,112.5 L274,112.5 C294.71,112.5 311.5,95.71 311.5,75 C311.5,54.29 294.71,37.5 274,37.5 L0.5,37.5" id="Stroke-2" stroke="#FFFFFF" stroke-width="10"></path>
                    <polygon id="Fill-4" fill="#000000" points="93.8354 78.4995 92.8114 78.4995 92.8134 27.7995 93.8364 27.7995"></polygon>
                    <path d="M91.9487,31.7441 C92.3657,31.7441 92.7137,31.6521 92.9947,31.5531 C93.1007,31.5781 93.2107,31.5961 93.3237,31.5961 C93.4387,31.5961 93.5477,31.5781 93.6537,31.5531 C93.9347,31.6521 94.2827,31.7441 94.6997,31.7441 C97.2027,31.7441 99.2397,29.7071 99.2397,27.2041 C99.2397,26.2171 98.4387,25.4161 97.4517,25.4161 C96.4637,25.4161 95.6637,26.2171 95.6637,27.2041 C95.6637,27.7041 95.2807,28.1171 94.7917,28.1631 C94.7727,28.1561 94.7517,28.1471 94.7307,28.1391 L94.7307,22.9701 C94.7307,22.1931 94.1007,21.5631 93.3237,21.5631 C92.5477,21.5631 91.9177,22.1931 91.9177,22.9701 L91.9177,28.1391 C91.8967,28.1471 91.8757,28.1561 91.8567,28.1631 C91.3687,28.1171 90.9857,27.7041 90.9857,27.2041 C90.9857,26.2171 90.1847,25.4161 89.1977,25.4161 C88.2097,25.4161 87.4087,26.2171 87.4087,27.2041 C87.4087,29.7071 89.4457,31.7441 91.9487,31.7441" id="Fill-6" fill="#F05822"></path>
                    <path d="M91.3535,38.3623 C92.0745,38.3623 92.6435,38.1273 93.0585,37.9543 C93.1425,37.9203 93.2495,37.8753 93.3245,37.8493 C93.3985,37.8753 93.5065,37.9203 93.5905,37.9543 C94.0055,38.1273 94.5745,38.3623 95.2955,38.3623 C98.1115,38.3623 100.5175,36.2713 100.8915,33.4993 C101.0235,32.5213 100.3375,31.6203 99.3585,31.4883 C98.3795,31.3563 97.4795,32.0423 97.3475,33.0213 C97.2125,34.0203 96.3425,34.7753 95.3175,34.7853 C95.2465,34.7693 95.0815,34.7013 94.9595,34.6513 C94.5585,34.4853 94.0095,34.2573 93.3245,34.2573 C92.6395,34.2573 92.0905,34.4853 91.6895,34.6513 C91.5675,34.7013 91.4025,34.7693 91.3315,34.7853 C90.3065,34.7753 89.4365,34.0203 89.3015,33.0213 C89.1695,32.0423 88.2695,31.3563 87.2905,31.4883 C86.3115,31.6203 85.6255,32.5213 85.7575,33.4993 C86.1315,36.2713 88.5375,38.3623 91.3535,38.3623" id="Fill-8" fill="#F05822"></path>
                    <path d="M90.7588,44.98 C91.5898,44.98 92.2728,44.697 92.7708,44.491 C92.9558,44.415 93.2348,44.299 93.3198,44.292 C93.4138,44.299 93.6938,44.415 93.8778,44.491 C94.3768,44.697 95.0588,44.98 95.8898,44.98 C99.0438,44.98 101.8358,42.765 102.5308,39.713 C102.7498,38.75 102.1468,37.792 101.1838,37.573 C100.2218,37.354 99.2628,37.957 99.0438,38.919 C98.7168,40.359 97.3898,41.404 95.8898,41.404 C95.7698,41.404 95.4798,41.284 95.2468,41.187 C94.7388,40.977 94.1088,40.716 93.3238,40.716 C92.5398,40.716 91.9088,40.977 91.4028,41.187 C91.1688,41.284 90.8788,41.404 90.7588,41.404 C89.2588,41.404 87.9328,40.359 87.6048,38.919 C87.3858,37.957 86.4268,37.354 85.4648,37.573 C84.5018,37.792 83.8988,38.75 84.1178,39.713 C84.8128,42.765 87.6058,44.98 90.7588,44.98" id="Fill-10" fill="#F05822"></path>
                    <path d="M90.1636,51.5981 C91.1046,51.5981 91.8696,51.2821 92.4836,51.0271 C92.7966,50.8971 93.1526,50.7501 93.3246,50.7501 C93.4966,50.7501 93.8516,50.8971 94.1646,51.0271 C94.7796,51.2821 95.5436,51.5981 96.4856,51.5981 C100.0166,51.5981 103.1766,49.2461 104.1706,45.8781 C104.4496,44.9311 103.9086,43.9361 102.9616,43.6571 C102.0146,43.3771 101.0196,43.9181 100.7406,44.8661 C100.1916,46.7241 98.4416,48.0221 96.4856,48.0221 C96.2546,48.0221 95.9046,47.8771 95.5336,47.7231 C94.9426,47.4781 94.2076,47.1741 93.3246,47.1741 C92.4406,47.1741 91.7056,47.4781 91.1156,47.7231 C90.7446,47.8771 90.3936,48.0221 90.1636,48.0221 C88.2066,48.0221 86.4566,46.7241 85.9086,44.8661 C85.6286,43.9181 84.6336,43.3771 83.6876,43.6571 C82.7406,43.9361 82.1996,44.9311 82.4786,45.8781 C83.4726,49.2461 86.6326,51.5981 90.1636,51.5981" id="Fill-12" fill="#F05822"></path>
                    <path d="M89.5684,58.2163 C90.6204,58.2163 91.4944,57.8543 92.1964,57.5633 C92.6374,57.3813 93.0524,57.2093 93.3244,57.2093 C93.5964,57.2093 94.0114,57.3813 94.4524,57.5633 C95.1544,57.8543 96.0284,58.2163 97.0804,58.2163 C101.0174,58.2163 104.5264,55.7233 105.8134,52.0133 C106.1364,51.0803 105.6424,50.0613 104.7094,49.7373 C103.7764,49.4143 102.7574,49.9083 102.4344,50.8413 C101.6464,53.1133 99.4954,54.6403 97.0804,54.6403 C96.7394,54.6403 96.3144,54.4643 95.8204,54.2593 C95.1464,53.9803 94.3074,53.6333 93.3244,53.6333 C92.3414,53.6333 91.5024,53.9803 90.8284,54.2593 C90.3354,54.4643 89.9094,54.6403 89.5684,54.6403 C87.1534,54.6403 85.0024,53.1133 84.2144,50.8413 C83.8914,49.9083 82.8734,49.4143 81.9404,49.7373 C81.0064,50.0613 80.5124,51.0803 80.8364,52.0133 C82.1224,55.7233 85.6314,58.2163 89.5684,58.2163" id="Fill-14" fill="#F05822"></path>
                    <path d="M106.437,55.8154 C105.516,55.4594 104.48,55.9174 104.124,56.8374 C103.101,59.4814 100.509,61.2584 97.675,61.2584 C97.225,61.2584 96.707,61.0434 96.107,60.7954 C95.311,60.4654 94.407,60.0904 93.324,60.0904 C92.242,60.0904 91.338,60.4654 90.541,60.7954 C89.942,61.0434 89.424,61.2584 88.974,61.2584 C86.14,61.2584 83.548,59.4814 82.525,56.8374 C82.168,55.9174 81.133,55.4594 80.212,55.8154 C79.291,56.1714 78.833,57.2074 79.19,58.1284 C80.742,62.1394 84.674,64.8344 88.974,64.8344 C90.136,64.8344 91.119,64.4264 91.91,64.0994 C92.446,63.8774 92.953,63.6674 93.324,63.6674 C93.695,63.6674 94.203,63.8774 94.739,64.0994 C95.529,64.4264 96.513,64.8344 97.675,64.8344 C101.975,64.8344 105.906,62.1394 107.459,58.1284 C107.815,57.2074 107.358,56.1714 106.437,55.8154" id="Fill-16" fill="#F05822"></path>
                    <mask id="mask-2" fill="white">
                        <use xlink:href="#path-1"></use>
                    </mask>
                    <g id="Clip-19"></g>
                    <polygon id="Fill-18" fill="#000000" mask="url(#mask-2)" points="204.598 59.835 205.622 59.835 205.622 22.335 204.598 22.335"></polygon>
                    <path d="M199.9233,26.8545 C200.8623,26.8545 202.0963,26.7835 203.3043,26.2295 C203.8023,26.0005 204.2393,25.7175 204.6253,25.4675 C204.7693,25.3745 204.9593,25.2505 205.1103,25.1635 C205.2603,25.2505 205.4503,25.3745 205.5943,25.4675 C205.9803,25.7175 206.4173,26.0005 206.9153,26.2295 C208.1233,26.7835 209.3563,26.8545 210.2963,26.8545 C211.2193,26.8545 211.9673,26.1065 211.9673,25.1835 C211.9673,24.2605 211.2193,23.5115 210.2963,23.5115 C209.6963,23.5115 208.9293,23.4755 208.3093,23.1905 C208.0313,23.0635 207.7163,22.8595 207.4123,22.6625 C207.2623,22.5645 207.1113,22.4685 206.9583,22.3745 L206.9583,19.6675 C206.9583,18.6505 206.1333,17.8275 205.1173,17.8275 C204.1003,17.8275 203.2763,18.6505 203.2763,19.6675 L203.2763,22.3655 C203.1183,22.4615 202.9623,22.5625 202.8073,22.6625 C202.5033,22.8595 202.1883,23.0635 201.9103,23.1905 C201.2903,23.4755 200.5233,23.5115 199.9233,23.5115 C199.0003,23.5115 198.2523,24.2605 198.2523,25.1835 C198.2523,26.1065 199.0003,26.8545 199.9233,26.8545" id="Fill-20" fill="#DBA827" mask="url(#mask-2)"></path>
                    <path d="M198.6045,32.4014 C199.7395,32.4014 201.2275,32.3174 202.6685,31.6554 C203.2645,31.3814 203.7995,31.0354 204.2715,30.7304 C204.5275,30.5634 204.8915,30.3284 205.1095,30.2214 C205.3285,30.3284 205.6925,30.5634 205.9485,30.7304 C206.4205,31.0354 206.9555,31.3814 207.5515,31.6554 C208.9925,32.3174 210.4795,32.4014 211.6145,32.4014 C212.5385,32.4014 213.2865,31.6534 213.2865,30.7304 C213.2865,29.8074 212.5385,29.0584 211.6145,29.0584 C210.8195,29.0584 209.7975,29.0084 208.9455,28.6174 C208.5695,28.4444 208.1615,28.1804 207.7665,27.9244 C206.9445,27.3924 206.0955,26.8414 205.1095,26.8414 C204.1245,26.8414 203.2745,27.3924 202.4535,27.9244 C202.0585,28.1804 201.6505,28.4444 201.2745,28.6174 C200.4215,29.0084 199.3995,29.0584 198.6045,29.0584 C197.6815,29.0584 196.9335,29.8074 196.9335,30.7304 C196.9335,31.6534 197.6815,32.4014 198.6045,32.4014" id="Fill-21" fill="#DBA827" mask="url(#mask-2)"></path>
                    <path d="M197.2856,37.9487 C198.6166,37.9487 200.3586,37.8497 202.0326,37.0817 C202.7266,36.7637 203.3586,36.3537 203.9166,35.9917 C204.2926,35.7487 204.8456,35.3907 205.1096,35.2957 C205.3736,35.3907 205.9266,35.7487 206.3026,35.9917 C206.8606,36.3537 207.4926,36.7637 208.1876,37.0817 C209.8606,37.8497 211.6026,37.9487 212.9336,37.9487 C213.8566,37.9487 214.6056,37.1997 214.6056,36.2777 C214.6056,35.3537 213.8566,34.6057 212.9336,34.6057 C211.9426,34.6057 210.6666,34.5417 209.5816,34.0437 C209.1066,33.8257 208.6056,33.5017 208.1206,33.1867 C207.1306,32.5457 206.1946,31.9387 205.1096,31.9387 C204.0246,31.9387 203.0896,32.5457 202.0986,33.1867 C201.6136,33.5017 201.1126,33.8257 200.6386,34.0437 C199.5536,34.5417 198.2766,34.6057 197.2856,34.6057 C196.3626,34.6057 195.6146,35.3537 195.6146,36.2777 C195.6146,37.1997 196.3626,37.9487 197.2856,37.9487" id="Fill-22" fill="#DBA827" mask="url(#mask-2)"></path>
                    <path d="M195.9668,43.4956 C197.4928,43.4956 199.4898,43.3836 201.3958,42.5086 C202.1898,42.1446 202.9188,41.6716 203.5628,41.2546 C204.0618,40.9316 204.8088,40.4476 205.1098,40.3826 C205.4108,40.4476 206.1578,40.9316 206.6568,41.2546 C207.3008,41.6716 208.0298,42.1446 208.8238,42.5086 C210.7298,43.3836 212.7258,43.4956 214.2528,43.4956 C215.1758,43.4956 215.9248,42.7476 215.9248,41.8246 C215.9248,40.9016 215.1758,40.1526 214.2528,40.1526 C213.0668,40.1526 211.5348,40.0756 210.2178,39.4706 C209.6448,39.2076 209.0498,38.8226 208.4748,38.4496 C207.3538,37.7226 206.2948,37.0366 205.1098,37.0366 C203.9248,37.0366 202.8658,37.7226 201.7448,38.4496 C201.1698,38.8226 200.5748,39.2076 200.0018,39.4706 C198.6838,40.0756 197.1538,40.1526 195.9668,40.1526 C195.0438,40.1526 194.2958,40.9016 194.2958,41.8246 C194.2958,42.7476 195.0438,43.4956 195.9668,43.4956" id="Fill-23" fill="#DBA827" mask="url(#mask-2)"></path>
                    <path d="M194.6479,49.0425 C196.3699,49.0425 198.6209,48.9175 200.7599,47.9355 C201.6509,47.5265 202.4789,46.9905 203.2079,46.5175 C203.8339,46.1115 204.7799,45.4995 205.1039,45.4765 C205.4399,45.4995 206.3859,46.1115 207.0119,46.5175 C207.7409,46.9905 208.5679,47.5265 209.4599,47.9355 C211.5989,48.9175 213.8499,49.0425 215.5719,49.0425 C216.4949,49.0425 217.2429,48.2945 217.2429,47.3715 C217.2429,46.4485 216.4949,45.6995 215.5719,45.6995 C214.1899,45.6995 212.4039,45.6085 210.8539,44.8975 C210.1829,44.5895 209.4949,44.1435 208.8299,43.7125 C207.5769,42.9005 206.3939,42.1335 205.1099,42.1335 C203.8259,42.1335 202.6429,42.9005 201.3899,43.7125 C200.7249,44.1435 200.0369,44.5895 199.3649,44.8975 C197.8149,45.6085 196.0299,45.6995 194.6479,45.6995 C193.7249,45.6995 192.9769,46.4485 192.9769,47.3715 C192.9769,48.2945 193.7249,49.0425 194.6479,49.0425" id="Fill-24" fill="#DBA827" mask="url(#mask-2)"></path>
                    <path d="M216.8906,51.2471 C215.3126,51.2471 213.2726,51.1421 211.4906,50.3241 C210.7206,49.9711 209.9396,49.4641 209.1836,48.9751 C207.8006,48.0781 206.4936,47.2311 205.1096,47.2311 C203.7256,47.2311 202.4196,48.0781 201.0366,48.9751 C200.2806,49.4641 199.4996,49.9711 198.7296,50.3241 C196.9466,51.1421 194.9066,51.2471 193.3286,51.2471 C192.4066,51.2471 191.6576,51.9951 191.6576,52.9181 C191.6576,53.8411 192.4066,54.5901 193.3286,54.5901 C195.2466,54.5901 197.7526,54.4501 200.1236,53.3621 C201.1136,52.9081 202.0376,52.3091 202.8536,51.7801 C203.5946,51.3001 204.7146,50.5741 205.1096,50.5741 C205.5046,50.5741 206.6246,51.3001 207.3656,51.7801 C208.1816,52.3091 209.1056,52.9081 210.0966,53.3621 C212.4676,54.4501 214.9726,54.5901 216.8906,54.5901 C217.8136,54.5901 218.5616,53.8411 218.5616,52.9181 C218.5616,51.9951 217.8136,51.2471 216.8906,51.2471" id="Fill-25" fill="#DBA827" mask="url(#mask-2)"></path>
                    <polyline id="Fill-26" fill="#EF5722" mask="url(#mask-2)" points="289.2031 55.2139 289.2031 77.9719 264.6101 77.9719 264.6101 55.2139"></polyline>
                    <polygon id="Fill-27" fill="#000000" mask="url(#mask-2)" points="289.7305 78.4995 264.0825 78.4995 264.0825 55.2135 265.1375 55.2135 265.1375 77.4445 288.6755 77.4445 288.6755 55.2135 289.7305 55.2135"></polygon>
                    <polygon id="Fill-28" fill="#DAA725" mask="url(#mask-2)" points="268.123 77.787 285.69 77.787 285.69 74.625 268.123 74.625"></polygon>
                    <path d="M268.65,77.26 L285.162,77.26 L285.162,75.153 L268.65,75.153 L268.65,77.26 Z M267.595,78.314 L286.217,78.314 L286.217,74.097 L267.595,74.097 L267.595,78.314 Z" id="Fill-29" fill="#000000" mask="url(#mask-2)"></path>
                    <polygon id="Fill-30" fill="#A1D29D" mask="url(#mask-2)" points="271.637 74.625 282.177 74.625 282.177 60.578 271.637 60.578"></polygon>
                    <path d="M272.164,74.098 L281.649,74.098 L281.649,61.106 L272.164,61.106 L272.164,74.098 Z M271.11,75.152 L282.704,75.152 L282.704,60.05 L271.11,60.05 L271.11,75.152 Z" id="Fill-31" fill="#000000" mask="url(#mask-2)"></path>
                    <polygon id="Fill-32" fill="#EEADCD" mask="url(#mask-2)" points="261.0967 55.2139 276.9067 41.1609 292.7167 55.2139"></polygon>
                    <path d="M262.4829,54.6865 L291.3299,54.6865 L276.9059,41.8655 L262.4829,54.6865 Z M294.1029,55.7415 L259.7109,55.7415 L276.9059,40.4555 L294.1029,55.7415 Z" id="Fill-33" fill="#000000" mask="url(#mask-2)"></path>
                    <polyline id="Fill-34" fill="#A1D29D" mask="url(#mask-2)" points="297.8096 122.7666 297.8096 145.5246 273.2166 145.5246 273.2166 122.7666"></polyline>
                    <polygon id="Fill-35" fill="#000000" mask="url(#mask-2)" points="298.3369 146.0518 272.6889 146.0518 272.6889 122.7658 273.7439 122.7658 273.7439 144.9968 297.2819 144.9968 297.2819 122.7658 298.3369 122.7658"></polygon>
                    <polygon id="Fill-36" fill="#EF5722" mask="url(#mask-2)" points="276.729 145.339 294.295 145.339 294.295 142.177 276.729 142.177"></polygon>
                    <path d="M277.257,144.812 L293.769,144.812 L293.769,142.705 L277.257,142.705 L277.257,144.812 Z M276.202,145.867 L294.823,145.867 L294.823,141.65 L276.202,141.65 L276.202,145.867 Z" id="Fill-37" fill="#000000" mask="url(#mask-2)"></path>
                    <polygon id="Fill-38" fill="#EEADCD" mask="url(#mask-2)" points="280.243 142.177 290.783 142.177 290.783 128.13 280.243 128.13"></polygon>
                    <path d="M280.77,141.65 L290.255,141.65 L290.255,128.658 L280.77,128.658 L280.77,141.65 Z M279.715,142.705 L291.31,142.705 L291.31,127.603 L279.715,127.603 L279.715,142.705 Z" id="Fill-39" fill="#000000" mask="url(#mask-2)"></path>
                    <polygon id="Fill-40" fill="#DAA725" mask="url(#mask-2)" points="269.7031 122.7666 285.5131 108.7136 301.3231 122.7666"></polygon>
                    <path d="M271.0894,122.2388 L299.9364,122.2388 L285.5124,109.4178 L271.0894,122.2388 Z M302.7094,123.2938 L268.3174,123.2938 L285.5124,108.0078 L302.7094,123.2938 Z" id="Fill-41" fill="#000000" mask="url(#mask-2)"></path>
                    <polyline id="Fill-42" fill="#DAA725" mask="url(#mask-2)" points="68.9146 55.2139 68.9146 77.9719 44.3216 77.9719 44.3216 55.2139"></polyline>
                    <polygon id="Fill-43" fill="#000000" mask="url(#mask-2)" points="69.4419 78.4995 43.7939 78.4995 43.7939 55.2135 44.8489 55.2135 44.8489 77.4445 68.3869 77.4445 68.3869 55.2135 69.4419 55.2135"></polygon>
                    <polygon id="Fill-44" fill="#EEADCD" mask="url(#mask-2)" points="47.834 77.787 65.401 77.787 65.401 74.625 47.834 74.625"></polygon>
                    <path d="M48.362,77.26 L64.874,77.26 L64.874,75.153 L48.362,75.153 L48.362,77.26 Z M47.307,78.314 L65.929,78.314 L65.929,74.097 L47.307,74.097 L47.307,78.314 Z" id="Fill-45" fill="#000000" mask="url(#mask-2)"></path>
                    <polygon id="Fill-46" fill="#A1D29D" mask="url(#mask-2)" points="51.348 74.625 61.888 74.625 61.888 60.578 51.348 60.578"></polygon>
                    <path d="M51.875,74.098 L61.36,74.098 L61.36,61.106 L51.875,61.106 L51.875,74.098 Z M50.821,75.152 L62.415,75.152 L62.415,60.05 L50.821,60.05 L50.821,75.152 Z" id="Fill-47" fill="#000000" mask="url(#mask-2)"></path>
                    <polygon id="Fill-48" fill="#EF5722" mask="url(#mask-2)" points="40.8081 55.2139 56.6181 41.1609 72.4281 55.2139"></polygon>
                    <path d="M42.1943,54.6865 L71.0413,54.6865 L56.6183,41.8655 L42.1943,54.6865 Z M73.8143,55.7415 L39.4223,55.7415 L56.6183,40.4555 L73.8143,55.7415 Z" id="Fill-49" fill="#000000" mask="url(#mask-2)"></path>
                    <polyline id="Fill-50" fill="#EEADCD" mask="url(#mask-2)" points="240.6191 55.2139 240.6191 77.9719 216.0261 77.9719 216.0261 55.2139"></polyline>
                    <polygon id="Fill-51" fill="#000000" mask="url(#mask-2)" points="241.1465 78.4995 215.4985 78.4995 215.4985 55.2135 216.5535 55.2135 216.5535 77.4445 240.0915 77.4445 240.0915 55.2135 241.1465 55.2135"></polygon>
                    <polygon id="Fill-52" fill="#EF5722" mask="url(#mask-2)" points="219.54 77.787 237.106 77.787 237.106 74.625 219.54 74.625"></polygon>
                    <path d="M220.067,77.26 L236.579,77.26 L236.579,75.153 L220.067,75.153 L220.067,77.26 Z M219.012,78.314 L237.633,78.314 L237.633,74.097 L219.012,74.097 L219.012,78.314 Z" id="Fill-53" fill="#000000" mask="url(#mask-2)"></path>
                    <polygon id="Fill-54" fill="#DAA725" mask="url(#mask-2)" points="223.053 74.625 233.593 74.625 233.593 60.578 223.053 60.578"></polygon>
                    <path d="M223.58,74.098 L233.065,74.098 L233.065,61.106 L223.58,61.106 L223.58,74.098 Z M222.525,75.152 L234.12,75.152 L234.12,60.05 L222.525,60.05 L222.525,75.152 Z" id="Fill-55" fill="#000000" mask="url(#mask-2)"></path>
                    <polygon id="Fill-56" fill="#A1D29D" mask="url(#mask-2)" points="212.5127 55.2139 228.3227 41.1609 244.1327 55.2139"></polygon>
                    <path d="M213.8989,54.6865 L242.7459,54.6865 L228.3229,41.8655 L213.8989,54.6865 Z M245.5189,55.7415 L211.1269,55.7415 L228.3229,40.4555 L245.5189,55.7415 Z" id="Fill-57" fill="#000000" mask="url(#mask-2)"></path>
                    <path d="M136.1367,14.5708 L136.1367,37.0378 L157.0177,37.0378 L157.0177,42.2868 L155.8147,42.2868 L127.7057,42.2868 L127.7057,77.8818 L136.1367,77.8818 L136.1367,77.9438 L158.4097,77.9438 L158.4097,77.8818 L158.4097,75.7008 L158.4097,74.5878 L161.9577,74.5878 L161.9577,71.3308 L164.3257,71.3308 L164.3257,55.5748 C163.3857,55.0488 162.7507,54.0638 162.7507,52.9328 C162.7507,52.9098 162.7547,52.8878 162.7547,52.8658 L162.7507,52.8658 C162.7507,47.3588 167.2157,42.8938 172.7227,42.8938 L172.7237,42.8938 C178.2317,42.8938 182.6957,47.3588 182.6957,52.8658 L182.6927,52.8658 C182.6927,52.8878 182.6957,52.9098 182.6957,52.9328 C182.6957,54.0188 182.1107,54.9688 181.2327,55.5088 L181.2327,71.3308 L184.0157,71.3308 L184.0157,74.5878 L187.5647,74.5878 L187.5647,75.7008 L187.5647,77.8818 L187.5647,77.9438 L190.5597,77.9438 L190.5597,14.5708 L136.1367,14.5708 Z" id="Fill-58" fill="#EF5722" mask="url(#mask-2)"></path>
                    <path d="M172.7236,42.8936 C167.2156,42.8936 169.0226,53.0346 169.0226,53.0346 C169.0886,54.6706 170.7176,55.9806 172.7236,55.9806 C174.7286,55.9806 176.3586,54.6706 176.4246,53.0346 C176.4246,53.0346 178.2306,42.8936 172.7236,42.8936" id="Fill-59" fill="#EEADCD" mask="url(#mask-2)"></path>
                    <path d="M172.7227,42.8936 C167.2157,42.8936 162.7507,47.3586 162.7507,52.8656 L162.7547,52.8656 C162.7547,52.8886 162.7507,52.9106 162.7507,52.9336 C162.7507,54.6166 164.1537,55.9806 165.8837,55.9806 C167.5967,55.9806 168.9867,54.6426 169.0137,52.9826 C168.8897,52.2386 167.4347,42.8946 172.7227,42.8936" id="Fill-60" fill="#A1D29D" mask="url(#mask-2)"></path>
                    <path d="M182.6958,52.8657 C182.6958,47.3587 178.2318,42.8937 172.7238,42.8937 C178.0118,42.8947 176.5568,52.2387 176.4328,52.9827 C176.4608,54.6427 177.8498,55.9807 179.5628,55.9807 C181.2938,55.9807 182.6958,54.6157 182.6958,52.9327 C182.6958,52.9097 182.6928,52.8877 182.6928,52.8657 L182.6958,52.8657 Z" id="Fill-61" fill="#A1D29D" mask="url(#mask-2)"></path>
                    <path d="M168.9629,52.6489 C168.9689,52.6909 168.9749,52.7319 168.9799,52.7679 C168.9749,52.7319 168.9689,52.6909 168.9629,52.6489" id="Fill-62" fill="#DAA725" mask="url(#mask-2)"></path>
                    <path d="M168.9282,52.3931 C168.9372,52.4631 168.9462,52.5301 168.9542,52.5891 C168.9462,52.5291 168.9372,52.4631 168.9282,52.3931" id="Fill-63" fill="#DAA725" mask="url(#mask-2)"></path>
                    <path d="M168.9917,52.8418 C168.9947,52.8628 168.9977,52.8838 169.0007,52.9028 C168.9977,52.8848 168.9947,52.8628 168.9917,52.8418" id="Fill-64" fill="#DAA725" mask="url(#mask-2)"></path>
                    <path d="M168.9248,52.3657 C168.9128,52.2707 168.8998,52.1657 168.8878,52.0547 L168.8868,52.0547 C168.8998,52.1677 168.9128,52.2697 168.9248,52.3657" id="Fill-65" fill="#DAA725" mask="url(#mask-2)"></path>
                    <path d="M176.5596,52.0552 C176.5466,52.1652 176.5346,52.2692 176.5226,52.3632 C176.5346,52.2682 176.5476,52.1662 176.5596,52.0552 Z" id="Fill-66" fill="#DAA725" mask="url(#mask-2)"></path>
                    <path d="M176.4468,52.8989 C176.4488,52.8839 176.4518,52.8659 176.4538,52.8489 C176.4518,52.8659 176.4488,52.8849 176.4468,52.8989" id="Fill-67" fill="#DAA725" mask="url(#mask-2)"></path>
                    <path d="M179.563,55.9805 C177.85,55.9805 176.46,54.6425 176.433,52.9825 C176.428,53.0135 176.424,53.0345 176.424,53.0345 C176.358,54.6705 174.729,55.9805 172.724,55.9805 C170.718,55.9805 169.088,54.6705 169.022,53.0345 C169.022,53.0345 169.019,53.0135 169.014,52.9825 C168.986,54.6425 167.597,55.9805 165.884,55.9805 C165.316,55.9805 164.785,55.8315 164.326,55.5745 L164.326,71.3305 L181.232,71.3305 L181.232,55.5085 C180.749,55.8065 180.178,55.9805 179.563,55.9805" id="Fill-68" fill="#DAA725" mask="url(#mask-2)"></path>
                    <path d="M176.4927,52.5869 C176.5007,52.5319 176.5087,52.4709 176.5167,52.4079 C176.5087,52.4709 176.5007,52.5319 176.4927,52.5869" id="Fill-69" fill="#DAA725" mask="url(#mask-2)"></path>
                    <path d="M176.4668,52.7671 C176.4718,52.7341 176.4768,52.6961 176.4828,52.6581 C176.4778,52.6961 176.4718,52.7341 176.4668,52.7671" id="Fill-70" fill="#DAA725" mask="url(#mask-2)"></path>
                    <polygon id="Fill-71" fill="#EEADCD" mask="url(#mask-2)" points="184.0161 74.5879 184.0161 71.3309 161.9581 71.3309 161.9581 74.5879 158.4101 74.5879 158.4101 77.8809 187.5641 77.8809 187.5641 74.5879"></polygon>
                    <polygon id="Fill-72" fill="#EEADCD" mask="url(#mask-2)" points="141.25 32.57 148.771 32.57 148.771 19.044 141.25 19.044"></polygon>
                    <path d="M141.806,32.015 L148.215,32.015 L148.215,19.601 L141.806,19.601 L141.806,32.015 Z M140.694,33.126 L149.327,33.126 L149.327,18.488 L140.694,18.488 L140.694,33.126 Z" id="Fill-73" fill="#000000" mask="url(#mask-2)"></path>
                    <polygon id="Fill-74" fill="#EEADCD" mask="url(#mask-2)" points="153.311 32.57 160.832 32.57 160.832 19.044 153.311 19.044"></polygon>
                    <path d="M153.866,32.015 L160.275,32.015 L160.275,19.601 L153.866,19.601 L153.866,32.015 Z M152.755,33.126 L161.388,33.126 L161.388,18.488 L152.755,18.488 L152.755,33.126 Z" id="Fill-75" fill="#000000" mask="url(#mask-2)"></path>
                    <polygon id="Fill-76" fill="#EEADCD" mask="url(#mask-2)" points="166.069 32.57 173.59 32.57 173.59 19.044 166.069 19.044"></polygon>
                    <path d="M166.625,32.015 L173.034,32.015 L173.034,19.601 L166.625,19.601 L166.625,32.015 Z M165.513,33.126 L174.146,33.126 L174.146,18.488 L165.513,18.488 L165.513,33.126 Z" id="Fill-77" fill="#000000" mask="url(#mask-2)"></path>
                    <polygon id="Fill-78" fill="#EEADCD" mask="url(#mask-2)" points="178.13 32.57 185.651 32.57 185.651 19.044 178.13 19.044"></polygon>
                    <path d="M178.686,32.015 L185.095,32.015 L185.095,19.601 L178.686,19.601 L178.686,32.015 Z M177.575,33.126 L186.208,33.126 L186.208,18.488 L177.575,18.488 L177.575,33.126 Z" id="Fill-79" fill="#000000" mask="url(#mask-2)"></path>
                    <path d="M147.0815,67.2378 L144.8565,67.2378 L141.5205,67.2378 L141.5205,65.0128 L147.0815,65.0128 L147.0815,67.2378 Z M143.7455,70.5738 L140.4085,70.5738 L138.1845,70.5738 L138.1845,68.3498 L140.4085,68.3498 L143.7455,68.3498 L143.7455,70.5738 Z M147.0815,71.6868 L147.0815,73.9108 L141.5205,73.9108 L141.5205,71.6868 L144.8565,71.6868 L147.0815,71.6868 Z M150.9745,65.0128 L150.9745,63.9018 L148.1935,63.9018 L147.6375,63.9018 L140.9645,63.9018 L140.4085,63.9018 L137.6275,63.9018 L137.6275,65.0128 L140.4085,65.0128 L140.4085,67.2378 L137.6275,67.2378 L137.0715,67.2378 L134.2915,67.2378 L134.2915,68.3498 L137.0715,68.3498 L137.0715,70.5738 L134.2915,70.5738 L134.2915,71.6868 L137.0715,71.6868 L137.6275,71.6868 L140.4085,71.6868 L140.4085,73.9108 L137.6275,73.9108 L137.6275,75.0228 L140.4085,75.0228 L140.9645,75.0228 L147.6375,75.0228 L148.1935,75.0228 L150.9745,75.0228 L150.9745,73.9108 L148.1935,73.9108 L148.1935,71.6868 L150.9745,71.6868 L150.9745,70.5738 L148.1935,70.5738 L147.6375,70.5738 L144.8565,70.5738 L144.8565,68.3498 L147.6375,68.3498 L148.1935,68.3498 L150.9745,68.3498 L150.9745,67.2378 L148.1935,67.2378 L148.1935,65.0128 L150.9745,65.0128 Z" id="Fill-80" fill="#000000" mask="url(#mask-2)"></path>
                    <polygon id="Fill-81" fill="#A1D29D" mask="url(#mask-2)" points="126.503 42.287 157.018 42.287 157.018 37.038 126.503 37.038"></polygon>
                    <polygon id="Fill-82" fill="#A1D29D" mask="url(#mask-2)" points="133.753 14.571 192.944 14.571 192.944 9.322 133.753 9.322"></polygon>
                    <polygon id="Fill-83" fill="#EEADCD" mask="url(#mask-2)" points="131.458 60.814 138.979 60.814 138.979 47.288 131.458 47.288"></polygon>
                    <path d="M132.014,60.258 L138.423,60.258 L138.423,47.844 L132.014,47.844 L132.014,60.258 Z M130.902,61.37 L139.535,61.37 L139.535,46.731 L130.902,46.731 L130.902,61.37 Z" id="Fill-84" fill="#000000" mask="url(#mask-2)"></path>
                    <polygon id="Fill-85" fill="#EEADCD" mask="url(#mask-2)" points="144.64 60.814 152.161 60.814 152.161 47.288 144.64 47.288"></polygon>
                    <path d="M145.196,60.258 L151.605,60.258 L151.605,47.844 L145.196,47.844 L145.196,60.258 Z M144.084,61.37 L152.717,61.37 L152.717,46.731 L144.084,46.731 L144.084,61.37 Z" id="Fill-86" fill="#000000" mask="url(#mask-2)"></path>
                    <path d="M134.309,14.015 L192.388,14.015 L192.388,9.879 L134.309,9.879 L134.309,14.015 Z M190.004,77.387 L188.121,77.387 L188.121,74.032 L184.572,74.032 L184.572,70.774 L181.789,70.774 L181.789,55.803 C182.55,55.237 183.083,54.391 183.218,53.422 L183.252,53.422 L183.252,52.866 C183.252,47.061 178.529,42.337 172.724,42.337 C166.918,42.337 162.195,47.061 162.195,52.866 L162.195,52.912 C162.195,52.918 162.195,52.926 162.195,52.933 C162.195,52.961 162.195,52.989 162.196,53.017 L162.199,53.422 L162.229,53.422 C162.371,54.437 162.949,55.318 163.77,55.881 L163.77,70.774 L161.402,70.774 L161.402,74.032 L157.854,74.032 L157.854,77.387 L156.371,77.387 L156.371,42.842 L157.574,42.842 L157.574,36.481 L136.693,36.481 L136.693,15.127 L190.004,15.127 L190.004,77.387 Z M181.789,71.886 L183.46,71.886 L183.46,74.032 L162.514,74.032 L162.514,71.886 L163.77,71.886 L181.789,71.886 Z M172.223,56.51 L172.223,70.774 L164.882,70.774 L164.882,56.401 C165.201,56.489 165.537,56.537 165.884,56.537 C167.231,56.537 168.409,55.824 169.051,54.767 C169.711,55.716 170.868,56.377 172.223,56.51 Z M175.877,52.937 L175.869,53.012 C175.815,54.342 174.404,55.424 172.724,55.424 C171.043,55.424 169.632,54.342 169.579,53.012 L169.57,52.937 C169.56,52.876 168.518,46.846 170.556,44.413 C171.099,43.765 171.808,43.45 172.724,43.45 C173.639,43.45 174.348,43.765 174.891,44.413 C176.93,46.846 175.887,52.876 175.877,52.937 Z M180.676,56.366 L180.676,70.774 L173.335,70.774 L173.335,56.496 C174.642,56.339 175.754,55.689 176.396,54.767 C177.039,55.824 178.215,56.537 179.563,56.537 C179.951,56.537 180.325,56.475 180.676,56.366 Z M179.563,55.424 C178.17,55.424 177.035,54.35 176.991,53.016 C177.134,52.14 177.901,46.827 176.003,44.047 C179.448,45.333 181.948,48.574 182.129,52.417 L182.14,52.933 C182.14,54.307 180.984,55.424 179.563,55.424 Z M163.324,52.31 C163.545,48.513 166.031,45.32 169.444,44.046 C167.544,46.828 168.314,52.149 168.456,53.019 C168.409,54.353 167.274,55.424 165.884,55.424 C164.463,55.424 163.307,54.307 163.308,52.936 L163.325,52.31 L163.324,52.31 Z M158.966,77.325 L187.008,77.325 L187.008,75.144 L158.966,75.144 L158.966,77.325 Z M128.262,77.325 L155.259,77.325 L155.259,42.842 L128.262,42.842 L128.262,77.325 Z M127.059,41.731 L156.462,41.731 L156.462,37.594 L127.059,37.594 L127.059,41.731 Z M133.196,8.766 L133.196,15.127 L135.581,15.127 L135.581,36.481 L125.947,36.481 L125.947,42.842 L127.15,42.842 L127.15,78.437 L135.581,78.437 L135.581,78.5 L191.116,78.5 L191.116,15.127 L193.5,15.127 L193.5,8.766 L133.196,8.766 Z" id="Fill-87" fill="#000000" mask="url(#mask-2)"></path>
                    <path d="M192.5146,82.123 L192.5146,104.59 L213.3956,104.59 L213.3956,109.839 L212.1926,109.839 L184.0846,109.839 L184.0846,145.434 L192.5146,145.434 L192.5146,145.496 L214.7876,145.496 L214.7876,145.434 L214.7876,143.253 L214.7876,142.14 L218.3356,142.14 L218.3356,138.883 L220.7036,138.883 L220.7036,123.127 C219.7636,122.601 219.1296,121.616 219.1296,120.485 C219.1296,120.463 219.1326,120.441 219.1326,120.418 L219.1296,120.418 C219.1296,114.911 223.5936,110.446 229.1006,110.446 L229.1016,110.446 L229.1026,110.446 C234.6096,110.446 239.0736,114.911 239.0736,120.418 L239.0706,120.418 C239.0706,120.441 239.0736,120.463 239.0736,120.485 C239.0736,121.571 238.4886,122.521 237.6106,123.061 L237.6106,138.883 L240.3936,138.883 L240.3936,142.14 L243.9426,142.14 L243.9426,143.253 L243.9426,145.434 L243.9426,145.496 L246.9376,145.496 L246.9376,82.123 L192.5146,82.123 Z" id="Fill-88" fill="#EEADCD" mask="url(#mask-2)"></path>
                    <path d="M229.1016,110.4458 C223.5936,110.4458 225.4006,120.5868 225.4006,120.5868 C225.4666,122.2228 227.0956,123.5328 229.1016,123.5328 C231.1076,123.5328 232.7366,122.2228 232.8026,120.5868 C232.8026,120.5868 234.6086,110.4458 229.1016,110.4458" id="Fill-89" fill="#A1D29D" mask="url(#mask-2)"></path>
                    <path d="M229.1011,110.4458 C223.5941,110.4458 219.1291,114.9108 219.1291,120.4188 L219.1331,120.4188 C219.1321,120.4408 219.1291,120.4628 219.1291,120.4858 C219.1291,122.1688 220.5321,123.5328 222.2621,123.5328 C223.9751,123.5328 225.3641,122.1948 225.3921,120.5348 C225.2681,119.7908 223.8131,110.4468 229.1011,110.4458" id="Fill-90" fill="#EF5722" mask="url(#mask-2)"></path>
                    <path d="M239.0737,120.4185 C239.0737,114.9115 234.6097,110.4465 229.1017,110.4455 C234.3897,110.4465 232.9347,119.7915 232.8107,120.5345 C232.8387,122.1945 234.2287,123.5335 235.9417,123.5335 C237.6717,123.5335 239.0737,122.1685 239.0737,120.4855 C239.0737,120.4625 239.0707,120.4405 239.0707,120.4185 L239.0737,120.4185 Z" id="Fill-91" fill="#EF5722" mask="url(#mask-2)"></path>
                    <path d="M225.3408,120.2012 C225.3468,120.2432 225.3528,120.2842 225.3588,120.3202 C225.3528,120.2842 225.3468,120.2432 225.3408,120.2012" id="Fill-92" fill="#DAA725" mask="url(#mask-2)"></path>
                    <path d="M225.3062,119.9453 C225.3152,120.0153 225.3242,120.0823 225.3322,120.1413 C225.3242,120.0823 225.3152,120.0153 225.3062,119.9453" id="Fill-93" fill="#DAA725" mask="url(#mask-2)"></path>
                    <path d="M225.3696,120.3945 C225.3726,120.4155 225.3756,120.4365 225.3786,120.4545 C225.3756,120.4365 225.3726,120.4155 225.3696,120.3945" id="Fill-94" fill="#DAA725" mask="url(#mask-2)"></path>
                    <path d="M225.3027,119.918 C225.2907,119.823 225.2787,119.718 225.2657,119.607 L225.2647,119.607 C225.2777,119.72 225.2907,119.823 225.3027,119.918" id="Fill-95" fill="#DAA725" mask="url(#mask-2)"></path>
                    <path d="M232.9375,119.6074 C232.9245,119.7174 232.9125,119.8214 232.9005,119.9164 C232.9125,119.8214 232.9255,119.7184 232.9375,119.6074 Z" id="Fill-96" fill="#DAA725" mask="url(#mask-2)"></path>
                    <path d="M232.8247,120.4517 C232.8267,120.4367 232.8297,120.4187 232.8327,120.4017 C232.8297,120.4187 232.8267,120.4367 232.8247,120.4517" id="Fill-97" fill="#DAA725" mask="url(#mask-2)"></path>
                    <path d="M235.9414,123.5332 C234.2284,123.5332 232.8384,122.1952 232.8114,120.5342 C232.8064,120.5652 232.8024,120.5872 232.8024,120.5872 C232.7364,122.2222 231.1074,123.5332 229.1014,123.5332 C227.0954,123.5332 225.4664,122.2222 225.4004,120.5872 C225.4004,120.5872 225.3974,120.5652 225.3924,120.5342 C225.3644,122.1952 223.9744,123.5332 222.2614,123.5332 C221.6944,123.5332 221.1634,123.3842 220.7044,123.1272 L220.7044,138.8832 L237.6104,138.8832 L237.6104,123.0612 C237.1274,123.3582 236.5554,123.5332 235.9414,123.5332" id="Fill-98" fill="#DAA725" mask="url(#mask-2)"></path>
                    <path d="M232.8711,120.1392 C232.8781,120.0842 232.8871,120.0232 232.8951,119.9602 C232.8871,120.0232 232.8781,120.0842 232.8711,120.1392" id="Fill-99" fill="#DAA725" mask="url(#mask-2)"></path>
                    <path d="M232.8447,120.3193 C232.8497,120.2863 232.8557,120.2483 232.8607,120.2103 C232.8557,120.2483 232.8497,120.2863 232.8447,120.3193" id="Fill-100" fill="#DAA725" mask="url(#mask-2)"></path>
                    <polygon id="Fill-101" fill="#A1D29D" mask="url(#mask-2)" points="240.394 142.1401 240.394 138.8831 218.336 138.8831 218.336 142.1401 214.788 142.1401 214.788 145.4331 243.942 145.4331 243.942 142.1401"></polygon>
                    <polygon id="Fill-102" fill="#A1D29D" mask="url(#mask-2)" points="197.628 100.123 205.149 100.123 205.149 86.597 197.628 86.597"></polygon>
                    <path d="M198.184,99.567 L204.593,99.567 L204.593,87.153 L198.184,87.153 L198.184,99.567 Z M197.072,100.679 L205.705,100.679 L205.705,86.04 L197.072,86.04 L197.072,100.679 Z" id="Fill-103" fill="#000000" mask="url(#mask-2)"></path>
                    <polygon id="Fill-104" fill="#A1D29D" mask="url(#mask-2)" points="209.689 100.123 217.21 100.123 217.21 86.597 209.689 86.597"></polygon>
                    <path d="M210.245,99.567 L216.654,99.567 L216.654,87.153 L210.245,87.153 L210.245,99.567 Z M209.133,100.679 L217.766,100.679 L217.766,86.04 L209.133,86.04 L209.133,100.679 Z" id="Fill-105" fill="#000000" mask="url(#mask-2)"></path>
                    <polygon id="Fill-106" fill="#A1D29D" mask="url(#mask-2)" points="222.448 100.123 229.969 100.123 229.969 86.597 222.448 86.597"></polygon>
                    <path d="M223.003,99.567 L229.412,99.567 L229.412,87.153 L223.003,87.153 L223.003,99.567 Z M221.891,100.679 L230.524,100.679 L230.524,86.04 L221.891,86.04 L221.891,100.679 Z" id="Fill-107" fill="#000000" mask="url(#mask-2)"></path>
                    <polygon id="Fill-108" fill="#A1D29D" mask="url(#mask-2)" points="234.508 100.123 242.029 100.123 242.029 86.597 234.508 86.597"></polygon>
                    <path d="M235.064,99.567 L241.473,99.567 L241.473,87.153 L235.064,87.153 L235.064,99.567 Z M233.952,100.679 L242.585,100.679 L242.585,86.04 L233.952,86.04 L233.952,100.679 Z" id="Fill-109" fill="#000000" mask="url(#mask-2)"></path>
                    <path d="M203.4595,134.79 L201.2355,134.79 L197.8985,134.79 L197.8985,132.566 L203.4595,132.566 L203.4595,134.79 Z M200.1235,138.126 L196.7865,138.126 L194.5625,138.126 L194.5625,135.902 L196.7865,135.902 L200.1235,135.902 L200.1235,138.126 Z M203.4595,139.239 L203.4595,141.463 L197.8985,141.463 L197.8985,139.239 L201.2355,139.239 L203.4595,139.239 Z M207.3525,132.566 L207.3525,131.454 L204.5715,131.454 L204.0155,131.454 L197.3425,131.454 L196.7865,131.454 L194.0055,131.454 L194.0055,132.566 L196.7865,132.566 L196.7865,134.79 L194.0055,134.79 L193.4495,134.79 L190.6695,134.79 L190.6695,135.902 L193.4495,135.902 L193.4495,138.126 L190.6695,138.126 L190.6695,139.239 L193.4495,139.239 L194.0055,139.239 L196.7865,139.239 L196.7865,141.463 L194.0055,141.463 L194.0055,142.575 L196.7865,142.575 L197.3425,142.575 L204.0155,142.575 L204.5715,142.575 L207.3525,142.575 L207.3525,141.463 L204.5715,141.463 L204.5715,139.239 L207.3525,139.239 L207.3525,138.126 L204.5715,138.126 L204.0155,138.126 L201.2355,138.126 L201.2355,135.902 L204.0155,135.902 L204.5715,135.902 L207.3525,135.902 L207.3525,134.79 L204.5715,134.79 L204.5715,132.566 L207.3525,132.566 Z" id="Fill-110" fill="#000000" mask="url(#mask-2)"></path>
                    <polygon id="Fill-111" fill="#EF5722" mask="url(#mask-2)" points="182.881 109.839 213.396 109.839 213.396 104.59 182.881 104.59"></polygon>
                    <polygon id="Fill-112" fill="#EF5722" mask="url(#mask-2)" points="190.13 82.123 249.322 82.123 249.322 76.874 190.13 76.874"></polygon>
                    <polygon id="Fill-113" fill="#A1D29D" mask="url(#mask-2)" points="187.836 128.366 195.357 128.366 195.357 114.84 187.836 114.84"></polygon>
                    <path d="M188.392,127.81 L194.801,127.81 L194.801,115.396 L188.392,115.396 L188.392,127.81 Z M187.28,128.922 L195.913,128.922 L195.913,114.284 L187.28,114.284 L187.28,128.922 Z" id="Fill-114" fill="#000000" mask="url(#mask-2)"></path>
                    <polygon id="Fill-115" fill="#A1D29D" mask="url(#mask-2)" points="201.018 128.366 208.539 128.366 208.539 114.84 201.018 114.84"></polygon>
                    <path d="M201.574,127.81 L207.983,127.81 L207.983,115.396 L201.574,115.396 L201.574,127.81 Z M200.462,128.922 L209.095,128.922 L209.095,114.284 L200.462,114.284 L200.462,128.922 Z" id="Fill-116" fill="#000000" mask="url(#mask-2)"></path>
                    <path d="M190.687,81.567 L248.766,81.567 L248.766,77.431 L190.687,77.431 L190.687,81.567 Z M246.382,144.939 L244.499,144.939 L244.499,141.584 L240.95,141.584 L240.95,138.327 L238.167,138.327 L238.167,123.355 C238.928,122.79 239.461,121.943 239.596,120.975 L239.63,120.975 L239.63,120.418 C239.63,114.613 234.907,109.89 229.102,109.89 C223.296,109.89 218.573,114.613 218.573,120.418 L218.573,120.464 L218.573,120.485 C218.573,120.513 218.573,120.542 218.574,120.569 L218.577,120.975 L218.607,120.975 C218.749,121.99 219.327,122.87 220.148,123.434 L220.148,138.327 L217.78,138.327 L217.78,141.584 L214.232,141.584 L214.232,144.939 L212.749,144.939 L212.749,110.395 L213.953,110.395 L213.953,104.034 L193.071,104.034 L193.071,82.679 L246.382,82.679 L246.382,144.939 Z M238.167,139.439 L239.838,139.439 L239.838,141.584 L218.892,141.584 L218.892,139.439 L220.148,139.439 L238.167,139.439 Z M228.601,124.062 L228.601,138.327 L221.26,138.327 L221.26,123.954 C221.579,124.042 221.915,124.089 222.262,124.089 C223.61,124.089 224.787,123.376 225.43,122.319 C226.089,123.268 227.247,123.93 228.601,124.062 Z M232.255,120.489 L232.247,120.564 C232.193,121.895 230.782,122.977 229.102,122.977 C227.421,122.977 226.01,121.895 225.957,120.564 L225.948,120.489 C225.937,120.429 224.896,114.398 226.934,111.966 C227.478,111.317 228.186,111.002 229.102,111.002 C230.017,111.002 230.726,111.317 231.27,111.966 C233.308,114.398 232.265,120.429 232.255,120.489 Z M237.054,123.918 L237.054,138.327 L229.713,138.327 L229.713,124.048 C231.02,123.891 232.133,123.242 232.773,122.319 C233.417,123.377 234.593,124.089 235.941,124.089 C236.33,124.089 236.703,124.027 237.054,123.918 Z M235.941,122.977 C234.548,122.977 233.413,121.902 233.369,120.568 C233.513,119.692 234.279,114.379 232.381,111.6 C235.826,112.885 238.326,116.126 238.507,119.969 L238.518,120.485 C238.518,121.859 237.362,122.977 235.941,122.977 Z M219.702,119.862 C219.923,116.065 222.409,112.873 225.822,111.599 C223.923,114.381 224.692,119.702 224.834,120.571 C224.787,121.905 223.653,122.977 222.262,122.977 C220.841,122.977 219.685,121.859 219.686,120.488 L219.703,119.862 L219.702,119.862 Z M215.344,144.877 L243.386,144.877 L243.386,142.696 L215.344,142.696 L215.344,144.877 Z M184.641,144.877 L211.637,144.877 L211.637,110.395 L184.641,110.395 L184.641,144.877 Z M183.437,109.283 L212.84,109.283 L212.84,105.146 L183.437,105.146 L183.437,109.283 Z M189.574,76.318 L189.574,82.679 L191.958,82.679 L191.958,104.034 L182.325,104.034 L182.325,110.395 L183.528,110.395 L183.528,145.99 L191.958,145.99 L191.958,146.052 L247.494,146.052 L247.494,82.679 L249.878,82.679 L249.878,76.318 L189.574,76.318 Z" id="Fill-117" fill="#000000" mask="url(#mask-2)"></path>
                    <path d="M269.0415,24.5605 L269.0415,16.7665 C269.0415,14.6145 267.2965,12.8695 265.1445,12.8695 L243.7095,12.8695 C241.5575,12.8695 239.8125,14.6145 239.8125,16.7665 L239.8125,34.3035 L241.7615,34.3035 L241.7615,38.2005 L243.7095,38.2005 C243.7095,36.0485 245.4555,34.3035 247.6065,34.3035 C249.7595,34.3035 251.5045,36.0485 251.5045,38.2005 L263.1955,38.2005 C263.1955,36.0485 264.9405,34.3035 267.0925,34.3035 L272.9385,34.3035 L272.9385,28.4575 C272.9385,28.4575 272.9385,24.5605 269.0415,24.5605" id="Fill-118" fill="#DBA827" mask="url(#mask-2)"></path>
                    <path d="M247.6069,34.3037 C249.7589,34.3037 251.5039,36.0487 251.5039,38.2007 C251.5039,40.3527 249.7589,42.0977 247.6069,42.0977 C245.4549,42.0977 243.7099,40.3527 243.7099,38.2007 C243.7099,36.0487 245.4549,34.3037 247.6069,34.3037" id="Fill-119" fill="#EFAECE" mask="url(#mask-2)"></path>
                    <path d="M247.6069,36.252 C248.6829,36.252 249.5559,37.125 249.5559,38.201 C249.5559,39.277 248.6829,40.149 247.6069,40.149 C246.5309,40.149 245.6589,39.277 245.6589,38.201 C245.6589,37.125 246.5309,36.252 247.6069,36.252" id="Fill-120" fill="#F05822" mask="url(#mask-2)"></path>
                    <path d="M247.6069,36.6416 C246.7459,36.6416 246.0479,37.3396 246.0479,38.2006 C246.0479,39.0616 246.7459,39.7596 247.6069,39.7596 C248.4679,39.7596 249.1659,39.0616 249.1659,38.2006 C249.1659,37.3396 248.4679,36.6416 247.6069,36.6416 M247.6069,40.5386 C246.3159,40.5386 245.2689,39.4926 245.2689,38.2006 C245.2689,36.9096 246.3159,35.8626 247.6069,35.8626 C248.8989,35.8626 249.9449,36.9096 249.9449,38.2006 C249.9449,39.4926 248.8989,40.5386 247.6069,40.5386" id="Fill-121" fill="#000000" mask="url(#mask-2)"></path>
                    <path d="M267.0928,34.3037 C269.2448,34.3037 270.9898,36.0487 270.9898,38.2007 C270.9898,40.3527 269.2448,42.0977 267.0928,42.0977 C264.9408,42.0977 263.1958,40.3527 263.1958,38.2007 C263.1958,36.0487 264.9408,34.3037 267.0928,34.3037" id="Fill-122" fill="#EFAECE" mask="url(#mask-2)"></path>
                    <path d="M267.0928,36.252 C268.1688,36.252 269.0418,37.125 269.0418,38.201 C269.0418,39.277 268.1688,40.149 267.0928,40.149 C266.0168,40.149 265.1438,39.277 265.1438,38.201 C265.1438,37.125 266.0168,36.252 267.0928,36.252" id="Fill-123" fill="#F05822" mask="url(#mask-2)"></path>
                    <path d="M267.0928,36.6416 C266.2318,36.6416 265.5338,37.3396 265.5338,38.2006 C265.5338,39.0616 266.2318,39.7596 267.0928,39.7596 C267.9538,39.7596 268.6518,39.0616 268.6518,38.2006 C268.6518,37.3396 267.9538,36.6416 267.0928,36.6416 M267.0928,40.5386 C265.8008,40.5386 264.7548,39.4926 264.7548,38.2006 C264.7548,36.9096 265.8008,35.8626 267.0928,35.8626 C268.3848,35.8626 269.4308,36.9096 269.4308,38.2006 C269.4308,39.4926 268.3848,40.5386 267.0928,40.5386" id="Fill-124" fill="#000000" mask="url(#mask-2)"></path>
                    <polygon id="Fill-125" fill="#221F1F" mask="url(#mask-2)" points="241.761 26.704 257.35 26.704 257.35 25.925 241.761 25.925"></polygon>
                    <polygon id="Fill-126" fill="#221F1F" mask="url(#mask-2)" points="241.761 30.796 257.35 30.796 257.35 30.017 241.761 30.017"></polygon>
                    <polygon id="Fill-127" fill="#A2D39F" mask="url(#mask-2)" points="265.144 24.561 269.041 24.561 269.041 18.715 265.144 18.715"></polygon>
                    <polygon id="Fill-128" fill="#A2D39F" mask="url(#mask-2)" points="253.453 24.561 257.35 24.561 257.35 18.715 253.453 18.715"></polygon>
                    <path d="M253.843,24.171 L256.961,24.171 L256.961,19.105 L253.843,19.105 L253.843,24.171 Z M253.063,24.95 L257.74,24.95 L257.74,18.325 L253.063,18.325 L253.063,24.95 Z" id="Fill-129" fill="#000000" mask="url(#mask-2)"></path>
                    <polygon id="Fill-130" fill="#A2D39F" mask="url(#mask-2)" points="247.607 24.561 251.504 24.561 251.504 18.715 247.607 18.715"></polygon>
                    <path d="M247.997,24.171 L251.115,24.171 L251.115,19.105 L247.997,19.105 L247.997,24.171 Z M247.217,24.95 L251.894,24.95 L251.894,18.325 L247.217,18.325 L247.217,24.95 Z" id="Fill-131" fill="#000000" mask="url(#mask-2)"></path>
                    <polygon id="Fill-132" fill="#A2D39F" mask="url(#mask-2)" points="241.761 24.561 245.658 24.561 245.658 18.715 241.761 18.715"></polygon>
                    <path d="M242.151,24.171 L245.269,24.171 L245.269,19.105 L242.151,19.105 L242.151,24.171 Z M241.371,24.95 L246.048,24.95 L246.048,18.325 L241.371,18.325 L241.371,24.95 Z" id="Fill-133" fill="#000000" mask="url(#mask-2)"></path>
                    <polygon id="Fill-134" fill="#A2D39F" mask="url(#mask-2)" points="261.2471 18.7148 259.2981 18.7148 259.2981 34.3038 261.2471 34.3038 263.1961 34.3038 263.1961 18.7148"></polygon>
                    <path d="M261.637,33.914 L262.806,33.914 L262.806,19.104 L261.637,19.104 L261.637,33.914 Z M259.688,33.914 L260.857,33.914 L260.857,19.104 L259.688,19.104 L259.688,33.914 Z M261.637,18.325 L258.909,18.325 L258.909,34.693 L263.585,34.693 L263.585,18.325 L261.637,18.325 Z" id="Fill-135" fill="#000000" mask="url(#mask-2)"></path>
                    <path d="M272.9385,32.355 C274.0145,32.355 274.8875,31.482 274.8875,30.406 C274.8875,29.33 274.0145,28.458 272.9385,28.458 L272.9385,32.355 Z" id="Fill-136" fill="#EFAECE" mask="url(#mask-2)"></path>
                    <polygon id="Fill-137" fill="#F05822" mask="url(#mask-2)" points="239.813 38.201 241.761 38.201 241.761 34.304 239.813 34.304"></polygon>
                    <path d="M267.0928,34.3037 C269.2448,34.3037 270.9898,36.0487 270.9898,38.2007 L274.8868,38.2007 L274.8868,34.3037 L267.0928,34.3037 Z" id="Fill-138" fill="#F05822" mask="url(#mask-2)"></path>
                    <path d="M274.4976,37.811 L271.3606,37.811 C271.2446,36.557 270.5836,35.416 269.5516,34.693 L274.4976,34.693 L274.4976,37.811 Z M267.0926,41.708 C265.1556,41.708 263.5856,40.138 263.5856,38.201 C263.5856,36.264 265.1556,34.693 267.0926,34.693 C269.0296,34.693 270.6006,36.264 270.6006,38.201 C270.6006,40.138 269.0296,41.708 267.0926,41.708 Z M247.6066,41.708 C245.6696,41.708 244.0996,40.138 244.0996,38.201 C244.0996,36.264 245.6696,34.693 247.6066,34.693 C249.5446,34.693 251.1146,36.264 251.1146,38.201 C251.1146,40.138 249.5446,41.708 247.6066,41.708 Z M265.5336,24.171 L268.6516,24.171 L268.6516,19.105 L265.5336,19.105 L265.5336,24.171 Z M240.2026,33.914 L240.2026,17.156 L268.6516,17.156 L268.6516,18.325 L264.7546,18.325 L264.7546,24.95 L269.0416,24.95 C272.4926,24.95 272.5486,28.315 272.5486,28.458 L272.5486,33.914 L266.7036,33.914 L266.7036,33.931 C264.6436,34.119 263.0116,35.751 262.8236,37.811 L251.8746,37.811 C251.6546,35.454 249.5656,33.721 247.2076,33.94 C245.1556,34.132 243.5296,35.758 243.3376,37.811 L242.1516,37.811 L242.1516,33.914 L240.2026,33.914 Z M240.2026,37.811 L241.3716,37.811 L241.3716,34.693 L240.2026,34.693 L240.2026,37.811 Z M243.7096,13.259 L265.1436,13.259 C266.9306,13.26 268.4296,14.602 268.6286,16.377 L240.2316,16.377 C240.4306,14.604 241.9266,13.263 243.7096,13.259 Z M273.3286,28.896 C274.1626,29.11 274.6656,29.959 274.4516,30.793 C274.3106,31.345 273.8796,31.775 273.3286,31.916 L273.3286,28.896 Z M273.3286,32.709 C274.6006,32.486 275.4496,31.273 275.2256,30.001 C275.0536,29.023 274.2816,28.26 273.3006,28.099 C273.1876,27.109 272.5916,24.397 269.4316,24.183 L269.4316,16.767 C269.4316,14.399 267.5116,12.479 265.1436,12.479 L243.7096,12.479 C241.3426,12.479 239.4236,14.399 239.4236,16.767 L239.4236,38.59 L243.3376,38.59 C243.5576,40.948 245.6466,42.681 248.0036,42.461 C250.0576,42.269 251.6836,40.644 251.8746,38.59 L262.8236,38.59 C263.0436,40.948 265.1326,42.681 267.4896,42.461 C269.5426,42.269 271.1686,40.644 271.3606,38.59 L275.2766,38.59 L275.2766,33.914 L273.3286,33.914 L273.3286,32.709 Z" id="Fill-139" fill="#000000" mask="url(#mask-2)"></path>
                    <path d="M183.2563,95.5 C183.2563,92.845 181.1043,90.693 178.4493,90.693 C175.7953,90.693 173.6433,92.845 173.6433,95.5 L183.2563,95.5 Z" id="Fill-140" fill="#F05822" mask="url(#mask-2)"></path>
                    <path d="M99.603,139.5 C100.394,139.214 102.313,138.497 102.313,137.699 C102.313,136.901 99.891,136.591 99.603,135.897 C99.305,135.178 100.787,133.249 100.245,132.707 C99.703,132.165 97.773,133.647 97.054,133.349 C96.36,133.061 96.051,130.639 95.253,130.639 C94.455,130.639 94.145,133.061 93.452,133.349 C92.732,133.647 90.803,132.165 90.261,132.707 C89.719,133.249 91.201,135.178 90.903,135.897 C90.615,136.591 88.193,136.901 88.193,137.699 C88.193,138.497 90.112,139.214 90.903,139.5 L99.603,139.5 Z" id="Fill-141" fill="#A2D39F" mask="url(#mask-2)"></path>
                    <path d="M168.2305,102.9102 C168.2305,104.8852 165.1645,106.7802 165.0925,108.6402 C165.0165,110.6462 167.9255,112.6742 167.7735,114.4972 C167.6035,116.5562 164.3705,118.2942 164.1175,120.0522 C163.8035,122.2352 166.4245,124.4912 166.0075,126.0872 C165.1685,129.2942 162.6585,129.8422 161.5545,129.8422 C160.4515,129.8422 157.9415,129.2942 157.1025,126.0862 C156.6845,124.4902 159.3055,122.2342 158.9925,120.0522 C158.7395,118.2942 155.5065,116.5562 155.3355,114.4972 C155.1845,112.6742 158.0935,110.6462 158.0165,108.6402 C157.9455,106.7812 154.8785,104.8852 154.8785,102.9102 C154.8785,100.9352 157.9455,99.0402 158.0165,97.1802 C158.0935,95.1742 155.1845,93.1462 155.3355,91.3232 C155.5065,89.2642 158.7395,87.5262 158.9925,85.7682 C159.3065,83.5852 156.6855,81.3292 157.1025,79.7332 C157.9415,76.5262 160.4515,75.9782 161.5545,75.9782 C162.6585,75.9782 165.1685,76.5262 166.0075,79.7342 C166.4245,81.3302 163.8035,83.5862 164.1175,85.7682 C164.3705,87.5262 167.6035,89.2642 167.7735,91.3232 C167.9255,93.1462 165.0155,95.1742 165.0925,97.1802 C165.1645,99.0392 168.2305,100.9352 168.2305,102.9102" id="Fill-142" fill="#EFAECE" mask="url(#mask-2)"></path>
                    <polygon id="Fill-143" fill="#000000" mask="url(#mask-2)" points="164.4858 100.2617 163.7618 99.5377 162.0668 101.2327 162.0668 94.4307 164.4858 92.0117 163.7618 91.2877 162.0668 92.9827 162.0668 87.7637 161.0428 87.7637 161.0428 92.9827 159.3478 91.2877 158.6238 92.0117 161.0428 94.4307 161.0428 101.2327 159.3478 99.5377 158.6238 100.2617 161.0428 102.6807 161.0428 109.4827 159.3478 107.7877 158.6238 108.5117 161.0428 110.9307 161.0428 117.7327 159.3478 116.0387 158.6238 116.7617 161.0428 119.1807 161.0428 125.9827 159.3478 124.2887 158.6238 125.0127 161.0428 127.4307 161.0428 141.9627 162.0668 141.9627 162.0668 127.4307 164.4858 125.0127 163.7618 124.2887 162.0668 125.9827 162.0668 119.1807 164.4858 116.7617 163.7618 116.0387 162.0668 117.7327 162.0668 110.9307 164.4858 108.5117 163.7618 107.7877 162.0668 109.4827 162.0668 102.6807"></polygon>
                    <path d="M32.667,58.2598 C32.667,61.2678 28.342,63.9848 27.286,66.3578 C25.352,70.7008 23.773,74.2948 19.868,74.2948 C15.963,74.2948 14.384,70.7008 12.451,66.3578 C11.395,63.9848 7.069,61.2678 7.069,58.2598 C7.069,55.2518 11.395,52.5348 12.451,50.1628 C14.384,45.8198 15.963,42.2248 19.868,42.2248 C23.773,42.2248 25.352,45.8198 27.286,50.1628 C28.342,52.5348 32.667,55.2518 32.667,58.2598" id="Fill-144" fill="#A2D39F" mask="url(#mask-2)"></path>
                    <path d="M20.3804,49.6587 C21.2494,50.7617 22.5874,51.4767 24.0974,51.4767 L24.0974,50.4527 C22.0474,50.4527 20.3804,48.7857 20.3804,46.7367 L20.3804,46.5427 L19.3564,46.5427 C19.3564,48.5917 17.6894,50.2597 15.6394,50.2597 L15.6394,51.2837 C17.1484,51.2837 18.4874,50.5697 19.3564,49.4677 L19.3564,52.2887 C19.3564,54.3377 17.6894,56.0057 15.6394,56.0057 L15.6394,57.0297 C17.1484,57.0297 18.4874,56.3147 19.3564,55.2137 L19.3564,58.0337 C19.3564,60.0837 17.6894,61.7507 15.6394,61.7507 L15.6394,62.7757 C17.1484,62.7757 18.4874,62.0607 19.3564,60.9597 L19.3564,63.7807 C19.3564,65.8297 17.6894,67.4967 15.6394,67.4967 L15.6394,68.5217 C17.1484,68.5217 18.4874,67.8067 19.3564,66.7057 L19.3564,82.2077 L20.3804,82.2077 L20.3804,66.8967 C21.2494,67.9997 22.5874,68.7157 24.0974,68.7157 L24.0974,67.6907 C22.0474,67.6907 20.3804,66.0237 20.3804,63.9737 L20.3804,63.7807 L20.3804,61.1507 C21.2494,62.2537 22.5874,62.9697 24.0974,62.9697 L24.0974,61.9447 C22.0474,61.9447 20.3804,60.2777 20.3804,58.2277 L20.3804,58.0337 L20.3804,55.4047 C21.2494,56.5077 22.5874,57.2227 24.0974,57.2227 L24.0974,56.1987 C22.0474,56.1987 20.3804,54.5317 20.3804,52.4817 L20.3804,52.2887 L20.3804,49.6587 Z" id="Fill-145" fill="#221F1F" mask="url(#mask-2)"></path>
                    <path d="M74.3521,21.5 C74.3521,18.845 72.2001,16.693 69.5451,16.693 C66.8911,16.693 64.7391,18.845 64.7391,21.5 L74.3521,21.5 Z" id="Fill-146" fill="#EFAECE" mask="url(#mask-2)"></path>
                    <path d="M304.8491,24.5 C305.6401,24.214 307.5591,23.497 307.5591,22.699 C307.5591,21.901 305.1371,21.591 304.8491,20.897 C304.5511,20.178 306.0331,18.249 305.4911,17.707 C304.9491,17.165 303.0191,18.647 302.3001,18.349 C301.6071,18.061 301.2971,15.639 300.4991,15.639 C299.7011,15.639 299.3911,18.061 298.6981,18.349 C297.9781,18.647 296.0491,17.165 295.5071,17.707 C294.9651,18.249 296.4471,20.178 296.1491,20.897 C295.8611,21.591 293.4391,21.901 293.4391,22.699 C293.4391,23.497 295.3581,24.214 296.1491,24.5 L304.8491,24.5 Z" id="Fill-147" fill="#EFAECE" mask="url(#mask-2)"></path>
                    <g id="Group-150" mask="url(#mask-2)" opacity="0.25" stroke="#000000" stroke-width="2">
                        <g transform="translate(29.000000, 66.000000)" id="Stroke-149">
                            <path d="M62.5,31.2222 C62.5,48.3432 48.621,62.2222 31.5,62.2222 C14.379,62.2222 0.5,48.3432 0.5,31.2222 C0.5,14.1012 14.379,0.2222 31.5,0.2222 C48.621,0.2222 62.5,14.1012 62.5,31.2222 Z"></path>
                        </g>
                    </g>
                    <path d="M91.5,95.5 C91.5,112.621 77.621,126.5 60.5,126.5 C43.379,126.5 29.5,112.621 29.5,95.5 C29.5,78.379 43.379,64.5 60.5,64.5 C77.621,64.5 91.5,78.379 91.5,95.5" id="Fill-151" fill="#DAA725" mask="url(#mask-2)"></path>
                    <path d="M91.5,95.5 C91.5,112.621 77.621,126.5 60.5,126.5 C43.379,126.5 29.5,112.621 29.5,95.5 C29.5,78.379 43.379,64.5 60.5,64.5 C77.621,64.5 91.5,78.379 91.5,95.5 Z" id="Stroke-152" stroke="#FFFFFF" stroke-width="2" mask="url(#mask-2)"></path>
                    <polygon id="Fill-153" fill="#FFFFFF" mask="url(#mask-2)" points="58 146 63 146 63 65 58 65"></polygon>
                    <polygon id="Fill-154" fill="#EEADCD" mask="url(#mask-2)" points="63 140.5 62.293 139.793 58 144.086 58 146 58.914 146 63 141.914"></polygon>
                    <polygon id="Fill-155" fill="#EEADCD" mask="url(#mask-2)" points="63 134.4141 63 133.0001 62.293 132.2931 58 136.5861 58 139.0001 58.207 139.2071"></polygon>
                    <polygon id="Fill-156" fill="#EEADCD" mask="url(#mask-2)" points="63 126.9141 63 125.5001 62.293 124.7931 58 129.0861 58 131.5001 58.207 131.7071"></polygon>
                    <polygon id="Fill-157" fill="#EEADCD" mask="url(#mask-2)" points="63 119.4141 63 118.0001 62.293 117.2931 58 121.5861 58 124.0001 58.207 124.2071"></polygon>
                    <polygon id="Fill-158" fill="#EEADCD" mask="url(#mask-2)" points="63 111.9141 63 110.5001 62.293 109.7931 58 114.0861 58 116.5001 58.207 116.7071"></polygon>
                    <polygon id="Fill-159" fill="#EEADCD" mask="url(#mask-2)" points="63 104.4141 63 103.0001 62.293 102.2931 58 106.5861 58 109.0001 58.207 109.2071"></polygon>
                    <polygon id="Fill-160" fill="#EEADCD" mask="url(#mask-2)" points="63 96.9141 63 95.5001 62.293 94.7931 58 99.0861 58 101.5001 58.207 101.7071"></polygon>
                    <polygon id="Fill-161" fill="#EEADCD" mask="url(#mask-2)" points="63 89.4141 63 88.0001 62.293 87.2931 58 91.5861 58 94.0001 58.207 94.2071"></polygon>
                    <polygon id="Fill-162" fill="#EEADCD" mask="url(#mask-2)" points="63 81.9141 63 80.5001 62.293 79.7931 58 84.0861 58 86.5001 58.207 86.7071"></polygon>
                    <polygon id="Fill-163" fill="#EEADCD" mask="url(#mask-2)" points="63 74.4141 63 73.0001 62.293 72.2931 58 76.5861 58 79.0001 58.207 79.2071"></polygon>
                    <polygon id="Fill-164" fill="#EEADCD" mask="url(#mask-2)" points="63 66.9141 63 65.5001 62.5 65.0001 62.086 65.0001 58 69.0861 58 71.5001 58.207 71.7071"></polygon>
                    <path d="M58.575,145.425 L62.425,145.425 L62.425,65.575 L58.575,65.575 L58.575,145.425 Z M57.425,146.575 L63.575,146.575 L63.575,64.425 L57.425,64.425 L57.425,146.575 Z" id="Fill-165" fill="#000000" mask="url(#mask-2)"></path>
                    <path d="M64.5,64.5 C64.5,66.709 62.709,68.5 60.5,68.5 C58.291,68.5 56.5,66.709 56.5,64.5 C56.5,62.291 58.291,60.5 60.5,60.5 C62.709,60.5 64.5,62.291 64.5,64.5" id="Fill-166" fill="#EEADCD" mask="url(#mask-2)"></path>
                    <path d="M64.5,64.5 C64.5,66.709 62.709,68.5 60.5,68.5 C58.291,68.5 56.5,66.709 56.5,64.5 C56.5,62.291 58.291,60.5 60.5,60.5 C62.709,60.5 64.5,62.291 64.5,64.5 Z" id="Stroke-167" stroke="#000000" stroke-width="1.151" mask="url(#mask-2)"></path>
                    <path d="M80.6919,82.0864 C75.5969,76.7814 68.4369,73.4734 60.4999,73.4734 C52.5639,73.4734 45.4039,76.7814 40.3089,82.0864 L27.9999,82.0864 L27.9999,117.0004 L92.9999,117.0004 L92.9999,82.0864 L80.6919,82.0864 Z" id="Fill-168" fill="#000000" mask="url(#mask-2)"></path>
                    <path d="M80.6919,82.0864 C75.5969,76.7814 68.4369,73.4734 60.4999,73.4734 C52.5639,73.4734 45.4039,76.7814 40.3089,82.0864 L27.9999,82.0864 L27.9999,117.0004 L92.9999,117.0004 L92.9999,82.0864 L80.6919,82.0864 Z" id="Stroke-169" stroke="#000000" stroke-width="0.88" mask="url(#mask-2)"></path>
                    <polygon id="Fill-170" fill="#FFFFFF" mask="url(#mask-2)" points="53.2637 95.5679 52.5437 89.9399 50.3957 93.8039 48.2357 89.9519 47.5157 95.5679 45.9197 95.5679 47.0837 87.1679 48.3437 87.1679 50.3957 90.9959 52.4357 87.1679 53.6957 87.1679 54.8597 95.5679"></polygon>
                    <polygon id="Fill-171" fill="#FFFFFF" mask="url(#mask-2)" points="56.2515 87.168 61.6275 87.168 61.6275 88.656 57.8235 88.656 57.8235 90.444 60.7755 90.444 60.7755 91.932 57.8235 91.932 57.8235 94.08 61.7475 94.08 61.7475 95.568 56.2515 95.568"></polygon>
                    <polygon id="Fill-172" fill="#FFFFFF" mask="url(#mask-2)" points="63.0674 87.168 68.4434 87.168 68.4434 88.656 64.6394 88.656 64.6394 90.444 67.5914 90.444 67.5914 91.932 64.6394 91.932 64.6394 94.08 68.5634 94.08 68.5634 95.568 63.0674 95.568"></polygon>
                    <polygon id="Fill-173" fill="#FFFFFF" mask="url(#mask-2)" points="71.5156 88.6558 69.1396 88.6558 69.1396 87.1678 75.4276 87.1678 75.4276 88.6558 73.0516 88.6558 73.0516 95.5678 71.5156 95.5678"></polygon>
                    <path d="M42.7939,105.7676 C43.3219,105.7676 43.7159,105.6476 43.9759,105.4076 C44.2359,105.1676 44.3659,104.7996 44.3659,104.3036 C44.3659,103.8076 44.2339,103.4416 43.9699,103.2056 C43.7059,102.9696 43.3019,102.8516 42.7579,102.8516 L41.4859,102.8516 L41.4859,105.7676 L42.7939,105.7676 Z M39.9499,101.5676 L42.9379,101.5676 C44.9299,101.5676 45.9259,102.4716 45.9259,104.2796 C45.9259,105.2156 45.6739,105.9116 45.1699,106.3676 C44.6659,106.8236 43.9339,107.0516 42.9739,107.0516 L41.4859,107.0516 L41.4859,109.9676 L39.9499,109.9676 L39.9499,101.5676 Z" id="Fill-174" fill="#FFFFFF" mask="url(#mask-2)"></path>
                    <polygon id="Fill-175" fill="#FFFFFF" mask="url(#mask-2)" points="47.1016 101.5679 52.4776 101.5679 52.4776 103.0559 48.6736 103.0559 48.6736 104.8439 51.6256 104.8439 51.6256 106.3319 48.6736 106.3319 48.6736 108.4799 52.5976 108.4799 52.5976 109.9679 47.1016 109.9679"></polygon>
                    <path d="M59.3237,107.856 C59.7597,107.328 59.9777,106.632 59.9777,105.768 C59.9777,104.904 59.7597,104.208 59.3237,103.68 C58.8877,103.152 58.2617,102.888 57.4457,102.888 C56.6297,102.888 56.0037,103.152 55.5677,103.68 C55.1317,104.208 54.9137,104.904 54.9137,105.768 C54.9137,106.632 55.1317,107.328 55.5677,107.856 C56.0037,108.384 56.6297,108.648 57.4457,108.648 C58.2617,108.648 58.8877,108.384 59.3237,107.856 M55.3157,109.59 C54.6877,109.226 54.1957,108.714 53.8397,108.054 C53.4837,107.394 53.3057,106.632 53.3057,105.768 C53.3057,104.904 53.4837,104.142 53.8397,103.482 C54.1957,102.822 54.6877,102.31 55.3157,101.946 C55.9437,101.582 56.6537,101.4 57.4457,101.4 C58.2377,101.4 58.9477,101.582 59.5757,101.946 C60.2037,102.31 60.6957,102.822 61.0517,103.482 C61.4077,104.142 61.5857,104.904 61.5857,105.768 C61.5857,106.632 61.4077,107.394 61.0517,108.054 C60.6957,108.714 60.2037,109.226 59.5757,109.59 C58.9477,109.954 58.2377,110.136 57.4457,110.136 C56.6537,110.136 55.9437,109.954 55.3157,109.59" id="Fill-176" fill="#FFFFFF" mask="url(#mask-2)"></path>
                    <path d="M65.7739,105.7676 C66.3019,105.7676 66.6959,105.6476 66.9559,105.4076 C67.2159,105.1676 67.3459,104.7996 67.3459,104.3036 C67.3459,103.8076 67.2139,103.4416 66.9499,103.2056 C66.6859,102.9696 66.2819,102.8516 65.7379,102.8516 L64.4659,102.8516 L64.4659,105.7676 L65.7739,105.7676 Z M62.9299,101.5676 L65.9179,101.5676 C67.9099,101.5676 68.9059,102.4716 68.9059,104.2796 C68.9059,105.2156 68.6539,105.9116 68.1499,106.3676 C67.6459,106.8236 66.9139,107.0516 65.9539,107.0516 L64.4659,107.0516 L64.4659,109.9676 L62.9299,109.9676 L62.9299,101.5676 Z" id="Fill-177" fill="#FFFFFF" mask="url(#mask-2)"></path>
                    <polygon id="Fill-178" fill="#FFFFFF" mask="url(#mask-2)" points="70.0815 101.5679 71.6175 101.5679 71.6175 108.5999 75.0735 108.5999 75.0735 109.9679 70.0815 109.9679"></polygon>
                    <polygon id="Fill-179" fill="#FFFFFF" mask="url(#mask-2)" points="76.0815 101.5679 81.4575 101.5679 81.4575 103.0559 77.6535 103.0559 77.6535 104.8439 80.6055 104.8439 80.6055 106.3319 77.6535 106.3319 77.6535 108.4799 81.5775 108.4799 81.5775 109.9679 76.0815 109.9679"></polygon>
                </g>
            </g>
        </g>
    </g>
</svg>