<svg height="149" viewBox="0 0 320 149" width="320" xmlns="http://www.w3.org/2000/svg"><g fill="none" fill-rule="evenodd"><path d="m0 149h320v-150h-320z" fill="#e0e0e0"/><path d="m8.5 149c0-20.71 16.79-37.5 37.5-37.5h228c20.71 0 37.5-16.79 37.5-37.5s-16.79-37.5-37.5-37.5h-273.5" stroke="#fff" stroke-width="10"/><path d="m93.835 77.5h-1.024l.002-50.7h1.024z" fill="#000"/><g fill="#f05822"><path d="m91.948 30.744c.418 0 .766-.092 1.047-.19.106.024.215.042.33.042.114 0 .222-.018.328-.043.281.1.63.191 1.046.191a4.545 4.545 0 0 0 4.54-4.54 1.789 1.789 0 0 0 -3.576 0c0 .5-.382.913-.87.96-.02-.008-.04-.017-.063-.025v-5.169a1.407 1.407 0 1 0 -2.813 0v5.17l-.06.023a.964.964 0 0 1 -.871-.959 1.789 1.789 0 0 0 -3.578 0 4.546 4.546 0 0 0 4.54 4.54"/><path d="m91.354 37.362c.72 0 1.289-.235 1.704-.408.085-.034.192-.079.267-.105.074.026.18.071.266.105.415.173.983.408 1.704.408 2.817 0 5.223-2.09 5.597-4.863a1.789 1.789 0 0 0 -3.544-.478c-.135 1-1.006 1.754-2.03 1.764-.071-.016-.236-.084-.36-.134-.4-.166-.95-.394-1.633-.394-.685 0-1.234.228-1.635.394-.123.05-.287.118-.358.134-1.025-.01-1.895-.765-2.03-1.764a1.788 1.788 0 0 0 -3.544.478c.374 2.772 2.78 4.863 5.596 4.863"/><path d="m90.759 43.98c.83 0 1.514-.283 2.012-.489.185-.076.464-.192.549-.199.094.007.374.123.558.199.499.206 1.18.489 2.013.489 3.153 0 5.946-2.215 6.64-5.267a1.787 1.787 0 1 0 -3.487-.794c-.327 1.44-1.654 2.485-3.153 2.485-.12 0-.411-.12-.644-.217-.507-.21-1.138-.471-1.922-.471s-1.415.261-1.922.471c-.233.097-.524.217-.644.217-1.5 0-2.826-1.045-3.154-2.485a1.788 1.788 0 0 0 -3.487.794c.695 3.052 3.488 5.267 6.64 5.267"/><path d="m90.163 50.598c.942 0 1.706-.316 2.32-.57.314-.13.67-.278.841-.278.172 0 .527.147.84.277.615.255 1.38.571 2.321.571 3.531 0 6.691-2.352 7.685-5.72a1.788 1.788 0 1 0 -3.43-1.012c-.549 1.858-2.298 3.156-4.255 3.156-.23 0-.58-.145-.952-.299-.59-.245-1.326-.549-2.209-.549-.884 0-1.619.304-2.209.55-.37.153-.722.298-.952.298-1.957 0-3.707-1.298-4.255-3.156a1.788 1.788 0 1 0 -3.43 1.012c.994 3.368 4.154 5.72 7.685 5.72"/><path d="m89.569 57.216c1.052 0 1.926-.362 2.628-.653.44-.182.856-.354 1.128-.354.27 0 .687.172 1.127.354.703.291 1.577.653 2.629.653a9.242 9.242 0 0 0 8.732-6.203 1.788 1.788 0 0 0 -3.379-1.172 5.664 5.664 0 0 1 -5.353 3.8c-.341 0-.767-.177-1.26-.382-.674-.279-1.513-.626-2.496-.626s-1.822.347-2.496.626c-.493.205-.92.381-1.26.381a5.665 5.665 0 0 1 -5.354-3.799 1.788 1.788 0 1 0 -3.378 1.172 9.24 9.24 0 0 0 8.732 6.203"/><path d="m106.437 54.815a1.79 1.79 0 0 0 -2.313 1.022 6.96 6.96 0 0 1 -6.448 4.421c-.451 0-.97-.215-1.568-.463-.797-.33-1.701-.705-2.783-.705-1.083 0-1.986.375-2.784.705-.6.248-1.116.463-1.567.463a6.96 6.96 0 0 1 -6.45-4.42 1.79 1.79 0 0 0 -3.334 1.29c1.553 4.011 5.484 6.706 9.784 6.706 1.162 0 2.146-.408 2.936-.735.537-.222 1.044-.432 1.415-.432.37 0 .878.21 1.414.432.79.327 1.775.735 2.937.735 4.299 0 8.23-2.695 9.783-6.706a1.788 1.788 0 0 0 -1.022-2.313"/></g><path d="m204.598 58.835h1.024v-37.5h-1.024z" fill="#000"/><path d="m199.924 25.855c.939 0 2.173-.072 3.38-.625.499-.23.936-.512 1.322-.762.143-.093.334-.218.484-.305.15.087.34.212.484.305.386.25.824.532 1.32.762 1.21.553 2.443.625 3.383.625a1.671 1.671 0 0 0 0-3.343c-.6 0-1.368-.037-1.988-.322-.277-.127-.592-.33-.897-.527a17.455 17.455 0 0 0 -.454-.288v-2.707a1.84 1.84 0 1 0 -3.681 0v2.698c-.16.096-.314.197-.47.297-.303.197-.62.4-.896.527-.62.285-1.388.322-1.987.322a1.672 1.672 0 0 0 0 3.343" fill="#dba827"/><path d="m198.605 31.401c1.135 0 2.623-.084 4.063-.746.597-.274 1.132-.62 1.604-.925.256-.167.619-.402.838-.509.219.107.582.342.839.51.47.304 1.006.65 1.602.924 1.44.662 2.929.746 4.064.746a1.672 1.672 0 1 0 0-3.343c-.795 0-1.817-.05-2.67-.44-.376-.174-.783-.438-1.178-.694-.822-.532-1.672-1.083-2.657-1.083s-1.835.551-2.657 1.083c-.394.256-.803.52-1.18.693-.851.391-1.873.441-2.668.441a1.672 1.672 0 0 0 0 3.343" fill="#dba827"/><path d="m197.286 36.949c1.33 0 3.073-.1 4.746-.867.695-.318 1.327-.728 1.885-1.09.376-.243.929-.601 1.193-.696.264.095.817.453 1.193.696.558.362 1.19.772 1.884 1.09 1.674.768 3.416.867 4.747.867a1.671 1.671 0 0 0 0-3.343c-.991 0-2.267-.064-3.353-.562-.474-.218-.975-.542-1.46-.857-.991-.641-1.926-1.248-3.011-1.248s-2.021.607-3.011 1.248c-.485.315-.986.639-1.461.857-1.085.498-2.361.562-3.352.562a1.671 1.671 0 0 0 0 3.343" fill="#dba827"/><path d="m195.967 42.496c1.526 0 3.523-.112 5.43-.987.792-.364 1.522-.837 2.165-1.254.5-.323 1.246-.807 1.548-.872.301.065 1.048.549 1.547.872.643.417 1.373.89 2.166 1.254 1.906.875 3.903.987 5.43.987a1.671 1.671 0 0 0 0-3.343c-1.187 0-2.718-.077-4.035-.682-.573-.263-1.168-.648-1.743-1.021-1.122-.727-2.18-1.413-3.365-1.413s-2.244.686-3.366 1.413c-.575.373-1.17.758-1.742 1.02-1.318.606-2.849.683-4.035.683a1.672 1.672 0 0 0 0 3.343" fill="#dba827"/><path d="m194.648 48.042c1.723 0 3.974-.125 6.112-1.107.892-.409 1.719-.945 2.449-1.418.626-.406 1.57-1.018 1.896-1.04.335.023 1.28.635 1.907 1.04.729.473 1.556 1.01 2.448 1.418 2.139.982 4.39 1.107 6.112 1.107a1.67 1.67 0 1 0 0-3.343c-1.382 0-3.168-.09-4.718-.801-.671-.309-1.36-.755-2.024-1.186-1.253-.812-2.436-1.579-3.72-1.579s-2.467.767-3.72 1.58c-.665.43-1.353.877-2.024 1.184-1.551.712-3.336.803-4.718.803a1.672 1.672 0 0 0 0 3.342" fill="#dba827"/><path d="m216.89 50.247c-1.578 0-3.618-.105-5.4-.923-.77-.353-1.55-.86-2.307-1.349-1.383-.897-2.69-1.744-4.074-1.744-1.383 0-2.69.847-4.073 1.744-.756.49-1.537.996-2.307 1.35-1.783.817-3.822.922-5.4.922a1.671 1.671 0 0 0 0 3.343c1.917 0 4.423-.14 6.794-1.228.99-.454 1.915-1.053 2.73-1.582.742-.48 1.861-1.206 2.256-1.206.396 0 1.515.726 2.256 1.206.816.53 1.74 1.128 2.731 1.582 2.371 1.088 4.876 1.228 6.794 1.228a1.672 1.672 0 0 0 0-3.343" fill="#dba827"/><path d="m289.203 54.214v22.758h-24.593v-22.758" fill="#ef5722"/><path d="m289.73 77.5h-25.648v-23.287h1.055v22.23h23.538v-22.23h1.055z" fill="#000"/><path d="m268.123 76.787h17.566v-3.162h-17.566z" fill="#daa725"/><path d="m268.65 76.26h16.512v-2.107h-16.512zm-1.055 1.054h18.622v-4.217h-18.622z" fill="#000"/><path d="m271.637 73.625h10.54v-14.047h-10.54z" fill="#a1d29d"/><path d="m272.164 73.098h9.485v-12.992h-9.485zm-1.055 1.054h11.594v-15.102h-11.594z" fill="#000"/><path d="m261.096 54.214 15.81-14.053 15.81 14.053z" fill="#eeadcd"/><path d="m262.483 53.687h28.847l-14.424-12.822zm31.62 1.055h-34.393l17.195-15.286 17.197 15.285z" fill="#000"/><path d="m297.81 121.767v22.758h-24.594v-22.758" fill="#a1d29d"/><path d="m298.337 145.052h-25.648v-23.286h1.055v22.23h23.538v-22.23h1.055z" fill="#000"/><path d="m276.73 144.339h17.566v-3.162h-17.566z" fill="#ef5722"/><path d="m277.257 143.812h16.512v-2.107h-16.512zm-1.055 1.055h18.621v-4.217h-18.621z" fill="#000"/><path d="m280.243 141.177h10.54v-14.047h-10.54z" fill="#eeadcd"/><path d="m280.77 140.65h9.485v-12.992h-9.485zm-1.055 1.055h11.595v-15.102h-11.595z" fill="#000"/><path d="m269.703 121.767 15.81-14.053 15.81 14.053z" fill="#daa725"/><path d="m271.09 121.239h28.846l-14.424-12.821-14.423 12.82zm31.62 1.055h-34.393l17.195-15.286 17.197 15.286z" fill="#000"/><path d="m68.914 54.214v22.758h-24.593v-22.758" fill="#daa725"/><path d="m69.442 77.5h-25.648v-23.287h1.055v22.23h23.538v-22.23h1.055z" fill="#000"/><path d="m47.835 76.787h17.566v-3.162h-17.566z" fill="#eeadcd"/><path d="m48.362 76.26h16.512v-2.107h-16.512zm-1.055 1.054h18.622v-4.217h-18.622z" fill="#000"/><path d="m51.348 73.625h10.54v-14.047h-10.54z" fill="#a1d29d"/><path d="m51.875 73.098h9.485v-12.992h-9.485zm-1.054 1.054h11.594v-15.102h-11.594z" fill="#000"/><path d="m40.808 54.214 15.81-14.053 15.81 14.053z" fill="#ef5722"/><path d="m42.194 53.687h28.847l-14.423-12.822-14.424 12.823zm31.62 1.055h-34.392l17.196-15.286 17.196 15.284z" fill="#000"/><path d="m240.62 54.214v22.758h-24.594v-22.758" fill="#eeadcd"/><path d="m241.146 77.5h-25.648v-23.287h1.055v22.23h23.538v-22.23h1.055z" fill="#000"/><path d="m219.539 76.787h17.566v-3.162h-17.566z" fill="#ef5722"/><path d="m220.067 76.26h16.512v-2.107h-16.512zm-1.055 1.054h18.621v-4.217h-18.621z" fill="#000"/><path d="m223.053 73.625h10.54v-14.047h-10.54z" fill="#daa725"/><path d="m223.58 73.098h9.485v-12.992h-9.485zm-1.055 1.054h11.595v-15.102h-11.595z" fill="#000"/><path d="m212.513 54.214 15.81-14.053 15.81 14.053z" fill="#a1d29d"/><path d="m213.899 53.687h28.847l-14.423-12.822zm31.62 1.055h-34.392l17.196-15.286 17.196 15.285z" fill="#000"/><path d="m136.137 13.57v22.468h20.881v5.249h-29.311v35.595h8.43v.062h22.273v-3.356h3.548v-3.258h2.368v-15.755c-.94-.526-1.575-1.511-1.575-2.642 0-.023.004-.045.004-.067h-.004c0-5.507 4.464-9.972 9.971-9.972h.002c5.508 0 9.972 4.465 9.972 9.972h-.004c0 .022.004.044.004.067 0 1.086-.585 2.036-1.464 2.576v15.821h2.785v3.257h3.548v3.357h2.995v-63.374z" fill="#ef5722"/><path d="m172.723 41.894c-5.507 0-3.7 10.14-3.7 10.14.065 1.637 1.695 2.947 3.7 2.947 2.006 0 3.635-1.31 3.701-2.946 0 0 1.807-10.141-3.7-10.141" fill="#eeadcd"/><path d="m172.723 41.894c-5.507 0-9.972 4.465-9.972 9.972h.004c-.001.023-.004.045-.004.068 0 1.683 1.403 3.047 3.133 3.047 1.713 0 3.103-1.338 3.13-2.998-.124-.744-1.579-10.088 3.709-10.09m9.973 9.973c0-5.507-4.464-9.972-9.971-9.972 5.287 0 3.833 9.345 3.708 10.089.028 1.66 1.418 2.998 3.13 2.998 1.73 0 3.133-1.365 3.133-3.048 0-.023-.003-.045-.003-.067z" fill="#a1d29d"/><path d="m168.963 51.649.017.119-.017-.12m-.035-.255.026.196zm.064.449.008.06zm-.067-.476-.037-.311h-.001l.038.31m10.638 3.615c-1.713 0-3.103-1.337-3.13-2.997a2.065 2.065 0 0 1 -.009.052c-.066 1.636-1.695 2.946-3.7 2.946-2.006 0-3.636-1.31-3.702-2.947l-.008-.051c-.028 1.66-1.418 2.998-3.13 2.998a3.178 3.178 0 0 1 -1.558-.407v15.757h16.906v-15.823a3.17 3.17 0 0 1 -1.669.472m-3.07-3.393.024-.18zm-.026.18.016-.109c-.006.038-.01.076-.016.11" fill="#daa725"/><path d="m184.016 73.588v-3.258h-22.059v3.257h-3.547v3.293h29.154v-3.293zm-42.766-42.018h7.521v-13.526h-7.521z" fill="#eeadcd"/><path d="m141.806 31.015h6.409v-12.414h-6.409zm-1.112 1.111h8.633v-14.638h-8.633z" fill="#000"/><path d="m153.311 31.57h7.521v-13.526h-7.521z" fill="#eeadcd"/><path d="m153.867 31.015h6.409v-12.414h-6.409zm-1.112 1.111h8.633v-14.638h-8.633z" fill="#000"/><path d="m166.07 31.57h7.521v-13.526h-7.521z" fill="#eeadcd"/><path d="m166.625 31.015h6.409v-12.414h-6.409zm-1.112 1.111h8.634v-14.638h-8.634z" fill="#000"/><path d="m178.13 31.57h7.521v-13.526h-7.521z" fill="#eeadcd"/><path d="m178.686 31.015h6.409v-12.414h-6.409zm-1.112 1.111h8.633v-14.638h-8.633zm-30.493 34.112h-5.561v-2.225h5.561zm-3.336 3.336h-5.561v-2.224h5.561zm3.336 1.113v2.224h-5.56v-2.224h5.559zm3.893-6.674v-1.111h-13.346v1.11h2.78v2.226h-6.116v1.112h2.78v2.224h-2.78v1.113h6.116v2.224h-2.78v1.112h13.345v-1.113h-2.78v-2.224h2.78v-1.113h-6.116v-2.223h6.117v-1.112h-2.78v-2.225z" fill="#000"/><path d="m126.502 41.287h30.516v-5.249h-30.516zm7.25-27.716h59.192v-5.249h-59.192z" fill="#a1d29d"/><path d="m131.458 59.814h7.521v-13.526h-7.521z" fill="#eeadcd"/><path d="m132.013 59.258h6.409v-12.414h-6.409zm-1.112 1.112h8.634v-14.639h-8.634z" fill="#000"/><path d="m144.64 59.814h7.521v-13.526h-7.521z" fill="#eeadcd"/><path d="m145.196 59.258h6.409v-12.414h-6.409zm-1.113 1.112h8.634v-14.639h-8.634z" fill="#000"/><path d="m134.308 13.015h58.08v-4.136h-58.08zm55.696 63.372h-1.884v-3.355h-3.548v-3.258h-2.784v-14.971a3.587 3.587 0 0 0 1.43-2.381h.034v-.556c0-5.805-4.723-10.529-10.529-10.529-5.805 0-10.528 4.724-10.528 10.529l.001.046-.001.021.001.084.003.405h.03a3.59 3.59 0 0 0 1.541 2.459v14.893h-2.368v3.258h-3.548v3.355h-1.483v-34.545h1.204v-6.361h-20.882v-21.354h53.311zm-8.216-5.501h1.672v2.146h-20.946v-2.146zm-9.565-15.376v14.264h-7.341v-14.373c.319.088.655.136 1.002.136a3.702 3.702 0 0 0 3.168-1.77c.659.949 1.816 1.61 3.171 1.743zm3.654-3.573-.009.075c-.053 1.33-1.463 2.412-3.145 2.412-1.68 0-3.091-1.082-3.145-2.412l-.008-.075c-.011-.061-1.052-6.091.986-8.524.543-.648 1.252-.963 2.167-.963s1.624.315 2.168.963c2.039 2.433.997 8.463.986 8.524zm4.799 3.429v14.408h-7.341v-14.278c1.307-.157 2.42-.807 3.061-1.729a3.699 3.699 0 0 0 3.167 1.77 3.75 3.75 0 0 0 1.113-.171zm-1.113-.942c-1.393 0-2.528-1.074-2.571-2.408.143-.876.909-6.189-.989-8.969 3.445 1.286 5.945 4.527 6.126 8.37l.01.516c0 1.374-1.155 2.491-2.576 2.491zm-16.239-3.114c.222-3.797 2.707-6.99 6.12-8.264-1.899 2.782-1.13 8.103-.988 8.973-.047 1.334-1.181 2.405-2.572 2.405-1.421 0-2.577-1.117-2.577-2.488l.019-.626zm-4.358 25.015h28.042v-2.181h-28.042zm-30.703 0h26.996v-34.483h-26.996zm-1.204-35.594h29.403v-4.137h-29.403zm6.137-32.965v6.361h2.385v21.354h-9.634v6.361h1.203v35.596h8.431v.062h55.535v-63.373h2.384v-6.361z" fill="#000"/><path d="m192.514 81.123v22.467h20.882v5.249h-29.312v35.595h8.43v.062h22.273v-3.356h3.55v-3.257h2.368v-15.756c-.94-.526-1.576-1.511-1.576-2.642 0-.022.004-.044.004-.067h-.004c0-5.507 4.465-9.972 9.972-9.972h.001c5.507 0 9.972 4.465 9.972 9.972h-.004c.001.023.005.045.005.067 0 1.086-.587 2.036-1.464 2.576v15.822h2.784v3.257h3.547v3.356h2.995v-63.373z" fill="#eeadcd"/><path d="m229.101 109.446c-5.507 0-3.7 10.14-3.7 10.14.065 1.637 1.695 2.947 3.7 2.947 2.006 0 3.635-1.31 3.701-2.946 0 0 1.807-10.141-3.7-10.141" fill="#a1d29d"/><path d="m229.1 109.446c-5.506 0-9.971 4.465-9.971 9.973h.004c-.001.022-.004.044-.004.067 0 1.683 1.403 3.047 3.133 3.047 1.713 0 3.103-1.338 3.13-2.998-.124-.744-1.58-10.088 3.709-10.09m9.973 9.973c0-5.507-4.464-9.972-9.972-9.973 5.288.002 3.833 9.347 3.709 10.09.028 1.66 1.417 2.999 3.13 2.999 1.73 0 3.133-1.366 3.133-3.049 0-.022-.003-.044-.003-.067z" fill="#ef5722"/><path d="m225.341 119.201.017.12c-.005-.037-.01-.078-.017-.12m.029.193.008.06-.009-.06m-.066-.476-.037-.311h-.001zm10.638 3.615c-1.713 0-3.103-1.338-3.13-2.999l-.009.053c-.066 1.635-1.695 2.946-3.7 2.946-2.006 0-3.636-1.31-3.702-2.946l-.008-.053c-.028 1.661-1.417 3-3.13 3a3.18 3.18 0 0 1 -1.558-.407v15.756h16.906v-15.822a3.179 3.179 0 0 1 -1.669.472m-3.071-3.393.025-.18-.024.18m-.026.18.016-.11z" fill="#daa725"/><path d="m240.394 141.14v-3.257h-22.058v3.257h-3.548v3.293h29.154v-3.293zm-42.766-42.017h7.521v-13.526h-7.521z" fill="#a1d29d"/><path d="m198.184 98.567h6.409v-12.414h-6.409zm-1.113 1.112h8.634v-14.639h-8.634z" fill="#000"/><path d="m209.689 99.123h7.521v-13.526h-7.521z" fill="#a1d29d"/><path d="m210.244 98.567h6.409v-12.414h-6.409zm-1.112 1.112h8.634v-14.639h-8.634z" fill="#000"/><path d="m222.448 99.123h7.521v-13.526h-7.521z" fill="#a1d29d"/><path d="m223.003 98.567h6.409v-12.414h-6.409zm-1.112 1.112h8.634v-14.639h-8.634z" fill="#000"/><path d="m234.508 99.123h7.521v-13.526h-7.521z" fill="#a1d29d"/><path d="m235.064 98.567h6.409v-12.414h-6.409zm-1.112 1.112h8.634v-14.639h-8.634zm-30.492 34.111h-5.562v-2.224h5.561v2.224zm-3.337 3.336h-5.561v-2.224h5.561zm3.336 1.113v2.224h-5.56v-2.224h5.559zm3.893-6.673v-1.112h-13.346v1.112h2.78v2.224h-6.116v1.112h2.78v2.224h-2.78v1.113h6.116v2.224h-2.78v1.112h13.346v-1.112h-2.78v-2.224h2.78v-1.113h-6.117v-2.224h6.117v-1.112h-2.78v-2.224z" fill="#000"/><path d="m182.88 108.839h30.516v-5.249h-30.516zm7.251-27.716h59.191v-5.249h-59.191z" fill="#ef5722"/><path d="m187.836 127.366h7.521v-13.526h-7.521z" fill="#a1d29d"/><path d="m188.391 126.81h6.409v-12.414h-6.409zm-1.112 1.112h8.634v-14.638h-8.634z" fill="#000"/><path d="m201.018 127.366h7.521v-13.526h-7.521z" fill="#a1d29d"/><path d="m201.574 126.81h6.409v-12.414h-6.409zm-1.113 1.112h8.634v-14.638h-8.634z" fill="#000"/><path d="m190.686 80.567h58.08v-4.136h-58.08zm55.696 63.372h-1.884v-3.355h-3.548v-3.257h-2.784v-14.972a3.585 3.585 0 0 0 1.43-2.38h.034v-.557c0-5.805-4.723-10.528-10.529-10.528-5.805 0-10.528 4.723-10.528 10.528l.001.046-.001.021.001.084.002.406h.031a3.594 3.594 0 0 0 1.541 2.459v14.893h-2.368v3.257h-3.548v3.355h-1.483v-34.544h1.203v-6.361h-20.881v-21.355h53.311zm-8.216-5.5h1.672v2.145h-20.946v-2.145zm-9.565-15.377v14.265h-7.341v-14.373c.319.088.655.135 1.002.135a3.703 3.703 0 0 0 3.168-1.77c.659.949 1.816 1.611 3.171 1.743zm3.654-3.573-.009.075c-.053 1.331-1.463 2.413-3.145 2.413-1.68 0-3.091-1.082-3.145-2.413l-.008-.075c-.01-.06-1.052-6.091.986-8.523.543-.649 1.252-.964 2.167-.964.916 0 1.624.315 2.168.964 2.038 2.432.996 8.463.986 8.523zm4.8 3.429v14.409h-7.342v-14.279c1.307-.157 2.42-.806 3.061-1.729a3.697 3.697 0 0 0 3.167 1.77c.388 0 .761-.062 1.114-.171zm-1.114-.941c-1.392 0-2.528-1.075-2.572-2.409.144-.876.91-6.189-.988-8.968 3.445 1.285 5.945 4.526 6.126 8.369l.011.516c0 1.374-1.156 2.492-2.577 2.492zm-16.24-3.115c.223-3.797 2.708-6.989 6.121-8.263-1.899 2.782-1.13 8.103-.988 8.972-.047 1.334-1.181 2.406-2.572 2.406-1.421 0-2.577-1.118-2.576-2.489l.017-.626zm-4.356 25.015h28.042v-2.181h-28.042zm-30.705 0h26.997v-34.482h-26.997zm-1.203-35.594h29.403v-4.137h-29.403zm6.138-32.965v6.361h2.384v21.355h-9.634v6.361h1.203v35.595h8.431v.062h55.535v-63.373h2.384v-6.361z" fill="#000"/><path d="m269.041 23.56v-7.793a3.897 3.897 0 0 0 -3.897-3.897h-21.434a3.898 3.898 0 0 0 -3.898 3.897v17.537h1.95v3.896h1.948a3.897 3.897 0 0 1 7.794 0h11.691a3.898 3.898 0 0 1 3.898-3.897h5.845v-5.845s0-3.897-3.897-3.897" fill="#dba827"/><path d="m247.607 33.304a3.897 3.897 0 1 1 0 7.794 3.897 3.897 0 0 1 0-7.794" fill="#efaece"/><path d="m247.607 35.252a1.95 1.95 0 1 1 0 3.899 1.95 1.95 0 0 1 0-3.899" fill="#f05822"/><path d="m247.607 35.642a1.559 1.559 0 1 0 0 3.118 1.559 1.559 0 0 0 0-3.118m0 3.897a2.337 2.337 0 1 1 0-4.676 2.338 2.338 0 1 1 0 4.676" fill="#000"/><path d="m267.093 33.304a3.897 3.897 0 1 1 0 7.794 3.897 3.897 0 0 1 0-7.794" fill="#efaece"/><path d="m267.093 35.252a1.949 1.949 0 1 1 -.001 3.897 1.949 1.949 0 0 1 .001-3.897" fill="#f05822"/><path d="m267.093 35.642a1.559 1.559 0 1 0 0 3.118 1.559 1.559 0 0 0 0-3.118m0 3.897a2.337 2.337 0 1 1 0-4.676 2.338 2.338 0 0 1 0 4.676" fill="#000"/><path d="m241.762 25.704h15.588v-.779h-15.588zm0 4.092h15.588v-.779h-15.588z" fill="#221f1f"/><path d="m265.144 23.561h3.897v-5.846h-3.897zm-11.691 0h3.897v-5.846h-3.897z" fill="#a2d39f"/><path d="m253.843 23.171h3.118v-5.066h-3.118zm-.779.779h4.676v-6.625h-4.676z" fill="#000"/><path d="m247.607 23.561h3.897v-5.846h-3.897z" fill="#a2d39f"/><path d="m247.997 23.171h3.118v-5.066h-3.118zm-.779.779h4.676v-6.625h-4.676z" fill="#000"/><path d="m241.762 23.561h3.897v-5.846h-3.897z" fill="#a2d39f"/><path d="m242.151 23.171h3.118v-5.066h-3.118zm-.779.779h4.676v-6.625h-4.676z" fill="#000"/><path d="m261.247 17.715h-1.949v15.589h3.897v-15.59z" fill="#a2d39f"/><path d="m261.637 32.914h1.169v-14.81h-1.169zm-1.949 0h1.169v-14.81h-1.169zm1.949-15.589h-2.728v16.368h4.676v-16.368z" fill="#000"/><path d="m272.939 31.355a1.949 1.949 0 0 0 0-3.897z" fill="#efaece"/><path d="m239.813 37.201h1.949v-3.897h-1.949zm27.28-3.897a3.897 3.897 0 0 1 3.897 3.897h3.897v-3.897z" fill="#f05822"/><path d="m274.497 36.811h-3.137a4.288 4.288 0 0 0 -1.808-3.118h4.945zm-7.404 3.897a3.507 3.507 0 1 1 -.002-7.014 3.507 3.507 0 0 1 .002 7.014zm-19.486 0a3.507 3.507 0 1 1 0-7.014 3.507 3.507 0 0 1 0 7.014zm17.926-17.537h3.118v-5.066h-3.118zm-25.33 9.743v-16.758h28.448v1.169h-3.897v6.625h4.287c3.451 0 3.507 3.365 3.507 3.508v5.456h-5.845v.017a4.287 4.287 0 0 0 -3.88 3.88h-10.949a4.288 4.288 0 0 0 -8.537 0h-1.186v-3.897h-1.949zm0 3.897h1.17v-3.118h-1.17zm3.507-24.552h21.434a3.507 3.507 0 0 1 3.484 3.118h-28.397a3.508 3.508 0 0 1 3.48-3.118zm29.618 15.637a1.56 1.56 0 0 1 0 3.02zm0 3.813a2.337 2.337 0 0 0 -.027-4.61c-.114-.99-.71-3.702-3.87-3.916v-7.416a4.287 4.287 0 0 0 -4.287-4.288h-21.434a4.287 4.287 0 0 0 -4.287 4.288v21.823h3.914a4.287 4.287 0 0 0 8.537 0h10.95a4.287 4.287 0 0 0 8.536 0h3.916v-4.676h-1.948z" fill="#000"/><path d="m183.257 94.5a4.807 4.807 0 1 0 -9.614 0z" fill="#f05822"/><path d="m99.603 138.5c.79-.286 2.71-1.003 2.71-1.801s-2.422-1.108-2.71-1.802c-.298-.719 1.184-2.648.642-3.19-.541-.542-2.472.94-3.191.642-.693-.288-1.003-2.71-1.801-2.71-.797 0-1.108 2.422-1.801 2.71-.72.298-2.65-1.184-3.191-.642-.542.542.94 2.471.642 3.19-.288.694-2.71 1.004-2.71 1.802s1.92 1.515 2.71 1.801z" fill="#a2d39f"/><path d="m168.23 101.91c0 1.975-3.065 3.87-3.137 5.73-.077 2.006 2.832 4.034 2.68 5.857-.17 2.06-3.402 3.797-3.655 5.555-.314 2.183 2.307 4.44 1.89 6.035-.84 3.207-3.35 3.755-4.453 3.755-1.104 0-3.614-.548-4.452-3.756-.418-1.596 2.203-3.852 1.889-6.034-.252-1.758-3.486-3.496-3.656-5.555-.151-1.823 2.758-3.85 2.68-5.857-.071-1.859-3.137-3.755-3.137-5.73s3.066-3.87 3.138-5.73c.077-2.006-2.832-4.034-2.681-5.857.17-2.059 3.404-3.797 3.656-5.555.314-2.183-2.307-4.439-1.89-6.035.839-3.207 3.349-3.755 4.453-3.755s3.613.548 4.453 3.756c.417 1.596-2.204 3.852-1.89 6.034.253 1.758 3.486 3.496 3.656 5.555.15 1.823-2.758 3.851-2.681 5.857.072 1.86 3.138 3.755 3.138 5.73" fill="#efaece"/><path d="m164.486 99.262-.724-.724-1.694 1.695v-6.803l2.418-2.42-.724-.723-1.694 1.695v-5.22h-1.025v5.22l-1.695-1.695-.724.724 2.419 2.419v6.802l-1.695-1.695-.724.724 2.419 2.419v6.802l-1.695-1.695-.724.724 2.419 2.419v6.802l-1.695-1.694-.724.723 2.419 2.419v6.802l-1.695-1.694-.724.724 2.419 2.418v14.532h1.025v-14.532l2.418-2.418-.724-.724-1.694 1.694v-6.802l2.418-2.42-.724-.722-1.694 1.694v-6.802l2.418-2.42-.724-.723-1.694 1.695v-6.802z" fill="#000"/><path d="m32.667 57.26c0 3.008-4.325 5.725-5.381 8.098-1.933 4.343-3.513 7.937-7.418 7.937s-5.484-3.594-7.417-7.937c-1.056-2.373-5.382-5.09-5.382-8.098s4.326-5.725 5.382-8.097c1.933-4.343 3.512-7.938 7.417-7.938s5.485 3.595 7.418 7.938c1.056 2.372 5.38 5.089 5.38 8.097" fill="#a2d39f"/><path d="m20.38 48.659a4.724 4.724 0 0 0 3.717 1.818v-1.024a3.72 3.72 0 0 1 -3.717-3.716v-.194h-1.024a3.721 3.721 0 0 1 -3.717 3.717v1.024a4.725 4.725 0 0 0 3.717-1.816v2.82a3.721 3.721 0 0 1 -3.717 3.718v1.024a4.728 4.728 0 0 0 3.717-1.816v2.82a3.72 3.72 0 0 1 -3.717 3.717v1.025a4.728 4.728 0 0 0 3.717-1.816v2.82a3.72 3.72 0 0 1 -3.717 3.717v1.025a4.728 4.728 0 0 0 3.717-1.816v15.502h1.024v-15.311a4.725 4.725 0 0 0 3.717 1.819v-1.026a3.72 3.72 0 0 1 -3.717-3.717v-2.823a4.725 4.725 0 0 0 3.717 1.819v-1.025a3.72 3.72 0 0 1 -3.717-3.717v-2.824a4.724 4.724 0 0 0 3.717 1.819v-1.024a3.72 3.72 0 0 1 -3.717-3.717v-2.823z" fill="#221f1f"/><path d="m74.352 20.5a4.807 4.807 0 1 0 -9.614 0zm230.497 3c.79-.286 2.71-1.003 2.71-1.801s-2.422-1.108-2.71-1.802c-.298-.719 1.184-2.648.643-3.19-.542-.542-2.473.94-3.191.642-.694-.288-1.004-2.71-1.802-2.71-.797 0-1.108 2.422-1.801 2.71-.72.298-2.65-1.184-3.191-.642-.542.542.94 2.471.642 3.19-.287.694-2.71 1.004-2.71 1.802s1.92 1.515 2.71 1.801z" fill="#efaece"/><path d="m58 145h5v-81h-5z" fill="#fff"/><path d="m63 139.5-.707-.707-4.293 4.293v1.914h.914l4.086-4.086zm0-6.086v-1.414l-.707-.707-4.293 4.293v2.414l.207.207zm0-7.5v-1.414l-.707-.707-4.293 4.293v2.414l.207.207zm0-7.5v-1.414l-.707-.707-4.293 4.293v2.414l.207.207zm0-7.5v-1.414l-.707-.707-4.293 4.293v2.414l.207.207zm0-7.5v-1.414l-.707-.707-4.293 4.293v2.414l.207.207zm0-7.5v-1.414l-.707-.707-4.293 4.293v2.414l.207.207zm0-7.5v-1.414l-.707-.707-4.293 4.293v2.414l.207.207zm0-7.5v-1.414l-.707-.707-4.293 4.293v2.414l.207.207zm0-7.5v-1.414l-.707-.707-4.293 4.293v2.414l.207.207zm0-7.5v-1.414l-.5-.5h-.414l-4.086 4.086v2.414l.207.207z" fill="#eeadcd"/><path d="m58.576 144.425h3.85v-79.85h-3.85zm-1.15 1.15h6.15v-82.15h-6.15z" fill="#000"/><path d="m64.5 63.5a4 4 0 1 1 -8 0 4 4 0 0 1 8 0" fill="#eeadcd"/><path d="m64.5 63.5a4 4 0 1 1 -8 0 4 4 0 0 1 8 0z" stroke="#000" stroke-width="1.151"/><path d="m88.5 100.474c0-15.464-12.536-28-28-28s-28 12.536-28 28z" fill="#000"/><path d="m28 116h65v-34.914h-65z" fill="#000"/><path d="m28 116h65v-34.914h-65z" stroke="#000" stroke-width=".88"/><path d="m53.264 93.988-.72-5.628-2.148 3.864-2.16-3.852-.72 5.616h-1.596l1.164-8.4h1.26l2.052 3.828 2.04-3.828h1.26l1.164 8.4zm2.928-8.4h5.376v1.488h-3.804v1.788h2.952v1.488h-2.952v2.148h3.924v1.488h-5.496zm6.816 0h5.376v1.488h-3.804v1.788h2.952v1.488h-2.952v2.148h3.924v1.488h-5.496zm8.448 1.488h-2.376v-1.488h6.288v1.488h-2.376v6.912h-1.536zm-31.5 12.912h2.988c1.992 0 2.988.904 2.988 2.712 0 .936-.252 1.632-.756 2.088s-1.236.684-2.196.684h-1.488v2.916h-1.536zm2.844 4.2c.528 0 .922-.12 1.182-.36s.39-.608.39-1.104-.132-.862-.396-1.098-.668-.354-1.212-.354h-1.272v2.916zm4.308-4.2h5.376v1.488h-3.804v1.788h2.952v1.488h-2.952v2.148h3.924v1.488h-5.496zm8.106 8.022a3.845 3.845 0 0 1 -1.476-1.536c-.356-.66-.534-1.422-.534-2.286s.178-1.626.534-2.286a3.845 3.845 0 0 1 1.476-1.536c.628-.364 1.338-.546 2.13-.546s1.502.182 2.13.546 1.12.876 1.476 1.536.534 1.422.534 2.286-.178 1.626-.534 2.286a3.845 3.845 0 0 1 -1.476 1.536c-.628.364-1.338.546-2.13.546s-1.502-.182-2.13-.546zm4.008-1.734c.436-.528.654-1.224.654-2.088s-.218-1.56-.654-2.088-1.062-.792-1.878-.792-1.442.264-1.878.792-.654 1.224-.654 2.088.218 1.56.654 2.088 1.062.792 1.878.792 1.442-.264 1.878-.792zm3.606-6.288h2.988c1.992 0 2.988.904 2.988 2.712 0 .936-.252 1.632-.756 2.088s-1.236.684-2.196.684h-1.488v2.916h-1.536zm2.844 4.2c.528 0 .922-.12 1.182-.36s.39-.608.39-1.104-.132-.862-.396-1.098-.668-.354-1.212-.354h-1.272v2.916zm4.308-4.2h1.536v7.032h3.456v1.368h-4.992zm6 0h5.376v1.488h-3.804v1.788h2.952v1.488h-2.952v2.148h3.924v1.488h-5.496z" fill="#fff"/></g></svg>