<svg xmlns="http://www.w3.org/2000/svg" width="320" height="150" viewBox="0 0 320 150">
    <g fill="none" fill-rule="evenodd">
        <path fill="#E0E0E0" d="M0 150h320V0H0z"/>
        <path stroke="#FFF" stroke-width="10" d="M186 112.5h88c20.71 0 37.5-16.79 37.5-37.5S294.71 37.5 274 37.5H46C25.29 37.5 8.5 20.71 8.5 0M149 149.5c0-20.71 16.79-37.5 37.5-37.5"/>
        <path fill="#EFAECE" d="M307.775 35.124c0 3.008-4.325 5.725-5.38 8.097-1.934 4.344-3.514 7.938-7.419 7.938-3.904 0-5.484-3.594-7.417-7.938-1.056-2.372-5.38-5.089-5.38-8.097 0-3.008 4.324-5.725 5.38-8.097 1.933-4.344 3.513-7.938 7.417-7.938 3.905 0 5.485 3.594 7.418 7.938 1.056 2.372 5.381 5.089 5.381 8.097"/>
        <path fill="#221F1F" d="M295.489 26.523a4.724 4.724 0 0 0 3.717 1.817v-1.023a3.72 3.72 0 0 1-3.717-3.716v-.194h-1.024a3.721 3.721 0 0 1-3.717 3.716v1.024a4.725 4.725 0 0 0 3.717-1.816v2.822a3.721 3.721 0 0 1-3.717 3.717v1.024a4.725 4.725 0 0 0 3.717-1.816v2.82a3.721 3.721 0 0 1-3.717 3.717v1.024a4.725 4.725 0 0 0 3.717-1.816v2.822a3.72 3.72 0 0 1-3.717 3.715v1.026a4.725 4.725 0 0 0 3.717-1.817v15.502h1.024v-15.31a4.725 4.725 0 0 0 3.717 1.819v-1.026a3.72 3.72 0 0 1-3.717-3.715v-2.824a4.725 4.725 0 0 0 3.717 1.819v-1.026a3.72 3.72 0 0 1-3.717-3.715V32.267a4.724 4.724 0 0 0 3.717 1.819v-1.024a3.721 3.721 0 0 1-3.717-3.717v-2.824z"/>
        <path fill="#F05822" d="M231.5 1.5c-22.607 0-41 18.393-41 41h28.114c0-7.105 5.78-12.886 12.886-12.886 7.105 0 12.886 5.781 12.886 12.886H272.5c0-22.607-18.393-41-41-41"/>
        <path fill="#EEADCD" d="M231.5 8.529c-18.732 0-33.971 15.24-33.971 33.97h21.085c0-7.104 5.78-12.885 12.886-12.885 7.105 0 12.886 5.78 12.886 12.886h21.086c0-18.731-15.24-33.971-33.972-33.971"/>
        <path fill="#DAA725" d="M231.5 15.557c-14.856 0-26.943 12.086-26.943 26.943h14.057c0-7.105 5.78-12.886 12.886-12.886 7.105 0 12.886 5.781 12.886 12.886h14.057c0-14.857-12.087-26.943-26.943-26.943"/>
        <path fill="#A2D39F" d="M231.5 22.586c-10.998 0-19.914 8.916-19.914 19.914h7.028c0-7.105 5.78-12.886 12.886-12.886 7.105 0 12.886 5.78 12.886 12.886h7.029c0-10.998-8.916-19.914-19.915-19.914"/>
        <path stroke="#FFF" stroke-width="10" d="M189.5 37.5h36"/>
        <path fill="#A1D29D" d="M180.81 32.714v22.758h-24.594V32.714"/>
        <path fill="#000" d="M181.337 56h-25.648V32.714h1.055v22.231h23.538V32.714h1.055z"/>
        <path fill="#EF5722" d="M159.73 55.288h17.566v-3.162H159.73z"/>
        <path fill="#000" d="M160.257 54.76h16.512v-2.107h-16.512v2.107zm-1.055 1.055h18.621v-4.217h-18.621v4.217z"/>
        <path fill="#EEADCD" d="M163.243 52.125h10.54V38.078h-10.54z"/>
        <path fill="#000" d="M163.77 51.598h9.485V38.606h-9.485v12.992zm-1.055 1.055h11.595V37.551h-11.595v15.102z"/>
        <path fill="#DAA725" d="M152.703 32.714l15.81-14.053 15.81 14.053z"/>
        <path fill="#000" d="M154.09 32.187h28.846l-14.424-12.821-14.423 12.821zm31.62 1.055h-34.393l17.195-15.286 17.197 15.286z"/>
        <path fill="#EF5722" d="M54.203 48.714v22.758H29.61V48.714"/>
        <path fill="#000" d="M54.73 72H29.082V48.714h1.055v22.231h23.538V48.714h1.055z"/>
        <path fill="#DAA725" d="M33.123 71.288h17.566v-3.162H33.123z"/>
        <path fill="#000" d="M33.65 70.76h16.512v-2.107H33.65v2.107zm-1.055 1.055h18.622v-4.217H32.595v4.217z"/>
        <path fill="#A1D29D" d="M36.637 68.125h10.54V54.078h-10.54z"/>
        <path fill="#000" d="M37.164 67.598h9.485V54.606h-9.485v12.992zm-1.055 1.055h11.594V53.551H36.109v15.102z"/>
        <path fill="#EEADCD" d="M26.096 48.714l15.81-14.053 15.81 14.053z"/>
        <path fill="#000" d="M27.483 48.187H56.33L41.906 35.366 27.483 48.187zm31.62 1.055H24.71l17.195-15.286 17.197 15.286z"/>
        <path fill="#EF5722" d="M156.203 47.714v22.758H131.61V47.714"/>
        <path fill="#000" d="M156.73 71h-25.648V47.714h1.055v22.231h23.538V47.714h1.055z"/>
        <path fill="#DAA725" d="M135.123 70.288h17.566v-3.162h-17.566z"/>
        <path fill="#000" d="M135.65 69.76h16.512v-2.107H135.65v2.107zm-1.055 1.055h18.622v-4.217h-18.622v4.217z"/>
        <path fill="#A1D29D" d="M138.637 67.125h10.54V53.078h-10.54z"/>
        <path fill="#000" d="M139.164 66.598h9.485V53.606h-9.485v12.992zm-1.055 1.055h11.594V52.551h-11.594v15.102z"/>
        <path fill="#EEADCD" d="M128.096 47.714l15.81-14.053 15.81 14.053z"/>
        <path fill="#000" d="M129.483 47.187h28.847l-14.424-12.821-14.423 12.821zm31.62 1.055H126.71l17.195-15.286 17.197 15.286z"/>
        <path fill="#DAA725" d="M298.914 72.714v22.758h-24.593V72.714"/>
        <path fill="#000" d="M299.442 96h-25.648V72.714h1.055v22.231h23.538V72.714h1.055z"/>
        <path fill="#EEADCD" d="M277.835 95.288h17.566v-3.162h-17.566z"/>
        <path fill="#000" d="M278.362 94.76h16.512v-2.107h-16.512v2.107zm-1.055 1.055h18.622v-4.217h-18.622v4.217z"/>
        <path fill="#A1D29D" d="M281.348 92.125h10.54V78.078h-10.54z"/>
        <path fill="#000" d="M281.875 91.598h9.485V78.606h-9.485v12.992zm-1.054 1.055h11.594V77.551h-11.594v15.102z"/>
        <path fill="#EF5722" d="M270.808 72.714l15.81-14.053 15.81 14.053z"/>
        <path fill="#000" d="M272.194 72.187h28.847l-14.423-12.821-14.424 12.821zm31.62 1.055h-34.392l17.196-15.286 17.196 15.286z"/>
        <path fill="#DAA725" d="M80.914 32.714v22.758H56.321V32.714"/>
        <path fill="#000" d="M81.442 56H55.794V32.714h1.055v22.231h23.538V32.714h1.055z"/>
        <path fill="#EEADCD" d="M59.835 55.288h17.566v-3.162H59.835z"/>
        <path fill="#000" d="M60.362 54.76h16.512v-2.107H60.362v2.107zm-1.055 1.055h18.622v-4.217H59.307v4.217z"/>
        <path fill="#A1D29D" d="M63.348 52.125h10.54V38.078h-10.54z"/>
        <path fill="#000" d="M63.875 51.598h9.485V38.606h-9.485v12.992zm-1.054 1.055h11.594V37.551H62.821v15.102z"/>
        <path fill="#EF5722" d="M52.808 32.714l15.81-14.053 15.81 14.053z"/>
        <path fill="#000" d="M54.194 32.187h28.847L68.618 19.366 54.194 32.187zm31.62 1.055H51.422l17.196-15.286 17.196 15.286z"/>
        <path fill="#A1D29D" d="M246.232 48.233v-6.444h-22.107v53.617h22.107v-3.158h3.158V89.09h3.158V66.983h15.79V89.09h3.16v3.158h3.156V48.233z"/>
        <path fill="#EF5722" d="M277.813 48.105l-15.791-15.79h-23.29l-3.553-3.158-14.212 12.632h25.265v6.316z"/>
        <path fill="#DAA725" d="M227.283 82.773h15.791v-3.158h-15.791zM227.283 60.738h15.791V57.58h-15.791z"/>
        <path fill="#EEADCD" d="M230.442 79.615h9.474v-9.474h-9.474z"/>
        <path fill="#000" d="M242.55 82.25h-14.743v-2.111h14.744v2.111zm-11.584-3.158h8.427v-8.427h-8.427v8.427zm9.474 0v-9.474h-10.521v9.474h-3.16v4.205h16.839v-4.205h-3.158z"/>
        <path fill="#EF5722" d="M252.548 89.09h15.791V66.983h-15.791z"/>
        <path fill="#000" d="M253.072 88.566h14.744V67.507h-14.744v21.059zm-1.047 1.047h16.837V66.459h-16.837v23.154z"/>
        <path fill="#EEADCD" d="M230.442 57.58h9.474v-9.475h-9.474z"/>
        <path fill="#000" d="M242.55 60.214h-14.743v-2.111h14.744v2.11zm-11.584-3.158h8.427v-8.427h-8.427v8.427zm9.474 0v-9.474h-10.521v9.474h-3.16v4.205h16.839v-4.205h-3.158z"/>
        <path fill="#DAA725" d="M265.18 81.194a1.58 1.58 0 1 1-3.158 0 1.58 1.58 0 0 1 3.159 0"/>
        <path fill="#000" d="M263.601 80.14a1.057 1.057 0 0 0 0 2.11 1.057 1.057 0 0 0 0-2.111m0 3.158a2.105 2.105 0 0 1-2.103-2.103c0-1.159.943-2.102 2.103-2.102 1.16 0 2.103.943 2.103 2.102 0 1.16-.943 2.103-2.103 2.103M267.815 53.898h-5.27v-2.111h5.27v2.11zm-3.158 3.158h-5.268v-2.111h5.268v2.11zm3.158 1.047v2.11h-5.27v-2.11h5.27zm3.682-6.316V50.74h-12.633v1.047h2.635v2.11H255.706v1.048h2.635v2.11h-2.635v1.048H261.5v2.11h-2.635v1.048H271.497v-1.047h-2.635v-2.111h2.635v-1.047H265.704v-2.111H271.497v-1.047h-2.635v-2.111h2.635z"/>
        <path fill="#DAA725" d="M271.497 92.248V89.09H249.39v3.158h-3.158v3.158h28.423v-3.158z"/>
        <path fill="#EEADCD" d="M255.706 76.458h9.474v-6.316h-9.474z"/>
        <path fill="#000" d="M256.23 75.934h8.427v-5.269h-8.427v5.269zm-1.047 1.047h10.521v-7.363h-10.521v7.363z"/>
        <path fill="#000" d="M246.756 47.581v-5.269h4.01L240.11 32.84h21.697l14.743 14.742h-29.793zm27.375 44.144h-2.11v-3.16h-23.154v3.16h-2.111V48.757h27.375v42.968zm-24.218 0h21.06v-2.111h-21.06v2.11zm24.218 3.157h-27.375v-2.11h27.375v2.11zm-28.422-47.174V94.883h-21.06v-52.57h21.06v5.397zm-23.364-6.442l12.834-11.41 12.834 11.41h-25.668zm39.894-9.475H238.93l-3.752-3.335-15.59 13.857h4.013V95.93l51.577.07V48.627h3.898l-16.838-16.837z"/>
        <path fill="#DBA827" d="M52.086 111.5a4.807 4.807 0 1 0-9.613 0h9.613z"/>
        <path fill="#F05822" d="M172.257 78.5a4.807 4.807 0 1 0-9.614 0h9.614z"/>
        <path fill="#A2D39F" d="M151.849 16.5c.79-.286 2.71-1.003 2.71-1.801s-2.422-1.108-2.71-1.802c-.298-.719 1.184-2.648.643-3.19-.542-.542-2.473.94-3.191.642-.694-.288-1.004-2.71-1.802-2.71-.797 0-1.108 2.422-1.801 2.71-.72.298-2.65-1.184-3.191-.642-.542.542.94 2.471.642 3.19-.287.694-2.71 1.004-2.71 1.802s1.92 1.515 2.71 1.801h8.7z"/>
        <path fill="#EFAECE" d="M187.849 141.5c.79-.286 2.71-1.003 2.71-1.801s-2.422-1.108-2.71-1.802c-.298-.719 1.184-2.648.643-3.19-.542-.542-2.473.94-3.191.642-.694-.288-1.004-2.71-1.802-2.71-.797 0-1.108 2.422-1.801 2.71-.72.298-2.65-1.184-3.191-.642-.542.542.94 2.471.642 3.19-.287.694-2.71 1.004-2.71 1.802s1.92 1.515 2.71 1.801h8.7z"/>
        <path fill="#000" d="M18.598 47.835h1.024v-37.5h-1.024z"/>
        <path fill="#DBA827" d="M13.924 14.854c.939 0 2.173-.07 3.38-.624.499-.23.936-.513 1.322-.763.143-.093.334-.216.484-.303.15.087.34.21.484.303.386.25.824.534 1.32.762 1.21.555 2.443.626 3.383.626a1.671 1.671 0 0 0 0-3.344c-.6 0-1.368-.035-1.988-.32-.277-.128-.592-.332-.897-.529a17.455 17.455 0 0 0-.454-.288V7.667a1.84 1.84 0 1 0-3.681 0v2.699c-.16.095-.314.197-.47.296-.303.197-.62.401-.896.528-.62.286-1.388.322-1.987.322a1.672 1.672 0 0 0 0 3.342"/>
        <path fill="#DBA827" d="M12.605 20.401c1.135 0 2.623-.084 4.063-.746.597-.274 1.132-.62 1.604-.925.256-.167.619-.402.838-.509.219.107.582.342.839.51.47.304 1.006.65 1.602.924 1.44.662 2.929.746 4.064.746a1.672 1.672 0 1 0 0-3.343c-.795 0-1.817-.05-2.67-.44-.376-.174-.783-.438-1.178-.694-.822-.532-1.672-1.083-2.657-1.083-.985 0-1.835.551-2.657 1.083-.394.256-.803.52-1.18.693-.851.391-1.873.441-2.668.441a1.672 1.672 0 0 0 0 3.343"/>
        <path fill="#DBA827" d="M11.286 25.949c1.33 0 3.073-.1 4.746-.867.695-.318 1.327-.728 1.885-1.09.376-.243.929-.601 1.193-.696.264.095.817.453 1.193.696.558.362 1.19.772 1.884 1.09 1.674.768 3.416.867 4.747.867a1.671 1.671 0 0 0 0-3.343c-.991 0-2.267-.064-3.353-.562-.474-.218-.975-.542-1.46-.857-.991-.641-1.926-1.248-3.011-1.248-1.085 0-2.021.607-3.011 1.248-.485.315-.986.639-1.461.857-1.085.498-2.361.562-3.352.562a1.671 1.671 0 0 0 0 3.343"/>
        <path fill="#DBA827" d="M9.967 31.496c1.526 0 3.523-.112 5.43-.987.792-.364 1.522-.837 2.165-1.254.5-.323 1.246-.807 1.548-.872.301.065 1.048.549 1.547.872.643.417 1.373.89 2.166 1.254 1.906.875 3.903.987 5.43.987a1.671 1.671 0 0 0 0-3.343c-1.187 0-2.718-.077-4.035-.682-.573-.263-1.168-.648-1.743-1.021-1.122-.727-2.18-1.413-3.365-1.413s-2.244.686-3.366 1.413c-.575.373-1.17.758-1.742 1.02-1.318.606-2.849.683-4.035.683a1.672 1.672 0 0 0 0 3.343"/>
        <path fill="#DBA827" d="M8.648 37.042c1.723 0 3.974-.125 6.112-1.107.892-.409 1.719-.945 2.449-1.418.626-.406 1.57-1.018 1.896-1.04.335.023 1.28.635 1.907 1.04.729.473 1.556 1.01 2.448 1.418 2.139.982 4.39 1.107 6.112 1.107a1.67 1.67 0 1 0 0-3.343c-1.382 0-3.168-.09-4.718-.801-.671-.309-1.36-.755-2.024-1.186-1.253-.811-2.436-1.578-3.72-1.578-1.284 0-2.467.767-3.72 1.578-.665.432-1.353.878-2.024 1.186-1.551.71-3.336.801-4.718.801a1.672 1.672 0 0 0 0 3.343"/>
        <path fill="#DBA827" d="M30.89 39.247c-1.578 0-3.618-.105-5.4-.923-.77-.353-1.55-.86-2.307-1.349-1.383-.897-2.69-1.744-4.074-1.744-1.383 0-2.69.847-4.073 1.744-.756.49-1.537.996-2.307 1.35-1.783.817-3.822.922-5.4.922a1.671 1.671 0 0 0 0 3.343c1.917 0 4.423-.14 6.794-1.228.99-.454 1.915-1.053 2.73-1.582.742-.48 1.861-1.206 2.256-1.206.396 0 1.515.726 2.256 1.206.816.53 1.74 1.128 2.731 1.582 2.371 1.088 4.876 1.228 6.794 1.228a1.672 1.672 0 0 0 0-3.343"/>
        <path fill="#EEADCD" d="M207.62 48.853v22.759h-24.594V48.854"/>
        <path fill="#000" d="M208.146 72.14h-25.648V48.852h1.055v22.231h23.538v-22.23h1.055z"/>
        <path fill="#EF5722" d="M186.539 71.427h17.566v-3.162h-17.566z"/>
        <path fill="#000" d="M187.067 70.899h16.512v-2.107h-16.512v2.107zm-1.055 1.055h18.621v-4.217h-18.621v4.217z"/>
        <path fill="#DAA725" d="M190.053 68.265h10.54V54.218h-10.54z"/>
        <path fill="#000" d="M190.58 67.737h9.485V54.745h-9.485v12.992zm-1.055 1.055h11.595V53.69h-11.595v15.102z"/>
        <path fill="#A1D29D" d="M179.513 48.853l15.81-14.053 15.81 14.053z"/>
        <path fill="#000" d="M180.899 48.326h28.847l-14.423-12.82-14.424 12.82zm31.62 1.055h-34.392l17.196-15.286 17.196 15.286z"/>
        <path fill="#EEADCD" d="M102.656 23.233v-6.444H80.549v53.617h22.107v-3.158h3.158V64.09h3.158V41.983h15.79V64.09h3.159v3.158h3.157V23.233z"/>
        <path fill="#DAA725" d="M134.236 23.105l-15.79-15.79H95.153l-3.552-3.158L77.39 16.789h25.265v6.316z"/>
        <path fill="#A1D29D" d="M83.706 57.773h15.791v-3.158H83.706zM83.706 35.738h15.791V32.58H83.706z"/>
        <path fill="#EF5722" d="M86.865 54.615h9.474v-9.474h-9.474z"/>
        <path fill="#000" d="M98.973 57.25H84.23v-2.111H98.973v2.111zm-11.585-3.158h8.427v-8.427h-8.427v8.427zm9.474 0v-9.474h-10.52v9.474h-3.159v4.205h16.837v-4.205h-3.158z"/>
        <path fill="#DAA725" d="M108.971 64.09h15.791V41.983h-15.791z"/>
        <path fill="#000" d="M109.495 63.566h14.743V42.507h-14.743v21.059zm-1.047 1.047h16.837V41.459h-16.837v23.154z"/>
        <path fill="#EF5722" d="M86.865 32.58h9.474v-9.475h-9.474z"/>
        <path fill="#000" d="M98.973 35.214H84.23v-2.111H98.973v2.11zm-11.585-3.158h8.427v-8.427h-8.427v8.427zm9.474 0v-9.474h-10.52v9.474h-3.159v4.205h16.837v-4.205h-3.158z"/>
        <path fill="#A1D29D" d="M121.604 56.194a1.58 1.58 0 1 1-3.158 0 1.58 1.58 0 0 1 3.158 0"/>
        <path fill="#000" d="M120.025 55.14a1.057 1.057 0 0 0 0 2.11 1.057 1.057 0 0 0 0-2.111m0 3.158a2.105 2.105 0 0 1-2.103-2.103c0-1.159.943-2.102 2.103-2.102 1.159 0 2.103.943 2.103 2.102 0 1.16-.944 2.103-2.103 2.103M124.238 28.898h-5.269v-2.111h5.27v2.11zm-3.158 3.158h-5.268v-2.111h5.268v2.11zm3.158 1.047v2.11h-5.269v-2.11h5.269zm3.682-6.316V25.74H115.288v1.047h2.634v2.11h-5.792v1.048h2.634v2.11h-2.634v1.048h5.792v2.11h-2.634v1.048h12.632v-1.047h-2.635v-2.111h2.635v-1.047H122.127v-2.111H127.92v-1.047h-2.635v-2.111h2.635z"/>
        <path fill="#A1D29D" d="M127.92 67.248V64.09h-22.107v3.158h-3.158v3.158h28.423v-3.158z"/>
        <path fill="#EF5722" d="M112.13 51.458h9.474v-6.316h-9.474z"/>
        <path fill="#000" d="M112.653 50.934h8.427v-5.269h-8.427v5.269zm-1.047 1.047h10.521v-7.363h-10.521v7.363z"/>
        <path fill="#000" d="M103.179 22.581v-5.268h4.011L96.532 7.838h21.697l14.743 14.742h-29.793zm27.375 44.144h-2.11v-3.16H105.29v3.16h-2.111V23.757h27.375v42.968zm-24.218 0h21.06v-2.111h-21.06v2.11zm24.218 3.157h-27.375v-2.11h27.375v2.11zm-28.422-47.174V69.883h-21.06v-52.57h21.06v5.396zm-23.364-6.442l12.834-11.41 12.834 11.41H78.768zm39.894-9.475H95.354l-3.752-3.335-15.589 13.857h4.012V70.93l51.577.07V23.627h3.898L118.662 6.79zM20.835 140.704h-1.024l.002-50.7h1.024z"/>
        <path fill="#F05822" d="M18.948 93.948c.418 0 .765-.092 1.046-.19.108.024.216.042.33.042.114 0 .223-.018.33-.043.28.1.628.191 1.046.191a4.544 4.544 0 0 0 4.54-4.54 1.789 1.789 0 0 0-3.576 0 .964.964 0 0 1-.872.96l-.062-.025v-5.169a1.407 1.407 0 1 0-2.813 0v5.17l-.06.023a.964.964 0 0 1-.872-.959 1.789 1.789 0 0 0-3.576 0 4.545 4.545 0 0 0 4.54 4.54"/>
        <path fill="#F05822" d="M18.354 100.566c.72 0 1.289-.235 1.704-.407.085-.035.192-.08.267-.106.074.026.18.071.266.106.415.172.983.407 1.704.407 2.817 0 5.223-2.09 5.597-4.863a1.789 1.789 0 0 0-3.544-.478c-.135 1-1.006 1.754-2.03 1.765-.071-.016-.236-.085-.36-.135-.4-.166-.95-.393-1.633-.393-.685 0-1.234.227-1.635.393-.123.05-.287.12-.358.135-1.025-.01-1.895-.766-2.03-1.765a1.787 1.787 0 1 0-3.544.478c.374 2.773 2.78 4.863 5.596 4.863"/>
        <path fill="#F05822" d="M17.759 107.185c.83 0 1.514-.283 2.012-.49.185-.076.464-.191.549-.198.094.007.374.122.558.199.499.206 1.18.489 2.013.489 3.153 0 5.946-2.215 6.64-5.267a1.789 1.789 0 0 0-3.487-.794c-.327 1.44-1.654 2.485-3.153 2.485-.12 0-.411-.12-.644-.217-.507-.21-1.138-.472-1.922-.472s-1.415.262-1.922.472c-.233.096-.524.217-.644.217-1.5 0-2.826-1.045-3.154-2.485a1.789 1.789 0 0 0-3.487.794c.695 3.052 3.488 5.267 6.64 5.267"/>
        <path fill="#F05822" d="M17.163 113.803c.942 0 1.706-.317 2.32-.571.314-.13.67-.277.841-.277.172 0 .527.147.84.277.615.254 1.38.57 2.321.57 3.531 0 6.691-2.352 7.685-5.72a1.788 1.788 0 0 0-3.43-1.012c-.549 1.858-2.298 3.157-4.255 3.157-.23 0-.58-.146-.952-.3-.59-.244-1.326-.548-2.209-.548-.884 0-1.619.304-2.209.549-.37.154-.722.299-.952.299-1.957 0-3.707-1.3-4.255-3.157a1.788 1.788 0 0 0-3.43 1.013c.994 3.367 4.154 5.72 7.685 5.72"/>
        <path fill="#F05822" d="M16.569 120.42c1.052 0 1.926-.362 2.628-.653.44-.182.856-.354 1.128-.354.27 0 .687.172 1.127.354.703.291 1.577.653 2.629.653a9.242 9.242 0 0 0 8.732-6.203 1.788 1.788 0 0 0-3.38-1.17 5.664 5.664 0 0 1-5.352 3.797c-.341 0-.767-.176-1.26-.38-.674-.28-1.513-.627-2.496-.627-.983 0-1.822.347-2.496.626-.493.205-.92.381-1.26.381a5.665 5.665 0 0 1-5.354-3.798 1.788 1.788 0 1 0-3.378 1.171 9.24 9.24 0 0 0 8.732 6.203"/>
        <path fill="#F05822" d="M33.437 118.02a1.788 1.788 0 0 0-2.313 1.022 6.958 6.958 0 0 1-6.448 4.42c-.451 0-.97-.214-1.568-.463-.797-.33-1.701-.704-2.783-.704-1.083 0-1.986.374-2.784.704-.6.249-1.116.463-1.567.463a6.96 6.96 0 0 1-6.45-4.42 1.787 1.787 0 1 0-3.334 1.291c1.553 4.011 5.484 6.706 9.784 6.706 1.162 0 2.146-.408 2.936-.735.537-.222 1.044-.432 1.415-.432.37 0 .878.21 1.414.432.79.327 1.775.735 2.937.735 4.299 0 8.23-2.695 9.783-6.706a1.788 1.788 0 0 0-1.022-2.313"/>
        <path fill="#000" d="M281.72 140.308h1.024V94.701h-1.024z"/>
        <path fill="#A2D39F" d="M299.882 124.47c-.78-.427-1.738-.662-2.699-.662-1.073 0-2.084.297-2.845.836-.57.403-.979.855-1.34 1.254-.633.698-1.013 1.119-1.97 1.119l-.29-.003c-2.233 0-4.322.779-6 1.406-.969.36-1.883.702-2.38.702a.838.838 0 0 1-.074-.003c-.978-.095-1.506-.386-2.235-.79-.475-.261-1.013-.558-1.74-.83-1.05-.392-2.004-.446-2.88-.446-.215 0-.43.003-.648.007-.208.003-.417.007-.628.007a9.59 9.59 0 0 1-1.182-.061c-.71-.086-1.138-.525-1.778-1.233-.57-.633-1.218-1.35-2.247-1.682-.497-.162-1.334-.27-2.08-.27-2.574 0-2.9 1.253-2.92 1.792-.073 1.874 2.892 3.874 4.175 4.14.21.045.424.066.655.066.398 0 .765-.063 1.12-.124.295-.051.575-.1.826-.1.106 0 .2.009.288.027.59.115 1.058.568 1.565 1.103 1.061 1.119 2.517 2.48 4.372 3.087.966.316 4.027.34 4.942.34 1.12 0 4.86-.035 5.988-.493 1.446-.588 2.453-1.554 3.426-2.49.303-.29.61-.584.933-.87.566-.5.99-.677 1.62-.677.09 0 .181.003.277.01.203.015.393.038.576.06.301.035.614.072.937.072.57 0 1.068-.115 1.568-.362.204-.101 3.273-2.292 3.306-3.828a1.212 1.212 0 0 0-.638-1.104"/>
        <path fill="#A2D39F" d="M269.893 122.764c.256.062.53.092.839.092.237 0 .474-.018.71-.037.193-.015.385-.03.576-.03.165 0 .298.012.418.038.462.105.87.562 1.284 1.063.929 1.128 2.206 2.503 3.849 3.121.846.318 3.336.352 4.366.352 1.26 0 4.298-.05 5.286-.51 1.28-.6 2.162-1.574 3.014-2.516.262-.29.528-.583.808-.868.526-.535.859-.636 1.288-.636.072 0 .146.003.224.01.318.026.565.04.8.04.85 0 1.544-.17 2.184-.536.308-.175 2.674-2.166 2.706-3.546.01-.457-.2-.855-.578-1.093a4.634 4.634 0 0 0-2.445-.689c-.976 0-1.894.31-2.584.871-.502.41-.86.864-1.175 1.265-.586.744-.875 1.073-1.59 1.073l-.251-.003c-1.982 0-3.817.788-5.292 1.421-.784.337-1.595.685-2.026.685h-.003c-.806-.09-1.25-.372-1.865-.763-.418-.264-.89-.565-1.534-.842-.946-.407-1.836-.462-2.581-.462-.19 0-.377.003-.567.007-.18.003-.36.007-.542.007-.4 0-.707-.018-.997-.059-.553-.078-.912-.503-1.451-1.19-.503-.64-1.074-1.368-2.004-1.716-.452-.168-1.207-.28-1.88-.28-2.404 0-2.636 1.374-2.651 1.795-.062 1.856 2.546 3.668 3.664 3.936"/>
        <path fill="#A2D39F" d="M271.675 115.772c.46.13.913.148 1.312.165.324.013.63.026.886.094.337.09.683.552 1.008 1.016.795 1.138 1.891 2.523 3.32 3.156.73.323 2.693.372 3.798.372 1.351 0 3.745-.07 4.594-.537 1.113-.613 1.866-1.595 2.595-2.543.223-.29.447-.583.685-.868.451-.539.698-.583.953-.583.053 0 .108.003.165.009.114.011.232.017.351.017h.001c.862 0 1.814-.294 2.55-.786.346-.233 2.068-2.005 2.098-3.242.01-.448-.17-.833-.51-1.085a3.712 3.712 0 0 0-2.2-.727c-.886 0-1.713.327-2.33.918-.43.414-.736.87-1.005 1.273-.514.769-.72 1.018-1.207 1.018l-.212-.003c-1.739 0-3.323.801-4.595 1.445-.585.295-1.313.663-1.59.663-.629-.082-.972-.338-1.49-.727-.36-.268-.767-.573-1.327-.857-.843-.427-1.632-.485-2.292-.485-.162 0-.324.004-.487.007-.15.004-.302.007-.455.007-.325 0-.574-.017-.807-.055-.389-.064-.685-.474-1.129-1.139-.433-.65-.925-1.387-1.753-1.752-.409-.179-1.087-.3-1.687-.3-1.718 0-2.357.93-2.382 1.801-.052 1.859 2.18 3.456 3.142 3.728"/>
        <path fill="#A2D39F" d="M273.433 108.774c.356.123.717.196 1.065.267.285.058.554.113.79.189.232.075.59.698.743.964.658 1.145 1.57 2.542 2.774 3.19.615.333 2.105.402 3.246.402s3.167-.075 3.916-.576c.936-.627 1.56-1.614 2.162-2.57.183-.288.368-.581.563-.866.357-.518.507-.518.616-.518.034 0 .068.002.103.006.074.01.151.014.231.014.846 0 1.95-.54 2.602-1.071.347-.284 1.457-1.805 1.484-2.893.014-.563-.229-.904-.436-1.091a2.941 2.941 0 0 0-1.965-.78c-.8 0-1.539.349-2.08.98-.357.416-.608.873-.829 1.276-.405.738-.563.953-.85.953l-.15-.002c-1.505 0-2.839.82-3.91 1.48-.405.249-.955.587-1.167.626-.405-.074-.64-.274-1.077-.672-.3-.273-.64-.582-1.114-.874-.744-.46-1.438-.521-2.018-.521-.136 0-.27.004-.407.007-.122.003-.244.007-.367.007a2.95 2.95 0 0 1-.61-.051c-.252-.05-.564-.621-.815-1.08-.36-.657-.769-1.402-1.486-1.786-.375-.2-.968-.33-1.51-.33-1.257 0-2.086.71-2.112 1.806-.04 1.729 1.65 3.185 2.608 3.514"/>
        <path fill="#A2D39F" d="M275.165 101.764l.273.12c.406.18.86.38 1.213.522.161.112.437.723.527.924.55 1.22 1.242 2.555 2.207 3.218.434.298 1.347.45 2.713.45 1.144 0 2.637-.11 3.254-.638.75-.64 1.24-1.629 1.712-2.585.144-.29.29-.584.442-.869.192-.355.296-.437.31-.437v.001c.063.01.131.015.202.015h.001c.877 0 2.135-.915 2.584-1.382.321-.335 1.435-2.524.505-3.596-.479-.55-1.096-.854-1.74-.854-.724 0-1.375.377-1.834 1.06-.279.415-.474.87-.647 1.27-.129.301-.347.805-.45.88a2.95 2.95 0 0 0-.133-.004c-1.287 0-2.418.888-3.244 1.536-.248.195-.575.452-.754.55-.18-.075-.336-.24-.626-.577-.239-.277-.51-.59-.893-.893-.65-.512-1.283-.577-1.76-.577-.112 0-.222.004-.333.007a6.23 6.23 0 0 1-.275.007c-.166 0-.288-.012-.36-.026-.158-.103-.407-.683-.556-1.029-.297-.693-.605-1.409-1.197-1.813-.337-.23-.867-.378-1.35-.378-1.083 0-1.825.727-1.844 1.81-.03 1.616 1.207 2.917 2.053 3.288"/>
        <path fill="#A2D39F" d="M276.832 94.728c.111.067.293.212.455.34.215.172.438.349.651.478.121.172.301.721.362.908.561 1.72 1.042 2.683 1.608 3.219.374.356 1.116.536 2.206.536.906 0 2.094-.128 2.61-.736.546-.645.883-1.584 1.24-2.578.104-.292.21-.587.322-.874.06-.156.11-.259.144-.327.872-.038 2.215-1.303 2.51-1.726.355-.511.472-2.324-.042-3.142-.389-.62-.929-.961-1.52-.961-.307 0-1.075.113-1.587 1.164-.197.407-.337.854-.46 1.249-.078.252-.189.606-.28.795-.747.043-1.385.519-1.912 1.029.197-1.027.952-1.805 1.29-2.77.782-2.243.021-6.508-1.913-6.508-1.9 0-2.878 4.575-2.778 5.423.147 1.246.74 2.156 1.15 3.112a1.972 1.972 0 0 0-.998-.25 4.55 4.55 0 0 0-.26.009c-.06.002-.12.006-.18.006l-.059-.002c-.115-.202-.26-.673-.353-.97-.223-.716-.434-1.393-.878-1.812-.299-.281-.777-.463-1.219-.463-.714 0-1.556.476-1.573 1.814-.019 1.466.745 2.602 1.464 3.037"/>
        <path fill="#F05822" d="M218.848 47.036c0 1.975-3.066 3.87-3.137 5.73-.077 2.005 2.832 4.033 2.68 5.857-.17 2.058-3.403 3.797-3.656 5.555-.314 2.183 2.307 4.439 1.89 6.034-.839 3.208-3.349 3.756-4.452 3.756-1.104 0-3.614-.548-4.453-3.756-.417-1.596 2.204-3.852 1.89-6.034-.253-1.76-3.486-3.497-3.657-5.555-.151-1.823 2.758-3.851 2.682-5.857-.072-1.86-3.138-3.755-3.138-5.73 0-1.975 3.066-3.871 3.138-5.73.076-2.006-2.833-4.034-2.682-5.857.171-2.06 3.404-3.797 3.657-5.556.314-2.182-2.307-4.438-1.89-6.034.839-3.207 3.349-3.755 4.453-3.755 1.103 0 3.613.548 4.452 3.756.418 1.595-2.204 3.852-1.89 6.034.253 1.758 3.486 3.496 3.656 5.555.152 1.823-2.757 3.85-2.68 5.856.071 1.86 3.137 3.755 3.137 5.73"/>
        <path fill="#000" d="M215.103 44.387l-.724-.724-1.695 1.695v-6.802l2.42-2.419-.725-.724-1.695 1.695V31.89h-1.024v5.22l-1.695-1.696-.724.724 2.42 2.42v6.801l-1.696-1.695-.724.724 2.42 2.42v6.801l-1.696-1.695-.724.724 2.42 2.42v6.801l-1.696-1.695-.724.724 2.42 2.42v6.801l-1.696-1.695-.724.724 2.42 2.42v14.531h1.023V71.556l2.42-2.419-.725-.724-1.695 1.695v-6.802l2.42-2.419-.725-.724-1.695 1.695v-6.802l2.42-2.419-.725-.724-1.695 1.695v-6.802z"/>
        <path fill="#DBA827" d="M140.534 70.593c0-2.48-3.313-3.737-3.313-6.042 0-2.583 3.62-4.106 3.254-6.957-.438-3.413-3.424-6.15-7.119-6.526-4.886-.5-9.022 3.025-9.022 7.442 0 2.48 3.313 3.738 3.313 6.04 0 2.306-3.313 3.563-3.313 6.043s3.313 3.737 3.313 6.04c0 2.585-3.619 4.108-3.254 6.959.438 3.413 3.424 6.149 7.119 6.526 4.886.499 9.022-3.025 9.022-7.442 0-2.481-3.313-3.738-3.313-6.042s3.313-3.561 3.313-6.041"/>
        <path fill="#000" d="M135.077 59.065c.548-.439 1.022-.817 2.005-.817v-1.025c-1.341 0-2.034.553-2.644 1.042-.442.354-.84.665-1.492.773v-4.137h-1.023v4.137c-.653-.108-1.05-.419-1.493-.773-.61-.489-1.302-1.042-2.644-1.042v1.025c.982 0 1.457.378 2.005.817.526.421 1.117.89 2.132 1.01v5.315c-.653-.108-1.05-.419-1.493-.773-.61-.488-1.302-1.042-2.644-1.042V64.6c.982 0 1.457.378 2.005.817.526.421 1.117.89 2.132 1.01v5.316c-.653-.109-1.05-.42-1.493-.774-.61-.488-1.302-1.042-2.644-1.042v1.025c.982 0 1.457.378 2.005.817.526.421 1.117.89 2.132 1.01v5.316c-.653-.109-1.05-.42-1.493-.774-.61-.488-1.302-1.042-2.644-1.042v1.025c.982 0 1.457.378 2.005.817.526.422 1.117.89 2.132 1.01v5.316c-.653-.109-1.05-.42-1.493-.774-.61-.488-1.302-1.042-2.644-1.042v1.025c.982 0 1.457.38 2.005.817.526.422 1.117.89 2.132 1.01v13.908h1.023V85.483c1.014-.12 1.605-.588 2.131-1.01.548-.438 1.022-.817 2.005-.817v-1.025c-1.341 0-2.034.554-2.644 1.042-.442.354-.84.665-1.492.774v-5.316c1.014-.12 1.605-.588 2.131-1.01.548-.439 1.022-.817 2.005-.817V76.28c-1.341 0-2.034.554-2.644 1.042-.442.354-.84.665-1.492.774V72.78c1.014-.12 1.605-.589 2.131-1.01.548-.439 1.022-.817 2.005-.817v-1.025c-1.341 0-2.034.554-2.644 1.042-.442.354-.84.665-1.492.773v-5.315c1.014-.12 1.605-.589 2.131-1.01.548-.439 1.022-.817 2.005-.817v-1.025c-1.341 0-2.034.554-2.644 1.042-.442.354-.84.665-1.492.773v-5.315c1.014-.12 1.605-.589 2.131-1.01"/>
        <path fill="#FFF" d="M240.995 57.51c.753 0 1.473.135 2.146.37a10.956 10.956 0 0 1-.116-1.588c0-6.053 4.907-10.96 10.96-10.96 5.505 0 10.06 4.059 10.842 9.347a8.08 8.08 0 0 1 2.554-.417 8.12 8.12 0 0 1 0 16.238h-26.386a6.494 6.494 0 1 1 0-12.99"/>
        <path fill="#DAA725" d="M100 121h120V88H100z"/>
        <path stroke="#000" stroke-width="1.165" d="M100 121h120V88H100z"/>
        <path stroke="#000" stroke-width=".99" d="M68 133h32M68.5 116h32M219 133h32M219.5 116h32"/>
        <path stroke="#000" d="M68 67.5c0 17.949 14.55 32.5 32.5 32.5"/>
        <path fill="#000" d="M103 118h114V91H103z"/>
        <path stroke="#000" stroke-width="1.191" d="M103 118h114V91H103z"/>
        <path fill="#FFF" d="M131.954 99.772h3.144c.8 0 1.514.168 2.142.504.628.336 1.118.82 1.47 1.452.352.632.528 1.38.528 2.244 0 .864-.176 1.612-.528 2.244a3.593 3.593 0 0 1-1.47 1.452c-.628.336-1.342.504-2.142.504h-3.144v-8.4zm3.144 7.032c.8 0 1.41-.25 1.83-.75.42-.5.63-1.194.63-2.082 0-.888-.21-1.582-.63-2.082-.42-.5-1.03-.75-1.83-.75h-1.608v5.664h1.608zm5.496-7.032h1.536v8.4h-1.536v-8.4zm4.302 8.376c-.54-.128-.962-.268-1.266-.42l.18-1.632c1.056.512 1.984.768 2.784.768.424 0 .756-.082.996-.246.24-.164.36-.406.36-.726a.888.888 0 0 0-.198-.594 1.532 1.532 0 0 0-.57-.396 19.79 19.79 0 0 0-1.188-.45 7.192 7.192 0 0 1-1.272-.558 2.3 2.3 0 0 1-.798-.756c-.196-.308-.294-.686-.294-1.134 0-.72.264-1.3.792-1.74.528-.44 1.284-.66 2.268-.66.464 0 .926.052 1.386.156.46.104.882.232 1.266.384l-.156 1.572a9.465 9.465 0 0 0-1.362-.486 4.834 4.834 0 0 0-1.23-.162c-.456 0-.804.076-1.044.228a.735.735 0 0 0-.36.66.8.8 0 0 0 .192.552c.128.144.302.264.522.36.22.096.546.212.978.348.968.304 1.674.654 2.118 1.05.444.396.666.938.666 1.626 0 .656-.228 1.228-.684 1.716-.456.488-1.312.732-2.568.732a6.6 6.6 0 0 1-1.518-.192zm7.596-.348a3.778 3.778 0 0 1-1.518-1.53c-.36-.66-.54-1.426-.54-2.298 0-.864.186-1.626.558-2.286a3.916 3.916 0 0 1 1.548-1.536c.66-.364 1.41-.546 2.25-.546.808 0 1.532.164 2.172.492l-.168 1.464a6.75 6.75 0 0 0-.99-.354 3.984 3.984 0 0 0-1.026-.126c-.856 0-1.514.264-1.974.792-.46.528-.69 1.228-.69 2.1 0 .872.226 1.572.678 2.1.452.528 1.102.792 1.95.792.376 0 .722-.04 1.038-.12.316-.08.654-.2 1.014-.36l.168 1.464a5.143 5.143 0 0 1-2.22.492c-.848 0-1.598-.18-2.25-.54zm7.046-.006a3.845 3.845 0 0 1-1.477-1.536c-.356-.66-.534-1.422-.534-2.286 0-.864.178-1.626.535-2.286a3.845 3.845 0 0 1 1.475-1.536c.629-.364 1.338-.546 2.13-.546.793 0 1.502.182 2.13.546.629.364 1.12.876 1.477 1.536.356.66.534 1.422.534 2.286 0 .864-.178 1.626-.534 2.286a3.845 3.845 0 0 1-1.476 1.536c-.629.364-1.338.546-2.13.546-.793 0-1.502-.182-2.13-.546zm4.007-1.734c.437-.528.655-1.224.655-2.088 0-.864-.218-1.56-.654-2.088-.437-.528-1.062-.792-1.879-.792-.816 0-1.441.264-1.877.792-.437.528-.654 1.224-.654 2.088 0 .864.217 1.56.654 2.088.436.528 1.061.792 1.877.792.817 0 1.442-.264 1.879-.792zm9.87-6.288l-2.987 8.4h-1.452l-2.988-8.4h1.548l2.16 6.18 2.172-6.18h1.548zm.924 0h5.376v1.488h-3.804v1.788h2.952v1.488h-2.952v2.148h3.924v1.488h-5.496v-8.4zm6.816 0h3.072c.897 0 1.602.214 2.118.642.517.428.774 1.062.774 1.902 0 .584-.123 1.062-.371 1.434-.249.372-.6.67-1.056.894l1.895 3.528h-1.715l-1.62-3.12h-1.56v3.12h-1.537v-8.4zm2.665 3.996c1.128 0 1.692-.456 1.692-1.368 0-.44-.128-.774-.385-1.002-.256-.228-.671-.342-1.248-.342h-1.188v2.712h1.129z"/>
        <path fill="#DAA725" d="M97 144h5V83.5h-5z"/>
        <path stroke="#000" stroke-width=".994" d="M97 144h5V83.5h-5z"/>
        <path fill="#DAA725" d="M65 142h5V65h-5z"/>
        <path stroke="#000" stroke-width="1.122" d="M65 142h5V65h-5z"/>
        <path fill="#DAA725" d="M81 144h5V76h-5z"/>
        <path stroke="#000" stroke-width="1.054" d="M81 144h5V76h-5z"/>
        <path stroke="#000" stroke-width="1.055" d="M75 80.5V144M92 93.869v50.13"/>
        <path fill="#DAA725" d="M63 144h9v-4h-9z"/>
        <path stroke="#000" stroke-width=".99" d="M63 144h9v-4h-9z"/>
        <path fill="#DAA725" d="M79 144h9v-4h-9z"/>
        <path stroke="#000" stroke-width=".99" d="M79 144h9v-4h-9z"/>
        <path fill="#DAA725" d="M95 144h9v-4h-9z"/>
        <path stroke="#000" stroke-width=".99" d="M95 144h9v-4h-9z"/>
        <path fill="#DAA725" d="M63 68h9v-4h-9z"/>
        <path stroke="#000" stroke-width=".99" d="M63 68h9v-4h-9z"/>
        <path fill="#DAA725" d="M79 76h9v-4h-9z"/>
        <path stroke="#000" stroke-width=".99" d="M79 76h9v-4h-9z"/>
        <path fill="#DAA725" d="M70.5 61a3 3 0 1 0-6 0 3 3 0 0 0 6 0"/>
        <path stroke="#000" stroke-width="1.122" d="M70.5 61a3 3 0 1 0-6 0 3 3 0 0 0 6 0z"/>
        <path stroke="#000" d="M251 67.5c0 17.949-14.551 32.5-32.5 32.5"/>
        <path fill="#DAA725" d="M217 144h5V83.5h-5z"/>
        <path stroke="#000" stroke-width=".994" d="M217 144h5V83.5h-5z"/>
        <path fill="#DAA725" d="M249 142h5V65h-5z"/>
        <path stroke="#000" stroke-width="1.122" d="M249 142h5V65h-5z"/>
        <path fill="#DAA725" d="M233 144h5V76h-5z"/>
        <path stroke="#000" stroke-width="1.054" d="M233 144h5V76h-5z"/>
        <path stroke="#000" stroke-width="1.055" d="M244 80.5V144M227 93.869v50.13"/>
        <path fill="#DAA725" d="M247 144h9v-4h-9z"/>
        <path stroke="#000" stroke-width=".99" d="M247 144h9v-4h-9z"/>
        <path fill="#DAA725" d="M231 144h9v-4h-9z"/>
        <path stroke="#000" stroke-width=".99" d="M231 144h9v-4h-9z"/>
        <path fill="#DAA725" d="M215 144h9v-4h-9z"/>
        <path stroke="#000" stroke-width=".99" d="M215 144h9v-4h-9z"/>
        <path fill="#DAA725" d="M247 68h9v-4h-9z"/>
        <path stroke="#000" stroke-width=".99" d="M247 68h9v-4h-9z"/>
        <path fill="#DAA725" d="M231 76h9v-4h-9z"/>
        <path stroke="#000" stroke-width=".99" d="M231 76h9v-4h-9z"/>
        <path fill="#DAA725" d="M248.5 61a3 3 0 1 1 6 0 3 3 0 0 1-6 0"/>
        <path stroke="#000" stroke-width="1.122" d="M248.5 61a3 3 0 1 1 6 0 3 3 0 0 1-6 0z"/>
        <path fill="#FFF" d="M70.163 79.827c-.735 0-1.437.13-2.093.36a10.84 10.84 0 0 0 .113-1.548c0-5.906-4.788-10.693-10.693-10.693-5.37 0-9.816 3.96-10.577 9.119a7.908 7.908 0 0 0-2.493-.406 7.921 7.921 0 1 0 0 15.84h25.743a6.336 6.336 0 1 0 0-12.673M198.694 96.394l-2.528 2.528"/>
        <path stroke="#FFF" stroke-width=".9" d="M198.694 96.394l-2.528 2.528"/>
        <path fill="#FFF" d="M198.694 98.922l-2.528-2.528"/>
        <path stroke="#FFF" stroke-width=".9" d="M198.694 98.922l-2.528-2.528"/>
        <path fill="#FFF" d="M109.5 106.507l2.528 2.528"/>
        <path stroke="#FFF" stroke-width=".9" d="M109.5 106.507l2.528 2.528"/>
        <path fill="#FFF" d="M109.5 109.036l2.528-2.528"/>
        <path stroke="#FFF" stroke-width=".9" d="M109.5 109.036l2.528-2.528"/>
        <path fill="#FFF" d="M199.655 106.731c2.948 0 4.423-1.474 4.423-4.423 0 2.949 1.474 4.423 4.422 4.423-2.948 0-4.422 1.474-4.422 4.423 0-2.949-1.475-4.423-4.423-4.423"/>
        <path stroke="#FFF" stroke-width=".9" d="M199.655 106.731c2.948 0 4.423-1.474 4.423-4.423 0 2.949 1.474 4.423 4.422 4.423-2.948 0-4.422 1.474-4.422 4.423 0-2.949-1.475-4.423-4.423-4.423z"/>
        <path fill="#FFF" d="M199.655 106.731c2.948 0 4.423-1.474 4.423-4.423 0 2.949 1.474 4.423 4.422 4.423-2.948 0-4.422 1.474-4.422 4.423 0-2.949-1.475-4.423-4.423-4.423"/>
        <path stroke="#FFF" stroke-width=".9" d="M199.655 106.731c2.948 0 4.423-1.474 4.423-4.423 0 2.949 1.474 4.423 4.422 4.423-2.948 0-4.422 1.474-4.422 4.423 0-2.949-1.475-4.423-4.423-4.423z"/>
        <path fill="#FFF" d="M121.299 100.948c-2.277 0-3.416-1.138-3.416-3.415 0 2.277-1.138 3.415-3.415 3.415 2.277 0 3.415 1.139 3.415 3.416 0-2.277 1.139-3.416 3.416-3.416"/>
        <path stroke="#FFF" stroke-width=".9" d="M121.299 100.948c-2.277 0-3.416-1.138-3.416-3.415 0 2.277-1.138 3.415-3.415 3.415 2.277 0 3.415 1.139 3.415 3.416 0-2.277 1.139-3.416 3.416-3.416z"/>
        <path fill="#FFF" d="M121.299 100.948c-2.277 0-3.416-1.138-3.416-3.415 0 2.277-1.138 3.415-3.415 3.415 2.277 0 3.415 1.139 3.415 3.416 0-2.277 1.139-3.416 3.416-3.416"/>
        <path stroke="#FFF" stroke-width=".9" d="M121.299 100.948c-2.277 0-3.416-1.138-3.416-3.415 0 2.277-1.138 3.415-3.415 3.415 2.277 0 3.415 1.139 3.415 3.416 0-2.277 1.139-3.416 3.416-3.416z"/>
        <path fill="#FFF" d="M202.396 22.974l2.81-2.81"/>
        <path stroke="#FFF" d="M202.396 22.974l2.81-2.81"/>
        <path fill="#FFF" d="M202.396 20.165l2.81 2.809"/>
        <path stroke="#FFF" d="M202.396 20.165l2.81 2.809"/>
        <path fill="#FFF" d="M251.396 12.974l2.81-2.81"/>
        <path stroke="#FFF" d="M251.396 12.974l2.81-2.81"/>
        <path fill="#FFF" d="M251.396 10.165l2.81 2.809"/>
        <path stroke="#FFF" d="M251.396 10.165l2.81 2.809"/>
        <path fill="#FFF" d="M253.396 26.974l2.81-2.81"/>
        <path stroke="#FFF" d="M253.396 26.974l2.81-2.81"/>
        <path fill="#FFF" d="M253.396 24.165l2.81 2.809"/>
        <path stroke="#FFF" d="M253.396 24.165l2.81 2.809"/>
        <path fill="#FFF" d="M262.39 18.914c2.53 0 3.795 1.265 3.795 3.795 0-2.53 1.265-3.795 3.795-3.795-2.53 0-3.795-1.265-3.795-3.795 0 2.53-1.265 3.795-3.795 3.795"/>
        <path stroke="#FFF" d="M262.39 18.914c2.53 0 3.795 1.265 3.795 3.795 0-2.53 1.265-3.795 3.795-3.795-2.53 0-3.795-1.265-3.795-3.795 0 2.53-1.265 3.795-3.795 3.795z"/>
        <path fill="#FFF" d="M262.39 18.914c2.53 0 3.795 1.265 3.795 3.795 0-2.53 1.265-3.795 3.795-3.795-2.53 0-3.795-1.265-3.795-3.795 0 2.53-1.265 3.795-3.795 3.795"/>
        <path stroke="#FFF" d="M262.39 18.914c2.53 0 3.795 1.265 3.795 3.795 0-2.53 1.265-3.795 3.795-3.795-2.53 0-3.795-1.265-3.795-3.795 0 2.53-1.265 3.795-3.795 3.795z"/>
    </g>
</svg>
