<svg xmlns="http://www.w3.org/2000/svg" width="320" height="150" viewBox="0 0 320 150">
    <g fill="none" fill-rule="evenodd">
        <path fill="#E0E0E0" d="M0 150h320V0H0z"/>
        <path fill="#000" d="M198.5 98c0-3.973-3.092-7.216-7-7.475V90.5h-86a7.5 7.5 0 0 0 0 15h86v-.025c3.908-.259 7-3.502 7-7.475M173.5 128c0-3.973-3.092-7.216-7-7.475v-.025h-74a7.5 7.5 0 0 0 0 15h74v-.025c3.908-.259 7-3.502 7-7.475M187.5 68c0-3.973-3.092-7.216-7-7.475V60.5h-94a7.5 7.5 0 0 0 0 15h94v-.025c3.908-.259 7-3.502 7-7.475M150 113a7.5 7.5 0 0 1 7.5-7.5H106a7.5 7.5 0 0 1 7.5 7.5 7.5 7.5 0 0 1-7.5 7.5h51.5a7.5 7.5 0 0 1-7.5-7.5M170 83a7.5 7.5 0 0 1 7.5-7.5H116a7.5 7.5 0 0 1 7.5 7.5 7.5 7.5 0 0 1-7.5 7.5h61.5A7.5 7.5 0 0 1 170 83"/>
        <path stroke="#FFF" d="M120.5 96.5a3 3 0 1 1-6 0M126.5 96.5a3 3 0 1 1-6 0M132.5 96.5a3 3 0 1 1-6 0M138.5 96.5a3 3 0 1 1-6 0M146.5 66.5a3 3 0 1 1-6 0M152.5 66.5a3 3 0 1 1-6 0M158.5 66.5a3 3 0 1 1-6 0M107.5 66.5a3 3 0 1 1-6 0M113.5 66.5a3 3 0 1 1-6 0M119.5 66.5a3 3 0 1 1-6 0M143.5 82.5a3 3 0 1 1-6 0M149.5 82.5a3 3 0 1 1-6 0M177.5 96.5a3 3 0 1 1-6 0M171.5 96.5a3 3 0 1 1-6 0M183.5 96.5a3 3 0 1 1-6 0M130.5 112.5a3 3 0 1 1-6 0M136.5 112.5a3 3 0 1 1-6 0M103.5 126.5a3 3 0 1 1-6 0M109.5 126.5a3 3 0 1 1-6 0M115.5 126.5a3 3 0 1 1-6 0M150.5 126.5a3 3 0 1 1-6 0M156.5 126.5a3 3 0 1 1-6 0"/>
        <path stroke="#FFF" stroke-width="10" d="M8.5 150c0-20.71 16.79-37.5 37.5-37.5h55.785c7.614-6.837 17.677-11 28.715-11 11.039 0 21.102 4.163 28.715 11H274c20.71 0 37.5-16.79 37.5-37.5S294.71 37.5 274 37.5H46C25.29 37.5 8.5 20.71 8.5 0"/>
        <path fill="#A2D39F" d="M229.667 27.26c0 3.008-4.325 5.725-5.381 8.098-1.933 4.343-3.513 7.937-7.418 7.937-3.905 0-5.484-3.594-7.417-7.937-1.056-2.373-5.382-5.09-5.382-8.098 0-3.008 4.326-5.725 5.382-8.097 1.933-4.343 3.512-7.938 7.417-7.938s5.485 3.595 7.418 7.938c1.056 2.372 5.38 5.089 5.38 8.097"/>
        <path fill="#221F1F" d="M217.38 18.659a4.724 4.724 0 0 0 3.717 1.818v-1.024a3.72 3.72 0 0 1-3.717-3.716v-.194h-1.024a3.721 3.721 0 0 1-3.717 3.717v1.024a4.725 4.725 0 0 0 3.717-1.816v2.82a3.721 3.721 0 0 1-3.717 3.718v1.024a4.728 4.728 0 0 0 3.717-1.816v2.82a3.72 3.72 0 0 1-3.717 3.717v1.025a4.728 4.728 0 0 0 3.717-1.816v2.82a3.72 3.72 0 0 1-3.717 3.717v1.025a4.728 4.728 0 0 0 3.717-1.816v15.502h1.024V35.897a4.725 4.725 0 0 0 3.717 1.819V36.69a3.72 3.72 0 0 1-3.717-3.717V30.15a4.725 4.725 0 0 0 3.717 1.819v-1.025a3.72 3.72 0 0 1-3.717-3.717v-2.824a4.724 4.724 0 0 0 3.717 1.819v-1.024a3.72 3.72 0 0 1-3.717-3.717v-2.823z"/>
        <path fill="#DBA827" d="M87.119 104.365c0 3.008-4.325 5.725-5.381 8.098-1.933 4.343-3.513 7.937-7.418 7.937-3.904 0-5.484-3.594-7.417-7.937-1.056-2.373-5.382-5.09-5.382-8.098 0-3.008 4.326-5.725 5.382-8.097 1.933-4.344 3.513-7.938 7.417-7.938 3.905 0 5.485 3.594 7.418 7.938 1.056 2.372 5.381 5.09 5.381 8.097"/>
        <path fill="#221F1F" d="M74.832 95.764a4.723 4.723 0 0 0 3.717 1.818v-1.024a3.72 3.72 0 0 1-3.717-3.717v-.194h-1.024a3.72 3.72 0 0 1-3.717 3.717v1.025a4.728 4.728 0 0 0 3.717-1.816v2.82a3.72 3.72 0 0 1-3.717 3.717v1.025a4.728 4.728 0 0 0 3.717-1.816v2.82a3.72 3.72 0 0 1-3.717 3.717v1.025a4.728 4.728 0 0 0 3.717-1.816v2.821a3.72 3.72 0 0 1-3.717 3.716v1.025a4.728 4.728 0 0 0 3.717-1.816v15.502h1.024v-15.31a4.726 4.726 0 0 0 3.717 1.817v-1.024a3.72 3.72 0 0 1-3.717-3.717v-2.823a4.726 4.726 0 0 0 3.717 1.82v-1.026a3.72 3.72 0 0 1-3.717-3.717v-2.823a4.723 4.723 0 0 0 3.717 1.818v-1.024a3.72 3.72 0 0 1-3.717-3.717v-2.823z"/>
        <path fill="#EF5722" d="M269.025 36.162c0-2.48-3.313-3.737-3.313-6.042 0-2.583 3.62-4.106 3.254-6.957-.438-3.413-3.424-6.149-7.119-6.526-4.886-.499-9.022 3.025-9.022 7.442 0 2.481 3.313 3.738 3.313 6.041 0 2.305-3.313 3.562-3.313 6.042s3.313 3.737 3.313 6.042c0 2.583-3.62 4.106-3.254 6.957.438 3.413 3.424 6.15 7.12 6.526 4.885.5 9.021-3.025 9.021-7.442 0-2.48-3.313-3.738-3.313-6.04 0-2.306 3.313-3.563 3.313-6.043"/>
        <path fill="#000" d="M263.569 24.634c.548-.438 1.02-.817 2.004-.817v-1.024c-1.341 0-2.033.553-2.644 1.042-.442.353-.84.664-1.491.773V20.47h-1.024v4.138c-.652-.109-1.05-.42-1.492-.773-.611-.489-1.302-1.042-2.644-1.042v1.024c.982 0 1.456.38 2.004.817.527.422 1.117.89 2.132 1.011v5.315c-.652-.109-1.05-.42-1.492-.773-.611-.489-1.302-1.042-2.644-1.042v1.024c.982 0 1.456.38 2.004.817.527.422 1.117.89 2.132 1.011v5.315c-.652-.109-1.05-.42-1.492-.773-.611-.488-1.302-1.042-2.644-1.042v1.024c.982 0 1.456.38 2.004.817.527.422 1.117.89 2.132 1.011v5.315c-.652-.108-1.05-.42-1.492-.773-.611-.488-1.302-1.042-2.644-1.042v1.024c.982 0 1.456.38 2.004.817.527.422 1.117.891 2.132 1.011v5.315c-.652-.108-1.05-.42-1.492-.773-.611-.488-1.302-1.042-2.644-1.042v1.024c.982 0 1.456.38 2.004.818.527.421 1.117.89 2.132 1.01v13.908h1.024V51.053c1.014-.12 1.604-.589 2.13-1.01.549-.439 1.022-.818 2.005-.818v-1.024c-1.341 0-2.033.554-2.644 1.042-.442.353-.84.664-1.491.773v-5.315c1.014-.12 1.604-.589 2.13-1.01.549-.439 1.022-.818 2.005-.818V41.85c-1.341 0-2.033.554-2.644 1.042-.442.353-.84.664-1.491.773V38.35c1.014-.12 1.604-.589 2.13-1.01.549-.439 1.022-.818 2.005-.818v-1.024c-1.341 0-2.033.554-2.644 1.042-.442.353-.84.664-1.491.773v-5.315c1.014-.12 1.604-.589 2.13-1.01.549-.439 1.022-.818 2.005-.818v-1.024c-1.341 0-2.033.553-2.644 1.042-.442.353-.84.664-1.491.773v-5.315c1.014-.12 1.604-.589 2.13-1.01"/>
        <path fill="#EF5722" d="M293.203 57.714v22.758H268.61V57.714"/>
        <path fill="#000" d="M293.73 81h-25.648V57.714h1.055v22.231h23.538V57.714h1.055z"/>
        <path fill="#DAA725" d="M272.123 80.288h17.566v-3.162h-17.566z"/>
        <path fill="#000" d="M272.65 79.76h16.512v-2.107H272.65v2.107zm-1.055 1.055h18.622v-4.217h-18.622v4.217z"/>
        <path fill="#A1D29D" d="M275.637 77.125h10.54V63.078h-10.54z"/>
        <path fill="#000" d="M276.164 76.598h9.485V63.606h-9.485v12.992zm-1.055 1.055h11.594V62.551h-11.594v15.102z"/>
        <path fill="#EEADCD" d="M265.096 57.714l15.81-14.053 15.81 14.053z"/>
        <path fill="#000" d="M266.483 57.187h28.847l-14.424-12.821-14.423 12.821zm31.62 1.055H263.71l17.195-15.286 17.197 15.286z"/>
        <path fill="#A1D29D" d="M62.81 110.714v22.758H38.215v-22.758"/>
        <path fill="#000" d="M63.337 134H37.689v-23.286h1.055v22.231h23.538v-22.231h1.055z"/>
        <path fill="#EF5722" d="M41.73 133.288h17.566v-3.162H41.73z"/>
        <path fill="#000" d="M42.257 132.76h16.512v-2.107H42.257v2.107zm-1.055 1.055h18.621v-4.217H41.202v4.217z"/>
        <path fill="#EEADCD" d="M45.243 130.125h10.54v-14.047h-10.54z"/>
        <path fill="#000" d="M45.77 129.598h9.485v-12.992H45.77v12.992zm-1.055 1.055H56.31v-15.102H44.715v15.102z"/>
        <path fill="#DAA725" d="M34.703 110.714l15.81-14.053 15.81 14.053z"/>
        <path fill="#000" d="M36.09 110.187h28.846L50.512 97.366 36.09 110.187zm31.62 1.055H33.316l17.195-15.286 17.197 15.286z"/>
        <path fill="#DAA725" d="M34.914 58.714v22.758H10.321V58.714"/>
        <path fill="#000" d="M35.442 82H9.794V58.714h1.055v22.231h23.538V58.714h1.055z"/>
        <path fill="#EEADCD" d="M13.835 81.288h17.566v-3.162H13.835z"/>
        <path fill="#000" d="M14.362 80.76h16.512v-2.107H14.362v2.107zm-1.055 1.055h18.622v-4.217H13.307v4.217z"/>
        <path fill="#A1D29D" d="M17.348 78.125h10.54V64.078h-10.54z"/>
        <path fill="#000" d="M17.875 77.598h9.485V64.606h-9.485v12.992zm-1.054 1.055h11.594V63.551H16.821v15.102z"/>
        <path fill="#EF5722" d="M6.808 58.714l15.81-14.053 15.81 14.053z"/>
        <path fill="#000" d="M8.194 58.187h28.847L22.618 45.366 8.194 58.187zm31.62 1.055H5.422l17.196-15.286 17.196 15.286z"/>
        <path fill="#EEADCD" d="M252.62 57.714v22.758h-24.594V57.714"/>
        <path fill="#000" d="M253.146 81h-25.648V57.714h1.055v22.231h23.538V57.714h1.055z"/>
        <path fill="#EF5722" d="M231.539 80.288h17.566v-3.162h-17.566z"/>
        <path fill="#000" d="M232.067 79.76h16.512v-2.107h-16.512v2.107zm-1.055 1.055h18.621v-4.217h-18.621v4.217z"/>
        <path fill="#DAA725" d="M235.053 77.125h10.54V63.078h-10.54z"/>
        <path fill="#000" d="M235.58 76.598h9.485V63.606h-9.485v12.992zm-1.055 1.055h11.595V62.551h-11.595v15.102z"/>
        <path fill="#A1D29D" d="M224.513 57.714l15.81-14.053 15.81 14.053z"/>
        <path fill="#000" d="M225.899 57.187h28.847l-14.423-12.821-14.424 12.821zm31.62 1.055h-34.392l17.196-15.286 17.196 15.286z"/>
        <path fill="#A1D29D" d="M94.013 54.61V40.068H64.52V54.61H45.294v26.835h67.946V54.61z"/>
        <path fill="#EF5722" d="M61.423 39.892H97.11L79.267 23.87z"/>
        <path fill="#EEADCD" d="M90.667 78.041v-3.404h-22.8v3.404H64.52v3.404h29.493v-3.404z"/>
        <path fill="#EF5722" d="M84.522 61.566c0-1.136-.587-3.63-5.255-3.63s-5.255 2.063-5.255 3.63v12.706h10.51V61.566z"/>
        <path fill="#DAA725" d="M85.155 48.18a5.889 5.889 0 1 1-11.778 0 5.889 5.889 0 0 1 11.778 0"/>
        <path fill="#000" d="M79.266 53.515a5.34 5.34 0 0 1-5.333-5.334 5.34 5.34 0 0 1 4.778-5.304v4.75h-3.03v1.109h4.352v-1.11h-.212v-4.75a5.34 5.34 0 0 1 4.78 5.305 5.34 5.34 0 0 1-5.335 5.334m0-11.777a6.45 6.45 0 0 0-6.443 6.443 6.45 6.45 0 0 0 6.443 6.443 6.45 6.45 0 0 0 6.443-6.443 6.45 6.45 0 0 0-6.443-6.443"/>
        <path fill="#DAA725" d="M50.099 69.057h9.275v-9.275h-9.275zM98.814 69.057h9.274v-9.275h-9.274z"/>
        <path fill="#EEADCD" d="M48.037 72.404h13.386v-3.347H48.037z"/>
        <path fill="#000" d="M60.868 71.85H48.591v-2.24H60.868v2.24zm-10.214-3.348h8.166v-8.166h-8.166v8.166zm9.275 0v-9.275H49.545v9.275h-2.063v4.457h14.495v-4.457h-2.048z"/>
        <path fill="#EEADCD" d="M96.758 72.404h13.386v-3.347H96.758z"/>
        <path fill="#000" d="M109.59 71.85H97.313v-2.24h12.277v2.24zm-10.221-3.348h8.166v-8.166h-8.166v8.166zm9.274 0v-9.275H98.259v9.275h-2.055v4.457h14.495v-4.457h-2.056z"/>
        <path fill="#DAA725" d="M79.266 11.2v6.727l9.962-3.363z"/>
        <path fill="#EF5722" d="M45.294 54.51h18.672V43.5H45.294zM94.568 54.51h18.672V43.5H94.568z"/>
        <path fill="#000" d="M112.685 80.89H94.568V55.066h18.117V80.89zm-66.836 0V55.066h18.117V80.89H45.849zm0-26.934h18.117v-9.901H45.849v9.9zm47.609 23.53h-2.236v-3.404h-6.145V61.566c0-.982-.42-4.185-5.81-4.185-3.855 0-5.81 1.408-5.81 4.185v12.516H67.31v3.405h-2.236V40.623h28.383v36.864zm-2.236 1.11h2.236v2.295H65.075v-2.295H91.22zm-16.656-4.88v-12.15c0-.92 0-3.076 4.7-3.076 4.243 0 4.7 2.15 4.7 3.076v12.15h-9.4zm-6.145 3.77h21.692v-2.294H68.42v2.295zM62.87 39.339l16.397-14.723 16.396 14.723H62.87zm31.698 14.618h18.117v-9.901H94.568v9.9zM79.82 11.974l7.674 2.59-7.674 2.59v-5.18zm14.747 30.972v-2.5h3.99L79.822 23.623v-5.296l11.14-3.762-12.25-4.136V23.622L59.976 40.447h3.99v2.499H44.74V82h69.055V42.946H94.568z"/>
        <path fill="#EF5722" d="M232.72 106.61V92.068h-29.493v14.542h-19.226v26.835h67.945V106.61z"/>
        <path fill="#DAA725" d="M200.13 91.892h35.688L217.974 75.87z"/>
        <path fill="#A1D29D" d="M229.374 130.041v-3.404h-22.8v3.404h-3.347v3.404h29.493v-3.404z"/>
        <path fill="#DAA725" d="M223.23 113.566c0-1.136-.588-3.63-5.256-3.63-4.669 0-5.256 2.063-5.256 3.63v12.706h10.511v-12.706z"/>
        <path fill="#EEADCD" d="M223.862 100.18a5.889 5.889 0 1 1-11.777.001 5.889 5.889 0 0 1 11.777 0"/>
        <path fill="#000" d="M217.974 105.515a5.34 5.34 0 0 1-5.334-5.334 5.34 5.34 0 0 1 4.779-5.304v4.75h-3.03v1.109h4.352v-1.11h-.212v-4.75a5.34 5.34 0 0 1 4.779 5.305 5.34 5.34 0 0 1-5.334 5.334m0-11.777a6.45 6.45 0 0 0-6.443 6.443 6.45 6.45 0 0 0 6.443 6.443 6.45 6.45 0 0 0 6.443-6.443 6.45 6.45 0 0 0-6.443-6.443"/>
        <path fill="#EEADCD" d="M188.807 121.057h9.275v-9.275h-9.275zM237.522 121.057h9.274v-9.275h-9.274z"/>
        <path fill="#A1D29D" d="M186.744 124.404h13.386v-3.347h-13.386z"/>
        <path fill="#000" d="M199.576 123.85h-12.278v-2.24h12.278v2.24zm-10.214-3.348h8.166v-8.166h-8.166v8.166zm9.275 0v-9.275h-10.385v9.275h-2.063v4.457h14.496v-4.457h-2.048z"/>
        <path fill="#A1D29D" d="M235.465 124.404h13.386v-3.347h-13.386z"/>
        <path fill="#000" d="M248.297 123.85H236.02v-2.24h12.277v2.24zm-10.22-3.348h8.164v-8.166h-8.165v8.166zm9.273 0v-9.275h-10.384v9.275h-2.055v4.457h14.495v-4.457h-2.056z"/>
        <path fill="#EEADCD" d="M217.974 63.2v6.727l9.962-3.363z"/>
        <path fill="#DAA725" d="M184.001 106.51h18.672V95.5h-18.672zM233.275 106.51h18.672V95.5h-18.672z"/>
        <path fill="#000" d="M251.392 132.89h-18.118v-25.825h18.118v25.826zm-66.836 0v-25.825h18.117v25.826h-18.117zm0-26.934h18.117v-9.901h-18.117v9.9zm47.61 23.53h-2.237v-3.404h-6.145v-12.516c0-.982-.419-4.185-5.81-4.185-3.855 0-5.81 1.408-5.81 4.185v12.516h-6.146v3.405h-2.236V92.623h28.383v36.864zm-2.237 1.11h2.236v2.295h-28.383v-2.295H229.93zm-16.656-4.88v-12.15c0-.92 0-3.076 4.701-3.076 4.242 0 4.7 2.15 4.7 3.076v12.15h-9.4zm-6.145 3.77h21.692v-2.294h-21.692v2.295zm-5.55-38.148l16.396-14.723 16.396 14.723h-32.793zm31.696 14.618h18.118v-9.901h-18.118v9.9zm-14.746-41.982l7.674 2.59-7.674 2.59v-5.18zm14.746 30.972v-2.5h3.992l-18.738-16.824v-5.296l11.141-3.762-12.25-4.136V75.622l-18.737 16.825h3.991v2.499h-19.227V134h69.055V94.946h-19.227z"/>
        <path fill="#DBA827" d="M266.727 140.5a4.807 4.807 0 1 0-9.614 0h9.614z"/>
        <path fill="#EFAECE" d="M17.727 103.5a4.807 4.807 0 1 0-9.614 0h9.614z"/>
        <path fill="#A2D39F" d="M296.603 22.5c.79-.286 2.71-1.003 2.71-1.801s-2.422-1.108-2.71-1.802c-.298-.719 1.184-2.648.642-3.19-.541-.542-2.472.94-3.191.642-.693-.288-1.003-2.71-1.801-2.71-.797 0-1.108 2.422-1.801 2.71-.72.298-2.65-1.184-3.191-.642-.542.542.94 2.471.642 3.19-.288.694-2.71 1.004-2.71 1.802s1.92 1.515 2.71 1.801h8.7z"/>
        <path fill="#EF5722" d="M52.603 19.5c.79-.286 2.71-1.003 2.71-1.801s-2.422-1.108-2.71-1.802c-.298-.719 1.184-2.648.642-3.19-.541-.542-2.472.94-3.191.642-.693-.288-1.003-2.71-1.801-2.71-.797 0-1.108 2.422-1.801 2.71-.72.298-2.65-1.184-3.191-.642-.542.542.94 2.471.642 3.19-.288.694-2.71 1.004-2.71 1.802s1.92 1.515 2.71 1.801h8.7z"/>
        <path fill="#000" d="M183.05 81.48h1.024V35.873h-1.024z"/>
        <path fill="#DBA827" d="M201.212 65.642c-.78-.427-1.738-.662-2.7-.662-1.072 0-2.083.297-2.844.836-.57.403-.98.855-1.34 1.254-.632.698-1.013 1.12-1.971 1.12l-.29-.004c-2.232 0-4.321.78-6 1.406-.968.361-1.882.702-2.38.702a.873.873 0 0 1-.073-.003c-.978-.095-1.505-.386-2.235-.789-.475-.262-1.013-.559-1.74-.83-1.05-.393-2.004-.447-2.88-.447-.215 0-.431.003-.647.007-.21.003-.418.007-.63.007a9.59 9.59 0 0 1-1.181-.06c-.71-.088-1.138-.526-1.778-1.235-.571-.632-1.218-1.348-2.247-1.68-.497-.163-1.333-.27-2.081-.27-2.573 0-2.9 1.252-2.92 1.791-.072 1.874 2.894 3.873 4.176 4.141.21.044.424.065.655.065.398 0 .765-.063 1.119-.124.297-.05.576-.099.827-.099.106 0 .2.008.288.026.59.115 1.058.568 1.565 1.103 1.06 1.12 2.517 2.481 4.372 3.087.966.316 4.027.34 4.943.34 1.119 0 4.859-.036 5.987-.494 1.447-.587 2.453-1.554 3.426-2.488.304-.29.609-.585.933-.87.566-.5.99-.678 1.62-.678.089 0 .18.003.277.011.203.014.393.037.576.06.302.034.614.071.938.071.569 0 1.067-.115 1.567-.362.205-.1 3.273-2.292 3.306-3.828a1.212 1.212 0 0 0-.638-1.104"/>
        <path fill="#DBA827" d="M171.222 63.937c.256.062.531.091.84.091.236 0 .474-.018.71-.037.192-.014.385-.032.576-.032.164 0 .297.013.417.04.464.105.872.562 1.285 1.063.928 1.129 2.206 2.504 3.849 3.121.846.318 3.335.352 4.365.352 1.261 0 4.298-.05 5.286-.51 1.281-.6 2.162-1.574 3.014-2.516.263-.29.529-.584.809-.868.526-.535.859-.636 1.288-.636.071 0 .145.004.224.01.317.026.566.038.8.038.85 0 1.543-.17 2.184-.533.308-.176 2.674-2.167 2.706-3.547.01-.456-.2-.855-.577-1.093a4.639 4.639 0 0 0-2.445-.689c-.977 0-1.895.31-2.585.871-.502.41-.86.864-1.175 1.266-.587.743-.875 1.072-1.59 1.072l-.25-.002c-1.983 0-3.819.787-5.292 1.42-.786.338-1.596.686-2.026.686h-.004c-.805-.09-1.25-.372-1.865-.764-.417-.265-.89-.565-1.534-.842-.946-.407-1.835-.462-2.582-.462-.189 0-.376.004-.567.008-.178.002-.36.006-.541.006-.4 0-.708-.018-.998-.059-.553-.078-.912-.502-1.45-1.19-.504-.64-1.073-1.367-2.005-1.715-.452-.168-1.207-.281-1.879-.281-2.404 0-2.637 1.375-2.65 1.796-.063 1.855 2.544 3.668 3.662 3.936"/>
        <path fill="#DBA827" d="M173.005 56.944c.46.13.912.148 1.312.165.323.013.63.026.886.094.337.09.683.552 1.008 1.016.795 1.137 1.891 2.523 3.32 3.156.728.323 2.692.372 3.798.372 1.351 0 3.745-.07 4.594-.538 1.112-.612 1.866-1.594 2.595-2.542.223-.29.447-.583.685-.868.451-.539.698-.583.953-.583.053 0 .108.003.165.01.114.01.231.016.351.016.862 0 1.815-.294 2.55-.787.346-.232 2.07-2.004 2.098-3.24.011-.449-.17-.834-.509-1.086a3.712 3.712 0 0 0-2.2-.727 3.34 3.34 0 0 0-2.33.918c-.43.414-.736.87-1.005 1.273-.514.77-.72 1.018-1.207 1.018l-.213-.003c-1.739 0-3.322.801-4.595 1.444-.584.296-1.312.664-1.59.664-.628-.082-.972-.338-1.49-.727-.36-.268-.767-.573-1.326-.857-.844-.427-1.632-.485-2.292-.485-.162 0-.324.004-.487.007-.15.003-.302.007-.455.007-.325 0-.575-.017-.807-.055-.389-.064-.686-.474-1.129-1.139-.433-.65-.925-1.388-1.753-1.752-.409-.179-1.087-.3-1.687-.3-1.719 0-2.357.93-2.382 1.801-.053 1.86 2.18 3.456 3.142 3.728"/>
        <path fill="#DBA827" d="M174.763 49.946c.357.123.717.196 1.065.267.285.058.554.113.789.19.233.074.591.697.744.963.658 1.145 1.569 2.542 2.774 3.191.616.332 2.105.401 3.246.401s3.167-.075 3.916-.576c.937-.627 1.56-1.614 2.163-2.569.183-.289.367-.582.563-.867.356-.518.507-.518.616-.518.033 0 .067.002.102.006.074.01.151.014.231.014.846 0 1.949-.539 2.602-1.07.348-.285 1.457-1.806 1.484-2.895.015-.563-.229-.903-.436-1.09a2.941 2.941 0 0 0-1.965-.779c-.8 0-1.539.348-2.08.98-.357.415-.607.872-.829 1.274-.405.74-.563.954-.85.954l-.15-.002c-1.505 0-2.839.82-3.91 1.48-.405.25-.955.587-1.166.625-.406-.073-.64-.273-1.078-.67-.3-.274-.641-.583-1.114-.876-.744-.458-1.437-.52-2.018-.52-.136 0-.271.003-.407.007-.122.003-.244.007-.367.007a2.94 2.94 0 0 1-.609-.05c-.252-.05-.565-.622-.816-1.08-.36-.658-.769-1.403-1.486-1.787-.375-.2-.967-.329-1.509-.329-1.258 0-2.087.71-2.112 1.805-.041 1.73 1.649 3.185 2.607 3.514"/>
        <path fill="#DBA827" d="M176.495 42.937l.273.12c.406.178.86.378 1.213.521.161.111.436.723.527.924.55 1.22 1.242 2.555 2.207 3.218.434.299 1.346.45 2.712.45 1.145 0 2.638-.11 3.255-.638.75-.64 1.24-1.628 1.712-2.585.144-.29.29-.585.442-.869.192-.355.296-.437.31-.437v.002c.063.008.131.014.202.014.877 0 2.136-.914 2.584-1.381.322-.336 1.436-2.525.505-3.597-.478-.55-1.095-.854-1.739-.854-.724 0-1.375.377-1.834 1.06-.279.416-.474.87-.647 1.27-.129.301-.347.806-.45.88a2.95 2.95 0 0 0-.133-.003c-1.287 0-2.418.888-3.244 1.536-.248.195-.575.452-.754.549-.18-.075-.336-.24-.626-.576-.239-.277-.51-.591-.893-.893-.65-.513-1.283-.578-1.762-.578-.11 0-.22.004-.33.008a6.269 6.269 0 0 1-.276.006c-.166 0-.288-.013-.36-.026-.158-.102-.407-.682-.556-1.03-.297-.691-.605-1.407-1.197-1.811-.337-.23-.867-.378-1.35-.378-1.084 0-1.825.727-1.844 1.809-.03 1.616 1.207 2.917 2.053 3.288"/>
        <path fill="#DBA827" d="M178.162 35.9c.111.067.293.212.455.34.215.172.438.35.651.478.121.172.301.721.361.908.562 1.72 1.043 2.682 1.61 3.22.373.354 1.115.535 2.205.535.905 0 2.094-.128 2.61-.736.546-.645.882-1.584 1.24-2.578.104-.293.21-.587.321-.874.061-.156.11-.259.145-.327.872-.039 2.215-1.303 2.51-1.726.355-.51.472-2.324-.042-3.142-.39-.62-.929-.962-1.52-.962-.307 0-1.075.114-1.587 1.165-.198.407-.337.854-.46 1.25-.079.251-.189.605-.28.794-.748.043-1.385.52-1.913 1.03.197-1.028.953-1.806 1.29-2.77.783-2.244.021-6.509-1.913-6.509-1.899 0-2.878 4.575-2.778 5.423.148 1.246.74 2.156 1.15 3.112a1.968 1.968 0 0 0-.998-.25c-.086 0-.173.004-.26.008-.059.003-.119.007-.179.007a.99.99 0 0 1-.059-.002c-.115-.202-.26-.673-.353-.97-.223-.716-.434-1.394-.878-1.812-.299-.28-.777-.463-1.219-.463-.715 0-1.556.476-1.574 1.814-.019 1.466.746 2.602 1.465 3.037"/>
        <path fill="#000" d="M131.488 58.437h-1.024l.002-50.701h1.023z"/>
        <path fill="#EFAECE" d="M132.948 18.299c-.721 0-1.29-.235-1.705-.407-.084-.035-.191-.08-.266-.106a5.861 5.861 0 0 0-.266.106c-.415.172-.984.407-1.704.407-2.817 0-5.223-2.09-5.597-4.862a1.789 1.789 0 0 1 3.544-.48c.135 1 1.005 1.755 2.03 1.766.07-.016.236-.085.358-.135.4-.166.95-.393 1.635-.393s1.234.227 1.635.393c.122.05.287.119.358.135 1.025-.011 1.895-.766 2.03-1.765a1.788 1.788 0 1 1 3.544.479c-.374 2.772-2.78 4.862-5.596 4.862"/>
        <path fill="#EFAECE" d="M133.542 24.917c-.83 0-1.514-.283-2.012-.489-.185-.076-.464-.192-.559-.199-.084.007-.364.123-.548.199-.499.206-1.18.489-2.012.489-3.154 0-5.947-2.215-6.64-5.267a1.789 1.789 0 0 1 3.486-.794c.327 1.44 1.654 2.485 3.154 2.485.12 0 .41-.12.644-.217.507-.21 1.137-.471 1.922-.471.784 0 1.415.261 1.921.471.234.097.524.217.644.217 1.5 0 2.826-1.045 3.154-2.485a1.79 1.79 0 0 1 3.487.794c-.695 3.052-3.488 5.267-6.64 5.267"/>
        <path fill="#EFAECE" d="M134.137 31.535c-.94 0-1.706-.316-2.32-.57-.313-.13-.668-.278-.84-.278-.173 0-.528.147-.84.277-.615.255-1.38.571-2.322.571-3.53 0-6.69-2.353-7.684-5.72a1.788 1.788 0 0 1 3.43-1.012c.548 1.858 2.298 3.156 4.254 3.156.232 0 .582-.145.953-.299.59-.245 1.326-.549 2.208-.549.885 0 1.62.304 2.21.55.37.153.721.298.951.298 1.958 0 3.708-1.298 4.256-3.156a1.788 1.788 0 1 1 3.43 1.012c-.995 3.367-4.155 5.72-7.686 5.72"/>
        <path fill="#EFAECE" d="M134.733 38.153c-1.052 0-1.926-.362-2.628-.653-.44-.182-.856-.355-1.128-.355-.272 0-.687.173-1.128.355-.702.291-1.576.653-2.628.653a9.243 9.243 0 0 1-8.733-6.204 1.789 1.789 0 0 1 3.379-1.17 5.665 5.665 0 0 0 5.354 3.798c.34 0 .766-.177 1.26-.38.674-.28 1.513-.628 2.496-.628.983 0 1.822.348 2.496.627.493.204.919.381 1.26.381a5.665 5.665 0 0 0 5.354-3.799 1.787 1.787 0 1 1 3.378 1.171 9.241 9.241 0 0 1-8.732 6.204"/>
        <path fill="#EFAECE" d="M135.327 44.771c-1.161 0-2.145-.407-2.935-.735-.537-.222-1.043-.432-1.416-.432-.37 0-.877.21-1.415.432-.79.328-1.774.735-2.936.735-4.299 0-8.23-2.695-9.782-6.706a1.788 1.788 0 0 1 3.334-1.291 6.958 6.958 0 0 0 6.448 4.421c.451 0 .97-.215 1.569-.463.797-.33 1.7-.704 2.782-.704 1.083 0 1.987.374 2.784.704.6.248 1.117.463 1.567.463a6.96 6.96 0 0 0 6.45-4.421 1.79 1.79 0 0 1 3.335 1.291c-1.553 4.011-5.484 6.706-9.785 6.706M135.104 5.354c-.988 0-1.788.8-1.788 1.787 0 .5-.383.912-.871.96a1.991 1.991 0 0 0-.062-.026V2.907a1.407 1.407 0 1 0-2.813 0v5.168l-.061.026a.965.965 0 0 1-.871-.96 1.788 1.788 0 1 0-3.576 0 4.545 4.545 0 0 0 4.539 4.54c.417 0 .765-.092 1.046-.191.107.025.216.043.33.043.114 0 .223-.018.329-.043a3.1 3.1 0 0 0 1.047.191 4.545 4.545 0 0 0 4.539-4.54c0-.987-.801-1.787-1.788-1.787"/>
        <path fill="#A2D39F" d="M46.45 70.01c0 7.366-5.97 13.336-13.336 13.336-7.364 0-13.334-5.97-13.334-13.335 0-7.365 5.97-13.335 13.334-13.335 7.366 0 13.336 5.97 13.336 13.335"/>
        <path fill="#000" d="M43.3 69.249h-1.024c0 1.349-.98 2.468-2.265 2.696a6.99 6.99 0 0 0 .032-.634v-2.93h-1.024v2.93a5.9 5.9 0 0 1-.034.626 2.747 2.747 0 0 1-2.2-2.688h-1.023a3.775 3.775 0 0 0 3.022 3.694 5.908 5.908 0 0 1-5.157 4.246V66.436a2.505 2.505 0 0 0 1.99-2.45h-1.024c0 .636-.404 1.173-.966 1.383V62.78h-1.024v2.587a1.476 1.476 0 0 1-.967-1.381h-1.024c0 1.205.855 2.211 1.99 2.449v10.752a5.909 5.909 0 0 1-5.157-4.246 3.775 3.775 0 0 0 3.022-3.693h-1.024a2.747 2.747 0 0 1-2.198 2.689 5.899 5.899 0 0 1-.035-.627v-2.93h-1.024v2.93c0 .213.013.424.032.633a2.745 2.745 0 0 1-2.265-2.695h-1.024a3.771 3.771 0 0 0 3.475 3.754 6.933 6.933 0 0 0 6.199 5.21v17.71h1.024v-17.71a6.933 6.933 0 0 0 6.198-5.21 3.771 3.771 0 0 0 3.475-3.754"/>
        <path fill="#FFF" d="M278 141.425h5v-81h-5z"/>
        <path fill="#EF5722" d="M283 135.925l-.707-.707L278 139.51v1.914h.914l4.086-4.086zM283 129.839v-1.414l-.707-.707L278 132.01v2.414l.207.207zM283 122.339v-1.414l-.707-.707L278 124.51v2.414l.207.207zM283 114.839v-1.414l-.707-.707L278 117.01v2.414l.207.207zM283 107.339v-1.414l-.707-.707L278 109.51v2.414l.207.207zM283 99.839v-1.414l-.707-.707L278 102.01v2.414l.207.207zM283 92.339v-1.414l-.707-.707L278 94.51v2.414l.207.207zM283 84.839v-1.414l-.707-.707L278 87.01v2.414l.207.207zM283 77.339v-1.414l-.707-.707L278 79.51v2.414l.207.207zM283 69.839v-1.414l-.707-.707L278 72.01v2.414l.207.207zM283 62.339v-1.414l-.5-.5h-.414L278 64.51v2.414l.207.207z"/>
        <path fill="#000" d="M278.576 140.85h3.85V61h-3.85v79.85zm-1.15 1.15h6.15V59.85h-6.15V142z"/>
        <path fill="#EF5722" d="M284.5 59.925a4 4 0 1 1-8 0 4 4 0 0 1 8 0"/>
        <path stroke="#000" stroke-width="1.151" d="M284.5 59.925a4 4 0 1 1-8 0 4 4 0 0 1 8 0z"/>
        <path fill="#000" d="M308.5 96.898c0-15.464-12.536-28-28-28s-28 12.536-28 28h56z"/>
        <path fill="#000" d="M248 112.425h65V77.511h-65z"/>
        <path stroke="#000" stroke-width=".88" d="M248 112.425h65V77.511h-65z"/>
        <path fill="#FFF" d="M263.268 82.013h1.536v7.032h3.456v1.368h-4.992v-8.4zm6 0h5.376V83.5h-3.804v1.788h2.952v1.488h-2.952v2.148h3.924v1.488h-5.496v-8.4zm11.172 6.408h-3.06l-.696 1.992h-1.488l2.988-8.4h1.452l2.988 8.4h-1.488l-.696-1.992zm-.48-1.344l-1.044-3-1.056 3h2.1zm3.624-5.064h3.072c.896 0 1.602.214 2.118.642.516.428.774 1.062.774 1.902 0 .584-.124 1.062-.372 1.434-.248.372-.6.67-1.056.894l1.896 3.528H288.3l-1.62-3.12h-1.56v3.12h-1.536v-8.4zm2.664 3.996c1.128 0 1.692-.456 1.692-1.368 0-.44-.128-.774-.384-1.002-.256-.228-.672-.342-1.248-.342h-1.188v2.712h1.128zm4.848-3.996h1.512l3.588 5.424v-5.424h1.536v8.4h-1.26l-3.84-5.76v5.76h-1.536v-8.4zM257.244 96.413h5.376V97.9h-3.804v1.788h2.952v1.488h-2.952v2.148h3.924v1.488h-5.496v-8.4zm6.816 0h1.512l3.588 5.424v-5.424h1.536v8.4h-1.26l-3.84-5.76v5.76h-1.536v-8.4zm9.942 8.028a3.59 3.59 0 0 1-1.458-1.53c-.336-.66-.504-1.43-.504-2.31 0-.864.186-1.626.558-2.286.372-.66.89-1.17 1.554-1.53.664-.36 1.424-.54 2.28-.54.432 0 .852.044 1.26.132.408.088.76.208 1.056.36l-.168 1.464a5.09 5.09 0 0 0-2.148-.48c-.896 0-1.572.262-2.028.786-.456.524-.684 1.214-.684 2.07 0 .888.224 1.598.672 2.13.448.532 1.096.798 1.944.798.344 0 .728-.044 1.152-.132v-1.5h-1.152V100.6h2.688v3.744c-.312.184-.71.336-1.194.456s-1.002.18-1.554.18c-.88 0-1.638-.18-2.274-.54zm6.51-8.028h1.536v7.032h3.456v1.368h-4.992v-8.4zm6 0h1.536v8.4h-1.536v-8.4zm4.302 8.376c-.54-.128-.962-.268-1.266-.42l.18-1.632c1.056.512 1.984.768 2.784.768.424 0 .756-.082.996-.246.24-.164.36-.406.36-.726a.888.888 0 0 0-.198-.594 1.532 1.532 0 0 0-.57-.396 19.79 19.79 0 0 0-1.188-.45 7.192 7.192 0 0 1-1.272-.558 2.3 2.3 0 0 1-.798-.756c-.196-.308-.294-.686-.294-1.134 0-.72.264-1.3.792-1.74.528-.44 1.284-.66 2.268-.66.464 0 .926.052 1.386.156.46.104.882.232 1.266.384l-.156 1.572a9.465 9.465 0 0 0-1.362-.486 4.834 4.834 0 0 0-1.23-.162c-.456 0-.804.076-1.044.228a.735.735 0 0 0-.36.66.8.8 0 0 0 .192.552c.128.144.302.264.522.36.22.096.546.212.978.348.968.304 1.674.654 2.118 1.05.444.396.666.938.666 1.626 0 .656-.228 1.228-.684 1.716-.456.488-1.312.732-2.568.732a6.6 6.6 0 0 1-1.518-.192zm6.042-8.376h1.536v3.324h3.84v-3.324h1.536v8.4h-1.536v-3.636h-3.84v3.636h-1.536v-8.4z"/>
    </g>
</svg>
