<?xml version="1.0" encoding="UTF-8"?>
<svg width="320px" height="150px" viewBox="0 0 320 150" version="1.1" xmlns="http://www.w3.org/2000/svg" xmlns:xlink="http://www.w3.org/1999/xlink">
    <!-- Generator: sketchtool 50.2 (55047) - http://www.bohemiancoding.com/sketch -->
    <title>AF94B5B4-C823-4179-9FC3-22EDEC28B65F</title>
    <desc>Created with sketchtool.</desc>
    <defs>
        <polygon id="path-1" points="0 150 320 150 320 0 0 0"></polygon>
    </defs>
    <g id="home" stroke="none" stroke-width="1" fill="none" fill-rule="evenodd">
        <g id="home_mobile_collapse" transform="translate(0.000000, -181.000000)">
            <g id="learnenglish-copy" transform="translate(0.000000, 181.000000)">
                <polygon id="Fill-1" fill="#E0E0E0" points="0 150 320 150 320 0 0 0"></polygon>
                <g id="Group-191">
                    <path d="M198.5,98 C198.5,94.027 195.408,90.784 191.5,90.525 L191.5,90.5 L105.5,90.5 C101.358,90.5 98,93.858 98,98 C98,102.142 101.358,105.5 105.5,105.5 L191.5,105.5 L191.5,105.475 C195.408,105.216 198.5,101.973 198.5,98" id="Fill-2" fill="#000000"></path>
                    <path d="M173.5,128 C173.5,124.027 170.408,120.784 166.5,120.525 L166.5,120.5 L92.5,120.5 C88.358,120.5 85,123.858 85,128 C85,132.142 88.358,135.5 92.5,135.5 L166.5,135.5 L166.5,135.475 C170.408,135.216 173.5,131.973 173.5,128" id="Fill-4" fill="#000000"></path>
                    <path d="M187.5,68 C187.5,64.027 184.408,60.784 180.5,60.525 L180.5,60.5 L86.5,60.5 C82.358,60.5 79,63.858 79,68 C79,72.142 82.358,75.5 86.5,75.5 L180.5,75.5 L180.5,75.475 C184.408,75.216 187.5,71.973 187.5,68" id="Fill-6" fill="#000000"></path>
                    <path d="M150,113 C150,108.858 153.358,105.5 157.5,105.5 L106,105.5 C110.142,105.5 113.5,108.858 113.5,113 C113.5,117.142 110.142,120.5 106,120.5 L157.5,120.5 C153.358,120.5 150,117.142 150,113" id="Fill-8" fill="#000000"></path>
                    <path d="M170,83 C170,78.858 173.358,75.5 177.5,75.5 L116,75.5 C120.142,75.5 123.5,78.858 123.5,83 C123.5,87.142 120.142,90.5 116,90.5 L177.5,90.5 C173.358,90.5 170,87.142 170,83" id="Fill-10" fill="#000000"></path>
                    <path d="M120.5,96.5 C120.5,98.157 119.157,99.5 117.5,99.5 C115.843,99.5 114.5,98.157 114.5,96.5" id="Stroke-12" stroke="#FFFFFF"></path>
                    <path d="M126.5,96.5 C126.5,98.157 125.157,99.5 123.5,99.5 C121.843,99.5 120.5,98.157 120.5,96.5" id="Stroke-14" stroke="#FFFFFF"></path>
                    <path d="M132.5,96.5 C132.5,98.157 131.157,99.5 129.5,99.5 C127.843,99.5 126.5,98.157 126.5,96.5" id="Stroke-16" stroke="#FFFFFF"></path>
                    <path d="M138.5,96.5 C138.5,98.157 137.157,99.5 135.5,99.5 C133.843,99.5 132.5,98.157 132.5,96.5" id="Stroke-18" stroke="#FFFFFF"></path>
                    <path d="M146.5,66.5 C146.5,68.157 145.157,69.5 143.5,69.5 C141.843,69.5 140.5,68.157 140.5,66.5" id="Stroke-20" stroke="#FFFFFF"></path>
                    <path d="M152.5,66.5 C152.5,68.157 151.157,69.5 149.5,69.5 C147.843,69.5 146.5,68.157 146.5,66.5" id="Stroke-22" stroke="#FFFFFF"></path>
                    <path d="M158.5,66.5 C158.5,68.157 157.157,69.5 155.5,69.5 C153.843,69.5 152.5,68.157 152.5,66.5" id="Stroke-24" stroke="#FFFFFF"></path>
                    <path d="M107.5,66.5 C107.5,68.157 106.157,69.5 104.5,69.5 C102.843,69.5 101.5,68.157 101.5,66.5" id="Stroke-26" stroke="#FFFFFF"></path>
                    <path d="M113.5,66.5 C113.5,68.157 112.157,69.5 110.5,69.5 C108.843,69.5 107.5,68.157 107.5,66.5" id="Stroke-28" stroke="#FFFFFF"></path>
                    <path d="M119.5,66.5 C119.5,68.157 118.157,69.5 116.5,69.5 C114.843,69.5 113.5,68.157 113.5,66.5" id="Stroke-30" stroke="#FFFFFF"></path>
                    <path d="M143.5,82.5 C143.5,84.157 142.157,85.5 140.5,85.5 C138.843,85.5 137.5,84.157 137.5,82.5" id="Stroke-32" stroke="#FFFFFF"></path>
                    <path d="M149.5,82.5 C149.5,84.157 148.157,85.5 146.5,85.5 C144.843,85.5 143.5,84.157 143.5,82.5" id="Stroke-34" stroke="#FFFFFF"></path>
                    <path d="M177.5,96.5 C177.5,98.157 176.157,99.5 174.5,99.5 C172.843,99.5 171.5,98.157 171.5,96.5" id="Stroke-36" stroke="#FFFFFF"></path>
                    <path d="M171.5,96.5 C171.5,98.157 170.157,99.5 168.5,99.5 C166.843,99.5 165.5,98.157 165.5,96.5" id="Stroke-38" stroke="#FFFFFF"></path>
                    <path d="M183.5,96.5 C183.5,98.157 182.157,99.5 180.5,99.5 C178.843,99.5 177.5,98.157 177.5,96.5" id="Stroke-40" stroke="#FFFFFF"></path>
                    <path d="M130.5,112.5 C130.5,114.157 129.157,115.5 127.5,115.5 C125.843,115.5 124.5,114.157 124.5,112.5" id="Stroke-42" stroke="#FFFFFF"></path>
                    <path d="M136.5,112.5 C136.5,114.157 135.157,115.5 133.5,115.5 C131.843,115.5 130.5,114.157 130.5,112.5" id="Stroke-44" stroke="#FFFFFF"></path>
                    <path d="M103.5,126.5 C103.5,128.157 102.157,129.5 100.5,129.5 C98.843,129.5 97.5,128.157 97.5,126.5" id="Stroke-46" stroke="#FFFFFF"></path>
                    <path d="M109.5,126.5 C109.5,128.157 108.157,129.5 106.5,129.5 C104.843,129.5 103.5,128.157 103.5,126.5" id="Stroke-48" stroke="#FFFFFF"></path>
                    <path d="M115.5,126.5 C115.5,128.157 114.157,129.5 112.5,129.5 C110.843,129.5 109.5,128.157 109.5,126.5" id="Stroke-50" stroke="#FFFFFF"></path>
                    <path d="M150.5,126.5 C150.5,128.157 149.157,129.5 147.5,129.5 C145.843,129.5 144.5,128.157 144.5,126.5" id="Stroke-52" stroke="#FFFFFF"></path>
                    <path d="M156.5,126.5 C156.5,128.157 155.157,129.5 153.5,129.5 C151.843,129.5 150.5,128.157 150.5,126.5" id="Stroke-54" stroke="#FFFFFF"></path>
                    <path d="M8.5,150 C8.5,129.29 25.29,112.5 46,112.5 L101.5,112.5 L101.785,112.5 C109.398,105.663 119.462,101.5 130.5,101.5 C141.538,101.5 151.602,105.663 159.215,112.5 L159.5,112.5 L274,112.5 C294.71,112.5 311.5,95.71 311.5,75 C311.5,54.29 294.71,37.5 274,37.5 L46,37.5 C25.29,37.5 8.5,20.71 8.5,0" id="Stroke-56" stroke="#FFFFFF" stroke-width="10"></path>
                    <path d="M229.667,27.2598 C229.667,30.2678 225.342,32.9848 224.286,35.3578 C222.352,39.7008 220.773,43.2948 216.868,43.2948 C212.963,43.2948 211.384,39.7008 209.451,35.3578 C208.395,32.9848 204.069,30.2678 204.069,27.2598 C204.069,24.2518 208.395,21.5348 209.451,19.1628 C211.384,14.8198 212.963,11.2248 216.868,11.2248 C220.773,11.2248 222.352,14.8198 224.286,19.1628 C225.342,21.5348 229.667,24.2518 229.667,27.2598" id="Fill-58" fill="#A2D39F"></path>
                    <path d="M217.3804,18.6587 C218.2494,19.7617 219.5874,20.4767 221.0974,20.4767 L221.0974,19.4527 C219.0474,19.4527 217.3804,17.7857 217.3804,15.7367 L217.3804,15.5427 L216.3564,15.5427 C216.3564,17.5917 214.6894,19.2597 212.6394,19.2597 L212.6394,20.2837 C214.1484,20.2837 215.4874,19.5697 216.3564,18.4677 L216.3564,21.2887 C216.3564,23.3377 214.6894,25.0057 212.6394,25.0057 L212.6394,26.0297 C214.1484,26.0297 215.4874,25.3147 216.3564,24.2137 L216.3564,27.0337 C216.3564,29.0837 214.6894,30.7507 212.6394,30.7507 L212.6394,31.7757 C214.1484,31.7757 215.4874,31.0607 216.3564,29.9597 L216.3564,32.7807 C216.3564,34.8297 214.6894,36.4967 212.6394,36.4967 L212.6394,37.5217 C214.1484,37.5217 215.4874,36.8067 216.3564,35.7057 L216.3564,51.2077 L217.3804,51.2077 L217.3804,35.8967 C218.2494,36.9997 219.5874,37.7157 221.0974,37.7157 L221.0974,36.6907 C219.0474,36.6907 217.3804,35.0237 217.3804,32.9737 L217.3804,32.7807 L217.3804,30.1507 C218.2494,31.2537 219.5874,31.9697 221.0974,31.9697 L221.0974,30.9447 C219.0474,30.9447 217.3804,29.2777 217.3804,27.2277 L217.3804,27.0337 L217.3804,24.4047 C218.2494,25.5077 219.5874,26.2227 221.0974,26.2227 L221.0974,25.1987 C219.0474,25.1987 217.3804,23.5317 217.3804,21.4817 L217.3804,21.2887 L217.3804,18.6587 Z" id="Fill-60" fill="#221F1F"></path>
                    <path d="M87.1191,104.3652 C87.1191,107.3732 82.7941,110.0902 81.7381,112.4632 C79.8041,116.8062 78.2251,120.4002 74.3201,120.4002 C70.4151,120.4002 68.8361,116.8062 66.9031,112.4632 C65.8471,110.0902 61.5211,107.3732 61.5211,104.3652 C61.5211,101.3572 65.8471,98.6402 66.9031,96.2682 C68.8361,91.9242 70.4151,88.3302 74.3201,88.3302 C78.2251,88.3302 79.8041,91.9242 81.7381,96.2682 C82.7941,98.6402 87.1191,101.3572 87.1191,104.3652" id="Fill-62" fill="#DBA827"></path>
                    <path d="M74.8325,95.7642 C75.7015,96.8672 77.0395,97.5822 78.5495,97.5822 L78.5495,96.5582 C76.4995,96.5582 74.8325,94.8912 74.8325,92.8412 L74.8325,92.6472 L73.8085,92.6472 C73.8085,94.6972 72.1415,96.3642 70.0915,96.3642 L70.0915,97.3892 C71.6005,97.3892 72.9395,96.6742 73.8085,95.5732 L73.8085,98.3932 C73.8085,100.4432 72.1415,102.1102 70.0915,102.1102 L70.0915,103.1352 C71.6005,103.1352 72.9395,102.4202 73.8085,101.3192 L73.8085,104.1392 C73.8085,106.1892 72.1415,107.8562 70.0915,107.8562 L70.0915,108.8812 C71.6005,108.8812 72.9395,108.1662 73.8085,107.0652 L73.8085,109.8862 C73.8085,111.9352 72.1415,113.6022 70.0915,113.6022 L70.0915,114.6272 C71.6005,114.6272 72.9395,113.9122 73.8085,112.8112 L73.8085,128.3132 L74.8325,128.3132 L74.8325,113.0022 C75.7015,114.1042 77.0395,114.8202 78.5495,114.8202 L78.5495,113.7962 C76.4995,113.7962 74.8325,112.1292 74.8325,110.0792 L74.8325,109.8862 L74.8325,107.2562 C75.7015,108.3582 77.0395,109.0752 78.5495,109.0752 L78.5495,108.0502 C76.4995,108.0502 74.8325,106.3832 74.8325,104.3332 L74.8325,104.1392 L74.8325,101.5102 C75.7015,102.6132 77.0395,103.3282 78.5495,103.3282 L78.5495,102.3042 C76.4995,102.3042 74.8325,100.6372 74.8325,98.5872 L74.8325,98.3932 L74.8325,95.7642 Z" id="Fill-64" fill="#221F1F"></path>
                    <path d="M269.0254,36.1621 C269.0254,33.6821 265.7124,32.4251 265.7124,30.1201 C265.7124,27.5371 269.3324,26.0141 268.9664,23.1631 C268.5284,19.7501 265.5424,17.0141 261.8474,16.6371 C256.9614,16.1381 252.8254,19.6621 252.8254,24.0791 C252.8254,26.5601 256.1384,27.8171 256.1384,30.1201 C256.1384,32.4251 252.8254,33.6821 252.8254,36.1621 C252.8254,38.6421 256.1384,39.8991 256.1384,42.2041 C256.1384,44.7871 252.5184,46.3101 252.8844,49.1611 C253.3224,52.5741 256.3084,55.3101 260.0034,55.6871 C264.8894,56.1861 269.0254,52.6621 269.0254,48.2451 C269.0254,45.7641 265.7124,44.5071 265.7124,42.2041 C265.7124,39.8991 269.0254,38.6421 269.0254,36.1621" id="Fill-66" fill="#EF5722"></path>
                    <path d="M263.5684,24.6343 C264.1164,24.1963 264.5904,23.8173 265.5724,23.8173 L265.5724,22.7933 C264.2314,22.7933 263.5394,23.3463 262.9294,23.8353 C262.4864,24.1883 262.0884,24.4993 261.4374,24.6083 L261.4374,20.4703 L260.4134,20.4703 L260.4134,24.6083 C259.7614,24.4993 259.3634,24.1883 258.9214,23.8353 C258.3114,23.3463 257.6194,22.7933 256.2774,22.7933 L256.2774,23.8173 C257.2594,23.8173 257.7334,24.1963 258.2814,24.6343 C258.8084,25.0563 259.3994,25.5243 260.4134,25.6453 L260.4134,30.9603 C259.7614,30.8513 259.3634,30.5403 258.9214,30.1873 C258.3114,29.6983 257.6194,29.1453 256.2774,29.1453 L256.2774,30.1693 C257.2594,30.1693 257.7334,30.5483 258.2814,30.9863 C258.8084,31.4083 259.3994,31.8763 260.4134,31.9973 L260.4134,37.3123 C259.7614,37.2033 259.3634,36.8923 258.9214,36.5393 C258.3114,36.0513 257.6194,35.4973 256.2774,35.4973 L256.2774,36.5213 C257.2594,36.5213 257.7334,36.9003 258.2814,37.3383 C258.8084,37.7603 259.3994,38.2283 260.4134,38.3493 L260.4134,43.6643 C259.7614,43.5563 259.3634,43.2443 258.9214,42.8913 C258.3114,42.4033 257.6194,41.8493 256.2774,41.8493 L256.2774,42.8733 C257.2594,42.8733 257.7334,43.2523 258.2814,43.6903 C258.8084,44.1123 259.3994,44.5813 260.4134,44.7013 L260.4134,50.0163 C259.7614,49.9083 259.3634,49.5963 258.9214,49.2433 C258.3114,48.7553 257.6194,48.2013 256.2774,48.2013 L256.2774,49.2253 C257.2594,49.2253 257.7334,49.6043 258.2814,50.0433 C258.8084,50.4643 259.3994,50.9333 260.4134,51.0533 L260.4134,64.9613 L261.4374,64.9613 L261.4374,51.0533 C262.4514,50.9333 263.0414,50.4643 263.5684,50.0433 C264.1164,49.6043 264.5904,49.2253 265.5724,49.2253 L265.5724,48.2013 C264.2314,48.2013 263.5394,48.7553 262.9294,49.2433 C262.4864,49.5963 262.0884,49.9073 261.4374,50.0163 L261.4374,44.7013 C262.4514,44.5813 263.0414,44.1123 263.5684,43.6903 C264.1164,43.2523 264.5904,42.8733 265.5724,42.8733 L265.5724,41.8493 C264.2314,41.8493 263.5394,42.4033 262.9294,42.8913 C262.4864,43.2443 262.0884,43.5553 261.4374,43.6643 L261.4374,38.3493 C262.4514,38.2283 263.0414,37.7603 263.5684,37.3383 C264.1164,36.9003 264.5904,36.5213 265.5724,36.5213 L265.5724,35.4973 C264.2314,35.4973 263.5394,36.0513 262.9294,36.5393 C262.4864,36.8923 262.0884,37.2033 261.4374,37.3123 L261.4374,31.9973 C262.4514,31.8763 263.0414,31.4083 263.5684,30.9863 C264.1164,30.5483 264.5904,30.1693 265.5724,30.1693 L265.5724,29.1453 C264.2314,29.1453 263.5394,29.6983 262.9294,30.1873 C262.4864,30.5403 262.0884,30.8513 261.4374,30.9603 L261.4374,25.6453 C262.4514,25.5243 263.0414,25.0563 263.5684,24.6343" id="Fill-68" fill="#000000"></path>
                    <polyline id="Fill-70" fill="#EF5722" points="293.2031 57.7144 293.2031 80.4724 268.6101 80.4724 268.6101 57.7144"></polyline>
                    <polygon id="Fill-72" fill="#000000" points="293.7305 81 268.0825 81 268.0825 57.714 269.1375 57.714 269.1375 79.945 292.6755 79.945 292.6755 57.714 293.7305 57.714"></polygon>
                    <mask id="mask-2" fill="white">
                        <use xlink:href="#path-1"></use>
                    </mask>
                    <g id="Clip-75"></g>
                    <polygon id="Fill-74" fill="#DAA725" mask="url(#mask-2)" points="272.123 80.288 289.69 80.288 289.69 77.126 272.123 77.126"></polygon>
                    <path d="M272.65,79.76 L289.162,79.76 L289.162,77.653 L272.65,77.653 L272.65,79.76 Z M271.595,80.815 L290.217,80.815 L290.217,76.598 L271.595,76.598 L271.595,80.815 Z" id="Fill-76" fill="#000000" mask="url(#mask-2)"></path>
                    <polygon id="Fill-77" fill="#A1D29D" mask="url(#mask-2)" points="275.637 77.125 286.177 77.125 286.177 63.078 275.637 63.078"></polygon>
                    <path d="M276.164,76.598 L285.649,76.598 L285.649,63.606 L276.164,63.606 L276.164,76.598 Z M275.11,77.653 L286.704,77.653 L286.704,62.551 L275.11,62.551 L275.11,77.653 Z" id="Fill-78" fill="#000000" mask="url(#mask-2)"></path>
                    <polygon id="Fill-79" fill="#EEADCD" mask="url(#mask-2)" points="265.0967 57.7144 280.9067 43.6614 296.7167 57.7144"></polygon>
                    <path d="M266.4829,57.187 L295.3299,57.187 L280.9059,44.366 L266.4829,57.187 Z M298.1029,58.242 L263.7109,58.242 L280.9059,42.956 L298.1029,58.242 Z" id="Fill-80" fill="#000000" mask="url(#mask-2)"></path>
                    <polyline id="Fill-81" fill="#A1D29D" mask="url(#mask-2)" points="62.8096 110.7144 62.8096 133.4724 38.2166 133.4724 38.2166 110.7144"></polyline>
                    <polygon id="Fill-82" fill="#000000" mask="url(#mask-2)" points="63.3369 134 37.6889 134 37.6889 110.714 38.7439 110.714 38.7439 132.945 62.2819 132.945 62.2819 110.714 63.3369 110.714"></polygon>
                    <polygon id="Fill-83" fill="#EF5722" mask="url(#mask-2)" points="41.729 133.288 59.295 133.288 59.295 130.126 41.729 130.126"></polygon>
                    <path d="M42.257,132.76 L58.769,132.76 L58.769,130.653 L42.257,130.653 L42.257,132.76 Z M41.202,133.815 L59.823,133.815 L59.823,129.598 L41.202,129.598 L41.202,133.815 Z" id="Fill-84" fill="#000000" mask="url(#mask-2)"></path>
                    <polygon id="Fill-85" fill="#EEADCD" mask="url(#mask-2)" points="45.243 130.125 55.783 130.125 55.783 116.078 45.243 116.078"></polygon>
                    <path d="M45.77,129.598 L55.255,129.598 L55.255,116.606 L45.77,116.606 L45.77,129.598 Z M44.715,130.653 L56.31,130.653 L56.31,115.551 L44.715,115.551 L44.715,130.653 Z" id="Fill-86" fill="#000000" mask="url(#mask-2)"></path>
                    <polygon id="Fill-87" fill="#DAA725" mask="url(#mask-2)" points="34.7031 110.7144 50.5131 96.6614 66.3231 110.7144"></polygon>
                    <path d="M36.0894,110.187 L64.9364,110.187 L50.5124,97.366 L36.0894,110.187 Z M67.7094,111.242 L33.3174,111.242 L50.5124,95.956 L67.7094,111.242 Z" id="Fill-88" fill="#000000" mask="url(#mask-2)"></path>
                    <polyline id="Fill-89" fill="#DAA725" mask="url(#mask-2)" points="34.9146 58.7144 34.9146 81.4724 10.3216 81.4724 10.3216 58.7144"></polyline>
                    <polygon id="Fill-90" fill="#000000" mask="url(#mask-2)" points="35.4419 82 9.7939 82 9.7939 58.714 10.8489 58.714 10.8489 80.945 34.3869 80.945 34.3869 58.714 35.4419 58.714"></polygon>
                    <polygon id="Fill-91" fill="#EEADCD" mask="url(#mask-2)" points="13.834 81.288 31.401 81.288 31.401 78.126 13.834 78.126"></polygon>
                    <path d="M14.362,80.76 L30.874,80.76 L30.874,78.653 L14.362,78.653 L14.362,80.76 Z M13.307,81.815 L31.929,81.815 L31.929,77.598 L13.307,77.598 L13.307,81.815 Z" id="Fill-92" fill="#000000" mask="url(#mask-2)"></path>
                    <polygon id="Fill-93" fill="#A1D29D" mask="url(#mask-2)" points="17.348 78.125 27.888 78.125 27.888 64.078 17.348 64.078"></polygon>
                    <path d="M17.875,77.598 L27.36,77.598 L27.36,64.606 L17.875,64.606 L17.875,77.598 Z M16.821,78.653 L28.415,78.653 L28.415,63.551 L16.821,63.551 L16.821,78.653 Z" id="Fill-94" fill="#000000" mask="url(#mask-2)"></path>
                    <polygon id="Fill-95" fill="#EF5722" mask="url(#mask-2)" points="6.8081 58.7144 22.6181 44.6614 38.4281 58.7144"></polygon>
                    <path d="M8.1943,58.187 L37.0413,58.187 L22.6183,45.366 L8.1943,58.187 Z M39.8143,59.242 L5.4223,59.242 L22.6183,43.956 L39.8143,59.242 Z" id="Fill-96" fill="#000000" mask="url(#mask-2)"></path>
                    <polyline id="Fill-97" fill="#EEADCD" mask="url(#mask-2)" points="252.6191 57.7144 252.6191 80.4724 228.0261 80.4724 228.0261 57.7144"></polyline>
                    <polygon id="Fill-98" fill="#000000" mask="url(#mask-2)" points="253.1465 81 227.4985 81 227.4985 57.714 228.5535 57.714 228.5535 79.945 252.0915 79.945 252.0915 57.714 253.1465 57.714"></polygon>
                    <polygon id="Fill-99" fill="#EF5722" mask="url(#mask-2)" points="231.54 80.288 249.106 80.288 249.106 77.126 231.54 77.126"></polygon>
                    <path d="M232.067,79.76 L248.579,79.76 L248.579,77.653 L232.067,77.653 L232.067,79.76 Z M231.012,80.815 L249.633,80.815 L249.633,76.598 L231.012,76.598 L231.012,80.815 Z" id="Fill-100" fill="#000000" mask="url(#mask-2)"></path>
                    <polygon id="Fill-101" fill="#DAA725" mask="url(#mask-2)" points="235.053 77.125 245.593 77.125 245.593 63.078 235.053 63.078"></polygon>
                    <path d="M235.58,76.598 L245.065,76.598 L245.065,63.606 L235.58,63.606 L235.58,76.598 Z M234.525,77.653 L246.12,77.653 L246.12,62.551 L234.525,62.551 L234.525,77.653 Z" id="Fill-102" fill="#000000" mask="url(#mask-2)"></path>
                    <polygon id="Fill-103" fill="#A1D29D" mask="url(#mask-2)" points="224.5127 57.7144 240.3227 43.6614 256.1327 57.7144"></polygon>
                    <path d="M225.8989,57.187 L254.7459,57.187 L240.3229,44.366 L225.8989,57.187 Z M257.5189,58.242 L223.1269,58.242 L240.3229,42.956 L257.5189,58.242 Z" id="Fill-104" fill="#000000" mask="url(#mask-2)"></path>
                    <polygon id="Fill-105" fill="#A1D29D" mask="url(#mask-2)" points="94.0132 54.6099 94.0132 40.0679 64.5202 40.0679 64.5202 54.6099 45.2942 54.6099 45.2942 81.4449 64.5202 81.4449 94.0132 81.4449 113.2392 81.4449 113.2392 54.6099"></polygon>
                    <polygon id="Fill-106" fill="#EF5722" mask="url(#mask-2)" points="61.4224 39.8921 97.1104 39.8921 79.2664 23.8691"></polygon>
                    <polygon id="Fill-107" fill="#EEADCD" mask="url(#mask-2)" points="90.667 78.041 90.667 74.637 67.866 74.637 67.866 78.041 64.52 78.041 64.52 81.445 94.013 81.445 94.013 78.041"></polygon>
                    <path d="M84.522,61.5659 C84.522,60.4299 83.935,57.9359 79.267,57.9359 C74.598,57.9359 74.011,59.9989 74.011,61.5659 L74.011,74.2719 L84.522,74.2719 L84.522,61.5659 Z" id="Fill-108" fill="#EF5722" mask="url(#mask-2)"></path>
                    <path d="M85.1548,48.1807 C85.1548,51.4327 82.5188,54.0697 79.2668,54.0697 C76.0148,54.0697 73.3788,51.4327 73.3788,48.1807 C73.3788,44.9287 76.0148,42.2927 79.2668,42.2927 C82.5188,42.2927 85.1548,44.9287 85.1548,48.1807" id="Fill-109" fill="#DAA725" mask="url(#mask-2)"></path>
                    <path d="M79.2666,53.5146 C76.3256,53.5146 73.9326,51.1216 73.9326,48.1806 C73.9326,45.4276 76.0306,43.1546 78.7116,42.8766 L78.7116,47.6266 L75.6816,47.6266 L75.6816,48.7356 L80.0326,48.7356 L80.0326,47.6266 L79.8206,47.6266 L79.8206,42.8766 C82.5026,43.1546 84.6006,45.4276 84.6006,48.1806 C84.6006,51.1216 82.2076,53.5146 79.2666,53.5146 M79.2666,41.7376 C75.7136,41.7376 72.8236,44.6276 72.8236,48.1806 C72.8236,51.7336 75.7136,54.6236 79.2666,54.6236 C82.8196,54.6236 85.7096,51.7336 85.7096,48.1806 C85.7096,44.6276 82.8196,41.7376 79.2666,41.7376" id="Fill-110" fill="#000000" mask="url(#mask-2)"></path>
                    <polygon id="Fill-111" fill="#DAA725" mask="url(#mask-2)" points="50.1 69.057 59.375 69.057 59.375 59.782 50.1 59.782"></polygon>
                    <polygon id="Fill-112" fill="#DAA725" mask="url(#mask-2)" points="98.813 69.057 108.088 69.057 108.088 59.782 98.813 59.782"></polygon>
                    <polygon id="Fill-113" fill="#EEADCD" mask="url(#mask-2)" points="48.036 72.404 61.422 72.404 61.422 69.057 48.036 69.057"></polygon>
                    <path d="M60.8677,71.8496 L48.5907,71.8496 L48.5907,69.6106 L49.5447,69.6106 L59.9297,69.6106 L60.8677,69.6106 L60.8677,71.8496 Z M50.6547,68.5016 L58.8207,68.5016 L58.8207,60.3356 L50.6547,60.3356 L50.6547,68.5016 Z M59.9297,68.5016 L59.9297,59.2266 L49.5447,59.2266 L49.5447,68.5016 L47.4817,68.5016 L47.4817,72.9586 L61.9767,72.9586 L61.9767,68.5016 L59.9297,68.5016 Z" id="Fill-114" fill="#000000" mask="url(#mask-2)"></path>
                    <polygon id="Fill-115" fill="#EEADCD" mask="url(#mask-2)" points="96.758 72.404 110.144 72.404 110.144 69.057 96.758 69.057"></polygon>
                    <path d="M109.5898,71.8496 L97.3128,71.8496 L97.3128,69.6106 L98.2588,69.6106 L108.6428,69.6106 L109.5898,69.6106 L109.5898,71.8496 Z M99.3678,68.5016 L107.5338,68.5016 L107.5338,60.3356 L99.3678,60.3356 L99.3678,68.5016 Z M108.6428,68.5016 L108.6428,59.2266 L98.2588,59.2266 L98.2588,68.5016 L96.2038,68.5016 L96.2038,72.9586 L110.6988,72.9586 L110.6988,68.5016 L108.6428,68.5016 Z" id="Fill-116" fill="#000000" mask="url(#mask-2)"></path>
                    <polygon id="Fill-117" fill="#DAA725" mask="url(#mask-2)" points="79.2666 11.2002 79.2666 17.9272 89.2286 14.5642"></polygon>
                    <polygon id="Fill-118" fill="#EF5722" mask="url(#mask-2)" points="45.294 54.51 63.966 54.51 63.966 43.5 45.294 43.5"></polygon>
                    <polygon id="Fill-119" fill="#EF5722" mask="url(#mask-2)" points="94.567 54.51 113.239 54.51 113.239 43.5 94.567 43.5"></polygon>
                    <path d="M112.6851,80.8906 L94.5671,80.8906 L94.5671,77.4866 L94.5671,55.0646 L112.6851,55.0646 L112.6851,80.8906 Z M45.8491,80.8906 L45.8491,55.0646 L63.9661,55.0646 L63.9661,77.4866 L63.9661,80.8906 L45.8491,80.8906 Z M45.8491,53.9556 L63.9661,53.9556 L63.9661,44.0546 L45.8491,44.0546 L45.8491,53.9556 Z M93.4581,77.4866 L91.2221,77.4866 L91.2221,74.0816 L85.0761,74.0816 L85.0761,61.5656 C85.0761,60.5836 84.6581,57.3806 79.2671,57.3806 C75.4121,57.3806 73.4571,58.7886 73.4571,61.5656 L73.4571,74.0816 L67.3111,74.0816 L67.3111,77.4866 L65.0751,77.4866 L65.0751,40.6226 L93.4581,40.6226 L93.4581,77.4866 Z M91.2221,78.5956 L93.4581,78.5956 L93.4581,80.8906 L65.0751,80.8906 L65.0751,78.5956 L67.3111,78.5956 L91.2221,78.5956 Z M74.5661,73.7166 L74.5661,61.5656 C74.5661,60.6456 74.5661,58.4896 79.2671,58.4896 C83.5091,58.4896 83.9671,60.6406 83.9671,61.5656 L83.9671,73.7166 L74.5661,73.7166 Z M68.4211,77.4866 L90.1131,77.4866 L90.1131,75.1916 L68.4211,75.1916 L68.4211,77.4866 Z M62.8701,39.3376 L79.2671,24.6146 L95.6631,39.3376 L62.8701,39.3376 Z M94.5671,53.9556 L112.6851,53.9556 L112.6851,44.0546 L94.5671,44.0546 L94.5671,53.9556 Z M79.8211,11.9736 L87.4951,14.5636 L79.8211,17.1546 L79.8211,11.9736 Z M94.5671,42.9456 L94.5671,40.4466 L98.5591,40.4466 L79.8211,23.6216 L79.8211,18.3256 L90.9621,14.5636 L78.7121,10.4276 L78.7121,11.2006 L78.7121,18.6996 L78.7121,23.6216 L59.9751,40.4466 L63.9661,40.4466 L63.9661,42.9456 L44.7391,42.9456 L44.7391,46.2916 L44.7391,55.0646 L44.7391,81.9996 L63.9661,81.9996 L94.5671,81.9996 L113.7941,81.9996 L113.7941,55.0646 L113.7941,46.2916 L113.7941,42.9456 L94.5671,42.9456 Z" id="Fill-120" fill="#000000" mask="url(#mask-2)"></path>
                    <polygon id="Fill-121" fill="#EF5722" mask="url(#mask-2)" points="232.7202 106.6099 232.7202 92.0679 203.2272 92.0679 203.2272 106.6099 184.0012 106.6099 184.0012 133.4449 203.2272 133.4449 232.7202 133.4449 251.9472 133.4449 251.9472 106.6099"></polygon>
                    <polygon id="Fill-122" fill="#DAA725" mask="url(#mask-2)" points="200.1299 91.8921 235.8179 91.8921 217.9739 75.8691"></polygon>
                    <polygon id="Fill-123" fill="#A1D29D" mask="url(#mask-2)" points="229.3745 130.041 229.3745 126.637 206.5735 126.637 206.5735 130.041 203.2275 130.041 203.2275 133.445 232.7205 133.445 232.7205 130.041"></polygon>
                    <path d="M223.229,113.5659 C223.229,112.4299 222.642,109.9359 217.974,109.9359 C213.306,109.9359 212.719,111.9989 212.719,113.5659 L212.719,126.2719 L223.229,126.2719 L223.229,113.5659 Z" id="Fill-124" fill="#DAA725" mask="url(#mask-2)"></path>
                    <path d="M223.8623,100.1807 C223.8623,103.4327 221.2263,106.0697 217.9743,106.0697 C214.7213,106.0697 212.0853,103.4327 212.0853,100.1807 C212.0853,96.9287 214.7213,94.2927 217.9743,94.2927 C221.2263,94.2927 223.8623,96.9287 223.8623,100.1807" id="Fill-125" fill="#EEADCD" mask="url(#mask-2)"></path>
                    <path d="M217.9736,105.5146 C215.0326,105.5146 212.6406,103.1216 212.6406,100.1806 C212.6406,97.4276 214.7376,95.1546 217.4196,94.8766 L217.4196,99.6266 L214.3886,99.6266 L214.3886,100.7356 L218.7406,100.7356 L218.7406,99.6266 L218.5286,99.6266 L218.5286,94.8766 C221.2096,95.1546 223.3076,97.4276 223.3076,100.1806 C223.3076,103.1216 220.9146,105.5146 217.9736,105.5146 M217.9736,93.7376 C214.4206,93.7376 211.5306,96.6276 211.5306,100.1806 C211.5306,103.7336 214.4206,106.6236 217.9736,106.6236 C221.5266,106.6236 224.4166,103.7336 224.4166,100.1806 C224.4166,96.6276 221.5266,93.7376 217.9736,93.7376" id="Fill-126" fill="#000000" mask="url(#mask-2)"></path>
                    <polygon id="Fill-127" fill="#EEADCD" mask="url(#mask-2)" points="188.808 121.057 198.082 121.057 198.082 111.782 188.808 111.782"></polygon>
                    <polygon id="Fill-128" fill="#EEADCD" mask="url(#mask-2)" points="237.521 121.057 246.796 121.057 246.796 111.782 237.521 111.782"></polygon>
                    <polygon id="Fill-129" fill="#A1D29D" mask="url(#mask-2)" points="186.744 124.404 200.13 124.404 200.13 121.057 186.744 121.057"></polygon>
                    <path d="M199.5752,123.8496 L187.2982,123.8496 L187.2982,121.6106 L188.2522,121.6106 L198.6362,121.6106 L199.5752,121.6106 L199.5752,123.8496 Z M189.3622,120.5016 L197.5282,120.5016 L197.5282,112.3356 L189.3622,112.3356 L189.3622,120.5016 Z M198.6362,120.5016 L198.6362,111.2266 L188.2522,111.2266 L188.2522,120.5016 L186.1892,120.5016 L186.1892,124.9586 L200.6842,124.9586 L200.6842,120.5016 L198.6362,120.5016 Z" id="Fill-130" fill="#000000" mask="url(#mask-2)"></path>
                    <polygon id="Fill-131" fill="#A1D29D" mask="url(#mask-2)" points="235.466 124.404 248.852 124.404 248.852 121.057 235.466 121.057"></polygon>
                    <path d="M248.2969,123.8496 L236.0199,123.8496 L236.0199,121.6106 L236.9669,121.6106 L247.3499,121.6106 L248.2969,121.6106 L248.2969,123.8496 Z M238.0759,120.5016 L246.2419,120.5016 L246.2419,112.3356 L238.0759,112.3356 L238.0759,120.5016 Z M247.3499,120.5016 L247.3499,111.2266 L236.9669,111.2266 L236.9669,120.5016 L234.9109,120.5016 L234.9109,124.9586 L249.4059,124.9586 L249.4059,120.5016 L247.3499,120.5016 Z" id="Fill-132" fill="#000000" mask="url(#mask-2)"></path>
                    <polygon id="Fill-133" fill="#EEADCD" mask="url(#mask-2)" points="217.9741 63.2002 217.9741 69.9272 227.9351 66.5642"></polygon>
                    <polygon id="Fill-134" fill="#DAA725" mask="url(#mask-2)" points="184.001 106.51 202.673 106.51 202.673 95.5 184.001 95.5"></polygon>
                    <polygon id="Fill-135" fill="#DAA725" mask="url(#mask-2)" points="233.275 106.51 251.947 106.51 251.947 95.5 233.275 95.5"></polygon>
                    <path d="M251.3921,132.8906 L233.2751,132.8906 L233.2751,129.4866 L233.2751,107.0646 L251.3921,107.0646 L251.3921,132.8906 Z M184.5561,132.8906 L184.5561,107.0646 L202.6731,107.0646 L202.6731,129.4866 L202.6731,132.8906 L184.5561,132.8906 Z M184.5561,105.9556 L202.6731,105.9556 L202.6731,96.0546 L184.5561,96.0546 L184.5561,105.9556 Z M232.1661,129.4866 L229.9291,129.4866 L229.9291,126.0816 L223.7841,126.0816 L223.7841,113.5656 C223.7841,112.5836 223.3651,109.3806 217.9741,109.3806 C214.1191,109.3806 212.1641,110.7886 212.1641,113.5656 L212.1641,126.0816 L206.0191,126.0816 L206.0191,129.4866 L203.7821,129.4866 L203.7821,92.6226 L232.1661,92.6226 L232.1661,129.4866 Z M229.9291,130.5956 L232.1661,130.5956 L232.1661,132.8906 L203.7821,132.8906 L203.7821,130.5956 L206.0191,130.5956 L229.9291,130.5956 Z M213.2731,125.7166 L213.2731,113.5656 C213.2731,112.6456 213.2731,110.4896 217.9741,110.4896 C222.2161,110.4896 222.6751,112.6406 222.6751,113.5656 L222.6751,125.7166 L213.2731,125.7166 Z M207.1281,129.4866 L228.8201,129.4866 L228.8201,127.1916 L207.1281,127.1916 L207.1281,129.4866 Z M201.5781,91.3376 L217.9741,76.6146 L234.3701,91.3376 L201.5781,91.3376 Z M233.2751,105.9556 L251.3921,105.9556 L251.3921,96.0546 L233.2751,96.0546 L233.2751,105.9556 Z M218.5281,63.9736 L226.2021,66.5636 L218.5281,69.1546 L218.5281,63.9736 Z M233.2751,94.9456 L233.2751,92.4466 L237.2661,92.4466 L218.5281,75.6216 L218.5281,70.3256 L229.6691,66.5636 L217.4191,62.4276 L217.4191,63.2006 L217.4191,70.6996 L217.4191,75.6216 L198.6821,92.4466 L202.6731,92.4466 L202.6731,94.9456 L183.4471,94.9456 L183.4471,98.2916 L183.4471,107.0646 L183.4471,133.9996 L202.6731,133.9996 L233.2751,133.9996 L252.5011,133.9996 L252.5011,107.0646 L252.5011,98.2916 L252.5011,94.9456 L233.2751,94.9456 Z" id="Fill-136" fill="#000000" mask="url(#mask-2)"></path>
                    <path d="M266.7271,140.5 C266.7271,137.845 264.5751,135.693 261.9201,135.693 C259.2661,135.693 257.1131,137.845 257.1131,140.5 L266.7271,140.5 Z" id="Fill-137" fill="#DBA827" mask="url(#mask-2)"></path>
                    <path d="M17.7271,103.5 C17.7271,100.845 15.5751,98.693 12.9201,98.693 C10.2661,98.693 8.1131,100.845 8.1131,103.5 L17.7271,103.5 Z" id="Fill-138" fill="#EFAECE" mask="url(#mask-2)"></path>
                    <path d="M296.603,22.5 C297.394,22.214 299.313,21.497 299.313,20.699 C299.313,19.901 296.891,19.591 296.603,18.897 C296.305,18.178 297.787,16.249 297.245,15.707 C296.703,15.165 294.773,16.647 294.054,16.349 C293.36,16.061 293.051,13.639 292.253,13.639 C291.455,13.639 291.145,16.061 290.452,16.349 C289.732,16.647 287.803,15.165 287.261,15.707 C286.719,16.249 288.201,18.178 287.903,18.897 C287.615,19.591 285.193,19.901 285.193,20.699 C285.193,21.497 287.112,22.214 287.903,22.5 L296.603,22.5 Z" id="Fill-139" fill="#A2D39F" mask="url(#mask-2)"></path>
                    <path d="M52.603,19.5 C53.394,19.214 55.313,18.497 55.313,17.699 C55.313,16.901 52.891,16.591 52.603,15.897 C52.305,15.178 53.787,13.249 53.245,12.707 C52.703,12.165 50.773,13.647 50.054,13.349 C49.36,13.061 49.051,10.639 48.253,10.639 C47.455,10.639 47.145,13.061 46.452,13.349 C45.732,13.647 43.803,12.165 43.261,12.707 C42.719,13.249 44.201,15.178 43.903,15.897 C43.615,16.591 41.193,16.901 41.193,17.699 C41.193,18.497 43.112,19.214 43.903,19.5 L52.603,19.5 Z" id="Fill-140" fill="#EF5722" mask="url(#mask-2)"></path>
                    <polygon id="Fill-141" fill="#000000" mask="url(#mask-2)" points="183.05 81.48 184.074 81.48 184.074 35.873 183.05 35.873"></polygon>
                    <path d="M201.2119,65.6421 C200.4319,65.2151 199.4739,64.9801 198.5129,64.9801 C197.4399,64.9801 196.4289,65.2771 195.6679,65.8161 C195.0979,66.2191 194.6889,66.6711 194.3269,67.0701 C193.6949,67.7681 193.3149,68.1891 192.3569,68.1891 C192.3569,68.1891 192.1389,68.1861 192.0679,68.1861 C189.8349,68.1861 187.7459,68.9651 186.0669,69.5921 C185.0989,69.9531 184.1849,70.2941 183.6869,70.2941 C183.6619,70.2941 183.6369,70.2931 183.6139,70.2911 C182.6359,70.1961 182.1079,69.9051 181.3789,69.5021 C180.9039,69.2401 180.3659,68.9431 179.6379,68.6711 C178.5889,68.2791 177.6349,68.2251 176.7589,68.2251 C176.5439,68.2251 176.3279,68.2281 176.1109,68.2321 C175.9029,68.2351 175.6939,68.2391 175.4829,68.2391 C175.0109,68.2391 174.6469,68.2201 174.3009,68.1781 C173.5909,68.0911 173.1629,67.6531 172.5229,66.9441 C171.9519,66.3121 171.3049,65.5961 170.2759,65.2631 C169.7789,65.1011 168.9419,64.9931 168.1949,64.9931 C165.6219,64.9931 165.2949,66.2461 165.2749,66.7851 C165.2029,68.6591 168.1679,70.6581 169.4509,70.9261 C169.6609,70.9701 169.8749,70.9911 170.1059,70.9911 C170.5039,70.9911 170.8709,70.9281 171.2249,70.8671 C171.5209,70.8161 171.8009,70.7681 172.0519,70.7681 C172.1579,70.7681 172.2519,70.7761 172.3399,70.7941 C172.9299,70.9091 173.3979,71.3621 173.9049,71.8971 C174.9659,73.0161 176.4219,74.3781 178.2769,74.9841 C179.2429,75.3001 182.3039,75.3241 183.2189,75.3241 C184.3389,75.3241 188.0789,75.2881 189.2069,74.8301 C190.6529,74.2431 191.6599,73.2761 192.6329,72.3421 C192.9369,72.0511 193.2419,71.7571 193.5659,71.4721 C194.1319,70.9711 194.5559,70.7941 195.1859,70.7941 C195.2749,70.7941 195.3669,70.7971 195.4629,70.8051 C195.6659,70.8191 195.8559,70.8421 196.0389,70.8641 C196.3399,70.8991 196.6529,70.9361 196.9759,70.9361 C197.5459,70.9361 198.0439,70.8211 198.5439,70.5741 C198.7489,70.4731 201.8169,68.2821 201.8499,66.7461 C201.8589,66.2791 201.6209,65.8661 201.2119,65.6421" id="Fill-142" fill="#DBA827" mask="url(#mask-2)"></path>
                    <path d="M171.2227,63.9365 C171.4787,63.9985 171.7537,64.0285 172.0617,64.0285 C172.2987,64.0285 172.5357,64.0105 172.7727,63.9915 C172.9647,63.9765 173.1567,63.9595 173.3477,63.9595 C173.5127,63.9595 173.6457,63.9725 173.7657,63.9995 C174.2277,64.1045 174.6367,64.5615 175.0497,65.0625 C175.9787,66.1905 177.2567,67.5655 178.8987,68.1835 C179.7447,68.5015 182.2347,68.5355 183.2647,68.5355 C184.5257,68.5355 187.5627,68.4855 188.5507,68.0245 C189.8307,67.4255 190.7127,66.4515 191.5647,65.5095 C191.8267,65.2195 192.0927,64.9255 192.3727,64.6415 C192.8987,64.1065 193.2317,64.0055 193.6607,64.0055 C193.7327,64.0055 193.8067,64.0085 193.8847,64.0155 C194.2027,64.0415 194.4497,64.0535 194.6857,64.0535 C195.5347,64.0535 196.2287,63.8835 196.8687,63.5195 C197.1767,63.3445 199.5437,61.3535 199.5747,59.9735 C199.5847,59.5165 199.3747,59.1185 198.9967,58.8805 C198.2927,58.4365 197.4247,58.1915 196.5517,58.1915 C195.5757,58.1915 194.6577,58.5005 193.9677,59.0625 C193.4657,59.4715 193.1077,59.9265 192.7927,60.3275 C192.2067,61.0715 191.9177,61.4005 191.2027,61.4005 C191.2027,61.4005 191.0157,61.3975 190.9517,61.3975 C188.9697,61.3975 187.1347,62.1855 185.6597,62.8185 C184.8757,63.1555 184.0647,63.5035 183.6337,63.5035 L183.6307,63.5035 C182.8257,63.4135 182.3807,63.1315 181.7657,62.7405 C181.3477,62.4755 180.8757,62.1755 180.2317,61.8985 C179.2857,61.4915 178.3957,61.4365 177.6507,61.4365 C177.4617,61.4365 177.2737,61.4395 177.0837,61.4435 C176.9047,61.4465 176.7237,61.4505 176.5417,61.4505 C176.1417,61.4505 175.8347,61.4325 175.5447,61.3915 C174.9917,61.3135 174.6327,60.8885 174.0937,60.2015 C173.5907,59.5605 173.0197,58.8335 172.0897,58.4855 C171.6377,58.3175 170.8827,58.2045 170.2097,58.2045 C167.8057,58.2045 167.5737,59.5795 167.5587,60.0005 C167.4967,61.8565 170.1047,63.6685 171.2227,63.9365" id="Fill-143" fill="#DBA827" mask="url(#mask-2)"></path>
                    <path d="M173.0049,56.9443 C173.4639,57.0733 173.9179,57.0923 174.3169,57.1093 C174.6409,57.1223 174.9459,57.1353 175.2029,57.2033 C175.5399,57.2933 175.8859,57.7553 176.2119,58.2193 C177.0059,59.3563 178.1019,60.7423 179.5299,61.3753 C180.2599,61.6983 182.2239,61.7473 183.3289,61.7473 C184.6799,61.7473 187.0739,61.6773 187.9229,61.2093 C189.0359,60.5973 189.7889,59.6153 190.5179,58.6673 C190.7409,58.3773 190.9649,58.0843 191.2029,57.7993 C191.6539,57.2603 191.9009,57.2163 192.1559,57.2163 C192.2089,57.2163 192.2639,57.2193 192.3209,57.2253 C192.4359,57.2363 192.5529,57.2423 192.6719,57.2423 L192.6729,57.2423 C193.5349,57.2423 194.4869,56.9483 195.2219,56.4553 C195.5689,56.2233 197.2909,54.4513 197.3209,53.2143 C197.3309,52.7663 197.1509,52.3813 196.8109,52.1293 C196.1799,51.6603 195.3989,51.4023 194.6099,51.4023 C193.7249,51.4023 192.8979,51.7283 192.2809,52.3203 C191.8499,52.7343 191.5449,53.1903 191.2759,53.5933 C190.7619,54.3623 190.5549,54.6113 190.0689,54.6113 C190.0689,54.6113 189.9129,54.6083 189.8569,54.6083 C188.1179,54.6083 186.5339,55.4093 185.2619,56.0523 C184.6769,56.3483 183.9499,56.7163 183.6709,56.7163 C183.0429,56.6343 182.6999,56.3783 182.1809,55.9893 C181.8209,55.7213 181.4149,55.4163 180.8549,55.1323 C180.0119,54.7053 179.2229,54.6473 178.5629,54.6473 C178.4009,54.6473 178.2389,54.6513 178.0759,54.6543 C177.9249,54.6573 177.7739,54.6613 177.6209,54.6613 C177.2959,54.6613 177.0469,54.6443 176.8139,54.6063 C176.4249,54.5423 176.1289,54.1323 175.6849,53.4673 C175.2519,52.8173 174.7599,52.0793 173.9319,51.7153 C173.5229,51.5363 172.8449,51.4153 172.2449,51.4153 C170.5269,51.4153 169.8879,52.3453 169.8629,53.2163 C169.8109,55.0753 172.0419,56.6723 173.0049,56.9443" id="Fill-144" fill="#DBA827" mask="url(#mask-2)"></path>
                    <path d="M174.7632,49.9463 C175.1202,50.0693 175.4802,50.1423 175.8282,50.2133 C176.1132,50.2713 176.3822,50.3263 176.6172,50.4023 C176.8502,50.4773 177.2082,51.1003 177.3612,51.3663 C178.0192,52.5113 178.9302,53.9083 180.1352,54.5573 C180.7502,54.8893 182.2402,54.9583 183.3812,54.9583 C184.5222,54.9583 186.5482,54.8833 187.2972,54.3823 C188.2332,53.7553 188.8572,52.7683 189.4592,51.8133 C189.6422,51.5243 189.8272,51.2313 190.0222,50.9463 C190.3792,50.4283 190.5292,50.4283 190.6382,50.4283 C190.6722,50.4283 190.7062,50.4303 190.7412,50.4343 C190.8152,50.4443 190.8922,50.4483 190.9722,50.4483 C191.8182,50.4483 192.9212,49.9093 193.5742,49.3773 C193.9212,49.0933 195.0312,47.5723 195.0582,46.4833 C195.0732,45.9203 194.8292,45.5803 194.6222,45.3933 C194.0662,44.8913 193.3682,44.6143 192.6572,44.6143 C191.8572,44.6143 191.1182,44.9623 190.5762,45.5933 C190.2202,46.0093 189.9692,46.4663 189.7482,46.8683 C189.3432,47.6073 189.1852,47.8223 188.8982,47.8223 C188.8982,47.8223 188.7982,47.8203 188.7482,47.8203 C187.2432,47.8203 185.9092,48.6403 184.8382,49.3003 C184.4332,49.5493 183.8832,49.8873 183.6712,49.9253 C183.2662,49.8523 183.0322,49.6523 182.5942,49.2543 C182.2932,48.9813 181.9532,48.6723 181.4802,48.3793 C180.7362,47.9213 180.0422,47.8593 179.4622,47.8593 C179.3262,47.8593 179.1912,47.8623 179.0552,47.8663 C178.9332,47.8693 178.8112,47.8733 178.6882,47.8733 C178.4392,47.8733 178.2522,47.8583 178.0782,47.8223 C177.8262,47.7723 177.5142,47.2013 177.2632,46.7433 C176.9032,46.0853 176.4942,45.3403 175.7772,44.9563 C175.4022,44.7563 174.8102,44.6273 174.2672,44.6273 C173.0102,44.6273 172.1812,45.3363 172.1552,46.4323 C172.1152,48.1613 173.8052,49.6173 174.7632,49.9463" id="Fill-145" fill="#DBA827" mask="url(#mask-2)"></path>
                    <path d="M176.4951,42.9365 L176.7681,43.0565 C177.1741,43.2355 177.6281,43.4355 177.9811,43.5785 C178.1421,43.6895 178.4181,44.3015 178.5081,44.5025 C179.0581,45.7215 179.7501,47.0575 180.7151,47.7205 C181.1491,48.0185 182.0621,48.1695 183.4281,48.1695 C184.5721,48.1695 186.0651,48.0595 186.6821,47.5325 C187.4321,46.8925 187.9211,45.9035 188.3941,44.9465 C188.5381,44.6565 188.6831,44.3625 188.8361,44.0785 C189.0281,43.7235 189.1321,43.6415 189.1451,43.6415 C189.1461,43.6415 189.1461,43.6415 189.1461,43.6425 C189.2101,43.6515 189.2771,43.6575 189.3481,43.6575 L189.3491,43.6575 C190.2261,43.6575 191.4841,42.7425 191.9331,42.2755 C192.2541,41.9405 193.3681,39.7515 192.4381,38.6795 C191.9601,38.1285 191.3421,37.8255 190.6981,37.8255 C189.9741,37.8255 189.3231,38.2025 188.8641,38.8855 C188.5851,39.3005 188.3901,39.7545 188.2171,40.1545 C188.0881,40.4565 187.8701,40.9605 187.7671,41.0345 C187.7231,41.0325 187.6781,41.0315 187.6341,41.0315 C186.3471,41.0315 185.2161,41.9195 184.3901,42.5675 C184.1421,42.7625 183.8151,43.0195 183.6361,43.1165 C183.4551,43.0425 183.3001,42.8775 183.0101,42.5405 C182.7711,42.2635 182.5001,41.9495 182.1171,41.6475 C181.4671,41.1355 180.8341,41.0705 180.3561,41.0705 C180.2451,41.0705 180.1351,41.0735 180.0241,41.0775 C179.9331,41.0815 179.8421,41.0845 179.7491,41.0845 C179.5831,41.0845 179.4611,41.0715 179.3881,41.0585 C179.2311,40.9555 178.9821,40.3755 178.8331,40.0285 C178.5361,39.3365 178.2281,38.6205 177.6361,38.2165 C177.2991,37.9865 176.7691,37.8385 176.2851,37.8385 C175.2031,37.8385 174.4611,38.5655 174.4421,39.6475 C174.4121,41.2645 175.6501,42.5655 176.4951,42.9365" id="Fill-146" fill="#DBA827" mask="url(#mask-2)"></path>
                    <path d="M178.1621,35.9004 C178.2731,35.9674 178.4551,36.1124 178.6171,36.2404 C178.8321,36.4124 179.0551,36.5894 179.2681,36.7184 C179.3901,36.8904 179.5691,37.4394 179.6301,37.6264 C180.1911,39.3454 180.6721,40.3084 181.2381,40.8454 C181.6121,41.2004 182.3541,41.3814 183.4441,41.3814 C184.3501,41.3814 185.5381,41.2534 186.0541,40.6454 C186.6001,40.0004 186.9371,39.0614 187.2931,38.0674 C187.3981,37.7744 187.5041,37.4804 187.6161,37.1934 C187.6761,37.0374 187.7251,36.9344 187.7601,36.8664 C188.6321,36.8274 189.9751,35.5634 190.2701,35.1404 C190.6251,34.6294 190.7421,32.8164 190.2281,31.9984 C189.8391,31.3784 189.2991,31.0364 188.7081,31.0364 C188.4021,31.0364 187.6331,31.1504 187.1211,32.2014 C186.9241,32.6084 186.7841,33.0554 186.6611,33.4504 C186.5831,33.7024 186.4721,34.0564 186.3811,34.2454 C185.6341,34.2884 184.9961,34.7644 184.4691,35.2744 C184.6661,34.2474 185.4211,33.4694 185.7581,32.5044 C186.5411,30.2614 185.7801,25.9964 183.8461,25.9964 C181.9461,25.9964 180.9681,30.5714 181.0681,31.4194 C181.2151,32.6654 181.8071,33.5754 182.2181,34.5314 C181.8421,34.3184 181.4861,34.2814 181.2201,34.2814 C181.1331,34.2814 181.0461,34.2854 180.9591,34.2894 C180.9001,34.2924 180.8401,34.2964 180.7801,34.2964 C180.7581,34.2964 180.7391,34.2954 180.7211,34.2944 C180.6061,34.0924 180.4601,33.6214 180.3681,33.3244 C180.1451,32.6084 179.9341,31.9304 179.4901,31.5124 C179.1911,31.2314 178.7131,31.0494 178.2711,31.0494 C177.5571,31.0494 176.7151,31.5254 176.6981,32.8634 C176.6791,34.3294 177.4431,35.4654 178.1621,35.9004" id="Fill-147" fill="#DBA827" mask="url(#mask-2)"></path>
                    <polygon id="Fill-148" fill="#000000" mask="url(#mask-2)" points="131.4878 58.4365 130.4638 58.4365 130.4648 7.7355 131.4888 7.7355"></polygon>
                    <path d="M132.9473,18.2988 C132.2263,18.2988 131.6583,18.0638 131.2433,17.8918 C131.1583,17.8568 131.0513,17.8118 130.9763,17.7858 C130.9023,17.8118 130.7953,17.8568 130.7103,17.8918 C130.2953,18.0638 129.7273,18.2988 129.0063,18.2988 C126.1893,18.2988 123.7833,16.2088 123.4093,13.4368 C123.2773,12.4578 123.9643,11.5568 124.9423,11.4248 C125.9223,11.2938 126.8223,11.9798 126.9533,12.9578 C127.0883,13.9568 127.9593,14.7118 128.9833,14.7228 C129.0543,14.7068 129.2193,14.6378 129.3423,14.5878 C129.7423,14.4218 130.2923,14.1948 130.9763,14.1948 C131.6613,14.1948 132.2103,14.4218 132.6123,14.5878 C132.7343,14.6378 132.8983,14.7068 132.9693,14.7228 C133.9943,14.7118 134.8643,13.9568 134.9993,12.9578 C135.1323,11.9798 136.0323,11.2928 137.0103,11.4248 C137.9893,11.5568 138.6763,12.4578 138.5443,13.4368 C138.1693,16.2088 135.7633,18.2988 132.9473,18.2988" id="Fill-149" fill="#EFAECE" mask="url(#mask-2)"></path>
                    <path d="M133.5425,24.917 C132.7115,24.917 132.0285,24.634 131.5305,24.428 C131.3455,24.352 131.0665,24.236 130.9715,24.229 C130.8875,24.236 130.6075,24.352 130.4235,24.428 C129.9245,24.634 129.2425,24.917 128.4105,24.917 C125.2575,24.917 122.4645,22.702 121.7705,19.65 C121.5505,18.687 122.1535,17.729 123.1165,17.509 C124.0795,17.291 125.0385,17.893 125.2565,18.856 C125.5845,20.296 126.9115,21.341 128.4105,21.341 C128.5305,21.341 128.8215,21.221 129.0545,21.124 C129.5615,20.914 130.1925,20.653 130.9765,20.653 C131.7605,20.653 132.3915,20.914 132.8985,21.124 C133.1315,21.221 133.4225,21.341 133.5425,21.341 C135.0425,21.341 136.3685,20.296 136.6965,18.856 C136.9155,17.893 137.8735,17.291 138.8365,17.509 C139.7995,17.729 140.4025,18.687 140.1835,19.65 C139.4885,22.702 136.6955,24.917 133.5425,24.917" id="Fill-150" fill="#EFAECE" mask="url(#mask-2)"></path>
                    <path d="M134.1377,31.5352 C133.1957,31.5352 132.4317,31.2192 131.8177,30.9642 C131.5037,30.8342 131.1487,30.6872 130.9767,30.6872 C130.8047,30.6872 130.4497,30.8342 130.1367,30.9642 C129.5217,31.2192 128.7577,31.5352 127.8157,31.5352 C124.2847,31.5352 121.1247,29.1822 120.1307,25.8152 C119.8507,24.8682 120.3927,23.8732 121.3397,23.5942 C122.2857,23.3142 123.2807,23.8552 123.5607,24.8032 C124.1097,26.6612 125.8587,27.9592 127.8157,27.9592 C128.0457,27.9592 128.3967,27.8142 128.7677,27.6602 C129.3577,27.4152 130.0937,27.1112 130.9767,27.1112 C131.8607,27.1112 132.5957,27.4152 133.1857,27.6602 C133.5567,27.8142 133.9077,27.9592 134.1377,27.9592 C136.0947,27.9592 137.8447,26.6612 138.3927,24.8032 C138.6727,23.8552 139.6667,23.3142 140.6137,23.5942 C141.5607,23.8732 142.1017,24.8682 141.8227,25.8152 C140.8287,29.1822 137.6687,31.5352 134.1377,31.5352" id="Fill-151" fill="#EFAECE" mask="url(#mask-2)"></path>
                    <path d="M134.7324,38.1533 C133.6804,38.1533 132.8064,37.7913 132.1044,37.5003 C131.6644,37.3183 131.2484,37.1453 130.9764,37.1453 C130.7054,37.1453 130.2894,37.3183 129.8494,37.5003 C129.1464,37.7913 128.2724,38.1533 127.2204,38.1533 C123.2834,38.1533 119.7744,35.6603 118.4884,31.9493 C118.1644,31.0163 118.6594,29.9983 119.5924,29.6743 C120.5254,29.3513 121.5434,29.8453 121.8674,30.7783 C122.6544,33.0503 124.8064,34.5773 127.2204,34.5773 C127.5614,34.5773 127.9874,34.4003 128.4804,34.1963 C129.1544,33.9173 129.9934,33.5693 130.9764,33.5693 C131.9594,33.5693 132.7984,33.9173 133.4724,34.1963 C133.9654,34.4003 134.3924,34.5773 134.7324,34.5773 C137.1474,34.5773 139.2984,33.0503 140.0864,30.7783 C140.4094,29.8453 141.4284,29.3513 142.3614,29.6743 C143.2944,29.9983 143.7884,31.0163 143.4644,31.9493 C142.1794,35.6603 138.6704,38.1533 134.7324,38.1533" id="Fill-152" fill="#EFAECE" mask="url(#mask-2)"></path>
                    <path d="M135.3276,44.771 C134.1656,44.771 133.1816,44.364 132.3906,44.036 C131.8546,43.814 131.3476,43.604 130.9766,43.604 C130.6056,43.604 130.0986,43.814 129.5616,44.036 C128.7716,44.364 127.7876,44.771 126.6256,44.771 C122.3266,44.771 118.3946,42.076 116.8426,38.065 C116.4856,37.145 116.9436,36.109 117.8646,35.752 C118.7856,35.396 119.8206,35.854 120.1776,36.774 C121.2006,39.418 123.7916,41.195 126.6256,41.195 C127.0766,41.195 127.5946,40.98 128.1936,40.732 C128.9906,40.402 129.8936,40.028 130.9766,40.028 C132.0586,40.028 132.9626,40.402 133.7596,40.732 C134.3596,40.98 134.8766,41.195 135.3276,41.195 C138.1606,41.195 140.7526,39.418 141.7756,36.774 C142.1326,35.854 143.1676,35.396 144.0886,35.752 C145.0096,36.109 145.4676,37.145 145.1116,38.065 C143.5586,42.076 139.6266,44.771 135.3276,44.771" id="Fill-153" fill="#EFAECE" mask="url(#mask-2)"></path>
                    <path d="M135.1035,5.3535 C134.1165,5.3535 133.3155,6.1535 133.3155,7.1415 C133.3155,7.6415 132.9325,8.0535 132.4445,8.1005 C132.4255,8.0925 132.4045,8.0835 132.3835,8.0755 L132.3835,2.9065 C132.3835,2.1295 131.7535,1.4995 130.9765,1.4995 C130.1995,1.4995 129.5695,2.1295 129.5695,2.9065 L129.5695,8.0755 C129.5485,8.0835 129.5275,8.0925 129.5085,8.1005 C129.0205,8.0535 128.6375,7.6415 128.6375,7.1415 C128.6375,6.1535 127.8365,5.3535 126.8495,5.3535 C125.8625,5.3535 125.0615,6.1535 125.0615,7.1415 C125.0615,9.6445 127.0975,11.6815 129.6015,11.6815 C130.0185,11.6815 130.3665,11.5885 130.6475,11.4895 C130.7535,11.5155 130.8625,11.5325 130.9765,11.5325 C131.0905,11.5325 131.1995,11.5155 131.3055,11.4895 C131.5875,11.5885 131.9355,11.6815 132.3525,11.6815 C134.8555,11.6815 136.8915,9.6445 136.8915,7.1415 C136.8915,6.1535 136.0915,5.3535 135.1035,5.3535" id="Fill-154" fill="#EFAECE" mask="url(#mask-2)"></path>
                    <path d="M46.4497,70.0107 C46.4497,77.3757 40.4787,83.3457 33.1147,83.3457 C25.7497,83.3457 19.7787,77.3757 19.7787,70.0107 C19.7787,62.6457 25.7497,56.6757 33.1147,56.6757 C40.4787,56.6757 46.4497,62.6457 46.4497,70.0107" id="Fill-155" fill="#A2D39F" mask="url(#mask-2)"></path>
                    <path d="M43.2993,69.2485 L42.2753,69.2485 C42.2753,70.5975 41.2953,71.7165 40.0103,71.9445 C40.0293,71.7355 40.0423,71.5245 40.0423,71.3105 L40.0423,68.3815 L39.0183,68.3815 L39.0183,71.3105 C39.0183,71.5225 39.0063,71.7315 38.9843,71.9375 C37.7323,71.6845 36.7863,70.5755 36.7863,69.2485 L35.7623,69.2485 C35.7623,71.0715 37.0623,72.5955 38.7843,72.9425 C38.1193,75.2485 36.0883,76.9765 33.6263,77.1885 L33.6263,66.4355 C34.7613,66.1985 35.6163,65.1915 35.6163,63.9865 L34.5923,63.9865 C34.5923,64.6215 34.1893,65.1595 33.6263,65.3685 L33.6263,62.7805 L32.6023,62.7805 L32.6023,65.3685 C32.0393,65.1595 31.6353,64.6215 31.6353,63.9865 L30.6113,63.9865 C30.6113,65.1915 31.4673,66.1985 32.6023,66.4355 L32.6023,77.1885 C30.1403,76.9765 28.1093,75.2485 27.4443,72.9425 C29.1663,72.5955 30.4663,71.0715 30.4663,69.2485 L29.4423,69.2485 C29.4423,70.5755 28.4963,71.6845 27.2443,71.9375 C27.2223,71.7315 27.2103,71.5225 27.2103,71.3105 L27.2103,68.3815 L26.1853,68.3815 L26.1853,71.3105 C26.1853,71.5245 26.1983,71.7355 26.2173,71.9445 C24.9333,71.7165 23.9533,70.5975 23.9533,69.2485 L22.9293,69.2485 C22.9293,71.2275 24.4633,72.8515 26.4033,73.0025 C27.1213,75.8455 29.5953,77.9915 32.6023,78.2135 L32.6023,95.9225 L33.6263,95.9225 L33.6263,78.2135 C36.6333,77.9915 39.1073,75.8455 39.8243,73.0025 C41.7653,72.8515 43.2993,71.2275 43.2993,69.2485" id="Fill-156" fill="#000000" mask="url(#mask-2)"></path>
                    <g id="Group-159" mask="url(#mask-2)" opacity="0.25" stroke="#000000" stroke-width="2">
                        <g transform="translate(249.000000, 61.000000)" id="Stroke-158">
                            <path d="M62.5,31.2222 C62.5,48.3432 48.621,62.2222 31.5,62.2222 C14.379,62.2222 0.5,48.3432 0.5,31.2222 C0.5,14.1012 14.379,0.2222 31.5,0.2222 C48.621,0.2222 62.5,14.1012 62.5,31.2222 Z"></path>
                        </g>
                    </g>
                    <path d="M311.5,90.5 C311.5,107.621 297.621,121.5 280.5,121.5 C263.379,121.5 249.5,107.621 249.5,90.5 C249.5,73.379 263.379,59.5 280.5,59.5 C297.621,59.5 311.5,73.379 311.5,90.5" id="Fill-160" fill="#A1D29D" mask="url(#mask-2)"></path>
                    <path d="M311.5,90.5 C311.5,107.621 297.621,121.5 280.5,121.5 C263.379,121.5 249.5,107.621 249.5,90.5 C249.5,73.379 263.379,59.5 280.5,59.5 C297.621,59.5 311.5,73.379 311.5,90.5 Z" id="Stroke-161" stroke="#FFFFFF" stroke-width="2" mask="url(#mask-2)"></path>
                    <polygon id="Fill-162" fill="#FFFFFF" mask="url(#mask-2)" points="278 141.425 283 141.425 283 60.425 278 60.425"></polygon>
                    <polygon id="Fill-163" fill="#EF5722" mask="url(#mask-2)" points="283 135.9248 282.293 135.2178 278 139.5108 278 141.4248 278.914 141.4248 283 137.3388"></polygon>
                    <polygon id="Fill-164" fill="#EF5722" mask="url(#mask-2)" points="283 129.8389 283 128.4249 282.293 127.7179 278 132.0109 278 134.4249 278.207 134.6319"></polygon>
                    <polygon id="Fill-165" fill="#EF5722" mask="url(#mask-2)" points="283 122.3389 283 120.9249 282.293 120.2179 278 124.5109 278 126.9249 278.207 127.1319"></polygon>
                    <polygon id="Fill-166" fill="#EF5722" mask="url(#mask-2)" points="283 114.8389 283 113.4249 282.293 112.7179 278 117.0109 278 119.4249 278.207 119.6319"></polygon>
                    <polygon id="Fill-167" fill="#EF5722" mask="url(#mask-2)" points="283 107.3389 283 105.9249 282.293 105.2179 278 109.5109 278 111.9249 278.207 112.1319"></polygon>
                    <polygon id="Fill-168" fill="#EF5722" mask="url(#mask-2)" points="283 99.8389 283 98.4249 282.293 97.7179 278 102.0109 278 104.4249 278.207 104.6319"></polygon>
                    <polygon id="Fill-169" fill="#EF5722" mask="url(#mask-2)" points="283 92.3389 283 90.9249 282.293 90.2179 278 94.5109 278 96.9249 278.207 97.1319"></polygon>
                    <polygon id="Fill-170" fill="#EF5722" mask="url(#mask-2)" points="283 84.8389 283 83.4249 282.293 82.7179 278 87.0109 278 89.4249 278.207 89.6319"></polygon>
                    <polygon id="Fill-171" fill="#EF5722" mask="url(#mask-2)" points="283 77.3389 283 75.9249 282.293 75.2179 278 79.5109 278 81.9249 278.207 82.1319"></polygon>
                    <polygon id="Fill-172" fill="#EF5722" mask="url(#mask-2)" points="283 69.8389 283 68.4249 282.293 67.7179 278 72.0109 278 74.4249 278.207 74.6319"></polygon>
                    <polygon id="Fill-173" fill="#EF5722" mask="url(#mask-2)" points="283 62.3389 283 60.9249 282.5 60.4249 282.086 60.4249 278 64.5109 278 66.9249 278.207 67.1319"></polygon>
                    <path d="M278.575,140.85 L282.425,140.85 L282.425,61 L278.575,61 L278.575,140.85 Z M277.425,142 L283.575,142 L283.575,59.85 L277.425,59.85 L277.425,142 Z" id="Fill-174" fill="#000000" mask="url(#mask-2)"></path>
                    <path d="M284.5,59.9248 C284.5,62.1338 282.709,63.9248 280.5,63.9248 C278.291,63.9248 276.5,62.1338 276.5,59.9248 C276.5,57.7158 278.291,55.9248 280.5,55.9248 C282.709,55.9248 284.5,57.7158 284.5,59.9248" id="Fill-175" fill="#EF5722" mask="url(#mask-2)"></path>
                    <path d="M284.5,59.9248 C284.5,62.1338 282.709,63.9248 280.5,63.9248 C278.291,63.9248 276.5,62.1338 276.5,59.9248 C276.5,57.7158 278.291,55.9248 280.5,55.9248 C282.709,55.9248 284.5,57.7158 284.5,59.9248 Z" id="Stroke-176" stroke="#000000" stroke-width="1.151" mask="url(#mask-2)"></path>
                    <path d="M300.6919,77.5112 C295.5969,72.2062 288.4369,68.8982 280.4999,68.8982 C272.5639,68.8982 265.4039,72.2062 260.3089,77.5112 L247.9999,77.5112 L247.9999,112.4252 L312.9999,112.4252 L312.9999,77.5112 L300.6919,77.5112 Z" id="Fill-177" fill="#000000" mask="url(#mask-2)"></path>
                    <path d="M300.6919,77.5112 C295.5969,72.2062 288.4369,68.8982 280.4999,68.8982 C272.5639,68.8982 265.4039,72.2062 260.3089,77.5112 L247.9999,77.5112 L247.9999,112.4252 L312.9999,112.4252 L312.9999,77.5112 L300.6919,77.5112 Z" id="Stroke-178" stroke="#000000" stroke-width="0.88" mask="url(#mask-2)"></path>
                    <polygon id="Fill-179" fill="#FFFFFF" mask="url(#mask-2)" points="263.2676 82.5928 264.8036 82.5928 264.8036 89.6248 268.2596 89.6248 268.2596 90.9928 263.2676 90.9928"></polygon>
                    <polygon id="Fill-180" fill="#FFFFFF" mask="url(#mask-2)" points="269.2676 82.5928 274.6436 82.5928 274.6436 84.0808 270.8396 84.0808 270.8396 85.8688 273.7916 85.8688 273.7916 87.3568 270.8396 87.3568 270.8396 89.5048 274.7636 89.5048 274.7636 90.9928 269.2676 90.9928"></polygon>
                    <path d="M279.9595,87.6567 L278.9155,84.6567 L277.8595,87.6567 L279.9595,87.6567 Z M280.4395,89.0007 L277.3795,89.0007 L276.6835,90.9927 L275.1955,90.9927 L278.1835,82.5927 L279.6355,82.5927 L282.6235,90.9927 L281.1355,90.9927 L280.4395,89.0007 Z" id="Fill-181" fill="#FFFFFF" mask="url(#mask-2)"></path>
                    <path d="M286.2476,86.5889 C287.3756,86.5889 287.9396,86.1329 287.9396,85.2209 C287.9396,84.7809 287.8116,84.4469 287.5556,84.2189 C287.2996,83.9909 286.8836,83.8769 286.3076,83.8769 L285.1196,83.8769 L285.1196,86.5889 L286.2476,86.5889 Z M283.5836,82.5929 L286.6556,82.5929 C287.5516,82.5929 288.2576,82.8069 288.7736,83.2349 C289.2896,83.6629 289.5476,84.2969 289.5476,85.1369 C289.5476,85.7209 289.4236,86.1989 289.1756,86.5709 C288.9276,86.9429 288.5756,87.2409 288.1196,87.4649 L290.0156,90.9929 L288.2996,90.9929 L286.6796,87.8729 L286.6196,87.8729 L285.1196,87.8729 L285.1196,90.9929 L283.5836,90.9929 L283.5836,82.5929 Z" id="Fill-182" fill="#FFFFFF" mask="url(#mask-2)"></path>
                    <polygon id="Fill-183" fill="#FFFFFF" mask="url(#mask-2)" points="291.0952 82.5928 292.6072 82.5928 296.1952 88.0168 296.1952 82.5928 297.7312 82.5928 297.7312 90.9928 296.4712 90.9928 292.6312 85.2328 292.6312 90.9928 291.0952 90.9928"></polygon>
                    <polygon id="Fill-184" fill="#FFFFFF" mask="url(#mask-2)" points="257.2378 96.9927 262.6138 96.9927 262.6138 98.4807 258.8098 98.4807 258.8098 100.2687 261.7618 100.2687 261.7618 101.7567 258.8098 101.7567 258.8098 103.9047 262.7338 103.9047 262.7338 105.3927 257.2378 105.3927"></polygon>
                    <polygon id="Fill-185" fill="#FFFFFF" mask="url(#mask-2)" points="264.0537 96.9927 265.5657 96.9927 269.1537 102.4167 269.1537 96.9927 270.6897 96.9927 270.6897 105.3927 269.4297 105.3927 265.5897 99.6327 265.5897 105.3927 264.0537 105.3927"></polygon>
                    <path d="M273.9956,105.0205 C273.3596,104.6605 272.8736,104.1505 272.5376,103.4905 C272.2016,102.8305 272.0336,102.0605 272.0336,101.1805 C272.0336,100.3165 272.2196,99.5545 272.5916,98.8945 C272.9636,98.2345 273.4816,97.7245 274.1456,97.3645 C274.8096,97.0045 275.5696,96.8245 276.4256,96.8245 C276.8576,96.8245 277.2776,96.8685 277.6856,96.9565 C278.0936,97.0445 278.4456,97.1645 278.7416,97.3165 L278.5736,98.7805 C277.8776,98.4605 277.1616,98.3005 276.4256,98.3005 C275.5296,98.3005 274.8536,98.5625 274.3976,99.0865 C273.9416,99.6105 273.7136,100.3005 273.7136,101.1565 C273.7136,102.0445 273.9376,102.7545 274.3856,103.2865 C274.8336,103.8185 275.4816,104.0845 276.3296,104.0845 C276.6736,104.0845 277.0576,104.0405 277.4816,103.9525 L277.4816,102.4525 L276.3296,102.4525 L276.3296,101.1805 L279.0176,101.1805 L279.0176,104.9245 C278.7056,105.1085 278.3076,105.2605 277.8236,105.3805 C277.3396,105.5005 276.8216,105.5605 276.2696,105.5605 C275.3896,105.5605 274.6316,105.3805 273.9956,105.0205" id="Fill-186" fill="#FFFFFF" mask="url(#mask-2)"></path>
                    <polygon id="Fill-187" fill="#FFFFFF" mask="url(#mask-2)" points="280.5054 96.9927 282.0414 96.9927 282.0414 104.0247 285.4974 104.0247 285.4974 105.3927 280.5054 105.3927"></polygon>
                    <polygon id="Fill-188" fill="#FFFFFF" mask="url(#mask-2)" points="286.505 105.393 288.041 105.393 288.041 96.993 286.505 96.993"></polygon>
                    <path d="M290.8071,105.3687 C290.2671,105.2407 289.8451,105.1007 289.5411,104.9487 L289.7211,103.3167 C290.7771,103.8287 291.7051,104.0847 292.5051,104.0847 C292.9291,104.0847 293.2611,104.0027 293.5011,103.8387 C293.7411,103.6747 293.8611,103.4327 293.8611,103.1127 C293.8611,102.8727 293.7951,102.6747 293.6631,102.5187 C293.5311,102.3627 293.3411,102.2307 293.0931,102.1227 C292.8451,102.0147 292.4491,101.8647 291.9051,101.6727 C291.3931,101.4967 290.9691,101.3107 290.6331,101.1147 C290.2971,100.9187 290.0311,100.6667 289.8351,100.3587 C289.6391,100.0507 289.5411,99.6727 289.5411,99.2247 C289.5411,98.5047 289.8051,97.9247 290.3331,97.4847 C290.8611,97.0447 291.6171,96.8247 292.6011,96.8247 C293.0651,96.8247 293.5271,96.8767 293.9871,96.9807 C294.4471,97.0847 294.8691,97.2127 295.2531,97.3647 L295.0971,98.9367 C294.6011,98.7207 294.1471,98.5587 293.7351,98.4507 C293.3231,98.3427 292.9131,98.2887 292.5051,98.2887 C292.0491,98.2887 291.7011,98.3647 291.4611,98.5167 C291.2211,98.6687 291.1011,98.8887 291.1011,99.1767 C291.1011,99.4007 291.1651,99.5847 291.2931,99.7287 C291.4211,99.8727 291.5951,99.9927 291.8151,100.0887 C292.0351,100.1847 292.3611,100.3007 292.7931,100.4367 C293.7611,100.7407 294.4671,101.0907 294.9111,101.4867 C295.3551,101.8827 295.5771,102.4247 295.5771,103.1127 C295.5771,103.7687 295.3491,104.3407 294.8931,104.8287 C294.4371,105.3167 293.5811,105.5607 292.3251,105.5607 C291.8531,105.5607 291.3471,105.4967 290.8071,105.3687" id="Fill-189" fill="#FFFFFF" mask="url(#mask-2)"></path>
                    <polygon id="Fill-190" fill="#FFFFFF" mask="url(#mask-2)" points="296.8491 96.9927 298.3851 96.9927 298.3851 100.3167 302.2251 100.3167 302.2251 96.9927 303.7611 96.9927 303.7611 105.3927 302.2251 105.3927 302.2251 101.7567 298.3851 101.7567 298.3851 105.3927 296.8491 105.3927"></polygon>
                </g>
            </g>
        </g>
    </g>
</svg>