<?xml version="1.0" encoding="UTF-8"?>
<svg width="320px" height="48px" viewBox="0 0 320 48" version="1.1" xmlns="http://www.w3.org/2000/svg" xmlns:xlink="http://www.w3.org/1999/xlink">
    <!-- Generator: sketchtool 50.2 (55047) - http://www.bohemiancoding.com/sketch -->
    <title>01325AE7-8C1B-494D-B393-DCE2129CA683</title>
    <desc>Created with sketchtool.</desc>
    <defs></defs>
    <g id="home_screen1_v2" stroke="none" stroke-width="1" fill="none" fill-rule="evenodd">
        <g id="home_mobile_screen1" fill="#000000">
            <path d="M320,48 C305.452,48 305.452,38 290.904,38 C276.355,38 276.355,48 261.807,48 C247.261,48 247.261,38 232.715,38 C218.168,38 218.168,48 203.622,48 C189.076,48 189.076,38 174.53,38 C159.984,38 159.984,48 145.438,48 C130.895,48 130.895,38 116.351,38 C101.807,38 101.807,48 87.263,48 C72.721,48 72.721,38 58.179,38 C43.634,38 43.634,48 29.089,48 C14.544,48 14.544,38 0,38 L0,0 L320,0 L320,48 Z" id="black_wave"></path>
        </g>
    </g>
</svg>