<?xml version="1.0" encoding="UTF-8"?>
<svg width="320px" height="150px" viewBox="0 0 320 150" version="1.1" xmlns="http://www.w3.org/2000/svg" xmlns:xlink="http://www.w3.org/1999/xlink">
    <!-- Generator: sketchtool 50.2 (55047) - http://www.bohemiancoding.com/sketch -->
    <title>AD9A7D49-E148-4C58-AD2F-F25C46D948FE</title>
    <desc>Created with sketchtool.</desc>
    <defs>
        <polygon id="path-1" points="0 150 320 150 320 0 0 0"></polygon>
    </defs>
    <g id="home" stroke="none" stroke-width="1" fill="none" fill-rule="evenodd">
        <g id="home_mobile_collapse" transform="translate(0.000000, -481.000000)">
            <g id="doctor" transform="translate(0.000000, 481.000000)">
                <polygon id="Fill-1" fill="#E0E0E0" points="0 150 320 150 320 0 0 0"></polygon>
                <g id="Group-176">
                    <path d="M132.5,23 C132.5,19.026 129.408,15.783 125.5,15.525 L125.5,15.5 L49.5,15.5 C45.358,15.5 42,18.857 42,23 C42,27.143 45.358,30.5 49.5,30.5 L125.5,30.5 L125.5,30.475 C129.408,30.217 132.5,26.974 132.5,23" id="Fill-2" fill="#000000"></path>
                    <path d="M117.5,53 C117.5,49.026 114.408,45.783 110.5,45.525 L110.5,45.5 L26.5,45.5 C22.358,45.5 19,48.857 19,53 C19,57.143 22.358,60.5 26.5,60.5 L110.5,60.5 L110.5,60.475 C114.408,60.217 117.5,56.974 117.5,53" id="Fill-4" fill="#000000"></path>
                    <path d="M104,38 C104,33.857 107.358,30.5 111.5,30.5 L50,30.5 C54.142,30.5 57.5,33.857 57.5,38 C57.5,42.143 54.142,45.5 50,45.5 L111.5,45.5 C107.358,45.5 104,42.143 104,38" id="Fill-6" fill="#000000"></path>
                    <path d="M57.5,21.5 C57.5,23.157 56.157,24.5 54.5,24.5 C52.843,24.5 51.5,23.157 51.5,21.5" id="Stroke-8" stroke="#FFFFFF"></path>
                    <path d="M63.5,21.5 C63.5,23.157 62.157,24.5 60.5,24.5 C58.843,24.5 57.5,23.157 57.5,21.5" id="Stroke-10" stroke="#FFFFFF"></path>
                    <path d="M69.5,21.5 C69.5,23.157 68.157,24.5 66.5,24.5 C64.843,24.5 63.5,23.157 63.5,21.5" id="Stroke-12" stroke="#FFFFFF"></path>
                    <path d="M75.5,21.5 C75.5,23.157 74.157,24.5 72.5,24.5 C70.843,24.5 69.5,23.157 69.5,21.5" id="Stroke-14" stroke="#FFFFFF"></path>
                    <path d="M104.5,21.5 C104.5,23.157 103.157,24.5 101.5,24.5 C99.843,24.5 98.5,23.157 98.5,21.5" id="Stroke-16" stroke="#FFFFFF"></path>
                    <path d="M110.5,21.5 C110.5,23.157 109.157,24.5 107.5,24.5 C105.843,24.5 104.5,23.157 104.5,21.5" id="Stroke-18" stroke="#FFFFFF"></path>
                    <path d="M78.5,37.5 C78.5,39.157 77.157,40.5 75.5,40.5 C73.843,40.5 72.5,39.157 72.5,37.5" id="Stroke-20" stroke="#FFFFFF"></path>
                    <path d="M84.5,37.5 C84.5,39.157 83.157,40.5 81.5,40.5 C79.843,40.5 78.5,39.157 78.5,37.5" id="Stroke-22" stroke="#FFFFFF"></path>
                    <path d="M90.5,37.5 C90.5,39.157 89.157,40.5 87.5,40.5 C85.843,40.5 84.5,39.157 84.5,37.5" id="Stroke-24" stroke="#FFFFFF"></path>
                    <path d="M67.5,51.5 C67.5,53.157 66.157,54.5 64.5,54.5 C62.843,54.5 61.5,53.157 61.5,51.5" id="Stroke-26" stroke="#FFFFFF"></path>
                    <path d="M73.5,51.5 C73.5,53.157 72.157,54.5 70.5,54.5 C68.843,54.5 67.5,53.157 67.5,51.5" id="Stroke-28" stroke="#FFFFFF"></path>
                    <path d="M79.5,51.5 C79.5,53.157 78.157,54.5 76.5,54.5 C74.843,54.5 73.5,53.157 73.5,51.5" id="Stroke-30" stroke="#FFFFFF"></path>
                    <path d="M95.5,51.5 C95.5,53.157 94.157,54.5 92.5,54.5 C90.843,54.5 89.5,53.157 89.5,51.5" id="Stroke-32" stroke="#FFFFFF"></path>
                    <path d="M101.5,51.5 C101.5,53.157 100.157,54.5 98.5,54.5 C96.843,54.5 95.5,53.157 95.5,51.5" id="Stroke-34" stroke="#FFFFFF"></path>
                    <path d="M8.5,150 C8.5,129.289 25.29,112.5 46,112.5 L274,112.5 C294.71,112.5 311.5,95.711 311.5,75 C311.5,54.289 294.71,37.5 274,37.5 L109.215,37.5 C101.602,30.663 91.538,26.5 80.5,26.5 C69.462,26.5 59.398,30.663 51.785,37.5 L46,37.5 C25.29,37.5 8.5,20.711 8.5,0" id="Stroke-36" stroke="#FFFFFF" stroke-width="10"></path>
                    <mask id="mask-2" fill="white">
                        <use xlink:href="#path-1"></use>
                    </mask>
                    <g id="Clip-39"></g>
                    <polygon id="Fill-38" fill="#000000" mask="url(#mask-2)" points="296.598 56.835 297.622 56.835 297.622 19.335 296.598 19.335"></polygon>
                    <path d="M291.9233,23.8545 C292.8623,23.8545 294.0963,23.7835 295.3043,23.2285 C295.8023,23.0005 296.2393,22.7165 296.6253,22.4665 C296.7693,22.3745 296.9593,22.2505 297.1103,22.1635 C297.2603,22.2505 297.4503,22.3745 297.5943,22.4665 C297.9803,22.7165 298.4173,23.0005 298.9153,23.2285 C300.1233,23.7835 301.3563,23.8545 302.2963,23.8545 C303.2193,23.8545 303.9673,23.1065 303.9673,22.1835 C303.9673,21.2595 303.2193,20.5115 302.2963,20.5115 C301.6963,20.5115 300.9293,20.4755 300.3093,20.1905 C300.0313,20.0635 299.7163,19.8595 299.4123,19.6625 C299.2623,19.5655 299.1113,19.4675 298.9583,19.3745 L298.9583,16.6675 C298.9583,15.6515 298.1333,14.8275 297.1173,14.8275 C296.1003,14.8275 295.2763,15.6515 295.2763,16.6675 L295.2763,19.3655 C295.1183,19.4615 294.9623,19.5615 294.8073,19.6625 C294.5033,19.8595 294.1883,20.0635 293.9103,20.1905 C293.2903,20.4755 292.5233,20.5115 291.9233,20.5115 C291.0003,20.5115 290.2523,21.2595 290.2523,22.1835 C290.2523,23.1065 291.0003,23.8545 291.9233,23.8545" id="Fill-40" fill="#EFAECE" mask="url(#mask-2)"></path>
                    <path d="M290.6045,29.4014 C291.7395,29.4014 293.2275,29.3164 294.6685,28.6554 C295.2645,28.3814 295.7995,28.0354 296.2715,27.7294 C296.5275,27.5634 296.8915,27.3284 297.1095,27.2214 C297.3285,27.3284 297.6925,27.5634 297.9485,27.7294 C298.4205,28.0354 298.9555,28.3814 299.5515,28.6554 C300.9925,29.3164 302.4795,29.4014 303.6145,29.4014 C304.5385,29.4014 305.2865,28.6534 305.2865,27.7304 C305.2865,26.8064 304.5385,26.0584 303.6145,26.0584 C302.8195,26.0584 301.7975,26.0084 300.9455,25.6174 C300.5695,25.4454 300.1615,25.1804 299.7665,24.9244 C298.9445,24.3914 298.0955,23.8414 297.1095,23.8414 C296.1245,23.8414 295.2745,24.3914 294.4535,24.9244 C294.0585,25.1804 293.6505,25.4454 293.2745,25.6174 C292.4215,26.0084 291.3995,26.0584 290.6045,26.0584 C289.6815,26.0584 288.9335,26.8064 288.9335,27.7304 C288.9335,28.6534 289.6815,29.4014 290.6045,29.4014" id="Fill-41" fill="#EFAECE" mask="url(#mask-2)"></path>
                    <path d="M289.2856,34.9482 C290.6166,34.9482 292.3586,34.8502 294.0326,34.0822 C294.7266,33.7632 295.3586,33.3532 295.9166,32.9922 C296.2926,32.7492 296.8456,32.3902 297.1096,32.2962 C297.3736,32.3902 297.9266,32.7492 298.3026,32.9922 C298.8606,33.3532 299.4926,33.7632 300.1876,34.0822 C301.8606,34.8502 303.6026,34.9482 304.9336,34.9482 C305.8566,34.9482 306.6056,34.2002 306.6056,33.2772 C306.6056,32.3542 305.8566,31.6052 304.9336,31.6052 C303.9426,31.6052 302.6666,31.5422 301.5816,31.0442 C301.1066,30.8262 300.6056,30.5012 300.1206,30.1872 C299.1306,29.5452 298.1946,28.9382 297.1096,28.9382 C296.0246,28.9382 295.0896,29.5452 294.0986,30.1872 C293.6136,30.5012 293.1126,30.8262 292.6386,31.0442 C291.5536,31.5422 290.2766,31.6052 289.2856,31.6052 C288.3626,31.6052 287.6146,32.3542 287.6146,33.2772 C287.6146,34.2002 288.3626,34.9482 289.2856,34.9482" id="Fill-42" fill="#EFAECE" mask="url(#mask-2)"></path>
                    <path d="M287.9668,40.4961 C289.4928,40.4961 291.4898,40.3841 293.3958,39.5091 C294.1898,39.1441 294.9188,38.6721 295.5628,38.2551 C296.0618,37.9321 296.8088,37.4471 297.1098,37.3831 C297.4108,37.4471 298.1578,37.9321 298.6568,38.2551 C299.3008,38.6721 300.0298,39.1441 300.8238,39.5091 C302.7298,40.3841 304.7258,40.4961 306.2528,40.4961 C307.1758,40.4961 307.9248,39.7471 307.9248,38.8241 C307.9248,37.9011 307.1758,37.1531 306.2528,37.1531 C305.0668,37.1531 303.5348,37.0751 302.2178,36.4711 C301.6448,36.2081 301.0498,35.8221 300.4748,35.4491 C299.3538,34.7231 298.2948,34.0361 297.1098,34.0361 C295.9248,34.0361 294.8658,34.7231 293.7448,35.4501 C293.1698,35.8221 292.5748,36.2081 292.0018,36.4711 C290.6838,37.0751 289.1538,37.1531 287.9668,37.1531 C287.0438,37.1531 286.2958,37.9011 286.2958,38.8241 C286.2958,39.7471 287.0438,40.4961 287.9668,40.4961" id="Fill-43" fill="#EFAECE" mask="url(#mask-2)"></path>
                    <path d="M286.6479,46.043 C288.3699,46.043 290.6209,45.917 292.7599,44.936 C293.6509,44.526 294.4789,43.99 295.2079,43.518 C295.8339,43.112 296.7799,42.499 297.1039,42.477 C297.4399,42.499 298.3859,43.112 299.0119,43.518 C299.7409,43.99 300.5679,44.526 301.4599,44.936 C303.5989,45.917 305.8499,46.043 307.5719,46.043 C308.4949,46.043 309.2429,45.294 309.2429,44.371 C309.2429,43.448 308.4949,42.7 307.5719,42.7 C306.1899,42.7 304.4039,42.608 302.8539,41.897 C302.1829,41.589 301.4949,41.144 300.8299,40.712 C299.5769,39.9 298.3939,39.134 297.1099,39.134 C295.8259,39.134 294.6429,39.9 293.3899,40.712 C292.7249,41.144 292.0369,41.589 291.3649,41.897 C289.8149,42.608 288.0299,42.7 286.6479,42.7 C285.7249,42.7 284.9769,43.448 284.9769,44.371 C284.9769,45.294 285.7249,46.043 286.6479,46.043" id="Fill-44" fill="#EFAECE" mask="url(#mask-2)"></path>
                    <path d="M308.8906,48.2471 C307.3126,48.2471 305.2726,48.1421 303.4906,47.3241 C302.7206,46.9711 301.9396,46.4651 301.1836,45.9751 C299.8006,45.0781 298.4936,44.2311 297.1096,44.2311 C295.7256,44.2311 294.4196,45.0781 293.0366,45.9751 C292.2806,46.4651 291.4996,46.9711 290.7296,47.3241 C288.9466,48.1421 286.9066,48.2471 285.3286,48.2471 C284.4066,48.2471 283.6576,48.9951 283.6576,49.9181 C283.6576,50.8421 284.4066,51.5901 285.3286,51.5901 C287.2466,51.5901 289.7526,51.4501 292.1236,50.3621 C293.1136,49.9081 294.0376,49.3091 294.8536,48.7801 C295.5946,48.3001 296.7146,47.5741 297.1096,47.5741 C297.5046,47.5741 298.6246,48.3001 299.3656,48.7801 C300.1816,49.3091 301.1056,49.9081 302.0966,50.3621 C304.4676,51.4501 306.9726,51.5901 308.8906,51.5901 C309.8136,51.5901 310.5616,50.8421 310.5616,49.9181 C310.5616,48.9951 309.8136,48.2471 308.8906,48.2471" id="Fill-45" fill="#EFAECE" mask="url(#mask-2)"></path>
                    <polygon id="Fill-46" fill="#000000" mask="url(#mask-2)" points="26.373 136.6396 25.349 136.6396 25.351 85.9396 26.375 85.9396"></polygon>
                    <path d="M24.4863,89.8848 C24.9033,89.8848 25.2513,89.7918 25.5333,89.6938 C25.6393,89.7188 25.7483,89.7368 25.8623,89.7368 C25.9763,89.7368 26.0853,89.7188 26.1913,89.6938 C26.4723,89.7918 26.8203,89.8848 27.2373,89.8848 C29.7413,89.8848 31.7773,87.8488 31.7773,85.3448 C31.7773,84.3578 30.9763,83.5568 29.9893,83.5568 C29.0023,83.5568 28.2013,84.3578 28.2013,85.3448 C28.2013,85.8458 27.8183,86.2578 27.3303,86.3038 C27.3113,86.2968 27.2903,86.2878 27.2683,86.2798 L27.2683,81.1108 C27.2683,80.3328 26.6383,79.7038 25.8623,79.7038 C25.0853,79.7038 24.4553,80.3328 24.4553,81.1108 L24.4553,86.2798 C24.4343,86.2878 24.4133,86.2968 24.3943,86.3038 C23.9063,86.2578 23.5233,85.8458 23.5233,85.3448 C23.5233,84.3578 22.7223,83.5568 21.7353,83.5568 C20.7473,83.5568 19.9473,84.3578 19.9473,85.3448 C19.9473,87.8488 21.9833,89.8848 24.4863,89.8848" id="Fill-47" fill="#A2D39F" mask="url(#mask-2)"></path>
                    <path d="M23.8916,96.5029 C24.6126,96.5029 25.1806,96.2679 25.5956,96.0959 C25.6806,96.0609 25.7876,96.0159 25.8626,95.9889 C25.9366,96.0159 26.0436,96.0609 26.1286,96.0959 C26.5436,96.2679 27.1116,96.5029 27.8326,96.5029 C30.6496,96.5029 33.0556,94.4119 33.4296,91.6399 C33.5616,90.6609 32.8746,89.7609 31.8966,89.6289 C30.9176,89.4969 30.0176,90.1829 29.8856,91.1619 C29.7506,92.1599 28.8796,92.9159 27.8556,92.9269 C27.7846,92.9099 27.6196,92.8419 27.4966,92.7909 C27.0966,92.6249 26.5466,92.3979 25.8626,92.3979 C25.1776,92.3979 24.6286,92.6249 24.2276,92.7909 C24.1046,92.8419 23.9406,92.9099 23.8696,92.9269 C22.8446,92.9159 21.9746,92.1599 21.8396,91.1619 C21.7066,90.1839 20.8076,89.4969 19.8286,89.6289 C18.8496,89.7609 18.1626,90.6609 18.2956,91.6399 C18.6696,94.4119 21.0756,96.5029 23.8916,96.5029" id="Fill-48" fill="#A2D39F" mask="url(#mask-2)"></path>
                    <path d="M23.2964,103.1211 C24.1284,103.1211 24.8104,102.8381 25.3084,102.6321 C25.4934,102.5551 25.7724,102.4391 25.8574,102.4331 C25.9514,102.4391 26.2314,102.5551 26.4154,102.6321 C26.9144,102.8381 27.5964,103.1211 28.4284,103.1211 C31.5814,103.1211 34.3744,100.9051 35.0684,97.8531 C35.2874,96.8911 34.6854,95.9331 33.7224,95.7131 C32.7594,95.4941 31.8004,96.0971 31.5814,97.0591 C31.2544,98.5001 29.9274,99.5451 28.4284,99.5451 C28.3084,99.5451 28.0174,99.4241 27.7844,99.3271 C27.2774,99.1171 26.6464,98.8561 25.8624,98.8561 C25.0784,98.8561 24.4474,99.1171 23.9404,99.3271 C23.7074,99.4241 23.4164,99.5451 23.2964,99.5451 C21.7964,99.5451 20.4704,98.5001 20.1424,97.0591 C19.9234,96.0971 18.9654,95.4941 18.0024,95.7131 C17.0394,95.9331 16.4364,96.8911 16.6554,97.8531 C17.3504,100.9051 20.1434,103.1211 23.2964,103.1211" id="Fill-49" fill="#A2D39F" mask="url(#mask-2)"></path>
                    <path d="M22.7012,109.7393 C23.6432,109.7393 24.4072,109.4223 25.0212,109.1683 C25.3352,109.0383 25.6902,108.8903 25.8622,108.8903 C26.0342,108.8903 26.3892,109.0383 26.7022,109.1683 C27.3172,109.4223 28.0812,109.7393 29.0232,109.7393 C32.5542,109.7393 35.7142,107.3863 36.7082,104.0183 C36.9882,103.0713 36.4462,102.0773 35.4992,101.7983 C34.5522,101.5173 33.5582,102.0593 33.2782,103.0063 C32.7292,104.8643 30.9802,106.1633 29.0232,106.1633 C28.7932,106.1633 28.4422,106.0173 28.0712,105.8643 C27.4812,105.6193 26.7452,105.3143 25.8622,105.3143 C24.9782,105.3143 24.2432,105.6193 23.6532,105.8643 C23.2822,106.0173 22.9312,106.1633 22.7012,106.1633 C20.7442,106.1633 18.9942,104.8643 18.4462,103.0063 C18.1662,102.0583 17.1712,101.5173 16.2252,101.7983 C15.2782,102.0773 14.7372,103.0713 15.0162,104.0183 C16.0102,107.3863 19.1702,109.7393 22.7012,109.7393" id="Fill-50" fill="#A2D39F" mask="url(#mask-2)"></path>
                    <path d="M22.1064,116.3564 C23.1584,116.3564 24.0324,115.9954 24.7344,115.7044 C25.1744,115.5214 25.5904,115.3494 25.8624,115.3494 C26.1334,115.3494 26.5494,115.5214 26.9894,115.7044 C27.6924,115.9954 28.5664,116.3564 29.6184,116.3564 C33.5554,116.3564 37.0644,113.8644 38.3504,110.1534 C38.6734,109.2204 38.1794,108.2024 37.2464,107.8784 C36.3134,107.5544 35.2944,108.0484 34.9714,108.9824 C34.1844,111.2534 32.0324,112.7804 29.6184,112.7804 C29.2774,112.7804 28.8514,112.6044 28.3584,112.3994 C27.6844,112.1214 26.8454,111.7734 25.8624,111.7734 C24.8794,111.7734 24.0404,112.1214 23.3664,112.3994 C22.8734,112.6044 22.4464,112.7804 22.1064,112.7804 C19.6914,112.7804 17.5404,111.2534 16.7524,108.9824 C16.4294,108.0484 15.4104,107.5544 14.4774,107.8784 C13.5444,108.2024 13.0504,109.2204 13.3744,110.1534 C14.6594,113.8644 18.1684,116.3564 22.1064,116.3564" id="Fill-51" fill="#A2D39F" mask="url(#mask-2)"></path>
                    <path d="M38.9746,113.9561 C38.0536,113.6001 37.0176,114.0581 36.6616,114.9781 C35.6386,117.6221 33.0466,119.3981 30.2136,119.3981 C29.7626,119.3981 29.2446,119.1851 28.6456,118.9351 C27.8486,118.6051 26.9446,118.2311 25.8626,118.2311 C24.7796,118.2311 23.8766,118.6051 23.0786,118.9351 C22.4796,119.1851 21.9626,119.3981 21.5116,119.3981 C18.6776,119.3981 16.0866,117.6221 15.0626,114.9781 C14.7066,114.0581 13.6706,113.6001 12.7496,113.9561 C11.8286,114.3121 11.3706,115.3481 11.7276,116.2691 C13.2806,120.2801 17.2116,122.9751 21.5116,122.9751 C22.6736,122.9751 23.6576,122.5671 24.4476,122.2401 C24.9846,122.0181 25.4916,121.8081 25.8626,121.8081 C26.2336,121.8081 26.7406,122.0181 27.2766,122.2401 C28.0676,122.5671 29.0516,122.9751 30.2136,122.9751 C34.5126,122.9751 38.4446,120.2801 39.9966,116.2691 C40.3526,115.3481 39.8956,114.3121 38.9746,113.9561" id="Fill-52" fill="#A2D39F" mask="url(#mask-2)"></path>
                    <polyline id="Fill-53" fill="#A1D29D" mask="url(#mask-2)" points="151.8096 53.3281 151.8096 76.0861 127.2166 76.0861 127.2166 53.3281"></polyline>
                    <polygon id="Fill-54" fill="#000000" mask="url(#mask-2)" points="152.3369 76.6133 126.6889 76.6133 126.6889 53.3283 127.7439 53.3283 127.7439 75.5583 151.2819 75.5583 151.2819 53.3283 152.3369 53.3283"></polygon>
                    <polygon id="Fill-55" fill="#EF5722" mask="url(#mask-2)" points="130.729 75.901 148.295 75.901 148.295 72.739 130.729 72.739"></polygon>
                    <path d="M131.257,75.374 L147.769,75.374 L147.769,73.267 L131.257,73.267 L131.257,75.374 Z M130.202,76.429 L148.823,76.429 L148.823,72.212 L130.202,72.212 L130.202,76.429 Z" id="Fill-56" fill="#000000" mask="url(#mask-2)"></path>
                    <polygon id="Fill-57" fill="#EEADCD" mask="url(#mask-2)" points="134.243 72.739 144.783 72.739 144.783 58.692 134.243 58.692"></polygon>
                    <path d="M134.77,72.212 L144.255,72.212 L144.255,59.22 L134.77,59.22 L134.77,72.212 Z M133.715,73.267 L145.31,73.267 L145.31,58.165 L133.715,58.165 L133.715,73.267 Z" id="Fill-58" fill="#000000" mask="url(#mask-2)"></path>
                    <polygon id="Fill-59" fill="#DAA725" mask="url(#mask-2)" points="123.7031 53.3281 139.5131 39.2751 155.3231 53.3281"></polygon>
                    <path d="M125.0894,52.8008 L153.9364,52.8008 L139.5124,39.9808 L125.0894,52.8008 Z M156.7094,53.8558 L122.3174,53.8558 L139.5124,38.5708 L156.7094,53.8558 Z" id="Fill-60" fill="#000000" mask="url(#mask-2)"></path>
                    <polyline id="Fill-61" fill="#DAA725" mask="url(#mask-2)" points="53.9146 53.3281 53.9146 76.0861 29.3216 76.0861 29.3216 53.3281"></polyline>
                    <polygon id="Fill-62" fill="#000000" mask="url(#mask-2)" points="54.4419 76.6133 28.7939 76.6133 28.7939 53.3283 29.8489 53.3283 29.8489 75.5583 53.3869 75.5583 53.3869 53.3283 54.4419 53.3283"></polygon>
                    <polygon id="Fill-63" fill="#EEADCD" mask="url(#mask-2)" points="32.834 75.901 50.401 75.901 50.401 72.739 32.834 72.739"></polygon>
                    <path d="M33.362,75.374 L49.874,75.374 L49.874,73.267 L33.362,73.267 L33.362,75.374 Z M32.307,76.429 L50.929,76.429 L50.929,72.212 L32.307,72.212 L32.307,76.429 Z" id="Fill-64" fill="#000000" mask="url(#mask-2)"></path>
                    <polygon id="Fill-65" fill="#A1D29D" mask="url(#mask-2)" points="36.348 72.739 46.888 72.739 46.888 58.692 36.348 58.692"></polygon>
                    <path d="M36.875,72.212 L46.36,72.212 L46.36,59.22 L36.875,59.22 L36.875,72.212 Z M35.821,73.267 L47.415,73.267 L47.415,58.165 L35.821,58.165 L35.821,73.267 Z" id="Fill-66" fill="#000000" mask="url(#mask-2)"></path>
                    <polygon id="Fill-67" fill="#EF5722" mask="url(#mask-2)" points="25.8081 53.3281 41.6181 39.2751 57.4281 53.3281"></polygon>
                    <path d="M27.1943,52.8008 L56.0413,52.8008 L41.6183,39.9808 L27.1943,52.8008 Z M58.8143,53.8558 L24.4223,53.8558 L41.6183,38.5708 L58.8143,53.8558 Z" id="Fill-68" fill="#000000" mask="url(#mask-2)"></path>
                    <polyline id="Fill-69" fill="#EEADCD" mask="url(#mask-2)" points="289.6191 53.3281 289.6191 76.0861 265.0261 76.0861 265.0261 53.3281"></polyline>
                    <polygon id="Fill-70" fill="#000000" mask="url(#mask-2)" points="290.1465 76.6133 264.4985 76.6133 264.4985 53.3283 265.5535 53.3283 265.5535 75.5583 289.0915 75.5583 289.0915 53.3283 290.1465 53.3283"></polygon>
                    <polygon id="Fill-71" fill="#EF5722" mask="url(#mask-2)" points="268.54 75.901 286.106 75.901 286.106 72.739 268.54 72.739"></polygon>
                    <path d="M269.067,75.374 L285.579,75.374 L285.579,73.267 L269.067,73.267 L269.067,75.374 Z M268.012,76.429 L286.633,76.429 L286.633,72.212 L268.012,72.212 L268.012,76.429 Z" id="Fill-72" fill="#000000" mask="url(#mask-2)"></path>
                    <polygon id="Fill-73" fill="#DAA725" mask="url(#mask-2)" points="272.053 72.739 282.593 72.739 282.593 58.692 272.053 58.692"></polygon>
                    <path d="M272.58,72.212 L282.065,72.212 L282.065,59.22 L272.58,59.22 L272.58,72.212 Z M271.525,73.267 L283.12,73.267 L283.12,58.165 L271.525,58.165 L271.525,73.267 Z" id="Fill-74" fill="#000000" mask="url(#mask-2)"></path>
                    <polygon id="Fill-75" fill="#A1D29D" mask="url(#mask-2)" points="261.5127 53.3281 277.3227 39.2751 293.1327 53.3281"></polygon>
                    <path d="M262.8989,52.8008 L291.7459,52.8008 L277.3229,39.9808 L262.8989,52.8008 Z M294.5189,53.8558 L260.1269,53.8558 L277.3229,38.5708 L294.5189,53.8558 Z" id="Fill-76" fill="#000000" mask="url(#mask-2)"></path>
                    <polygon id="Fill-77" fill="#DAA725" mask="url(#mask-2)" points="234.0918 43.7598 234.0918 12.8578 195.5508 12.8578 195.5508 43.7598 180.7338 43.7598 180.7338 76.0288 195.5508 76.0288 206.6848 76.0288 206.6848 58.6588 205.0298 58.6588 205.0298 55.3518 224.6128 55.3518 224.6128 58.6588 222.9578 58.6588 222.9578 76.0288 234.0918 76.0288 248.9088 76.0288 248.9088 43.7598"></polygon>
                    <polygon id="Fill-78" fill="#A1D29D" mask="url(#mask-2)" points="209.0645 20.624 212.7645 20.624 212.7645 16.924 216.8785 16.924 216.8785 20.624 220.5785 20.624 220.5785 24.738 216.8785 24.738 216.8785 28.437 212.7645 28.437 212.7645 24.738 209.0645 24.738"></polygon>
                    <polygon id="Fill-79" fill="#EEADCD" mask="url(#mask-2)" points="234.092 43.76 251.915 43.76 251.915 39.081 234.092 39.081"></polygon>
                    <polygon id="Fill-80" fill="#EEADCD" mask="url(#mask-2)" points="177.728 43.76 195.551 43.76 195.551 39.081 177.728 39.081"></polygon>
                    <path d="M213.3501,27.8525 L216.2931,27.8525 L216.2931,24.1525 L219.9931,24.1525 L219.9931,21.2095 L216.2931,21.2095 L216.2931,17.5095 L213.3501,17.5095 L213.3501,21.2095 L209.6501,21.2095 L209.6501,24.1525 L213.3501,24.1525 L213.3501,27.8525 Z M217.4641,29.0235 L212.1791,29.0235 L212.1791,25.3235 L208.4791,25.3235 L208.4791,20.0385 L212.1791,20.0385 L212.1791,16.3385 L217.4641,16.3385 L217.4641,20.0385 L221.1641,20.0385 L221.1641,25.3235 L217.4641,25.3235 L217.4641,29.0235 Z" id="Fill-81" fill="#000000" mask="url(#mask-2)"></path>
                    <polygon id="Fill-82" fill="#EEADCD" mask="url(#mask-2)" points="192.556 12.857 237.086 12.857 237.086 8.179 192.556 8.179"></polygon>
                    <polygon id="Fill-83" fill="#EF5722" mask="url(#mask-2)" points="183.981 54.798 192.255 54.798 192.255 46.524 183.981 46.524"></polygon>
                    <path d="M184.566,54.212 L191.669,54.212 L191.669,47.109 L184.566,47.109 L184.566,54.212 Z M183.395,55.384 L192.84,55.384 L192.84,45.938 L183.395,45.938 L183.395,55.384 Z" id="Fill-84" fill="#000000" mask="url(#mask-2)"></path>
                    <polygon id="Fill-85" fill="#EF5722" mask="url(#mask-2)" points="183.981 66.428 192.255 66.428 192.255 58.154 183.981 58.154"></polygon>
                    <path d="M184.566,65.842 L191.669,65.842 L191.669,58.738 L184.566,58.738 L184.566,65.842 Z M183.395,67.014 L192.84,67.014 L192.84,57.568 L183.395,57.568 L183.395,67.014 Z" id="Fill-86" fill="#000000" mask="url(#mask-2)"></path>
                    <polygon id="Fill-87" fill="#EF5722" mask="url(#mask-2)" points="218.952 40.208 227.226 40.208 227.226 31.934 218.952 31.934"></polygon>
                    <path d="M219.537,39.622 L226.64,39.622 L226.64,32.519 L219.537,32.519 L219.537,39.622 Z M218.366,40.794 L227.811,40.794 L227.811,31.348 L218.366,31.348 L218.366,40.794 Z" id="Fill-88" fill="#000000" mask="url(#mask-2)"></path>
                    <polygon id="Fill-89" fill="#EF5722" mask="url(#mask-2)" points="218.952 51.838 227.226 51.838 227.226 43.564 218.952 43.564"></polygon>
                    <path d="M219.537,51.252 L226.64,51.252 L226.64,44.148 L219.537,44.148 L219.537,51.252 Z M218.366,52.423 L227.811,52.423 L227.811,42.978 L218.366,42.978 L218.366,52.423 Z" id="Fill-90" fill="#000000" mask="url(#mask-2)"></path>
                    <polygon id="Fill-91" fill="#EF5722" mask="url(#mask-2)" points="202.348 40.208 210.623 40.208 210.623 31.934 202.348 31.934"></polygon>
                    <path d="M202.934,39.622 L210.037,39.622 L210.037,32.519 L202.934,32.519 L202.934,39.622 Z M201.762,40.794 L211.208,40.794 L211.208,31.348 L201.762,31.348 L201.762,40.794 Z" id="Fill-92" fill="#000000" mask="url(#mask-2)"></path>
                    <polygon id="Fill-93" fill="#EF5722" mask="url(#mask-2)" points="202.348 51.838 210.623 51.838 210.623 43.564 202.348 43.564"></polygon>
                    <path d="M202.934,51.252 L210.037,51.252 L210.037,44.148 L202.934,44.148 L202.934,51.252 Z M201.762,52.423 L211.208,52.423 L211.208,42.978 L201.762,42.978 L201.762,52.423 Z" id="Fill-94" fill="#000000" mask="url(#mask-2)"></path>
                    <polygon id="Fill-95" fill="#EF5722" mask="url(#mask-2)" points="237.234 54.798 245.508 54.798 245.508 46.524 237.234 46.524"></polygon>
                    <path d="M237.819,54.212 L244.922,54.212 L244.922,47.109 L237.819,47.109 L237.819,54.212 Z M236.648,55.384 L246.093,55.384 L246.093,45.938 L236.648,45.938 L236.648,55.384 Z" id="Fill-96" fill="#000000" mask="url(#mask-2)"></path>
                    <polygon id="Fill-97" fill="#EF5722" mask="url(#mask-2)" points="237.234 66.428 245.508 66.428 245.508 58.154 237.234 58.154"></polygon>
                    <path d="M237.819,65.842 L244.922,65.842 L244.922,58.738 L237.819,58.738 L237.819,65.842 Z M236.648,67.014 L246.093,67.014 L246.093,57.568 L236.648,57.568 L236.648,67.014 Z" id="Fill-98" fill="#000000" mask="url(#mask-2)"></path>
                    <polygon id="Fill-99" fill="#A1D29D" mask="url(#mask-2)" points="205.03 58.659 224.613 58.659 224.613 55.351 205.03 55.351"></polygon>
                    <polygon id="Fill-100" fill="#EEADCD" mask="url(#mask-2)" points="206.6851 58.6592 206.6851 76.0282 214.8211 76.0282 222.9581 76.0282 222.9581 58.6592"></polygon>
                    <path d="M234.678,43.174 L251.329,43.174 L251.329,39.667 L234.678,39.667 L234.678,43.174 Z M234.677,75.442 L248.323,75.442 L248.323,44.345 L234.677,44.345 L234.677,75.442 Z M223.543,75.442 L223.543,59.245 L225.199,59.245 L225.199,54.766 L204.444,54.766 L204.444,59.245 L206.1,59.245 L206.1,75.442 L196.137,75.442 L196.137,13.443 L233.506,13.443 L233.506,75.442 L223.543,75.442 Z M205.616,58.074 L224.028,58.074 L224.028,55.937 L205.616,55.937 L205.616,58.074 Z M215.407,75.442 L222.372,75.442 L222.372,59.245 L215.407,59.245 L215.407,75.442 Z M207.271,75.442 L214.236,75.442 L214.236,59.245 L207.271,59.245 L207.271,75.442 Z M193.142,12.273 L236.501,12.273 L236.501,8.765 L193.142,8.765 L193.142,12.273 Z M178.314,43.174 L194.965,43.174 L194.965,39.667 L178.314,39.667 L178.314,43.174 Z M181.319,75.442 L194.965,75.442 L194.965,44.345 L181.319,44.345 L181.319,75.442 Z M234.677,38.495 L234.677,13.443 L237.672,13.443 L237.672,7.594 L191.971,7.594 L191.971,13.443 L194.965,13.443 L194.965,38.495 L177.143,38.495 L177.143,44.346 L180.148,44.346 L180.148,76.613 L194.965,76.613 L206.1,76.613 L214.236,76.613 L215.407,76.613 L223.543,76.613 L234.677,76.613 L249.495,76.613 L249.495,44.346 L252.5,44.346 L252.5,38.495 L234.677,38.495 Z" id="Fill-101" fill="#000000" mask="url(#mask-2)"></path>
                    <polygon id="Fill-102" fill="#A1D29D" mask="url(#mask-2)" points="100.1592 110.4941 100.1592 79.5931 61.6182 79.5931 61.6182 110.4941 46.8012 110.4941 46.8012 142.7631 61.6182 142.7631 72.7522 142.7631 72.7522 125.3941 71.0972 125.3941 71.0972 122.0871 90.6802 122.0871 90.6802 125.3941 89.0252 125.3941 89.0252 142.7631 100.1592 142.7631 114.9762 142.7631 114.9762 110.4941"></polygon>
                    <polygon id="Fill-103" fill="#EF5722" mask="url(#mask-2)" points="75.1318 87.3594 78.8318 87.3594 78.8318 83.6594 82.9458 83.6594 82.9458 87.3594 86.6458 87.3594 86.6458 91.4724 82.9458 91.4724 82.9458 95.1724 78.8318 95.1724 78.8318 91.4724 75.1318 91.4724"></polygon>
                    <polygon id="Fill-104" fill="#EEADCD" mask="url(#mask-2)" points="100.159 110.494 117.982 110.494 117.982 105.816 100.159 105.816"></polygon>
                    <polygon id="Fill-105" fill="#EEADCD" mask="url(#mask-2)" points="43.796 110.494 61.619 110.494 61.619 105.816 43.796 105.816"></polygon>
                    <path d="M79.4175,94.5869 L82.3595,94.5869 L82.3595,90.8869 L86.0605,90.8869 L86.0605,87.9439 L82.3595,87.9439 L82.3595,84.2449 L79.4175,84.2449 L79.4175,87.9439 L75.7175,87.9439 L75.7175,90.8869 L79.4175,90.8869 L79.4175,94.5869 Z M83.5315,95.7589 L78.2465,95.7589 L78.2465,92.0589 L74.5455,92.0589 L74.5455,86.7739 L78.2465,86.7739 L78.2465,83.0729 L83.5315,83.0729 L83.5315,86.7739 L87.2315,86.7739 L87.2315,92.0589 L83.5315,92.0589 L83.5315,95.7589 Z" id="Fill-106" fill="#000000" mask="url(#mask-2)"></path>
                    <polygon id="Fill-107" fill="#EEADCD" mask="url(#mask-2)" points="58.624 79.593 103.154 79.593 103.154 74.914 58.624 74.914"></polygon>
                    <polygon id="Fill-108" fill="#DAA725" mask="url(#mask-2)" points="50.048 121.533 58.322 121.533 58.322 113.259 50.048 113.259"></polygon>
                    <path d="M50.634,120.947 L57.737,120.947 L57.737,113.843 L50.634,113.843 L50.634,120.947 Z M49.463,122.118 L58.908,122.118 L58.908,112.673 L49.463,112.673 L49.463,122.118 Z" id="Fill-109" fill="#000000" mask="url(#mask-2)"></path>
                    <polygon id="Fill-110" fill="#DAA725" mask="url(#mask-2)" points="50.048 133.162 58.322 133.162 58.322 124.888 50.048 124.888"></polygon>
                    <path d="M50.634,132.577 L57.737,132.577 L57.737,125.473 L50.634,125.473 L50.634,132.577 Z M49.463,133.748 L58.908,133.748 L58.908,124.302 L49.463,124.302 L49.463,133.748 Z" id="Fill-111" fill="#000000" mask="url(#mask-2)"></path>
                    <polygon id="Fill-112" fill="#DAA725" mask="url(#mask-2)" points="85.019 106.943 93.293 106.943 93.293 98.669 85.019 98.669"></polygon>
                    <path d="M85.604,106.357 L92.707,106.357 L92.707,99.253 L85.604,99.253 L85.604,106.357 Z M84.432,107.528 L93.878,107.528 L93.878,98.083 L84.432,98.083 L84.432,107.528 Z" id="Fill-113" fill="#000000" mask="url(#mask-2)"></path>
                    <polygon id="Fill-114" fill="#DAA725" mask="url(#mask-2)" points="85.019 118.572 93.293 118.572 93.293 110.298 85.019 110.298"></polygon>
                    <path d="M85.604,117.986 L92.707,117.986 L92.707,110.883 L85.604,110.883 L85.604,117.986 Z M84.432,119.158 L93.878,119.158 L93.878,109.712 L84.432,109.712 L84.432,119.158 Z" id="Fill-115" fill="#000000" mask="url(#mask-2)"></path>
                    <polygon id="Fill-116" fill="#DAA725" mask="url(#mask-2)" points="68.416 106.943 76.69 106.943 76.69 98.669 68.416 98.669"></polygon>
                    <path d="M69.001,106.357 L76.105,106.357 L76.105,99.253 L69.001,99.253 L69.001,106.357 Z M67.83,107.528 L77.276,107.528 L77.276,98.083 L67.83,98.083 L67.83,107.528 Z" id="Fill-117" fill="#000000" mask="url(#mask-2)"></path>
                    <polygon id="Fill-118" fill="#DAA725" mask="url(#mask-2)" points="68.416 118.572 76.69 118.572 76.69 110.298 68.416 110.298"></polygon>
                    <path d="M69.001,117.986 L76.105,117.986 L76.105,110.883 L69.001,110.883 L69.001,117.986 Z M67.83,119.158 L77.276,119.158 L77.276,109.712 L67.83,109.712 L67.83,119.158 Z" id="Fill-119" fill="#000000" mask="url(#mask-2)"></path>
                    <polygon id="Fill-120" fill="#DAA725" mask="url(#mask-2)" points="103.301 121.533 111.575 121.533 111.575 113.259 103.301 113.259"></polygon>
                    <path d="M103.886,120.947 L110.989,120.947 L110.989,113.843 L103.886,113.843 L103.886,120.947 Z M102.715,122.118 L112.161,122.118 L112.161,112.673 L102.715,112.673 L102.715,122.118 Z" id="Fill-121" fill="#000000" mask="url(#mask-2)"></path>
                    <polygon id="Fill-122" fill="#DAA725" mask="url(#mask-2)" points="103.301 133.162 111.575 133.162 111.575 124.888 103.301 124.888"></polygon>
                    <path d="M103.886,132.577 L110.989,132.577 L110.989,125.473 L103.886,125.473 L103.886,132.577 Z M102.715,133.748 L112.161,133.748 L112.161,124.302 L102.715,124.302 L102.715,133.748 Z" id="Fill-123" fill="#000000" mask="url(#mask-2)"></path>
                    <polygon id="Fill-124" fill="#EF5722" mask="url(#mask-2)" points="71.098 125.395 90.681 125.395 90.681 122.087 71.098 122.087"></polygon>
                    <polygon id="Fill-125" fill="#EEADCD" mask="url(#mask-2)" points="72.7524 125.3945 72.7524 142.7625 80.8884 142.7625 89.0254 142.7625 89.0254 125.3945"></polygon>
                    <path d="M100.745,109.909 L117.396,109.909 L117.396,106.401 L100.745,106.401 L100.745,109.909 Z M100.745,142.178 L114.391,142.178 L114.391,111.08 L100.745,111.08 L100.745,142.178 Z M89.611,142.178 L89.611,125.98 L91.266,125.98 L91.266,121.501 L70.512,121.501 L70.512,125.98 L72.167,125.98 L72.167,142.178 L62.204,142.178 L62.204,80.179 L99.573,80.179 L99.573,142.178 L89.611,142.178 Z M71.683,124.809 L90.095,124.809 L90.095,122.672 L71.683,122.672 L71.683,124.809 Z M81.474,142.178 L88.439,142.178 L88.439,125.981 L81.474,125.981 L81.474,142.178 Z M73.338,142.178 L80.303,142.178 L80.303,125.981 L73.338,125.981 L73.338,142.178 Z M59.209,79.007 L102.568,79.007 L102.568,75.5 L59.209,75.5 L59.209,79.007 Z M44.382,109.909 L61.033,109.909 L61.033,106.401 L44.382,106.401 L44.382,109.909 Z M47.387,142.178 L61.033,142.178 L61.033,111.08 L47.387,111.08 L47.387,142.178 Z M100.745,105.23 L100.745,80.179 L103.74,80.179 L103.74,74.329 L58.038,74.329 L58.038,80.179 L61.033,80.179 L61.033,105.23 L43.21,105.23 L43.21,111.08 L46.215,111.08 L46.215,143.349 L61.033,143.349 L72.167,143.349 L80.303,143.349 L81.474,143.349 L89.611,143.349 L100.745,143.349 L115.562,143.349 L115.562,111.08 L118.567,111.08 L118.567,105.23 L100.745,105.23 Z" id="Fill-126" fill="#000000" mask="url(#mask-2)"></path>
                    <path d="M152.1475,105.5713 C152.1475,112.9363 146.1775,118.9063 138.8125,118.9063 C131.4475,118.9063 125.4775,112.9363 125.4775,105.5713 C125.4775,98.2063 131.4475,92.2363 138.8125,92.2363 C146.1775,92.2363 152.1475,98.2063 152.1475,105.5713" id="Fill-127" fill="#DAA725" mask="url(#mask-2)"></path>
                    <path d="M148.9976,104.8096 L147.9736,104.8096 C147.9736,106.1586 146.9936,107.2766 145.7086,107.5046 C145.7276,107.2956 145.7406,107.0846 145.7406,106.8716 L145.7406,103.9426 L144.7166,103.9426 L144.7166,106.8716 C144.7166,107.0826 144.7046,107.2916 144.6826,107.4976 C143.4296,107.2446 142.4836,106.1346 142.4836,104.8096 L141.4596,104.8096 C141.4596,106.6316 142.7606,108.1556 144.4816,108.5026 C143.8176,110.8086 141.7866,112.5366 139.3246,112.7486 L139.3246,101.9966 C140.4596,101.7596 141.3146,100.7516 141.3146,99.5476 L140.2906,99.5476 C140.2906,100.1816 139.8866,100.7196 139.3246,100.9286 L139.3246,98.3406 L138.2996,98.3406 L138.2996,100.9286 C137.7376,100.7196 137.3336,100.1816 137.3336,99.5476 L136.3096,99.5476 C136.3096,100.7516 137.1646,101.7596 138.2996,101.9966 L138.2996,112.7486 C135.8376,112.5366 133.8066,110.8086 133.1426,108.5026 C134.8636,108.1556 136.1646,106.6316 136.1646,104.8096 L135.1406,104.8096 C135.1406,106.1346 134.1946,107.2446 132.9416,107.4976 C132.9196,107.2916 132.9076,107.0826 132.9076,106.8716 L132.9076,103.9426 L131.8836,103.9426 L131.8836,106.8716 C131.8836,107.0846 131.8966,107.2956 131.9156,107.5046 C130.6316,107.2766 129.6516,106.1586 129.6516,104.8096 L128.6266,104.8096 C128.6266,106.7886 130.1606,108.4116 132.1016,108.5626 C132.8186,111.4066 135.2926,113.5516 138.2996,113.7736 L138.2996,131.4836 L139.3246,131.4836 L139.3246,113.7736 C142.3316,113.5516 144.8056,111.4066 145.5226,108.5626 C147.4636,108.4126 148.9976,106.7886 148.9976,104.8096" id="Fill-128" fill="#000000" mask="url(#mask-2)"></path>
                    <path d="M209.8481,95.0352 C209.8481,97.0112 206.7821,98.9052 206.7101,100.7652 C206.6331,102.7712 209.5431,104.7992 209.3911,106.6222 C209.2211,108.6812 205.9881,110.4192 205.7351,112.1782 C205.4211,114.3602 208.0421,116.6162 207.6251,118.2122 C206.7861,121.4202 204.2761,121.9682 203.1721,121.9682 C202.0691,121.9682 199.5581,121.4202 198.7201,118.2122 C198.3021,116.6152 200.9231,114.3592 200.6101,112.1772 C200.3571,110.4192 197.1241,108.6812 196.9531,106.6232 C196.8021,104.8002 199.7111,102.7712 199.6341,100.7652 C199.5631,98.9062 196.4961,97.0112 196.4961,95.0352 C196.4961,93.0602 199.5631,91.1652 199.6341,89.3062 C199.7111,87.3002 196.8021,85.2712 196.9531,83.4482 C197.1241,81.3892 200.3571,79.6512 200.6101,77.8932 C200.9241,75.7112 198.3021,73.4552 198.7201,71.8582 C199.5591,68.6512 202.0691,68.1032 203.1721,68.1032 C204.2761,68.1032 206.7861,68.6512 207.6251,71.8592 C208.0421,73.4552 205.4211,75.7112 205.7351,77.8932 C205.9881,79.6512 209.2211,81.3902 209.3911,83.4482 C209.5431,85.2712 206.6331,87.2992 206.7101,89.3052 C206.7821,91.1652 209.8481,93.0602 209.8481,95.0352" id="Fill-129" fill="#F05822" mask="url(#mask-2)"></path>
                    <polygon id="Fill-130" fill="#000000" mask="url(#mask-2)" points="206.1035 92.3877 205.3795 91.6627 203.6845 93.3587 203.6845 86.5557 206.1035 84.1367 205.3795 83.4127 203.6845 85.1077 203.6845 79.8897 202.6605 79.8897 202.6605 85.1077 200.9655 83.4127 200.2415 84.1367 202.6605 86.5557 202.6605 93.3587 200.9655 91.6627 200.2415 92.3877 202.6605 94.8057 202.6605 101.6087 200.9655 99.9127 200.2415 100.6377 202.6605 103.0567 202.6605 109.8587 200.9655 108.1627 200.2415 108.8877 202.6605 111.3067 202.6605 118.1087 200.9655 116.4127 200.2415 117.1377 202.6605 119.5567 202.6605 134.0877 203.6845 134.0877 203.6845 119.5567 206.1035 117.1377 205.3795 116.4127 203.6845 118.1087 203.6845 111.3067 206.1035 108.8877 205.3795 108.1627 203.6845 109.8587 203.6845 103.0567 206.1035 100.6377 205.3795 99.9127 203.6845 101.6087 203.6845 94.8057"></polygon>
                    <path d="M164.0254,29.1621 C164.0254,26.6821 160.7124,25.4251 160.7124,23.1211 C160.7124,20.5371 164.3324,19.0141 163.9664,16.1641 C163.5284,12.7501 160.5424,10.0141 156.8474,9.6371 C151.9614,9.1381 147.8254,12.6621 147.8254,17.0791 C147.8254,19.5591 151.1384,20.8171 151.1384,23.1211 C151.1384,25.4251 147.8254,26.6821 147.8254,29.1621 C147.8254,31.6421 151.1384,32.8991 151.1384,35.2031 C151.1384,37.7871 147.5184,39.3101 147.8844,42.1601 C148.3224,45.5741 151.3084,48.3101 155.0034,48.6871 C159.8894,49.1861 164.0254,45.6621 164.0254,41.2451 C164.0254,38.7651 160.7124,37.5071 160.7124,35.2031 C160.7124,32.8991 164.0254,31.6421 164.0254,29.1621" id="Fill-131" fill="#DAA725" mask="url(#mask-2)"></path>
                    <path d="M158.5684,17.6348 C159.1164,17.1968 159.5904,16.8178 160.5724,16.8178 L160.5724,15.7928 C159.2314,15.7928 158.5394,16.3468 157.9294,16.8348 C157.4864,17.1888 157.0884,17.4998 156.4374,17.6088 L156.4374,13.4708 L155.4134,13.4708 L155.4134,17.6088 C154.7614,17.4998 154.3634,17.1888 153.9214,16.8348 C153.3114,16.3468 152.6194,15.7928 151.2774,15.7928 L151.2774,16.8178 C152.2594,16.8178 152.7334,17.1968 153.2814,17.6348 C153.8084,18.0558 154.3994,18.5248 155.4134,18.6458 L155.4134,23.9598 C154.7614,23.8518 154.3634,23.5408 153.9214,23.1868 C153.3114,22.6978 152.6194,22.1458 151.2774,22.1458 L151.2774,23.1688 C152.2594,23.1688 152.7334,23.5478 153.2814,23.9868 C153.8084,24.4078 154.3994,24.8768 155.4134,24.9968 L155.4134,30.3128 C154.7614,30.2038 154.3634,29.8928 153.9214,29.5388 C153.3114,29.0508 152.6194,28.4968 151.2774,28.4968 L151.2774,29.5218 C152.2594,29.5218 152.7334,29.9008 153.2814,30.3388 C153.8084,30.7608 154.3994,31.2288 155.4134,31.3498 L155.4134,36.6638 C154.7614,36.5558 154.3634,36.2448 153.9214,35.8908 C153.3114,35.4028 152.6194,34.8498 151.2774,34.8498 L151.2774,35.8738 C152.2594,35.8738 152.7334,36.2518 153.2814,36.6908 C153.8084,37.1128 154.3994,37.5808 155.4134,37.7008 L155.4134,43.0168 C154.7614,42.9078 154.3634,42.5968 153.9214,42.2428 C153.3114,41.7548 152.6194,41.2008 151.2774,41.2008 L151.2774,42.2258 C152.2594,42.2258 152.7334,42.6048 153.2814,43.0428 C153.8084,43.4648 154.3994,43.9328 155.4134,44.0538 L155.4134,57.9608 L156.4374,57.9608 L156.4374,44.0538 C157.4514,43.9328 158.0414,43.4648 158.5684,43.0428 C159.1164,42.6048 159.5904,42.2258 160.5724,42.2258 L160.5724,41.2008 C159.2314,41.2008 158.5394,41.7548 157.9294,42.2428 C157.4864,42.5968 157.0884,42.9078 156.4374,43.0168 L156.4374,37.7008 C157.4514,37.5808 158.0414,37.1128 158.5684,36.6908 C159.1164,36.2518 159.5904,35.8738 160.5724,35.8738 L160.5724,34.8498 C159.2314,34.8498 158.5394,35.4028 157.9294,35.8908 C157.4864,36.2448 157.0884,36.5558 156.4374,36.6638 L156.4374,31.3498 C157.4514,31.2288 158.0414,30.7608 158.5684,30.3388 C159.1164,29.9008 159.5904,29.5218 160.5724,29.5218 L160.5724,28.4968 C159.2314,28.4968 158.5394,29.0508 157.9294,29.5388 C157.4864,29.8928 157.0884,30.2038 156.4374,30.3128 L156.4374,24.9968 C157.4514,24.8768 158.0414,24.4078 158.5684,23.9868 C159.1164,23.5478 159.5904,23.1688 160.5724,23.1688 L160.5724,22.1458 C159.2314,22.1458 158.5394,22.6978 157.9294,23.1868 C157.4864,23.5408 157.0884,23.8518 156.4374,23.9598 L156.4374,18.6458 C157.4514,18.5248 158.0414,18.0558 158.5684,17.6348" id="Fill-132" fill="#000000" mask="url(#mask-2)"></path>
                    <path d="M230.0864,134.5 C230.0864,131.846 227.9344,129.693 225.2794,129.693 C222.6254,129.693 220.4724,131.846 220.4724,134.5 L230.0864,134.5 Z" id="Fill-133" fill="#A2D39F" mask="url(#mask-2)"></path>
                    <path d="M175.8491,90.5 C176.6401,90.214 178.5591,89.496 178.5591,88.698 C178.5591,87.901 176.1371,87.591 175.8491,86.897 C175.5511,86.179 177.0331,84.248 176.4911,83.707 C175.9491,83.165 174.0191,84.646 173.3001,84.349 C172.6071,84.061 172.2971,81.639 171.4991,81.639 C170.7011,81.639 170.3911,84.061 169.6981,84.349 C168.9781,84.646 167.0491,83.165 166.5071,83.706 C165.9651,84.248 167.4471,86.179 167.1491,86.897 C166.8611,87.591 164.4391,87.901 164.4391,88.698 C164.4391,89.496 166.3581,90.214 167.1491,90.5 L175.8491,90.5 Z" id="Fill-134" fill="#EFAECE" mask="url(#mask-2)"></path>
                    <path d="M267.8491,19.5 C268.6401,19.214 270.5591,18.496 270.5591,17.698 C270.5591,16.901 268.1371,16.591 267.8491,15.897 C267.5511,15.179 269.0331,13.248 268.4911,12.707 C267.9491,12.165 266.0191,13.646 265.3001,13.349 C264.6071,13.061 264.2971,10.639 263.4991,10.639 C262.7011,10.639 262.3911,13.061 261.6981,13.349 C260.9781,13.646 259.0491,12.165 258.5071,12.706 C257.9651,13.248 259.4471,15.179 259.1491,15.897 C258.8611,16.591 256.4391,16.901 256.4391,17.698 C256.4391,18.496 258.3581,19.214 259.1491,19.5 L267.8491,19.5 Z" id="Fill-135" fill="#EF5722" mask="url(#mask-2)"></path>
                    <polyline id="Fill-136" fill="#EF5722" mask="url(#mask-2)" points="186.2031 120.0635 186.2031 142.8215 161.6101 142.8215 161.6101 120.0635"></polyline>
                    <polygon id="Fill-137" fill="#000000" mask="url(#mask-2)" points="186.7305 143.3486 161.0825 143.3486 161.0825 120.0636 162.1375 120.0636 162.1375 142.2936 185.6755 142.2936 185.6755 120.0636 186.7305 120.0636"></polygon>
                    <polygon id="Fill-138" fill="#DAA725" mask="url(#mask-2)" points="165.123 142.636 182.69 142.636 182.69 139.475 165.123 139.475"></polygon>
                    <path d="M165.65,142.109 L182.162,142.109 L182.162,140.002 L165.65,140.002 L165.65,142.109 Z M164.595,143.164 L183.217,143.164 L183.217,138.947 L164.595,138.947 L164.595,143.164 Z" id="Fill-139" fill="#000000" mask="url(#mask-2)"></path>
                    <polygon id="Fill-140" fill="#A1D29D" mask="url(#mask-2)" points="168.637 139.475 179.177 139.475 179.177 125.427 168.637 125.427"></polygon>
                    <path d="M169.164,138.947 L178.649,138.947 L178.649,125.955 L169.164,125.955 L169.164,138.947 Z M168.11,140.002 L179.704,140.002 L179.704,124.9 L168.11,124.9 L168.11,140.002 Z" id="Fill-141" fill="#000000" mask="url(#mask-2)"></path>
                    <polygon id="Fill-142" fill="#EEADCD" mask="url(#mask-2)" points="158.0967 120.0635 173.9067 106.0095 189.7167 120.0635"></polygon>
                    <path d="M159.4829,119.5361 L188.3299,119.5361 L173.9059,106.7151 L159.4829,119.5361 Z M191.1029,120.5911 L156.7109,120.5911 L173.9059,105.3051 L191.1029,120.5911 Z" id="Fill-143" fill="#000000" mask="url(#mask-2)"></path>
                    <g id="Group-146" mask="url(#mask-2)" opacity="0.25" stroke="#000000" stroke-width="2">
                        <g transform="translate(227.000000, 62.000000)" id="Stroke-145">
                            <path d="M62.5,31.2227 C62.5,48.3427 48.621,62.2227 31.5,62.2227 C14.379,62.2227 0.5,48.3427 0.5,31.2227 C0.5,14.1017 14.379,0.2227 31.5,0.2227 C48.621,0.2227 62.5,14.1017 62.5,31.2227 Z"></path>
                        </g>
                    </g>
                    <path d="M289.5,91.5 C289.5,108.621 275.621,122.5 258.5,122.5 C241.379,122.5 227.5,108.621 227.5,91.5 C227.5,74.379 241.379,60.5 258.5,60.5 C275.621,60.5 289.5,74.379 289.5,91.5" id="Fill-147" fill="#EEADCD" mask="url(#mask-2)"></path>
                    <path d="M289.5,91.5 C289.5,108.621 275.621,122.5 258.5,122.5 C241.379,122.5 227.5,108.621 227.5,91.5 C227.5,74.379 241.379,60.5 258.5,60.5 C275.621,60.5 289.5,74.379 289.5,91.5 Z" id="Stroke-148" stroke="#FFFFFF" stroke-width="2" mask="url(#mask-2)"></path>
                    <polygon id="Fill-149" fill="#FFFFFF" mask="url(#mask-2)" points="256 142.773 261 142.773 261 61.773 256 61.773"></polygon>
                    <polygon id="Fill-150" fill="#DAA725" mask="url(#mask-2)" points="261 137.2734 260.293 136.5664 256 140.8594 256 142.7734 256.914 142.7734 261 138.6874"></polygon>
                    <polygon id="Fill-151" fill="#DAA725" mask="url(#mask-2)" points="261 131.1875 261 129.7735 260.293 129.0665 256 133.3595 256 135.7735 256.207 135.9805"></polygon>
                    <polygon id="Fill-152" fill="#DAA725" mask="url(#mask-2)" points="261 123.6875 261 122.2735 260.293 121.5665 256 125.8595 256 128.2735 256.207 128.4805"></polygon>
                    <polygon id="Fill-153" fill="#DAA725" mask="url(#mask-2)" points="261 116.1875 261 114.7735 260.293 114.0665 256 118.3595 256 120.7735 256.207 120.9805"></polygon>
                    <polygon id="Fill-154" fill="#DAA725" mask="url(#mask-2)" points="261 108.6875 261 107.2735 260.293 106.5665 256 110.8595 256 113.2735 256.207 113.4805"></polygon>
                    <polygon id="Fill-155" fill="#DAA725" mask="url(#mask-2)" points="261 101.1875 261 99.7735 260.293 99.0665 256 103.3595 256 105.7735 256.207 105.9805"></polygon>
                    <polygon id="Fill-156" fill="#DAA725" mask="url(#mask-2)" points="261 93.6875 261 92.2735 260.293 91.5665 256 95.8595 256 98.2735 256.207 98.4805"></polygon>
                    <polygon id="Fill-157" fill="#DAA725" mask="url(#mask-2)" points="261 86.1875 261 84.7735 260.293 84.0665 256 88.3595 256 90.7735 256.207 90.9805"></polygon>
                    <polygon id="Fill-158" fill="#DAA725" mask="url(#mask-2)" points="261 78.6875 261 77.2735 260.293 76.5665 256 80.8595 256 83.2735 256.207 83.4805"></polygon>
                    <polygon id="Fill-159" fill="#DAA725" mask="url(#mask-2)" points="261 71.1875 261 69.7735 260.293 69.0665 256 73.3595 256 75.7735 256.207 75.9805"></polygon>
                    <polygon id="Fill-160" fill="#DAA725" mask="url(#mask-2)" points="261 63.6875 261 62.2735 260.5 61.7735 260.086 61.7735 256 65.8595 256 68.2735 256.207 68.4805"></polygon>
                    <path d="M256.575,142.198 L260.425,142.198 L260.425,62.348 L256.575,62.348 L256.575,142.198 Z M255.425,143.349 L261.575,143.349 L261.575,61.199 L255.425,61.199 L255.425,143.349 Z" id="Fill-161" fill="#000000" mask="url(#mask-2)"></path>
                    <path d="M262.5,61.2734 C262.5,63.4824 260.709,65.2734 258.5,65.2734 C256.291,65.2734 254.5,63.4824 254.5,61.2734 C254.5,59.0644 256.291,57.2734 258.5,57.2734 C260.709,57.2734 262.5,59.0644 262.5,61.2734" id="Fill-162" fill="#DAA725" mask="url(#mask-2)"></path>
                    <path d="M262.5,61.2734 C262.5,63.4824 260.709,65.2734 258.5,65.2734 C256.291,65.2734 254.5,63.4824 254.5,61.2734 C254.5,59.0644 256.291,57.2734 258.5,57.2734 C260.709,57.2734 262.5,59.0644 262.5,61.2734 Z" id="Stroke-163" stroke="#000000" stroke-width="1.151" mask="url(#mask-2)"></path>
                    <path d="M278.6919,78.8604 C273.5969,73.5544 266.4369,70.2474 258.4999,70.2474 C250.5639,70.2474 243.4039,73.5544 238.3089,78.8604 L225.9999,78.8604 L225.9999,113.7734 L290.9999,113.7734 L290.9999,78.8604 L278.6919,78.8604 Z" id="Fill-164" fill="#000000" mask="url(#mask-2)"></path>
                    <path d="M278.6919,78.8604 C273.5969,73.5544 266.4369,70.2474 258.4999,70.2474 C250.5639,70.2474 243.4039,73.5544 238.3089,78.8604 L225.9999,78.8604 L225.9999,113.7734 L290.9999,113.7734 L290.9999,78.8604 L278.6919,78.8604 Z" id="Stroke-165" stroke="#000000" stroke-width="0.88" mask="url(#mask-2)"></path>
                    <path d="M244.9453,92.3174 C244.4053,92.1894 243.9833,92.0484 243.6793,91.8974 L243.8593,90.2644 C244.9153,90.7774 245.8433,91.0334 246.6433,91.0334 C247.0673,91.0334 247.3993,90.9514 247.6393,90.7874 C247.8793,90.6234 247.9993,90.3804 247.9993,90.0614 C247.9993,89.8214 247.9333,89.6234 247.8013,89.4664 C247.6693,89.3114 247.4793,89.1784 247.2313,89.0714 C246.9833,88.9634 246.5873,88.8134 246.0433,88.6214 C245.5313,88.4454 245.1073,88.2584 244.7713,88.0634 C244.4353,87.8674 244.1693,87.6154 243.9733,87.3064 C243.7773,86.9994 243.6793,86.6214 243.6793,86.1724 C243.6793,85.4534 243.9433,84.8734 244.4713,84.4324 C244.9993,83.9934 245.7553,83.7734 246.7393,83.7734 C247.2033,83.7734 247.6653,83.8254 248.1253,83.9284 C248.5853,84.0334 249.0073,84.1614 249.3913,84.3134 L249.2353,85.8844 C248.7393,85.6694 248.2853,85.5064 247.8733,85.3994 C247.4613,85.2914 247.0513,85.2374 246.6433,85.2374 C246.1873,85.2374 245.8393,85.3134 245.5993,85.4644 C245.3593,85.6174 245.2393,85.8374 245.2393,86.1254 C245.2393,86.3494 245.3033,86.5334 245.4313,86.6764 C245.5593,86.8214 245.7333,86.9414 245.9533,87.0374 C246.1733,87.1324 246.4993,87.2494 246.9313,87.3844 C247.8993,87.6894 248.6053,88.0394 249.0493,88.4354 C249.4933,88.8314 249.7153,89.3734 249.7153,90.0614 C249.7153,90.7164 249.4873,91.2894 249.0313,91.7774 C248.5753,92.2644 247.7193,92.5084 246.4633,92.5084 C245.9913,92.5084 245.4853,92.4454 244.9453,92.3174" id="Fill-166" fill="#FFFFFF" mask="url(#mask-2)"></path>
                    <polygon id="Fill-167" fill="#FFFFFF" mask="url(#mask-2)" points="250.9873 83.9414 256.3633 83.9414 256.3633 85.4284 252.5593 85.4284 252.5593 87.2164 255.5113 87.2164 255.5113 88.7054 252.5593 88.7054 252.5593 90.8534 256.4833 90.8534 256.4833 92.3404 250.9873 92.3404"></polygon>
                    <polygon id="Fill-168" fill="#FFFFFF" mask="url(#mask-2)" points="257.8032 83.9414 263.1792 83.9414 263.1792 85.4284 259.3752 85.4284 259.3752 87.2164 262.3272 87.2164 262.3272 88.7054 259.3752 88.7054 259.3752 90.8534 263.2992 90.8534 263.2992 92.3404 257.8032 92.3404"></polygon>
                    <path d="M271.1948,89.0049 L270.1508,86.0049 L269.0948,89.0049 L271.1948,89.0049 Z M271.6748,90.3489 L268.6148,90.3489 L267.9188,92.3409 L266.4308,92.3409 L269.4188,83.9419 L270.8708,83.9419 L273.8588,92.3409 L272.3708,92.3409 L271.6748,90.3489 Z" id="Fill-169" fill="#FFFFFF" mask="url(#mask-2)"></path>
                    <path d="M238.4717,105.373 C239.2717,105.373 239.8817,105.123 240.3017,104.623 C240.7217,104.123 240.9317,103.429 240.9317,102.541 C240.9317,101.653 240.7217,100.959 240.3017,100.459 C239.8817,99.959 239.2717,99.709 238.4717,99.709 L236.8637,99.709 L236.8637,105.373 L238.4717,105.373 Z M235.3277,98.341 L238.4717,98.341 C239.2717,98.341 239.9857,98.509 240.6137,98.845 C241.2417,99.181 241.7317,99.665 242.0837,100.297 C242.4357,100.929 242.6117,101.677 242.6117,102.541 C242.6117,103.405 242.4357,104.153 242.0837,104.785 C241.7317,105.417 241.2417,105.901 240.6137,106.237 C239.9857,106.573 239.2717,106.741 238.4717,106.741 L235.3277,106.741 L235.3277,98.341 Z" id="Fill-170" fill="#FFFFFF" mask="url(#mask-2)"></path>
                    <path d="M249.4814,104.6289 C249.9174,104.1009 250.1354,103.4049 250.1354,102.5409 C250.1354,101.6769 249.9174,100.9819 249.4814,100.4529 C249.0454,99.9249 248.4194,99.6609 247.6034,99.6609 C246.7874,99.6609 246.1614,99.9249 245.7254,100.4529 C245.2894,100.9819 245.0714,101.6769 245.0714,102.5409 C245.0714,103.4049 245.2894,104.1009 245.7254,104.6289 C246.1614,105.1569 246.7874,105.4209 247.6034,105.4209 C248.4194,105.4209 249.0454,105.1569 249.4814,104.6289 M245.4734,106.3629 C244.8454,105.9989 244.3534,105.4869 243.9974,104.8269 C243.6414,104.1669 243.4634,103.4049 243.4634,102.5409 C243.4634,101.6769 243.6414,100.9149 243.9974,100.2549 C244.3534,99.5949 244.8454,99.0829 245.4734,98.7189 C246.1014,98.3559 246.8114,98.1729 247.6034,98.1729 C248.3954,98.1729 249.1054,98.3559 249.7334,98.7189 C250.3614,99.0829 250.8534,99.5949 251.2094,100.2549 C251.5654,100.9149 251.7434,101.6769 251.7434,102.5409 C251.7434,103.4049 251.5654,104.1669 251.2094,104.8269 C250.8534,105.4869 250.3614,105.9989 249.7334,106.3629 C249.1054,106.7279 248.3954,106.9089 247.6034,106.9089 C246.8114,106.9089 246.1014,106.7279 245.4734,106.3629" id="Fill-171" fill="#FFFFFF" mask="url(#mask-2)"></path>
                    <path d="M254.6416,106.3691 C253.9896,106.0091 253.4836,105.4991 253.1236,104.8391 C252.7636,104.1791 252.5836,103.4131 252.5836,102.5411 C252.5836,101.6771 252.7696,100.9151 253.1416,100.2551 C253.5136,99.5951 254.0296,99.0831 254.6896,98.7191 C255.3496,98.3551 256.0996,98.1731 256.9396,98.1731 C257.7476,98.1731 258.4716,98.3371 259.1116,98.6651 L258.9436,100.1291 C258.5996,99.9771 258.2696,99.8591 257.9536,99.7751 C257.6376,99.6911 257.2956,99.6491 256.9276,99.6491 C256.0716,99.6491 255.4136,99.9131 254.9536,100.4411 C254.4936,100.9691 254.2636,101.6691 254.2636,102.5411 C254.2636,103.4131 254.4896,104.1131 254.9416,104.6401 C255.3936,105.1691 256.0436,105.4321 256.8916,105.4321 C257.2676,105.4321 257.6136,105.3921 257.9296,105.3121 C258.2456,105.2331 258.5836,105.1131 258.9436,104.9531 L259.1116,106.4171 C258.4156,106.7451 257.6756,106.9091 256.8916,106.9091 C256.0436,106.9091 255.2936,106.7281 254.6416,106.3691" id="Fill-172" fill="#FFFFFF" mask="url(#mask-2)"></path>
                    <polygon id="Fill-173" fill="#FFFFFF" mask="url(#mask-2)" points="262.0278 99.8291 259.6518 99.8291 259.6518 98.3411 265.9398 98.3411 265.9398 99.8291 263.5638 99.8291 263.5638 106.7411 262.0278 106.7411"></polygon>
                    <path d="M272.4014,104.6289 C272.8374,104.1009 273.0554,103.4049 273.0554,102.5409 C273.0554,101.6769 272.8374,100.9819 272.4014,100.4529 C271.9654,99.9249 271.3394,99.6609 270.5234,99.6609 C269.7074,99.6609 269.0814,99.9249 268.6454,100.4529 C268.2094,100.9819 267.9914,101.6769 267.9914,102.5409 C267.9914,103.4049 268.2094,104.1009 268.6454,104.6289 C269.0814,105.1569 269.7074,105.4209 270.5234,105.4209 C271.3394,105.4209 271.9654,105.1569 272.4014,104.6289 M268.3934,106.3629 C267.7654,105.9989 267.2734,105.4869 266.9174,104.8269 C266.5614,104.1669 266.3834,103.4049 266.3834,102.5409 C266.3834,101.6769 266.5614,100.9149 266.9174,100.2549 C267.2734,99.5949 267.7654,99.0829 268.3934,98.7189 C269.0214,98.3559 269.7314,98.1729 270.5234,98.1729 C271.3154,98.1729 272.0254,98.3559 272.6534,98.7189 C273.2814,99.0829 273.7734,99.5949 274.1294,100.2549 C274.4854,100.9149 274.6634,101.6769 274.6634,102.5409 C274.6634,103.4049 274.4854,104.1669 274.1294,104.8269 C273.7734,105.4869 273.2814,105.9989 272.6534,106.3629 C272.0254,106.7279 271.3154,106.9089 270.5234,106.9089 C269.7314,106.9089 269.0214,106.7279 268.3934,106.3629" id="Fill-174" fill="#FFFFFF" mask="url(#mask-2)"></path>
                    <path d="M278.6714,102.3369 C279.7994,102.3369 280.3634,101.8809 280.3634,100.9689 C280.3634,100.5289 280.2354,100.1949 279.9794,99.9669 C279.7234,99.7389 279.3074,99.6249 278.7314,99.6249 L277.5434,99.6249 L277.5434,102.3369 L278.6714,102.3369 Z M276.0074,98.3409 L279.0794,98.3409 C279.9754,98.3409 280.6814,98.5549 281.1974,98.9829 C281.7134,99.4109 281.9714,100.0449 281.9714,100.8849 C281.9714,101.4689 281.8474,101.9469 281.5994,102.3189 C281.3514,102.6909 280.9994,102.9889 280.5434,103.2129 L282.4394,106.7409 L280.7234,106.7409 L279.1034,103.6209 L279.0434,103.6209 L277.5434,103.6209 L277.5434,106.7409 L276.0074,106.7409 L276.0074,98.3409 Z" id="Fill-175" fill="#FFFFFF" mask="url(#mask-2)"></path>
                </g>
            </g>
        </g>
    </g>
</svg>