<svg xmlns="http://www.w3.org/2000/svg" width="320" height="150" viewBox="0 0 320 150">
    <g fill="none" fill-rule="evenodd">
        <path fill="#E0E0E0" d="M0 150h320V0H0z"/>
        <path fill="#000" d="M132.5 23c0-3.973-3.092-7.216-7-7.475V15.5h-76a7.5 7.5 0 0 0 0 15h76v-.025c3.908-.259 7-3.502 7-7.475M117.5 53c0-3.973-3.092-7.216-7-7.475V45.5h-84a7.5 7.5 0 0 0 0 15h84v-.025c3.908-.259 7-3.502 7-7.475M104 38a7.5 7.5 0 0 1 7.5-7.5H50a7.5 7.5 0 0 1 7.5 7.5 7.5 7.5 0 0 1-7.5 7.5h61.5A7.5 7.5 0 0 1 104 38"/>
        <path stroke="#FFF" d="M57.5 21.5a3 3 0 1 1-6 0M63.5 21.5a3 3 0 1 1-6 0M69.5 21.5a3 3 0 1 1-6 0M75.5 21.5a3 3 0 1 1-6 0M104.5 21.5a3 3 0 1 1-6 0M110.5 21.5a3 3 0 1 1-6 0M78.5 37.5a3 3 0 1 1-6 0M84.5 37.5a3 3 0 1 1-6 0M90.5 37.5a3 3 0 1 1-6 0M67.5 51.5a3 3 0 1 1-6 0M73.5 51.5a3 3 0 1 1-6 0M79.5 51.5a3 3 0 1 1-6 0M95.5 51.5a3 3 0 1 1-6 0M101.5 51.5a3 3 0 1 1-6 0"/>
        <path stroke="#FFF" stroke-width="10" d="M8.5 150c0-20.71 16.79-37.5 37.5-37.5h228c20.71 0 37.5-16.79 37.5-37.5S294.71 37.5 274 37.5H109.215c-7.613-6.837-17.676-11-28.715-11-11.038 0-21.101 4.163-28.715 11H46C25.29 37.5 8.5 20.71 8.5 0"/>
        <path fill="#000" d="M296.598 56.835h1.024v-37.5h-1.024z"/>
        <path fill="#EFAECE" d="M291.924 23.855c.939 0 2.173-.072 3.38-.625.499-.23.936-.512 1.322-.762.143-.093.334-.218.484-.305.15.087.34.212.484.305.386.25.824.532 1.32.762 1.21.553 2.443.625 3.383.625a1.671 1.671 0 0 0 0-3.343c-.6 0-1.368-.037-1.988-.322-.277-.127-.592-.33-.897-.527a17.455 17.455 0 0 0-.454-.288v-2.707a1.84 1.84 0 1 0-3.681 0v2.698c-.16.096-.314.197-.47.297-.303.197-.62.4-.896.527-.62.285-1.388.322-1.987.322a1.672 1.672 0 0 0 0 3.343"/>
        <path fill="#EFAECE" d="M290.605 29.401c1.135 0 2.623-.084 4.063-.746.597-.274 1.132-.62 1.604-.925.256-.167.619-.402.838-.509.219.107.582.342.839.51.47.304 1.006.65 1.602.924 1.44.662 2.929.746 4.064.746a1.672 1.672 0 1 0 0-3.343c-.795 0-1.817-.05-2.67-.44-.376-.174-.783-.438-1.178-.694-.822-.532-1.672-1.083-2.657-1.083-.985 0-1.835.551-2.657 1.083-.394.256-.803.52-1.18.693-.851.391-1.873.441-2.668.441a1.672 1.672 0 0 0 0 3.343"/>
        <path fill="#EFAECE" d="M289.286 34.949c1.33 0 3.073-.1 4.746-.867.695-.318 1.327-.728 1.885-1.09.376-.243.929-.601 1.193-.696.264.095.817.453 1.193.696.558.362 1.19.772 1.884 1.09 1.674.768 3.416.867 4.747.867a1.671 1.671 0 0 0 0-3.343c-.991 0-2.267-.064-3.353-.562-.474-.218-.975-.542-1.46-.857-.991-.641-1.926-1.248-3.011-1.248-1.085 0-2.021.607-3.011 1.248-.485.315-.986.639-1.461.857-1.085.498-2.361.562-3.352.562a1.671 1.671 0 0 0 0 3.343"/>
        <path fill="#EFAECE" d="M287.967 40.496c1.526 0 3.523-.112 5.43-.987.792-.364 1.522-.837 2.165-1.254.5-.323 1.246-.807 1.548-.872.301.065 1.048.549 1.547.872.643.417 1.373.89 2.166 1.254 1.906.875 3.903.987 5.43.987a1.671 1.671 0 0 0 0-3.343c-1.187 0-2.718-.077-4.035-.682-.573-.263-1.168-.648-1.743-1.021-1.122-.727-2.18-1.413-3.365-1.413s-2.244.686-3.366 1.413c-.575.373-1.17.758-1.742 1.02-1.318.606-2.849.683-4.035.683a1.672 1.672 0 0 0 0 3.343"/>
        <path fill="#EFAECE" d="M286.648 46.042c1.723 0 3.974-.125 6.112-1.107.892-.409 1.719-.945 2.449-1.418.626-.406 1.57-1.018 1.896-1.04.335.023 1.28.635 1.907 1.04.729.473 1.556 1.01 2.448 1.418 2.139.982 4.39 1.107 6.112 1.107a1.67 1.67 0 1 0 0-3.343c-1.382 0-3.168-.09-4.718-.801-.671-.309-1.36-.755-2.024-1.186-1.253-.812-2.436-1.579-3.72-1.579-1.284 0-2.467.767-3.72 1.58-.665.43-1.353.877-2.024 1.184-1.551.712-3.336.803-4.718.803a1.672 1.672 0 0 0 0 3.342"/>
        <path fill="#EFAECE" d="M308.89 48.247c-1.578 0-3.618-.105-5.4-.923-.77-.353-1.55-.86-2.307-1.349-1.383-.897-2.69-1.744-4.074-1.744-1.383 0-2.69.847-4.073 1.744-.756.49-1.537.996-2.307 1.35-1.783.817-3.822.922-5.4.922a1.671 1.671 0 0 0 0 3.343c1.917 0 4.423-.14 6.794-1.228.99-.454 1.915-1.053 2.73-1.582.742-.48 1.861-1.206 2.256-1.206.396 0 1.515.726 2.256 1.206.816.53 1.74 1.128 2.731 1.582 2.371 1.088 4.876 1.228 6.794 1.228a1.672 1.672 0 0 0 0-3.343"/>
        <path fill="#000" d="M26.373 136.64H25.35l.001-50.7h1.024z"/>
        <path fill="#A2D39F" d="M24.487 89.885c.417 0 .765-.092 1.046-.191.106.025.216.042.329.042.114 0 .224-.017.33-.042.28.099.629.19 1.046.19a4.546 4.546 0 0 0 4.54-4.54 1.789 1.789 0 0 0-3.577 0c0 .5-.382.914-.871.96l-.061-.024v-5.17a1.407 1.407 0 0 0-2.813 0v5.17l-.061.024a.964.964 0 0 1-.871-.96 1.789 1.789 0 0 0-3.577 0 4.546 4.546 0 0 0 4.54 4.54"/>
        <path fill="#A2D39F" d="M23.891 96.502c.721 0 1.29-.235 1.704-.407.085-.035.192-.08.267-.106.074.026.182.071.266.106.415.172.984.407 1.704.407 2.817 0 5.223-2.09 5.597-4.862a1.789 1.789 0 0 0-3.544-.479c-.135 1-1.006 1.754-2.03 1.765-.07-.016-.236-.085-.358-.135-.4-.166-.95-.393-1.635-.393s-1.234.227-1.635.393c-.122.05-.287.12-.358.135-1.025-.01-1.895-.766-2.03-1.765a1.788 1.788 0 1 0-3.544.479c.374 2.772 2.78 4.862 5.596 4.862"/>
        <path fill="#A2D39F" d="M23.296 103.12c.832 0 1.514-.282 2.013-.488.184-.076.464-.192.548-.2.095.008.374.124.56.2.497.206 1.18.489 2.011.489 3.153 0 5.946-2.215 6.64-5.267a1.788 1.788 0 1 0-3.486-.794c-.328 1.44-1.655 2.485-3.154 2.485-.12 0-.41-.12-.644-.217-.507-.21-1.138-.471-1.922-.471s-1.415.26-1.922.47c-.233.098-.524.218-.644.218-1.5 0-2.826-1.045-3.154-2.485a1.79 1.79 0 0 0-2.14-1.347 1.79 1.79 0 0 0-1.347 2.14c.695 3.053 3.488 5.268 6.641 5.268"/>
        <path fill="#A2D39F" d="M22.701 109.739c.941 0 1.706-.316 2.32-.571.313-.13.668-.277.841-.277.173 0 .528.147.84.277.615.255 1.38.57 2.321.57 3.531 0 6.692-2.351 7.686-5.72a1.788 1.788 0 0 0-3.43-1.011c-.55 1.858-2.3 3.156-4.256 3.156-.23 0-.58-.145-.951-.3-.591-.244-1.326-.548-2.21-.548-.883 0-1.618.304-2.208.549-.372.154-.723.299-.953.299-1.957 0-3.707-1.298-4.255-3.156a1.788 1.788 0 1 0-3.43 1.012c.995 3.368 4.155 5.72 7.685 5.72"/>
        <path fill="#A2D39F" d="M22.106 116.357c1.052 0 1.926-.362 2.628-.653.44-.182.856-.355 1.128-.355.272 0 .687.173 1.128.355.702.29 1.576.653 2.628.653a9.241 9.241 0 0 0 8.732-6.204 1.788 1.788 0 1 0-3.379-1.171 5.663 5.663 0 0 1-5.353 3.799c-.34 0-.767-.177-1.26-.381-.674-.28-1.513-.627-2.496-.627-.983 0-1.822.348-2.496.627-.493.204-.92.38-1.26.38a5.665 5.665 0 0 1-5.354-3.798 1.787 1.787 0 1 0-3.378 1.172 9.242 9.242 0 0 0 8.732 6.203"/>
        <path fill="#A2D39F" d="M38.974 113.956a1.789 1.789 0 0 0-2.313 1.022 6.958 6.958 0 0 1-6.448 4.42c-.45 0-.968-.214-1.568-.462-.797-.33-1.7-.705-2.783-.705s-1.986.375-2.784.705c-.599.248-1.116.462-1.567.462a6.96 6.96 0 0 1-6.449-4.42 1.788 1.788 0 1 0-3.335 1.291c1.553 4.011 5.484 6.706 9.784 6.706 1.162 0 2.146-.408 2.936-.735.537-.222 1.044-.432 1.415-.432s.878.21 1.414.432c.791.327 1.775.735 2.937.735 4.3 0 8.231-2.695 9.783-6.706a1.787 1.787 0 0 0-1.022-2.313"/>
        <path fill="#A1D29D" d="M151.81 53.328v22.758h-24.594V53.328"/>
        <path fill="#000" d="M152.337 76.614h-25.648V53.328h1.055v22.23h23.538v-22.23h1.055z"/>
        <path fill="#EF5722" d="M130.73 75.901h17.566v-3.162H130.73z"/>
        <path fill="#000" d="M131.257 75.374h16.512v-2.107h-16.512v2.107zm-1.055 1.055h18.621v-4.217h-18.621v4.217z"/>
        <path fill="#EEADCD" d="M134.243 72.739h10.54V58.692h-10.54z"/>
        <path fill="#000" d="M134.77 72.212h9.485V59.22h-9.485v12.992zm-1.055 1.055h11.595V58.165h-11.595v15.102z"/>
        <path fill="#DAA725" d="M123.703 53.328l15.81-14.053 15.81 14.053z"/>
        <path fill="#000" d="M125.09 52.8h28.846l-14.424-12.82L125.09 52.8zm31.62 1.056h-34.393l17.195-15.286 17.197 15.286z"/>
        <path fill="#DAA725" d="M53.914 53.328v22.758H29.321V53.328"/>
        <path fill="#000" d="M54.442 76.614H28.794V53.328h1.055v22.23h23.538v-22.23h1.055z"/>
        <path fill="#EEADCD" d="M32.835 75.901h17.566v-3.162H32.835z"/>
        <path fill="#000" d="M33.362 75.374h16.512v-2.107H33.362v2.107zm-1.055 1.055h18.622v-4.217H32.307v4.217z"/>
        <path fill="#A1D29D" d="M36.348 72.739h10.54V58.692h-10.54z"/>
        <path fill="#000" d="M36.875 72.212h9.485V59.22h-9.485v12.992zm-1.054 1.055h11.594V58.165H35.821v15.102z"/>
        <path fill="#EF5722" d="M25.808 53.328l15.81-14.053 15.81 14.053z"/>
        <path fill="#000" d="M27.194 52.8h28.847L41.618 39.98 27.194 52.8zm31.62 1.056H24.422L41.618 38.57l17.196 15.286z"/>
        <path fill="#EEADCD" d="M289.62 53.328v22.758h-24.594V53.328"/>
        <path fill="#000" d="M290.146 76.614h-25.648V53.328h1.055v22.23h23.538v-22.23h1.055z"/>
        <path fill="#EF5722" d="M268.539 75.901h17.566v-3.162h-17.566z"/>
        <path fill="#000" d="M269.067 75.374h16.512v-2.107h-16.512v2.107zm-1.055 1.055h18.621v-4.217h-18.621v4.217z"/>
        <path fill="#DAA725" d="M272.053 72.739h10.54V58.692h-10.54z"/>
        <path fill="#000" d="M272.58 72.212h9.485V59.22h-9.485v12.992zm-1.055 1.055h11.595V58.165h-11.595v15.102z"/>
        <path fill="#A1D29D" d="M261.513 53.328l15.81-14.053 15.81 14.053z"/>
        <path fill="#000" d="M262.899 52.8h28.847l-14.423-12.82-14.424 12.82zm31.62 1.056h-34.392l17.196-15.286 17.196 15.286z"/>
        <path fill="#DAA725" d="M234.092 43.76V12.857h-38.54V43.76h-14.817v32.27h25.95v-17.37h-1.655v-3.308h19.583v3.308h-1.655v17.37h25.951v-32.27z"/>
        <path fill="#A1D29D" d="M209.065 20.624h3.7v-3.7h4.113v3.7h3.7v4.114h-3.7v3.7h-4.113v-3.7h-3.7z"/>
        <path fill="#EEADCD" d="M234.092 43.759h17.823v-4.678h-17.823zM177.729 43.759h17.823v-4.678h-17.823z"/>
        <path fill="#000" d="M213.35 27.852h2.942v-3.7h3.7V21.21h-3.7v-3.7h-2.942v3.7h-3.7v2.942h3.7v3.7zm4.114 1.171h-5.285v-3.699h-3.7V20.04h3.7v-3.7h5.285v3.7h3.7v5.285h-3.7v3.7z"/>
        <path fill="#EEADCD" d="M192.557 12.858h44.53V8.179h-44.53z"/>
        <path fill="#EF5722" d="M183.98 54.798h8.275v-8.274h-8.275z"/>
        <path fill="#000" d="M184.566 54.212h7.103v-7.103h-7.103v7.103zm-1.171 1.172h9.446v-9.446h-9.446v9.446z"/>
        <path fill="#EF5722" d="M183.98 66.427h8.275v-8.274h-8.275z"/>
        <path fill="#000" d="M184.566 65.842h7.103v-7.103h-7.103v7.103zm-1.171 1.171h9.446v-9.446h-9.446v9.446z"/>
        <path fill="#EF5722" d="M218.951 40.208h8.275v-8.274h-8.275z"/>
        <path fill="#000" d="M219.537 39.623h7.103V32.52h-7.103v7.103zm-1.172 1.171h9.446v-9.446h-9.446v9.446z"/>
        <path fill="#EF5722" d="M218.951 51.837h8.275v-8.274h-8.275z"/>
        <path fill="#000" d="M219.537 51.252h7.103v-7.104h-7.103v7.104zm-1.172 1.171h9.446v-9.446h-9.446v9.446z"/>
        <path fill="#EF5722" d="M202.349 40.208h8.274v-8.274h-8.274z"/>
        <path fill="#000" d="M202.934 39.623h7.104V32.52h-7.104v7.103zm-1.172 1.171h9.446v-9.446h-9.446v9.446z"/>
        <path fill="#EF5722" d="M202.349 51.837h8.274v-8.274h-8.274z"/>
        <path fill="#000" d="M202.934 51.252h7.104v-7.104h-7.104v7.104zm-1.172 1.171h9.446v-9.446h-9.446v9.446z"/>
        <path fill="#EF5722" d="M237.234 54.798h8.274v-8.274h-8.274z"/>
        <path fill="#000" d="M237.819 54.212h7.103v-7.103h-7.103v7.103zm-1.171 1.172h9.446v-9.446h-9.446v9.446z"/>
        <path fill="#EF5722" d="M237.234 66.427h8.274v-8.274h-8.274z"/>
        <path fill="#000" d="M237.819 65.842h7.103v-7.103h-7.103v7.103zm-1.171 1.171h9.446v-9.446h-9.446v9.446z"/>
        <path fill="#A1D29D" d="M205.03 58.66h19.583v-3.308H205.03z"/>
        <path fill="#EEADCD" d="M206.685 58.66v17.369h16.273v-17.37z"/>
        <path fill="#000" d="M234.677 43.174h16.651v-3.507h-16.651v3.507zm0 32.268h13.646V44.345h-13.646v31.097zm-11.133 0V59.245h1.655v-4.479h-20.755v4.479h1.655v16.197h-9.962V13.443h37.369v61.999h-9.962zm-17.928-17.368h18.412v-2.137h-18.412v2.137zm9.791 17.368h6.965V59.245h-6.965v16.197zm-8.136 0h6.965V59.245h-6.965v16.197zm-14.129-63.17h43.359V8.765h-43.359v3.507zm-14.827 30.902h16.651v-3.507h-16.651v3.507zm3.005 32.268h13.646V44.345H181.32v31.097zm53.357-36.947V13.443h2.995V7.594h-45.701v5.849h2.995v25.052h-17.823v5.85h3.005v32.269h69.346V44.345h3.006v-5.85h-17.823z"/>
        <path fill="#A1D29D" d="M100.159 110.494v-30.9H61.618v30.9H46.801v32.27h25.951v-17.37h-1.655v-3.308H90.68v3.308h-1.655v17.37h25.951v-32.27z"/>
        <path fill="#EF5722" d="M75.132 87.359h3.7v-3.7h4.113v3.7h3.701v4.114h-3.7v3.7h-4.114v-3.7h-3.7z"/>
        <path fill="#EEADCD" d="M100.159 110.494h17.823v-4.678h-17.823zM43.795 110.494h17.823v-4.678H43.795z"/>
        <path fill="#000" d="M79.418 94.587h2.942v-3.7h3.7v-2.942h-3.7v-3.7h-2.942v3.7h-3.7v2.942h3.7v3.7zm4.114 1.17h-5.285V92.06h-3.701v-5.285h3.7v-3.701h5.286v3.7h3.699v5.286h-3.7v3.699z"/>
        <path fill="#EEADCD" d="M58.624 79.593h44.53v-4.679h-44.53z"/>
        <path fill="#DAA725" d="M50.048 121.533h8.274v-8.274h-8.274z"/>
        <path fill="#000" d="M50.634 120.947h7.103v-7.103h-7.103v7.103zm-1.172 1.172h9.446v-9.446h-9.446v9.446z"/>
        <path fill="#DAA725" d="M50.048 133.162h8.274v-8.274h-8.274z"/>
        <path fill="#000" d="M50.634 132.577h7.103v-7.103h-7.103v7.103zm-1.172 1.171h9.446v-9.446h-9.446v9.446z"/>
        <path fill="#DAA725" d="M85.019 106.943h8.274v-8.274h-8.274z"/>
        <path fill="#000" d="M85.604 106.357h7.103v-7.103h-7.103v7.103zm-1.171 1.172h9.445v-9.446h-9.445v9.446z"/>
        <path fill="#DAA725" d="M85.019 118.572h8.274v-8.274h-8.274z"/>
        <path fill="#000" d="M85.604 117.987h7.103v-7.103h-7.103v7.103zm-1.171 1.171h9.445v-9.446h-9.445v9.446z"/>
        <path fill="#DAA725" d="M68.416 106.943h8.274v-8.274h-8.274z"/>
        <path fill="#000" d="M69.001 106.357h7.103v-7.103h-7.103v7.103zm-1.171 1.172h9.446v-9.446H67.83v9.446z"/>
        <path fill="#DAA725" d="M68.416 118.572h8.274v-8.274h-8.274z"/>
        <path fill="#000" d="M69.001 117.987h7.103v-7.103h-7.103v7.103zm-1.171 1.171h9.446v-9.446H67.83v9.446z"/>
        <path fill="#DAA725" d="M103.301 121.533h8.274v-8.274h-8.274z"/>
        <path fill="#000" d="M103.887 120.947h7.103v-7.103h-7.103v7.103zm-1.172 1.172h9.445v-9.446h-9.445v9.446z"/>
        <path fill="#DAA725" d="M103.301 133.162h8.274v-8.274h-8.274z"/>
        <path fill="#000" d="M103.887 132.577h7.103v-7.103h-7.103v7.103zm-1.172 1.171h9.445v-9.446h-9.445v9.446z"/>
        <path fill="#EF5722" d="M71.097 125.395H90.68v-3.308H71.097z"/>
        <path fill="#EEADCD" d="M72.752 125.394v17.37h16.273v-17.37z"/>
        <path fill="#000" d="M100.745 109.909h16.651v-3.507h-16.651v3.507zm-.001 32.268h13.646V111.08h-13.646v31.097zm-11.133 0V125.98h1.655v-4.48H70.512v4.48h1.655v16.197h-9.963V80.178h37.369v61.999h-9.962zm-17.928-17.368h18.412v-2.137H71.683v2.137zm9.792 17.368h6.965V125.98h-6.965v16.197zm-8.137 0h6.965V125.98h-6.965v16.197zm-14.129-63.17h43.359V75.5H59.209v3.507zm-14.828 30.902h16.652v-3.507H44.381v3.507zm3.006 32.268h13.646V111.08H47.387v31.097zm53.357-36.947V80.178h2.996v-5.849H58.038v5.849h2.995v25.052H43.21v5.85h3.006v32.269h69.346V111.08h3.005v-5.85h-17.823z"/>
        <path fill="#DAA725" d="M152.147 105.571c0 7.365-5.97 13.335-13.335 13.335-7.365 0-13.335-5.97-13.335-13.335 0-7.365 5.97-13.335 13.335-13.335 7.365 0 13.335 5.97 13.335 13.335"/>
        <path fill="#000" d="M148.997 104.81h-1.024c0 1.348-.98 2.466-2.265 2.695a6.99 6.99 0 0 0 .032-.634v-2.929h-1.024v2.93a5.9 5.9 0 0 1-.034.626 2.749 2.749 0 0 1-2.199-2.689h-1.024a3.776 3.776 0 0 0 3.023 3.694 5.911 5.911 0 0 1-5.158 4.246v-10.753a2.505 2.505 0 0 0 1.99-2.449h-1.024c0 .635-.403 1.173-.966 1.382v-2.588H138.3v2.588a1.476 1.476 0 0 1-.967-1.382h-1.024c0 1.204.856 2.212 1.991 2.45v10.752a5.91 5.91 0 0 1-5.158-4.246 3.775 3.775 0 0 0 3.022-3.694h-1.024a2.749 2.749 0 0 1-2.198 2.69 5.899 5.899 0 0 1-.035-.628v-2.929h-1.024v2.93c0 .213.013.424.032.633a2.744 2.744 0 0 1-2.264-2.696h-1.024a3.771 3.771 0 0 0 3.474 3.754 6.931 6.931 0 0 0 6.2 5.21v17.71h1.023v-17.71a6.933 6.933 0 0 0 6.2-5.21 3.771 3.771 0 0 0 3.473-3.754"/>
        <path fill="#F05822" d="M209.848 95.036c0 1.975-3.066 3.87-3.137 5.73-.077 2.005 2.832 4.033 2.68 5.857-.17 2.058-3.403 3.797-3.656 5.555-.314 2.183 2.307 4.439 1.89 6.034-.839 3.208-3.349 3.756-4.452 3.756-1.104 0-3.614-.548-4.453-3.756-.417-1.596 2.204-3.852 1.89-6.034-.253-1.76-3.486-3.497-3.657-5.555-.151-1.823 2.758-3.851 2.682-5.857-.072-1.86-3.138-3.755-3.138-5.73 0-1.975 3.066-3.871 3.138-5.73.076-2.006-2.833-4.034-2.682-5.857.171-2.06 3.404-3.797 3.657-5.556.314-2.182-2.307-4.438-1.89-6.034.839-3.207 3.349-3.755 4.453-3.755 1.103 0 3.613.548 4.452 3.756.418 1.595-2.204 3.852-1.89 6.034.253 1.758 3.486 3.496 3.656 5.555.152 1.823-2.757 3.85-2.68 5.856.071 1.86 3.137 3.755 3.137 5.73"/>
        <path fill="#000" d="M206.103 92.387l-.724-.724-1.695 1.695v-6.802l2.42-2.419-.725-.724-1.695 1.695V79.89h-1.024v5.22l-1.695-1.696-.724.724 2.42 2.42v6.801l-1.696-1.695-.724.724 2.42 2.42v6.801l-1.696-1.695-.724.724 2.42 2.42v6.801l-1.696-1.695-.724.724 2.42 2.42v6.801l-1.696-1.695-.724.724 2.42 2.42v14.531h1.023v-14.532l2.42-2.419-.725-.724-1.695 1.695v-6.802l2.42-2.419-.725-.724-1.695 1.695v-6.802l2.42-2.419-.725-.724-1.695 1.695v-6.802z"/>
        <path fill="#DAA725" d="M164.025 29.162c0-2.48-3.313-3.737-3.313-6.042 0-2.583 3.62-4.106 3.254-6.957-.438-3.413-3.424-6.149-7.119-6.526-4.886-.499-9.022 3.025-9.022 7.442 0 2.481 3.313 3.738 3.313 6.041 0 2.305-3.313 3.562-3.313 6.042s3.313 3.737 3.313 6.042c0 2.583-3.62 4.106-3.254 6.957.438 3.413 3.424 6.15 7.12 6.526 4.885.5 9.021-3.025 9.021-7.442 0-2.48-3.313-3.738-3.313-6.04 0-2.306 3.313-3.563 3.313-6.043"/>
        <path fill="#000" d="M158.569 17.634c.548-.438 1.02-.817 2.004-.817v-1.024c-1.341 0-2.033.553-2.644 1.042-.442.353-.84.664-1.491.773V13.47h-1.024v4.138c-.652-.109-1.05-.42-1.492-.773-.611-.489-1.302-1.042-2.644-1.042v1.024c.982 0 1.456.38 2.004.817.527.422 1.117.89 2.132 1.011v5.315c-.652-.109-1.05-.42-1.492-.773-.611-.489-1.302-1.042-2.644-1.042v1.024c.982 0 1.456.38 2.004.817.527.422 1.117.89 2.132 1.011v5.315c-.652-.109-1.05-.42-1.492-.773-.611-.488-1.302-1.042-2.644-1.042v1.024c.982 0 1.456.38 2.004.817.527.422 1.117.89 2.132 1.011v5.315c-.652-.108-1.05-.42-1.492-.773-.611-.488-1.302-1.042-2.644-1.042v1.024c.982 0 1.456.38 2.004.817.527.422 1.117.891 2.132 1.011v5.315c-.652-.108-1.05-.42-1.492-.773-.611-.488-1.302-1.042-2.644-1.042v1.024c.982 0 1.456.38 2.004.818.527.421 1.117.89 2.132 1.01v13.908h1.024V44.053c1.014-.12 1.604-.589 2.13-1.01.549-.439 1.022-.818 2.005-.818v-1.024c-1.341 0-2.033.554-2.644 1.042-.442.353-.84.664-1.491.773v-5.315c1.014-.12 1.604-.589 2.13-1.01.549-.439 1.022-.818 2.005-.818V34.85c-1.341 0-2.033.554-2.644 1.042-.442.353-.84.664-1.491.773V31.35c1.014-.12 1.604-.589 2.13-1.01.549-.439 1.022-.818 2.005-.818v-1.024c-1.341 0-2.033.554-2.644 1.042-.442.353-.84.664-1.491.773v-5.315c1.014-.12 1.604-.589 2.13-1.01.549-.439 1.022-.818 2.005-.818v-1.024c-1.341 0-2.033.553-2.644 1.042-.442.353-.84.664-1.491.773v-5.315c1.014-.12 1.604-.589 2.13-1.01"/>
        <path fill="#A2D39F" d="M248.086 139.5a4.807 4.807 0 1 0-9.613 0h9.613z"/>
        <path fill="#EFAECE" d="M175.849 90.5c.79-.286 2.71-1.003 2.71-1.801s-2.422-1.108-2.71-1.802c-.298-.719 1.184-2.648.643-3.19-.542-.542-2.473.94-3.191.642-.694-.288-1.004-2.71-1.802-2.71-.797 0-1.108 2.422-1.801 2.71-.72.298-2.65-1.184-3.191-.642-.542.542.94 2.471.642 3.19-.287.694-2.71 1.004-2.71 1.802s1.92 1.515 2.71 1.801h8.7z"/>
        <path fill="#EF5722" d="M267.849 19.5c.79-.286 2.71-1.003 2.71-1.801s-2.422-1.108-2.71-1.802c-.298-.719 1.184-2.648.643-3.19-.542-.542-2.473.94-3.191.642-.694-.288-1.004-2.71-1.802-2.71-.797 0-1.108 2.422-1.801 2.71-.72.298-2.65-1.184-3.191-.642-.542.542.94 2.471.642 3.19-.287.694-2.71 1.004-2.71 1.802s1.92 1.515 2.71 1.801h8.7zM186.203 120.063v22.758H161.61v-22.758"/>
        <path fill="#000" d="M186.73 143.349h-25.648v-23.286h1.055v22.23h23.538v-22.23h1.055z"/>
        <path fill="#DAA725" d="M165.123 142.636h17.566v-3.162h-17.566z"/>
        <path fill="#000" d="M165.65 142.109h16.512v-2.107H165.65v2.107zm-1.055 1.055h18.622v-4.217h-18.622v4.217z"/>
        <path fill="#A1D29D" d="M168.637 139.474h10.54v-14.047h-10.54z"/>
        <path fill="#000" d="M169.164 138.947h9.485v-12.992h-9.485v12.992zm-1.055 1.054h11.594v-15.102h-11.594v15.102z"/>
        <path fill="#EEADCD" d="M158.096 120.063l15.81-14.053 15.81 14.053z"/>
        <path fill="#000" d="M159.483 119.536h28.847l-14.424-12.821-14.423 12.82zm31.62 1.055H156.71l17.195-15.286 17.197 15.286z"/>
        <path fill="#FFF" d="M256 142.773h5v-81h-5z"/>
        <path fill="#DAA725" d="M261 137.273l-.707-.707L256 140.86v1.914h.914l4.086-4.086zM261 131.188v-1.414l-.707-.708L256 133.36v2.415l.207.207zM261 123.688v-1.415l-.707-.706L256 125.86v2.414l.207.207zM261 116.188v-1.415l-.707-.706L256 118.36v2.413l.207.208zM261 108.688v-1.415l-.707-.706L256 110.86v2.413l.207.208zM261 101.188v-1.415l-.707-.706L256 103.36v2.413l.207.208zM261 93.688v-1.415l-.707-.706L256 95.86v2.413l.207.208zM261 86.188v-1.415l-.707-.706L256 88.36v2.413l.207.208zM261 78.688v-1.415l-.707-.706L256 80.86v2.413l.207.208zM261 71.188v-1.415l-.707-.706L256 73.36v2.413l.207.208zM261 63.688v-1.415l-.5-.5h-.414L256 65.86v2.415l.207.207z"/>
        <path fill="#000" d="M256.576 142.198h3.85v-79.85h-3.85v79.85zm-1.15 1.151h6.15v-82.15h-6.15v82.15z"/>
        <path fill="#DAA725" d="M262.5 61.273a4 4 0 1 1-8 0 4 4 0 0 1 8 0"/>
        <path stroke="#000" stroke-width="1.151" d="M262.5 61.273a4 4 0 1 1-8 0 4 4 0 0 1 8 0z"/>
        <path fill="#000" d="M286.5 98.247c0-15.464-12.536-28-28-28s-28 12.536-28 28h56z"/>
        <path fill="#000" d="M226 113.773h65V78.859h-65z"/>
        <path stroke="#000" stroke-width=".88" d="M226 113.773h65V78.859h-65z"/>
        <path fill="#FFF" d="M244.946 91.737c-.54-.128-.962-.268-1.266-.42l.18-1.632c1.056.512 1.984.768 2.784.768.424 0 .756-.082.996-.246.24-.164.36-.406.36-.726a.888.888 0 0 0-.198-.594 1.532 1.532 0 0 0-.57-.396 19.791 19.791 0 0 0-1.188-.45 7.192 7.192 0 0 1-1.272-.558 2.3 2.3 0 0 1-.798-.756c-.196-.308-.294-.686-.294-1.134 0-.72.264-1.3.792-1.74.528-.44 1.284-.66 2.268-.66.464 0 .926.052 1.386.156.46.104.882.232 1.266.384l-.156 1.572a9.465 9.465 0 0 0-1.362-.486 4.834 4.834 0 0 0-1.23-.162c-.456 0-.804.076-1.044.228a.735.735 0 0 0-.36.66.8.8 0 0 0 .192.552c.128.144.302.264.522.36.22.096.546.212.978.348.968.304 1.674.654 2.118 1.05.444.396.666.938.666 1.626 0 .656-.228 1.228-.684 1.716-.456.488-1.312.732-2.568.732a6.6 6.6 0 0 1-1.518-.192zm6.042-8.376h5.376v1.488h-3.804v1.788h2.952v1.488h-2.952v2.148h3.924v1.488h-5.496v-8.4zm6.816 0h5.376v1.488h-3.804v1.788h2.952v1.488h-2.952v2.148h3.924v1.488h-5.496v-8.4zm13.872 6.408h-3.06l-.696 1.992h-1.488l2.988-8.4h1.452l2.988 8.4h-1.488l-.696-1.992zm-.48-1.344l-1.044-3-1.056 3h2.1zM235.328 97.761h3.144c.8 0 1.514.168 2.142.504.628.336 1.118.82 1.47 1.452.352.632.528 1.38.528 2.244 0 .864-.176 1.612-.528 2.244a3.593 3.593 0 0 1-1.47 1.452c-.628.336-1.342.504-2.142.504h-3.144v-8.4zm3.144 7.032c.8 0 1.41-.25 1.83-.75.42-.5.63-1.194.63-2.082 0-.888-.21-1.582-.63-2.082-.42-.5-1.03-.75-1.83-.75h-1.608v5.664h1.608zm7.002.99a3.845 3.845 0 0 1-1.476-1.536c-.356-.66-.534-1.422-.534-2.286 0-.864.178-1.626.534-2.286a3.845 3.845 0 0 1 1.476-1.536c.628-.364 1.338-.546 2.13-.546.792 0 1.502.182 2.13.546.628.364 1.12.876 1.476 1.536.356.66.534 1.422.534 2.286 0 .864-.178 1.626-.534 2.286a3.845 3.845 0 0 1-1.476 1.536c-.628.364-1.338.546-2.13.546-.792 0-1.502-.182-2.13-.546zm4.008-1.734c.436-.528.654-1.224.654-2.088 0-.864-.218-1.56-.654-2.088-.436-.528-1.062-.792-1.878-.792-.816 0-1.442.264-1.878.792-.436.528-.654 1.224-.654 2.088 0 .864.218 1.56.654 2.088.436.528 1.062.792 1.878.792.816 0 1.442-.264 1.878-.792zm5.16 1.74a3.778 3.778 0 0 1-1.518-1.53c-.36-.66-.54-1.426-.54-2.298 0-.864.186-1.626.558-2.286a3.916 3.916 0 0 1 1.548-1.536c.66-.364 1.41-.546 2.25-.546.808 0 1.532.164 2.172.492l-.168 1.464a6.75 6.75 0 0 0-.99-.354 3.984 3.984 0 0 0-1.026-.126c-.856 0-1.514.264-1.974.792-.46.528-.69 1.228-.69 2.1 0 .872.226 1.572.678 2.1.452.528 1.102.792 1.95.792.376 0 .722-.04 1.038-.12.316-.08.654-.2 1.014-.36l.168 1.464a5.143 5.143 0 0 1-2.22.492c-.848 0-1.598-.18-2.25-.54zm7.386-6.54h-2.376v-1.488h6.288v1.488h-2.376v6.912h-1.536V99.25zm6.21 6.534a3.845 3.845 0 0 1-1.476-1.536c-.356-.66-.534-1.422-.534-2.286 0-.864.178-1.626.534-2.286a3.845 3.845 0 0 1 1.476-1.536c.628-.364 1.338-.546 2.13-.546.792 0 1.502.182 2.13.546.628.364 1.12.876 1.476 1.536.356.66.534 1.422.534 2.286 0 .864-.178 1.626-.534 2.286a3.845 3.845 0 0 1-1.476 1.536c-.628.364-1.338.546-2.13.546-.792 0-1.502-.182-2.13-.546zm4.008-1.734c.436-.528.654-1.224.654-2.088 0-.864-.218-1.56-.654-2.088-.436-.528-1.062-.792-1.878-.792-.816 0-1.442.264-1.878.792-.436.528-.654 1.224-.654 2.088 0 .864.218 1.56.654 2.088.436.528 1.062.792 1.878.792.816 0 1.442-.264 1.878-.792zm3.606-6.288h3.072c.896 0 1.602.214 2.118.642.516.428.774 1.062.774 1.902 0 .584-.124 1.062-.372 1.434-.248.372-.6.67-1.056.894l1.896 3.528h-1.716l-1.62-3.12h-1.56v3.12h-1.536v-8.4zm2.664 3.996c1.128 0 1.692-.456 1.692-1.368 0-.44-.128-.774-.384-1.002-.256-.228-.672-.342-1.248-.342h-1.188v2.712h1.128z"/>
    </g>
</svg>
