<svg xmlns="http://www.w3.org/2000/svg" width="320" height="150" viewBox="0 0 320 150">
    <g fill="none" fill-rule="evenodd">
        <path fill="#E0E0E0" d="M0 150h319.999V.001H0z"/>
        <path stroke="#FFF" stroke-width="10" d="M8.5 150c0-20.71 16.79-37.5 37.5-37.5h228c20.71 0 37.5-16.79 37.5-37.5S294.71 37.5 274 37.5H46C25.29 37.5 8.5 20.71 8.5 0"/>
        <path fill="#A1D29D" d="M124.81 39.214v22.758h-24.594V39.214"/>
        <path fill="#000" d="M125.337 62.5H99.689V39.213h1.055v22.23h23.538v-22.23h1.055z"/>
        <path fill="#EF5722" d="M103.73 61.787h17.566v-3.162H103.73z"/>
        <path fill="#000" d="M104.257 61.26h16.512v-2.107h-16.512v2.107zm-1.055 1.054h18.621v-4.217h-18.621v4.217z"/>
        <path fill="#EEADCD" d="M107.243 58.625h10.54V44.578h-10.54z"/>
        <path fill="#000" d="M107.77 58.098h9.485V45.106h-9.485v12.992zm-1.055 1.054h11.595V44.05h-11.595v15.102z"/>
        <path fill="#DAA725" d="M96.703 39.214l15.81-14.053 15.81 14.053z"/>
        <path fill="#000" d="M98.09 38.687h28.846l-14.424-12.821-14.423 12.82zm31.62 1.055H95.316l17.195-15.286 17.197 15.286z"/>
        <path fill="#DAA725" d="M207.857 39.214v22.758h-24.593V39.214"/>
        <path fill="#000" d="M208.385 62.5h-25.648V39.213h1.055v22.23h23.538v-22.23h1.055z"/>
        <path fill="#EEADCD" d="M186.777 61.787h17.567v-3.162h-17.567z"/>
        <path fill="#000" d="M187.305 61.26h16.512v-2.107h-16.512v2.107zm-1.056 1.054h18.622v-4.217h-18.622v4.217z"/>
        <path fill="#A1D29D" d="M190.291 58.625h10.54V44.578h-10.54z"/>
        <path fill="#000" d="M190.818 58.098h9.485V45.106h-9.485v12.992zm-1.054 1.054h11.594V44.05h-11.594v15.102z"/>
        <path fill="#EF5722" d="M179.75 39.214l15.81-14.053 15.81 14.053z"/>
        <path fill="#000" d="M181.137 38.687h28.847l-14.423-12.821-14.424 12.82zm31.62 1.055h-34.392l17.196-15.286 17.196 15.286z"/>
        <path fill="#EEADCD" d="M166.333 39.328v22.758H141.74V39.328"/>
        <path fill="#000" d="M166.86 62.614h-25.647V39.328h1.055v22.23h23.538v-22.23h1.055z"/>
        <path fill="#EF5722" d="M145.254 61.901h17.566v-3.162h-17.566z"/>
        <path fill="#000" d="M145.781 61.374h16.512v-2.107h-16.512v2.107zm-1.055 1.055h18.621v-4.217h-18.621v4.217z"/>
        <path fill="#DAA725" d="M148.767 58.739h10.54V44.692h-10.54z"/>
        <path fill="#000" d="M149.294 58.212h9.485V45.22h-9.485v12.992zm-1.055 1.055h11.595V44.165h-11.595v15.102z"/>
        <path fill="#A1D29D" d="M138.227 39.328l15.81-14.053 15.81 14.053z"/>
        <path fill="#000" d="M139.613 38.8h28.847l-14.423-12.82-14.424 12.82zm31.62 1.056h-34.392l17.196-15.286 17.196 15.286z"/>
        <path fill="#DBA827" d="M20.866 36.172c0 1.975-3.066 3.87-3.137 5.73-.078 2.006 2.832 4.034 2.68 5.857-.17 2.059-3.402 3.797-3.655 5.555-.315 2.183 2.306 4.439 1.89 6.035-.84 3.207-3.35 3.755-4.453 3.755-1.105 0-3.615-.548-4.453-3.756-.418-1.596 2.204-3.852 1.89-6.034-.254-1.758-3.486-3.496-3.657-5.555-.15-1.823 2.758-3.851 2.681-5.857-.071-1.86-3.137-3.755-3.137-5.73 0-1.975 3.066-3.87 3.138-5.73.076-2.006-2.833-4.034-2.682-5.857.17-2.06 3.405-3.797 3.656-5.555.314-2.183-2.307-4.44-1.889-6.035.838-3.207 3.348-3.755 4.453-3.755 1.103 0 3.612.548 4.452 3.756.418 1.596-2.204 3.852-1.89 6.034.253 1.758 3.486 3.496 3.657 5.555.15 1.823-2.759 3.85-2.681 5.857.072 1.859 3.137 3.755 3.137 5.73"/>
        <path fill="#000" d="M17.121 33.524l-.724-.724-1.695 1.695v-6.803l2.42-2.418-.725-.725-1.695 1.695v-5.218h-1.024v5.218l-1.695-1.695-.724.725 2.42 2.418v6.802L11.982 32.8l-.724.724 2.42 2.418v6.803l-1.696-1.695-.724.724 2.42 2.418v6.803L11.982 49.3l-.724.724 2.42 2.419v6.802l-1.696-1.695-.724.724 2.42 2.419v14.53h1.023v-14.53l2.42-2.42-.725-.723-1.695 1.695v-6.802l2.42-2.42-.725-.723-1.695 1.695v-6.803l2.42-2.418-.725-.724-1.695 1.695v-6.803z"/>
        <path fill="#A1D29D" d="M230.033 72.963H250.5v-3.269h-20.467z"/>
        <path stroke="#000" stroke-width=".92" d="M230.033 72.963H250.5v-3.269h-20.467z"/>
        <path fill="#A1D29D" d="M230.033 67.219H250.5V63.95h-20.467z"/>
        <path stroke="#000" stroke-width=".92" d="M230.033 67.219H250.5V63.95h-20.467z"/>
        <path fill="#DAA725" d="M85.243 37.335H27.453l28.895-21.247z"/>
        <path fill="#EEADCD" d="M77.033 72.963H97.5v-3.269H77.033z"/>
        <path stroke="#000" stroke-width=".92" d="M77.033 72.963H97.5v-3.269H77.033z"/>
        <path fill="#EEADCD" d="M77.033 67.219H97.5V63.95H77.033z"/>
        <path stroke="#000" stroke-width=".92" d="M77.033 67.219H97.5V63.95H77.033z"/>
        <path fill="#EEADCD" d="M93.033 72.963H113.5v-3.269H93.033z"/>
        <path stroke="#000" stroke-width=".92" d="M93.033 72.963H113.5v-3.269H93.033z"/>
        <path fill="#EEADCD" d="M93.033 67.219H113.5V63.95H93.033z"/>
        <path stroke="#000" stroke-width=".92" d="M93.033 67.219H113.5V63.95H93.033z"/>
        <path fill="#A1D29D" d="M109.339 63.617l2.08-3.143 2.08 3.143v11.604h-4.16z"/>
        <path stroke="#000" stroke-width=".92" d="M109.339 63.617l2.08-3.143 2.08 3.143v11.604h-4.16z"/>
        <path fill="#A1D29D" d="M101.186 63.617l2.08-3.143 2.08 3.143v11.604h-4.16z"/>
        <path stroke="#000" stroke-width=".92" d="M101.186 63.617l2.08-3.143 2.08 3.143v11.604h-4.16z"/>
        <path fill="#A1D29D" d="M93.339 63.617l2.08-3.143 2.08 3.143v11.604h-4.16z"/>
        <path stroke="#000" stroke-width=".92" d="M93.339 63.617l2.08-3.143 2.08 3.143v11.604h-4.16z"/>
        <path fill="#A1D29D" d="M85.186 63.617l2.08-3.143 2.08 3.143v11.604h-4.16z"/>
        <path stroke="#000" stroke-width=".92" d="M85.186 63.617l2.08-3.143 2.08 3.143v11.604h-4.16z"/>
        <path fill="#EF5722" d="M80.652 37.335v37.688h-28.41V53.388H36.87v21.635h-4.154V37.335z"/>
        <path fill="#A1D29D" d="M76.443 63.298l2.104-3.18 2.105 3.18v11.736h-4.21zM68.197 63.298l2.104-3.18 2.104 3.18v11.736h-4.208zM59.95 63.298l2.104-3.18 2.105 3.18v11.736H59.95z"/>
        <path fill="#EEADCD" d="M64.159 66.941h4.038v-3.306h-4.038zM72.405 66.94h4.038v-3.306h-4.038zM64.159 72.751h4.038v-3.306h-4.038zM72.405 72.751h4.038v-3.306h-4.038zM36.87 74.91h15.372V53.389H36.87z"/>
        <path fill="#EF5722" d="M39.945 67.224a1.537 1.537 0 1 0 3.073 0 1.537 1.537 0 0 0-3.073 0"/>
        <path fill="#000" d="M40.41 67.224c0 .59.48 1.072 1.072 1.072.59 0 1.072-.481 1.072-1.072a1.073 1.073 0 0 0-2.144 0m-.932 0c0-1.104.9-2.002 2.003-2.002 1.105 0 2.003.898 2.003 2.002a2.005 2.005 0 0 1-2.003 2.002 2.005 2.005 0 0 1-2.003-2.002"/>
        <path fill="#DAA725" d="M39.945 62.612h9.223v-6.148h-9.223z"/>
        <path fill="#000" d="M40.409 62.147h8.293v-5.218h-8.293v5.218zm-.93.93h10.154v-7.079H39.479v7.079z"/>
        <path fill="#A1D29D" d="M61.071 56.46h15.372v-3.075H61.071z"/>
        <path fill="#DAA725" d="M64.145 53.386h9.223v-9.223h-9.223z"/>
        <path fill="#000" d="M61.536 53.852H75.977v2.144H61.536v-2.144zm3.075-.931h8.292v-8.292H64.61v8.292zm-4.006 0v4.005h16.303V52.92h-3.074v-9.223H63.68v9.223h-3.075z"/>
        <path fill="#000" d="M28.87 36.87l27.478-20.204L83.825 36.87H28.87zm4.31.931h47.006v23.951l-1.64-2.476-2.57 3.882v.011h-3.105v-.01l-2.57-3.883-2.57 3.882v.011h-3.107v-.01l-2.57-3.883-2.57 3.882v11.4h-6.777V52.923H36.405v21.635H33.18V37.801zm4.155 36.643h14.44v-20.59h-14.44v20.59zm23.08-11.006l1.64-2.476 1.639 2.476v11.12h-3.278v-11.12zm4.209 3.037h3.107V64.1h-3.107v2.375zm0 2.505h3.107v-1.574h-3.107v1.574zm0 3.306h3.107v-2.375h-3.107v2.375zm0 2.272h3.107v-1.34h-3.107v1.34zm4.038-11.12l1.639-2.476 1.639 2.476v11.12h-3.278v-11.12zm4.209 3.037h3.106V64.1H72.87v2.375zm0 2.505h3.106v-1.574H72.87v1.574zm0 3.306h3.106v-2.375H72.87v2.375zm0 2.272h3.106v-1.34H72.87v1.34zm4.037-11.12l1.639-2.476 1.639 2.476v11.12h-3.278v-11.12zM26.033 37.801h6.217V75.49l48.867.01V37.801h5.545l-30.314-22.29-30.315 22.29z"/>
        <path fill="#EF5722" d="M145.572 52.214v22.758h-24.593V52.214"/>
        <path fill="#000" d="M146.099 75.5H120.45V52.213h1.055v22.23h23.538v-22.23h1.055z"/>
        <path fill="#DAA725" d="M124.492 74.787h17.566v-3.162h-17.566z"/>
        <path fill="#000" d="M125.019 74.26h16.512v-2.107h-16.512v2.107zm-1.055 1.054h18.622v-4.217h-18.622v4.217z"/>
        <path fill="#A1D29D" d="M128.005 71.625h10.54V57.578h-10.54z"/>
        <path fill="#000" d="M128.533 71.098h9.485V58.106h-9.485v12.992zm-1.055 1.054h11.594V57.05h-11.594v15.102z"/>
        <path fill="#EEADCD" d="M117.465 52.214l15.81-14.053 15.81 14.053z"/>
        <path fill="#000" d="M118.851 51.687h28.847l-14.424-12.822-14.423 12.822zm31.62 1.055H116.08l17.195-15.286 17.197 15.285z"/>
        <path fill="#A1D29D" d="M187.095 52.214v22.758h-24.593V52.214"/>
        <path fill="#000" d="M187.623 75.5h-25.648V52.213h1.055v22.23h23.538v-22.23h1.055z"/>
        <path fill="#EF5722" d="M166.015 74.787h17.566v-3.162h-17.566z"/>
        <path fill="#000" d="M166.543 74.26h16.512v-2.107h-16.512v2.107zm-1.055 1.054h18.621v-4.217h-18.621v4.217z"/>
        <path fill="#EEADCD" d="M169.529 71.625h10.54V57.578h-10.54z"/>
        <path fill="#000" d="M170.056 71.098h9.485V58.106h-9.485v12.992zm-1.055 1.054h11.595V57.05h-11.595v15.102z"/>
        <path fill="#DAA725" d="M158.989 52.214l15.81-14.053 15.81 14.053z"/>
        <path fill="#000" d="M160.375 51.687h28.847l-14.424-12.822-14.423 12.822zm31.62 1.055h-34.392l17.195-15.286 17.197 15.285z"/>
        <path fill="#EEADCD" d="M228.62 52.328v22.758h-24.594V52.328"/>
        <path fill="#000" d="M229.146 75.614h-25.648V52.328h1.055v22.23h23.538v-22.23h1.055z"/>
        <path fill="#EF5722" d="M207.539 74.901h17.566v-3.162h-17.566z"/>
        <path fill="#000" d="M208.067 74.374h16.512v-2.107h-16.512v2.107zm-1.055 1.055h18.621v-4.217h-18.621v4.217z"/>
        <path fill="#DAA725" d="M211.053 71.739h10.54V57.692h-10.54z"/>
        <path fill="#000" d="M211.58 71.212h9.485V58.22h-9.485v12.992zm-1.055 1.055h11.595V57.165h-11.595v15.102z"/>
        <path fill="#A1D29D" d="M200.513 52.328l15.81-14.053 15.81 14.053z"/>
        <path fill="#000" d="M201.899 51.8h28.847l-14.423-12.82-14.424 12.82zm31.62 1.056h-34.392l17.196-15.286 17.196 15.286z"/>
        <path fill="#F05822" d="M314.147 99.571c0 7.365-5.97 13.335-13.335 13.335-7.365 0-13.335-5.97-13.335-13.335 0-7.365 5.97-13.335 13.335-13.335 7.365 0 13.335 5.97 13.335 13.335"/>
        <path fill="#000" d="M310.997 98.81h-1.024c0 1.348-.98 2.466-2.265 2.695a6.99 6.99 0 0 0 .032-.634v-2.929h-1.024v2.93a5.9 5.9 0 0 1-.034.626 2.749 2.749 0 0 1-2.199-2.689h-1.024a3.776 3.776 0 0 0 3.023 3.694 5.911 5.911 0 0 1-5.158 4.246V95.996a2.505 2.505 0 0 0 1.99-2.449h-1.024c0 .635-.403 1.173-.966 1.382v-2.588H300.3v2.588a1.476 1.476 0 0 1-.967-1.382h-1.024c0 1.204.856 2.212 1.991 2.45v10.752a5.91 5.91 0 0 1-5.158-4.246 3.775 3.775 0 0 0 3.022-3.694h-1.024a2.749 2.749 0 0 1-2.198 2.69 5.899 5.899 0 0 1-.035-.628v-2.929h-1.024v2.93c0 .213.013.424.032.633a2.744 2.744 0 0 1-2.264-2.696h-1.024a3.771 3.771 0 0 0 3.474 3.754 6.931 6.931 0 0 0 6.2 5.21v17.71h1.023v-17.71a6.933 6.933 0 0 0 6.2-5.21 3.771 3.771 0 0 0 3.473-3.754"/>
        <path fill="#A2D39F" d="M244.025 108.162c0-2.48-3.313-3.737-3.313-6.042 0-2.583 3.62-4.106 3.254-6.957-.438-3.413-3.424-6.149-7.119-6.526-4.886-.499-9.022 3.025-9.022 7.442 0 2.481 3.313 3.738 3.313 6.041 0 2.305-3.313 3.562-3.313 6.042s3.313 3.737 3.313 6.042c0 2.583-3.62 4.106-3.254 6.957.438 3.413 3.424 6.15 7.12 6.526 4.885.5 9.021-3.025 9.021-7.442 0-2.48-3.313-3.738-3.313-6.04 0-2.306 3.313-3.563 3.313-6.043"/>
        <path fill="#000" d="M238.569 96.634c.548-.438 1.02-.817 2.004-.817v-1.024c-1.341 0-2.033.553-2.644 1.042-.442.353-.84.664-1.491.773V92.47h-1.024v4.138c-.652-.109-1.05-.42-1.492-.773-.611-.489-1.302-1.042-2.644-1.042v1.024c.982 0 1.456.38 2.004.817.527.422 1.117.89 2.132 1.011v5.315c-.652-.109-1.05-.42-1.492-.773-.611-.489-1.302-1.042-2.644-1.042v1.024c.982 0 1.456.38 2.004.817.527.422 1.117.89 2.132 1.011v5.315c-.652-.109-1.05-.42-1.492-.773-.611-.488-1.302-1.042-2.644-1.042v1.024c.982 0 1.456.38 2.004.817.527.422 1.117.89 2.132 1.011v5.315c-.652-.108-1.05-.42-1.492-.773-.611-.488-1.302-1.042-2.644-1.042v1.024c.982 0 1.456.38 2.004.817.527.422 1.117.891 2.132 1.011v5.315c-.652-.108-1.05-.42-1.492-.773-.611-.488-1.302-1.042-2.644-1.042v1.024c.982 0 1.456.38 2.004.818.527.421 1.117.89 2.132 1.01v13.908h1.024v-13.908c1.014-.12 1.604-.589 2.13-1.01.549-.439 1.022-.818 2.005-.818v-1.024c-1.341 0-2.033.554-2.644 1.042-.442.353-.84.664-1.491.773v-5.315c1.014-.12 1.604-.589 2.13-1.01.549-.439 1.022-.818 2.005-.818v-1.024c-1.341 0-2.033.554-2.644 1.042-.442.353-.84.664-1.491.773v-5.315c1.014-.12 1.604-.589 2.13-1.01.549-.439 1.022-.818 2.005-.818v-1.024c-1.341 0-2.033.554-2.644 1.042-.442.353-.84.664-1.491.773v-5.315c1.014-.12 1.604-.589 2.13-1.01.549-.439 1.022-.818 2.005-.818v-1.024c-1.341 0-2.033.553-2.644 1.042-.442.353-.84.664-1.491.773v-5.315c1.014-.12 1.604-.589 2.13-1.01M185.72 101.308h1.024V55.701h-1.024z"/>
        <path fill="#EFAECE" d="M203.882 85.47c-.78-.427-1.738-.662-2.699-.662-1.073 0-2.084.297-2.845.836-.57.403-.979.855-1.34 1.254-.633.698-1.013 1.119-1.97 1.119l-.29-.003c-2.233 0-4.322.779-6 1.406-.969.36-1.883.702-2.38.702a.838.838 0 0 1-.074-.003c-.978-.095-1.506-.386-2.235-.79-.475-.261-1.013-.558-1.74-.83-1.05-.392-2.004-.446-2.88-.446-.215 0-.43.003-.648.007-.208.003-.417.007-.628.007a9.59 9.59 0 0 1-1.182-.061c-.71-.086-1.138-.525-1.778-1.233-.57-.633-1.218-1.35-2.247-1.682-.497-.162-1.334-.27-2.08-.27-2.574 0-2.9 1.253-2.92 1.792-.073 1.874 2.892 3.874 4.175 4.14.21.045.424.066.655.066.398 0 .765-.063 1.12-.124.295-.051.575-.1.826-.1.106 0 .2.009.288.027.59.115 1.058.568 1.565 1.103 1.061 1.119 2.517 2.48 4.372 3.087.966.316 4.027.34 4.942.34 1.12 0 4.86-.035 5.988-.493 1.446-.588 2.453-1.554 3.426-2.49.303-.29.61-.584.933-.87.566-.5.99-.677 1.62-.677.09 0 .181.003.277.01.203.015.393.038.576.06.301.035.614.072.937.072.57 0 1.068-.115 1.568-.362.204-.101 3.273-2.292 3.306-3.828a1.212 1.212 0 0 0-.638-1.104"/>
        <path fill="#EFAECE" d="M173.893 83.764c.256.062.53.092.839.092.237 0 .474-.018.71-.037.193-.015.385-.03.576-.03.165 0 .298.012.418.038.462.105.87.562 1.284 1.063.929 1.128 2.206 2.503 3.849 3.121.846.318 3.336.352 4.366.352 1.26 0 4.298-.05 5.286-.51 1.28-.6 2.162-1.574 3.014-2.516.262-.29.528-.583.808-.868.526-.535.859-.636 1.288-.636.072 0 .146.003.224.01.318.026.565.04.8.04.85 0 1.544-.17 2.184-.536.308-.175 2.674-2.166 2.706-3.546.01-.457-.2-.855-.578-1.093a4.634 4.634 0 0 0-2.445-.689c-.976 0-1.894.31-2.584.871-.502.41-.86.864-1.175 1.265-.586.744-.875 1.073-1.59 1.073l-.251-.003c-1.982 0-3.817.788-5.292 1.421-.784.337-1.595.685-2.026.685h-.003c-.806-.09-1.25-.372-1.865-.763-.418-.264-.89-.565-1.534-.842-.946-.407-1.836-.462-2.581-.462-.19 0-.377.003-.567.007-.18.003-.36.007-.542.007-.4 0-.707-.018-.997-.059-.553-.078-.912-.503-1.451-1.19-.503-.64-1.074-1.368-2.004-1.716-.452-.168-1.207-.28-1.88-.28-2.404 0-2.636 1.374-2.651 1.795-.062 1.856 2.546 3.668 3.664 3.936"/>
        <path fill="#EFAECE" d="M175.675 76.772c.46.13.913.148 1.312.165.324.013.63.026.886.094.337.09.683.552 1.008 1.016.795 1.138 1.891 2.523 3.32 3.156.73.323 2.693.372 3.798.372 1.351 0 3.745-.07 4.594-.537 1.113-.613 1.866-1.595 2.595-2.543.223-.29.447-.583.685-.868.451-.539.698-.583.953-.583.053 0 .108.003.165.009.114.011.232.017.351.017h.001c.862 0 1.814-.294 2.55-.786.346-.233 2.068-2.005 2.098-3.242.01-.448-.17-.833-.51-1.085a3.712 3.712 0 0 0-2.2-.727c-.886 0-1.713.327-2.33.918-.43.414-.736.87-1.005 1.273-.514.769-.72 1.018-1.207 1.018l-.212-.003c-1.739 0-3.323.801-4.595 1.445-.585.295-1.313.663-1.59.663-.629-.082-.972-.338-1.49-.727-.36-.268-.767-.573-1.327-.857-.843-.427-1.632-.485-2.292-.485-.162 0-.324.004-.487.007-.15.004-.302.007-.455.007-.325 0-.574-.017-.807-.055-.389-.064-.685-.474-1.129-1.139-.433-.65-.925-1.387-1.753-1.752-.409-.179-1.087-.3-1.687-.3-1.718 0-2.357.93-2.382 1.801-.052 1.859 2.18 3.456 3.142 3.728"/>
        <path fill="#EFAECE" d="M177.433 69.774c.356.123.717.196 1.065.267.285.058.554.113.79.189.232.075.59.698.743.964.658 1.145 1.57 2.542 2.774 3.19.615.333 2.105.402 3.246.402s3.167-.075 3.916-.576c.936-.627 1.56-1.614 2.162-2.57.183-.288.368-.581.563-.866.357-.518.507-.518.616-.518.034 0 .068.002.103.006.074.01.151.014.231.014.846 0 1.95-.54 2.602-1.071.347-.284 1.457-1.805 1.484-2.893.014-.563-.229-.904-.436-1.091a2.941 2.941 0 0 0-1.965-.78c-.8 0-1.539.349-2.08.98-.357.416-.608.873-.829 1.276-.405.738-.563.953-.85.953l-.15-.002c-1.505 0-2.839.82-3.91 1.48-.405.249-.955.587-1.167.626-.405-.074-.64-.274-1.077-.672-.3-.273-.64-.582-1.114-.874-.744-.46-1.438-.521-2.018-.521-.136 0-.27.004-.407.007-.122.003-.244.007-.367.007a2.95 2.95 0 0 1-.61-.051c-.252-.05-.564-.621-.815-1.08-.36-.657-.769-1.402-1.486-1.786-.375-.2-.968-.33-1.51-.33-1.257 0-2.086.71-2.112 1.806-.04 1.729 1.65 3.185 2.608 3.514"/>
        <path fill="#EFAECE" d="M179.165 62.764l.273.12c.406.18.86.38 1.213.522.161.112.437.723.527.924.55 1.22 1.242 2.555 2.207 3.218.434.298 1.347.45 2.713.45 1.144 0 2.637-.11 3.254-.638.75-.64 1.24-1.629 1.712-2.585.144-.29.29-.584.442-.869.192-.355.296-.437.31-.437v.001c.063.01.131.015.202.015h.001c.877 0 2.135-.915 2.584-1.382.321-.335 1.435-2.524.505-3.596-.479-.55-1.096-.854-1.74-.854-.724 0-1.375.377-1.834 1.06-.279.415-.474.87-.647 1.27-.129.301-.347.805-.45.88a2.95 2.95 0 0 0-.133-.004c-1.287 0-2.418.888-3.244 1.536-.248.195-.575.452-.754.55-.18-.075-.336-.24-.626-.577-.239-.277-.51-.59-.893-.893-.65-.512-1.283-.577-1.76-.577-.112 0-.222.004-.333.007a6.23 6.23 0 0 1-.275.007c-.166 0-.288-.012-.36-.026-.158-.103-.407-.683-.556-1.029-.297-.693-.605-1.409-1.197-1.813-.337-.23-.867-.378-1.35-.378-1.083 0-1.825.727-1.844 1.81-.03 1.616 1.207 2.917 2.053 3.288"/>
        <path fill="#EFAECE" d="M180.832 55.728c.111.067.293.212.455.34.215.172.438.349.651.478.121.172.301.721.362.908.561 1.72 1.042 2.683 1.608 3.219.374.356 1.116.536 2.206.536.906 0 2.094-.128 2.61-.736.546-.645.883-1.584 1.24-2.578.104-.292.21-.587.322-.874.06-.156.11-.259.144-.327.872-.038 2.215-1.303 2.51-1.726.355-.511.472-2.324-.042-3.142-.389-.62-.929-.961-1.52-.961-.307 0-1.075.113-1.587 1.164-.197.407-.337.854-.46 1.249-.078.252-.189.606-.28.795-.747.043-1.385.519-1.912 1.029.197-1.027.952-1.805 1.29-2.77.782-2.243.021-6.508-1.913-6.508-1.9 0-2.878 4.575-2.778 5.423.147 1.246.74 2.156 1.15 3.112a1.972 1.972 0 0 0-.998-.25 4.55 4.55 0 0 0-.26.009c-.06.002-.12.006-.18.006l-.059-.002c-.115-.202-.26-.673-.353-.97-.223-.716-.434-1.393-.878-1.812-.299-.281-.777-.463-1.219-.463-.714 0-1.556.476-1.573 1.814-.019 1.466.745 2.602 1.464 3.037"/>
        <path fill="#A2D39F" d="M181.086 20.5a4.807 4.807 0 1 0-9.613 0h9.613z"/>
        <path fill="#F05822" d="M231.257 19.5a4.807 4.807 0 1 0-9.614 0h9.614zM149.257 94.5a4.807 4.807 0 1 0-9.614 0h9.614z"/>
        <path fill="#DBA827" d="M97.849 21.5c.79-.286 2.71-1.003 2.71-1.801s-2.422-1.108-2.71-1.802c-.298-.719 1.184-2.648.643-3.19-.542-.542-2.473.94-3.191.642-.694-.288-1.004-2.71-1.802-2.71-.797 0-1.108 2.422-1.801 2.71-.72.298-2.65-1.184-3.191-.642-.542.542.94 2.471.642 3.19-.287.694-2.71 1.004-2.71 1.802s1.92 1.515 2.71 1.801h8.7z"/>
        <path fill="#A2D39F" d="M273.849 96.5c.79-.286 2.71-1.003 2.71-1.801s-2.422-1.108-2.71-1.802c-.298-.719 1.184-2.648.643-3.19-.542-.542-2.473.94-3.191.642-.694-.288-1.004-2.71-1.802-2.71-.797 0-1.108 2.422-1.801 2.71-.72.298-2.65-1.184-3.191-.642-.542.542.94 2.471.642 3.19-.287.694-2.71 1.004-2.71 1.802s1.92 1.515 2.71 1.801h8.7z"/>
        <path fill="#A1D29D" d="M214.033 72.963H234.5v-3.269h-20.467z"/>
        <path stroke="#000" stroke-width=".92" d="M214.033 72.963H234.5v-3.269h-20.467z"/>
        <path fill="#A1D29D" d="M214.033 67.219H234.5V63.95h-20.467z"/>
        <path stroke="#000" stroke-width=".92" d="M214.033 67.219H234.5V63.95h-20.467z"/>
        <path fill="#EF5722" d="M218.194 63.617l-2.08-3.143-2.08 3.143v11.604h4.16z"/>
        <path stroke="#000" stroke-width=".92" d="M218.194 63.617l-2.08-3.143-2.08 3.143v11.604h4.16z"/>
        <path fill="#EF5722" d="M226.347 63.617l-2.081-3.143-2.08 3.143v11.604h4.161z"/>
        <path stroke="#000" stroke-width=".92" d="M226.347 63.617l-2.081-3.143-2.08 3.143v11.604h4.161z"/>
        <path fill="#FFAEE4" d="M64.24 85.06h29.521V67.509H64.24z"/>
        <path stroke="#000" d="M64.24 85.06h29.521V67.509H64.24z"/>
        <path fill="#EF9F6A" d="M92.963 115.396H65.084V94.27a6.754 6.754 0 0 1 6.754-6.753H86.21a6.753 6.753 0 0 1 6.753 6.753v21.126z"/>
        <path stroke="#000" d="M92.963 115.396H65.084V94.27a6.754 6.754 0 0 1 6.754-6.753H86.21a6.753 6.753 0 0 1 6.753 6.753v21.126z"/>
        <path fill="#F50" d="M84.326 87.517H73.61c0 4.106-2.825 8.86-2.825 8.86v19.019h16.64V96.378s-3.098-4.755-3.098-8.861"/>
        <path stroke="#000" d="M84.326 87.517H73.61c0 4.106-2.825 8.86-2.825 8.86v19.019h16.64V96.378s-3.098-4.755-3.098-8.861z"/>
        <path fill="#EF9F6A" d="M78.995 92.272a4.106 4.106 0 0 1-4.106-4.107v-3.458h8.212v3.459a4.106 4.106 0 0 1-4.106 4.106"/>
        <path stroke="#000" d="M78.995 92.272a4.106 4.106 0 0 1-4.106-4.107v-3.458h8.212v3.459a4.106 4.106 0 0 1-4.106 4.106z"/>
        <path fill="#EF9F6A" d="M71.063 72.936a3.145 3.145 0 1 1-6.29 0 3.145 3.145 0 0 1 6.29 0"/>
        <path stroke="#000" d="M71.063 72.936a3.145 3.145 0 1 1-6.29 0 3.145 3.145 0 0 1 6.29 0z"/>
        <path fill="#EF9F6A" d="M93.436 72.936a3.146 3.146 0 1 1-6.292 0 3.146 3.146 0 0 1 6.292 0"/>
        <path stroke="#000" d="M93.436 72.936a3.146 3.146 0 1 1-6.292 0 3.146 3.146 0 0 1 6.292 0z"/>
        <path fill="#EF9F6A" d="M90.29 76.33c0 6.178-5.009 11.187-11.187 11.187-6.178 0-11.187-5.009-11.187-11.187v-5.593c0-6.178 5.01-11.187 11.187-11.187 6.178 0 11.187 5.01 11.187 11.187v5.593z"/>
        <path stroke="#000" d="M90.29 76.33c0 6.178-5.009 11.187-11.187 11.187-6.178 0-11.187-5.009-11.187-11.187v-5.593c0-6.178 5.01-11.187 11.187-11.187 6.178 0 11.187 5.01 11.187 11.187v5.593zM81.9 77.728a2.796 2.796 0 0 1-5.593 0"/>
        <path fill="#000" d="M76.38 72.135a1.573 1.573 0 1 1-3.146 0 1.573 1.573 0 0 1 3.147 0"/>
        <path stroke="#000" stroke-width=".752" d="M76.38 72.135a1.573 1.573 0 1 1-3.146 0 1.573 1.573 0 0 1 3.147 0z"/>
        <path fill="#000" d="M84.973 72.135a1.573 1.573 0 1 1-3.146 0 1.573 1.573 0 0 1 3.146 0"/>
        <path stroke="#000" stroke-width=".752" d="M84.973 72.135a1.573 1.573 0 1 1-3.146 0 1.573 1.573 0 0 1 3.146 0z"/>
        <path fill="#FFF" d="M84.458 71.831a1.058 1.058 0 1 1-2.115-.001 1.058 1.058 0 0 1 2.115.001"/>
        <path stroke="#000" stroke-width=".752" d="M84.458 71.831a1.058 1.058 0 1 1-2.115-.001 1.058 1.058 0 0 1 2.115.001z"/>
        <path fill="#FFF" d="M75.865 71.831a1.058 1.058 0 1 1-2.115-.001 1.058 1.058 0 0 1 2.115.001"/>
        <path stroke="#000" stroke-width=".752" d="M75.865 71.831a1.058 1.058 0 1 1-2.115-.001 1.058 1.058 0 0 1 2.115.001z"/>
        <path fill="#FFAEE4" d="M90.29 69.561c-6.178 0-11.187-5.008-11.187-11.187 0 6.179-5.008 11.187-11.187 11.187H64.24V68.26c0-8.152 6.61-14.76 14.76-14.76 8.153 0 14.761 6.608 14.761 14.76v1.301h-3.47z"/>
        <path stroke="#000" d="M90.29 69.561c-6.178 0-11.187-5.008-11.187-11.187 0 6.179-5.008 11.187-11.187 11.187H64.24V68.26c0-8.152 6.61-14.76 14.76-14.76 8.153 0 14.761 6.608 14.761 14.76v1.301h-3.47z"/>
        <path stroke="#9FE2A2" d="M78.15 72.135a3.343 3.343 0 1 1-6.685 0 3.343 3.343 0 0 1 6.686 0zM86.743 72.135a3.343 3.343 0 1 1-6.685 0 3.343 3.343 0 0 1 6.685 0zM78.15 72.135h1.907"/>
        <path fill="#000" d="M71.627 76.216a.407.407 0 1 1-.814 0 .407.407 0 0 1 .814 0M72.68 77.634a.407.407 0 1 1-.813 0 .407.407 0 0 1 .813 0M73.798 76.216a.407.407 0 1 1-.813 0 .407.407 0 0 1 .813 0M85.454 76.216a.407.407 0 1 1-.814 0 .407.407 0 0 1 .814 0M86.508 77.634a.407.407 0 1 1-.815 0 .407.407 0 0 1 .815 0M87.625 76.216a.407.407 0 1 1-.814 0 .407.407 0 0 1 .814 0"/>
        <path fill="#EF5722" d="M234.194 63.617l-2.08-3.143-2.08 3.143v11.604h4.16z"/>
        <path stroke="#000" stroke-width=".92" d="M234.194 63.617l-2.08-3.143-2.08 3.143v11.604h4.16z"/>
        <path fill="#EF5722" d="M242.347 63.617l-2.081-3.143-2.08 3.143v11.604h4.161z"/>
        <path stroke="#000" stroke-width=".92" d="M242.347 63.617l-2.081-3.143-2.08 3.143v11.604h4.161z"/>
        <path fill="#DAA725" d="M246.882 37.335v37.688h28.41V53.388h15.37v21.635h4.156V37.335z"/>
        <path fill="#EEADCD" d="M242.29 37.335h57.792l-28.896-21.247z"/>
        <path fill="#EF5722" d="M251.09 63.298l-2.103-3.18-2.105 3.18v11.736h4.209zM259.337 63.298l-2.104-3.18-2.105 3.18v11.736h4.209zM267.583 63.298l-2.104-3.18-2.104 3.18v11.736h4.208z"/>
        <path fill="#A1D29D" d="M259.336 66.941h4.038v-3.306h-4.038zM251.091 66.94h4.037v-3.306h-4.037zM259.336 72.751h4.038v-3.306h-4.038zM251.091 72.751h4.037v-3.306h-4.037zM275.291 74.91h15.372V53.389h-15.372z"/>
        <path fill="#DAA725" d="M287.589 67.224a1.537 1.537 0 1 1-3.074 0 1.537 1.537 0 0 1 3.074 0"/>
        <path fill="#000" d="M286.052 66.152a1.073 1.073 0 1 0 .001 2.145 1.073 1.073 0 0 0-.001-2.145m0 3.074a2.004 2.004 0 0 1-2.002-2.002c0-1.105.898-2.003 2.002-2.003 1.104 0 2.002.898 2.002 2.003a2.004 2.004 0 0 1-2.002 2.002"/>
        <path fill="#EEADCD" d="M278.366 62.612h9.223v-6.148h-9.223z"/>
        <path fill="#000" d="M278.831 62.146h8.292v-5.218h-8.292v5.218zm-.931.931h10.154v-7.079H277.9v7.079z"/>
        <path fill="#EF5722" d="M251.09 56.46h15.372v-3.075H251.09z"/>
        <path fill="#EEADCD" d="M254.165 53.386h9.223v-9.223h-9.223z"/>
        <path fill="#000" d="M265.997 55.995h-14.441v-2.144h14.441v2.144zM254.63 52.92h8.292v-8.292h-8.292v8.292zm9.223 0v-9.223H253.7v9.223h-3.075v4.006h16.303V52.92h-3.075z"/>
        <path fill="#000" d="M243.708 36.87l27.477-20.204 27.478 20.204h-54.955zm50.644 37.688h-3.224V52.923h-16.302v21.635h-6.778V63.16l-2.57-3.883-2.57 3.882v.011h-3.106v-.01l-2.57-3.883-2.57 3.882v.011h-3.106v-.01l-2.57-3.883-1.639 2.476v-23.95h47.005v36.756zm-18.596-.114h14.441v-20.59h-14.44v20.59zm-8.639.114h-3.278v-11.12l1.64-2.476 1.638 2.476v11.12zm-7.315-8.083h3.106V64.1h-3.106v2.375zm0 2.505h3.106v-1.574h-3.106v1.574zm0 3.306h3.106v-2.375h-3.106v2.375zm0 2.272h3.106v-1.34h-3.106v1.34zm-.93 0h-3.279v-11.12l1.64-2.476 1.638 2.476v11.12zm-7.316-8.083h3.106V64.1h-3.106v2.375zm0 2.505h3.106v-1.574h-3.106v1.574zm0 3.306h3.106v-2.375h-3.106v2.375zm0 2.272h3.106v-1.34h-3.106v1.34zm-.93 0h-3.279v-11.12l1.64-2.476 1.638 2.476v11.12zm20.56-59.047l-30.315 22.29h5.545V75.5l48.866-.01V37.801h6.218l-30.315-22.29z"/>
        <path fill="#EF5722" d="M24.114 128.91l2.546-4.41h-5.092z"/>
        <path stroke="#000" stroke-width=".92" d="M24.114 128.91l2.546-4.41h-5.092z"/>
        <path fill="#EF5722" d="M32.865 140.346c0-4.78-8.877-11.984-8.877-11.984s-8.434 7.204-8.434 11.984 3.875 5.771 8.656 5.771c4.78 0 8.655-.99 8.655-5.77"/>
        <path stroke="#000" stroke-width=".92" d="M32.865 140.346c0-4.78-8.877-11.984-8.877-11.984s-8.434 7.204-8.434 11.984 3.875 5.771 8.656 5.771c4.78 0 8.655-.99 8.655-5.77z"/>
        <path fill="#DAA725" d="M27 146.5h5v-40h-5z"/>
        <path stroke="#000" stroke-width=".92" d="M27 146.5h5v-40h-5z"/>
        <path fill="#DAA725" d="M126 146.5h5v-40h-5z"/>
        <path stroke="#000" d="M126 146.5h5v-40h-5z"/>
        <path fill="#FFF" d="M27 126h104v-19.458H27z"/>
        <path stroke="#000" stroke-width=".92" d="M27 126h104v-19.458H27z"/>
        <path fill="#000" d="M123.551 130.958a190.835 190.835 0 0 1-89.103 0L39 111.999a171.33 171.33 0 0 0 80 0l4.551 18.959"/>
        <path stroke="#000" stroke-width=".73" d="M123.551 130.958a190.835 190.835 0 0 1-89.103 0L39 111.999a171.33 171.33 0 0 0 80 0l4.551 18.959z"/>
        <path fill="#FFF" d="M48.949 125.103c-.174-1.13-.34-2.26-.497-3.388-.607.965-1.222 1.925-1.845 2.883.78.174 1.56.343 2.342.505m.149.996a139.237 139.237 0 0 1-3.038-.654c-.405.62-.815 1.237-1.227 1.853l-1.145-.27a218.131 218.131 0 0 0 4.527-6.862c.363.08.727.159 1.09.234.383 2.704.817 5.41 1.303 8.115a156.41 156.41 0 0 1-1.154-.223c-.122-.731-.241-1.463-.356-2.194M53.044 128.963c-.477-.183-.853-.367-1.128-.55l.347-1.068c.35.242.755.471 1.215.683.46.213.929.358 1.405.435.538.087.97.06 1.293-.08.324-.14.513-.397.568-.767a1.082 1.082 0 0 0-.12-.723c-.12-.208-.311-.396-.575-.568a10.295 10.295 0 0 0-1.12-.596 7.335 7.335 0 0 1-1.195-.682c-.31-.224-.54-.5-.693-.825-.154-.325-.19-.709-.11-1.149a1.833 1.833 0 0 1 .989-1.354c.546-.29 1.25-.363 2.12-.223a6.353 6.353 0 0 1 2.363.894c-.088.361-.178.722-.268 1.084a5.5 5.5 0 0 0-1.12-.7 4.497 4.497 0 0 0-1.17-.35c-.478-.079-.872-.055-1.185.07-.313.126-.502.367-.564.73a.934.934 0 0 0 .09.64c.103.182.268.35.496.502.227.154.55.331.972.533.842.402 1.458.811 1.844 1.232.385.424.537.951.447 1.582-.093.668-.431 1.153-1.018 1.448-.587.296-1.406.364-2.45.194a7.168 7.168 0 0 1-1.433-.392M60.396 130.05c-.484-.16-.868-.325-1.152-.495l.294-1.083c.36.224.775.432 1.245.621.469.19.944.312 1.423.365.54.06.969.01 1.285-.146.316-.156.49-.42.528-.793a1.082 1.082 0 0 0-.155-.717c-.13-.2-.331-.38-.602-.538a9.999 9.999 0 0 0-1.145-.539 7.221 7.221 0 0 1-1.226-.622 2.118 2.118 0 0 1-.733-.789c-.17-.317-.224-.699-.166-1.142a1.838 1.838 0 0 1 .919-1.402c.53-.317 1.229-.425 2.104-.328.47.051.91.15 1.324.295.414.144.772.304 1.077.48l-.215 1.095a5.552 5.552 0 0 0-1.152-.643 4.53 4.53 0 0 0-1.182-.292c-.482-.053-.874-.01-1.18.13-.306.142-.482.393-.526.757-.031.247.01.46.12.636.113.175.286.335.52.476.235.143.567.303.997.483.859.36 1.494.737 1.899 1.14.406.403.583.922.525 1.557-.06.672-.373 1.173-.944 1.496-.571.325-1.384.434-2.432.317a7.148 7.148 0 0 1-1.45-.32M67.518 123.02c.35.028.7.053 1.05.079l-.54 7.68a137.53 137.53 0 0 1-1.108-.082l.598-7.677M71.344 130.981c-.493-.123-.887-.259-1.183-.408l.213-1.101c.376.197.803.373 1.285.528.481.154.963.24 1.444.258.543.019.967-.062 1.27-.24.302-.179.457-.456.468-.829a1.09 1.09 0 0 0-.207-.705c-.144-.191-.359-.354-.64-.492a10.166 10.166 0 0 0-1.18-.453 7.333 7.333 0 0 1-1.267-.53 2.123 2.123 0 0 1-.787-.733c-.193-.303-.275-.68-.25-1.127a1.834 1.834 0 0 1 .813-1.465c.504-.356 1.193-.515 2.07-.483a5.9 5.9 0 0 1 1.341.197 6.32 6.32 0 0 1 1.108.399l-.133 1.109a5.496 5.496 0 0 0-1.196-.557 4.508 4.508 0 0 0-1.199-.204c-.482-.018-.87.054-1.164.217-.296.163-.452.427-.47.793a.941.941 0 0 0 .168.625c.124.167.308.313.552.437.244.125.587.261 1.027.409.883.295 1.543.624 1.977.996.434.373.648.877.638 1.514-.011.675-.287 1.198-.832 1.562-.543.366-1.345.534-2.398.495a7.164 7.164 0 0 1-1.468-.212M79.47 124.39c-.758.006-1.519.005-2.276-.001l.007-.947a142.11 142.11 0 0 0 5.579-.058c.008.315.019.63.028.945-.759.023-1.519.04-2.277.05l.095 6.754c-.37.006-.74.009-1.11.012l-.046-6.754M87.762 127.83c-.464-1.044-.92-2.09-1.367-3.137-.329 1.09-.667 2.18-1.013 3.267.794-.037 1.587-.08 2.38-.13m.405.921c-1.029.068-2.057.124-3.086.171a247.01 247.01 0 0 1-.691 2.11c-.389.015-.778.03-1.168.041a221.903 221.903 0 0 0 2.538-7.81c.369-.02.738-.04 1.107-.063a220.902 220.902 0 0 0 3.386 7.484c-.389.031-.778.061-1.167.088a215.79 215.79 0 0 1-.919-2.02M91.16 122.88c.38-.034.76-.07 1.14-.107a150.674 150.674 0 0 0 4.525 5.294l-.717-5.719c.352-.045.705-.09 1.057-.137l1.016 7.633c-.313.042-.627.082-.941.122a151.506 151.506 0 0 1-4.872-5.575l.589 6.055c-.37.036-.738.07-1.107.103l-.69-7.669M102.071 128.93a3.544 3.544 0 0 1-1.66-1.164c-.438-.545-.71-1.215-.827-2.006-.116-.79-.045-1.51.207-2.16a3.673 3.673 0 0 1 1.19-1.605c.542-.42 1.187-.695 1.94-.827a5.307 5.307 0 0 1 1.115-.077c.372.013.71.062 1.014.146l.071.971c-.72-.183-1.402-.22-2.049-.106-.588.103-1.069.32-1.446.653a2.588 2.588 0 0 0-.783 1.234 3.638 3.638 0 0 0-.084 1.594c.09.573.277 1.071.57 1.492.292.422.674.731 1.147.924.472.194 1.016.24 1.63.131a4.82 4.82 0 0 0 1.982-.83l.295.928a5.402 5.402 0 0 1-2.126.835c-.787.138-1.518.092-2.186-.134M106.776 120.594c1.555-.317 3.105-.661 4.65-1.031l.22.92c-1.21.29-2.422.564-3.637.82l.467 2.207c.982-.208 1.962-.426 2.94-.655l.215.92c-.984.23-1.971.45-2.96.66.18.85.36 1.7.542 2.55a146.25 146.25 0 0 0 3.888-.878l.22.92c-1.663.4-3.333.77-5.006 1.11l-1.54-7.543M39 112l-12-5"/>
        <path stroke="#000" d="M39 112l-12-5M119 112l12-5"/>
        <path fill="#EEADCD" d="M27 106h20v-4H27z"/>
        <path stroke="#000" stroke-width=".92" d="M27 106h20v-4H27z"/>
        <path fill="#EF5722" d="M29 102h20v-4H29z"/>
        <path stroke="#000" stroke-width=".92" d="M29 102h20v-4H29z"/>
        <path fill="#EEADCD" d="M26 98h20v-4H26z"/>
        <path stroke="#000" stroke-width=".92" d="M26 98h20v-4H26z"/>
        <path fill="#A1D29D" d="M34 94h8V84h-8z"/>
        <path stroke="#000" stroke-width=".92" d="M34 94h8V84h-8z"/>
        <path fill="#EEADCD" d="M184.86 129.369a5.046 5.046 0 1 1 10.092 0 5.046 5.046 0 0 1-10.092 0"/>
        <path fill="#A2D39F" d="M177.873 131.697a5.046 5.046 0 1 1 10.091 0 5.046 5.046 0 0 1-10.091 0"/>
        <path fill="#DAA725" d="M174.337 146.448h21.003v-17.079h-21.003z"/>
        <path stroke="#000" stroke-width=".92" d="M174.337 146.448h21.003v-17.079h-21.003z"/>
        <path fill="#DAA725" d="M150.775 118.5l5.624 8.994"/>
        <path stroke="#000" stroke-width=".92" d="M150.775 118.5l5.624 8.994"/>
        <path fill="#DAA725" d="M186.529 118.5l-5.624 8.994"/>
        <path stroke="#000" stroke-width=".92" d="M186.529 118.5l-5.624 8.994"/>
        <path fill="#F05822" d="M173.215 126.263a5.046 5.046 0 1 0-10.091 0 5.046 5.046 0 0 0 10.091 0"/>
        <path fill="#EEADCD" d="M180.202 128.592a5.046 5.046 0 1 0-10.092 0 5.046 5.046 0 0 0 10.092 0"/>
        <path fill="#F05822" d="M153.031 132.474a5.046 5.046 0 1 0-10.091 0 5.046 5.046 0 0 0 10.091 0"/>
        <path fill="#EEADCD" d="M160.018 134.803a5.046 5.046 0 1 0-10.092 0 5.046 5.046 0 0 0 10.092 0"/>
        <path fill="#A2D39F" d="M166.228 128.592a5.046 5.046 0 1 0-10.091 0 5.046 5.046 0 0 0 10.091 0"/>
        <path fill="#DAA725" d="M155.705 146.447h25.403V126.82h-25.403z"/>
        <path stroke="#000" stroke-width=".92" d="M155.705 146.447h25.403V126.82h-25.403z"/>
        <path fill="#DAA725" d="M142.508 146.448h18.085v-13.974h-18.085z"/>
        <path stroke="#000" stroke-width=".92" d="M142.508 146.448h18.085v-13.974h-18.085z"/>
        <path fill="#A1D29D" d="M52 106h7v-9h-7z"/>
        <path stroke="#000" stroke-width=".92" d="M52 106h7v-9h-7z"/>
        <path fill="#EEADCD" d="M59 106h7v-9h-7z"/>
        <path stroke="#000" stroke-width=".92" d="M59 106h7v-9h-7z"/>
        <path fill="#DAA725" d="M55 97h7v-9h-7z"/>
        <path stroke="#000" stroke-width=".92" d="M55 97h7v-9h-7z"/>
        <path fill="#DAA725" d="M70 106h7v-9h-7z"/>
        <path stroke="#000" stroke-width=".92" d="M70 106h7v-9h-7z"/>
        <path fill="#EEADCD" d="M142.661 131.401l2.227-3.857h-4.454z"/>
        <path stroke="#000" stroke-width=".92" d="M142.661 131.401l2.227-3.857h-4.454z"/>
        <path fill="#EEADCD" d="M150.314 141.401c0-4.18-7.763-10.48-7.763-10.48s-7.375 6.3-7.375 10.48c0 4.18 3.389 5.046 7.569 5.046s7.569-.866 7.569-5.046"/>
        <path stroke="#000" stroke-width=".92" d="M150.314 141.401c0-4.18-7.763-10.48-7.763-10.48s-7.375 6.3-7.375 10.48c0 4.18 3.389 5.046 7.569 5.046s7.569-.866 7.569-5.046z"/>
        <path fill="#A1D29D" d="M133.28 129.772l2.698-4.673h-5.396z"/>
        <path stroke="#000" stroke-width=".92" d="M133.28 129.772l2.698-4.673h-5.396z"/>
        <path fill="#A1D29D" d="M142.55 141.887c0-5.064-9.314-12.518-9.314-12.518s-9.025 7.454-9.025 12.518c0 5.064 4.106 6.113 9.17 6.113 5.065 0 9.17-1.05 9.17-6.113"/>
        <path stroke="#000" stroke-width=".92" d="M142.55 141.887c0-5.064-9.314-12.518-9.314-12.518s-9.025 7.454-9.025 12.518c0 5.064 4.106 6.113 9.17 6.113 5.065 0 9.17-1.05 9.17-6.113z"/>
        <path fill="#DAA725" d="M107 106h18.8V82.5H107z"/>
        <path stroke="#000" stroke-width=".92" d="M107 106h18.8V82.5H107z"/>
        <path fill="#EF5722" d="M98 106h16V86H98z"/>
        <path stroke="#000" stroke-width=".92" d="M98 106h16V86H98z"/>
        <path fill="#A1D29D" d="M103 106h12.8V90H103z"/>
        <path stroke="#000" stroke-width=".92" d="M103 106h12.8V90H103z"/>
    </g>
</svg>
