<svg xmlns="http://www.w3.org/2000/svg" width="320" height="150" viewBox="0 0 320 150">
    <g fill="none" fill-rule="evenodd">
        <path fill="#E0E0E0" d="M0 150h320V0H0z"/>
        <path stroke="#FFF" stroke-width="10" d="M8.5 150c0-20.71 16.79-37.5 37.5-37.5h228c20.71 0 37.5-16.79 37.5-37.5S294.71 37.5 274 37.5H46C25.29 37.5 8.5 20.71 8.5 0"/>
        <path fill="#000" d="M101.373 74.64h-1.024l.001-50.7h1.024z"/>
        <path fill="#A2D39F" d="M99.487 27.885c.417 0 .765-.092 1.046-.191.106.025.216.042.329.042.114 0 .224-.017.33-.042.28.099.629.19 1.046.19a4.546 4.546 0 0 0 4.54-4.54 1.789 1.789 0 0 0-3.577 0c0 .5-.382.914-.871.96l-.061-.024v-5.17a1.407 1.407 0 0 0-2.813 0v5.17l-.061.024a.964.964 0 0 1-.871-.96 1.789 1.789 0 0 0-3.577 0 4.546 4.546 0 0 0 4.54 4.54"/>
        <path fill="#A2D39F" d="M98.891 34.502c.721 0 1.29-.235 1.704-.407.085-.035.192-.08.267-.106.074.026.182.071.266.106.415.172.984.407 1.704.407 2.817 0 5.223-2.09 5.597-4.862a1.789 1.789 0 0 0-3.544-.479c-.135 1-1.006 1.754-2.03 1.765-.07-.016-.236-.085-.358-.135-.4-.166-.95-.393-1.635-.393s-1.234.227-1.635.393c-.122.05-.287.12-.358.135-1.025-.01-1.895-.766-2.03-1.765a1.788 1.788 0 1 0-3.544.479c.374 2.772 2.78 4.862 5.596 4.862"/>
        <path fill="#A2D39F" d="M98.296 41.12c.832 0 1.514-.282 2.013-.488.184-.076.464-.192.548-.2.095.008.374.124.56.2.497.206 1.18.489 2.011.489 3.153 0 5.946-2.215 6.64-5.267a1.788 1.788 0 1 0-3.486-.794c-.328 1.44-1.655 2.485-3.154 2.485-.12 0-.41-.12-.644-.217-.507-.21-1.138-.471-1.922-.471s-1.415.26-1.922.47c-.233.098-.524.218-.644.218-1.5 0-2.826-1.045-3.154-2.485a1.79 1.79 0 0 0-2.14-1.347 1.79 1.79 0 0 0-1.347 2.14c.695 3.053 3.488 5.268 6.641 5.268"/>
        <path fill="#A2D39F" d="M97.701 47.739c.942 0 1.707-.316 2.32-.571.314-.13.668-.277.841-.277.172 0 .528.147.84.277.615.255 1.38.57 2.322.57 3.53 0 6.69-2.351 7.684-5.72a1.788 1.788 0 0 0-3.43-1.011c-.549 1.858-2.299 3.156-4.255 3.156-.23 0-.58-.145-.951-.3-.591-.244-1.326-.548-2.21-.548-.883 0-1.618.304-2.209.549-.37.154-.722.299-.952.299-1.956 0-3.706-1.298-4.254-3.156a1.788 1.788 0 1 0-3.43 1.012c.993 3.368 4.154 5.72 7.684 5.72"/>
        <path fill="#A2D39F" d="M97.106 54.357c1.052 0 1.926-.362 2.628-.653.44-.182.856-.355 1.128-.355.272 0 .687.173 1.128.355.702.29 1.576.653 2.628.653a9.241 9.241 0 0 0 8.732-6.204 1.788 1.788 0 1 0-3.379-1.171 5.663 5.663 0 0 1-5.353 3.799c-.34 0-.767-.177-1.26-.381-.674-.28-1.513-.627-2.496-.627-.983 0-1.822.348-2.496.627-.493.204-.92.38-1.26.38a5.665 5.665 0 0 1-5.354-3.798 1.787 1.787 0 1 0-3.378 1.172 9.242 9.242 0 0 0 8.732 6.203"/>
        <path fill="#A2D39F" d="M113.974 51.956a1.789 1.789 0 0 0-2.313 1.022 6.958 6.958 0 0 1-6.448 4.42c-.45 0-.968-.214-1.568-.462-.797-.33-1.7-.705-2.783-.705s-1.986.375-2.784.705c-.599.248-1.116.462-1.567.462a6.96 6.96 0 0 1-6.449-4.42 1.788 1.788 0 1 0-3.335 1.291c1.553 4.011 5.484 6.706 9.784 6.706 1.162 0 2.146-.408 2.936-.735.537-.222 1.044-.432 1.415-.432s.878.21 1.414.432c.791.327 1.775.735 2.937.735 4.3 0 8.231-2.695 9.783-6.706a1.787 1.787 0 0 0-1.022-2.313"/>
        <path fill="#000" d="M25.918 48.854h1.024v-37.5h-1.024z"/>
        <path fill="#F05822" d="M31.616 12.531c-.599 0-1.367-.037-1.987-.32-.277-.128-.593-.332-.897-.53-.15-.097-.301-.193-.454-.287V8.687a1.841 1.841 0 0 0-3.682 0v2.698c-.158.096-.314.196-.468.296-.305.198-.62.402-.897.53-.62.283-1.388.32-1.988.32a1.672 1.672 0 0 0 0 3.343c.94 0 2.173-.07 3.382-.626.497-.228.935-.51 1.321-.76.143-.094.333-.218.484-.306.15.088.341.212.484.305.386.25.823.533 1.321.761 1.208.555 2.442.626 3.381.626a1.671 1.671 0 0 0 0-3.343"/>
        <path fill="#F05822" d="M32.935 21.421c-1.135 0-2.623-.085-4.064-.746-.596-.274-1.131-.62-1.603-.926-.256-.166-.62-.402-.838-.508-.22.106-.582.342-.84.508-.47.306-1.005.652-1.601.926-1.441.661-2.93.746-4.064.746a1.672 1.672 0 1 1 0-3.343c.795 0 1.817-.05 2.67-.44.375-.174.783-.438 1.178-.694.822-.533 1.672-1.084 2.657-1.084.985 0 1.835.551 2.656 1.084.395.256.804.52 1.18.693.852.391 1.874.441 2.669.441a1.671 1.671 0 0 1 0 3.343"/>
        <path fill="#F05822" d="M34.254 26.968c-1.331 0-3.073-.099-4.746-.866-.695-.319-1.327-.729-1.885-1.09-.376-.244-.93-.602-1.193-.697-.264.095-.817.453-1.193.697-.558.361-1.19.771-1.884 1.09-1.674.767-3.416.866-4.747.866a1.671 1.671 0 0 1 0-3.343c.99 0 2.267-.064 3.353-.562.474-.217.975-.542 1.46-.857.99-.64 1.926-1.248 3.01-1.248 1.086 0 2.02.607 3.012 1.248.485.315.986.64 1.46.857 1.086.498 2.362.562 3.353.562a1.671 1.671 0 0 1 0 3.343"/>
        <path fill="#F05822" d="M35.573 32.515c-1.526 0-3.523-.112-5.43-.987-.792-.364-1.522-.836-2.166-1.254-.5-.323-1.246-.807-1.547-.872-.301.065-1.048.55-1.547.872-.644.418-1.373.89-2.166 1.254-1.907.875-3.903.987-5.43.987a1.67 1.67 0 1 1 0-3.343c1.187 0 2.718-.077 4.035-.682.573-.263 1.168-.648 1.743-1.02 1.12-.727 2.18-1.414 3.365-1.414s2.244.687 3.366 1.413c.575.373 1.169.758 1.742 1.021 1.318.605 2.848.682 4.035.682a1.672 1.672 0 0 1 0 3.343"/>
        <path fill="#F05822" d="M36.891 38.063c-1.722 0-3.973-.127-6.11-1.108-.893-.41-1.72-.944-2.45-1.417-.626-.406-1.572-1.02-1.907-1.041-.325.022-1.27.635-1.896 1.04-.73.474-1.557 1.008-2.449 1.419-2.138.98-4.389 1.106-6.11 1.106a1.672 1.672 0 1 1 0-3.343c1.381 0 3.166-.09 4.716-.803.672-.307 1.36-.752 2.025-1.184 1.252-.811 2.435-1.578 3.72-1.578 1.283 0 2.466.767 3.72 1.577.664.432 1.352.877 2.024 1.185 1.55.713 3.335.803 4.717.803a1.672 1.672 0 1 1 0 3.343"/>
        <path fill="#F05822" d="M38.21 43.61c-1.917 0-4.423-.14-6.794-1.229-.99-.454-1.915-1.053-2.73-1.582-.742-.48-1.86-1.206-2.256-1.206-.396 0-1.515.726-2.256 1.206-.816.53-1.74 1.128-2.73 1.582-2.372 1.088-4.878 1.228-6.795 1.228a1.671 1.671 0 0 1 0-3.343c1.578 0 3.618-.105 5.4-.923.77-.353 1.551-.859 2.307-1.349 1.383-.897 2.69-1.743 4.074-1.743 1.383 0 2.69.846 4.073 1.743.756.49 1.537.996 2.307 1.35 1.783.817 3.822.922 5.4.922a1.672 1.672 0 1 1 0 3.343"/>
        <path fill="#EF5722" d="M96.203 53.328v22.758H71.61V53.328"/>
        <path fill="#000" d="M96.73 76.614H71.082V53.328h1.055v22.23h23.538v-22.23h1.055z"/>
        <path fill="#DAA725" d="M75.123 75.901h17.566v-3.162H75.123z"/>
        <path fill="#000" d="M75.65 75.374h16.512v-2.107H75.65v2.107zm-1.055 1.055h18.622v-4.217H74.595v4.217z"/>
        <path fill="#A1D29D" d="M78.637 72.739h10.54V58.692h-10.54z"/>
        <path fill="#000" d="M79.164 72.212h9.485V59.22h-9.485v12.992zm-1.055 1.055h11.594V58.165H78.109v15.102z"/>
        <path fill="#EEADCD" d="M68.097 53.328l15.81-14.053 15.81 14.053z"/>
        <path fill="#000" d="M69.483 52.8H98.33L83.906 39.98 69.483 52.8zm31.62 1.056H66.71L83.906 38.57l17.197 15.286z"/>
        <path fill="#A1D29D" d="M193.81 121.063v22.758h-24.594v-22.758"/>
        <path fill="#000" d="M194.337 144.349h-25.648v-23.286h1.055v22.23h23.538v-22.23h1.055z"/>
        <path fill="#EF5722" d="M172.73 143.636h17.566v-3.162H172.73z"/>
        <path fill="#000" d="M173.257 143.109h16.512v-2.107h-16.512v2.107zm-1.055 1.055h18.621v-4.217h-18.621v4.217z"/>
        <path fill="#EEADCD" d="M176.243 140.474h10.54v-14.047h-10.54z"/>
        <path fill="#000" d="M176.77 139.947h9.485v-12.992h-9.485v12.992zm-1.055 1.054h11.595v-15.102h-11.595v15.102z"/>
        <path fill="#DAA725" d="M165.703 121.063l15.81-14.053 15.81 14.053z"/>
        <path fill="#000" d="M167.09 120.536h28.846l-14.424-12.821-14.423 12.82zm31.62 1.055h-34.393l17.195-15.286 17.197 15.286z"/>
        <path fill="#A1D29D" d="M146.81 53.328v22.758h-24.594V53.328"/>
        <path fill="#000" d="M147.337 76.614h-25.648V53.328h1.055v22.23h23.538v-22.23h1.055z"/>
        <path fill="#EF5722" d="M125.73 75.901h17.566v-3.162H125.73z"/>
        <path fill="#000" d="M126.257 75.374h16.512v-2.107h-16.512v2.107zm-1.055 1.055h18.621v-4.217h-18.621v4.217z"/>
        <path fill="#EEADCD" d="M129.243 72.739h10.54V58.692h-10.54z"/>
        <path fill="#000" d="M129.77 72.212h9.485V59.22h-9.485v12.992zm-1.055 1.055h11.595V58.165h-11.595v15.102z"/>
        <path fill="#DAA725" d="M118.703 53.328l15.81-14.053 15.81 14.053z"/>
        <path fill="#000" d="M120.09 52.8h28.846l-14.424-12.82L120.09 52.8zm31.62 1.056h-34.393l17.195-15.286 17.197 15.286z"/>
        <path fill="#DAA725" d="M52.914 53.328v22.758H28.321V53.328"/>
        <path fill="#000" d="M53.442 76.614H27.794V53.328h1.055v22.23h23.538v-22.23h1.055z"/>
        <path fill="#EEADCD" d="M31.835 75.901h17.566v-3.162H31.835z"/>
        <path fill="#000" d="M32.362 75.374h16.512v-2.107H32.362v2.107zm-1.055 1.055h18.622v-4.217H31.307v4.217z"/>
        <path fill="#A1D29D" d="M35.348 72.739h10.54V58.692h-10.54z"/>
        <path fill="#000" d="M35.875 72.212h9.485V59.22h-9.485v12.992zm-1.054 1.055h11.594V58.165H34.821v15.102z"/>
        <path fill="#EF5722" d="M24.808 53.328l15.81-14.053 15.81 14.053z"/>
        <path fill="#000" d="M26.194 52.8h28.847L40.618 39.98 26.194 52.8zm31.62 1.056H23.422L40.618 38.57l17.196 15.286z"/>
        <path fill="#EEADCD" d="M280.62 53.328v22.758h-24.594V53.328"/>
        <path fill="#000" d="M281.146 76.614h-25.648V53.328h1.055v22.23h23.538v-22.23h1.055z"/>
        <path fill="#EF5722" d="M259.539 75.901h17.566v-3.162h-17.566z"/>
        <path fill="#000" d="M260.067 75.374h16.512v-2.107h-16.512v2.107zm-1.055 1.055h18.621v-4.217h-18.621v4.217z"/>
        <path fill="#DAA725" d="M263.053 72.739h10.54V58.692h-10.54z"/>
        <path fill="#000" d="M263.58 72.212h9.485V59.22h-9.485v12.992zm-1.055 1.055h11.595V58.165h-11.595v15.102z"/>
        <path fill="#A1D29D" d="M252.513 53.328l15.81-14.053 15.81 14.053z"/>
        <path fill="#000" d="M253.899 52.8h28.847l-14.423-12.82-14.424 12.82zm31.62 1.056h-34.392l17.196-15.286 17.196 15.286z"/>
        <path fill="#EEADCD" d="M161.928 13.584v62.485h17.917v-3.306h1.884V54.716h-1.884c0-5.631 4.687-10.196 10.469-10.196 5.78 0 10.468 4.565 10.468 10.196h-1.766v18.047h1.766v3.306h18.46V13.584h-57.314z"/>
        <path fill="#A1D29D" d="M179.845 54.716h6.577s-1.89-10.197 3.892-10.197c-5.782 0-10.47 4.566-10.47 10.197"/>
        <path fill="#A1D29D" d="M200.782 54.716c0-5.63-4.687-10.197-10.469-10.197 5.782 0 3.892 10.197 3.892 10.197h6.577z"/>
        <path fill="#EF5722" d="M181.728 72.762h17.288V54.716h-17.288z"/>
        <path fill="#DAA725" d="M179.845 76.131h20.937v-3.368h-20.937z"/>
        <path fill="#EF5722" d="M165.541 27.269h10.235V17.034h-10.235z"/>
        <path fill="#000" d="M166.086 26.724h9.146v-9.146h-9.146v9.146zm-1.09 1.089h11.325V16.488h-11.325v11.325z"/>
        <path fill="#EF5722" d="M205.393 27.269h10.235V17.034h-10.235z"/>
        <path fill="#000" d="M205.938 26.724h9.146v-9.146h-9.146v9.146zm-1.09 1.089h11.325V16.488h-11.325v11.325z"/>
        <path fill="#EF5722" d="M185.467 27.269h10.235V17.034h-10.235z"/>
        <path fill="#000" d="M186.012 26.724h9.146v-9.146h-9.146v9.146zm-1.09 1.089h11.325V16.488h-11.325v11.325z"/>
        <path fill="#EF5722" d="M165.541 41.012h10.235V30.777h-10.235z"/>
        <path fill="#000" d="M166.086 40.467h9.146v-9.146h-9.146v9.146zm-1.09 1.089h11.325V30.231h-11.325v11.325z"/>
        <path fill="#EF5722" d="M205.393 41.012h10.235V30.777h-10.235z"/>
        <path fill="#000" d="M205.938 40.467h9.146v-9.146h-9.146v9.146zm-1.09 1.089h11.325V30.231h-11.325v11.325z"/>
        <path fill="#EF5722" d="M185.255 41.012h10.235V30.777h-10.235z"/>
        <path fill="#000" d="M185.799 40.467h9.146v-9.146h-9.146v9.146zm-1.089 1.089h11.325V30.231H184.71v11.325z"/>
        <path fill="#EF5722" d="M165.541 54.755h10.235V44.52h-10.235z"/>
        <path fill="#000" d="M166.086 54.21h9.146v-9.146h-9.146v9.146zm-1.09 1.089h11.325V43.974h-11.325v11.325z"/>
        <path fill="#EF5722" d="M205.393 54.755h10.235V44.52h-10.235z"/>
        <path fill="#000" d="M205.938 54.21h9.146v-9.146h-9.146v9.146zm-1.09 1.089h11.325V43.974h-11.325v11.325z"/>
        <path fill="#A1D29D" d="M158.075 13.584h65.02V7.13h-65.02z"/>
        <path fill="#DAA725" d="M190.313 44.52c-5.782 0-3.892 10.197-3.892 10.197h7.784s1.89-10.197-3.892-10.197"/>
        <path fill="#000" d="M222.55 13.04h-63.93V7.676h63.93v5.364zm-3.853 62.485h-17.37v-3.307h-1.766V55.262h1.766v-.545c0-5.923-4.941-10.742-11.013-10.742-6.073 0-11.014 4.819-11.014 10.742v.545h1.884v16.956H179.3v3.307h-16.827V14.129h56.224v61.396zm-32.911-21.353H180.404c.227-3.931 2.884-7.24 6.528-8.53-1.773 2.438-1.374 6.87-1.146 8.53zm4.042 1.09v16.956h-7.554V55.262h7.554zm3.91-1.09h-6.85c-.205-1.437-.68-5.973 1.059-8.063.585-.703 1.359-1.045 2.367-1.045 1.007 0 1.78.342 2.366 1.045 1.74 2.09 1.264 6.626 1.059 8.063zm4.734 1.09v16.956h-7.555V55.262h7.555zm-3.631-1.09c.228-1.66.627-6.092-1.146-8.53 3.645 1.29 6.3 4.599 6.527 8.53h-5.381zm5.397 21.353h-19.85v-2.217H200.239v2.217zm23.402-68.94h-66.11v7.544h3.853v62.485h58.404V14.129h3.853V6.586z"/>
        <path fill="#DAA725" d="M233.788 81.319v62.485h17.917v-3.306h1.884v-18.046h-1.884c0-5.632 4.687-10.197 10.468-10.197 5.782 0 10.47 4.565 10.47 10.197h-1.767v18.046h1.766v3.306h18.46V81.319h-57.314z"/>
        <path fill="#EF5722" d="M251.705 122.452h6.577s-1.89-10.197 3.892-10.197c-5.782 0-10.47 4.565-10.47 10.197"/>
        <path fill="#EF5722" d="M272.642 122.452c0-5.632-4.687-10.197-10.469-10.197 5.782 0 3.892 10.197 3.892 10.197h6.577z"/>
        <path fill="#A1D29D" d="M253.589 140.498h17.288v-18.046h-17.288z"/>
        <path fill="#EEADCD" d="M251.705 143.866h20.937v-3.368h-20.937z"/>
        <path fill="#A1D29D" d="M237.402 95.003h10.235V84.768h-10.235z"/>
        <path fill="#000" d="M237.947 94.458h9.146v-9.146h-9.146v9.146zm-1.09 1.09h11.325V84.223h-11.325v11.325z"/>
        <path fill="#A1D29D" d="M277.254 95.003h10.235V84.768h-10.235z"/>
        <path fill="#000" d="M277.799 94.458h9.146v-9.146h-9.146v9.146zm-1.089 1.09h11.324V84.223H276.71v11.325z"/>
        <path fill="#A1D29D" d="M257.328 95.003h10.235V84.768h-10.235z"/>
        <path fill="#000" d="M257.872 94.458h9.146v-9.146h-9.146v9.146zm-1.089 1.09h11.325V84.223h-11.325v11.325z"/>
        <path fill="#A1D29D" d="M237.402 108.747h10.235V98.512h-10.235z"/>
        <path fill="#000" d="M237.947 108.202h9.146v-9.146h-9.146v9.146zm-1.09 1.089h11.325V97.966h-11.325v11.325z"/>
        <path fill="#A1D29D" d="M277.254 108.747h10.235V98.512h-10.235z"/>
        <path fill="#000" d="M277.799 108.202h9.146v-9.146h-9.146v9.146zm-1.089 1.089h11.324V97.966H276.71v11.325z"/>
        <path fill="#A1D29D" d="M257.116 108.747h10.235V98.512h-10.235z"/>
        <path fill="#000" d="M257.66 108.202h9.146v-9.146h-9.146v9.146zm-1.09 1.089h11.325V97.966H256.57v11.325z"/>
        <path fill="#A1D29D" d="M237.402 122.49h10.235v-10.235h-10.235z"/>
        <path fill="#000" d="M237.947 121.945h9.146v-9.146h-9.146v9.146zm-1.09 1.089h11.325v-11.325h-11.325v11.325z"/>
        <path fill="#A1D29D" d="M277.254 122.49h10.235v-10.235h-10.235z"/>
        <path fill="#000" d="M277.799 121.945h9.146v-9.146h-9.146v9.146zm-1.089 1.089h11.324v-11.325H276.71v11.325z"/>
        <path fill="#EF5722" d="M229.935 81.319h65.02v-6.454h-65.02z"/>
        <path fill="#EEADCD" d="M262.174 112.254c-5.782 0-3.892 10.197-3.892 10.197h7.784s1.89-10.197-3.892-10.197"/>
        <path fill="#000" d="M294.41 80.774h-63.93V75.41h63.93v5.364zm-3.853 62.485h-17.37v-3.307h-1.766v-16.956h1.767v-.545c0-5.923-4.941-10.742-11.013-10.742-6.075 0-11.014 4.82-11.014 10.742v.545h1.883v16.956h-1.883v3.307h-16.828V81.863h56.225v61.396zm-32.911-21.353h-5.381c.227-3.93 2.883-7.24 6.528-8.529-1.774 2.437-1.375 6.87-1.147 8.53zm4.042 1.09v16.956h-7.554v-16.956h7.554zm3.911-1.09h-6.851c-.204-1.437-.68-5.973 1.059-8.062.585-.704 1.36-1.046 2.368-1.046 1.007 0 1.78.342 2.365 1.046 1.74 2.09 1.263 6.625 1.06 8.062zm4.733 1.09v16.956h-7.555v-16.956h7.555zm-3.63-1.09c.228-1.66.627-6.092-1.147-8.529 3.645 1.29 6.301 4.598 6.527 8.53h-5.38zm5.397 21.353h-19.85v-2.217h19.85v2.217zm23.4-68.939H229.39v7.543h3.854v62.485h58.403V81.863h3.853V74.32z"/>
        <path fill="#DBA827" d="M134.762 102.458v5.846h5.845a3.897 3.897 0 0 1 3.898 3.897h11.69a3.897 3.897 0 1 1 7.796 0h1.947v-3.897h1.949V90.767a3.897 3.897 0 0 0-3.897-3.898h-21.435a3.898 3.898 0 0 0-3.897 3.898v7.794c-3.896 0-3.896 3.897-3.896 3.897"/>
        <path fill="#EFAECE" d="M163.99 112.2a3.897 3.897 0 1 1-7.795 0 3.897 3.897 0 0 1 7.795 0"/>
        <path fill="#F05822" d="M162.041 112.2a1.949 1.949 0 1 1-3.897.001 1.949 1.949 0 0 1 3.897 0"/>
        <path fill="#000" d="M158.534 112.2a1.559 1.559 0 1 0 3.118 0 1.559 1.559 0 0 0-3.118 0m-.779 0a2.338 2.338 0 1 1 4.675 0 2.338 2.338 0 0 1-4.675 0"/>
        <path fill="#EFAECE" d="M144.504 112.2a3.897 3.897 0 1 1-7.794 0 3.897 3.897 0 0 1 7.794 0"/>
        <path fill="#F05822" d="M142.556 112.2a1.95 1.95 0 1 1-3.899 0 1.95 1.95 0 0 1 3.899 0"/>
        <path fill="#000" d="M139.048 112.2a1.559 1.559 0 1 0 3.118 0 1.559 1.559 0 0 0-3.118 0m-.779 0a2.338 2.338 0 1 1 4.676 0 2.338 2.338 0 0 1-4.676 0"/>
        <path fill="#221F1F" d="M150.35 100.704h15.589v-.779H150.35zM150.35 104.796h15.589v-.779H150.35z"/>
        <path fill="#A2D39F" d="M138.659 98.561h3.897v-5.846h-3.897zM150.35 98.561h3.897v-5.846h-3.897z"/>
        <path fill="#000" d="M150.739 98.17h3.118v-5.066h-3.118v5.066zm-.779.78h4.677v-6.625h-4.677v6.625z"/>
        <path fill="#A2D39F" d="M156.196 98.561h3.897v-5.846h-3.897z"/>
        <path fill="#000" d="M156.585 98.17h3.118v-5.066h-3.118v5.066zm-.779.78h4.677v-6.625h-4.677v6.625z"/>
        <path fill="#A2D39F" d="M162.042 98.561h3.897v-5.846h-3.897z"/>
        <path fill="#000" d="M162.431 98.17h3.118v-5.066h-3.118v5.066zm-.779.78h4.677v-6.625h-4.677v6.625z"/>
        <path fill="#A2D39F" d="M144.504 92.715v15.589H148.401v-15.59h-1.948z"/>
        <path fill="#000" d="M144.894 107.914h1.169v-14.81h-1.169v14.81zm1.949 0h1.169v-14.81h-1.169v14.81zm-2.728-15.589v16.368h4.676V92.325h-4.676z"/>
        <path fill="#EFAECE" d="M134.762 102.458a1.949 1.949 0 1 0 0 3.897v-3.897z"/>
        <path fill="#F05822" d="M165.939 112.201h1.948v-3.897h-1.948zM132.813 108.304v3.897h3.897a3.897 3.897 0 0 1 3.897-3.897h-7.794z"/>
        <path fill="#000" d="M133.202 108.693h4.947a4.288 4.288 0 0 0-1.81 3.118h-3.137v-3.118zm3.898 3.507a3.508 3.508 0 1 1 7.015.002 3.508 3.508 0 0 1-7.016-.002zm22.994 3.508a3.508 3.508 0 1 1 0-7.015 3.508 3.508 0 0 1 0 7.015zm-21.046-17.537h3.118v-5.066h-3.118v5.066zm26.5 9.743v3.897h-1.185a4.287 4.287 0 0 0-8.537 0h-10.95a4.287 4.287 0 0 0-3.88-3.88v-.017h-5.845v-5.456c0-.143.056-3.508 3.507-3.508h4.288v-6.625h-3.898v-1.169h28.45v16.758h-1.95zm.78 3.897h1.17v-3.118h-1.17v3.118zm1.14-21.434h-28.397a3.51 3.51 0 0 1 3.486-3.119h21.434a3.509 3.509 0 0 1 3.477 3.12zm-33.096 15.54a1.559 1.559 0 0 1 0-3.02v3.02zm0 1.997h-1.949v4.676h3.916a4.288 4.288 0 0 0 8.537 0h10.95a4.287 4.287 0 0 0 8.537 0h3.913V90.766a4.287 4.287 0 0 0-4.286-4.287h-21.434a4.288 4.288 0 0 0-4.288 4.287v7.416c-3.16.215-3.756 2.927-3.869 3.917a2.339 2.339 0 0 0-.028 4.61v1.205z"/>
        <path fill="#EFAECE" d="M249.775 33.124c0 3.008-4.325 5.725-5.38 8.097-1.934 4.344-3.514 7.938-7.419 7.938-3.904 0-5.484-3.594-7.417-7.938-1.056-2.372-5.38-5.089-5.38-8.097 0-3.008 4.324-5.725 5.38-8.097 1.933-4.344 3.513-7.938 7.417-7.938 3.905 0 5.485 3.594 7.418 7.938 1.056 2.372 5.381 5.089 5.381 8.097"/>
        <path fill="#221F1F" d="M237.489 24.523a4.724 4.724 0 0 0 3.717 1.817v-1.023a3.72 3.72 0 0 1-3.717-3.716v-.194h-1.024a3.721 3.721 0 0 1-3.717 3.716v1.024a4.725 4.725 0 0 0 3.717-1.816v2.822a3.721 3.721 0 0 1-3.717 3.716v1.024a4.725 4.725 0 0 0 3.717-1.816v2.821a3.721 3.721 0 0 1-3.717 3.717v1.024a4.725 4.725 0 0 0 3.717-1.816v2.822a3.72 3.72 0 0 1-3.717 3.715v1.026a4.725 4.725 0 0 0 3.717-1.817v15.502h1.024v-15.31a4.725 4.725 0 0 0 3.717 1.819v-1.026a3.72 3.72 0 0 1-3.717-3.715v-2.824a4.725 4.725 0 0 0 3.717 1.819v-1.026a3.72 3.72 0 0 1-3.717-3.715V30.268a4.724 4.724 0 0 0 3.717 1.819v-1.024a3.721 3.721 0 0 1-3.717-3.716V24.521z"/>
        <path fill="#DBA827" d="M138.727 23.5a4.807 4.807 0 1 0-9.614 0h9.614z"/>
        <path fill="#F05822" d="M266.727 20.5a4.807 4.807 0 1 0-9.614 0h9.614zM221.848 91.036c0 1.975-3.066 3.87-3.137 5.73-.077 2.005 2.832 4.033 2.68 5.857-.17 2.058-3.403 3.797-3.656 5.555-.314 2.183 2.307 4.439 1.89 6.034-.839 3.208-3.349 3.756-4.452 3.756-1.104 0-3.614-.548-4.453-3.756-.417-1.596 2.204-3.852 1.89-6.034-.253-1.76-3.486-3.497-3.657-5.555-.151-1.823 2.758-3.851 2.682-5.857-.072-1.86-3.138-3.755-3.138-5.73 0-1.975 3.066-3.871 3.138-5.73.076-2.006-2.833-4.034-2.682-5.857.171-2.06 3.404-3.797 3.657-5.556.314-2.182-2.307-4.438-1.89-6.034.839-3.207 3.349-3.755 4.453-3.755 1.103 0 3.613.548 4.452 3.756.418 1.595-2.204 3.852-1.89 6.034.253 1.758 3.486 3.496 3.656 5.555.152 1.823-2.757 3.85-2.68 5.856.071 1.86 3.137 3.755 3.137 5.73"/>
        <path fill="#000" d="M218.103 88.387l-.724-.724-1.695 1.695v-6.802l2.42-2.419-.725-.724-1.695 1.695V75.89h-1.024v5.22l-1.695-1.696-.724.724 2.42 2.42v6.801l-1.696-1.695-.724.724 2.42 2.42v6.801l-1.696-1.695-.724.724 2.42 2.42v6.801l-1.696-1.695-.724.724 2.42 2.42v6.801l-1.696-1.695-.724.724 2.42 2.42v14.531h1.023v-14.532l2.42-2.419-.725-.724-1.695 1.695v-6.802l2.42-2.419-.725-.724-1.695 1.695v-6.802l2.42-2.419-.725-.724-1.695 1.695v-6.802z"/>
        <path fill="#EFAECE" d="M125.351 102.392c0 7.365-5.97 13.335-13.335 13.335-7.365 0-13.335-5.97-13.335-13.335 0-7.365 5.97-13.335 13.335-13.335 7.365 0 13.335 5.97 13.335 13.335"/>
        <path fill="#000" d="M122.201 101.63h-1.023c0 1.349-.98 2.468-2.266 2.696a6.99 6.99 0 0 0 .032-.634v-2.93h-1.023v2.93a5.9 5.9 0 0 1-.035.627 2.748 2.748 0 0 1-2.197-2.69h-1.025a3.775 3.775 0 0 0 3.022 3.695 5.909 5.909 0 0 1-5.158 4.246V98.817a2.504 2.504 0 0 0 1.99-2.45h-1.023c0 .636-.404 1.174-.967 1.383v-2.588h-1.024v2.588a1.476 1.476 0 0 1-.967-1.382h-1.024c0 1.205.855 2.213 1.991 2.449v10.753a5.911 5.911 0 0 1-5.157-4.246 3.774 3.774 0 0 0 3.022-3.694h-1.025a2.748 2.748 0 0 1-2.197 2.689 5.9 5.9 0 0 1-.035-.627v-2.93h-1.024v2.93c0 .214.013.425.032.634a2.744 2.744 0 0 1-2.264-2.696h-1.025a3.772 3.772 0 0 0 3.474 3.754 6.932 6.932 0 0 0 6.2 5.21v17.71h1.023v-17.71a6.93 6.93 0 0 0 6.198-5.21 3.771 3.771 0 0 0 3.475-3.754"/>
        <path fill="#DBA827" d="M311.534 101.593c0-2.48-3.313-3.737-3.313-6.042 0-2.583 3.62-4.106 3.254-6.957-.438-3.413-3.424-6.15-7.119-6.526-4.886-.5-9.022 3.025-9.022 7.442 0 2.48 3.313 3.738 3.313 6.04 0 2.306-3.313 3.563-3.313 6.043s3.313 3.737 3.313 6.04c0 2.585-3.619 4.108-3.254 6.959.438 3.413 3.424 6.149 7.119 6.526 4.886.499 9.022-3.025 9.022-7.442 0-2.481-3.313-3.738-3.313-6.042s3.313-3.561 3.313-6.041"/>
        <path fill="#000" d="M306.077 90.065c.548-.439 1.022-.817 2.005-.817v-1.025c-1.341 0-2.034.553-2.644 1.042-.442.354-.84.665-1.491.773v-4.137h-1.024v4.137c-.652-.108-1.05-.419-1.493-.773-.61-.489-1.302-1.042-2.644-1.042v1.025c.983 0 1.457.378 2.005.817.526.421 1.117.89 2.132 1.01v5.315c-.652-.108-1.05-.419-1.493-.773-.61-.488-1.302-1.042-2.644-1.042V95.6c.983 0 1.457.378 2.005.817.526.421 1.117.89 2.132 1.01v5.316c-.652-.109-1.05-.42-1.493-.774-.61-.488-1.302-1.042-2.644-1.042v1.025c.983 0 1.457.378 2.005.817.526.421 1.117.89 2.132 1.01v5.316c-.652-.109-1.05-.42-1.493-.774-.61-.488-1.302-1.042-2.644-1.042v1.025c.983 0 1.457.378 2.005.817.526.422 1.117.89 2.132 1.01v5.316c-.652-.109-1.05-.42-1.493-.774-.61-.488-1.302-1.042-2.644-1.042v1.025c.983 0 1.457.38 2.005.817.526.422 1.117.89 2.132 1.01v13.908h1.024v-13.908c1.014-.12 1.603-.588 2.13-1.01.548-.438 1.022-.817 2.005-.817v-1.025c-1.341 0-2.034.554-2.644 1.042-.442.354-.84.665-1.491.774v-5.316c1.014-.12 1.603-.588 2.13-1.01.548-.439 1.022-.817 2.005-.817v-1.025c-1.341 0-2.034.554-2.644 1.042-.442.354-.84.665-1.491.774v-5.316c1.014-.12 1.603-.589 2.13-1.01.548-.439 1.022-.817 2.005-.817v-1.025c-1.341 0-2.034.554-2.644 1.042-.442.354-.84.665-1.491.773v-5.315c1.014-.12 1.603-.589 2.13-1.01.548-.439 1.022-.817 2.005-.817v-1.025c-1.341 0-2.034.554-2.644 1.042-.442.354-.84.665-1.491.773v-5.315c1.014-.12 1.603-.589 2.13-1.01"/>
        <path fill="#A2D39F" d="M139.603 141.5c.79-.286 2.71-1.003 2.71-1.801s-2.422-1.108-2.71-1.802c-.298-.719 1.184-2.648.642-3.19-.541-.542-2.472.94-3.191.642-.693-.288-1.003-2.71-1.801-2.71-.797 0-1.108 2.422-1.801 2.71-.72.298-2.65-1.184-3.191-.642-.542.542.94 2.471.642 3.19-.288.694-2.71 1.004-2.71 1.802s1.92 1.515 2.71 1.801h8.7z"/>
        <path fill="#FFF" d="M58 143.773h5v-81h-5z"/>
        <path fill="#A1D29D" d="M63 138.273l-.707-.707L58 141.86v1.914h.914L63 139.687zM63 132.188v-1.414l-.707-.708L58 134.36v2.415l.207.207zM63 124.688v-1.415l-.707-.706L58 126.86v2.414l.207.207zM63 117.188v-1.415l-.707-.706L58 119.36v2.413l.207.208zM63 109.688v-1.415l-.707-.706L58 111.86v2.413l.207.208zM63 102.188v-1.415l-.707-.706L58 104.36v2.413l.207.208zM63 94.688v-1.415l-.707-.706L58 96.86v2.413l.207.208zM63 87.188v-1.415l-.707-.706L58 89.36v2.413l.207.208zM63 79.688v-1.415l-.707-.706L58 81.86v2.413l.207.208zM63 72.188v-1.415l-.707-.706L58 74.36v2.413l.207.208zM63 64.688v-1.415l-.5-.5h-.414L58 66.86v2.415l.207.207z"/>
        <path fill="#000" d="M58.576 143.198h3.85v-79.85h-3.85v79.85zm-1.15 1.151h6.15v-82.15h-6.15v82.15z"/>
        <path fill="#A1D29D" d="M64.5 62.273a4 4 0 1 1-8 0 4 4 0 0 1 8 0"/>
        <path stroke="#000" stroke-width="1.151" d="M64.5 62.273a4 4 0 1 1-8 0 4 4 0 0 1 8 0z"/>
        <path fill="#000" d="M88.5 99.247c0-15.464-12.536-28-28-28s-28 12.536-28 28h56z"/>
        <path fill="#000" d="M28 114.773h65V79.859H28z"/>
        <path stroke="#000" stroke-width=".88" d="M28 114.773h65V79.859H28z"/>
        <path fill="#FFF" d="M47.066 92.39a3.59 3.59 0 0 1-1.458-1.53c-.336-.66-.504-1.43-.504-2.31 0-.865.186-1.627.558-2.287.372-.66.89-1.17 1.554-1.53.664-.36 1.424-.54 2.28-.54.432 0 .852.044 1.26.132.408.088.76.208 1.056.36l-.168 1.464a5.09 5.09 0 0 0-2.148-.48c-.896 0-1.572.262-2.028.786-.456.524-.684 1.214-.684 2.07 0 .888.224 1.598.672 2.13.448.532 1.096.798 1.944.798.344 0 .728-.044 1.152-.132v-1.5H49.4V88.55h2.688v3.744c-.312.184-.71.336-1.194.456s-1.002.18-1.554.18c-.88 0-1.638-.18-2.274-.54zm6.51-8.029h5.376v1.488h-3.804v1.788H58.1v1.488h-2.952v2.148h3.924v1.488h-5.496v-8.4zm8.448 1.488h-2.376v-1.488h6.288v1.488H63.56v6.912h-1.536V85.85zm12.072 4.92h-3.06l-.696 1.992h-1.488l2.988-8.4h1.452l2.988 8.4h-1.488l-.696-1.992zm-.48-1.344l-1.044-3-1.056 3h2.1zM50.444 107.905c.352 0 .602-.076.75-.228.148-.152.222-.42.222-.804v-8.112h1.536v8.448c0 .704-.168 1.216-.504 1.536-.336.32-.816.48-1.44.48h-.432l-.132-1.32zm5.862-1.122a3.845 3.845 0 0 1-1.476-1.536c-.356-.66-.534-1.422-.534-2.286 0-.864.178-1.626.534-2.286a3.845 3.845 0 0 1 1.476-1.536c.628-.364 1.338-.546 2.13-.546.792 0 1.502.182 2.13.546.628.364 1.12.876 1.476 1.536.356.66.534 1.422.534 2.286 0 .864-.178 1.626-.534 2.286a3.845 3.845 0 0 1-1.476 1.536c-.628.364-1.338.546-2.13.546-.792 0-1.502-.182-2.13-.546zm4.008-1.734c.436-.528.654-1.224.654-2.088 0-.864-.218-1.56-.654-2.088-.436-.528-1.062-.792-1.878-.792-.816 0-1.442.264-1.878.792-.436.528-.654 1.224-.654 2.088 0 .864.218 1.56.654 2.088.436.528 1.062.792 1.878.792.816 0 1.442-.264 1.878-.792zm9.846-.276c0 .752-.244 1.338-.732 1.758-.488.42-1.156.63-2.004.63H63.92v-8.4h3.168c1.6 0 2.4.676 2.4 2.028 0 .832-.308 1.424-.924 1.776 1.064.344 1.596 1.08 1.596 2.208zm-4.704-2.712h1.404c.376 0 .656-.078.84-.234.184-.156.276-.398.276-.726 0-.344-.092-.592-.276-.744-.184-.152-.464-.228-.84-.228h-1.404v1.932zm2.766 3.462c.236-.18.354-.486.354-.918 0-.424-.122-.726-.366-.906-.244-.18-.582-.27-1.014-.27h-1.74v2.364h1.74c.448 0 .79-.09 1.026-.27z"/>
    </g>
</svg>
