<?xml version="1.0" encoding="UTF-8"?>
<svg width="320px" height="150px" viewBox="0 0 320 150" version="1.1" xmlns="http://www.w3.org/2000/svg" xmlns:xlink="http://www.w3.org/1999/xlink">
    <!-- Generator: sketchtool 50.2 (55047) - http://www.bohemiancoding.com/sketch -->
    <title>6B0B317D-607E-4FCF-8C13-8CC3478E874F</title>
    <desc>Created with sketchtool.</desc>
    <defs>
        <polygon id="path-1" points="0 150 320 150 320 0 0 0"></polygon>
    </defs>
    <g id="home" stroke="none" stroke-width="1" fill="none" fill-rule="evenodd">
        <g id="home_mobile_collapse" transform="translate(0.000000, -331.000000)">
            <g id="getajob" transform="translate(0.000000, 331.000000)">
                <polygon id="Fill-1" fill="#E0E0E0" points="0 150 320 150 320 0 0 0"></polygon>
                <g id="Group-176">
                    <path d="M8.5,150 C8.5,129.289 25.29,112.5 46,112.5 L274,112.5 C294.71,112.5 311.5,95.711 311.5,75 C311.5,54.289 294.71,37.5 274,37.5 L46,37.5 C25.29,37.5 8.5,20.71 8.5,0" id="Stroke-2" stroke="#FFFFFF" stroke-width="10"></path>
                    <polygon id="Fill-4" fill="#000000" points="101.373 74.6396 100.349 74.6396 100.351 23.9396 101.375 23.9396"></polygon>
                    <path d="M99.4863,27.8848 C99.9033,27.8848 100.2513,27.7928 100.5333,27.6938 C100.6393,27.7188 100.7483,27.7358 100.8623,27.7358 C100.9763,27.7358 101.0853,27.7188 101.1913,27.6938 C101.4723,27.7928 101.8203,27.8848 102.2373,27.8848 C104.7413,27.8848 106.7773,25.8478 106.7773,23.3448 C106.7773,22.3578 105.9763,21.5568 104.9893,21.5568 C104.0023,21.5568 103.2013,22.3578 103.2013,23.3448 C103.2013,23.8448 102.8183,24.2578 102.3303,24.3038 C102.3113,24.2968 102.2903,24.2878 102.2683,24.2798 L102.2683,19.1108 C102.2683,18.3338 101.6383,17.7038 100.8623,17.7038 C100.0853,17.7038 99.4553,18.3338 99.4553,19.1108 L99.4553,24.2798 C99.4343,24.2878 99.4133,24.2968 99.3943,24.3038 C98.9063,24.2578 98.5233,23.8448 98.5233,23.3448 C98.5233,22.3578 97.7223,21.5568 96.7353,21.5568 C95.7473,21.5568 94.9473,22.3578 94.9473,23.3448 C94.9473,25.8478 96.9833,27.8848 99.4863,27.8848" id="Fill-6" fill="#A2D39F"></path>
                    <path d="M98.8916,34.5029 C99.6126,34.5029 100.1806,34.2679 100.5956,34.0959 C100.6806,34.0609 100.7876,34.0159 100.8626,33.9889 C100.9366,34.0159 101.0436,34.0609 101.1286,34.0959 C101.5436,34.2679 102.1116,34.5029 102.8326,34.5029 C105.6496,34.5029 108.0556,32.4119 108.4296,29.6399 C108.5616,28.6619 107.8746,27.7609 106.8966,27.6289 C105.9176,27.4969 105.0176,28.1829 104.8856,29.1619 C104.7506,30.1599 103.8796,30.9159 102.8556,30.9269 C102.7846,30.9099 102.6196,30.8419 102.4966,30.7909 C102.0966,30.6249 101.5466,30.3979 100.8626,30.3979 C100.1776,30.3979 99.6286,30.6249 99.2276,30.7909 C99.1046,30.8419 98.9406,30.9099 98.8696,30.9269 C97.8446,30.9159 96.9746,30.1599 96.8396,29.1619 C96.7066,28.1829 95.8076,27.4969 94.8286,27.6289 C93.8496,27.7609 93.1626,28.6609 93.2956,29.6399 C93.6696,32.4119 96.0756,34.5029 98.8916,34.5029" id="Fill-8" fill="#A2D39F"></path>
                    <path d="M98.2964,41.1211 C99.1284,41.1211 99.8104,40.8381 100.3084,40.6321 C100.4934,40.5551 100.7724,40.4391 100.8574,40.4331 C100.9514,40.4391 101.2314,40.5551 101.4154,40.6321 C101.9144,40.8381 102.5964,41.1211 103.4284,41.1211 C106.5814,41.1211 109.3744,38.9051 110.0684,35.8531 C110.2874,34.8911 109.6854,33.9331 108.7224,33.7131 C107.7594,33.4941 106.8004,34.0971 106.5814,35.0591 C106.2544,36.5001 104.9274,37.5451 103.4284,37.5451 C103.3084,37.5451 103.0174,37.4241 102.7844,37.3271 C102.2774,37.1171 101.6464,36.8561 100.8624,36.8561 C100.0784,36.8561 99.4474,37.1171 98.9404,37.3271 C98.7074,37.4241 98.4164,37.5451 98.2964,37.5451 C96.7964,37.5451 95.4704,36.5001 95.1424,35.0591 C94.9234,34.0971 93.9654,33.4941 93.0024,33.7131 C92.0394,33.9331 91.4364,34.8911 91.6554,35.8531 C92.3504,38.9051 95.1434,41.1211 98.2964,41.1211" id="Fill-10" fill="#A2D39F"></path>
                    <path d="M97.7012,47.7393 C98.6432,47.7393 99.4072,47.4223 100.0212,47.1683 C100.3352,47.0383 100.6902,46.8903 100.8622,46.8903 C101.0342,46.8903 101.3892,47.0383 101.7022,47.1683 C102.3172,47.4223 103.0812,47.7393 104.0232,47.7393 C107.5542,47.7393 110.7142,45.3863 111.7082,42.0183 C111.9882,41.0713 111.4462,40.0773 110.4992,39.7983 C109.5522,39.5173 108.5582,40.0593 108.2782,41.0063 C107.7292,42.8643 105.9802,44.1633 104.0232,44.1633 C103.7932,44.1633 103.4422,44.0173 103.0712,43.8643 C102.4812,43.6193 101.7452,43.3143 100.8622,43.3143 C99.9782,43.3143 99.2432,43.6193 98.6532,43.8643 C98.2822,44.0173 97.9312,44.1633 97.7012,44.1633 C95.7442,44.1633 93.9942,42.8643 93.4462,41.0063 C93.1662,40.0583 92.1712,39.5173 91.2252,39.7983 C90.2782,40.0773 89.7372,41.0713 90.0162,42.0183 C91.0102,45.3863 94.1702,47.7393 97.7012,47.7393" id="Fill-12" fill="#A2D39F"></path>
                    <path d="M97.1064,54.3564 C98.1584,54.3564 99.0324,53.9954 99.7344,53.7044 C100.1744,53.5214 100.5904,53.3494 100.8624,53.3494 C101.1334,53.3494 101.5494,53.5214 101.9894,53.7044 C102.6924,53.9954 103.5664,54.3564 104.6184,54.3564 C108.5554,54.3564 112.0644,51.8644 113.3504,48.1534 C113.6734,47.2204 113.1794,46.2024 112.2464,45.8784 C111.3134,45.5544 110.2944,46.0484 109.9714,46.9824 C109.1844,49.2534 107.0324,50.7804 104.6184,50.7804 C104.2774,50.7804 103.8514,50.6044 103.3584,50.3994 C102.6844,50.1214 101.8454,49.7734 100.8624,49.7734 C99.8794,49.7734 99.0404,50.1214 98.3664,50.3994 C97.8734,50.6044 97.4464,50.7804 97.1064,50.7804 C94.6914,50.7804 92.5404,49.2534 91.7524,46.9824 C91.4294,46.0484 90.4104,45.5544 89.4774,45.8784 C88.5444,46.2024 88.0504,47.2204 88.3744,48.1534 C89.6594,51.8644 93.1684,54.3564 97.1064,54.3564" id="Fill-14" fill="#A2D39F"></path>
                    <path d="M113.9746,51.9561 C113.0536,51.6001 112.0176,52.0581 111.6616,52.9781 C110.6386,55.6221 108.0466,57.3981 105.2136,57.3981 C104.7626,57.3981 104.2446,57.1851 103.6456,56.9351 C102.8486,56.6051 101.9446,56.2311 100.8626,56.2311 C99.7796,56.2311 98.8766,56.6051 98.0786,56.9351 C97.4796,57.1851 96.9626,57.3981 96.5116,57.3981 C93.6776,57.3981 91.0866,55.6221 90.0626,52.9781 C89.7066,52.0581 88.6706,51.6001 87.7496,51.9561 C86.8286,52.3121 86.3706,53.3481 86.7276,54.2691 C88.2806,58.2801 92.2116,60.9751 96.5116,60.9751 C97.6736,60.9751 98.6576,60.5671 99.4476,60.2401 C99.9846,60.0181 100.4916,59.8081 100.8626,59.8081 C101.2336,59.8081 101.7406,60.0181 102.2766,60.2401 C103.0676,60.5671 104.0516,60.9751 105.2136,60.9751 C109.5126,60.9751 113.4446,58.2801 114.9966,54.2691 C115.3526,53.3481 114.8956,52.3121 113.9746,51.9561" id="Fill-16" fill="#A2D39F"></path>
                    <mask id="mask-2" fill="white">
                        <use xlink:href="#path-1"></use>
                    </mask>
                    <g id="Clip-19"></g>
                    <polygon id="Fill-18" fill="#000000" mask="url(#mask-2)" points="25.918 48.854 26.942 48.854 26.942 11.354 25.918 11.354"></polygon>
                    <path d="M31.6162,12.5313 C31.0162,12.5313 30.2492,12.4943 29.6292,12.2103 C29.3512,12.0833 29.0362,11.8793 28.7322,11.6813 C28.5822,11.5843 28.4312,11.4883 28.2782,11.3943 L28.2782,8.6873 C28.2782,7.6713 27.4542,6.8463 26.4372,6.8463 C25.4202,6.8463 24.5962,7.6713 24.5962,8.6873 L24.5962,11.3853 C24.4382,11.4813 24.2822,11.5813 24.1272,11.6813 C23.8232,11.8793 23.5082,12.0833 23.2302,12.2103 C22.6102,12.4943 21.8432,12.5313 21.2432,12.5313 C20.3202,12.5313 19.5722,13.2803 19.5722,14.2023 C19.5722,15.1263 20.3202,15.8743 21.2432,15.8743 C22.1832,15.8743 23.4162,15.8033 24.6242,15.2483 C25.1222,15.0203 25.5592,14.7373 25.9452,14.4873 C26.0892,14.3943 26.2792,14.2703 26.4292,14.1823 C26.5802,14.2703 26.7712,14.3943 26.9142,14.4873 C27.3002,14.7373 27.7372,15.0203 28.2352,15.2483 C29.4432,15.8033 30.6772,15.8743 31.6162,15.8743 C32.5392,15.8743 33.2872,15.1263 33.2872,14.2023 C33.2872,13.2803 32.5392,12.5313 31.6162,12.5313" id="Fill-20" fill="#F05822" mask="url(#mask-2)"></path>
                    <path d="M32.9351,21.4214 C31.8001,21.4214 30.3121,21.3364 28.8711,20.6754 C28.2751,20.4014 27.7401,20.0554 27.2681,19.7494 C27.0121,19.5834 26.6481,19.3474 26.4301,19.2414 C26.2111,19.3474 25.8471,19.5834 25.5911,19.7494 C25.1191,20.0554 24.5841,20.4014 23.9881,20.6754 C22.5471,21.3364 21.0601,21.4214 19.9251,21.4214 C19.0011,21.4214 18.2531,20.6724 18.2531,19.7504 C18.2531,18.8264 19.0011,18.0784 19.9251,18.0784 C20.7201,18.0784 21.7421,18.0284 22.5941,17.6374 C22.9701,17.4644 23.3781,17.2004 23.7731,16.9444 C24.5951,16.4114 25.4441,15.8604 26.4301,15.8604 C27.4151,15.8604 28.2651,16.4114 29.0861,16.9444 C29.4811,17.2004 29.8891,17.4644 30.2651,17.6374 C31.1181,18.0284 32.1401,18.0784 32.9351,18.0784 C33.8581,18.0784 34.6061,18.8264 34.6061,19.7504 C34.6061,20.6724 33.8581,21.4214 32.9351,21.4214" id="Fill-21" fill="#F05822" mask="url(#mask-2)"></path>
                    <path d="M34.2539,26.9683 C32.9229,26.9683 31.1809,26.8693 29.5069,26.1023 C28.8129,25.7833 28.1809,25.3733 27.6229,25.0113 C27.2469,24.7683 26.6939,24.4103 26.4299,24.3153 C26.1659,24.4103 25.6129,24.7683 25.2369,25.0123 C24.6789,25.3733 24.0469,25.7833 23.3519,26.1023 C21.6789,26.8693 19.9369,26.9683 18.6059,26.9683 C17.6829,26.9683 16.9349,26.2193 16.9349,25.2973 C16.9349,24.3733 17.6829,23.6253 18.6059,23.6253 C19.5969,23.6253 20.8729,23.5613 21.9579,23.0633 C22.4329,22.8463 22.9339,22.5213 23.4189,22.2063 C24.4089,21.5653 25.3449,20.9583 26.4299,20.9583 C27.5149,20.9583 28.4499,21.5653 29.4409,22.2063 C29.9259,22.5213 30.4269,22.8453 30.9009,23.0633 C31.9869,23.5613 33.2629,23.6253 34.2539,23.6253 C35.1769,23.6253 35.9249,24.3733 35.9249,25.2973 C35.9249,26.2193 35.1769,26.9683 34.2539,26.9683" id="Fill-22" fill="#F05822" mask="url(#mask-2)"></path>
                    <path d="M35.5728,32.5156 C34.0468,32.5156 32.0498,32.4036 30.1438,31.5286 C29.3508,31.1636 28.6208,30.6916 27.9768,30.2746 C27.4778,29.9516 26.7308,29.4666 26.4298,29.4026 C26.1288,29.4666 25.3818,29.9516 24.8828,30.2746 C24.2388,30.6916 23.5098,31.1636 22.7158,31.5286 C20.8098,32.4036 18.8138,32.5156 17.2868,32.5156 C16.3638,32.5156 15.6158,31.7666 15.6158,30.8436 C15.6158,29.9206 16.3638,29.1726 17.2868,29.1726 C18.4728,29.1726 20.0048,29.0946 21.3218,28.4906 C21.8948,28.2276 22.4898,27.8426 23.0648,27.4696 C24.1858,26.7426 25.2448,26.0566 26.4298,26.0566 C27.6148,26.0566 28.6738,26.7426 29.7948,27.4696 C30.3698,27.8426 30.9648,28.2276 31.5378,28.4906 C32.8558,29.0946 34.3858,29.1726 35.5728,29.1726 C36.4958,29.1726 37.2438,29.9206 37.2438,30.8436 C37.2438,31.7666 36.4958,32.5156 35.5728,32.5156" id="Fill-23" fill="#F05822" mask="url(#mask-2)"></path>
                    <path d="M36.8916,38.0625 C35.1696,38.0625 32.9186,37.9365 30.7796,36.9555 C29.8886,36.5455 29.0606,36.0095 28.3316,35.5375 C27.7056,35.1315 26.7596,34.5185 26.4246,34.4965 C26.0996,34.5185 25.1536,35.1315 24.5286,35.5375 C23.7986,36.0095 22.9716,36.5455 22.0796,36.9555 C19.9406,37.9365 17.6896,38.0625 15.9676,38.0625 C15.0446,38.0625 14.2966,37.3145 14.2966,36.3905 C14.2966,35.4675 15.0446,34.7195 15.9676,34.7195 C17.3496,34.7195 19.1356,34.6275 20.6856,33.9165 C21.3566,33.6085 22.0446,33.1635 22.7096,32.7315 C23.9626,31.9195 25.1456,31.1535 26.4296,31.1535 C27.7136,31.1535 28.8966,31.9195 30.1496,32.7325 C30.8146,33.1635 31.5026,33.6095 32.1736,33.9165 C33.7246,34.6275 35.5096,34.7195 36.8916,34.7195 C37.8146,34.7195 38.5626,35.4675 38.5626,36.3905 C38.5626,37.3145 37.8146,38.0625 36.8916,38.0625" id="Fill-24" fill="#F05822" mask="url(#mask-2)"></path>
                    <path d="M38.2104,43.6094 C36.2924,43.6094 33.7874,43.4694 31.4164,42.3814 C30.4254,41.9274 29.5014,41.3284 28.6854,40.7994 C27.9444,40.3194 26.8254,39.5934 26.4294,39.5934 C26.0344,39.5934 24.9154,40.3194 24.1734,40.7994 C23.3584,41.3284 22.4334,41.9274 21.4434,42.3814 C19.0724,43.4694 16.5664,43.6094 14.6484,43.6094 C13.7264,43.6094 12.9774,42.8614 12.9774,41.9374 C12.9774,41.0144 13.7264,40.2664 14.6484,40.2664 C16.2274,40.2664 18.2664,40.1614 20.0494,39.3434 C20.8194,38.9904 21.6004,38.4844 22.3564,37.9944 C23.7394,37.0974 25.0464,36.2514 26.4294,36.2514 C27.8134,36.2514 29.1204,37.0974 30.5034,37.9944 C31.2594,38.4844 32.0404,38.9904 32.8104,39.3434 C34.5924,40.1614 36.6324,40.2664 38.2104,40.2664 C39.1334,40.2664 39.8814,41.0144 39.8814,41.9374 C39.8814,42.8614 39.1334,43.6094 38.2104,43.6094" id="Fill-25" fill="#F05822" mask="url(#mask-2)"></path>
                    <polyline id="Fill-26" fill="#EF5722" mask="url(#mask-2)" points="96.2031 53.3281 96.2031 76.0861 71.6101 76.0861 71.6101 53.3281"></polyline>
                    <polygon id="Fill-27" fill="#000000" mask="url(#mask-2)" points="96.7305 76.6133 71.0825 76.6133 71.0825 53.3283 72.1375 53.3283 72.1375 75.5583 95.6755 75.5583 95.6755 53.3283 96.7305 53.3283"></polygon>
                    <polygon id="Fill-28" fill="#DAA725" mask="url(#mask-2)" points="75.123 75.901 92.69 75.901 92.69 72.739 75.123 72.739"></polygon>
                    <path d="M75.65,75.374 L92.162,75.374 L92.162,73.267 L75.65,73.267 L75.65,75.374 Z M74.595,76.429 L93.217,76.429 L93.217,72.212 L74.595,72.212 L74.595,76.429 Z" id="Fill-29" fill="#000000" mask="url(#mask-2)"></path>
                    <polygon id="Fill-30" fill="#A1D29D" mask="url(#mask-2)" points="78.637 72.739 89.177 72.739 89.177 58.692 78.637 58.692"></polygon>
                    <path d="M79.164,72.212 L88.649,72.212 L88.649,59.22 L79.164,59.22 L79.164,72.212 Z M78.11,73.267 L89.704,73.267 L89.704,58.165 L78.11,58.165 L78.11,73.267 Z" id="Fill-31" fill="#000000" mask="url(#mask-2)"></path>
                    <polygon id="Fill-32" fill="#EEADCD" mask="url(#mask-2)" points="68.0967 53.3281 83.9067 39.2751 99.7167 53.3281"></polygon>
                    <path d="M69.4829,52.8008 L98.3299,52.8008 L83.9059,39.9808 L69.4829,52.8008 Z M101.1029,53.8558 L66.7109,53.8558 L83.9059,38.5708 L101.1029,53.8558 Z" id="Fill-33" fill="#000000" mask="url(#mask-2)"></path>
                    <polyline id="Fill-34" fill="#A1D29D" mask="url(#mask-2)" points="193.8096 121.0635 193.8096 143.8215 169.2166 143.8215 169.2166 121.0635"></polyline>
                    <polygon id="Fill-35" fill="#000000" mask="url(#mask-2)" points="194.3369 144.3486 168.6889 144.3486 168.6889 121.0636 169.7439 121.0636 169.7439 143.2936 193.2819 143.2936 193.2819 121.0636 194.3369 121.0636"></polygon>
                    <polygon id="Fill-36" fill="#EF5722" mask="url(#mask-2)" points="172.729 143.636 190.295 143.636 190.295 140.475 172.729 140.475"></polygon>
                    <path d="M173.257,143.109 L189.769,143.109 L189.769,141.002 L173.257,141.002 L173.257,143.109 Z M172.202,144.164 L190.823,144.164 L190.823,139.947 L172.202,139.947 L172.202,144.164 Z" id="Fill-37" fill="#000000" mask="url(#mask-2)"></path>
                    <polygon id="Fill-38" fill="#EEADCD" mask="url(#mask-2)" points="176.243 140.475 186.783 140.475 186.783 126.427 176.243 126.427"></polygon>
                    <path d="M176.77,139.947 L186.255,139.947 L186.255,126.955 L176.77,126.955 L176.77,139.947 Z M175.715,141.002 L187.31,141.002 L187.31,125.9 L175.715,125.9 L175.715,141.002 Z" id="Fill-39" fill="#000000" mask="url(#mask-2)"></path>
                    <polygon id="Fill-40" fill="#DAA725" mask="url(#mask-2)" points="165.7031 121.0635 181.5131 107.0095 197.3231 121.0635"></polygon>
                    <path d="M167.0894,120.5361 L195.9364,120.5361 L181.5124,107.7151 L167.0894,120.5361 Z M198.7094,121.5911 L164.3174,121.5911 L181.5124,106.3051 L198.7094,121.5911 Z" id="Fill-41" fill="#000000" mask="url(#mask-2)"></path>
                    <polyline id="Fill-42" fill="#A1D29D" mask="url(#mask-2)" points="146.8096 53.3281 146.8096 76.0861 122.2166 76.0861 122.2166 53.3281"></polyline>
                    <polygon id="Fill-43" fill="#000000" mask="url(#mask-2)" points="147.3369 76.6133 121.6889 76.6133 121.6889 53.3283 122.7439 53.3283 122.7439 75.5583 146.2819 75.5583 146.2819 53.3283 147.3369 53.3283"></polygon>
                    <polygon id="Fill-44" fill="#EF5722" mask="url(#mask-2)" points="125.729 75.901 143.295 75.901 143.295 72.739 125.729 72.739"></polygon>
                    <path d="M126.257,75.374 L142.769,75.374 L142.769,73.267 L126.257,73.267 L126.257,75.374 Z M125.202,76.429 L143.823,76.429 L143.823,72.212 L125.202,72.212 L125.202,76.429 Z" id="Fill-45" fill="#000000" mask="url(#mask-2)"></path>
                    <polygon id="Fill-46" fill="#EEADCD" mask="url(#mask-2)" points="129.243 72.739 139.783 72.739 139.783 58.692 129.243 58.692"></polygon>
                    <path d="M129.77,72.212 L139.255,72.212 L139.255,59.22 L129.77,59.22 L129.77,72.212 Z M128.715,73.267 L140.31,73.267 L140.31,58.165 L128.715,58.165 L128.715,73.267 Z" id="Fill-47" fill="#000000" mask="url(#mask-2)"></path>
                    <polygon id="Fill-48" fill="#DAA725" mask="url(#mask-2)" points="118.7031 53.3281 134.5131 39.2751 150.3231 53.3281"></polygon>
                    <path d="M120.0894,52.8008 L148.9364,52.8008 L134.5124,39.9808 L120.0894,52.8008 Z M151.7094,53.8558 L117.3174,53.8558 L134.5124,38.5708 L151.7094,53.8558 Z" id="Fill-49" fill="#000000" mask="url(#mask-2)"></path>
                    <polyline id="Fill-50" fill="#DAA725" mask="url(#mask-2)" points="52.9146 53.3281 52.9146 76.0861 28.3216 76.0861 28.3216 53.3281"></polyline>
                    <polygon id="Fill-51" fill="#000000" mask="url(#mask-2)" points="53.4419 76.6133 27.7939 76.6133 27.7939 53.3283 28.8489 53.3283 28.8489 75.5583 52.3869 75.5583 52.3869 53.3283 53.4419 53.3283"></polygon>
                    <polygon id="Fill-52" fill="#EEADCD" mask="url(#mask-2)" points="31.834 75.901 49.401 75.901 49.401 72.739 31.834 72.739"></polygon>
                    <path d="M32.362,75.374 L48.874,75.374 L48.874,73.267 L32.362,73.267 L32.362,75.374 Z M31.307,76.429 L49.929,76.429 L49.929,72.212 L31.307,72.212 L31.307,76.429 Z" id="Fill-53" fill="#000000" mask="url(#mask-2)"></path>
                    <polygon id="Fill-54" fill="#A1D29D" mask="url(#mask-2)" points="35.348 72.739 45.888 72.739 45.888 58.692 35.348 58.692"></polygon>
                    <path d="M35.875,72.212 L45.36,72.212 L45.36,59.22 L35.875,59.22 L35.875,72.212 Z M34.821,73.267 L46.415,73.267 L46.415,58.165 L34.821,58.165 L34.821,73.267 Z" id="Fill-55" fill="#000000" mask="url(#mask-2)"></path>
                    <polygon id="Fill-56" fill="#EF5722" mask="url(#mask-2)" points="24.8081 53.3281 40.6181 39.2751 56.4281 53.3281"></polygon>
                    <path d="M26.1943,52.8008 L55.0413,52.8008 L40.6183,39.9808 L26.1943,52.8008 Z M57.8143,53.8558 L23.4223,53.8558 L40.6183,38.5708 L57.8143,53.8558 Z" id="Fill-57" fill="#000000" mask="url(#mask-2)"></path>
                    <polyline id="Fill-58" fill="#EEADCD" mask="url(#mask-2)" points="280.6191 53.3281 280.6191 76.0861 256.0261 76.0861 256.0261 53.3281"></polyline>
                    <polygon id="Fill-59" fill="#000000" mask="url(#mask-2)" points="281.1465 76.6133 255.4985 76.6133 255.4985 53.3283 256.5535 53.3283 256.5535 75.5583 280.0915 75.5583 280.0915 53.3283 281.1465 53.3283"></polygon>
                    <polygon id="Fill-60" fill="#EF5722" mask="url(#mask-2)" points="259.54 75.901 277.106 75.901 277.106 72.739 259.54 72.739"></polygon>
                    <path d="M260.067,75.374 L276.579,75.374 L276.579,73.267 L260.067,73.267 L260.067,75.374 Z M259.012,76.429 L277.633,76.429 L277.633,72.212 L259.012,72.212 L259.012,76.429 Z" id="Fill-61" fill="#000000" mask="url(#mask-2)"></path>
                    <polygon id="Fill-62" fill="#DAA725" mask="url(#mask-2)" points="263.053 72.739 273.593 72.739 273.593 58.692 263.053 58.692"></polygon>
                    <path d="M263.58,72.212 L273.065,72.212 L273.065,59.22 L263.58,59.22 L263.58,72.212 Z M262.525,73.267 L274.12,73.267 L274.12,58.165 L262.525,58.165 L262.525,73.267 Z" id="Fill-63" fill="#000000" mask="url(#mask-2)"></path>
                    <polygon id="Fill-64" fill="#A1D29D" mask="url(#mask-2)" points="252.5127 53.3281 268.3227 39.2751 284.1327 53.3281"></polygon>
                    <path d="M253.8989,52.8008 L282.7459,52.8008 L268.3229,39.9808 L253.8989,52.8008 Z M285.5189,53.8558 L251.1269,53.8558 L268.3229,38.5708 L285.5189,53.8558 Z" id="Fill-65" fill="#000000" mask="url(#mask-2)"></path>
                    <path d="M161.9277,13.584 L161.9277,76.069 L179.8447,76.069 L179.8447,72.763 L181.7287,72.763 L181.7287,54.717 L179.8447,54.717 C179.8447,49.085 184.5317,44.52 190.3127,44.52 C196.0947,44.52 200.7817,49.085 200.7817,54.717 L199.0157,54.717 L199.0157,72.763 L200.7817,72.763 L200.7817,76.069 L219.2417,76.069 L219.2417,13.584 L161.9277,13.584 Z" id="Fill-66" fill="#EEADCD" mask="url(#mask-2)"></path>
                    <path d="M179.8442,54.7168 L186.4212,54.7168 C186.4212,54.7168 184.5312,44.5198 190.3132,44.5198 C184.5312,44.5198 179.8442,49.0848 179.8442,54.7168" id="Fill-67" fill="#A1D29D" mask="url(#mask-2)"></path>
                    <path d="M200.7817,54.7168 C200.7817,49.0848 196.0947,44.5198 190.3127,44.5198 C196.0947,44.5198 194.2047,54.7168 194.2047,54.7168 L200.7817,54.7168 Z" id="Fill-68" fill="#A1D29D" mask="url(#mask-2)"></path>
                    <polygon id="Fill-69" fill="#EF5722" mask="url(#mask-2)" points="181.728 72.763 199.016 72.763 199.016 54.717 181.728 54.717"></polygon>
                    <polygon id="Fill-70" fill="#DAA725" mask="url(#mask-2)" points="179.845 76.13 200.782 76.13 200.782 72.763 179.845 72.763"></polygon>
                    <polygon id="Fill-71" fill="#EF5722" mask="url(#mask-2)" points="165.541 27.269 175.776 27.269 175.776 17.034 165.541 17.034"></polygon>
                    <path d="M166.085,26.724 L175.231,26.724 L175.231,17.578 L166.085,17.578 L166.085,26.724 Z M164.996,27.813 L176.321,27.813 L176.321,16.488 L164.996,16.488 L164.996,27.813 Z" id="Fill-72" fill="#000000" mask="url(#mask-2)"></path>
                    <polygon id="Fill-73" fill="#EF5722" mask="url(#mask-2)" points="205.393 27.269 215.628 27.269 215.628 17.034 205.393 17.034"></polygon>
                    <path d="M205.938,26.724 L215.084,26.724 L215.084,17.578 L205.938,17.578 L205.938,26.724 Z M204.849,27.813 L216.173,27.813 L216.173,16.488 L204.849,16.488 L204.849,27.813 Z" id="Fill-74" fill="#000000" mask="url(#mask-2)"></path>
                    <polygon id="Fill-75" fill="#EF5722" mask="url(#mask-2)" points="185.467 27.269 195.702 27.269 195.702 17.034 185.467 17.034"></polygon>
                    <path d="M186.012,26.724 L195.158,26.724 L195.158,17.578 L186.012,17.578 L186.012,26.724 Z M184.922,27.813 L196.247,27.813 L196.247,16.488 L184.922,16.488 L184.922,27.813 Z" id="Fill-76" fill="#000000" mask="url(#mask-2)"></path>
                    <polygon id="Fill-77" fill="#EF5722" mask="url(#mask-2)" points="165.541 41.012 175.776 41.012 175.776 30.777 165.541 30.777"></polygon>
                    <path d="M166.085,40.467 L175.231,40.467 L175.231,31.321 L166.085,31.321 L166.085,40.467 Z M164.996,41.557 L176.321,41.557 L176.321,30.232 L164.996,30.232 L164.996,41.557 Z" id="Fill-78" fill="#000000" mask="url(#mask-2)"></path>
                    <polygon id="Fill-79" fill="#EF5722" mask="url(#mask-2)" points="205.393 41.012 215.628 41.012 215.628 30.777 205.393 30.777"></polygon>
                    <path d="M205.938,40.467 L215.084,40.467 L215.084,31.321 L205.938,31.321 L205.938,40.467 Z M204.849,41.557 L216.173,41.557 L216.173,30.232 L204.849,30.232 L204.849,41.557 Z" id="Fill-80" fill="#000000" mask="url(#mask-2)"></path>
                    <polygon id="Fill-81" fill="#EF5722" mask="url(#mask-2)" points="185.255 41.012 195.49 41.012 195.49 30.777 185.255 30.777"></polygon>
                    <path d="M185.799,40.467 L194.945,40.467 L194.945,31.321 L185.799,31.321 L185.799,40.467 Z M184.71,41.557 L196.035,41.557 L196.035,30.232 L184.71,30.232 L184.71,41.557 Z" id="Fill-82" fill="#000000" mask="url(#mask-2)"></path>
                    <polygon id="Fill-83" fill="#EF5722" mask="url(#mask-2)" points="165.541 54.755 175.776 54.755 175.776 44.52 165.541 44.52"></polygon>
                    <path d="M166.085,54.21 L175.231,54.21 L175.231,45.064 L166.085,45.064 L166.085,54.21 Z M164.996,55.3 L176.321,55.3 L176.321,43.975 L164.996,43.975 L164.996,55.3 Z" id="Fill-84" fill="#000000" mask="url(#mask-2)"></path>
                    <polygon id="Fill-85" fill="#EF5722" mask="url(#mask-2)" points="205.393 54.755 215.628 54.755 215.628 44.52 205.393 44.52"></polygon>
                    <path d="M205.938,54.21 L215.084,54.21 L215.084,45.064 L205.938,45.064 L205.938,54.21 Z M204.849,55.3 L216.173,55.3 L216.173,43.975 L204.849,43.975 L204.849,55.3 Z" id="Fill-86" fill="#000000" mask="url(#mask-2)"></path>
                    <polygon id="Fill-87" fill="#A1D29D" mask="url(#mask-2)" points="158.075 13.584 223.095 13.584 223.095 7.13 158.075 7.13"></polygon>
                    <path d="M190.313,44.5195 C184.531,44.5195 186.421,54.7165 186.421,54.7165 L194.205,54.7165 C194.205,54.7165 196.095,44.5195 190.313,44.5195" id="Fill-88" fill="#DAA725" mask="url(#mask-2)"></path>
                    <path d="M222.5498,13.0396 L219.7868,13.0396 L161.3828,13.0396 L158.6188,13.0396 L158.6188,7.6756 L222.5498,7.6756 L222.5498,13.0396 Z M218.6968,75.5246 L201.3268,75.5246 L201.3268,72.2176 L199.5608,72.2176 L199.5608,55.2616 L201.3268,55.2616 L201.3268,54.7166 C201.3268,48.7926 196.3858,43.9746 190.3138,43.9746 C184.2398,43.9746 179.2998,48.7926 179.2998,54.7166 L179.2998,55.2616 L181.1838,55.2616 L181.1838,72.2176 L179.2998,72.2176 L179.2998,75.5246 L162.4728,75.5246 L162.4728,14.1286 L218.6968,14.1286 L218.6968,75.5246 Z M185.7848,54.1716 L181.1838,54.1716 L180.4048,54.1716 C180.6308,50.2416 183.2868,46.9316 186.9318,45.6426 C185.1578,48.0796 185.5568,52.5116 185.7848,54.1716 Z M189.8278,55.2616 L189.8278,72.2176 L182.2728,72.2176 L182.2728,55.2616 L185.9678,55.2616 L189.8278,55.2616 Z M193.7388,54.1716 L186.8868,54.1716 C186.6828,52.7356 186.2068,48.1996 187.9458,46.1096 C188.5318,45.4066 189.3058,45.0646 190.3138,45.0646 C191.3208,45.0646 192.0948,45.4066 192.6798,46.1096 C194.4198,48.1996 193.9428,52.7356 193.7388,54.1716 Z M198.4718,55.2616 L198.4718,72.2176 L190.9168,72.2176 L190.9168,55.2616 L194.6578,55.2616 L198.4718,55.2616 Z M194.8408,54.1716 C195.0688,52.5116 195.4678,48.0796 193.6948,45.6426 C197.3398,46.9316 199.9958,50.2416 200.2218,54.1716 L199.5608,54.1716 L194.8408,54.1716 Z M200.2378,75.5246 L180.3888,75.5246 L180.3888,73.3076 L181.1838,73.3076 L199.5608,73.3076 L200.2378,73.3076 L200.2378,75.5246 Z M223.6388,6.5856 L157.5298,6.5856 L157.5298,14.1286 L161.3828,14.1286 L161.3828,76.6136 L219.7868,76.6136 L219.7868,14.1286 L223.6388,14.1286 L223.6388,6.5856 Z" id="Fill-89" fill="#000000" mask="url(#mask-2)"></path>
                    <path d="M233.7886,81.3193 L233.7886,143.8033 L251.7056,143.8033 L251.7056,140.4973 L253.5896,140.4973 L253.5896,122.4513 L251.7056,122.4513 C251.7056,116.8193 256.3926,112.2543 262.1736,112.2543 C267.9556,112.2543 272.6426,116.8193 272.6426,122.4513 L270.8766,122.4513 L270.8766,140.4973 L272.6426,140.4973 L272.6426,143.8033 L291.1026,143.8033 L291.1026,81.3193 L233.7886,81.3193 Z" id="Fill-90" fill="#DAA725" mask="url(#mask-2)"></path>
                    <path d="M251.7051,122.4512 L258.2821,122.4512 C258.2821,122.4512 256.3921,112.2542 262.1741,112.2542 C256.3921,112.2542 251.7051,116.8192 251.7051,122.4512" id="Fill-91" fill="#EF5722" mask="url(#mask-2)"></path>
                    <path d="M272.6426,122.4512 C272.6426,116.8192 267.9556,112.2542 262.1736,112.2542 C267.9556,112.2542 266.0656,122.4512 266.0656,122.4512 L272.6426,122.4512 Z" id="Fill-92" fill="#EF5722" mask="url(#mask-2)"></path>
                    <polygon id="Fill-93" fill="#A1D29D" mask="url(#mask-2)" points="253.589 140.497 270.877 140.497 270.877 122.451 253.589 122.451"></polygon>
                    <polygon id="Fill-94" fill="#EEADCD" mask="url(#mask-2)" points="251.706 143.865 272.643 143.865 272.643 140.497 251.706 140.497"></polygon>
                    <polygon id="Fill-95" fill="#A1D29D" mask="url(#mask-2)" points="237.402 95.003 247.637 95.003 247.637 84.768 237.402 84.768"></polygon>
                    <path d="M237.946,94.459 L247.092,94.459 L247.092,85.313 L237.946,85.313 L237.946,94.459 Z M236.857,95.548 L248.182,95.548 L248.182,84.223 L236.857,84.223 L236.857,95.548 Z" id="Fill-96" fill="#000000" mask="url(#mask-2)"></path>
                    <polygon id="Fill-97" fill="#A1D29D" mask="url(#mask-2)" points="277.254 95.003 287.489 95.003 287.489 84.768 277.254 84.768"></polygon>
                    <path d="M277.798,94.459 L286.944,94.459 L286.944,85.313 L277.798,85.313 L277.798,94.459 Z M276.709,95.548 L288.034,95.548 L288.034,84.223 L276.709,84.223 L276.709,95.548 Z" id="Fill-98" fill="#000000" mask="url(#mask-2)"></path>
                    <polygon id="Fill-99" fill="#A1D29D" mask="url(#mask-2)" points="257.328 95.003 267.563 95.003 267.563 84.768 257.328 84.768"></polygon>
                    <path d="M257.873,94.459 L267.019,94.459 L267.019,85.313 L257.873,85.313 L257.873,94.459 Z M256.783,95.548 L268.108,95.548 L268.108,84.223 L256.783,84.223 L256.783,95.548 Z" id="Fill-100" fill="#000000" mask="url(#mask-2)"></path>
                    <polygon id="Fill-101" fill="#A1D29D" mask="url(#mask-2)" points="237.402 108.746 247.637 108.746 247.637 98.511 237.402 98.511"></polygon>
                    <path d="M237.946,108.201 L247.092,108.201 L247.092,99.055 L237.946,99.055 L237.946,108.201 Z M236.857,109.291 L248.182,109.291 L248.182,97.967 L236.857,97.967 L236.857,109.291 Z" id="Fill-102" fill="#000000" mask="url(#mask-2)"></path>
                    <polygon id="Fill-103" fill="#A1D29D" mask="url(#mask-2)" points="277.254 108.746 287.489 108.746 287.489 98.511 277.254 98.511"></polygon>
                    <path d="M277.798,108.201 L286.944,108.201 L286.944,99.055 L277.798,99.055 L277.798,108.201 Z M276.709,109.291 L288.034,109.291 L288.034,97.967 L276.709,97.967 L276.709,109.291 Z" id="Fill-104" fill="#000000" mask="url(#mask-2)"></path>
                    <polygon id="Fill-105" fill="#A1D29D" mask="url(#mask-2)" points="257.116 108.746 267.351 108.746 267.351 98.511 257.116 98.511"></polygon>
                    <path d="M257.66,108.201 L266.806,108.201 L266.806,99.055 L257.66,99.055 L257.66,108.201 Z M256.571,109.291 L267.896,109.291 L267.896,97.967 L256.571,97.967 L256.571,109.291 Z" id="Fill-106" fill="#000000" mask="url(#mask-2)"></path>
                    <polygon id="Fill-107" fill="#A1D29D" mask="url(#mask-2)" points="237.402 122.489 247.637 122.489 247.637 112.254 237.402 112.254"></polygon>
                    <path d="M237.946,121.944 L247.092,121.944 L247.092,112.798 L237.946,112.798 L237.946,121.944 Z M236.857,123.034 L248.182,123.034 L248.182,111.709 L236.857,111.709 L236.857,123.034 Z" id="Fill-108" fill="#000000" mask="url(#mask-2)"></path>
                    <polygon id="Fill-109" fill="#A1D29D" mask="url(#mask-2)" points="277.254 122.489 287.489 122.489 287.489 112.254 277.254 112.254"></polygon>
                    <path d="M277.798,121.944 L286.944,121.944 L286.944,112.798 L277.798,112.798 L277.798,121.944 Z M276.709,123.034 L288.034,123.034 L288.034,111.709 L276.709,111.709 L276.709,123.034 Z" id="Fill-110" fill="#000000" mask="url(#mask-2)"></path>
                    <polygon id="Fill-111" fill="#EF5722" mask="url(#mask-2)" points="229.936 81.319 294.956 81.319 294.956 74.865 229.936 74.865"></polygon>
                    <path d="M262.1738,112.2539 C256.3918,112.2539 258.2818,122.4509 258.2818,122.4509 L266.0658,122.4509 C266.0658,122.4509 267.9558,112.2539 262.1738,112.2539" id="Fill-112" fill="#EEADCD" mask="url(#mask-2)"></path>
                    <path d="M294.4106,80.7744 L291.6466,80.7744 L233.2436,80.7744 L230.4796,80.7744 L230.4796,75.4104 L294.4106,75.4104 L294.4106,80.7744 Z M290.5576,143.2584 L273.1876,143.2584 L273.1876,139.9534 L271.4216,139.9534 L271.4216,122.9964 L273.1876,122.9964 L273.1876,122.4514 C273.1876,116.5284 268.2466,111.7094 262.1736,111.7094 C256.1006,111.7094 251.1606,116.5284 251.1606,122.4514 L251.1606,122.9964 L253.0446,122.9964 L253.0446,139.9534 L251.1606,139.9534 L251.1606,143.2584 L234.3326,143.2584 L234.3326,81.8634 L290.5576,81.8634 L290.5576,143.2584 Z M257.6456,121.9064 L253.0446,121.9064 L252.2656,121.9064 C252.4916,117.9754 255.1476,114.6674 258.7926,113.3784 C257.0186,115.8134 257.4176,120.2474 257.6456,121.9064 Z M261.6876,122.9964 L261.6876,139.9534 L254.1336,139.9534 L254.1336,122.9964 L257.8286,122.9964 L261.6876,122.9964 Z M265.5996,121.9064 L258.7476,121.9064 C258.5436,120.4694 258.0676,115.9334 259.8066,113.8434 C260.3916,113.1404 261.1666,112.7984 262.1736,112.7984 C263.1816,112.7984 263.9556,113.1404 264.5406,113.8434 C266.2806,115.9334 265.8036,120.4694 265.5996,121.9064 Z M270.3316,122.9964 L270.3316,139.9534 L262.7776,139.9534 L262.7776,122.9964 L266.5186,122.9964 L270.3316,122.9964 Z M266.7016,121.9064 C266.9296,120.2474 267.3286,115.8134 265.5556,113.3784 C269.2006,114.6674 271.8566,117.9754 272.0826,121.9064 L271.4216,121.9064 L266.7016,121.9064 Z M272.0986,143.2584 L252.2496,143.2584 L252.2496,141.0424 L253.0446,141.0424 L271.4216,141.0424 L272.0986,141.0424 L272.0986,143.2584 Z M295.4996,74.3204 L229.3906,74.3204 L229.3906,81.8634 L233.2436,81.8634 L233.2436,144.3484 L291.6466,144.3484 L291.6466,81.8634 L295.4996,81.8634 L295.4996,74.3204 Z" id="Fill-113" fill="#000000" mask="url(#mask-2)"></path>
                    <path d="M134.7612,102.458 L134.7612,108.304 L140.6072,108.304 C142.7592,108.304 144.5042,110.049 144.5042,112.201 L156.1962,112.201 C156.1962,110.049 157.9402,108.304 160.0932,108.304 C162.2452,108.304 163.9902,110.049 163.9902,112.201 L165.9382,112.201 L165.9382,108.304 L167.8872,108.304 L167.8872,90.767 C167.8872,88.614 166.1422,86.869 163.9902,86.869 L142.5552,86.869 C140.4032,86.869 138.6582,88.614 138.6582,90.767 L138.6582,98.561 C134.7612,98.561 134.7612,102.458 134.7612,102.458" id="Fill-114" fill="#DBA827" mask="url(#mask-2)"></path>
                    <path d="M163.9902,112.2012 C163.9902,114.3522 162.2452,116.0972 160.0932,116.0972 C157.9402,116.0972 156.1962,114.3522 156.1962,112.2012 C156.1962,110.0492 157.9402,108.3042 160.0932,108.3042 C162.2452,108.3042 163.9902,110.0492 163.9902,112.2012" id="Fill-115" fill="#EFAECE" mask="url(#mask-2)"></path>
                    <path d="M162.0415,112.2012 C162.0415,113.2762 161.1685,114.1492 160.0925,114.1492 C159.0165,114.1492 158.1445,113.2762 158.1445,112.2012 C158.1445,111.1252 159.0165,110.2522 160.0925,110.2522 C161.1685,110.2522 162.0415,111.1252 162.0415,112.2012" id="Fill-116" fill="#F05822" mask="url(#mask-2)"></path>
                    <path d="M158.5342,112.2012 C158.5342,113.0612 159.2322,113.7602 160.0932,113.7602 C160.9532,113.7602 161.6522,113.0612 161.6522,112.2012 C161.6522,111.3402 160.9532,110.6412 160.0932,110.6412 C159.2322,110.6412 158.5342,111.3402 158.5342,112.2012 M157.7542,112.2012 C157.7542,110.9092 158.8012,109.8622 160.0932,109.8622 C161.3842,109.8622 162.4312,110.9092 162.4312,112.2012 C162.4312,113.4922 161.3842,114.5392 160.0932,114.5392 C158.8012,114.5392 157.7542,113.4922 157.7542,112.2012" id="Fill-117" fill="#000000" mask="url(#mask-2)"></path>
                    <path d="M144.5044,112.2012 C144.5044,114.3522 142.7594,116.0972 140.6074,116.0972 C138.4554,116.0972 136.7104,114.3522 136.7104,112.2012 C136.7104,110.0492 138.4554,108.3042 140.6074,108.3042 C142.7594,108.3042 144.5044,110.0492 144.5044,112.2012" id="Fill-118" fill="#EFAECE" mask="url(#mask-2)"></path>
                    <path d="M142.5557,112.2012 C142.5557,113.2762 141.6827,114.1492 140.6067,114.1492 C139.5307,114.1492 138.6587,113.2762 138.6587,112.2012 C138.6587,111.1252 139.5307,110.2522 140.6067,110.2522 C141.6827,110.2522 142.5557,111.1252 142.5557,112.2012" id="Fill-119" fill="#F05822" mask="url(#mask-2)"></path>
                    <path d="M139.0483,112.2012 C139.0483,113.0612 139.7463,113.7602 140.6073,113.7602 C141.4683,113.7602 142.1663,113.0612 142.1663,112.2012 C142.1663,111.3402 141.4683,110.6412 140.6073,110.6412 C139.7463,110.6412 139.0483,111.3402 139.0483,112.2012 M138.2693,112.2012 C138.2693,110.9092 139.3163,109.8622 140.6073,109.8622 C141.8983,109.8622 142.9453,110.9092 142.9453,112.2012 C142.9453,113.4922 141.8983,114.5392 140.6073,114.5392 C139.3163,114.5392 138.2693,113.4922 138.2693,112.2012" id="Fill-120" fill="#000000" mask="url(#mask-2)"></path>
                    <polygon id="Fill-121" fill="#221F1F" mask="url(#mask-2)" points="150.35 100.704 165.938 100.704 165.938 99.925 150.35 99.925"></polygon>
                    <polygon id="Fill-122" fill="#221F1F" mask="url(#mask-2)" points="150.35 104.796 165.938 104.796 165.938 104.017 150.35 104.017"></polygon>
                    <polygon id="Fill-123" fill="#A2D39F" mask="url(#mask-2)" points="138.659 98.561 142.556 98.561 142.556 92.715 138.659 92.715"></polygon>
                    <polygon id="Fill-124" fill="#A2D39F" mask="url(#mask-2)" points="150.35 98.561 154.247 98.561 154.247 92.715 150.35 92.715"></polygon>
                    <path d="M150.739,98.17 L153.857,98.17 L153.857,93.104 L150.739,93.104 L150.739,98.17 Z M149.96,98.95 L154.636,98.95 L154.636,92.325 L149.96,92.325 L149.96,98.95 Z" id="Fill-125" fill="#000000" mask="url(#mask-2)"></path>
                    <polygon id="Fill-126" fill="#A2D39F" mask="url(#mask-2)" points="156.196 98.561 160.093 98.561 160.093 92.715 156.196 92.715"></polygon>
                    <path d="M156.585,98.17 L159.703,98.17 L159.703,93.104 L156.585,93.104 L156.585,98.17 Z M155.806,98.95 L160.482,98.95 L160.482,92.325 L155.806,92.325 L155.806,98.95 Z" id="Fill-127" fill="#000000" mask="url(#mask-2)"></path>
                    <polygon id="Fill-128" fill="#A2D39F" mask="url(#mask-2)" points="162.041 98.561 165.938 98.561 165.938 92.715 162.041 92.715"></polygon>
                    <path d="M162.431,98.17 L165.549,98.17 L165.549,93.104 L162.431,93.104 L162.431,98.17 Z M161.652,98.95 L166.328,98.95 L166.328,92.325 L161.652,92.325 L161.652,98.95 Z" id="Fill-129" fill="#000000" mask="url(#mask-2)"></path>
                    <polygon id="Fill-130" fill="#A2D39F" mask="url(#mask-2)" points="144.5044 92.7148 144.5044 108.3038 146.4524 108.3038 148.4014 108.3038 148.4014 92.7148 146.4524 92.7148"></polygon>
                    <path d="M144.894,107.914 L146.063,107.914 L146.063,93.104 L144.894,93.104 L144.894,107.914 Z M146.843,107.914 L148.012,107.914 L148.012,93.104 L146.843,93.104 L146.843,107.914 Z M144.115,92.325 L144.115,108.693 L148.791,108.693 L148.791,92.325 L146.063,92.325 L144.115,92.325 Z" id="Fill-131" fill="#000000" mask="url(#mask-2)"></path>
                    <path d="M134.7612,102.458 C133.6852,102.458 132.8132,103.33 132.8132,104.406 C132.8132,105.482 133.6852,106.355 134.7612,106.355 L134.7612,102.458 Z" id="Fill-132" fill="#EFAECE" mask="url(#mask-2)"></path>
                    <polygon id="Fill-133" fill="#F05822" mask="url(#mask-2)" points="165.938 112.201 167.887 112.201 167.887 108.304 165.938 108.304"></polygon>
                    <path d="M132.813,108.3037 L132.813,112.2007 L136.71,112.2007 C136.71,110.0487 138.455,108.3037 140.607,108.3037 L132.813,108.3037 Z" id="Fill-134" fill="#F05822" mask="url(#mask-2)"></path>
                    <path d="M133.2026,108.6934 L138.1476,108.6934 C137.1166,109.4164 136.4546,110.5564 136.3396,111.8104 L133.2026,111.8104 L133.2026,108.6934 Z M137.0996,112.2014 C137.0996,110.2634 138.6696,108.6934 140.6066,108.6934 C142.5446,108.6934 144.1146,110.2634 144.1146,112.2014 C144.1146,114.1374 142.5446,115.7084 140.6066,115.7084 C138.6696,115.7084 137.0996,114.1374 137.0996,112.2014 Z M160.0926,115.7084 C158.1556,115.7084 156.5856,114.1374 156.5856,112.2014 C156.5856,110.2634 158.1556,108.6934 160.0926,108.6934 C162.0296,108.6934 163.5996,110.2634 163.5996,112.2014 C163.5996,114.1374 162.0296,115.7084 160.0926,115.7084 Z M139.0476,98.1714 L142.1656,98.1714 L142.1656,93.1054 L139.0476,93.1054 L139.0476,98.1714 Z M165.5486,107.9144 L165.5486,111.8104 L164.3626,111.8104 C164.1706,109.7574 162.5446,108.1314 160.4916,107.9404 C158.1346,107.7204 156.0456,109.4544 155.8256,111.8104 L144.8766,111.8104 C144.6886,109.7514 143.0566,108.1194 140.9966,107.9314 L140.9966,107.9144 L135.1516,107.9144 L135.1516,102.4584 C135.1516,102.3154 135.2076,98.9504 138.6586,98.9504 L142.9456,98.9504 L142.9456,92.3254 L139.0486,92.3254 L139.0486,91.1564 L167.4976,91.1564 L167.4976,107.9144 L165.5486,107.9144 Z M166.3276,111.8104 L167.4966,111.8104 L167.4966,108.6934 L166.3276,108.6934 L166.3276,111.8104 Z M167.4686,90.3774 L139.0716,90.3774 C139.2696,88.6024 140.7696,87.2594 142.5556,87.2584 L163.9906,87.2584 C165.7736,87.2624 167.2696,88.6044 167.4686,90.3774 Z M134.3716,105.9174 C133.8206,105.7754 133.3896,105.3444 133.2476,104.7934 C133.0346,103.9594 133.5376,103.1094 134.3716,102.8964 L134.3716,105.9174 Z M134.3716,107.9144 L132.4236,107.9144 L132.4236,112.5904 L136.3396,112.5904 C136.5316,114.6434 138.1576,116.2694 140.2096,116.4614 C142.5676,116.6804 144.6566,114.9474 144.8766,112.5904 L155.8256,112.5904 C156.0166,114.6434 157.6426,116.2694 159.6956,116.4614 C162.0536,116.6804 164.1426,114.9474 164.3626,112.5904 L168.2766,112.5904 L168.2766,90.7664 C168.2766,88.3984 166.3576,86.4794 163.9896,86.4794 L142.5556,86.4794 C140.1876,86.4794 138.2686,88.3984 138.2686,90.7664 L138.2686,98.1824 C135.1086,98.3974 134.5126,101.1094 134.3986,102.0994 C133.4186,102.2594 132.6466,103.0224 132.4746,104.0014 C132.2506,105.2734 133.0996,106.4854 134.3716,106.7104 L134.3716,107.9144 Z" id="Fill-135" fill="#000000" mask="url(#mask-2)"></path>
                    <path d="M249.7754,33.124 C249.7754,36.132 245.4504,38.849 244.3944,41.222 C242.4604,45.564 240.8814,49.158 236.9764,49.158 C233.0714,49.158 231.4924,45.564 229.5594,41.222 C228.5034,38.849 224.1774,36.132 224.1774,33.124 C224.1774,30.116 228.5034,27.399 229.5594,25.027 C231.4924,20.683 233.0714,17.089 236.9764,17.089 C240.8814,17.089 242.4604,20.683 244.3944,25.027 C245.4504,27.399 249.7754,30.116 249.7754,33.124" id="Fill-136" fill="#EFAECE" mask="url(#mask-2)"></path>
                    <path d="M237.4888,24.5225 C238.3578,25.6255 239.6958,26.3405 241.2058,26.3405 L241.2058,25.3165 C239.1558,25.3165 237.4888,23.6495 237.4888,21.6005 L237.4888,21.4065 L236.4648,21.4065 C236.4648,23.4555 234.7978,25.1235 232.7478,25.1235 L232.7478,26.1475 C234.2568,26.1475 235.5958,25.4335 236.4648,24.3315 L236.4648,27.1525 C236.4648,29.2015 234.7978,30.8695 232.7478,30.8695 L232.7478,31.8935 C234.2568,31.8935 235.5958,31.1785 236.4648,30.0785 L236.4648,32.8985 C236.4648,34.9485 234.7978,36.6155 232.7478,36.6155 L232.7478,37.6395 C234.2568,37.6395 235.5958,36.9245 236.4648,35.8245 L236.4648,38.6445 C236.4648,40.6935 234.7978,42.3615 232.7478,42.3615 L232.7478,43.3845 C234.2568,43.3845 235.5958,42.6705 236.4648,41.5695 L236.4648,57.0725 L237.4888,57.0725 L237.4888,41.7605 C238.3578,42.8635 239.6958,43.5795 241.2058,43.5795 L241.2058,42.5545 C239.1558,42.5545 237.4888,40.8875 237.4888,38.8375 L237.4888,38.6445 L237.4888,36.0145 C238.3578,37.1175 239.6958,37.8335 241.2058,37.8335 L241.2058,36.8085 C239.1558,36.8085 237.4888,35.1415 237.4888,33.0925 L237.4888,32.8985 L237.4888,30.2685 C238.3578,31.3715 239.6958,32.0865 241.2058,32.0865 L241.2058,31.0625 C239.1558,31.0625 237.4888,29.3955 237.4888,27.3465 L237.4888,27.1525 L237.4888,24.5225 Z" id="Fill-137" fill="#221F1F" mask="url(#mask-2)"></path>
                    <path d="M138.7271,23.5 C138.7271,20.845 136.5751,18.693 133.9201,18.693 C131.2661,18.693 129.1131,20.845 129.1131,23.5 L138.7271,23.5 Z" id="Fill-138" fill="#DBA827" mask="url(#mask-2)"></path>
                    <path d="M266.7271,20.5 C266.7271,17.845 264.5751,15.693 261.9201,15.693 C259.2661,15.693 257.1131,17.845 257.1131,20.5 L266.7271,20.5 Z" id="Fill-139" fill="#F05822" mask="url(#mask-2)"></path>
                    <path d="M221.8481,91.0352 C221.8481,93.0112 218.7821,94.9052 218.7101,96.7652 C218.6331,98.7712 221.5431,100.7992 221.3911,102.6222 C221.2211,104.6812 217.9881,106.4192 217.7351,108.1782 C217.4211,110.3602 220.0421,112.6162 219.6251,114.2122 C218.7861,117.4202 216.2761,117.9682 215.1721,117.9682 C214.0691,117.9682 211.5581,117.4202 210.7201,114.2122 C210.3021,112.6152 212.9231,110.3592 212.6101,108.1772 C212.3571,106.4192 209.1241,104.6812 208.9531,102.6232 C208.8021,100.8002 211.7111,98.7712 211.6341,96.7652 C211.5631,94.9062 208.4961,93.0112 208.4961,91.0352 C208.4961,89.0602 211.5631,87.1652 211.6341,85.3062 C211.7111,83.3002 208.8021,81.2712 208.9531,79.4482 C209.1241,77.3892 212.3571,75.6512 212.6101,73.8932 C212.9241,71.7112 210.3021,69.4552 210.7201,67.8582 C211.5591,64.6512 214.0691,64.1032 215.1721,64.1032 C216.2761,64.1032 218.7861,64.6512 219.6251,67.8592 C220.0421,69.4552 217.4211,71.7112 217.7351,73.8932 C217.9881,75.6512 221.2211,77.3902 221.3911,79.4482 C221.5431,81.2712 218.6331,83.2992 218.7101,85.3052 C218.7821,87.1652 221.8481,89.0602 221.8481,91.0352" id="Fill-140" fill="#F05822" mask="url(#mask-2)"></path>
                    <polygon id="Fill-141" fill="#000000" mask="url(#mask-2)" points="218.1035 88.3877 217.3795 87.6627 215.6845 89.3587 215.6845 82.5557 218.1035 80.1367 217.3795 79.4127 215.6845 81.1077 215.6845 75.8897 214.6605 75.8897 214.6605 81.1077 212.9655 79.4127 212.2415 80.1367 214.6605 82.5557 214.6605 89.3587 212.9655 87.6627 212.2415 88.3877 214.6605 90.8057 214.6605 97.6087 212.9655 95.9127 212.2415 96.6377 214.6605 99.0567 214.6605 105.8587 212.9655 104.1627 212.2415 104.8877 214.6605 107.3067 214.6605 114.1087 212.9655 112.4127 212.2415 113.1377 214.6605 115.5567 214.6605 130.0877 215.6845 130.0877 215.6845 115.5567 218.1035 113.1377 217.3795 112.4127 215.6845 114.1087 215.6845 107.3067 218.1035 104.8877 217.3795 104.1627 215.6845 105.8587 215.6845 99.0567 218.1035 96.6377 217.3795 95.9127 215.6845 97.6087 215.6845 90.8057"></polygon>
                    <path d="M125.3516,102.3926 C125.3516,109.7566 119.3816,115.7276 112.0166,115.7276 C104.6516,115.7276 98.6816,109.7566 98.6816,102.3926 C98.6816,95.0276 104.6516,89.0566 112.0166,89.0566 C119.3816,89.0566 125.3516,95.0276 125.3516,102.3926" id="Fill-142" fill="#EFAECE" mask="url(#mask-2)"></path>
                    <path d="M122.2017,101.6299 L121.1777,101.6299 C121.1777,102.9799 120.1977,104.0979 118.9127,104.3259 C118.9317,104.1169 118.9447,103.9059 118.9447,103.6919 L118.9447,100.7639 L117.9207,100.7639 L117.9207,103.6919 C117.9207,103.9039 117.9087,104.1129 117.8867,104.3189 C116.6337,104.0659 115.6887,102.9559 115.6887,101.6299 L114.6637,101.6299 C114.6637,103.4519 115.9647,104.9769 117.6857,105.3239 C117.0217,107.6289 114.9907,109.3579 112.5287,109.5699 L112.5287,98.8169 C113.6637,98.5799 114.5187,97.5719 114.5187,96.3679 L113.4947,96.3679 C113.4947,97.0029 113.0907,97.5409 112.5287,97.7499 L112.5287,95.1619 L111.5037,95.1619 L111.5037,97.7499 C110.9417,97.5409 110.5377,97.0029 110.5377,96.3679 L109.5137,96.3679 C109.5137,97.5719 110.3687,98.5799 111.5037,98.8169 L111.5037,109.5699 C109.0417,109.3579 107.0117,107.6289 106.3467,105.3239 C108.0677,104.9769 109.3687,103.4519 109.3687,101.6299 L108.3447,101.6299 C108.3447,102.9559 107.3987,104.0659 106.1467,104.3189 C106.1247,104.1129 106.1117,103.9039 106.1117,103.6919 L106.1117,100.7639 L105.0877,100.7639 L105.0877,103.6919 C105.0877,103.9059 105.1007,104.1169 105.1197,104.3259 C103.8357,104.0979 102.8557,102.9799 102.8557,101.6299 L101.8307,101.6299 C101.8307,103.6089 103.3647,105.2329 105.3057,105.3839 C106.0227,108.2269 108.4967,110.3729 111.5037,110.5949 L111.5037,128.3049 L112.5287,128.3049 L112.5287,110.5949 C115.5357,110.3729 118.0097,108.2269 118.7267,105.3839 C120.6677,105.2329 122.2017,103.6089 122.2017,101.6299" id="Fill-143" fill="#000000" mask="url(#mask-2)"></path>
                    <path d="M311.5342,101.5928 C311.5342,99.1128 308.2212,97.8558 308.2212,95.5518 C308.2212,92.9678 311.8412,91.4448 311.4752,88.5948 C311.0372,85.1808 308.0512,82.4448 304.3562,82.0678 C299.4702,81.5688 295.3342,85.0928 295.3342,89.5098 C295.3342,91.9898 298.6472,93.2478 298.6472,95.5518 C298.6472,97.8558 295.3342,99.1128 295.3342,101.5928 C295.3342,104.0728 298.6472,105.3298 298.6472,107.6338 C298.6472,110.2178 295.0272,111.7408 295.3932,114.5908 C295.8312,118.0048 298.8172,120.7408 302.5122,121.1178 C307.3982,121.6168 311.5342,118.0928 311.5342,113.6758 C311.5342,111.1958 308.2212,109.9378 308.2212,107.6338 C308.2212,105.3298 311.5342,104.0728 311.5342,101.5928" id="Fill-144" fill="#DBA827" mask="url(#mask-2)"></path>
                    <path d="M306.0771,90.0654 C306.6261,89.6274 307.0991,89.2484 308.0811,89.2484 L308.0811,88.2234 C306.7401,88.2234 306.0481,88.7774 305.4371,89.2654 C304.9951,89.6194 304.5971,89.9304 303.9461,90.0394 L303.9461,85.9014 L302.9221,85.9014 L302.9221,90.0394 C302.2711,89.9304 301.8731,89.6194 301.4301,89.2654 C300.8201,88.7774 300.1281,88.2234 298.7861,88.2234 L298.7861,89.2484 C299.7691,89.2484 300.2421,89.6274 300.7901,90.0654 C301.3171,90.4864 301.9081,90.9554 302.9221,91.0754 L302.9221,96.3904 C302.2711,96.2824 301.8731,95.9714 301.4301,95.6174 C300.8201,95.1284 300.1281,94.5764 298.7861,94.5764 L298.7861,95.5994 C299.7691,95.5994 300.2421,95.9784 300.7901,96.4174 C301.3171,96.8384 301.9081,97.3074 302.9221,97.4274 L302.9221,102.7434 C302.2711,102.6344 301.8731,102.3234 301.4301,101.9694 C300.8201,101.4814 300.1281,100.9274 298.7861,100.9274 L298.7861,101.9524 C299.7691,101.9524 300.2421,102.3314 300.7901,102.7694 C301.3171,103.1914 301.9081,103.6594 302.9221,103.7804 L302.9221,109.0944 C302.2711,108.9864 301.8731,108.6754 301.4301,108.3214 C300.8201,107.8334 300.1281,107.2804 298.7861,107.2804 L298.7861,108.3034 C299.7691,108.3034 300.2421,108.6824 300.7901,109.1214 C301.3171,109.5434 301.9081,110.0114 302.9221,110.1314 L302.9221,115.4474 C302.2711,115.3384 301.8731,115.0274 301.4301,114.6734 C300.8201,114.1854 300.1281,113.6314 298.7861,113.6314 L298.7861,114.6564 C299.7691,114.6564 300.2421,115.0354 300.7901,115.4734 C301.3171,115.8954 301.9081,116.3634 302.9221,116.4844 L302.9221,130.3914 L303.9461,130.3914 L303.9461,116.4844 C304.9601,116.3634 305.5511,115.8954 306.0771,115.4734 C306.6261,115.0354 307.0991,114.6564 308.0811,114.6564 L308.0811,113.6314 C306.7401,113.6314 306.0481,114.1854 305.4371,114.6734 C304.9951,115.0274 304.5971,115.3384 303.9461,115.4474 L303.9461,110.1314 C304.9601,110.0114 305.5511,109.5434 306.0771,109.1224 C306.6261,108.6824 307.0991,108.3034 308.0811,108.3034 L308.0811,107.2804 C306.7401,107.2804 306.0481,107.8334 305.4371,108.3214 C304.9951,108.6754 304.5971,108.9864 303.9461,109.0944 L303.9461,103.7804 C304.9601,103.6594 305.5511,103.1914 306.0771,102.7694 C306.6261,102.3314 307.0991,101.9524 308.0811,101.9524 L308.0811,100.9274 C306.7401,100.9274 306.0481,101.4814 305.4371,101.9694 C304.9951,102.3234 304.5971,102.6344 303.9461,102.7434 L303.9461,97.4274 C304.9601,97.3074 305.5511,96.8384 306.0771,96.4174 C306.6261,95.9784 307.0991,95.5994 308.0811,95.5994 L308.0811,94.5764 C306.7401,94.5764 306.0481,95.1284 305.4371,95.6174 C304.9951,95.9704 304.5971,96.2824 303.9461,96.3904 L303.9461,91.0754 C304.9601,90.9554 305.5511,90.4864 306.0771,90.0654" id="Fill-145" fill="#000000" mask="url(#mask-2)"></path>
                    <path d="M139.603,141.5 C140.394,141.214 142.313,140.496 142.313,139.698 C142.313,138.901 139.891,138.591 139.603,137.897 C139.305,137.179 140.787,135.248 140.245,134.707 C139.703,134.165 137.773,135.646 137.054,135.349 C136.36,135.061 136.051,132.639 135.253,132.639 C134.455,132.639 134.145,135.061 133.452,135.349 C132.732,135.646 130.803,134.165 130.261,134.706 C129.719,135.248 131.201,137.179 130.903,137.897 C130.615,138.591 128.193,138.901 128.193,139.698 C128.193,140.496 130.112,141.214 130.903,141.5 L139.603,141.5 Z" id="Fill-146" fill="#A2D39F" mask="url(#mask-2)"></path>
                    <g id="Group-149" mask="url(#mask-2)" opacity="0.25" stroke="#000000" stroke-width="2">
                        <g transform="translate(29.000000, 63.000000)" id="Stroke-148">
                            <path d="M62.5,31.2227 C62.5,48.3427 48.621,62.2227 31.5,62.2227 C14.379,62.2227 0.5,48.3427 0.5,31.2227 C0.5,14.1017 14.379,0.2227 31.5,0.2227 C48.621,0.2227 62.5,14.1017 62.5,31.2227 Z"></path>
                        </g>
                    </g>
                    <path d="M91.5,92.5 C91.5,109.621 77.621,123.5 60.5,123.5 C43.379,123.5 29.5,109.621 29.5,92.5 C29.5,75.379 43.379,61.5 60.5,61.5 C77.621,61.5 91.5,75.379 91.5,92.5" id="Fill-150" fill="#F05822" mask="url(#mask-2)"></path>
                    <path d="M91.5,92.5 C91.5,109.621 77.621,123.5 60.5,123.5 C43.379,123.5 29.5,109.621 29.5,92.5 C29.5,75.379 43.379,61.5 60.5,61.5 C77.621,61.5 91.5,75.379 91.5,92.5 Z" id="Stroke-151" stroke="#FFFFFF" stroke-width="2" mask="url(#mask-2)"></path>
                    <polygon id="Fill-152" fill="#FFFFFF" mask="url(#mask-2)" points="58 143.773 63 143.773 63 62.773 58 62.773"></polygon>
                    <polygon id="Fill-153" fill="#A1D29D" mask="url(#mask-2)" points="63 138.2734 62.293 137.5664 58 141.8594 58 143.7734 58.914 143.7734 63 139.6874"></polygon>
                    <polygon id="Fill-154" fill="#A1D29D" mask="url(#mask-2)" points="63 132.1875 63 130.7735 62.293 130.0665 58 134.3595 58 136.7735 58.207 136.9805"></polygon>
                    <polygon id="Fill-155" fill="#A1D29D" mask="url(#mask-2)" points="63 124.6875 63 123.2735 62.293 122.5665 58 126.8595 58 129.2735 58.207 129.4805"></polygon>
                    <polygon id="Fill-156" fill="#A1D29D" mask="url(#mask-2)" points="63 117.1875 63 115.7735 62.293 115.0665 58 119.3595 58 121.7735 58.207 121.9805"></polygon>
                    <polygon id="Fill-157" fill="#A1D29D" mask="url(#mask-2)" points="63 109.6875 63 108.2735 62.293 107.5665 58 111.8595 58 114.2735 58.207 114.4805"></polygon>
                    <polygon id="Fill-158" fill="#A1D29D" mask="url(#mask-2)" points="63 102.1875 63 100.7735 62.293 100.0665 58 104.3595 58 106.7735 58.207 106.9805"></polygon>
                    <polygon id="Fill-159" fill="#A1D29D" mask="url(#mask-2)" points="63 94.6875 63 93.2735 62.293 92.5665 58 96.8595 58 99.2735 58.207 99.4805"></polygon>
                    <polygon id="Fill-160" fill="#A1D29D" mask="url(#mask-2)" points="63 87.1875 63 85.7735 62.293 85.0665 58 89.3595 58 91.7735 58.207 91.9805"></polygon>
                    <polygon id="Fill-161" fill="#A1D29D" mask="url(#mask-2)" points="63 79.6875 63 78.2735 62.293 77.5665 58 81.8595 58 84.2735 58.207 84.4805"></polygon>
                    <polygon id="Fill-162" fill="#A1D29D" mask="url(#mask-2)" points="63 72.1875 63 70.7735 62.293 70.0665 58 74.3595 58 76.7735 58.207 76.9805"></polygon>
                    <polygon id="Fill-163" fill="#A1D29D" mask="url(#mask-2)" points="63 64.6875 63 63.2735 62.5 62.7735 62.086 62.7735 58 66.8595 58 69.2735 58.207 69.4805"></polygon>
                    <path d="M58.575,143.198 L62.425,143.198 L62.425,63.348 L58.575,63.348 L58.575,143.198 Z M57.425,144.349 L63.575,144.349 L63.575,62.199 L57.425,62.199 L57.425,144.349 Z" id="Fill-164" fill="#000000" mask="url(#mask-2)"></path>
                    <path d="M64.5,62.2734 C64.5,64.4824 62.709,66.2734 60.5,66.2734 C58.291,66.2734 56.5,64.4824 56.5,62.2734 C56.5,60.0644 58.291,58.2734 60.5,58.2734 C62.709,58.2734 64.5,60.0644 64.5,62.2734" id="Fill-165" fill="#A1D29D" mask="url(#mask-2)"></path>
                    <path d="M64.5,62.2734 C64.5,64.4824 62.709,66.2734 60.5,66.2734 C58.291,66.2734 56.5,64.4824 56.5,62.2734 C56.5,60.0644 58.291,58.2734 60.5,58.2734 C62.709,58.2734 64.5,60.0644 64.5,62.2734 Z" id="Stroke-166" stroke="#000000" stroke-width="1.151" mask="url(#mask-2)"></path>
                    <path d="M80.6919,79.8604 C75.5969,74.5544 68.4369,71.2474 60.4999,71.2474 C52.5639,71.2474 45.4039,74.5544 40.3089,79.8604 L27.9999,79.8604 L27.9999,114.7734 L92.9999,114.7734 L92.9999,79.8604 L80.6919,79.8604 Z" id="Fill-167" fill="#000000" mask="url(#mask-2)"></path>
                    <path d="M80.6919,79.8604 C75.5969,74.5544 68.4369,71.2474 60.4999,71.2474 C52.5639,71.2474 45.4039,74.5544 40.3089,79.8604 L27.9999,79.8604 L27.9999,114.7734 L92.9999,114.7734 L92.9999,79.8604 L80.6919,79.8604 Z" id="Stroke-168" stroke="#000000" stroke-width="0.88" mask="url(#mask-2)"></path>
                    <path d="M47.0654,92.9687 C46.4294,92.6097 45.9434,92.0987 45.6074,91.4397 C45.2714,90.7797 45.1034,90.0087 45.1034,89.1287 C45.1034,88.2647 45.2894,87.5027 45.6614,86.8427 C46.0334,86.1827 46.5514,85.6727 47.2154,85.3137 C47.8794,84.9527 48.6394,84.7737 49.4954,84.7737 C49.9274,84.7737 50.3474,84.8177 50.7554,84.9057 C51.1634,84.9927 51.5154,85.1137 51.8114,85.2647 L51.6434,86.7297 C50.9474,86.4087 50.2314,86.2487 49.4954,86.2487 C48.5994,86.2487 47.9234,86.5107 47.4674,87.0347 C47.0114,87.5597 46.7834,88.2487 46.7834,89.1057 C46.7834,89.9927 47.0074,90.7027 47.4554,91.2357 C47.9034,91.7677 48.5514,92.0327 49.3994,92.0327 C49.7434,92.0327 50.1274,91.9897 50.5514,91.9017 L50.5514,90.4017 L49.3994,90.4017 L49.3994,89.1287 L52.0874,89.1287 L52.0874,92.8727 C51.7754,93.0577 51.3774,93.2087 50.8934,93.3287 C50.4094,93.4487 49.8914,93.5087 49.3394,93.5087 C48.4594,93.5087 47.7014,93.3287 47.0654,92.9687" id="Fill-169" fill="#FFFFFF" mask="url(#mask-2)"></path>
                    <polygon id="Fill-170" fill="#FFFFFF" mask="url(#mask-2)" points="53.5752 84.9414 58.9512 84.9414 58.9512 86.4284 55.1472 86.4284 55.1472 88.2164 58.0992 88.2164 58.0992 89.7054 55.1472 89.7054 55.1472 91.8534 59.0712 91.8534 59.0712 93.3404 53.5752 93.3404"></polygon>
                    <polygon id="Fill-171" fill="#FFFFFF" mask="url(#mask-2)" points="62.0234 86.4287 59.6474 86.4287 59.6474 84.9417 65.9354 84.9417 65.9354 86.4287 63.5594 86.4287 63.5594 93.3407 62.0234 93.3407"></polygon>
                    <path d="M73.6147,90.0049 L72.5707,87.0049 L71.5147,90.0049 L73.6147,90.0049 Z M74.0947,91.3489 L71.0347,91.3489 L70.3387,93.3409 L68.8507,93.3409 L71.8387,84.9419 L73.2907,84.9419 L76.2787,93.3409 L74.7907,93.3409 L74.0947,91.3489 Z" id="Fill-172" fill="#FFFFFF" mask="url(#mask-2)"></path>
                    <path d="M50.4438,108.4854 C50.7958,108.4854 51.0458,108.4094 51.1938,108.2564 C51.3418,108.1044 51.4158,107.8374 51.4158,107.4534 L51.4158,99.3404 L52.9518,99.3404 L52.9518,107.7894 C52.9518,108.4934 52.7838,109.0054 52.4478,109.3254 C52.1118,109.6444 51.6318,109.8044 51.0078,109.8044 L50.5758,109.8044 L50.4438,108.4854 Z" id="Fill-173" fill="#FFFFFF" mask="url(#mask-2)"></path>
                    <path d="M60.3135,105.6289 C60.7495,105.1009 60.9675,104.4049 60.9675,103.5409 C60.9675,102.6769 60.7495,101.9819 60.3135,101.4529 C59.8775,100.9249 59.2515,100.6609 58.4355,100.6609 C57.6195,100.6609 56.9935,100.9249 56.5575,101.4529 C56.1215,101.9819 55.9035,102.6769 55.9035,103.5409 C55.9035,104.4049 56.1215,105.1009 56.5575,105.6289 C56.9935,106.1569 57.6195,106.4209 58.4355,106.4209 C59.2515,106.4209 59.8775,106.1569 60.3135,105.6289 M56.3055,107.3629 C55.6775,106.9989 55.1855,106.4869 54.8295,105.8269 C54.4735,105.1669 54.2955,104.4049 54.2955,103.5409 C54.2955,102.6769 54.4735,101.9149 54.8295,101.2549 C55.1855,100.5949 55.6775,100.0829 56.3055,99.7189 C56.9335,99.3559 57.6435,99.1729 58.4355,99.1729 C59.2275,99.1729 59.9375,99.3559 60.5655,99.7189 C61.1935,100.0829 61.6855,100.5949 62.0415,101.2549 C62.3975,101.9149 62.5755,102.6769 62.5755,103.5409 C62.5755,104.4049 62.3975,105.1669 62.0415,105.8269 C61.6855,106.4869 61.1935,106.9989 60.5655,107.3629 C59.9375,107.7279 59.2275,107.9089 58.4355,107.9089 C57.6435,107.9089 56.9335,107.7279 56.3055,107.3629" id="Fill-174" fill="#FFFFFF" mask="url(#mask-2)"></path>
                    <path d="M68.2217,106.1025 C68.4577,105.9225 68.5757,105.6175 68.5757,105.1845 C68.5757,104.7605 68.4537,104.4585 68.2097,104.2795 C67.9657,104.0985 67.6277,104.0085 67.1957,104.0085 L65.4557,104.0085 L65.4557,106.3735 L67.1957,106.3735 C67.6437,106.3735 67.9857,106.2835 68.2217,106.1025 Z M65.4557,102.6405 L66.8597,102.6405 C67.2357,102.6405 67.5157,102.5625 67.6997,102.4075 C67.8837,102.2505 67.9757,102.0085 67.9757,101.6805 C67.9757,101.3365 67.8837,101.0885 67.6997,100.9365 C67.5157,100.7855 67.2357,100.7085 66.8597,100.7085 L65.4557,100.7085 L65.4557,102.6405 Z M70.1597,105.3525 C70.1597,106.1055 69.9157,106.6915 69.4277,107.1115 C68.9397,107.5315 68.2717,107.7415 67.4237,107.7415 L63.9197,107.7415 L63.9197,99.3405 L67.0877,99.3405 C68.6877,99.3405 69.4877,100.0175 69.4877,101.3695 C69.4877,102.2015 69.1797,102.7925 68.5637,103.1445 C69.6277,103.4895 70.1597,104.2245 70.1597,105.3525 Z" id="Fill-175" fill="#FFFFFF" mask="url(#mask-2)"></path>
                </g>
            </g>
        </g>
    </g>
</svg>