<svg id="Layer_1" data-name="Layer 1" xmlns="http://www.w3.org/2000/svg" viewBox="0 0 300 300"><defs><style>.cls-1{fill:#ef5722;}.cls-1,.cls-10,.cls-11,.cls-12,.cls-2,.cls-3,.cls-4,.cls-6,.cls-7,.cls-8,.cls-9{stroke:#000;}.cls-1,.cls-10,.cls-11,.cls-12,.cls-2,.cls-3,.cls-4,.cls-5,.cls-6,.cls-7,.cls-8,.cls-9{stroke-miterlimit:10;stroke-width:3px;}.cls-2{fill:#eeadcd;}.cls-3{fill:#daa725;}.cls-4{fill:#a1d29d;}.cls-5,.cls-8{fill:none;}.cls-5{stroke:#211e20;}.cls-6{fill:#9fe2a2;}.cls-7{fill:#dda812;}.cls-10{fill:#eaa859;}.cls-11{fill:#fff;}.cls-12{fill:#f50;}</style></defs><title>portland_characters</title><rect class="cls-1" x="96.58" y="139.65" width="81.43" height="135.35"/><polyline class="cls-2" points="96.58 139.29 187.06 139.29 141.82 94.05 60.39 94.05"/><polyline class="cls-1" points="33.25 121.19 33.25 274.8 96.58 274.8 96.58 121.19"/><rect class="cls-3" x="42.3" y="229.56" width="45.24" height="9.05"/><rect class="cls-3" x="42.3" y="166.43" width="45.24" height="9.05"/><rect class="cls-4" x="51.35" y="202.42" width="27.14" height="27.14"/><polygon class="cls-2" points="105.63 121.19 64.92 85 24.2 121.19 105.63 121.19"/><rect class="cls-2" x="114.68" y="193.37" width="45.24" height="63.33"/><rect class="cls-4" x="51.35" y="139.29" width="27.14" height="27.14"/><circle class="cls-3" cx="146.35" cy="234.08" r="4.52"/><rect class="cls-5" x="132.77" y="157.38" width="18.1" height="9.05"/><rect class="cls-5" x="141.82" y="148.33" width="18.1" height="9.05"/><rect class="cls-5" x="141.82" y="166.43" width="18.1" height="9.05"/><line class="cls-5" x1="132.77" y1="157.38" x2="123.73" y2="157.38"/><line class="cls-5" x1="141.82" y1="148.33" x2="132.77" y2="148.33"/><line class="cls-5" x1="159.92" y1="148.33" x2="168.96" y2="148.33"/><line class="cls-5" x1="159.92" y1="166.43" x2="168.96" y2="166.43"/><line class="cls-5" x1="141.82" y1="175.48" x2="132.77" y2="175.48"/><line class="cls-5" x1="132.77" y1="166.43" x2="123.73" y2="166.43"/><line class="cls-5" x1="159.92" y1="157.38" x2="168.96" y2="157.38"/><line class="cls-5" x1="159.92" y1="175.48" x2="168.96" y2="175.48"/><rect class="cls-3" x="105.63" y="256.7" width="63.33" height="9.05"/><rect class="cls-3" x="96.58" y="265.75" width="81.43" height="9.05"/><rect class="cls-4" x="123.73" y="202.42" width="27.14" height="18.1"/><path class="cls-6" d="M188.31,163.75h57.35a26.95,26.95,0,0,1,26.95,26.95V275a0,0,0,0,1,0,0H161.36a0,0,0,0,1,0,0V190.7A26.95,26.95,0,0,1,188.31,163.75Z"/><path class="cls-7" d="M215.67,232.72s-18.58-25.42-18.58-44-.34-25-.34-25h40.48s-.47,6.41-.47,25S215.67,232.72,215.67,232.72Z"/><line class="cls-8" x1="184.22" y1="201.69" x2="184.22" y2="275"/><line class="cls-8" x1="250.62" y1="201.69" x2="250.62" y2="275"/><path class="cls-9" d="M269.61,81.64a52.72,52.72,0,1,1-105.43,0Z"/><path class="cls-10" d="M200.49,152.53h32.77a0,0,0,0,1,0,0v13.8a16.39,16.39,0,0,1-16.39,16.39h0a16.39,16.39,0,0,1-16.39-16.39v-13.8A0,0,0,0,1,200.49,152.53Z"/><circle class="cls-10" cx="172.67" cy="105.56" r="12.56"/><circle class="cls-10" cx="261.95" cy="105.56" r="12.56"/><path class="cls-10" d="M262,119.1a44.64,44.64,0,1,1-89.28,0V96.78a44.64,44.64,0,1,1,89.28,0Z"/><path class="cls-8" d="M228.47,124.68a11.16,11.16,0,1,1-22.32,0"/><path class="cls-9" d="M275.8,83.9A58.91,58.91,0,0,0,158,83.9h44.48l13.35-10.48,14.4,10.48Z"/><path class="cls-11" d="M208.4,194c-10.13-8-16.53-17.82-17.47-30.28h9.56l15,18.42Z"/><path class="cls-11" d="M224.2,194c10.13-8,16.53-17.82,17.47-30.28H232.1l-15,18.42Z"/><line class="cls-8" x1="215.67" y1="232.72" x2="215.67" y2="275"/><circle class="cls-12" cx="206.27" cy="242.27" r="4.76"/><circle class="cls-9" cx="200.16" cy="102.36" r="6.28"/><circle class="cls-9" cx="234.45" cy="102.36" r="6.28"/><circle class="cls-11" cx="234.45" cy="101.15" r="4.22"/><circle class="cls-11" cx="200.16" cy="101.15" r="4.22"/><circle class="cls-12" cx="206.27" cy="261.97" r="4.76"/></svg>