<svg id="Layer_1" data-name="Layer 1" xmlns="http://www.w3.org/2000/svg" viewBox="0 0 300 300"><defs><style>.cls-1{fill:#a1d29d;}.cls-1,.cls-10,.cls-11,.cls-12,.cls-2,.cls-3,.cls-4,.cls-6,.cls-7,.cls-8,.cls-9{stroke:#000;}.cls-1,.cls-10,.cls-11,.cls-12,.cls-2,.cls-3,.cls-4,.cls-5,.cls-6,.cls-7,.cls-8,.cls-9{stroke-miterlimit:10;stroke-width:3px;}.cls-2{fill:#ef5722;}.cls-3{fill:#daa725;}.cls-4{fill:#eeadcd;}.cls-5,.cls-7{fill:none;}.cls-5{stroke:#211e20;}.cls-6{fill:#dda812;}.cls-8{fill:#ffaee4;}.cls-9{fill:#bf7c25;}.cls-11{fill:#fff;}.cls-12{fill:#f50;}</style></defs><title>portland_characters</title><rect class="cls-1" x="94.79" y="139.65" width="81.43" height="135.35"/><polyline class="cls-2" points="94.78 139.29 185.26 139.29 140.02 94.05 58.59 94.05"/><polyline class="cls-1" points="31.45 121.19 31.45 274.8 94.78 274.8 94.78 121.19"/><rect class="cls-3" x="40.5" y="229.56" width="45.24" height="9.05"/><rect class="cls-3" x="40.5" y="166.43" width="45.24" height="9.05"/><rect class="cls-4" x="49.55" y="202.42" width="27.14" height="27.14"/><polygon class="cls-2" points="103.83 121.19 63.12 85 22.41 121.19 103.83 121.19"/><rect class="cls-2" x="112.88" y="193.37" width="45.24" height="63.33"/><rect class="cls-4" x="49.55" y="139.29" width="27.14" height="27.14"/><circle class="cls-3" cx="144.55" cy="234.08" r="4.52"/><rect class="cls-5" x="130.98" y="157.38" width="18.1" height="9.05"/><rect class="cls-5" x="140.02" y="148.33" width="18.1" height="9.05"/><rect class="cls-5" x="140.02" y="166.43" width="18.1" height="9.05"/><line class="cls-5" x1="130.98" y1="157.38" x2="121.93" y2="157.38"/><line class="cls-5" x1="140.02" y1="148.33" x2="130.98" y2="148.33"/><line class="cls-5" x1="158.12" y1="148.33" x2="167.17" y2="148.33"/><line class="cls-5" x1="158.12" y1="166.43" x2="167.17" y2="166.43"/><line class="cls-5" x1="140.02" y1="175.48" x2="130.98" y2="175.48"/><line class="cls-5" x1="130.98" y1="166.43" x2="121.93" y2="166.43"/><line class="cls-5" x1="158.12" y1="157.38" x2="167.17" y2="157.38"/><line class="cls-5" x1="158.12" y1="175.48" x2="167.17" y2="175.48"/><rect class="cls-3" x="103.83" y="256.7" width="63.33" height="9.05"/><rect class="cls-3" x="94.79" y="265.75" width="81.43" height="9.05"/><rect class="cls-4" x="121.93" y="202.42" width="27.14" height="18.1"/><rect class="cls-6" x="191.2" y="165.96" width="50.51" height="109.04"/><path class="cls-6" d="M187.31,155.88h61.3a28.8,28.8,0,0,1,28.8,28.8v90.1a0,0,0,0,1,0,0H158.51a0,0,0,0,1,0,0v-90.1A28.8,28.8,0,0,1,187.31,155.88Z"/><line class="cls-7" x1="182.47" y1="199.2" x2="182.47" y2="274.78"/><line class="cls-7" x1="253.44" y1="199.2" x2="253.44" y2="274.78"/><path class="cls-8" d="M200.91,142.05h35a0,0,0,0,1,0,0V156.8a17.51,17.51,0,0,1-17.51,17.51h0a17.51,17.51,0,0,1-17.51-17.51V142.05a0,0,0,0,1,0,0Z"/><circle class="cls-9" cx="170.25" cy="96.24" r="11.93"/><circle class="cls-9" cx="265.67" cy="96.24" r="11.93"/><path class="cls-9" d="M265.67,108.17a47.71,47.71,0,1,1-95.42,0V84.32a47.71,47.71,0,1,1,95.42,0Z"/><path class="cls-7" d="M229.89,114.13a11.93,11.93,0,1,1-23.86,0"/><rect class="cls-10" x="170.25" y="60.46" width="11.93" height="35.78"/><circle class="cls-10" cx="201.67" cy="90.28" r="5.96"/><circle class="cls-10" cx="234.25" cy="90.28" r="5.96"/><circle class="cls-11" cx="234.25" cy="89.13" r="4.01"/><circle class="cls-11" cx="201.67" cy="89.13" r="4.01"/><path class="cls-11" d="M228.88,275H208V190.81L195.7,155.88l46-.34-12.83,35.27Z"/><polygon class="cls-12" points="224.18 188.43 212.06 188.43 206.9 171.15 212.06 166 224.18 166 229.33 171.15 224.18 188.43"/><polygon class="cls-12" points="230.55 254.51 218.12 260.57 205.69 254.51 211.75 188.43 224.48 188.43 230.55 254.51"/><polygon class="cls-9" points="199.54 166.77 195.7 155.88 241.71 155.54 237.9 166 199.54 166.77"/><polyline class="cls-6" points="193.98 152.88 181.15 156.57 188.6 161.86 180.05 169.13 207.96 223.83"/><polyline class="cls-6" points="242.94 152.88 255.77 156.57 248.32 161.86 256.87 169.13 228.96 223.83"/><polygon class="cls-11" points="208.71 177.32 190.94 157.43 194.76 151.39 216.44 165.13 208.71 177.32"/><polygon class="cls-11" points="227.53 177.32 245.3 157.43 241.47 151.39 219.8 165.13 227.53 177.32"/><path class="cls-10" d="M253.87,36.61c-14.9-10.3-39.19-15-57.7-8.85a59.53,59.53,0,0,0-37.72,37.71A59.55,59.55,0,0,0,211.26,73c11.51-3.84,23-10.35,31.36-18.86a23.92,23.92,0,0,0,11.25,15V96.24H265.8V48.54A11.93,11.93,0,0,0,253.87,36.61Z"/><line class="cls-7" x1="191.83" y1="87.86" x2="186.54" y2="86"/><line class="cls-7" x1="191.71" y1="92.12" x2="186.66" y2="94.56"/><line class="cls-7" x1="244.26" y1="87.86" x2="249.56" y2="86"/><line class="cls-7" x1="244.38" y1="92.12" x2="249.44" y2="94.56"/><path class="cls-10" d="M204.12,110A6.94,6.94,0,0,1,218,110Z"/><path class="cls-10" d="M217.93,110a6.93,6.93,0,1,1,13.86,0Z"/></svg>