<svg id="Layer_1" data-name="Layer 1" xmlns="http://www.w3.org/2000/svg" viewBox="0 0 300 300"><defs><style>.cls-1{fill:#eeadcd;}.cls-1,.cls-10,.cls-11,.cls-12,.cls-13,.cls-2,.cls-3,.cls-4,.cls-6,.cls-7,.cls-8,.cls-9{stroke:#000;}.cls-1,.cls-10,.cls-11,.cls-12,.cls-13,.cls-2,.cls-3,.cls-4,.cls-5,.cls-6,.cls-7,.cls-8,.cls-9{stroke-miterlimit:10;stroke-width:3px;}.cls-2{fill:#daa725;}.cls-3{fill:#a1d29d;}.cls-4{fill:#ef5722;}.cls-5,.cls-9{fill:none;}.cls-5{stroke:#211e20;}.cls-6{fill:#dda812;}.cls-7{fill:#8c6150;}.cls-8{fill:#f50;}.cls-10{fill:#ffaee4;}.cls-12{fill:#fff;}.cls-13{fill:#9fe2a2;}</style></defs><title>portland_characters</title><rect class="cls-1" x="96.15" y="139.65" width="81.43" height="135.35"/><polyline class="cls-2" points="96.15 139.29 186.62 139.29 141.38 94.05 59.96 94.05"/><polyline class="cls-1" points="32.81 121.19 32.81 274.8 96.15 274.8 96.15 121.19"/><rect class="cls-3" x="41.86" y="229.56" width="45.24" height="9.05"/><rect class="cls-3" x="41.86" y="166.43" width="45.24" height="9.05"/><rect class="cls-4" x="50.91" y="202.42" width="27.14" height="27.14"/><polygon class="cls-2" points="105.19 121.19 64.48 85 23.77 121.19 105.19 121.19"/><rect class="cls-2" x="114.24" y="193.37" width="45.24" height="63.33"/><rect class="cls-4" x="50.91" y="139.29" width="27.14" height="27.14"/><circle class="cls-3" cx="145.91" cy="234.08" r="4.52"/><rect class="cls-5" x="132.34" y="157.38" width="18.1" height="9.05"/><rect class="cls-5" x="141.38" y="148.33" width="18.1" height="9.05"/><rect class="cls-5" x="141.38" y="166.43" width="18.1" height="9.05"/><line class="cls-5" x1="132.34" y1="157.38" x2="123.29" y2="157.38"/><line class="cls-5" x1="141.38" y1="148.33" x2="132.34" y2="148.33"/><line class="cls-5" x1="159.48" y1="148.33" x2="168.53" y2="148.33"/><line class="cls-5" x1="159.48" y1="166.43" x2="168.53" y2="166.43"/><line class="cls-5" x1="141.38" y1="175.48" x2="132.34" y2="175.48"/><line class="cls-5" x1="132.34" y1="166.43" x2="123.29" y2="166.43"/><line class="cls-5" x1="159.48" y1="157.38" x2="168.53" y2="157.38"/><line class="cls-5" x1="159.48" y1="175.48" x2="168.53" y2="175.48"/><rect class="cls-3" x="105.19" y="256.7" width="63.33" height="9.05"/><rect class="cls-3" x="96.15" y="265.75" width="81.43" height="9.05"/><rect class="cls-4" x="123.29" y="202.42" width="27.14" height="18.1"/><path class="cls-6" d="M275,178.49V81.77a56.77,56.77,0,1,0-113.53,0v96.72Z"/><path class="cls-7" d="M264.65,112.77a46.46,46.46,0,0,1-92.91,0V89.54a46.46,46.46,0,0,1,92.91,0Z"/><path class="cls-8" d="M188.36,159.23H248a28,28,0,0,1,28,28V275a0,0,0,0,1,0,0H160.31a0,0,0,0,1,0,0V187.27A28,28,0,0,1,188.36,159.23Z"/><line class="cls-9" x1="184.25" y1="198.71" x2="184.25" y2="275"/><line class="cls-9" x1="252.29" y1="198.71" x2="252.29" y2="275"/><path class="cls-7" d="M201.15,147.56h34.1a0,0,0,0,1,0,0v14.36A17.05,17.05,0,0,1,218.2,179h0a17.05,17.05,0,0,1-17.05-17.05V147.56a0,0,0,0,1,0,0Z"/><path class="cls-6" d="M275,87.47s-10.31,71.76-56.76,89.15c0,0,7,10.65,57.89,10.65L275,87.47"/><path class="cls-10" d="M275.54,138.69l-2-.61c-.11.36-11.61,36.25-40.85,44.3l.26,1a114.4,114.4,0,0,0,13.2,2.34c9.4-5.13,17.84-13.22,24.8-23.9,1.83-2.8,3.39-5.52,4.71-8Z"/><path class="cls-6" d="M161.43,81.77s-1.12,108.05,114.66,105.5c0,0-9.37,55.84-57.89,55.84s-57.89-53.29-57.89-53.29Z"/><path class="cls-7" d="M264.65,112.77a46.46,46.46,0,0,1-92.91,0V89.54a46.46,46.46,0,0,1,92.91,0Z"/><path class="cls-9" d="M229.81,118.58a11.62,11.62,0,0,1-23.23,0"/><path class="cls-8" d="M218.2,76.87a106.22,106.22,0,0,1,46.4,10.6,46.45,46.45,0,0,0-92.8,0A106.19,106.19,0,0,1,218.2,76.87Z"/><circle class="cls-11" cx="201.4" cy="94.66" r="6.53"/><circle class="cls-11" cx="237.08" cy="94.66" r="6.53"/><circle class="cls-12" cx="237.08" cy="93.4" r="4.39"/><circle class="cls-12" cx="201.4" cy="93.4" r="4.39"/><rect class="cls-7" x="160.31" y="251.06" width="23.94" height="23.94"/><rect class="cls-7" x="252.29" y="251.06" width="23.94" height="23.94"/><path class="cls-8" d="M275.91,171.5l-.24-.15a37.75,37.75,0,0,1-17.24,15.29l.05.14c4.29.26,9,.42,14.28.47,1.08-.92,2.19-1.94,3.29-3.07Z"/><path class="cls-13" d="M268.65,209.1c-32.13-.95-60.23-12.57-83.58-34.58a137.81,137.81,0,0,1-24.28-30.44l-.15,14.39a147.76,147.76,0,0,0,18.76,21.58,133.34,133.34,0,0,0,84.91,36.79A80.93,80.93,0,0,0,268.65,209.1Z"/><path class="cls-8" d="M187.72,204.9a143.53,143.53,0,0,1-27.26-29.57l-.14,13.13a150.78,150.78,0,0,0,22.23,22.45c19.25,15.61,40.1,23.58,61.25,23.58,1.3,0,2.6,0,3.89-.1a55,55,0,0,0,10.3-9.13C233.71,229.82,210.1,223,187.72,204.9Z"/></svg>