<svg xmlns="http://www.w3.org/2000/svg" xmlns:xlink="http://www.w3.org/1999/xlink" width="320" height="542" viewBox="0 0 320 542">
    <defs>
        <path id="a" d="M.524 0h6.981v5.111H.524z"/>
        <path id="c" d="M.524 0h6.981v5.112H.524z"/>
        <path id="e" d="M.088 0H6.49v4.19H.088z"/>
        <path id="g" d="M.088 0h6.404v4.19H.088z"/>
        <path id="i" d="M.08 0h4.89v1.565H.08z"/>
        <path id="k" d="M.08 0h4.89v1.565H.08z"/>
        <path id="m" d="M.026 0h6.047v.538H.026z"/>
        <path id="o" d="M.025 0h6.048v.538H.025z"/>
        <path id="q" d="M.361 0H6.63v5.923H.36z"/>
        <path id="s" d="M.448 0h11.489v13.47H.448z"/>
        <path id="u" d="M.448 0h11.488v13.47H.448z"/>
        <path id="w" d="M.32 0h16.267v5.805H.32z"/>
        <path id="y" d="M.32 0h16.267v5.805H.32z"/>
        <path id="A" d="M.042 0h8.055v6.978H.042z"/>
        <path id="C" d="M.016 0H8.76v8.43H.016z"/>
        <path id="E" d="M.016 0H8.76v8.43H.016z"/>
        <path id="G" d="M.568 0h5.205v4.366H.568z"/>
        <path id="I" d="M.452 0H2.38v.107H.452z"/>
    </defs>
    <g fill="none" fill-rule="evenodd">
        <path fill="#F50" d="M13 220.044L8.044 217 5 221.956 9.956 225z"/>
        <path fill="#F50" d="M5 221.956L8.044 217 13 220.044 9.956 225zM12.312 209L12 213.688l4.688.312.312-4.688z"/>
        <path fill="#F50" d="M16.688 214L12 213.688l.312-4.688 4.688.312zM59 225.771L54.771 225 54 229.229l4.228.771z"/>
        <path fill="#F50" d="M54 229.229l.771-4.229 4.229.771-.771 4.229zM98.445 170l.555-2.445-2.445-.555-.555 2.445z"/>
        <path fill="#F50" d="M96.555 167l2.445.555-.555 2.445-2.445-.555zM128 200.106l2.105 3.894 3.895-2.106-2.106-3.894z"/>
        <path fill="#F50" d="M134 201.894L130.106 204 128 200.106l3.895-2.106zM174 125.446l-.554-2.446-2.446.554.554 2.446z"/>
        <path fill="#F50" d="M171 123.554l2.446-.554.554 2.446-2.446.554zM205.438 238l-.438 1.562 1.562.438.438-1.562z"/>
        <path fill="#F50" d="M206.562 240l-1.562-.438.438-1.562 1.562.438zM224.755 237l-2.755.245.245 2.755 2.755-.245z"/>
        <path fill="#F50" d="M222.245 240l-.245-2.755 2.755-.245.245 2.755zM251 173.086L247.086 172 246 175.915l3.914 1.085z"/>
        <path fill="#F50" d="M246 175.914l1.086-3.914 3.914 1.086-1.086 3.914zM269.777 226l-5.777.223.223 5.777 5.777-.223z"/>
        <path fill="#F50" d="M264.223 232l-.223-5.776 5.777-.224.223 5.777zM284.086 142L283 143.914l1.914 1.086 1.086-1.914z"/>
        <path fill="#F50" d="M284.914 145L283 143.914l1.086-1.914 1.914 1.086z"/>
        <path fill="#DDA812" d="M122.4 313.283a3.486 3.486 0 0 1 3.427-3.543 3.486 3.486 0 0 1 3.549 3.422 3.485 3.485 0 0 1-3.427 3.542 3.486 3.486 0 0 1-3.55-3.421M12.113 167.481a3.065 3.065 0 0 1 3.013-3.115 3.065 3.065 0 0 1 3.12 3.008 3.064 3.064 0 0 1-3.013 3.115 3.065 3.065 0 0 1-3.12-3.008M39.899 182.166a3.487 3.487 0 0 1 3.429-3.545 3.488 3.488 0 0 1 3.551 3.423 3.487 3.487 0 0 1-3.43 3.545 3.487 3.487 0 0 1-3.55-3.423M53.228 234.695a1.27 1.27 0 0 1 1.249-1.29 1.27 1.27 0 1 1 .045 2.537 1.27 1.27 0 0 1-1.294-1.247M121.385 223.676a3.13 3.13 0 0 1 3.078-3.182 3.131 3.131 0 0 1 3.19 3.073 3.132 3.132 0 0 1-3.08 3.183 3.132 3.132 0 0 1-3.188-3.074M165.103 236.489a3.099 3.099 0 0 1 3.047-3.15 3.1 3.1 0 0 1 3.156 3.041 3.099 3.099 0 0 1-3.048 3.15 3.099 3.099 0 0 1-3.155-3.041M243.633 212.932a1.308 1.308 0 0 1 2.618-.046 1.308 1.308 0 0 1-2.618.046M287.47 257.732a4.024 4.024 0 0 1 3.957-4.09 4.024 4.024 0 0 1 4.097 3.95 4.024 4.024 0 0 1-3.957 4.09 4.025 4.025 0 0 1-4.097-3.95"/>
        <path fill="#9FE2A2" d="M28.199 247.37l-2.981-.994-2.328 6.957 2.98.994z"/>
        <path fill="#9FE2A2" d="M25.218 246.376l2.98.994-2.328 6.957-2.98-.995zM46.641 264.528l-4.619-3.106-7.274 10.781 4.62 3.106z"/>
        <path fill="#9FE2A2" d="M42.022 261.422l4.62 3.105-7.275 10.782-4.619-3.106zM78.531 306.057l-4.667-2.81-6.581 10.892 4.667 2.81z"/>
        <path fill="#9FE2A2" d="M73.864 303.247l4.667 2.81-6.581 10.892-4.667-2.81zM89.07 174.526l-2.395 1.412 3.308 5.588 2.394-1.413z"/>
        <path fill="#9FE2A2" d="M86.675 175.938l2.394-1.412 3.308 5.587-2.394 1.413zM139.42 177.111l-4.126.648 1.518 9.632 4.126-.648z"/>
        <path fill="#9FE2A2" d="M135.294 177.759l4.127-.648 1.517 9.632-4.126.648zM171.44 258.827l3.076 4.322 10.123-7.18-3.076-4.323z"/>
        <path fill="#9FE2A2" d="M174.516 263.15l-3.077-4.323 10.124-7.181 3.077 4.322zM211.666 246.39l-1.368-3.29-7.708 3.191 1.368 3.29z"/>
        <path fill="#9FE2A2" d="M210.298 243.1l1.368 3.29-7.708 3.192-1.368-3.291zM235.56 229.047l-1.178-1.584-3.71 2.746 1.177 1.584z"/>
        <path fill="#9FE2A2" d="M234.383 227.462l1.176 1.585-3.71 2.746-1.177-1.584zM251.033 181.276l2.099 3.647 8.542-4.899-2.099-3.647z"/>
        <path fill="#9FE2A2" d="M253.132 184.923l-2.1-3.647 8.543-4.899 2.1 3.647zM273.303 278.412l-1.544 2.854 6.684 3.605 1.545-2.854z"/>
        <path fill="#9FE2A2" d="M271.76 281.266l1.543-2.854 6.685 3.605-1.545 2.854z"/>
        <path fill="#FFAEE4" d="M7.21 205.71l-4.435 2.4 5.621 10.354 4.436-2.4z"/>
        <path fill="#FFAEE4" d="M2.774 208.11l4.436-2.4 5.622 10.354-4.436 2.4zM69.632 323.835l-.126 1.902 4.454.295.127-1.902z"/>
        <path fill="#FFAEE4" d="M69.506 325.736l.126-1.901 4.454.295-.126 1.901zM62.322 247.507l-2.093-.326-.764 4.885 2.094.327z"/>
        <path fill="#FFAEE4" d="M60.23 247.181l2.092.326-.764 4.885-2.093-.325zM72.975 236.44l-.506 2.356 5.519 1.18.505-2.355z"/>
        <path fill="#FFAEE4" d="M72.47 238.796l.506-2.356 5.517 1.181-.506 2.356zM94.136 215.549l-5.394-2.602-6.094 12.59 5.394 2.601z"/>
        <path fill="#FFAEE4" d="M88.742 212.947l5.394 2.602-6.094 12.59-5.394-2.602zM129.843 251.473l-2.213 5.009 11.73 5.164 2.214-5.008z"/>
        <path fill="#FFAEE4" d="M127.63 256.482l2.213-5.009 11.73 5.165-2.212 5.009zM135.277 207.567l-2.236-4.82-11.292 5.219 2.236 4.821z"/>
        <path fill="#FFAEE4" d="M133.04 202.746l2.236 4.821-11.29 5.22-2.238-4.821zM154.414 226.242l-3.079-5.631-13.188 7.185 3.079 5.631z"/>
        <path fill="#FFAEE4" d="M151.335 220.61l3.079 5.632-13.188 7.185-3.08-5.632zM180.927 178.375l-2.504.034.079 5.844 2.504-.033z"/>
        <path fill="#FFAEE4" d="M178.423 178.409l2.505-.034.078 5.845-2.504.034zM257.917 248.902l-3.229-.799-1.87 7.538 3.23.798z"/>
        <path fill="#FFAEE4" d="M254.688 248.104l3.23.798-1.87 7.537-3.23-.798zM254.408 132.528l-4.252-2.11-4.945 9.923 4.252 2.112z"/>
        <path fill="#FFAEE4" d="M250.156 130.417l4.252 2.111-4.945 9.925-4.253-2.112zM310.951 185.786l-3.074-2.916-6.83 7.175 3.075 2.916z"/>
        <path fill="#FFAEE4" d="M307.877 182.87l3.074 2.916-6.829 7.175-3.074-2.916zM333.052 149.478l-1.175-5.766-13.505 2.742 1.174 5.766z"/>
        <path fill="#FFAEE4" d="M331.877 143.712l1.175 5.766-13.506 2.742-1.174-5.766z"/>
        <path fill="#DDA812" d="M21.844 144.997l-5 1.346 3.154 11.67 5-1.347z"/>
        <path fill="#DDA812" d="M16.844 146.344l5-1.347 3.154 11.67-5 1.346zM77.851 122.534l-1.908-1.077-2.522 4.455 1.908 1.077z"/>
        <path fill="#DDA812" d="M75.943 121.458l1.908 1.077-2.522 4.454-1.909-1.077zM94.821 177.78l-2.557-2.44-5.713 5.968 2.556 2.44z"/>
        <path fill="#DDA812" d="M92.264 175.34l2.557 2.44-5.714 5.968-2.556-2.44zM145.031 134.948l-.157-5.88-13.77.368.157 5.879z"/>
        <path fill="#DDA812" d="M144.874 129.068l.157 5.88-13.77.367-.157-5.88zM131.578 232.71l-1.345-2.607-6.107 3.14 1.346 2.607z"/>
        <path fill="#DDA812" d="M130.233 230.103l1.345 2.608-6.106 3.139-1.346-2.607zM170.45 212.001l-1.296-2.85-6.674 3.024 1.295 2.85z"/>
        <path fill="#DDA812" d="M169.154 209.152l1.295 2.849-6.674 3.024-1.295-2.85zM203.009 200.644l-1.957-5.421-12.697 4.566 1.956 5.42z"/>
        <path fill="#DDA812" d="M201.052 195.223l1.957 5.421-12.698 4.566-1.956-5.421zM172.698 272.339l-.015 2.027 4.748.037.015-2.028z"/>
        <path fill="#DDA812" d="M172.683 274.366l.015-2.027 4.748.036-.015 2.028zM221.903 176.638l-3.377 5.105 11.957 7.882 3.377-5.105z"/>
        <path fill="#DDA812" d="M218.526 181.743l3.378-5.105 11.957 7.882-3.377 5.106zM232.266 242.974l-4.943-.414-.968 11.536 4.943.413z"/>
        <path fill="#DDA812" d="M227.324 242.56l4.942.413-.968 11.536-4.943-.413zM229.894 272.48l-3.961 1.143 2.678 9.244 3.96-1.144z"/>
        <path fill="#DDA812" d="M225.933 273.623l3.96-1.143 2.679 9.243-3.96 1.144zM237.527 289.004l-.325-3.276-7.674.76.325 3.276z"/>
        <path fill="#DDA812" d="M237.202 285.728l.325 3.276-7.673.76-.326-3.277zM278.593 254.115l-.843 4.788 11.213 1.968.843-4.787z"/>
        <path fill="#DDA812" d="M277.75 258.903l.843-4.788 11.213 1.969-.843 4.787zM277.164 310.147l-4.032-3.257-7.628 9.408 4.032 3.257z"/>
        <path fill="#DDA812" d="M273.133 306.89l4.031 3.256-7.628 9.41-4.031-3.258zM323.632 309.909l-4.416 2.426 5.682 10.308 4.417-2.426z"/>
        <path fill="#DDA812" d="M319.215 312.335l4.417-2.426 5.683 10.308-4.417 2.427z"/>
        <path fill="#F50" d="M93.51 130.356a3.486 3.486 0 0 1-3.428 3.543 3.486 3.486 0 0 1-3.549-3.421 3.486 3.486 0 0 1 3.427-3.543 3.486 3.486 0 0 1 3.55 3.421M301.168 324.12a3.064 3.064 0 0 1-3.013 3.116 3.065 3.065 0 0 1-3.12-3.008 3.064 3.064 0 0 1 3.013-3.115 3.065 3.065 0 0 1 3.12 3.008M273.383 309.436a3.488 3.488 0 0 1-3.43 3.545 3.488 3.488 0 0 1-3.551-3.424 3.487 3.487 0 0 1 3.43-3.545 3.487 3.487 0 0 1 3.55 3.424M260.053 256.906a1.27 1.27 0 0 1-2.542.045 1.27 1.27 0 1 1 2.542-.045M191.897 267.925a3.13 3.13 0 0 1-3.08 3.183 3.13 3.13 0 0 1-3.188-3.073 3.13 3.13 0 0 1 3.08-3.183 3.131 3.131 0 0 1 3.188 3.073M148.178 255.113a3.098 3.098 0 0 1-3.047 3.15 3.1 3.1 0 0 1-3.155-3.042 3.099 3.099 0 0 1 3.047-3.15 3.098 3.098 0 0 1 3.155 3.042M69.648 278.67a1.308 1.308 0 0 1-2.617.045 1.308 1.308 0 0 1 2.617-.045M47.416 223.389a4.024 4.024 0 0 1-3.957 4.09 4.024 4.024 0 0 1-4.097-3.95 4.024 4.024 0 0 1 3.957-4.09 4.025 4.025 0 0 1 4.097 3.95"/>
        <path fill="#9FE2A2" d="M307.23 123.148l-3.853-1.227-1.23 3.846 3.854 1.228z"/>
        <path fill="#9FE2A2" d="M302.147 125.768l1.23-3.847 3.853 1.227-1.23 3.847zM316.691 241.272l-4.188-3.733-3.74 4.18 4.188 3.735z"/>
        <path fill="#9FE2A2" d="M308.762 241.72l3.741-4.181 4.189 3.733-3.74 4.182zM292.369 136.376l-2.687 5.992 6.002 2.682 2.687-5.991z"/>
        <path fill="#9FE2A2" d="M295.684 145.05l-6.002-2.682 2.687-5.991 6.002 2.682zM283.748 115.07l-1.493-2.82-2.825 1.49 1.493 2.82z"/>
        <path fill="#9FE2A2" d="M279.43 113.74l2.825-1.49 1.493 2.82-2.825 1.49zM239.2 123.668l3.637 2.385 2.388-3.632-3.637-2.384z"/>
        <path fill="#9FE2A2" d="M245.225 122.421l-2.388 3.631-3.637-2.384 2.388-3.63zM227.237 205.136l-5.817.49.492 5.806 5.816-.49z"/>
        <path fill="#9FE2A2" d="M221.912 211.432l-.492-5.807 5.817-.49.49 5.807zM164.645 144.836l-3.156-3.82-3.825 3.152 3.156 3.819z"/>
        <path fill="#9FE2A2" d="M157.664 144.168l3.825-3.15 3.156 3.818-3.825 3.15zM120.5 147.065l1.121-5.271-5.28-1.12-1.122 5.272z"/>
        <path fill="#9FE2A2" d="M116.34 140.674l5.282 1.12-1.122 5.272-5.281-1.12zM125.976 232.377l-5.372.682.683 5.364 5.372-.682z"/>
        <path fill="#9FE2A2" d="M121.287 238.423l-.683-5.363 5.372-.682.684 5.363zM74.278 176.706l-3.009.874.876 3.004 3.008-.874z"/>
        <path fill="#9FE2A2" d="M72.145 180.583l-.876-3.003 3.009-.874.875 3.003zM71.279 269.145l.823-1.867-1.87-.822-.824 1.867z"/>
        <path fill="#9FE2A2" d="M70.232 266.456l1.87.822-.823 1.868-1.87-.823zM44.551 219.799l1.817 6.913 6.925-1.813-1.816-6.914z"/>
        <path fill="#9FE2A2" d="M53.293 224.899l-6.925 1.813-1.817-6.913 6.926-1.814z"/>
        <path fill="#FFAEE4" d="M22.75 202.33a3.79 3.79 0 0 1 3.726-3.852 3.79 3.79 0 0 1 3.859 3.72 3.79 3.79 0 0 1-3.727 3.852 3.79 3.79 0 0 1-3.858-3.72M60.06 187.52a3.209 3.209 0 0 1 3.154-3.261 3.21 3.21 0 0 1 3.268 3.15 3.208 3.208 0 0 1-3.155 3.262 3.21 3.21 0 0 1-3.268-3.15M95.093 149.85a3.742 3.742 0 0 1 3.68-3.802 3.742 3.742 0 0 1 3.81 3.672 3.741 3.741 0 0 1-3.68 3.804 3.742 3.742 0 0 1-3.81-3.673M131.867 218.494a1.712 1.712 0 0 1 1.683-1.74 1.711 1.711 0 0 1 .06 3.42 1.712 1.712 0 0 1-1.743-1.68M188.808 224.692a2.6 2.6 0 0 1 2.557-2.642 2.6 2.6 0 0 1 2.647 2.551 2.6 2.6 0 0 1-2.557 2.643 2.6 2.6 0 0 1-2.647-2.552M187.346 289l-7.576.131.132 7.564 7.576-.132z"/>
        <path fill="#FFAEE4" d="M179.836 292.913a3.785 3.785 0 0 1 3.722-3.847 3.786 3.786 0 0 1 3.854 3.715 3.785 3.785 0 0 1-3.722 3.848 3.786 3.786 0 0 1-3.854-3.716M245.479 227.288a.963.963 0 1 1 1.926-.031.963.963 0 0 1-1.926.03M265.813 333.492a2.847 2.847 0 0 1 2.799-2.893 2.847 2.847 0 0 1 2.898 2.794 2.846 2.846 0 0 1-2.799 2.894 2.847 2.847 0 0 1-2.898-2.795"/>
        <path fill="#F50" d="M304.383 43.82l2.033 2.819-2.824 2.029-2.033-2.819z"/>
        <path fill="#F50" d="M303.592 48.668l2.824-2.029-2.033-2.819-2.824 2.03zM284.037 41.74l2.623-6.82 6.832 2.619-2.624 6.819z"/>
        <path fill="#F50" d="M293.492 37.539l-6.832-2.619-2.623 6.82 6.831 2.618zM257.164 77.22l5.331-3.268 3.275 5.322-5.332 3.27z"/>
        <path fill="#F50" d="M265.77 79.274l-3.275-5.322-5.331 3.269 3.274 5.322zM257.946 65.603l.286 4.308-4.315.286-.287-4.307z"/>
        <path fill="#F50" d="M253.917 70.197l4.316-.286-.287-4.308-4.315.287zM211.77 82.73l4.136-.754.755 4.13-4.136.752z"/>
        <path fill="#F50" d="M216.66 86.105l-.754-4.129-4.136.753.755 4.13zM172.763 26.718l-.625-2.751 2.756-.625.625 2.752z"/>
        <path fill="#F50" d="M174.894 23.342l-2.756.624.625 2.751 2.756-.624zM143.254 55.826l-1.867 3.447-3.453-1.864 1.867-3.447z"/>
        <path fill="#F50" d="M137.934 57.409l3.453 1.864 1.867-3.447-3.453-1.864zM65.784 93.861l.602 2.143-2.147.6-.601-2.142z"/>
        <path fill="#F50" d="M64.24 96.605l2.146-.601-.601-2.143-2.148.6zM44.623 93.264l3.65.323-.324 3.644-3.65-.323z"/>
        <path fill="#F50" d="M47.95 97.231l.323-3.644-3.65-.323-.324 3.644zM20.241 29.537l3.468-.96.962 3.461-3.468.96z"/>
        <path fill="#F50" d="M24.67 32.038l-.961-3.462-3.468.96.962 3.462zM.55 83.002l5.822.225-.224 5.812-5.823-.224z"/>
        <path fill="#F50" d="M6.148 89.039l.225-5.812-5.823-.225-.225 5.812z"/>
        <path fill="#DDA812" d="M311.703 137.599a2.23 2.23 0 0 0-2.193-2.267 2.23 2.23 0 0 0-2.271 2.189 2.23 2.23 0 0 0 2.193 2.267 2.23 2.23 0 0 0 2.27-2.19M148.147 170.408a3.486 3.486 0 0 0-3.427-3.543 3.487 3.487 0 0 0-3.55 3.421 3.485 3.485 0 0 0 3.428 3.543 3.486 3.486 0 0 0 3.55-3.421M258.434 24.606a3.065 3.065 0 0 0-3.013-3.115 3.065 3.065 0 0 0-3.12 3.008 3.064 3.064 0 0 0 3.012 3.115 3.065 3.065 0 0 0 3.12-3.008M230.648 39.29a3.488 3.488 0 0 0-3.43-3.544 3.488 3.488 0 0 0-3.55 3.423 3.487 3.487 0 0 0 3.429 3.545 3.487 3.487 0 0 0 3.551-3.423M217.318 91.82a1.27 1.27 0 0 0-1.248-1.29 1.27 1.27 0 1 0-.045 2.537 1.27 1.27 0 0 0 1.293-1.247M149.162 80.801a3.131 3.131 0 0 0-3.08-3.182 3.13 3.13 0 0 0-3.187 3.073 3.131 3.131 0 0 0 3.078 3.183 3.132 3.132 0 0 0 3.19-3.074M105.443 93.614a3.098 3.098 0 0 0-3.046-3.15 3.1 3.1 0 0 0-3.156 3.041 3.099 3.099 0 0 0 3.047 3.15 3.099 3.099 0 0 0 3.155-3.041M26.913 70.057a1.308 1.308 0 0 0-2.617-.046 1.308 1.308 0 0 0 1.286 1.33 1.307 1.307 0 0 0 1.331-1.284"/>
        <path fill="#9FE2A2" d="M328.576 29.472l1.128 5.92-13.865 2.635-1.13-5.92z"/>
        <path fill="#9FE2A2" d="M329.704 35.393l-1.129-5.92-13.865 2.633 1.128 5.92zM310.802 140.7l1.642-1.585 3.711 3.83-1.64 1.586z"/>
        <path fill="#9FE2A2" d="M312.444 139.115l-1.642 1.585 3.712 3.83 1.641-1.584zM303.747 53.02l4.508 2.922-6.844 10.521-4.508-2.922z"/>
        <path fill="#9FE2A2" d="M308.255 55.942l-4.508-2.922-6.844 10.52 4.508 2.923zM291.697 138.17l4.685.35-.82 10.934-4.684-.35z"/>
        <path fill="#9FE2A2" d="M296.382 138.52l-4.685-.35-.82 10.934 4.686.35zM242.348 104.495l2.98-.994 2.329 6.957-2.98.994z"/>
        <path fill="#9FE2A2" d="M245.329 103.501l-2.981.994 2.329 6.957 2.98-.995zM223.905 121.652l4.62-3.105 7.273 10.781-4.619 3.106z"/>
        <path fill="#9FE2A2" d="M228.525 118.547l-4.62 3.105 7.274 10.782 4.62-3.106zM192.015 163.182l4.668-2.81 6.58 10.892-4.666 2.81z"/>
        <path fill="#9FE2A2" d="M196.683 160.372l-4.668 2.81 6.582 10.892 4.666-2.81zM181.477 31.65l2.395 1.412-3.308 5.589-2.394-1.413z"/>
        <path fill="#9FE2A2" d="M183.871 33.063l-2.394-1.412-3.307 5.587 2.394 1.412zM131.126 34.236l4.127.648-1.517 9.631-4.127-.647z"/>
        <path fill="#9FE2A2" d="M135.253 34.884l-4.127-.648-1.517 9.632 4.127.647zM99.107 115.952l-3.077 4.322-10.123-7.18 3.076-4.323z"/>
        <path fill="#9FE2A2" d="M96.03 120.274l3.077-4.323-10.123-7.18-3.077 4.322zM58.881 103.515l1.367-3.29 7.708 3.19-1.367 3.292z"/>
        <path fill="#9FE2A2" d="M60.248 100.224l-1.367 3.291 7.708 3.192 1.367-3.291zM34.987 86.172l1.177-1.585 3.71 2.747-1.176 1.584z"/>
        <path fill="#9FE2A2" d="M36.164 84.587l-1.177 1.585 3.71 2.746 1.178-1.584zM19.514 38.4l-2.099 3.648-8.542-4.899 2.099-3.647z"/>
        <path fill="#9FE2A2" d="M17.415 42.048l2.099-3.647-8.542-4.899-2.1 3.647z"/>
        <path fill="#FFAEE4" d="M278.297 172.453l2.949.145-.34 6.883-2.95-.145z"/>
        <path fill="#FFAEE4" d="M281.246 172.599l-2.949-.146-.34 6.883 2.949.145zM263.336 62.836l4.436 2.4-5.621 10.352-4.436-2.4z"/>
        <path fill="#FFAEE4" d="M267.772 65.236l-4.436-2.4-5.621 10.353 4.436 2.4zM200.914 180.96l.127 1.902-4.454.295-.127-1.902z"/>
        <path fill="#FFAEE4" d="M201.04 182.861l-.126-1.902-4.454.296.126 1.901zM208.224 104.632l2.094-.326.764 4.885-2.094.326z"/>
        <path fill="#FFAEE4" d="M210.318 104.306l-2.094.326.764 4.885 2.093-.326zM197.571 93.565l.506 2.356-5.518 1.18-.505-2.355z"/>
        <path fill="#FFAEE4" d="M198.077 95.921l-.506-2.356-5.518 1.18.506 2.357zM176.41 72.674l5.395-2.602 6.094 12.59-5.394 2.601z"/>
        <path fill="#FFAEE4" d="M181.805 70.072l-5.394 2.602 6.094 12.59 5.394-2.603zM140.703 108.598l2.213 5.008-11.73 5.165-2.213-5.008z"/>
        <path fill="#FFAEE4" d="M142.916 113.606l-2.213-5.008-11.73 5.165 2.213 5.008zM135.27 64.692l2.237-4.821 11.29 5.22-2.235 4.821z"/>
        <path fill="#FFAEE4" d="M137.507 59.871l-2.237 4.821 11.292 5.22 2.236-4.821zM116.133 83.367l3.078-5.632 13.189 7.186-3.079 5.63z"/>
        <path fill="#FFAEE4" d="M119.211 77.735l-3.078 5.632 13.188 7.185 3.079-5.632zM89.62 35.5l2.503.034-.078 5.844-2.505-.033z"/>
        <path fill="#FFAEE4" d="M92.123 35.534L89.62 35.5l-.079 5.845 2.504.033zM12.63 106.027l3.23-.799 1.868 7.537-3.229.799z"/>
        <path fill="#FFAEE4" d="M15.859 105.228l-3.23.799 1.87 7.537 3.23-.798z"/>
        <path fill="#DDA812" d="M310.164 26.169l2.792-3.313 7.758 6.515-2.791 3.313z"/>
        <path fill="#DDA812" d="M312.955 22.856l-2.791 3.313 7.759 6.515 2.791-3.313zM283.302 6.367l1.392 1.192-2.793 3.249-1.392-1.192z"/>
        <path fill="#DDA812" d="M284.694 7.559l-1.392-1.193-2.793 3.25 1.392 1.192zM248.702 2.122l5 1.346-3.154 11.67-5-1.347z"/>
        <path fill="#DDA812" d="M253.702 3.468l-5-1.346-3.153 11.67 5 1.346zM175.725 34.905l2.558-2.44 5.713 5.968-2.557 2.44z"/>
        <path fill="#DDA812" d="M178.282 32.465l-2.557 2.44 5.714 5.967 2.557-2.439zM138.968 89.836l1.346-2.608 6.106 3.14-1.345 2.607z"/>
        <path fill="#DDA812" d="M140.314 87.228l-1.346 2.608 6.107 3.139 1.345-2.607zM100.098 69.126l1.295-2.85 6.674 3.024-1.295 2.85z"/>
        <path fill="#DDA812" d="M101.393 66.276l-1.295 2.85 6.673 3.023 1.296-2.85zM67.538 57.769l1.956-5.421 12.697 4.566-1.956 5.42z"/>
        <path fill="#DDA812" d="M69.494 52.348l-1.956 5.421 12.697 4.566 1.956-5.422zM97.848 129.464l.016 2.027-4.748.037-.016-2.028z"/>
        <path fill="#DDA812" d="M97.864 131.491l-.016-2.027-4.748.036.016 2.028zM48.643 33.763l3.378 5.105-11.958 7.882-3.377-5.105z"/>
        <path fill="#DDA812" d="M52.02 38.868l-3.377-5.105-11.957 7.882 3.378 5.105zM38.28 100.098l4.943-.413.969 11.536-4.943.413z"/>
        <path fill="#DDA812" d="M43.223 99.685l-4.943.413.969 11.536 4.943-.414zM40.653 129.605l3.96 1.143-2.678 9.244-3.96-1.144z"/>
        <path fill="#DDA812" d="M44.614 130.748l-3.961-1.143-2.678 9.243 3.96 1.144zM33.02 146.13l.325-3.277 7.674.76-.326 3.276z"/>
        <path fill="#DDA812" d="M33.345 142.853l-.326 3.276 7.674.76.325-3.277zM-6.617 167.271l4.03-3.256 7.629 9.408-4.031 3.257z"/>
        <path fill="#DDA812" d="M-2.586 164.015l-4.031 3.256 7.628 9.41 4.03-3.258z"/>
        <path fill="#F50" d="M-2.836 166.56a3.488 3.488 0 0 0 3.43 3.546 3.488 3.488 0 0 0 3.55-3.424 3.487 3.487 0 0 0-3.429-3.545 3.487 3.487 0 0 0-3.551 3.423M10.494 114.031a1.27 1.27 0 0 0 2.542.045 1.27 1.27 0 1 0-2.542-.045M78.65 125.05a3.13 3.13 0 0 0 3.079 3.183 3.131 3.131 0 0 0 3.189-3.073 3.131 3.131 0 0 0-3.08-3.183 3.131 3.131 0 0 0-3.188 3.073M122.368 112.238a3.098 3.098 0 0 0 3.047 3.15 3.1 3.1 0 0 0 3.156-3.042 3.099 3.099 0 0 0-3.047-3.15 3.099 3.099 0 0 0-3.156 3.042M200.899 135.795a1.308 1.308 0 1 0 2.617.046 1.308 1.308 0 0 0-1.286-1.33 1.307 1.307 0 0 0-1.331 1.284M223.13 80.514a4.024 4.024 0 0 0 3.958 4.09 4.024 4.024 0 0 0 4.097-3.95 4.024 4.024 0 0 0-3.957-4.09 4.025 4.025 0 0 0-4.098 3.95M277.427 110.896a2.763 2.763 0 0 0 2.717 2.809 2.764 2.764 0 0 0 2.814-2.713 2.763 2.763 0 0 0-2.718-2.809 2.763 2.763 0 0 0-2.813 2.713M288.193 87.672a2.153 2.153 0 0 0 2.117 2.189 2.154 2.154 0 0 0 2.192-2.114 2.153 2.153 0 0 0-2.117-2.188 2.153 2.153 0 0 0-2.192 2.113"/>
        <path fill="#9FE2A2" d="M43.31 62.26l5.816.49-.491 5.807-5.816-.49z"/>
        <path fill="#9FE2A2" d="M48.635 68.557l.49-5.807-5.815-.49-.492 5.807z"/>
        <g transform="translate(105.378)">
            <mask id="b" fill="#fff">
                <use xlink:href="#a"/>
            </mask>
            <path fill="#9FE2A2" d="M.524 1.96L3.68-1.857l3.825 3.15-3.155 3.82z" mask="url(#b)"/>
        </g>
        <g transform="translate(105.378)">
            <mask id="d" fill="#fff">
                <use xlink:href="#c"/>
            </mask>
            <path fill="#9FE2A2" d="M7.505 1.293L3.68-1.858.524 1.961l3.825 3.15z" mask="url(#d)"/>
        </g>
        <g transform="translate(148.837)">
            <mask id="f" fill="#fff">
                <use xlink:href="#e"/>
            </mask>
            <path fill="#9FE2A2" d="M1.21 4.19L.088-1.082l5.281-1.12L6.491 3.07z" mask="url(#f)"/>
        </g>
        <g transform="translate(148.837)">
            <mask id="h" fill="#fff">
                <use xlink:href="#g"/>
            </mask>
            <path fill="#9FE2A2" d="M5.37-2.201L.087-1.081 1.21 4.19l5.282-1.12z" mask="url(#h)"/>
        </g>
        <path fill="#9FE2A2" d="M144.57 89.502l5.373.682-.683 5.364-5.373-.682z"/>
        <path fill="#9FE2A2" d="M149.26 95.548l.683-5.364-5.372-.682-.684 5.364zM196.269 33.831l3.008.874-.875 3.004-3.009-.875z"/>
        <path fill="#9FE2A2" d="M198.402 37.708l.875-3.003-3.008-.874-.876 3.003zM199.268 126.27l-.824-1.867 1.87-.822.824 1.867z"/>
        <path fill="#9FE2A2" d="M200.315 123.58l-1.87.823.823 1.867 1.87-.822zM225.996 76.924l-1.817 6.913-6.925-1.813 1.816-6.914z"/>
        <path fill="#9FE2A2" d="M217.254 82.024l6.925 1.813 1.817-6.913-6.926-1.814zM277.37 32.498l2.916-4.76 4.769 2.911-2.916 4.76z"/>
        <path fill="#9FE2A2" d="M285.055 30.649l-4.769-2.91-2.916 4.76 4.769 2.91zM285.813 120.044l3.79-6.05 6.062 3.783-3.79 6.051z"/>
        <path fill="#9FE2A2" d="M295.665 117.777l-6.062-3.784-3.79 6.051 6.061 3.784z"/>
        <path fill="#FFAEE4" d="M289.74 22.907a2.924 2.924 0 0 0-2.876-2.973 2.925 2.925 0 0 0-2.978 2.87 2.924 2.924 0 0 0 2.875 2.973 2.925 2.925 0 0 0 2.978-2.87M247.797 59.455a3.79 3.79 0 0 0-3.727-3.852 3.79 3.79 0 0 0-3.858 3.72 3.79 3.79 0 0 0 3.726 3.852 3.79 3.79 0 0 0 3.859-3.72M210.488 44.646a3.21 3.21 0 0 0-3.156-3.262 3.21 3.21 0 0 0-3.268 3.15 3.21 3.21 0 0 0 3.156 3.262 3.21 3.21 0 0 0 3.268-3.15M175.454 6.976a3.741 3.741 0 0 0-3.68-3.803 3.742 3.742 0 0 0-3.81 3.672 3.742 3.742 0 0 0 3.68 3.804 3.742 3.742 0 0 0 3.81-3.673M138.68 75.619a1.712 1.712 0 0 0-1.683-1.741 1.711 1.711 0 0 0-.06 3.42 1.712 1.712 0 0 0 1.743-1.68M81.738 81.817a2.6 2.6 0 0 0-2.556-2.642 2.6 2.6 0 0 0-2.647 2.551 2.6 2.6 0 0 0 2.556 2.643 2.6 2.6 0 0 0 2.647-2.552M83.2 146.124l7.577.132-.132 7.563-7.577-.132z"/>
        <path fill="#FFAEE4" d="M90.71 150.038a3.785 3.785 0 0 0-3.721-3.847 3.786 3.786 0 0 0-3.855 3.715 3.785 3.785 0 0 0 3.723 3.848 3.786 3.786 0 0 0 3.854-3.716M25.068 84.413a.963.963 0 1 0-1.926-.032.963.963 0 0 0 1.926.032M4.734 190.617a2.847 2.847 0 0 0-2.8-2.894 2.847 2.847 0 0 0-2.898 2.795 2.846 2.846 0 0 0 2.8 2.894 2.847 2.847 0 0 0 2.898-2.795"/>
        <path fill="#F50" d="M3.893 41.801l-2.624 6.82-6.83-2.619 2.622-6.82z"/>
        <path fill="#F50" d="M-5.562 46.002l6.832 2.619 2.623-6.82-6.831-2.619zM30.766 6.32l-5.33 3.268-3.275-5.321L27.49.998z"/>
        <path fill="#F50" d="M22.16 4.267l3.275 5.321 5.331-3.269L27.492.998zM29.985 17.937l-.288-4.307 4.316-.287.287 4.308z"/>
        <path fill="#F50" d="M34.013 13.343l-4.315.287.287 4.307 4.315-.286z"/>
        <g transform="translate(71.19)">
            <mask id="j" fill="#fff">
                <use xlink:href="#i"/>
            </mask>
            <path fill="#F50" d="M4.97.811l-4.135.754-.755-4.13 4.136-.753z" mask="url(#j)"/>
        </g>
        <g transform="translate(71.19)">
            <mask id="l" fill="#fff">
                <use xlink:href="#k"/>
            </mask>
            <path fill="#F50" d="M.08-2.564l.754 4.129L4.971.81l-.755-4.128z" mask="url(#l)"/>
        </g>
        <path fill="#F50" d="M115.167 56.823l.625 2.752-2.755.624-.626-2.752z"/>
        <path fill="#F50" d="M113.036 60.199l2.756-.625-.625-2.751-2.756.624zM144.676 27.715l1.867-3.447 3.454 1.864-1.868 3.447z"/>
        <path fill="#F50" d="M149.997 26.132l-3.453-1.864-1.868 3.447 3.454 1.864zM191.919 100.995l-.693 3.053-3.059-.692.693-3.053z"/>
        <path fill="#F50" d="M188.168 103.357l3.058.69.693-3.052-3.059-.692zM267.69 54.004l-3.468.96-.963-3.462 3.468-.96z"/>
        <path fill="#F50" d="M263.26 51.502l.961 3.462 3.468-.96-.961-3.462z"/>
        <g transform="translate(281.532)">
            <mask id="n" fill="#fff">
                <use xlink:href="#m"/>
            </mask>
            <path fill="#F50" d="M5.848.538L.026.314.25-5.498l5.823.224z" mask="url(#n)"/>
        </g>
        <g transform="translate(281.532)">
            <mask id="p" fill="#fff">
                <use xlink:href="#o"/>
            </mask>
            <path fill="#F50" d="M.25-5.498L.025.314l5.823.224.225-5.812z" mask="url(#p)"/>
        </g>
        <path fill="#F50" d="M301.648 84.194l-1.07-1.882 1.886-1.067 1.069 1.881z"/>
        <path fill="#F50" d="M302.464 81.245l-1.885 1.067 1.069 1.882 1.885-1.068z"/>
        <path fill="#DDA812" d="M29.497 58.935a3.065 3.065 0 0 0 3.013 3.115 3.065 3.065 0 0 0 3.12-3.008 3.064 3.064 0 0 0-3.013-3.115 3.065 3.065 0 0 0-3.12 3.008M57.282 44.25a3.487 3.487 0 0 0 3.43 3.545 3.488 3.488 0 0 0 3.551-3.424 3.487 3.487 0 0 0-3.43-3.544 3.487 3.487 0 0 0-3.55 3.423"/>
        <g transform="translate(138.407)">
            <mask id="r" fill="#fff">
                <use xlink:href="#q"/>
            </mask>
            <path fill="#DDA812" d="M.362 2.74A3.13 3.13 0 0 0 3.44 5.922a3.132 3.132 0 0 0 3.19-3.074A3.131 3.131 0 0 0 3.55-.334 3.132 3.132 0 0 0 .362 2.74" mask="url(#r)"/>
        </g>
        <path fill="#DDA812" d="M261.017 13.484a1.307 1.307 0 0 0 1.286 1.329 1.308 1.308 0 0 0 1.331-1.283 1.308 1.308 0 0 0-2.617-.046"/>
        <path fill="#9FE2A2" d="M106.453 51.89l-2.394-1.412 3.308-5.588 2.393 1.413z"/>
        <path fill="#9FE2A2" d="M104.059 50.478l2.394 1.412 3.308-5.588-2.395-1.412zM156.805 49.305l-4.127-.648 1.517-9.632 4.127.648z"/>
        <path fill="#9FE2A2" d="M152.678 48.657l4.126.648 1.518-9.632-4.127-.648zM268.416 45.14l2.1-3.648 8.541 4.9-2.098 3.647z"/>
        <path fill="#9FE2A2" d="M270.515 41.492l-2.099 3.648 8.543 4.898 2.099-3.647z"/>
        <path fill="#FFAEE4" d="M24.594 20.705l-4.436-2.4L25.78 7.952l4.436 2.4z"/>
        <path fill="#FFAEE4" d="M20.158 18.305l4.436 2.4 5.622-10.353-4.436-2.4z"/>
        <g transform="translate(99.583)">
            <mask id="t" fill="#fff">
                <use xlink:href="#s"/>
            </mask>
            <path fill="#FFAEE4" d="M11.937 10.867L6.542 13.47.448.88l5.395-2.602z" mask="url(#t)"/>
        </g>
        <g transform="translate(99.583)">
            <mask id="v" fill="#fff">
                <use xlink:href="#u"/>
            </mask>
            <path fill="#FFAEE4" d="M6.542 13.47l5.394-2.603-6.093-12.59L.448.88z" mask="url(#v)"/>
        </g>
        <path fill="#FFAEE4" d="M152.66 18.849l-2.236 4.82-11.292-5.219 2.236-4.821z"/>
        <path fill="#FFAEE4" d="M150.424 23.67l2.236-4.821-11.291-5.22-2.237 4.821z"/>
        <g transform="translate(155.21)">
            <mask id="x" fill="#fff">
                <use xlink:href="#w"/>
            </mask>
            <path fill="#FFAEE4" d="M16.587.174l-3.079 5.631L.32-1.38l3.078-5.63z" mask="url(#x)"/>
        </g>
        <g transform="translate(155.21)">
            <mask id="z" fill="#fff">
                <use xlink:href="#y"/>
            </mask>
            <path fill="#FFAEE4" d="M13.508 5.805l3.079-5.63L3.398-7.012.32-1.381z" mask="url(#z)"/>
        </g>
        <path fill="#FFAEE4" d="M198.311 48.04l-2.504-.033.079-5.844 2.504.033z"/>
        <path fill="#FFAEE4" d="M195.807 48.007l2.504.034.08-5.845-2.505-.034zM271.792 93.887L267.54 96l-4.946-9.924 4.252-2.112z"/>
        <path fill="#FFAEE4" d="M267.54 95.999l4.252-2.112-4.945-9.924-4.253 2.112zM328.335 40.63l-3.074 2.916-6.83-7.175 3.075-2.916z"/>
        <path fill="#FFAEE4" d="M325.26 43.546l3.075-2.916-6.83-7.175-3.074 2.916z"/>
        <path fill="#DDA812" d="M4.628 77.174l-1.392-1.192 2.793-3.249 1.392 1.192z"/>
        <path fill="#DDA812" d="M3.236 75.982l1.392 1.193 2.793-3.25-1.392-1.192zM39.228 81.419l-5-1.347 3.153-11.669 5 1.347z"/>
        <path fill="#DDA812" d="M34.228 80.072l5 1.347 3.154-11.67-5-1.346zM95.235 103.881l-1.909 1.077-2.521-4.454 1.908-1.077z"/>
        <path fill="#DDA812" d="M93.326 104.958l1.91-1.076-2.523-4.456-1.909 1.078zM112.205 48.636l-2.557 2.44-5.713-5.968 2.556-2.44z"/>
        <path fill="#DDA812" d="M109.648 51.075l2.557-2.44-5.714-5.967-2.557 2.44zM162.415 91.468l-.157 5.88-13.77-.368.157-5.879z"/>
        <path fill="#DDA812" d="M162.258 97.347l.157-5.88-13.77-.366-.158 5.88zM187.833 14.414l-1.295 2.85-6.674-3.023 1.295-2.85z"/>
        <path fill="#DDA812" d="M186.538 17.264l1.295-2.85-6.674-3.023-1.296 2.85zM220.392 25.772l-1.956 5.42-12.697-4.565 1.956-5.42z"/>
        <path fill="#DDA812" d="M218.436 31.193l1.956-5.422-12.697-4.565-1.956 5.421zM239.287 49.778l-3.378-5.105 11.958-7.883 3.377 5.106z"/>
        <path fill="#DDA812" d="M235.91 44.673l3.377 5.105 11.957-7.882-3.377-5.106z"/>
        <path fill="#F50" d="M110.893 96.06a3.485 3.485 0 0 0-3.427-3.543 3.486 3.486 0 0 0-3.549 3.421 3.486 3.486 0 0 0 3.427 3.543 3.486 3.486 0 0 0 3.55-3.421"/>
        <g transform="translate(56.703)">
            <mask id="B" fill="#fff">
                <use xlink:href="#A"/>
            </mask>
            <path fill="#F50" d="M8.097 3.027a4.024 4.024 0 0 0-3.957-4.09 4.024 4.024 0 0 0-4.098 3.95A4.024 4.024 0 0 0 4 6.976a4.025 4.025 0 0 0 4.098-3.95" mask="url(#B)"/>
        </g>
        <path fill="#9FE2A2" d="M324.614 103.268l-3.853 1.227-1.23-3.847 3.854-1.227z"/>
        <path fill="#9FE2A2" d="M319.53 100.648l1.23 3.847 3.854-1.228-1.23-3.846zM309.752 90.04l-2.687-5.992 6.002-2.682 2.687 5.991z"/>
        <path fill="#9FE2A2" d="M313.067 81.366l-6.002 2.682 2.687 5.991 6.002-2.682zM301.132 111.346l-1.493 2.82-2.825-1.49 1.493-2.82z"/>
        <path fill="#9FE2A2" d="M296.814 112.675l2.825 1.49 1.493-2.82-2.825-1.49zM256.583 102.748l3.638-2.385 2.387 3.631-3.637 2.385z"/>
        <path fill="#9FE2A2" d="M262.609 103.994l-2.389-3.63-3.636 2.384 2.388 3.63zM244.62 21.28l-5.816-.49.492-5.806 5.816.49z"/>
        <path fill="#9FE2A2" d="M239.296 14.984l-.492 5.806 5.817.49.49-5.806zM182.029 81.58l-3.156 3.819-3.825-3.15 3.155-3.82z"/>
        <path fill="#9FE2A2" d="M175.048 82.248l3.825 3.15 3.156-3.818-3.825-3.15zM137.883 79.35l1.122 5.272-5.281 1.12-1.122-5.272z"/>
        <path fill="#9FE2A2" d="M133.724 85.742l5.281-1.12-1.121-5.272-5.282 1.12zM91.662 49.71l-3.009-.874.876-3.004 3.008.874z"/>
        <path fill="#9FE2A2" d="M89.528 45.832l-.875 3.003 3.008.874.876-3.003z"/>
        <g transform="translate(61.918)">
            <mask id="D" fill="#fff">
                <use xlink:href="#C"/>
            </mask>
            <path fill="#9FE2A2" d="M.016 6.617L1.833-.296l6.926 1.813-1.817 6.914z" mask="url(#D)"/>
        </g>
        <g transform="translate(61.918)">
            <mask id="F" fill="#fff">
                <use xlink:href="#E"/>
            </mask>
            <path fill="#9FE2A2" d="M8.759 1.517L1.833-.296.016 6.617l6.926 1.814z" mask="url(#F)"/>
        </g>
        <path fill="#9FE2A2" d="M10.56 51.042l-2.916 4.76-4.769-2.91 2.917-4.76z"/>
        <path fill="#9FE2A2" d="M2.875 52.892l4.769 2.91 2.916-4.76-4.769-2.91z"/>
        <path fill="#FFAEE4" d="M-1.809 60.634a2.924 2.924 0 0 0 2.875 2.973 2.925 2.925 0 0 0 2.978-2.87 2.924 2.924 0 0 0-2.875-2.973 2.925 2.925 0 0 0-2.978 2.87M40.133 24.086a3.79 3.79 0 0 0 3.727 3.852 3.79 3.79 0 0 0 3.858-3.72 3.79 3.79 0 0 0-3.726-3.852 3.79 3.79 0 0 0-3.859 3.72M77.443 38.895a3.208 3.208 0 0 0 3.155 3.262 3.21 3.21 0 0 0 3.268-3.15 3.208 3.208 0 0 0-3.156-3.262 3.209 3.209 0 0 0-3.267 3.15M112.476 76.565a3.743 3.743 0 0 0 3.68 3.804 3.742 3.742 0 0 0 3.81-3.674 3.741 3.741 0 0 0-3.679-3.803 3.743 3.743 0 0 0-3.81 3.673M149.25 7.922a1.712 1.712 0 0 0 1.684 1.74 1.712 1.712 0 0 0 .06-3.421 1.713 1.713 0 0 0-1.744 1.681"/>
        <g transform="translate(205.623)">
            <mask id="H" fill="#fff">
                <use xlink:href="#G"/>
            </mask>
            <path fill="#FFAEE4" d="M.569 1.724a2.6 2.6 0 0 0 2.556 2.642 2.6 2.6 0 0 0 2.647-2.551A2.6 2.6 0 0 0 3.216-.828 2.6 2.6 0 0 0 .569 1.724" mask="url(#H)"/>
        </g>
        <g transform="translate(262.41)">
            <mask id="J" fill="#fff">
                <use xlink:href="#I"/>
            </mask>
            <path fill="#FFAEE4" d="M.452-.872a.963.963 0 1 0 1.926.031.963.963 0 0 0-1.926-.03" mask="url(#J)"/>
        </g>
        <path fill="#F50" d="M311.851 289.312l2.623-6.82 6.832 2.62-2.624 6.819z"/>
        <path fill="#F50" d="M321.306 285.112l-6.832-2.619-2.623 6.82 6.831 2.618zM277.828 507.884l4.136-.753.755 4.129-4.136.753z"/>
        <path fill="#F50" d="M282.719 511.26l-.755-4.13-4.136.754.755 4.13zM241.139 312.468l-.625-2.751 2.756-.624.625 2.75z"/>
        <path fill="#F50" d="M243.27 309.092l-2.756.625.625 2.75 2.756-.624zM211.63 341.576l-1.867 3.447-3.453-1.864 1.867-3.447z"/>
        <path fill="#F50" d="M206.31 343.16l3.453 1.863 1.867-3.447-3.453-1.863zM164.387 268.296l.693-3.053 3.059.692-.693 3.053z"/>
        <path fill="#F50" d="M168.138 265.934l-3.058-.69-.693 3.052 3.059.691zM134.16 379.611l.602 2.144-2.147.6-.602-2.143z"/>
        <path fill="#F50" d="M132.615 382.355l2.147-.6-.602-2.143-2.147.6zM112.999 379.014l3.65.324-.324 3.643-3.65-.323z"/>
        <path fill="#F50" d="M116.325 382.981l.324-3.643-3.65-.323-.324 3.643zM88.617 315.287l3.468-.96.962 3.462-3.468.96z"/>
        <path fill="#F50" d="M93.047 317.789l-.962-3.462-3.468.96.962 3.462zM68.926 368.753l5.822.224-.224 5.812-5.823-.224z"/>
        <path fill="#F50" d="M74.523 374.79l.225-5.813-5.822-.225-.225 5.813zM54.658 285.097l1.07 1.882-1.885 1.067-1.07-1.881z"/>
        <path fill="#F50" d="M53.842 288.047l1.885-1.068-1.069-1.882-1.885 1.068z"/>
        <path fill="#DDA812" d="M239.122 456.737a3.485 3.485 0 0 0-3.428-3.543 3.487 3.487 0 0 0-3.549 3.42 3.485 3.485 0 0 0 3.428 3.544 3.485 3.485 0 0 0 3.549-3.421M321.623 325.62a3.488 3.488 0 0 0-3.43-3.546 3.488 3.488 0 0 0-3.551 3.424 3.487 3.487 0 0 0 3.43 3.545 3.487 3.487 0 0 0 3.55-3.423M308.293 378.149a1.27 1.27 0 1 0-1.293 1.247 1.27 1.27 0 0 0 1.293-1.247M240.137 367.13a3.131 3.131 0 0 0-3.08-3.183 3.13 3.13 0 0 0-3.188 3.074 3.13 3.13 0 0 0 3.079 3.182 3.131 3.131 0 0 0 3.189-3.073M196.418 379.942a3.099 3.099 0 0 0-3.047-3.15 3.1 3.1 0 0 0-3.155 3.042 3.1 3.1 0 0 0 3.047 3.15 3.1 3.1 0 0 0 3.155-3.042M117.888 356.386a1.308 1.308 0 1 0-2.617-.046 1.308 1.308 0 0 0 1.285 1.33 1.308 1.308 0 0 0 1.332-1.284M15.732 277.117a2.763 2.763 0 0 0-2.717-2.809 2.764 2.764 0 0 0-2.813 2.713 2.763 2.763 0 0 0 2.717 2.808 2.764 2.764 0 0 0 2.813-2.712M55.51 417.812a2.153 2.153 0 0 0-2.117-2.188 2.154 2.154 0 0 0-2.192 2.113 2.153 2.153 0 0 0 2.117 2.188 2.153 2.153 0 0 0 2.192-2.113"/>
        <path fill="#9FE2A2" d="M314.88 407.981l4.62-3.106 7.273 10.782-4.619 3.106z"/>
        <path fill="#9FE2A2" d="M319.5 404.875l-4.62 3.106 7.274 10.782 4.62-3.106zM282.99 449.51l4.667-2.81 6.581 10.893-4.667 2.81z"/>
        <path fill="#9FE2A2" d="M287.657 446.7l-4.667 2.81 6.581 10.893 4.667-2.81zM272.452 317.98l2.394 1.411-3.307 5.588-2.395-1.412z"/>
        <path fill="#9FE2A2" d="M274.846 319.391l-2.394-1.412-3.308 5.588 2.395 1.412zM222.1 320.565l4.127.648-1.517 9.631-4.127-.648z"/>
        <path fill="#9FE2A2" d="M226.227 321.213l-4.127-.648-1.517 9.631 4.127.648zM204.806 455.626l.886 5.228-12.245 2.068-.886-5.228z"/>
        <path fill="#9FE2A2" d="M205.692 460.854l-.886-5.228-12.245 2.068.886 5.228zM149.856 389.844l1.367-3.29 7.708 3.19-1.367 3.292z"/>
        <path fill="#9FE2A2" d="M151.223 386.553l-1.367 3.291 7.707 3.191 1.368-3.29zM125.962 372.5l1.177-1.584 3.71 2.746-1.176 1.585z"/>
        <path fill="#9FE2A2" d="M127.139 370.916l-1.177 1.584 3.71 2.746 1.177-1.584zM110.489 324.73l-2.1 3.647-8.542-4.9 2.1-3.646z"/>
        <path fill="#9FE2A2" d="M108.39 328.377l2.098-3.647-8.542-4.9-2.099 3.648zM88.218 421.865l1.544 2.854-6.684 3.605-1.544-2.854z"/>
        <path fill="#9FE2A2" d="M89.762 424.72l-1.545-2.855-6.683 3.606 1.544 2.853zM35.824 335.955l1.637 2.137-5.005 3.82-1.636-2.136z"/>
        <path fill="#9FE2A2" d="M37.461 338.092l-1.637-2.136-5.004 3.82 1.636 2.137zM-3.517 462.834l4.673-3.643 8.534 10.907-4.673 3.643z"/>
        <path fill="#9FE2A2" d="M1.157 459.19l-4.674 3.644 8.533 10.907 4.674-3.643z"/>
        <path fill="#FFAEE4" d="M218.139 509.393l4.435 2.4-5.621 10.353-4.436-2.401z"/>
        <path fill="#FFAEE4" d="M222.574 511.793l-4.435-2.4-5.622 10.352 4.436 2.4zM291.889 467.288l.126 1.902-4.454.295-.126-1.902z"/>
        <path fill="#FFAEE4" d="M292.015 469.19l-.126-1.902-4.454.295.126 1.902zM299.199 390.96l2.093-.325.764 4.885-2.093.326z"/>
        <path fill="#FFAEE4" d="M301.292 390.635l-2.093.325.764 4.886 2.093-.326zM288.546 379.894l.506 2.356-5.518 1.18-.506-2.355z"/>
        <path fill="#FFAEE4" d="M289.052 382.25l-.506-2.356-5.518 1.18.506 2.357zM277.236 348.012l5.394-2.602 6.094 12.59-5.394 2.602z"/>
        <path fill="#FFAEE4" d="M282.63 345.41l-5.394 2.602 6.094 12.59 5.394-2.602zM226.244 351.021l2.237-4.821 11.291 5.219-2.236 4.821z"/>
        <path fill="#FFAEE4" d="M228.481 346.2l-2.237 4.821 11.292 5.22 2.236-4.822zM180.594 321.829l2.504.033-.079 5.845-2.504-.034z"/>
        <path fill="#FFAEE4" d="M183.098 321.863l-2.505-.034-.078 5.845 2.504.033zM107.113 275.982l4.252-2.111 4.946 9.924-4.253 2.111z"/>
        <path fill="#FFAEE4" d="M111.365 273.87l-4.252 2.112 4.945 9.925 4.253-2.112zM50.57 329.24l3.074-2.916 6.83 7.175-3.075 2.916z"/>
        <path fill="#FFAEE4" d="M53.644 326.324l-3.074 2.916 6.829 7.175 3.075-2.916zM28.47 292.931l1.175-5.766 13.504 2.742-1.174 5.767z"/>
        <path fill="#FFAEE4" d="M29.644 287.165l-1.175 5.766 13.506 2.743 1.175-5.766z"/>
        <path fill="#DDA812" d="M283.67 265.988l1.908-1.077 2.522 4.455-1.908 1.077z"/>
        <path fill="#DDA812" d="M285.578 264.911l-1.908 1.077 2.522 4.455 1.909-1.077zM266.7 321.234l2.557-2.44 5.714 5.968-2.557 2.439z"/>
        <path fill="#DDA812" d="M269.257 318.794l-2.557 2.44 5.714 5.967 2.557-2.44zM216.49 278.402l.157-5.88 13.77.367-.157 5.88z"/>
        <path fill="#DDA812" d="M216.647 272.522l-.157 5.88 13.77.367.157-5.88zM229.943 376.164l1.346-2.607 6.106 3.14-1.345 2.607z"/>
        <path fill="#DDA812" d="M231.288 373.557l-1.345 2.607 6.107 3.14 1.345-2.608zM191.072 355.455l1.295-2.85 6.675 3.023-1.296 2.85z"/>
        <path fill="#DDA812" d="M192.368 352.605l-1.296 2.85 6.674 3.023 1.296-2.85zM158.513 344.098l1.956-5.421 12.697 4.565-1.956 5.422z"/>
        <path fill="#DDA812" d="M160.469 338.677l-1.956 5.42 12.697 4.567 1.956-5.421zM188.823 415.793l.016 2.027-4.749.036-.015-2.027z"/>
        <path fill="#DDA812" d="M188.838 417.82l-.015-2.027-4.748.036.015 2.027zM139.618 320.091l3.377 5.106-11.957 7.882-3.377-5.105z"/>
        <path fill="#DDA812" d="M142.995 325.197l-3.377-5.106-11.958 7.883 3.378 5.105zM131.628 415.933l3.96 1.144-2.678 9.244-3.96-1.144z"/>
        <path fill="#DDA812" d="M135.588 417.077l-3.96-1.144-2.679 9.244 3.96 1.143zM148.677 476.738l4.031-3.257 7.628 9.408-4.031 3.258z"/>
        <path fill="#DDA812" d="M152.708 473.48l-4.031 3.258 7.628 9.408 4.031-3.256zM51.216 455.676l4.418 2.426-5.683 10.309-4.417-2.427z"/>
        <path fill="#DDA812" d="M55.633 458.102l-4.417-2.426-5.682 10.309 4.417 2.426zM-10.058 391.684l1.002-4.5 10.54 2.336-1 4.5z"/>
        <path fill="#DDA812" d="M-9.057 387.183l-1 4.501 10.54 2.336 1.002-4.5z"/>
        <path fill="#F50" d="M16.89 315.174a3.666 3.666 0 0 0 3.605 3.727 3.667 3.667 0 0 0 3.733-3.6 3.667 3.667 0 0 0-3.605-3.726 3.667 3.667 0 0 0-3.734 3.599M7.084 354.581a2.23 2.23 0 0 0 2.193 2.267 2.23 2.23 0 0 0 2.27-2.188 2.23 2.23 0 0 0-2.193-2.267 2.23 2.23 0 0 0-2.27 2.188M268.012 273.81a3.486 3.486 0 0 0 3.427 3.543 3.487 3.487 0 0 0 3.55-3.422 3.487 3.487 0 0 0-3.428-3.543 3.486 3.486 0 0 0-3.55 3.422M60.353 491.869a3.064 3.064 0 0 0 3.013 3.115 3.065 3.065 0 0 0 3.12-3.008 3.064 3.064 0 0 0-3.013-3.115 3.065 3.065 0 0 0-3.12 3.008M33.67 436.115a3.489 3.489 0 0 0 3.43 3.545 3.488 3.488 0 0 0 3.55-3.424 3.488 3.488 0 0 0-3.429-3.545 3.488 3.488 0 0 0-3.551 3.424M236.842 422.37a3.132 3.132 0 0 0 3.078 3.182 3.132 3.132 0 0 0 3.189-3.074 3.13 3.13 0 0 0-3.08-3.182 3.132 3.132 0 0 0-3.187 3.073M212.764 383.527a3.098 3.098 0 0 0 3.046 3.15 3.1 3.1 0 0 0 3.156-3.042 3.1 3.1 0 0 0-3.047-3.15 3.1 3.1 0 0 0-3.155 3.042M291.873 422.124a1.308 1.308 0 0 0 2.618.045 1.308 1.308 0 0 0-2.618-.045M314.105 366.843a4.023 4.023 0 0 0 3.957 4.09 4.024 4.024 0 0 0 4.098-3.95 4.024 4.024 0 0 0-3.958-4.09 4.025 4.025 0 0 0-4.097 3.95"/>
        <path fill="#9FE2A2" d="M54.29 266.602l3.854-1.228 1.23 3.847-3.854 1.227z"/>
        <path fill="#9FE2A2" d="M59.374 269.221l-1.23-3.846-3.853 1.227 1.23 3.847zM44.83 384.726l4.188-3.734 3.741 4.181-4.188 3.735z"/>
        <path fill="#9FE2A2" d="M52.759 385.173l-3.741-4.181-4.189 3.734 3.741 4.181zM69.153 279.83l2.687 5.991-6.002 2.683-2.687-5.992z"/>
        <path fill="#9FE2A2" d="M65.838 288.504l6.002-2.682-2.687-5.992-6.002 2.682zM77.773 258.524l1.493-2.82 2.825 1.49-1.493 2.82z"/>
        <path fill="#9FE2A2" d="M82.09 257.195l-2.824-1.491-1.493 2.82 2.825 1.49zM122.322 267.122l-3.637 2.384-2.388-3.631 3.636-2.384z"/>
        <path fill="#9FE2A2" d="M116.296 265.875l2.388 3.63 3.638-2.383-2.388-3.631zM134.284 348.59l5.817.49-.492 5.806-5.816-.491z"/>
        <path fill="#9FE2A2" d="M139.61 354.885l.49-5.805-5.816-.491-.491 5.806zM196.876 288.29l3.156-3.82 3.825 3.151-3.155 3.82z"/>
        <path fill="#9FE2A2" d="M203.857 287.621l-3.825-3.15-3.156 3.819 3.826 3.15zM241.022 290.519l-1.123-5.272 5.281-1.12 1.123 5.272z"/>
        <path fill="#9FE2A2" d="M245.18 284.127l-5.28 1.12 1.122 5.272 5.281-1.12zM235.545 375.831l5.372.682-.683 5.363-5.373-.682z"/>
        <path fill="#9FE2A2" d="M240.234 381.876l.684-5.363-5.373-.682-.683 5.363zM287.243 320.16l3.009.874-.876 3.003-3.008-.874z"/>
        <path fill="#9FE2A2" d="M289.376 324.037l.876-3.003-3.009-.874-.875 3.003zM290.242 412.599l-.823-1.868 1.87-.821.824 1.866z"/>
        <path fill="#9FE2A2" d="M291.29 409.91l-1.871.822.823 1.867 1.87-.822zM308.858 355.154l-1.817 6.914-6.925-1.814 1.816-6.913z"/>
        <path fill="#9FE2A2" d="M300.116 360.254l6.925 1.814 1.817-6.914-6.926-1.813zM118.02 510.291l2.916-4.76 4.769 2.911-2.917 4.76z"/>
        <path fill="#9FE2A2" d="M125.704 508.442l-4.768-2.91-2.916 4.76 4.769 2.91z"/>
        <path fill="#FFAEE4" d="M41.732 538.877a2.924 2.924 0 0 0-2.875-2.973 2.925 2.925 0 0 0-2.978 2.871 2.924 2.924 0 0 0 2.875 2.973 2.924 2.924 0 0 0 2.978-2.871M301.462 330.974a3.21 3.21 0 0 0-3.155-3.261 3.21 3.21 0 0 0-3.268 3.15 3.21 3.21 0 0 0 3.156 3.262 3.21 3.21 0 0 0 3.267-3.15M266.428 293.304a3.741 3.741 0 0 0-3.68-3.803 3.742 3.742 0 0 0-3.81 3.673 3.742 3.742 0 0 0 3.68 3.804 3.742 3.742 0 0 0 3.81-3.674M229.654 361.947a1.713 1.713 0 0 0-1.683-1.74 1.712 1.712 0 0 0-.06 3.421 1.712 1.712 0 0 0 1.743-1.681M172.713 368.145a2.6 2.6 0 0 0-2.557-2.642 2.6 2.6 0 0 0-2.647 2.552 2.6 2.6 0 0 0 2.557 2.643 2.6 2.6 0 0 0 2.647-2.553M174.175 432.453l7.576.133-.132 7.563-7.576-.133z"/>
        <path fill="#FFAEE4" d="M181.685 436.367a3.785 3.785 0 0 0-3.722-3.848 3.785 3.785 0 0 0-3.854 3.716 3.786 3.786 0 0 0 3.722 3.847 3.787 3.787 0 0 0 3.854-3.715M110.195 471.161a2.846 2.846 0 0 0-2.8-2.893 2.847 2.847 0 0 0-2.898 2.794 2.846 2.846 0 0 0 2.8 2.894 2.847 2.847 0 0 0 2.898-2.795M20.81 383.628a3.918 3.918 0 0 0-3.853-3.983 3.918 3.918 0 0 0-3.99 3.846 3.917 3.917 0 0 0 3.853 3.982 3.918 3.918 0 0 0 3.99-3.845M16.374 468.26l2.89.05-.05 2.885-2.89-.05z"/>
        <path fill="#FFAEE4" d="M19.239 469.753a1.443 1.443 0 0 0-1.42-1.468 1.443 1.443 0 1 0-.05 2.885 1.444 1.444 0 0 0 1.47-1.417"/>
    </g>
</svg>
