<svg xmlns="http://www.w3.org/2000/svg" width="1440" height="888" viewBox="0 0 1440 888">
    <g fill="none" fill-rule="nonzero" transform="translate(-123 -163)">
        <path fill="#F50" d="M113.409 547.86l4.731-6.451 6.451 4.731-4.731 6.451z"/>
        <path fill="#F50" d="M113.409 547.86l4.731-6.451 6.451 4.731-4.731 6.451zM177.813 492.682l3.505-4.87 4.87 3.506-3.506 4.87z"/>
        <path fill="#F50" d="M177.813 492.682l3.505-4.87 4.87 3.506-3.506 4.87zM199.394 477.338l10.268-3.944 3.944 10.268-10.268 3.944z"/>
        <path fill="#F50" d="M199.394 477.338l10.268-3.944 3.944 10.268-10.268 3.944zM243.123 543.644l5.233-8.521 8.521 5.233-5.233 8.521z"/>
        <path fill="#F50" d="M243.123 543.644l5.233-8.521 8.521 5.233-5.233 8.521zM254.776 528.76l.464-6.984 6.984.464-.464 6.984z"/>
        <path fill="#F50" d="M254.776 528.76l.464-6.984 6.984.464-.464 6.984zM320.429 555.315l1.256-6.886 6.886 1.256-1.256 6.886z"/>
        <path fill="#F50" d="M320.429 555.315l1.256-6.886 6.886 1.256-1.256 6.886zM385.607 458.508l.885-3.9 3.9.884-.884 3.9z"/>
        <path fill="#F50" d="M385.607 458.508l.885-3.9 3.9.884-.884 3.9zM436.757 507.086l6.157-3.33 3.33 6.158-6.158 3.33z"/>
        <path fill="#F50" d="M436.757 507.086l6.157-3.33 3.33 6.158-6.158 3.33zM506.51 385.614l4.876-1.104 1.104 4.876-4.876 1.104z"/>
        <path fill="#F50" d="M506.51 385.614l4.876-1.104 1.104 4.876-4.876 1.104zM558.651 569.54l.81-2.889 2.888.81-.81 2.888z"/>
        <path fill="#F50" d="M558.651 569.54l.81-2.889 2.888.81-.81 2.888zM587.747 567.277l5.976-.53.53 5.976-5.976.53z"/>
        <path fill="#F50" d="M587.747 567.277l5.976-.53.53 5.976-5.976.53zM624.307 469.09l1.604-5.783 5.782 1.604-1.604 5.782z"/>
        <path fill="#F50" d="M624.307 469.09l1.604-5.783 5.782 1.604-1.604 5.782zM654.83 550.177l8.993-.347.347 8.993-8.993.347z"/>
        <path fill="#F50" d="M654.83 550.177l8.993-.347.347 8.993-8.993.347zM684.455 420.064l1.48-2.609 2.61 1.48-1.48 2.61z"/>
        <path fill="#F50" d="M684.455 420.064l1.48-2.609 2.61 1.48-1.48 2.61zM820.495 551.302l4.203-6.807 6.807 4.203-4.203 6.807z"/>
        <path fill="#F50" d="M820.495 551.302l4.203-6.807 6.807 4.203-4.203 6.807zM830.14 493.6l2.26-4.46 4.46 2.26-2.26 4.46z"/>
        <path fill="#F50" d="M830.14 493.6l2.26-4.46 4.46 2.26-2.26 4.46z"/>
        <circle cx="128.5" cy="626.5" r="5.5" fill="#DDA812"/>
        <circle cx="174" cy="637" r="4" fill="#DDA812"/>
        <circle cx="434.5" cy="688.5" r="5.5" fill="#DDA812"/>
        <circle cx="260" cy="457" r="5" fill="#DDA812"/>
        <circle cx="304.5" cy="480.5" r="5.5" fill="#DDA812"/>
        <circle cx="322" cy="563" r="2" fill="#DDA812"/>
        <circle cx="432" cy="546" r="5" fill="#DDA812"/>
        <circle cx="502" cy="566" r="5" fill="#DDA812"/>
        <circle cx="623" cy="529" r="2" fill="#DDA812"/>
        <circle cx="697.5" cy="600.5" r="6.5" fill="#DDA812"/>
        <circle cx="787.5" cy="403.5" r="4.5" fill="#DDA812"/>
        <circle cx="763.5" cy="605.5" r="3.5" fill="#DDA812"/>
        <path fill="#9FE2A2" d="M142.259 473.854l1.87-9.823 21.612 4.115-1.87 9.823z"/>
        <path fill="#9FE2A2" d="M142.259 473.854l1.87-9.823 21.612 4.115-1.87 9.823zM163.293 644.692l6.257-6.47 2.157 2.086-6.257 6.47z"/>
        <path fill="#9FE2A2" d="M163.293 644.692l6.257-6.47 2.157 2.086-6.257 6.47zM175.28 506.064l7.548-4.902 10.892 16.774-7.548 4.902z"/>
        <path fill="#9FE2A2" d="M175.28 506.064l7.548-4.902 10.892 16.774-7.548 4.902zM194.377 637.322l7.977-.597 1.27 16.953-7.978.597z"/>
        <path fill="#9FE2A2" d="M194.377 637.322l7.977-.597 1.27 16.953-7.978.597zM271.386 592.924l3.486-10.433 4.742 1.585-3.486 10.433z"/>
        <path fill="#9FE2A2" d="M271.386 592.924l3.486-10.433 4.742 1.585-3.486 10.433zM290.902 623.695l11.731-17.418 7.465 5.028-11.731 17.418z"/>
        <path fill="#9FE2A2" d="M290.902 623.695l11.731-17.418 7.465 5.028-11.731 17.418zM342.223 690.166l10.847-17.981 7.707 4.649-10.847 17.981z"/>
        <path fill="#9FE2A2" d="M342.223 690.166l10.847-17.981 7.707 4.649-10.847 17.981zM372.734 469.713l3.444-2.035 5.088 8.61-3.444 2.034z"/>
        <path fill="#9FE2A2" d="M372.734 469.713l3.444-2.035 5.088 8.61-3.444 2.034zM453.848 472.654l6.91-1.116 2.394 14.808-6.91 1.116z"/>
        <path fill="#9FE2A2" d="M453.848 472.654l6.91-1.116 2.394 14.808-6.91 1.116zM506.242 602.625l16.303-11.586 5.213 7.336-16.303 11.586z"/>
        <path fill="#9FE2A2" d="M506.242 602.625l16.303-11.586 5.213 7.336-16.303 11.586zM556.347 581.72l12.007-4.982 2.3 5.542-12.008 4.982z"/>
        <path fill="#9FE2A2" d="M556.347 581.72l12.007-4.982 2.3 5.542-12.008 4.982zM600.893 557.677l6.427-4.764 1.787 2.41-6.427 4.764z"/>
        <path fill="#9FE2A2" d="M600.893 557.677l6.427-4.764 1.787 2.41-6.427 4.764zM633.253 479.202l13.006-7.473 3.488 6.07-13.006 7.472z"/>
        <path fill="#9FE2A2" d="M633.253 479.202l13.006-7.473 3.488 6.07-13.006 7.472zM667.033 637.348l2.376-4.4 10.558 5.704-2.376 4.4z"/>
        <path fill="#9FE2A2" d="M667.033 637.348l2.376-4.4 10.558 5.704-2.376 4.4zM749.813 499.551l2.43-3.177 7.944 6.075-2.43 3.177z"/>
        <path fill="#9FE2A2" d="M749.813 499.551l2.43-3.177 7.944 6.075-2.43 3.177zM813.683 688.4l13.541-17.34 7.093 5.54-13.541 17.34z"/>
        <path fill="#9FE2A2" d="M813.683 688.4l13.541-17.34 7.093 5.54-13.541 17.34zM843.334 498.296l13.229-12.207 6.103 6.615-13.229 12.207z"/>
        <path fill="#9FE2A2" d="M843.334 498.296l13.229-12.207 6.103 6.615-13.229 12.207z"/>
        <path fill="#FFAEE4" d="M128.475 546.348l8.162-5.777 2.888 4.081-8.162 5.777z"/>
        <path fill="#FFAEE4" d="M128.475 546.348l8.162-5.777 2.888 4.081-8.162 5.777zM218.757 691.13l4.994-.247.492 9.988-4.994.246z"/>
        <path fill="#FFAEE4" d="M218.757 691.13l4.994-.247.492 9.988-4.994.246zM240.017 521.293l7.912-4.29 9.054 16.704-7.912 4.29z"/>
        <path fill="#FFAEE4" d="M240.017 521.293l7.912-4.29 9.054 16.704-7.912 4.29zM345.41 709.232l.198-2.994 7.983.53-.2 2.994z"/>
        <path fill="#FFAEE4" d="M345.41 709.232l.198-2.994 7.983.53-.2 2.994zM330.324 591.715l1.388-8.892 2.964.462-1.388 8.892z"/>
        <path fill="#FFAEE4" d="M330.324 591.715l1.388-8.892 2.964.462-1.388 8.892zM350.18 570.512l.84-3.91 8.8 1.886-.84 3.91z"/>
        <path fill="#FFAEE4" d="M350.18 570.512l.84-3.91 8.8 1.886-.84 3.91zM365.712 548.729l9.572-19.809 9.004 4.351-9.572 19.809z"/>
        <path fill="#FFAEE4" d="M365.712 548.729l9.572-19.809 9.004 4.351-9.572 19.809zM437.077 599.38l3.632-8.235 19.214 8.475-3.632 8.235z"/>
        <path fill="#FFAEE4" d="M437.077 599.38l3.632-8.235 19.214 8.475-3.632 8.235zM428.035 520.62l18.148-8.406 3.782 8.167-18.148 8.405z"/>
        <path fill="#FFAEE4" d="M428.035 520.62l18.148-8.406 3.782 8.167-18.148 8.405zM454.071 553.359l21.068-11.496 4.79 8.778-21.068 11.496z"/>
        <path fill="#FFAEE4" d="M454.071 553.359l21.068-11.496 4.79 8.778-21.068 11.496zM518.94 474.027l4-.053.12 8.999-4 .053z"/>
        <path fill="#FFAEE4" d="M518.94 474.027l4-.053.12 8.999-4 .053zM636.13 597.723l2.886-11.648 4.853 1.202-2.885 11.648z"/>
        <path fill="#FFAEE4" d="M636.13 597.723l2.886-11.648 4.853 1.202-2.885 11.648zM623.41 414.276l8.017-16.116 7.163 3.564-8.017 16.116z"/>
        <path fill="#FFAEE4" d="M623.41 414.276l8.017-16.116 7.163 3.564-8.017 16.116zM712.796 492.526l10.333-10.874 5.075 4.822-10.333 10.874z"/>
        <path fill="#FFAEE4" d="M712.796 492.526l10.333-10.874 5.075 4.822-10.333 10.874zM740.324 423.283l21.558-4.386 1.794 8.82-21.558 4.386z"/>
        <path fill="#FFAEE4" d="M740.324 423.283l21.558-4.386 1.794 8.82-21.558 4.386z"/>
        <path fill="#DDA812" d="M155.625 463.971l12.244-10.3 4.506 5.358-12.244 10.3z"/>
        <path fill="#DDA812" d="M155.625 463.971l12.244-10.3 4.506 5.358-12.244 10.3zM212.083 429.82l2.276-1.953 4.558 5.312-2.276 1.954z"/>
        <path fill="#DDA812" d="M212.083 429.82l2.276-1.953 4.558 5.312-2.276 1.954zM261.68 423.5l8.69-2.344 4.95 18.344-8.69 2.344z"/>
        <path fill="#DDA812" d="M261.68 423.5l8.69-2.344 4.95 18.344-8.69 2.344zM351.98 390.68l4.429-7.836 2.611 1.477-4.429 7.835z"/>
        <path fill="#DDA812" d="M351.98 390.68l4.429-7.836 2.611 1.477-4.429 7.835zM372.84 478.625l8.983-9.397 4.337 4.147-8.983 9.397z"/>
        <path fill="#DDA812" d="M370.837 479.617l8.994-9.386 4.332 4.152-8.994 9.386zM442.884 397.295l21.992-.587.24 8.997-21.992.587z"/>
        <path fill="#DDA812" d="M442.884 397.295l21.992-.587.24 8.997-21.992.587zM431.41 561.567l8.89-4.579 2.29 4.445-8.89 4.579z"/>
        <path fill="#DDA812" d="M431.41 561.567l8.89-4.579 2.29 4.445-8.89 4.579zM493.458 528.496l10.017-4.545 2.067 4.553-10.017 4.545z"/>
        <path fill="#DDA812" d="M493.458 528.496l10.017-4.545 2.067 4.553-10.017 4.545zM534.095 506.84l19.748-7.143 3.062 8.463-19.748 7.143z"/>
        <path fill="#DDA812" d="M534.095 506.84l19.748-7.143 3.062 8.463-19.748 7.143zM508.489 626.47l.023-3 8 .06-.024 3z"/>
        <path fill="#DDA812" d="M508.489 626.47l.023-3 8 .06-.024 3zM578.652 482.316l5.524-8.336 19.172 12.704-5.524 8.336z"/>
        <path fill="#DDA812" d="M578.652 482.316l5.524-8.336 19.172 12.704-5.524 8.336zM593.764 595.093l1.503-17.937 8.969.751-1.503 17.937z"/>
        <path fill="#DDA812" d="M593.764 595.093l1.503-17.937 8.969.751-1.503 17.937zM594.054 626.268l6.725-1.945 4.167 14.41-6.725 1.944z"/>
        <path fill="#DDA812" d="M594.054 626.268l6.725-1.945 4.167 14.41-6.725 1.944zM598.783 646.604l11.941-1.184.493 4.976-11.941 1.184z"/>
        <path fill="#DDA812" d="M598.783 646.604l11.941-1.184.493 4.976-11.941 1.184zM675.443 602.381l1.385-7.879 17.729 3.117-1.385 7.879z"/>
        <path fill="#DDA812" d="M675.443 602.381l1.385-7.879 17.729 3.117-1.385 7.879zM656.026 693.054l11.952-14.77 6.996 5.662-11.952 14.77z"/>
        <path fill="#DDA812" d="M656.026 693.054l11.952-14.77 6.996 5.662-11.952 14.77zM740.978 687.346l7.885-4.339 9.16 16.647-7.886 4.339z"/>
        <path fill="#DDA812" d="M740.978 687.346l7.885-4.339 9.16 16.647-7.886 4.339zM806.335 580.938l16.596-3.686 1.734 7.81-16.596 3.686z"/>
        <path fill="#DDA812" d="M806.335 580.938l16.596-3.686 1.734 7.81-16.596 3.686z"/>
        <circle cx="776.5" cy="463.5" r="5.5" fill="#F50"/>
        <circle cx="794" cy="527" r="4" fill="#F50"/>
        <circle cx="378.5" cy="398.5" r="5.5" fill="#F50"/>
        <circle cx="708" cy="706" r="5" fill="#F50"/>
        <circle cx="662.5" cy="682.5" r="5.5" fill="#F50"/>
        <circle cx="645" cy="598" r="2" fill="#F50"/>
        <circle cx="535" cy="617" r="5" fill="#F50"/>
        <circle cx="465" cy="596" r="5" fill="#F50"/>
        <circle cx="344" cy="634" r="2" fill="#F50"/>
        <circle cx="304.5" cy="545.5" r="6.5" fill="#F50"/>
        <circle cx="219.5" cy="594.5" r="4.5" fill="#F50"/>
        <circle cx="204.5" cy="558.5" r="3.5" fill="#F50"/>
        <circle cx="129.5" cy="511.5" r="3.5" fill="#F50"/>
        <path fill="#9FE2A2" d="M887.746 527.3l2.954-9.554 9.554 2.954-2.954 9.554z"/>
        <path fill="#9FE2A2" d="M887.746 527.3l2.954-9.554 9.554 2.954-2.954 9.554zM815.988 505.623l2.39-7.635 7.634 2.39-2.39 7.634z"/>
        <path fill="#9FE2A2" d="M815.988 505.623l2.39-7.635 7.634 2.39-2.39 7.634zM714.102 390.77l2.128-6.668 6.668 2.128-2.128 6.668z"/>
        <path fill="#9FE2A2" d="M714.102 390.77l2.128-6.668 6.668 2.128-2.128 6.668zM725.146 575.859l5.995-6.713 6.713 5.995-5.995 6.713z"/>
        <path fill="#9FE2A2" d="M725.146 575.859l5.995-6.713 6.713 5.995-5.995 6.713zM693.393 416.52l4.087-9.127 9.127 4.087-4.087 9.127z"/>
        <path fill="#9FE2A2" d="M693.393 416.52l4.087-9.127 9.127 4.087-4.087 9.127zM678.121 371.458l4.42-2.337 2.338 4.42-4.42 2.338z"/>
        <path fill="#9FE2A2" d="M678.121 371.458l4.42-2.337 2.338 4.42-4.42 2.338zM614.653 387.505l3.842-5.852 5.852 3.842-3.842 5.852z"/>
        <path fill="#9FE2A2" d="M614.653 387.505l3.842-5.852 5.852 3.842-3.842 5.852zM586.637 517.395l8.968-.758.758 8.968-8.968.758z"/>
        <path fill="#9FE2A2" d="M586.637 517.395l8.968-.758.758 8.968-8.968.758zM485.165 420.893l6.942-5.728 5.728 6.942-6.942 5.728z"/>
        <path fill="#9FE2A2" d="M485.165 420.893l6.942-5.728 5.728 6.942-6.942 5.728zM418.163 422.967l1.87-8.804 8.804 1.87-1.87 8.804z"/>
        <path fill="#9FE2A2" d="M418.163 422.967l1.87-8.804 8.804 1.87-1.87 8.804zM426.468 561.604l8.928-1.136 1.136 8.928-8.928 1.136z"/>
        <path fill="#9FE2A2" d="M426.468 561.604l8.928-1.136 1.136 8.928-8.928 1.136zM348.4 473.798l4.802-1.397 1.397 4.8-4.8 1.398z"/>
        <path fill="#9FE2A2" d="M348.4 473.798l4.802-1.397 1.397 4.8-4.8 1.398zM344.523 616.269l1.208-2.746 2.746 1.208-1.208 2.746z"/>
        <path fill="#9FE2A2" d="M344.523 616.269l1.208-2.746 2.746 1.208-1.208 2.746zM304.801 542.547l10.652-2.746 2.746 10.652-10.652 2.746z"/>
        <path fill="#9FE2A2" d="M304.801 542.547l10.652-2.746 2.746 10.652-10.652 2.746zM212.313 466.009l7.678-4.696 4.696 7.678-7.678 4.696z"/>
        <path fill="#9FE2A2" d="M212.313 466.009l7.678-4.696 4.696 7.678-7.678 4.696zM194.92 604.753l9.327-5.832 5.832 9.326-9.326 5.832z"/>
        <path fill="#9FE2A2" d="M194.92 604.753l9.327-5.832 5.832 9.326-9.326 5.832zM140.4 581.804l1.796-2.403 2.403 1.795-1.795 2.403z"/>
        <path fill="#9FE2A2" d="M140.4 581.804l1.796-2.403 2.403 1.795-1.795 2.403zM144.598 648.185l4.217-5.587 5.587 4.217-4.217 5.587z"/>
        <path fill="#9FE2A2" d="M144.598 648.185l4.217-5.587 5.587 4.217-4.217 5.587zM145.074 699.142l9.784-2.068 2.068 9.784-9.784 2.068z"/>
        <path fill="#9FE2A2" d="M145.074 699.142l9.784-2.068 2.068 9.784-9.784 2.068z"/>
        <circle cx="209.5" cy="453.5" r="4.5" fill="#FFAEE4"/>
        <circle cx="277" cy="512" r="6" fill="#FFAEE4"/>
        <circle cx="336" cy="489" r="5" fill="#FFAEE4"/>
        <circle cx="391.5" cy="428.5" r="5.5" fill="#FFAEE4"/>
        <circle cx="447" cy="538" r="3" fill="#FFAEE4"/>
        <circle cx="539.5" cy="547.5" r="4.5" fill="#FFAEE4"/>
        <path fill="#FFAEE4" d="M519.896 650.106l11.998-.21.21 11.998-11.998.21z"/>
        <circle cx="526" cy="656" r="6" fill="#FFAEE4"/>
        <circle cx="626.5" cy="551.5" r="1.5" fill="#FFAEE4"/>
        <circle cx="660.5" cy="720.5" r="4.5" fill="#FFAEE4"/>
        <circle cx="781" cy="573" r="6" fill="#FFAEE4"/>
        <circle cx="821.5" cy="610.5" r="4.5" fill="#FFAEE4"/>
        <path fill="#FFAEE4" d="M776.957 708.044l4.999-.087.087 4.999-4.999.087z"/>
        <circle cx="779.5" cy="710.5" r="2.5" fill="#FFAEE4"/>
        <path fill="#F50" d="M775.409 319.14l6.45-4.731 4.732 6.45-6.45 4.732z"/>
        <path fill="#F50" d="M775.409 319.14l6.45-4.731 4.732 6.45-6.45 4.732zM713.813 264.318l4.869-3.505 3.505 4.869-4.869 3.505z"/>
        <path fill="#F50" d="M713.813 264.318l4.869-3.505 3.505 4.869-4.869 3.505zM686.394 256.662l3.944-10.268 10.268 3.944-3.944 10.268z"/>
        <path fill="#F50" d="M686.394 256.662l3.944-10.268 10.268 3.944-3.944 10.268zM640.126 315.344l8.53-5.218 5.218 8.53-8.53 5.218z"/>
        <path fill="#F50" d="M643.123 313.356l8.52-5.233 5.234 8.52-8.52 5.234zM636.776 296.24l6.984-.464.464 6.984-6.984.464z"/>
        <path fill="#F50" d="M636.776 296.24l6.984-.464.464 6.984-6.984.464zM569.425 320.69l6.885-1.265 1.265 6.885-6.885 1.265z"/>
        <path fill="#F50" d="M571.429 321.685l6.886-1.256 1.256 6.886-6.886 1.256zM507.607 228.492l3.901-.885.885 3.901-3.901.885z"/>
        <path fill="#F50" d="M507.607 228.492l3.901-.885.885 3.901-3.901.885zM453.757 282.914l3.329-6.157 6.157 3.329-3.329 6.157z"/>
        <path fill="#F50" d="M453.757 282.914l3.329-6.157 6.157 3.329-3.329 6.157zM387.51 163.386l1.104-4.876 4.876 1.104-1.104 4.876z"/>
        <path fill="#F50" d="M387.51 163.386l1.104-4.876 4.876 1.104-1.104 4.876zM336.651 341.46l2.889-.809.809 2.889-2.889.809z"/>
        <path fill="#F50" d="M336.651 341.46l2.889-.809.809 2.889-2.889.809zM305.747 345.723l.53-5.976 5.976.53-.53 5.976z"/>
        <path fill="#F50" d="M305.747 345.723l.53-5.976 5.976.53-.53 5.976zM266.307 238.91l5.782-1.603 1.604 5.782-5.782 1.604z"/>
        <path fill="#F50" d="M266.307 238.91l5.782-1.603 1.604 5.782-5.782 1.604zM235.83 331.823l.347-8.993 8.993.347-.347 8.993z"/>
        <path fill="#F50" d="M235.83 331.823l.347-8.993 8.993.347-.347 8.993zM210.455 191.936l2.61-1.48 1.48 2.608-2.61 1.48z"/>
        <path fill="#F50" d="M210.455 191.936l2.61-1.48 1.48 2.608-2.61 1.48z"/>
        <circle cx="770.5" cy="399.5" r="5.5" fill="#DDA812"/>
        <circle cx="726" cy="410" r="4" fill="#DDA812"/>
        <circle cx="465.5" cy="461.5" r="5.5" fill="#DDA812"/>
        <circle cx="641" cy="230" r="5" fill="#DDA812"/>
        <circle cx="595.5" cy="253.5" r="5.5" fill="#DDA812"/>
        <circle cx="578" cy="337" r="2" fill="#DDA812"/>
        <circle cx="466" cy="319" r="5" fill="#DDA812"/>
        <circle cx="398" cy="340" r="5" fill="#DDA812"/>
        <circle cx="275" cy="303" r="2" fill="#DDA812"/>
        <circle cx="202.5" cy="373.5" r="6.5" fill="#DDA812"/>
        <circle cx="135.5" cy="378.5" r="3.5" fill="#DDA812"/>
        <path fill="#9FE2A2" d="M734.259 242.146l21.612-4.115 1.87 9.823-21.612 4.115z"/>
        <path fill="#9FE2A2" d="M734.259 242.146l21.612-4.115 1.87 9.823-21.612 4.115zM728.293 414.308l2.157-2.086 6.257 6.47-2.157 2.086z"/>
        <path fill="#9FE2A2" d="M728.293 414.308l2.157-2.086 6.257 6.47-2.157 2.086zM705.78 292.436l10.892-16.774 7.548 4.902-10.892 16.774z"/>
        <path fill="#9FE2A2" d="M705.78 292.436l10.892-16.774 7.548 4.902-10.892 16.774zM695.877 428.178l1.269-16.953 7.977.597-1.269 16.953z"/>
        <path fill="#9FE2A2" d="M695.877 428.178l1.269-16.953 7.977.597-1.269 16.953zM619.386 357.076l4.742-1.585 3.486 10.433-4.742 1.585z"/>
        <path fill="#9FE2A2" d="M619.386 357.076l4.742-1.585 3.486 10.433-4.742 1.585zM590.902 384.305l7.465-5.028 11.73 17.418-7.464 5.028z"/>
        <path fill="#9FE2A2" d="M590.897 383.313l7.46-5.034 11.746 17.408-7.46 5.034zM539.223 449.834l7.707-4.65 10.847 17.982-7.707 4.65z"/>
        <path fill="#9FE2A2" d="M539.223 449.834l7.707-4.65 10.847 17.982-7.707 4.65zM518.734 249.287l5.088-8.61 3.444 2.036-5.088 8.61z"/>
        <path fill="#9FE2A2" d="M518.734 249.287l5.088-8.61 3.444 2.036-5.088 8.61zM439.877 260.365l2.331-14.818 6.915 1.088-2.331 14.818z"/>
        <path fill="#9FE2A2" d="M439.877 260.365l2.331-14.818 6.915 1.088-2.331 14.818zM373.737 368.9l5.197-7.349 16.329 11.55-5.197 7.348z"/>
        <path fill="#9FE2A2" d="M373.737 368.9l5.197-7.349 16.329 11.55-5.197 7.348zM326.847 355.791l2.29-5.545 12.016 4.963-2.29 5.545z"/>
        <path fill="#9FE2A2" d="M326.847 355.791l2.29-5.545 12.016 4.963-2.29 5.545zM290.393 327.823l1.787-2.41 6.427 4.764-1.787 2.41z"/>
        <path fill="#9FE2A2" d="M290.393 327.823l1.787-2.41 6.427 4.764-1.787 2.41zM250.253 249.798l3.488-6.07 13.006 7.474-3.488 6.07z"/>
        <path fill="#9FE2A2" d="M250.253 249.798l3.488-6.07 13.006 7.474-3.488 6.07zM220.533 411.152l10.558-5.703 2.376 4.399-10.558 5.703z"/>
        <path fill="#9FE2A2" d="M220.533 411.152l10.558-5.703 2.376 4.399-10.558 5.703zM139.813 276.449l7.944-6.075 2.43 3.177-7.944 6.075z"/>
        <path fill="#9FE2A2" d="M139.813 276.449l7.944-6.075 2.43 3.177-7.944 6.075z"/>
        <path fill="#FFAEE4" d="M790.633 351.552l9.562-2.929 1.172 3.825-9.562 2.929z"/>
        <path fill="#FFAEE4" d="M790.633 351.552l9.562-2.929 1.172 3.825-9.562 2.929zM758.975 318.152l2.888-4.081 8.162 5.777-2.888 4.081z"/>
        <path fill="#FFAEE4" d="M762.974 315.154l2.888-4.082 8.164 5.774-2.888 4.082zM675.257 475.37l.492-9.987 4.994.246-.492 9.988z"/>
        <path fill="#FFAEE4" d="M675.257 475.37l.492-9.987 4.994.246-.492 9.988zM643.017 307.707l9.054-16.703 7.912 4.289-9.054 16.703z"/>
        <path fill="#FFAEE4" d="M643.017 307.707l9.054-16.703 7.912 4.289-9.054 16.703zM546.91 478.268l7.982-.53.199 2.994-7.983.53z"/>
        <path fill="#FFAEE4" d="M546.91 478.268l7.982-.53.199 2.994-7.983.53zM565.343 360.275l2.966-.449 1.348 8.899-2.966.449z"/>
        <path fill="#FFAEE4" d="M565.343 360.275l2.966-.449 1.348 8.899-2.966.449zM539.68 341.988l8.8-1.887.84 3.911-8.8 1.887z"/>
        <path fill="#FFAEE4" d="M539.68 341.988l8.8-1.887.84 3.911-8.8 1.887zM514.712 305.271l9.004-4.35 9.572 19.808-9.004 4.35z"/>
        <path fill="#FFAEE4" d="M514.712 305.271l9.004-4.35 9.572 19.808-9.004 4.35zM440.077 371.62l19.214-8.475 3.632 8.235-19.214 8.475z"/>
        <path fill="#FFAEE4" d="M440.077 371.62l19.214-8.475 3.632 8.235-19.214 8.475zM449.535 293.88l3.782-8.166 18.148 8.405-3.782 8.167z"/>
        <path fill="#FFAEE4" d="M449.535 293.88l3.782-8.166 18.148 8.405-3.782 8.167zM419.071 323.641l4.79-8.778 21.068 11.496-4.79 8.778z"/>
        <path fill="#FFAEE4" d="M419.071 323.641l4.79-8.778 21.068 11.496-4.79 8.778zM377.44 256.473l.12-9 4 .054-.12 9z"/>
        <path fill="#FFAEE4" d="M377.44 256.473l.12-9 4 .054-.12 9zM255.63 359.777l4.854-1.202 2.885 11.648-4.853 1.202z"/>
        <path fill="#FFAEE4" d="M255.63 359.777l4.854-1.202 2.885 11.648-4.853 1.202zM260.41 174.724l7.163-3.564 8.017 16.116-7.163 3.564z"/>
        <path fill="#FFAEE4" d="M260.41 174.724l7.163-3.564 8.017 16.116-7.163 3.564zM171.796 259.474l5.075-4.822 10.333 10.874-5.075 4.822z"/>
        <path fill="#FFAEE4" d="M171.796 259.474l5.075-4.822 10.333 10.874-5.075 4.822zM136.824 201.217l1.794-8.82 21.558 4.386-1.794 8.82z"/>
        <path fill="#FFAEE4" d="M136.824 201.217l1.794-8.82 21.558 4.386-1.794 8.82z"/>
        <path fill="#DDA812" d="M727.125 231.529l4.506-5.357 12.244 10.3-4.506 5.356z"/>
        <path fill="#DDA812" d="M727.125 231.529l4.506-5.357 12.244 10.3-4.506 5.356zM679.085 206.185l4.55-5.32 2.28 1.95-4.55 5.32z"/>
        <path fill="#DDA812" d="M679.085 206.185l4.55-5.32 2.28 1.95-4.55 5.32zM625.064 209.994l5.178-19.318 8.694 2.33-5.178 19.318z"/>
        <path fill="#DDA812" d="M625.064 209.994l5.178-19.318 8.694 2.33-5.178 19.318zM539.98 158.32l2.611-1.476 4.43 7.835-2.612 1.477z"/>
        <path fill="#DDA812" d="M539.98 158.32l2.611-1.476 4.43 7.835-2.612 1.477zM514.34 246.875l4.337-4.147 8.983 9.397-4.337 4.147z"/>
        <path fill="#DDA812" d="M514.34 246.875l4.337-4.147 8.983 9.397-4.337 4.147zM434.384 178.205l.24-8.997 21.992.587-.24 8.997z"/>
        <path fill="#DDA812" d="M434.384 178.205l.24-8.997 21.992.587-.24 8.997zM456.91 333.933l2.29-4.445 8.89 4.579-2.29 4.445z"/>
        <path fill="#DDA812" d="M456.91 333.933l2.29-4.445 8.89 4.579-2.29 4.445zM394.458 301.504l2.067-4.553 10.017 4.545-2.067 4.553z"/>
        <path fill="#DDA812" d="M394.458 301.504l2.067-4.553 10.017 4.545-2.067 4.553zM342.096 283.175l3.05-8.467 19.758 7.117-3.05 8.467z"/>
        <path fill="#DDA812" d="M342.096 283.175l3.05-8.467 19.758 7.117-3.05 8.467zM382.989 397.03l8-.06.022 3-8 .06z"/>
        <path fill="#DDA812" d="M382.989 397.03l8-.06.022 3-8 .06zM293.148 257.165l19.193-12.675 5.51 8.345-19.192 12.675z"/>
        <path fill="#DDA812" d="M293.148 257.165l19.193-12.675 5.51 8.345-19.192 12.675zM295.264 349.407l8.969-.751 1.503 17.937-8.969.751z"/>
        <path fill="#DDA812" d="M295.264 349.407l8.969-.751 1.503 17.937-8.969.751zM296.04 411.72l4.2-14.4 6.72 1.96-4.2 14.4z"/>
        <path fill="#DDA812" d="M296.04 411.72l4.2-14.4 6.72 1.96-4.2 14.4zM287.283 422.896l.493-4.976 11.941 1.184-.493 4.976z"/>
        <path fill="#DDA812" d="M287.283 422.896l.493-4.976 11.941 1.184-.493 4.976zM205.443 370.619l17.729-3.117 1.385 7.88-17.729 3.116z"/>
        <path fill="#DDA812" d="M205.443 370.619l17.729-3.117 1.385 7.88-17.729 3.116zM225.026 456.946l6.996-5.662 11.952 14.77-6.996 5.662z"/>
        <path fill="#DDA812" d="M225.026 456.946l6.996-5.662 11.952 14.77-6.996 5.662zM141.978 472.654l9.159-16.647 7.885 4.339-9.159 16.647z"/>
        <path fill="#DDA812" d="M141.978 472.654l9.159-16.647 7.885 4.339-9.159 16.647z"/>
        <circle cx="123.5" cy="236.5" r="5.5" fill="#F50"/>
        <circle cx="521.5" cy="170.5" r="5.5" fill="#F50"/>
        <circle cx="191" cy="479" r="5" fill="#F50"/>
        <circle cx="236.5" cy="455.5" r="5.5" fill="#F50"/>
        <circle cx="254" cy="372" r="2" fill="#F50"/>
        <circle cx="366" cy="389" r="5" fill="#F50"/>
        <circle cx="434" cy="369" r="5" fill="#F50"/>
        <circle cx="556" cy="406" r="2" fill="#F50"/>
        <circle cx="596.5" cy="319.5" r="6.5" fill="#F50"/>
        <circle cx="680.5" cy="366.5" r="4.5" fill="#F50"/>
        <circle cx="696.5" cy="329.5" r="3.5" fill="#F50"/>
        <circle cx="770.5" cy="285.5" r="3.5" fill="#F50"/>
        <path fill="#9FE2A2" d="M177.102 160.23l6.668-2.128 2.128 6.668-6.668 2.128z"/>
        <path fill="#9FE2A2" d="M177.102 160.23l6.668-2.128 2.128 6.668-6.668 2.128zM162.146 347.141l6.713-5.995 5.995 6.713-6.713 5.995z"/>
        <path fill="#9FE2A2" d="M162.146 347.141l6.713-5.995 5.995 6.713-6.713 5.995zM191.393 185.48l9.127-4.087 4.087 9.127-9.127 4.087z"/>
        <path fill="#9FE2A2" d="M191.393 185.48l9.127-4.087 4.087 9.127-9.127 4.087zM275.653 158.495l5.852-3.842 3.842 5.852-5.852 3.842z"/>
        <path fill="#9FE2A2" d="M275.653 158.495l5.852-3.842 3.842 5.852-5.852 3.842zM303.637 299.605l.758-8.968 8.968.758-.758 8.968z"/>
        <path fill="#9FE2A2" d="M303.637 299.605l.758-8.968 8.968.758-.758 8.968zM402.165 195.107l5.728-6.942 6.942 5.728-5.728 6.942z"/>
        <path fill="#9FE2A2" d="M402.165 195.107l5.728-6.942 6.942 5.728-5.728 6.942zM471.163 189.033l8.804-1.87 1.87 8.804-8.804 1.87z"/>
        <path fill="#9FE2A2" d="M471.163 189.033l8.804-1.87 1.87 8.804-8.804 1.87zM463.468 342.396l1.136-8.928 8.928 1.136-1.136 8.928z"/>
        <path fill="#9FE2A2" d="M463.468 342.396l1.136-8.928 8.928 1.136-1.136 8.928zM545.4 249.202l1.398-4.801 4.801 1.397-1.397 4.801z"/>
        <path fill="#9FE2A2" d="M545.4 249.202l1.398-4.801 4.801 1.397-1.397 4.801zM549.523 388.731l2.746-1.208 1.208 2.746-2.746 1.208z"/>
        <path fill="#9FE2A2" d="M549.523 388.731l2.746-1.208 1.208 2.746-2.746 1.208zM579.784 321.424l2.792-10.64 10.64 2.792-2.792 10.64z"/>
        <path fill="#9FE2A2" d="M579.784 321.424l2.792-10.64 10.64 2.792-2.792 10.64zM673.313 243.99l4.697-7.677 7.677 4.697-4.697 7.677z"/>
        <path fill="#9FE2A2" d="M675.313 242.991l4.696-7.678 7.678 4.696-4.696 7.678zM688.92 381.247l5.833-9.326 9.326 5.832-5.832 9.326z"/>
        <path fill="#9FE2A2" d="M688.92 381.247l5.833-9.326 9.326 5.832-5.832 9.326zM754.4 355.196l2.404-1.795 1.795 2.403-2.403 1.795z"/>
        <path fill="#9FE2A2" d="M754.4 355.196l2.404-1.795 1.795 2.403-2.403 1.795zM746.598 420.815l5.587-4.217 4.217 5.587-5.587 4.217z"/>
        <path fill="#9FE2A2" d="M746.598 420.815l5.587-4.217 4.217 5.587-5.587 4.217zM742.074 480.858l2.068-9.784 9.784 2.068-2.068 9.784z"/>
        <path fill="#9FE2A2" d="M742.074 480.858l2.068-9.784 9.784 2.068-2.068 9.784z"/>
        <circle cx="689.5" cy="227.5" r="4.5" fill="#FFAEE4"/>
        <circle cx="623" cy="285" r="6" fill="#FFAEE4"/>
        <circle cx="564" cy="262" r="5" fill="#FFAEE4"/>
        <circle cx="506.5" cy="202.5" r="5.5" fill="#FFAEE4"/>
        <circle cx="452" cy="311" r="3" fill="#FFAEE4"/>
        <circle cx="361.5" cy="321.5" r="4.5" fill="#FFAEE4"/>
        <path fill="#FFAEE4" d="M365.896 434.894l.21-11.998 11.998.21-.21 11.998z"/>
        <circle cx="372" cy="429" r="6" fill="#FFAEE4"/>
        <circle cx="273.5" cy="324.5" r="1.5" fill="#FFAEE4"/>
        <circle cx="238.5" cy="494.5" r="4.5" fill="#FFAEE4"/>
        <path fill="#F50" d="M141.409 194.14l6.45-4.731 4.732 6.45-6.45 4.732z"/>
        <path fill="#F50" d="M141.409 194.14l6.45-4.731 4.732 6.45-6.45 4.732zM205.813 249.318l4.869-3.505 3.505 4.869-4.869 3.505z"/>
        <path fill="#F50" d="M205.813 249.318l4.869-3.505 3.505 4.869-4.869 3.505zM226.394 263.662l3.944-10.268 10.268 3.944-3.944 10.268z"/>
        <path fill="#F50" d="M226.394 263.662l3.944-10.268 10.268 3.944-3.944 10.268zM269.126 198.344l8.53-5.218 5.218 8.53-8.53 5.218z"/>
        <path fill="#F50" d="M271.123 198.356l8.52-5.233 5.234 8.52-8.52 5.234zM282.776 213.24l6.984-.464.464 6.984-6.984.464z"/>
        <path fill="#F50" d="M282.776 213.24l6.984-.464.464 6.984-6.984.464zM348.429 186.685l6.886-1.256 1.256 6.886-6.886 1.256z"/>
        <path fill="#F50" d="M348.429 186.685l6.886-1.256 1.256 6.886-6.886 1.256zM413.607 282.492l3.901-.885.885 3.901-3.901.885z"/>
        <path fill="#F50" d="M413.607 282.492l3.901-.885.885 3.901-3.901.885zM464.757 235.914l3.329-6.157 6.157 3.329-3.329 6.157z"/>
        <path fill="#F50" d="M464.757 235.914l3.329-6.157 6.157 3.329-3.329 6.157zM533.51 355.386l1.104-4.876 4.876 1.104-1.104 4.876z"/>
        <path fill="#F50" d="M533.51 355.386l1.104-4.876 4.876 1.104-1.104 4.876zM586.651 171.46l2.889-.809.809 2.889-2.889.809z"/>
        <path fill="#F50" d="M584.65 170.462l2.888-.812.812 2.888-2.888.812zM615.747 174.723l.53-5.976 5.976.53-.53 5.976z"/>
        <path fill="#F50" d="M615.747 174.723l.53-5.976 5.976.53-.53 5.976zM653.307 272.91l5.782-1.603 1.604 5.782-5.782 1.604z"/>
        <path fill="#F50" d="M653.307 272.91l5.782-1.603 1.604 5.782-5.782 1.604zM681.83 191.823l.347-8.993 8.993.347-.347 8.993z"/>
        <path fill="#F50" d="M681.83 191.823l.347-8.993 8.993.347-.347 8.993zM712.455 321.936l2.61-1.48 1.48 2.608-2.61 1.48z"/>
        <path fill="#F50" d="M712.455 321.936l2.61-1.48 1.48 2.608-2.61 1.48zM847.495 190.698l6.807-4.203 4.203 6.807-6.807 4.203z"/>
        <path fill="#F50" d="M847.495 190.698l6.807-4.203 4.203 6.807-6.807 4.203zM857.14 248.4l4.46-2.26 2.26 4.46-4.46 2.26z"/>
        <path fill="#F50" d="M857.14 248.4l4.46-2.26 2.26 4.46-4.46 2.26z"/>
        <circle cx="288" cy="285" r="5" fill="#DDA812"/>
        <circle cx="330.5" cy="261.5" r="5.5" fill="#DDA812"/>
        <circle cx="349" cy="178" r="2" fill="#DDA812"/>
        <circle cx="460" cy="196" r="5" fill="#DDA812"/>
        <circle cx="530" cy="175" r="5" fill="#DDA812"/>
        <circle cx="651" cy="212" r="2" fill="#DDA812"/>
        <circle cx="816.5" cy="338.5" r="4.5" fill="#DDA812"/>
        <path fill="#9FE2A2" d="M168.259 267.146l21.612-4.115 1.87 9.823-21.612 4.115z"/>
        <path fill="#9FE2A2" d="M168.259 267.146l21.612-4.115 1.87 9.823-21.612 4.115zM202.807 234.478l10.815-16.823 7.57 4.867-10.814 16.823z"/>
        <path fill="#9FE2A2" d="M203.78 234.436l10.892-16.774 7.548 4.902-10.892 16.774zM400.73 271.28l5.1-8.6 3.44 2.04-5.1 8.6z"/>
        <path fill="#9FE2A2" d="M400.73 271.28l5.1-8.6 3.44 2.04-5.1 8.6zM476.877 268.365l2.331-14.818 6.915 1.088-2.331 14.818z"/>
        <path fill="#9FE2A2" d="M476.877 268.365l2.331-14.818 6.915 1.088-2.331 14.818zM581.847 161.791l2.29-5.545 12.016 4.963-2.29 5.545z"/>
        <path fill="#9FE2A2" d="M581.847 161.791l2.29-5.545 12.016 4.963-2.29 5.545zM628.393 185.823l1.787-2.41 6.427 4.764-1.787 2.41z"/>
        <path fill="#9FE2A2" d="M628.393 185.823l1.787-2.41 6.427 4.764-1.787 2.41zM661.253 262.798l3.488-6.07 13.006 7.474-3.488 6.07z"/>
        <path fill="#9FE2A2" d="M661.253 262.798l3.488-6.07 13.006 7.474-3.488 6.07zM776.813 241.449l7.944-6.075 2.43 3.177-7.944 6.075z"/>
        <path fill="#9FE2A2" d="M776.813 241.449l7.944-6.075 2.43 3.177-7.944 6.075zM871.834 244.204l6.103-6.615 13.229 12.207-6.103 6.615z"/>
        <path fill="#9FE2A2" d="M871.834 244.204l6.103-6.615 13.229 12.207-6.103 6.615z"/>
        <path fill="#FFAEE4" d="M126.633 162.552l9.562-2.929 1.172 3.825-9.562 2.929z"/>
        <path fill="#FFAEE4" d="M126.633 162.552l9.562-2.929 1.172 3.825-9.562 2.929zM158.974 194.154l2.888-4.082 8.164 5.774-2.888 4.082z"/>
        <path fill="#FFAEE4" d="M158.974 194.154l2.888-4.082 8.164 5.774-2.888 4.082zM267.017 219.707l9.054-16.703 7.912 4.289-9.054 16.703z"/>
        <path fill="#FFAEE4" d="M267.017 219.707l9.054-16.703 7.912 4.289-9.054 16.703zM378.68 170.988l8.8-1.887.84 3.911-8.8 1.887z"/>
        <path fill="#FFAEE4" d="M378.68 170.988l8.8-1.887.84 3.911-8.8 1.887zM393.712 192.271l9.004-4.35 9.572 19.808-9.004 4.35z"/>
        <path fill="#FFAEE4" d="M393.712 192.271l9.004-4.35 9.572 19.808-9.004 4.35zM455.535 220.88l3.782-8.166 18.148 8.405-3.782 8.167z"/>
        <path fill="#FFAEE4" d="M455.535 220.88l3.782-8.166 18.148 8.405-3.782 8.167zM482.071 189.641l4.79-8.778 21.068 11.496-4.79 8.778z"/>
        <path fill="#FFAEE4" d="M482.071 189.641l4.79-8.778 21.068 11.496-4.79 8.778zM544.44 267.473l.12-9 4 .054-.12 9z"/>
        <path fill="#FFAEE4" d="M544.44 267.473l.12-9 4 .054-.12 9zM651.41 327.724l7.163-3.564 8.017 16.116-7.163 3.564z"/>
        <path fill="#FFAEE4" d="M651.41 327.724l7.163-3.564 8.017 16.116-7.163 3.564zM740.796 247.474l5.075-4.822 10.333 10.874-5.075 4.822z"/>
        <path fill="#FFAEE4" d="M740.796 247.474l5.075-4.822 10.333 10.874-5.075 4.822zM766.824 317.217l1.794-8.82 21.558 4.386-1.794 8.82z"/>
        <path fill="#FFAEE4" d="M766.824 317.217l1.794-8.82 21.558 4.386-1.794 8.82z"/>
        <path fill="#DDA812" d="M183.125 277.529l4.506-5.357 12.244 10.3-4.506 5.356z"/>
        <path fill="#DDA812" d="M183.125 277.529l4.506-5.357 12.244 10.3-4.506 5.356zM241.085 311.185l4.55-5.32 2.28 1.95-4.55 5.32z"/>
        <path fill="#DDA812" d="M241.085 311.185l4.55-5.32 2.28 1.95-4.55 5.32zM290.064 316.994l5.178-19.318 8.694 2.33-5.178 19.318z"/>
        <path fill="#DDA812" d="M290.064 316.994l5.178-19.318 8.694 2.33-5.178 19.318zM378.98 350.32l2.611-1.476 4.43 7.835-2.612 1.477z"/>
        <path fill="#DDA812" d="M378.98 350.32l2.611-1.476 4.43 7.835-2.612 1.477zM399.34 262.875l4.337-4.147 8.983 9.397-4.337 4.147z"/>
        <path fill="#DDA812" d="M399.34 262.875l4.337-4.147 8.983 9.397-4.337 4.147zM471.384 345.205l.24-8.997 21.992.587-.24 8.997z"/>
        <path fill="#DDA812" d="M471.384 345.205l.24-8.997 21.992.587-.24 8.997zM459.91 179.933l2.29-4.445 8.89 4.579-2.29 4.445z"/>
        <path fill="#DDA812" d="M459.91 179.933l2.29-4.445 8.89 4.579-2.29 4.445zM520.458 213.504l2.067-4.553 10.017 4.545-2.067 4.553z"/>
        <path fill="#DDA812" d="M520.458 213.504l2.067-4.553 10.017 4.545-2.067 4.553zM561.096 233.175l3.05-8.467 19.758 7.117-3.05 8.467z"/>
        <path fill="#DDA812" d="M561.096 233.175l3.05-8.467 19.758 7.117-3.05 8.467zM609.148 262.165l19.193-12.675 5.51 8.345-19.192 12.675z"/>
        <path fill="#DDA812" d="M609.148 262.165l19.193-12.675 5.51 8.345-19.192 12.675zM621.264 146.407l8.969-.751 1.503 17.937-8.969.751z"/>
        <path fill="#DDA812" d="M621.264 146.407l8.969-.751 1.503 17.937-8.969.751zM833.835 159.562l1.734-7.81 16.596 3.686-1.734 7.81z"/>
        <path fill="#DDA812" d="M833.835 159.562l1.734-7.81 16.596 3.686-1.734 7.81z"/>
        <circle cx="802.5" cy="277.5" r="5.5" fill="#F50"/>
        <circle cx="822" cy="216" r="4" fill="#F50"/>
        <circle cx="406.5" cy="343.5" r="5.5" fill="#F50"/>
        <circle cx="331.5" cy="195.5" r="6.5" fill="#F50"/>
        <circle cx="231.5" cy="184.5" r="3.5" fill="#F50"/>
        <circle cx="156.5" cy="229.5" r="3.5" fill="#F50"/>
        <path fill="#9FE2A2" d="M914.746 214.7l9.554-2.954 2.954 9.554-9.554 2.954z"/>
        <path fill="#9FE2A2" d="M914.746 214.7l9.554-2.954 2.954 9.554-9.554 2.954zM843.988 236.377l7.635-2.39 2.39 7.636-7.636 2.39z"/>
        <path fill="#9FE2A2" d="M843.988 236.377l7.635-2.39 2.39 7.636-7.636 2.39zM741.102 350.23l6.668-2.128 2.128 6.668-6.668 2.128z"/>
        <path fill="#9FE2A2" d="M741.102 350.23l6.668-2.128 2.128 6.668-6.668 2.128zM752.146 167.141l6.713-5.995 5.995 6.713-6.713 5.995z"/>
        <path fill="#9FE2A2" d="M752.146 167.141l6.713-5.995 5.995 6.713-6.713 5.995zM722.393 323.48l9.127-4.087 4.087 9.127-9.127 4.087z"/>
        <path fill="#9FE2A2" d="M722.393 323.48l9.127-4.087 4.087 9.127-9.127 4.087zM706.121 370.542l2.337-4.42 4.42 2.336-2.336 4.42z"/>
        <path fill="#9FE2A2" d="M706.121 370.542l2.337-4.42 4.42 2.336-2.336 4.42zM641.653 354.495l5.852-3.842 3.842 5.852-5.852 3.842z"/>
        <path fill="#9FE2A2" d="M641.653 354.495l5.852-3.842 3.842 5.852-5.852 3.842zM613.637 223.605l.758-8.968 8.968.758-.758 8.968z"/>
        <path fill="#9FE2A2" d="M613.637 223.605l.758-8.968 8.968.758-.758 8.968zM512.165 323.107l5.728-6.942 6.942 5.728-5.728 6.942z"/>
        <path fill="#9FE2A2" d="M512.165 323.107l5.728-6.942 6.942 5.728-5.728 6.942zM445.163 319.033l8.804-1.87 1.87 8.804-8.804 1.87z"/>
        <path fill="#9FE2A2" d="M445.163 319.033l8.804-1.87 1.87 8.804-8.804 1.87zM454.468 181.396l1.136-8.928 8.928 1.136-1.136 8.928z"/>
        <path fill="#9FE2A2" d="M454.468 181.396l1.136-8.928 8.928 1.136-1.136 8.928zM376.4 268.202l1.398-4.801 4.801 1.397-1.397 4.801z"/>
        <path fill="#9FE2A2" d="M376.4 268.2l1.4-4.8 4.8 1.4-1.4 4.8zM333.784 200.424l2.792-10.64 10.64 2.792-2.792 10.64z"/>
        <path fill="#9FE2A2" d="M333.784 200.424l2.792-10.64 10.64 2.792-2.792 10.64zM240.313 274.991l4.696-7.678 7.678 4.696-4.696 7.678z"/>
        <path fill="#9FE2A2" d="M240.313 274.991l4.696-7.678 7.678 4.696-4.696 7.678z"/>
        <circle cx="236.5" cy="286.5" r="4.5" fill="#FFAEE4"/>
        <circle cx="305" cy="230" r="6" fill="#FFAEE4"/>
        <circle cx="363" cy="253" r="5" fill="#FFAEE4"/>
        <circle cx="419.5" cy="312.5" r="5.5" fill="#FFAEE4"/>
        <circle cx="475" cy="204" r="3" fill="#FFAEE4"/>
        <circle cx="566.5" cy="194.5" r="4.5" fill="#FFAEE4"/>
        <circle cx="653.5" cy="189.5" r="1.5" fill="#FFAEE4"/>
        <circle cx="809" cy="169" r="6" fill="#FFAEE4"/>
        <path fill="#F50" d="M821.813 717.318l4.869-3.505 3.505 4.869-4.869 3.505z"/>
        <path fill="#F50" d="M821.813 717.318l4.869-3.505 3.505 4.869-4.869 3.505zM729.394 650.662l3.944-10.268 10.268 3.944-3.944 10.268z"/>
        <path fill="#F50" d="M729.394 650.662l3.944-10.268 10.268 3.944-3.944 10.268zM745.776 749.24l6.984-.464.464 6.984-6.984.464z"/>
        <path fill="#F50" d="M745.776 749.24l6.984-.464.464 6.984-6.984.464zM678.425 1013.69l6.885-1.265 1.265 6.885-6.885 1.265z"/>
        <path fill="#F50" d="M681.429 1018.685l6.886-1.256 1.256 6.886-6.886 1.256zM616.607 683.492l3.901-.885.885 3.901-3.901.885z"/>
        <path fill="#F50" d="M616.607 683.492l3.901-.885.885 3.901-3.901.885zM561.757 735.914l3.329-6.157 6.157 3.329-3.329 6.157z"/>
        <path fill="#F50" d="M561.757 735.914l3.329-6.157 6.157 3.329-3.329 6.157zM495.51 617.386l1.104-4.876 4.876 1.104-1.104 4.876z"/>
        <path fill="#F50" d="M495.51 617.386l1.104-4.876 4.876 1.104-1.104 4.876zM444.651 794.46l2.889-.809.809 2.889-2.889.809z"/>
        <path fill="#F50" d="M444.651 794.46l2.889-.809.809 2.889-2.889.809zM418.743 798.719l.538-5.976 5.976.538-.538 5.976z"/>
        <path fill="#F50" d="M413.747 798.723l.53-5.976 5.976.53-.53 5.976zM376.307 691.91l5.782-1.603 1.604 5.782-5.782 1.604z"/>
        <path fill="#F50" d="M376.307 691.91l5.782-1.603 1.604 5.782-5.782 1.604zM343.83 785.823l.347-8.993 8.993.347-.347 8.993z"/>
        <path fill="#F50" d="M343.83 785.823l.347-8.993 8.993.347-.347 8.993zM319.455 644.936l2.61-1.48 1.48 2.608-2.61 1.48z"/>
        <path fill="#F50" d="M319.455 644.936l2.61-1.48 1.48 2.608-2.61 1.48zM177.495 774.698l6.807-4.203 4.203 6.807-6.807 4.203z"/>
        <path fill="#F50" d="M177.495 774.698l6.807-4.203 4.203 6.807-6.807 4.203zM172.14 718.4l4.46-2.26 2.26 4.46-4.46 2.26z"/>
        <path fill="#F50" d="M172.14 718.4l4.46-2.26 2.26 4.46-4.46 2.26z"/>
        <circle cx="608.5" cy="916.5" r="5.5" fill="#DDA812"/>
        <circle cx="784" cy="685" r="5" fill="#DDA812"/>
        <circle cx="739.5" cy="707.5" r="5.5" fill="#DDA812"/>
        <circle cx="722" cy="791" r="2" fill="#DDA812"/>
        <circle cx="611" cy="774" r="5" fill="#DDA812"/>
        <circle cx="542" cy="794" r="5" fill="#DDA812"/>
        <circle cx="421" cy="756" r="2" fill="#DDA812"/>
        <circle cx="255.5" cy="631.5" r="4.5" fill="#DDA812"/>
        <circle cx="320.5" cy="854.5" r="3.5" fill="#DDA812"/>
        <path fill="#9FE2A2" d="M878.259 696.146l21.612-4.115 1.87 9.823-21.612 4.115z"/>
        <path fill="#9FE2A2" d="M878.259 696.146l21.612-4.115 1.87 9.823-21.612 4.115zM867.78 761.436l10.892-16.774 7.548 4.902-10.892 16.774z"/>
        <path fill="#9FE2A2" d="M867.78 761.436l10.892-16.774 7.548 4.902-10.892 16.774zM764.386 811.076l4.742-1.585 3.486 10.433-4.742 1.585z"/>
        <path fill="#9FE2A2" d="M764.386 811.076l4.742-1.585 3.486 10.433-4.742 1.585zM733.902 839.305l7.465-5.028 11.73 17.418-7.464 5.028z"/>
        <path fill="#9FE2A2" d="M733.902 839.305l7.465-5.028 11.73 17.418-7.464 5.028zM684.223 905.834l7.707-4.65 10.847 17.982-7.707 4.65z"/>
        <path fill="#9FE2A2" d="M684.223 905.834l7.707-4.65 10.847 17.982-7.707 4.65zM661.734 704.287l5.088-8.61 3.444 2.036-5.088 8.61z"/>
        <path fill="#9FE2A2" d="M661.734 704.287l5.088-8.61 3.444 2.036-5.088 8.61zM584.877 715.365l2.331-14.818 6.915 1.088-2.331 14.818z"/>
        <path fill="#9FE2A2" d="M584.877 715.365l2.331-14.818 6.915 1.088-2.331 14.818zM540.39 917.73l19.72-3.335 1.5 8.874-19.72 3.336z"/>
        <path fill="#9FE2A2" d="M540.39 917.73l19.72-3.335 1.5 8.874-19.72 3.336zM467.847 809.791l2.29-5.545 12.016 4.963-2.29 5.545z"/>
        <path fill="#9FE2A2" d="M467.847 809.791l2.29-5.545 12.016 4.963-2.29 5.545zM434.393 782.823l1.787-2.41 6.427 4.764-1.787 2.41z"/>
        <path fill="#9FE2A2" d="M434.393 782.823l1.787-2.41 6.427 4.764-1.787 2.41zM394.253 704.798l3.488-6.07 13.006 7.474-3.488 6.07z"/>
        <path fill="#9FE2A2" d="M394.253 704.798l3.488-6.07 13.006 7.474-3.488 6.07zM364.533 867.152l10.558-5.703 2.376 4.399-10.558 5.703z"/>
        <path fill="#9FE2A2" d="M364.533 867.152l10.558-5.703 2.376 4.399-10.558 5.703zM283.813 730.449l7.944-6.075 2.43 3.177-7.944 6.075z"/>
        <path fill="#9FE2A2" d="M283.813 730.449l7.944-6.075 2.43 3.177-7.944 6.075zM230.183 926.1l7.093-5.54 13.541 17.34-7.093 5.54z"/>
        <path fill="#9FE2A2" d="M230.183 926.1l7.093-5.54 13.541 17.34-7.093 5.54zM180.834 719.204l6.103-6.615 13.229 12.207-6.103 6.615z"/>
        <path fill="#9FE2A2" d="M180.834 719.204l6.103-6.615 13.229 12.207-6.103 6.615z"/>
        <path fill="#FFAEE4" d="M755.257 963.37l.492-9.987 4.994.246-.492 9.988z"/>
        <path fill="#FFAEE4" d="M755.257 963.37l.492-9.987 4.994.246-.492 9.988zM572.017 1016.707l9.054-16.703 7.912 4.289-9.054 16.703z"/>
        <path fill="#FFAEE4" d="M572.017 1016.707l9.054-16.703 7.912 4.289-9.054 16.703zM690.91 933.268l7.982-.53.199 2.994-7.983.53z"/>
        <path fill="#FFAEE4" d="M690.91 933.268l7.982-.53.199 2.994-7.983.53zM710.324 812.285l2.964-.462 1.388 8.892-2.964.462z"/>
        <path fill="#FFAEE4" d="M710.324 812.285l2.964-.462 1.388 8.892-2.964.462zM683.68 795.988l8.8-1.887.84 3.911-8.8 1.887z"/>
        <path fill="#FFAEE4" d="M683.68 795.988l8.8-1.887.84 3.911-8.8 1.887zM674.712 744.271l9.004-4.35 9.572 19.808-9.004 4.35z"/>
        <path fill="#FFAEE4" d="M674.712 744.271l9.004-4.35 9.572 19.808-9.004 4.35zM594.535 748.88l3.782-8.166 18.148 8.405-3.782 8.167z"/>
        <path fill="#FFAEE4" d="M594.535 748.88l3.782-8.166 18.148 8.405-3.782 8.167zM521.44 711.473l.12-9 4 .054-.12 9z"/>
        <path fill="#FFAEE4" d="M521.44 711.473l.12-9 4 .054-.12 9zM404.41 629.724l7.163-3.564 8.017 16.116-7.163 3.564z"/>
        <path fill="#FFAEE4" d="M404.41 629.724l7.163-3.564 8.017 16.116-7.163 3.564zM315.796 714.474l5.075-4.822 10.333 10.874-5.075 4.822z"/>
        <path fill="#FFAEE4" d="M315.796 714.474l5.075-4.822 10.333 10.874-5.075 4.822zM279.824 656.217l1.794-8.82 21.558 4.386-1.794 8.82z"/>
        <path fill="#FFAEE4" d="M279.824 656.217l1.794-8.82 21.558 4.386-1.794 8.82z"/>
        <path fill="#DDA812" d="M863.125 672.529l4.506-5.357 12.244 10.3-4.506 5.356z"/>
        <path fill="#DDA812" d="M863.125 672.529l4.506-5.357 12.244 10.3-4.506 5.356zM824.083 661.18l4.558-5.313 2.276 1.954-4.558 5.312z"/>
        <path fill="#DDA812" d="M824.083 661.18l4.558-5.313 2.276 1.954-4.558 5.312zM768.68 667.5l4.95-18.344 8.69 2.344-4.95 18.344z"/>
        <path fill="#DDA812" d="M768.68 667.5l4.95-18.344 8.69 2.344-4.95 18.344zM684.98 614.32l2.611-1.476 4.43 7.835-2.612 1.477z"/>
        <path fill="#DDA812" d="M684.98 614.32l2.611-1.476 4.43 7.835-2.612 1.477zM657.34 700.875l4.337-4.147 8.983 9.397-4.337 4.147z"/>
        <path fill="#DDA812" d="M657.34 700.875l4.337-4.147 8.983 9.397-4.337 4.147zM577.384 633.205l.24-8.997 21.992.587-.24 8.997z"/>
        <path fill="#DDA812" d="M577.384 633.205l.24-8.997 21.992.587-.24 8.997zM599.91 788.933l2.29-4.445 8.89 4.579-2.29 4.445z"/>
        <path fill="#DDA812" d="M599.91 788.933l2.29-4.445 8.89 4.579-2.29 4.445zM538.458 754.504l2.067-4.553 10.017 4.545-2.067 4.553z"/>
        <path fill="#DDA812" d="M538.458 754.504l2.067-4.553 10.017 4.545-2.067 4.553zM487.096 737.175l3.05-8.467 19.758 7.117-3.05 8.467z"/>
        <path fill="#DDA812" d="M487.096 737.175l3.05-8.467 19.758 7.117-3.05 8.467zM526.989 851.03l8-.06.022 3-8 .06z"/>
        <path fill="#DDA812" d="M526.989 851.03l8-.06.022 3-8 .06zM435.152 709.184l19.172-12.704 5.524 8.336-19.172 12.704z"/>
        <path fill="#DDA812" d="M435.152 709.184l19.172-12.704 5.524 8.336-19.172 12.704zM440.04 868.72l4.2-14.4 6.72 1.96-4.2 14.4z"/>
        <path fill="#DDA812" d="M440.04 868.72l4.2-14.4 6.72 1.96-4.2 14.4zM472.026 948.946l6.996-5.662 11.952 14.77-6.996 5.662z"/>
        <path fill="#DDA812" d="M472.026 948.946l6.996-5.662 11.952 14.77-6.996 5.662zM306.978 931.654l9.159-16.647 7.885 4.339-9.159 16.647z"/>
        <path fill="#DDA812" d="M306.978 931.654l9.159-16.647 7.885 4.339-9.159 16.647zM219.835 813.562l1.734-7.81 16.596 3.686-1.734 7.81z"/>
        <path fill="#DDA812" d="M219.835 813.562l1.734-7.81 16.596 3.686-1.734 7.81z"/>
        <circle cx="267.5" cy="691.5" r="5.5" fill="#F50"/>
        <circle cx="250" cy="754" r="4" fill="#F50"/>
        <circle cx="665.5" cy="625.5" r="5.5" fill="#F50"/>
        <circle cx="336" cy="972" r="5" fill="#F50"/>
        <circle cx="294.5" cy="883.5" r="5.5" fill="#F50"/>
        <circle cx="616" cy="862" r="5" fill="#F50"/>
        <circle cx="577" cy="800" r="5" fill="#F50"/>
        <circle cx="700" cy="862" r="2" fill="#F50"/>
        <circle cx="740.5" cy="773.5" r="6.5" fill="#F50"/>
        <circle cx="823.5" cy="822.5" r="4.5" fill="#F50"/>
        <circle cx="839.5" cy="785.5" r="3.5" fill="#F50"/>
        <path fill="#9FE2A2" d="M144.746 748.7l9.554-2.954 2.954 9.554-9.554 2.954z"/>
        <path fill="#9FE2A2" d="M144.746 748.7l9.554-2.954 2.954 9.554-9.554 2.954zM218.981 725.39l7.629-2.409 2.409 7.629-7.629 2.409z"/>
        <path fill="#9FE2A2" d="M218.988 729.377l7.635-2.39 2.39 7.636-7.636 2.39zM322.102 614.23l6.668-2.128 2.128 6.668-6.668 2.128z"/>
        <path fill="#9FE2A2" d="M322.102 614.23l6.668-2.128 2.128 6.668-6.668 2.128zM306.146 802.141l6.713-5.995 5.995 6.713-6.713 5.995z"/>
        <path fill="#9FE2A2" d="M306.146 802.141l6.713-5.995 5.995 6.713-6.713 5.995zM336.393 639.48l9.127-4.087 4.087 9.127-9.127 4.087z"/>
        <path fill="#9FE2A2" d="M336.393 639.48l9.127-4.087 4.087 9.127-9.127 4.087zM359.121 601.542l2.337-4.42 4.42 2.336-2.336 4.42z"/>
        <path fill="#9FE2A2" d="M359.121 601.542l2.337-4.42 4.42 2.336-2.336 4.42zM419.653 613.495l5.852-3.842 3.842 5.852-5.852 3.842z"/>
        <path fill="#9FE2A2" d="M419.653 613.495l5.852-3.842 3.842 5.852-5.852 3.842zM447.637 753.605l.758-8.968 8.968.758-.758 8.968z"/>
        <path fill="#9FE2A2" d="M447.637 753.605l.758-8.968 8.968.758-.758 8.968zM547.165 649.107l5.728-6.942 6.942 5.728-5.728 6.942z"/>
        <path fill="#9FE2A2" d="M547.165 649.107l5.728-6.942 6.942 5.728-5.728 6.942zM616.163 644.033l8.804-1.87 1.87 8.804-8.804 1.87z"/>
        <path fill="#9FE2A2" d="M616.163 644.033l8.804-1.87 1.87 8.804-8.804 1.87zM607.468 796.396l1.136-8.928 8.928 1.136-1.136 8.928z"/>
        <path fill="#9FE2A2" d="M607.468 796.396l1.136-8.928 8.928 1.136-1.136 8.928zM689.4 704.202l1.398-4.801 4.801 1.397-1.397 4.801z"/>
        <path fill="#9FE2A2" d="M689.4 704.202l1.398-4.801 4.801 1.397-1.397 4.801zM694.523 843.731l2.746-1.208 1.208 2.746-2.746 1.208z"/>
        <path fill="#9FE2A2" d="M694.523 843.731l2.746-1.208 1.208 2.746-2.746 1.208zM710.801 758.453l2.746-10.652 10.652 2.746-2.746 10.652z"/>
        <path fill="#9FE2A2" d="M711.784 762.424l2.792-10.64 10.64 2.792-2.792 10.64zM422.313 1000.991l4.696-7.678 7.678 4.696-4.696 7.678z"/>
        <path fill="#9FE2A2" d="M422.313 1000.991l4.696-7.678 7.678 4.696-4.696 7.678z"/>
        <circle cx="296.5" cy="1046.5" r="4.5" fill="#FFAEE4"/>
        <circle cx="766" cy="740" r="6" fill="#FFAEE4"/>
        <circle cx="708" cy="716" r="5" fill="#FFAEE4"/>
        <circle cx="651.5" cy="656.5" r="5.5" fill="#FFAEE4"/>
        <circle cx="598" cy="766" r="3" fill="#FFAEE4"/>
        <circle cx="505.5" cy="776.5" r="4.5" fill="#FFAEE4"/>
        <path fill="#F50" d="M817.651 933.46l2.889-.809.809 2.889-2.889.809z"/>
        <path fill="#F50" d="M817.651 933.46l2.889-.809.809 2.889-2.889.809zM767.743 939.719l.538-5.976 5.976.538-.538 5.976z"/>
        <path fill="#F50" d="M762.747 941.723l.53-5.976 5.976.53-.53 5.976z"/>
        <circle cx="891" cy="936" r="5" fill="#DDA812"/>
        <circle cx="769" cy="899" r="2" fill="#DDA812"/>
        <path fill="#9FE2A2" d="M889.847 1020.791l2.29-5.545 12.016 4.963-2.29 5.545z"/>
        <path fill="#9FE2A2" d="M889.847 1020.791l2.29-5.545 12.016 4.963-2.29 5.545zM812.393 979.823l1.787-2.41 6.427 4.764-1.787 2.41z"/>
        <path fill="#9FE2A2" d="M812.393 979.823l1.787-2.41 6.427 4.764-1.787 2.41z"/>
        <path fill="#FFAEE4" d="M888.535 808.88l3.782-8.166 18.148 8.405-3.782 8.167z"/>
        <path fill="#FFAEE4" d="M888.535 808.88l3.782-8.166 18.148 8.405-3.782 8.167z"/>
        <path fill="#DDA812" d="M887.458 897.504l2.067-4.553 10.017 4.545-2.067 4.553z"/>
        <path fill="#DDA812" d="M887.458 897.504l2.067-4.553 10.017 4.545-2.067 4.553z"/>
        <circle cx="964" cy="968" r="5" fill="#F50"/>
        <path fill="#9FE2A2" d="M795.637 895.605l.758-8.968 8.968.758-.758 8.968z"/>
        <path fill="#9FE2A2" d="M795.637 895.605l.758-8.968 8.968.758-.758 8.968z"/>
        <circle cx="955" cy="899" r="3" fill="#FFAEE4"/>
        <circle cx="854.5" cy="917.5" r="4.5" fill="#FFAEE4"/>
        <path fill="#FFAEE4" d="M511.896 889.894l.21-11.998 11.998.21-.21 11.998z"/>
        <circle cx="518" cy="884" r="6" fill="#FFAEE4"/>
        <circle cx="405.5" cy="939.5" r="4.5" fill="#FFAEE4"/>
        <circle cx="262" cy="800" r="6" fill="#FFAEE4"/>
        <circle cx="224.5" cy="837.5" r="4.5" fill="#FFAEE4"/>
        <path fill="#FFAEE4" d="M260.957 939.956l.087-5 5 .088-.088 5z"/>
        <circle cx="263.5" cy="937.5" r="2.5" fill="#FFAEE4"/>
        <path fill="#F50" d="M869.409 530.86l4.731-6.451 6.451 4.731-4.731 6.451z"/>
        <path fill="#F50" d="M869.409 530.86l4.731-6.451 6.451 4.731-4.731 6.451zM934.813 476.682l3.505-4.87 4.87 3.506-3.506 4.87z"/>
        <path fill="#F50" d="M934.813 476.682l3.505-4.87 4.87 3.506-3.506 4.87zM956.394 460.338l10.268-3.944 3.944 10.268-10.268 3.944z"/>
        <path fill="#F50" d="M956.394 460.338l10.268-3.944 3.944 10.268-10.268 3.944zM1000.123 526.644l5.233-8.521 8.521 5.233-5.233 8.521z"/>
        <path fill="#F50" d="M1000.123 526.644l5.233-8.521 8.521 5.233-5.233 8.521zM1011.776 512.76l.464-6.984 6.984.464-.464 6.984z"/>
        <path fill="#F50" d="M1011.776 512.76l.464-6.984 6.984.464-.464 6.984zM1077.429 538.315l1.256-6.886 6.886 1.256-1.256 6.886z"/>
        <path fill="#F50" d="M1077.429 538.315l1.256-6.886 6.886 1.256-1.256 6.886zM1143.607 441.508l.885-3.9 3.9.884-.884 3.9z"/>
        <path fill="#F50" d="M1143.607 441.508l.885-3.9 3.9.884-.884 3.9zM1193.757 490.086l6.157-3.33 3.33 6.158-6.158 3.33z"/>
        <path fill="#F50" d="M1193.757 490.086l6.157-3.33 3.33 6.158-6.158 3.33zM1262.51 369.614l4.876-1.104 1.104 4.876-4.876 1.104z"/>
        <path fill="#F50" d="M1262.51 369.614l4.876-1.104 1.104 4.876-4.876 1.104zM1316.651 553.54l.81-2.889 2.888.81-.81 2.888z"/>
        <path fill="#F50" d="M1316.651 553.54l.81-2.889 2.888.81-.81 2.888zM1344.747 550.277l5.976-.53.53 5.976-5.976.53z"/>
        <path fill="#F50" d="M1344.747 550.277l5.976-.53.53 5.976-5.976.53zM1381.307 453.09l1.604-5.783 5.782 1.604-1.604 5.782z"/>
        <path fill="#F50" d="M1381.307 453.09l1.604-5.783 5.782 1.604-1.604 5.782zM1410.83 534.177l8.993-.347.347 8.993-8.993.347z"/>
        <path fill="#F50" d="M1410.83 534.177l8.993-.347.347 8.993-8.993.347zM1440.455 403.064l1.48-2.609 2.61 1.48-1.48 2.61z"/>
        <path fill="#F50" d="M1440.455 403.064l1.48-2.609 2.61 1.48-1.48 2.61z"/>
        <circle cx="885.5" cy="609.5" r="5.5" fill="#DDA812"/>
        <circle cx="931" cy="620" r="4" fill="#DDA812"/>
        <circle cx="1191.5" cy="672.5" r="5.5" fill="#DDA812"/>
        <circle cx="1017" cy="441" r="5" fill="#DDA812"/>
        <circle cx="1060.5" cy="463.5" r="5.5" fill="#DDA812"/>
        <circle cx="1079" cy="547" r="2" fill="#DDA812"/>
        <circle cx="1190" cy="530" r="5" fill="#DDA812"/>
        <circle cx="1259" cy="550" r="5" fill="#DDA812"/>
        <circle cx="1381" cy="513" r="2" fill="#DDA812"/>
        <circle cx="1454.5" cy="583.5" r="6.5" fill="#DDA812"/>
        <circle cx="1544.5" cy="386.5" r="4.5" fill="#DDA812"/>
        <circle cx="1520.5" cy="588.5" r="3.5" fill="#DDA812"/>
        <path fill="#9FE2A2" d="M899.259 456.854l1.87-9.823 21.612 4.115-1.87 9.823z"/>
        <path fill="#9FE2A2" d="M899.259 456.854l1.87-9.823 21.612 4.115-1.87 9.823zM920.293 628.692l6.257-6.47 2.157 2.086-6.257 6.47z"/>
        <path fill="#9FE2A2" d="M920.293 628.692l6.257-6.47 2.157 2.086-6.257 6.47zM932.28 490.064l7.548-4.902 10.892 16.774-7.548 4.902z"/>
        <path fill="#9FE2A2" d="M932.28 490.064l7.548-4.902 10.892 16.774-7.548 4.902zM951.377 621.322l7.977-.597 1.27 16.953-7.978.597z"/>
        <path fill="#9FE2A2" d="M951.377 621.322l7.977-.597 1.27 16.953-7.978.597zM1029.386 576.924l3.486-10.433 4.742 1.585-3.486 10.433z"/>
        <path fill="#9FE2A2" d="M1029.386 576.924l3.486-10.433 4.742 1.585-3.486 10.433zM1047.902 606.695l11.731-17.418 7.465 5.028-11.731 17.418z"/>
        <path fill="#9FE2A2" d="M1047.902 606.695l11.731-17.418 7.465 5.028-11.731 17.418zM1099.223 674.166l10.847-17.981 7.707 4.649-10.847 17.981z"/>
        <path fill="#9FE2A2" d="M1099.223 674.166l10.847-17.981 7.707 4.649-10.847 17.981zM1129.734 453.713l3.444-2.035 5.088 8.61-3.444 2.034z"/>
        <path fill="#9FE2A2" d="M1129.734 453.713l3.444-2.035 5.088 8.61-3.444 2.034zM1210.848 452.654l6.91-1.116 2.394 14.808-6.91 1.116z"/>
        <path fill="#9FE2A2" d="M1210.848 452.654l6.91-1.116 2.394 14.808-6.91 1.116zM1263.242 584.625l16.303-11.586 5.213 7.336-16.303 11.586z"/>
        <path fill="#9FE2A2" d="M1263.242 584.625l16.303-11.586 5.213 7.336-16.303 11.586zM1313.347 565.72l12.007-4.982 2.3 5.542-12.008 4.982z"/>
        <path fill="#9FE2A2" d="M1313.347 565.72l12.007-4.982 2.3 5.542-12.008 4.982zM1358.893 539.677l6.427-4.764 1.787 2.41-6.427 4.764z"/>
        <path fill="#9FE2A2" d="M1358.893 539.677l6.427-4.764 1.787 2.41-6.427 4.764zM1390.253 461.202l13.006-7.473 3.488 6.07-13.006 7.472z"/>
        <path fill="#9FE2A2" d="M1390.253 461.202l13.006-7.473 3.488 6.07-13.006 7.472zM1423.033 620.348l2.376-4.4 10.558 5.704-2.376 4.4z"/>
        <path fill="#9FE2A2" d="M1423.033 620.348l2.376-4.4 10.558 5.704-2.376 4.4zM1506.813 482.551l2.43-3.177 7.944 6.075-2.43 3.177z"/>
        <path fill="#9FE2A2" d="M1506.813 482.551l2.43-3.177 7.944 6.075-2.43 3.177z"/>
        <path fill="#FFAEE4" d="M856.633 562.448l1.172-3.825 9.562 2.93-1.172 3.824z"/>
        <path fill="#FFAEE4" d="M856.633 562.448l1.172-3.825 9.562 2.93-1.172 3.824zM885.475 530.348l8.162-5.777 2.888 4.081-8.162 5.777z"/>
        <path fill="#FFAEE4" d="M885.475 530.348l8.162-5.777 2.888 4.081-8.162 5.777zM975.757 675.13l4.994-.247.492 9.988-4.994.246z"/>
        <path fill="#FFAEE4" d="M975.757 675.13l4.994-.247.492 9.988-4.994.246zM997.017 505.293l7.912-4.29 9.054 16.704-7.912 4.29z"/>
        <path fill="#FFAEE4" d="M997.017 505.293l7.912-4.29 9.054 16.704-7.912 4.29zM1102.41 692.232l.198-2.994 7.983.53-.2 2.994z"/>
        <path fill="#FFAEE4" d="M1102.41 692.232l.198-2.994 7.983.53-.2 2.994zM1087.324 575.715l1.388-8.892 2.964.462-1.388 8.892z"/>
        <path fill="#FFAEE4" d="M1087.324 575.715l1.388-8.892 2.964.462-1.388 8.892zM1107.18 554.512l.84-3.91 8.8 1.886-.84 3.91z"/>
        <path fill="#FFAEE4" d="M1107.18 554.512l.84-3.91 8.8 1.886-.84 3.91zM1123.712 531.729l9.572-19.809 9.004 4.351-9.572 19.809z"/>
        <path fill="#FFAEE4" d="M1123.712 531.729l9.572-19.809 9.004 4.351-9.572 19.809zM1194.077 583.38l3.632-8.235 19.214 8.475-3.632 8.235z"/>
        <path fill="#FFAEE4" d="M1194.077 583.38l3.632-8.235 19.214 8.475-3.632 8.235zM1185.035 504.62l18.148-8.406 3.782 8.167-18.148 8.405z"/>
        <path fill="#FFAEE4" d="M1185.035 504.62l18.148-8.406 3.782 8.167-18.148 8.405zM1211.071 537.359l21.068-11.496 4.79 8.778-21.068 11.496z"/>
        <path fill="#FFAEE4" d="M1211.071 537.359l21.068-11.496 4.79 8.778-21.068 11.496zM1275.94 457.027l4-.053.12 8.999-4 .053z"/>
        <path fill="#FFAEE4" d="M1275.94 457.027l4-.053.12 8.999-4 .053zM1393.13 580.723l2.886-11.648 4.853 1.202-2.885 11.648z"/>
        <path fill="#FFAEE4" d="M1393.13 580.723l2.886-11.648 4.853 1.202-2.885 11.648zM1381.41 397.276l8.017-16.116 7.163 3.564-8.017 16.116z"/>
        <path fill="#FFAEE4" d="M1381.41 397.276l8.017-16.116 7.163 3.564-8.017 16.116zM1469.796 476.526l10.333-10.874 5.075 4.822-10.333 10.874z"/>
        <path fill="#FFAEE4" d="M1469.796 476.526l10.333-10.874 5.075 4.822-10.333 10.874zM1497.324 406.283l21.558-4.386 1.794 8.82-21.558 4.386z"/>
        <path fill="#FFAEE4" d="M1497.324 406.283l21.558-4.386 1.794 8.82-21.558 4.386z"/>
        <path fill="#DDA812" d="M911.625 447.971l12.244-10.3 4.506 5.358-12.244 10.3z"/>
        <path fill="#DDA812" d="M911.625 447.971l12.244-10.3 4.506 5.358-12.244 10.3zM969.083 413.82l2.276-1.953 4.558 5.312-2.276 1.954z"/>
        <path fill="#DDA812" d="M969.083 413.82l2.276-1.953 4.558 5.312-2.276 1.954zM1019.68 406.5l8.69-2.344 4.95 18.344-8.69 2.344z"/>
        <path fill="#DDA812" d="M1019.68 406.5l8.69-2.344 4.95 18.344-8.69 2.344zM1108.98 374.68l4.429-7.836 2.611 1.477-4.429 7.835z"/>
        <path fill="#DDA812" d="M1108.98 374.68l4.429-7.836 2.611 1.477-4.429 7.835zM1128.84 462.625l8.983-9.397 4.337 4.147-8.983 9.397z"/>
        <path fill="#DDA812" d="M1126.837 465.617l8.994-9.386 4.332 4.152-8.994 9.386zM1199.884 380.295l21.992-.587.24 8.997-21.992.587z"/>
        <path fill="#DDA812" d="M1199.884 380.295l21.992-.587.24 8.997-21.992.587zM1188.41 544.567l8.89-4.579 2.29 4.445-8.89 4.579z"/>
        <path fill="#DDA812" d="M1188.41 544.567l8.89-4.579 2.29 4.445-8.89 4.579zM1249.458 511.496l10.017-4.545 2.067 4.553-10.017 4.545z"/>
        <path fill="#DDA812" d="M1249.458 511.496l10.017-4.545 2.067 4.553-10.017 4.545zM1290.095 489.84l19.748-7.143 3.062 8.463-19.748 7.143z"/>
        <path fill="#DDA812" d="M1290.095 489.84l19.748-7.143 3.062 8.463-19.748 7.143zM1265.489 610.47l.023-3 8 .06-.024 3z"/>
        <path fill="#DDA812" d="M1265.489 610.47l.023-3 8 .06-.024 3zM1334.652 468.316l5.524-8.336 19.172 12.704-5.524 8.336z"/>
        <path fill="#DDA812" d="M1334.652 468.316l5.524-8.336 19.172 12.704-5.524 8.336zM1349.764 579.093l1.503-17.937 8.969.751-1.503 17.937z"/>
        <path fill="#DDA812" d="M1349.764 579.093l1.503-17.937 8.969.751-1.503 17.937zM1351.054 609.268l6.725-1.945 4.167 14.41-6.725 1.944z"/>
        <path fill="#DDA812" d="M1351.054 609.268l6.725-1.945 4.167 14.41-6.725 1.944zM1356.783 629.604l11.941-1.184.493 4.976-11.941 1.184z"/>
        <path fill="#DDA812" d="M1356.783 629.604l11.941-1.184.493 4.976-11.941 1.184zM1433.443 585.381l1.385-7.879 17.729 3.117-1.385 7.879z"/>
        <path fill="#DDA812" d="M1433.443 585.381l1.385-7.879 17.729 3.117-1.385 7.879zM1413.026 677.054l11.952-14.77 6.996 5.662-11.952 14.77z"/>
        <path fill="#DDA812" d="M1413.026 677.054l11.952-14.77 6.996 5.662-11.952 14.77zM1497.978 670.346l7.885-4.339 9.16 16.647-7.886 4.339z"/>
        <path fill="#DDA812" d="M1497.978 670.346l7.885-4.339 9.16 16.647-7.886 4.339z"/>
        <circle cx="1532.5" cy="446.5" r="5.5" fill="#F50"/>
        <circle cx="1551" cy="511" r="4" fill="#F50"/>
        <circle cx="1134.5" cy="381.5" r="5.5" fill="#F50"/>
        <circle cx="1464" cy="689" r="5" fill="#F50"/>
        <circle cx="1420.5" cy="665.5" r="5.5" fill="#F50"/>
        <circle cx="1402" cy="582" r="2" fill="#F50"/>
        <circle cx="1292" cy="600" r="5" fill="#F50"/>
        <circle cx="1223" cy="579" r="5" fill="#F50"/>
        <circle cx="1101" cy="616" r="2" fill="#F50"/>
        <circle cx="1060.5" cy="529.5" r="6.5" fill="#F50"/>
        <circle cx="976.5" cy="577.5" r="4.5" fill="#F50"/>
        <circle cx="961.5" cy="540.5" r="3.5" fill="#F50"/>
        <circle cx="886.5" cy="495.5" r="3.5" fill="#F50"/>
        <path fill="#9FE2A2" d="M1471.102 374.77l2.128-6.668 6.668 2.128-2.128 6.668z"/>
        <path fill="#9FE2A2" d="M1471.102 374.77l2.128-6.668 6.668 2.128-2.128 6.668zM1481.146 558.859l5.995-6.713 6.713 5.995-5.995 6.713z"/>
        <path fill="#9FE2A2" d="M1481.146 558.859l5.995-6.713 6.713 5.995-5.995 6.713zM1451.393 400.52l4.087-9.127 9.127 4.087-4.087 9.127z"/>
        <path fill="#9FE2A2" d="M1451.393 400.52l4.087-9.127 9.127 4.087-4.087 9.127zM1435.121 355.458l4.42-2.337 2.338 4.42-4.42 2.338z"/>
        <path fill="#9FE2A2" d="M1435.121 355.458l4.42-2.337 2.338 4.42-4.42 2.338zM1371.653 371.505l3.842-5.852 5.852 3.842-3.842 5.852z"/>
        <path fill="#9FE2A2" d="M1371.653 371.505l3.842-5.852 5.852 3.842-3.842 5.852zM1342.637 500.395l8.968-.758.758 8.968-8.968.758z"/>
        <path fill="#9FE2A2" d="M1342.637 500.395l8.968-.758.758 8.968-8.968.758zM1241.165 403.893l6.942-5.728 5.728 6.942-6.942 5.728z"/>
        <path fill="#9FE2A2" d="M1241.165 403.893l6.942-5.728 5.728 6.942-6.942 5.728zM1175.163 406.967l1.87-8.804 8.804 1.87-1.87 8.804z"/>
        <path fill="#9FE2A2" d="M1175.163 406.967l1.87-8.804 8.804 1.87-1.87 8.804zM1183.468 544.604l8.928-1.136 1.136 8.928-8.928 1.136z"/>
        <path fill="#9FE2A2" d="M1183.468 544.604l8.928-1.136 1.136 8.928-8.928 1.136zM1105.4 456.798l4.802-1.397 1.397 4.8-4.8 1.398z"/>
        <path fill="#9FE2A2" d="M1105.4 456.798l4.802-1.397 1.397 4.8-4.8 1.398zM1102.523 600.269l1.208-2.746 2.746 1.208-1.208 2.746z"/>
        <path fill="#9FE2A2" d="M1102.523 600.269l1.208-2.746 2.746 1.208-1.208 2.746zM1063.801 528.547l10.652-2.746 2.746 10.652-10.652 2.746z"/>
        <path fill="#9FE2A2" d="M1063.801 528.547l10.652-2.746 2.746 10.652-10.652 2.746zM969.313 450.009l7.678-4.696 4.696 7.678-7.678 4.696z"/>
        <path fill="#9FE2A2" d="M969.313 450.009l7.678-4.696 4.696 7.678-7.678 4.696zM951.92 587.753l9.327-5.832 5.832 9.326-9.326 5.832z"/>
        <path fill="#9FE2A2" d="M951.92 587.753l9.327-5.832 5.832 9.326-9.326 5.832zM896.4 565.804l1.796-2.403 2.403 1.795-1.795 2.403z"/>
        <path fill="#9FE2A2" d="M896.4 565.804l1.796-2.403 2.403 1.795-1.795 2.403zM900.598 632.185l4.217-5.587 5.587 4.217-4.217 5.587z"/>
        <path fill="#9FE2A2" d="M900.598 632.185l4.217-5.587 5.587 4.217-4.217 5.587zM902.074 683.142l9.784-2.068 2.068 9.784-9.784 2.068z"/>
        <path fill="#9FE2A2" d="M902.074 683.142l9.784-2.068 2.068 9.784-9.784 2.068z"/>
        <circle cx="966.5" cy="437.5" r="4.5" fill="#FFAEE4"/>
        <circle cx="1034" cy="496" r="6" fill="#FFAEE4"/>
        <circle cx="1092" cy="472" r="5" fill="#FFAEE4"/>
        <circle cx="1148.5" cy="412.5" r="5.5" fill="#FFAEE4"/>
        <circle cx="1204" cy="522" r="3" fill="#FFAEE4"/>
        <circle cx="1296.5" cy="531.5" r="4.5" fill="#FFAEE4"/>
        <path fill="#FFAEE4" d="M1276.896 633.106l11.998-.21.21 11.998-11.998.21z"/>
        <circle cx="1283" cy="639" r="6" fill="#FFAEE4"/>
        <circle cx="1382.5" cy="535.5" r="1.5" fill="#FFAEE4"/>
        <circle cx="1418.5" cy="704.5" r="4.5" fill="#FFAEE4"/>
        <circle cx="1539" cy="555" r="6" fill="#FFAEE4"/>
        <path fill="#FFAEE4" d="M1534.957 690.044l4.999-.087.087 4.999-4.999.087z"/>
        <circle cx="1537.5" cy="692.5" r="2.5" fill="#FFAEE4"/>
        <path fill="#F50" d="M1533.409 303.14l6.45-4.731 4.732 6.45-6.45 4.732z"/>
        <path fill="#F50" d="M1533.409 303.14l6.45-4.731 4.732 6.45-6.45 4.732zM1469.813 247.318l4.869-3.505 3.505 4.869-4.869 3.505z"/>
        <path fill="#F50" d="M1469.813 247.318l4.869-3.505 3.505 4.869-4.869 3.505zM1442.394 240.662l3.944-10.268 10.268 3.944-3.944 10.268z"/>
        <path fill="#F50" d="M1442.394 240.662l3.944-10.268 10.268 3.944-3.944 10.268zM1397.126 301.344l8.53-5.218 5.218 8.53-8.53 5.218z"/>
        <path fill="#F50" d="M1399.123 297.356l8.52-5.233 5.234 8.52-8.52 5.234zM1393.776 279.24l6.984-.464.464 6.984-6.984.464z"/>
        <path fill="#F50" d="M1393.776 279.24l6.984-.464.464 6.984-6.984.464zM1322.425 303.69l6.885-1.265 1.265 6.885-6.885 1.265z"/>
        <path fill="#F50" d="M1328.429 305.685l6.886-1.256 1.256 6.886-6.886 1.256zM1264.607 212.492l3.901-.885.885 3.901-3.901.885z"/>
        <path fill="#F50" d="M1264.607 212.492l3.901-.885.885 3.901-3.901.885zM1210.757 266.914l3.329-6.157 6.157 3.329-3.329 6.157z"/>
        <path fill="#F50" d="M1210.757 266.914l3.329-6.157 6.157 3.329-3.329 6.157zM1093.651 324.46l2.889-.809.809 2.889-2.889.809z"/>
        <path fill="#F50" d="M1093.651 324.46l2.889-.809.809 2.889-2.889.809zM1062.747 327.723l.53-5.976 5.976.53-.53 5.976z"/>
        <path fill="#F50" d="M1062.747 327.723l.53-5.976 5.976.53-.53 5.976zM1024.307 220.91l5.782-1.603 1.604 5.782-5.782 1.604z"/>
        <path fill="#F50" d="M1024.307 220.91l5.782-1.603 1.604 5.782-5.782 1.604zM992.83 314.823l.347-8.993 8.993.347-.347 8.993z"/>
        <path fill="#F50" d="M992.83 314.823l.347-8.993 8.993.347-.347 8.993zM968.455 174.936l2.61-1.48 1.48 2.608-2.61 1.48z"/>
        <path fill="#F50" d="M968.455 174.936l2.61-1.48 1.48 2.608-2.61 1.48zM825.495 304.698l6.807-4.203 4.203 6.807-6.807 4.203z"/>
        <path fill="#F50" d="M825.495 304.698l6.807-4.203 4.203 6.807-6.807 4.203zM820.14 247.4l4.46-2.26 2.26 4.46-4.46 2.26z"/>
        <path fill="#F50" d="M820.14 247.4l4.46-2.26 2.26 4.46-4.46 2.26z"/>
        <circle cx="1527.5" cy="383.5" r="5.5" fill="#DDA812"/>
        <circle cx="1483" cy="394" r="4" fill="#DDA812"/>
        <circle cx="1221.5" cy="444.5" r="5.5" fill="#DDA812"/>
        <circle cx="1398" cy="213" r="5" fill="#DDA812"/>
        <circle cx="1351.5" cy="237.5" r="5.5" fill="#DDA812"/>
        <circle cx="1335" cy="321" r="2" fill="#DDA812"/>
        <circle cx="1224" cy="303" r="5" fill="#DDA812"/>
        <circle cx="1154" cy="324" r="5" fill="#DDA812"/>
        <circle cx="1032" cy="286" r="2" fill="#DDA812"/>
        <circle cx="959.5" cy="356.5" r="6.5" fill="#DDA812"/>
        <circle cx="869.5" cy="160.5" r="4.5" fill="#DDA812"/>
        <circle cx="893.5" cy="362.5" r="3.5" fill="#DDA812"/>
        <path fill="#9FE2A2" d="M1491.259 226.146l21.612-4.115 1.87 9.823-21.612 4.115z"/>
        <path fill="#9FE2A2" d="M1491.259 226.146l21.612-4.115 1.87 9.823-21.612 4.115zM1484.293 398.308l2.157-2.086 6.257 6.47-2.157 2.086z"/>
        <path fill="#9FE2A2" d="M1484.293 398.308l2.157-2.086 6.257 6.47-2.157 2.086zM1462.78 275.436l10.892-16.774 7.548 4.902-10.892 16.774z"/>
        <path fill="#9FE2A2" d="M1462.78 275.436l10.892-16.774 7.548 4.902-10.892 16.774zM1452.877 411.178l1.269-16.953 7.977.597-1.269 16.953z"/>
        <path fill="#9FE2A2" d="M1452.877 411.178l1.269-16.953 7.977.597-1.269 16.953zM1376.386 340.076l4.742-1.585 3.486 10.433-4.742 1.585z"/>
        <path fill="#9FE2A2" d="M1376.386 340.076l4.742-1.585 3.486 10.433-4.742 1.585zM1347.902 367.305l7.465-5.028 11.73 17.418-7.464 5.028z"/>
        <path fill="#9FE2A2" d="M1347.897 365.313l7.46-5.034 11.746 17.408-7.46 5.034zM1296.223 433.834l7.707-4.65 10.847 17.982-7.707 4.65z"/>
        <path fill="#9FE2A2" d="M1296.223 433.834l7.707-4.65 10.847 17.982-7.707 4.65zM1274.734 233.287l5.088-8.61 3.444 2.036-5.088 8.61z"/>
        <path fill="#9FE2A2" d="M1274.734 233.287l5.088-8.61 3.444 2.036-5.088 8.61zM1196.877 244.365l2.331-14.818 6.915 1.088-2.331 14.818z"/>
        <path fill="#9FE2A2" d="M1196.877 244.365l2.331-14.818 6.915 1.088-2.331 14.818zM1130.737 348.9l5.197-7.349 16.329 11.55-5.197 7.348z"/>
        <path fill="#9FE2A2" d="M1130.737 348.9l5.197-7.349 16.329 11.55-5.197 7.348zM1081.847 342.791l2.29-5.545 12.016 4.963-2.29 5.545z"/>
        <path fill="#9FE2A2" d="M1081.847 342.791l2.29-5.545 12.016 4.963-2.29 5.545zM1047.393 310.823l1.787-2.41 6.427 4.764-1.787 2.41z"/>
        <path fill="#9FE2A2" d="M1047.393 310.823l1.787-2.41 6.427 4.764-1.787 2.41zM1007.253 232.798l3.488-6.07 13.006 7.474-3.488 6.07z"/>
        <path fill="#9FE2A2" d="M1007.253 232.798l3.488-6.07 13.006 7.474-3.488 6.07zM976.533 395.152l10.558-5.703 2.376 4.399-10.558 5.703z"/>
        <path fill="#9FE2A2" d="M976.533 395.152l10.558-5.703 2.376 4.399-10.558 5.703zM896.813 259.449l7.944-6.075 2.43 3.177-7.944 6.075z"/>
        <path fill="#9FE2A2" d="M896.813 259.449l7.944-6.075 2.43 3.177-7.944 6.075zM822.183 433.1l7.093-5.54 13.541 17.34-7.093 5.54z"/>
        <path fill="#9FE2A2" d="M822.183 433.1l7.093-5.54 13.541 17.34-7.093 5.54zM793.834 249.204l6.103-6.615 13.229 12.207-6.103 6.615z"/>
        <path fill="#9FE2A2" d="M793.834 249.204l6.103-6.615 13.229 12.207-6.103 6.615z"/>
        <path fill="#FFAEE4" d="M1546.633 334.552l9.562-2.929 1.172 3.825-9.562 2.929z"/>
        <path fill="#FFAEE4" d="M1546.633 334.552l9.562-2.929 1.172 3.825-9.562 2.929zM1515.975 301.152l2.888-4.081 8.162 5.777-2.888 4.081zM1520.974 296.154l2.888-4.082 8.164 5.774-2.888 4.082zM1432.257 459.37l.492-9.987 4.994.246-.492 9.988z"/>
        <path fill="#FFAEE4" d="M1432.257 459.37l.492-9.987 4.994.246-.492 9.988zM1401.017 291.707l9.054-16.703 7.912 4.289-9.054 16.703z"/>
        <path fill="#FFAEE4" d="M1401.017 291.707l9.054-16.703 7.912 4.289-9.054 16.703zM1303.91 461.268l7.982-.53.199 2.994-7.983.53z"/>
        <path fill="#FFAEE4" d="M1303.91 461.268l7.982-.53.199 2.994-7.983.53zM1322.343 346.275l2.966-.449 1.348 8.899-2.966.449z"/>
        <path fill="#FFAEE4" d="M1322.343 346.275l2.966-.449 1.348 8.899-2.966.449zM1296.68 324.988l8.8-1.887.84 3.911-8.8 1.887z"/>
        <path fill="#FFAEE4" d="M1296.68 324.988l8.8-1.887.84 3.911-8.8 1.887zM1271.712 289.271l9.004-4.35 9.572 19.808-9.004 4.35z"/>
        <path fill="#FFAEE4" d="M1271.712 289.271l9.004-4.35 9.572 19.808-9.004 4.35zM1197.077 354.62l19.214-8.475 3.632 8.235-19.214 8.475z"/>
        <path fill="#FFAEE4" d="M1197.077 354.62l19.214-8.475 3.632 8.235-19.214 8.475zM1206.535 276.88l3.782-8.166 18.148 8.405-3.782 8.167z"/>
        <path fill="#FFAEE4" d="M1206.535 276.88l3.782-8.166 18.148 8.405-3.782 8.167zM1176.071 307.641l4.79-8.778 21.068 11.496-4.79 8.778z"/>
        <path fill="#FFAEE4" d="M1176.071 307.641l4.79-8.778 21.068 11.496-4.79 8.778zM1133.44 239.473l.12-9 4 .054-.12 9z"/>
        <path fill="#FFAEE4" d="M1133.44 239.473l.12-9 4 .054-.12 9zM1011.63 342.777l4.854-1.202 2.885 11.648-4.853 1.202z"/>
        <path fill="#FFAEE4" d="M1011.63 342.777l4.854-1.202 2.885 11.648-4.853 1.202zM1018.41 158.724l7.163-3.564 8.017 16.116-7.163 3.564z"/>
        <path fill="#FFAEE4" d="M1018.41 158.724l7.163-3.564 8.017 16.116-7.163 3.564zM927.796 242.474l5.075-4.822 10.333 10.874-5.075 4.822z"/>
        <path fill="#FFAEE4" d="M927.796 242.474l5.075-4.822 10.333 10.874-5.075 4.822zM893.824 185.217l1.794-8.82 21.558 4.386-1.794 8.82z"/>
        <path fill="#FFAEE4" d="M893.824 185.217l1.794-8.82 21.558 4.386-1.794 8.82z"/>
        <path fill="#DDA812" d="M1484.125 215.529l4.506-5.357 12.244 10.3-4.506 5.356z"/>
        <path fill="#DDA812" d="M1484.125 215.529l4.506-5.357 12.244 10.3-4.506 5.356zM1435.085 188.185l4.55-5.32 2.28 1.95-4.55 5.32z"/>
        <path fill="#DDA812" d="M1435.085 188.185l4.55-5.32 2.28 1.95-4.55 5.32zM1382.064 190.994l5.178-19.318 8.694 2.33-5.178 19.318z"/>
        <path fill="#DDA812" d="M1382.064 190.994l5.178-19.318 8.694 2.33-5.178 19.318zM1271.34 229.875l4.337-4.147 8.983 9.397-4.337 4.147z"/>
        <path fill="#DDA812" d="M1271.34 229.875l4.337-4.147 8.983 9.397-4.337 4.147zM1213.91 316.933l2.29-4.445 8.89 4.579-2.29 4.445z"/>
        <path fill="#DDA812" d="M1213.91 316.933l2.29-4.445 8.89 4.579-2.29 4.445zM1151.458 284.504l2.067-4.553 10.017 4.545-2.067 4.553z"/>
        <path fill="#DDA812" d="M1151.458 284.504l2.067-4.553 10.017 4.545-2.067 4.553zM1099.096 266.175l3.05-8.467 19.758 7.117-3.05 8.467z"/>
        <path fill="#DDA812" d="M1099.096 266.175l3.05-8.467 19.758 7.117-3.05 8.467zM1139.989 380.03l8-.06.022 3-8 .06z"/>
        <path fill="#DDA812" d="M1139.989 380.03l8-.06.022 3-8 .06zM1050.148 240.165l19.193-12.675 5.51 8.345-19.192 12.675z"/>
        <path fill="#DDA812" d="M1050.148 240.165l19.193-12.675 5.51 8.345-19.192 12.675zM1052.264 333.407l8.969-.751 1.503 17.937-8.969.751z"/>
        <path fill="#DDA812" d="M1052.264 333.407l8.969-.751 1.503 17.937-8.969.751zM1054.04 396.72l4.2-14.4 6.72 1.96-4.2 14.4z"/>
        <path fill="#DDA812" d="M1054.04 396.72l4.2-14.4 6.72 1.96-4.2 14.4zM1044.283 406.896l.493-4.976 11.941 1.184-.493 4.976z"/>
        <path fill="#DDA812" d="M1044.283 406.896l.493-4.976 11.941 1.184-.493 4.976zM961.443 354.619l17.729-3.117 1.385 7.88-17.729 3.116z"/>
        <path fill="#DDA812" d="M961.443 354.619l17.729-3.117 1.385 7.88-17.729 3.116zM983.026 440.946l6.996-5.662 11.952 14.77-6.996 5.662z"/>
        <path fill="#DDA812" d="M983.026 440.946l6.996-5.662 11.952 14.77-6.996 5.662zM898.978 456.654l9.159-16.647 7.885 4.339-9.159 16.647z"/>
        <path fill="#DDA812" d="M898.978 456.654l9.159-16.647 7.885 4.339-9.159 16.647zM831.835 342.562l1.734-7.81 16.596 3.686-1.734 7.81z"/>
        <path fill="#DDA812" d="M831.835 342.562l1.734-7.81 16.596 3.686-1.734 7.81z"/>
        <circle cx="880.5" cy="219.5" r="5.5" fill="#F50"/>
        <circle cx="864" cy="283" r="4" fill="#F50"/>
        <circle cx="949" cy="462" r="5" fill="#F50"/>
        <circle cx="994.5" cy="439.5" r="5.5" fill="#F50"/>
        <circle cx="1010" cy="356" r="2" fill="#F50"/>
        <circle cx="1122" cy="373" r="5" fill="#F50"/>
        <circle cx="1191" cy="353" r="5" fill="#F50"/>
        <circle cx="1313" cy="390" r="2" fill="#F50"/>
        <circle cx="1352.5" cy="303.5" r="6.5" fill="#F50"/>
        <circle cx="1436.5" cy="350.5" r="4.5" fill="#F50"/>
        <circle cx="1452.5" cy="313.5" r="3.5" fill="#F50"/>
        <circle cx="1527.5" cy="268.5" r="3.5" fill="#F50"/>
        <path fill="#9FE2A2" d="M756.746 277.7l9.554-2.954 2.954 9.554-9.554 2.954z"/>
        <path fill="#9FE2A2" d="M756.746 277.7l9.554-2.954 2.954 9.554-9.554 2.954zM830.988 257.377l7.635-2.39 2.39 7.636-7.636 2.39z"/>
        <path fill="#9FE2A2" d="M830.988 257.377l7.635-2.39 2.39 7.636-7.636 2.39zM919.146 330.141l6.713-5.995 5.995 6.713-6.713 5.995z"/>
        <path fill="#9FE2A2" d="M919.146 330.141l6.713-5.995 5.995 6.713-6.713 5.995zM948.393 168.48l9.127-4.087 4.087 9.127-9.127 4.087z"/>
        <path fill="#9FE2A2" d="M948.393 168.48l9.127-4.087 4.087 9.127-9.127 4.087zM1060.637 281.605l.758-8.968 8.968.758-.758 8.968z"/>
        <path fill="#9FE2A2" d="M1060.637 281.605l.758-8.968 8.968.758-.758 8.968zM1160.165 178.107l5.728-6.942 6.942 5.728-5.728 6.942z"/>
        <path fill="#9FE2A2" d="M1160.165 178.107l5.728-6.942 6.942 5.728-5.728 6.942zM1228.163 173.033l8.804-1.87 1.87 8.804-8.804 1.87z"/>
        <path fill="#9FE2A2" d="M1228.163 173.033l8.804-1.87 1.87 8.804-8.804 1.87zM1220.468 325.396l1.136-8.928 8.928 1.136-1.136 8.928z"/>
        <path fill="#9FE2A2" d="M1220.468 325.396l1.136-8.928 8.928 1.136-1.136 8.928zM1301.4 233.202l1.398-4.801 4.801 1.397-1.397 4.801z"/>
        <path fill="#9FE2A2" d="M1301.4 233.202l1.398-4.801 4.801 1.397-1.397 4.801zM1306.523 372.731l2.746-1.208 1.208 2.746-2.746 1.208z"/>
        <path fill="#9FE2A2" d="M1306.523 372.731l2.746-1.208 1.208 2.746-2.746 1.208zM1336.784 304.424l2.792-10.64 10.64 2.792-2.792 10.64z"/>
        <path fill="#9FE2A2" d="M1336.784 304.424l2.792-10.64 10.64 2.792-2.792 10.64zM1428.313 229.99l4.697-7.677 7.677 4.697-4.697 7.677z"/>
        <path fill="#9FE2A2" d="M1432.313 225.991l4.696-7.678 7.678 4.696-4.696 7.678zM1444.92 365.247l5.833-9.326 9.326 5.832-5.832 9.326z"/>
        <path fill="#9FE2A2" d="M1444.92 365.247l5.833-9.326 9.326 5.832-5.832 9.326zM1512.4 339.196l2.404-1.795 1.795 2.403-2.403 1.795z"/>
        <path fill="#9FE2A2" d="M1512.4 339.196l2.404-1.795 1.795 2.403-2.403 1.795zM1503.598 402.815l5.587-4.217 4.217 5.587-5.587 4.217z"/>
        <path fill="#9FE2A2" d="M1503.598 402.815l5.587-4.217 4.217 5.587-5.587 4.217zM1499.074 463.858l2.068-9.784 9.784 2.068-2.068 9.784z"/>
        <path fill="#9FE2A2" d="M1499.074 463.858l2.068-9.784 9.784 2.068-2.068 9.784z"/>
        <circle cx="1446.5" cy="210.5" r="4.5" fill="#FFAEE4"/>
        <circle cx="1379" cy="269" r="6" fill="#FFAEE4"/>
        <circle cx="1321" cy="245" r="5" fill="#FFAEE4"/>
        <circle cx="1264.5" cy="184.5" r="5.5" fill="#FFAEE4"/>
        <circle cx="1209" cy="295" r="3" fill="#FFAEE4"/>
        <circle cx="1117.5" cy="305.5" r="4.5" fill="#FFAEE4"/>
        <path fill="#FFAEE4" d="M1123.896 418.894l.21-11.998 11.998.21-.21 11.998z"/>
        <circle cx="1130" cy="413" r="6" fill="#FFAEE4"/>
        <circle cx="1030.5" cy="308.5" r="1.5" fill="#FFAEE4"/>
        <circle cx="994.5" cy="477.5" r="4.5" fill="#FFAEE4"/>
        <circle cx="875" cy="328" r="6" fill="#FFAEE4"/>
        <circle cx="836.5" cy="366.5" r="4.5" fill="#FFAEE4"/>
        <path fill="#FFAEE4" d="M873.957 467.956l.087-5 5 .088-.088 5z"/>
        <circle cx="876.5" cy="465.5" r="2.5" fill="#FFAEE4"/>
        <path fill="#F50" d="M898.409 178.14l6.45-4.731 4.732 6.45-6.45 4.732z"/>
        <path fill="#F50" d="M898.409 178.14l6.45-4.731 4.732 6.45-6.45 4.732zM963.813 233.318l4.869-3.505 3.505 4.869-4.869 3.505z"/>
        <path fill="#F50" d="M963.813 233.318l4.869-3.505 3.505 4.869-4.869 3.505zM983.394 246.662l3.944-10.268 10.268 3.944-3.944 10.268z"/>
        <path fill="#F50" d="M983.394 246.662l3.944-10.268 10.268 3.944-3.944 10.268zM1025.126 184.344l8.53-5.218 5.218 8.53-8.53 5.218z"/>
        <path fill="#F50" d="M1027.123 181.356l8.52-5.233 5.234 8.52-8.52 5.234zM1039.776 196.24l6.984-.464.464 6.984-6.984.464z"/>
        <path fill="#F50" d="M1039.776 196.24l6.984-.464.464 6.984-6.984.464zM1105.429 169.685l6.886-1.256 1.256 6.886-6.886 1.256z"/>
        <path fill="#F50" d="M1105.429 169.685l6.886-1.256 1.256 6.886-6.886 1.256zM1169.607 265.492l3.901-.885.885 3.901-3.901.885z"/>
        <path fill="#F50" d="M1169.607 265.492l3.901-.885.885 3.901-3.901.885zM1222.757 218.914l3.329-6.157 6.157 3.329-3.329 6.157z"/>
        <path fill="#F50" d="M1222.757 218.914l3.329-6.157 6.157 3.329-3.329 6.157zM1290.51 338.386l1.104-4.876 4.876 1.104-1.104 4.876z"/>
        <path fill="#F50" d="M1290.51 338.386l1.104-4.876 4.876 1.104-1.104 4.876zM1410.307 256.91l5.782-1.603 1.604 5.782-5.782 1.604z"/>
        <path fill="#F50" d="M1410.307 256.91l5.782-1.603 1.604 5.782-5.782 1.604zM1438.83 174.823l.347-8.993 8.993.347-.347 8.993z"/>
        <path fill="#F50" d="M1438.83 174.823l.347-8.993 8.993.347-.347 8.993zM1469.455 303.936l2.61-1.48 1.48 2.608-2.61 1.48z"/>
        <path fill="#F50" d="M1469.455 303.936l2.61-1.48 1.48 2.608-2.61 1.48z"/>
        <circle cx="1044" cy="268" r="5" fill="#DDA812"/>
        <circle cx="1088.5" cy="244.5" r="5.5" fill="#DDA812"/>
        <circle cx="1107" cy="162" r="2" fill="#DDA812"/>
        <circle cx="1217" cy="179" r="5" fill="#DDA812"/>
        <circle cx="1287" cy="159" r="5" fill="#DDA812"/>
        <circle cx="1408" cy="196" r="2" fill="#DDA812"/>
        <path fill="#9FE2A2" d="M926.259 251.146l21.612-4.115 1.87 9.823-21.612 4.115z"/>
        <path fill="#9FE2A2" d="M926.259 251.146l21.612-4.115 1.87 9.823-21.612 4.115zM954.807 215.478l10.815-16.823 7.57 4.867-10.814 16.823z"/>
        <path fill="#9FE2A2" d="M959.78 218.436l10.892-16.774 7.548 4.902-10.892 16.774zM1158.73 255.28l5.1-8.6 3.44 2.04-5.1 8.6z"/>
        <path fill="#9FE2A2" d="M1158.73 255.28l5.1-8.6 3.44 2.04-5.1 8.6zM1233.877 252.365l2.331-14.818 6.915 1.088-2.331 14.818z"/>
        <path fill="#9FE2A2" d="M1233.877 252.365l2.331-14.818 6.915 1.088-2.331 14.818zM1385.393 167.823l1.787-2.41 6.427 4.764-1.787 2.41z"/>
        <path fill="#9FE2A2" d="M1385.393 167.823l1.787-2.41 6.427 4.764-1.787 2.41zM1418.253 246.798l3.488-6.07 13.006 7.474-3.488 6.07z"/>
        <path fill="#9FE2A2" d="M1418.253 246.798l3.488-6.07 13.006 7.474-3.488 6.07zM1534.813 224.449l7.944-6.075 2.43 3.177-7.944 6.075z"/>
        <path fill="#9FE2A2" d="M1534.813 224.449l7.944-6.075 2.43 3.177-7.944 6.075z"/>
        <path fill="#FFAEE4" d="M915.974 174.154l2.888-4.082 8.164 5.774-2.888 4.082z"/>
        <path fill="#FFAEE4" d="M915.974 174.154l2.888-4.082 8.164 5.774-2.888 4.082zM1024.017 203.707l9.054-16.703 7.912 4.289-9.054 16.703z"/>
        <path fill="#FFAEE4" d="M1024.017 203.707l9.054-16.703 7.912 4.289-9.054 16.703zM1150.712 176.271l9.004-4.35 9.572 19.808-9.004 4.35z"/>
        <path fill="#FFAEE4" d="M1150.712 176.271l9.004-4.35 9.572 19.808-9.004 4.35zM1213.535 203.88l3.782-8.166 18.148 8.405-3.782 8.167z"/>
        <path fill="#FFAEE4" d="M1213.535 203.88l3.782-8.166 18.148 8.405-3.782 8.167zM1239.071 172.641l4.79-8.778 21.068 11.496-4.79 8.778z"/>
        <path fill="#FFAEE4" d="M1239.071 172.641l4.79-8.778 21.068 11.496-4.79 8.778zM1302.44 249.473l.12-9 4 .054-.12 9z"/>
        <path fill="#FFAEE4" d="M1302.44 249.473l.12-9 4 .054-.12 9zM1408.41 310.724l7.163-3.564 8.017 16.116-7.163 3.564z"/>
        <path fill="#FFAEE4" d="M1408.41 310.724l7.163-3.564 8.017 16.116-7.163 3.564zM1496.796 231.474l5.075-4.822 10.333 10.874-5.075 4.822z"/>
        <path fill="#FFAEE4" d="M1496.796 231.474l5.075-4.822 10.333 10.874-5.075 4.822zM1524.824 301.217l1.794-8.82 21.558 4.386-1.794 8.82z"/>
        <path fill="#FFAEE4" d="M1524.824 301.217l1.794-8.82 21.558 4.386-1.794 8.82z"/>
        <path fill="#DDA812" d="M941.125 261.529l4.506-5.357 12.244 10.3-4.506 5.356z"/>
        <path fill="#DDA812" d="M941.125 261.529l4.506-5.357 12.244 10.3-4.506 5.356zM996.085 294.185l4.55-5.32 2.28 1.95-4.55 5.32z"/>
        <path fill="#DDA812" d="M996.085 294.185l4.55-5.32 2.28 1.95-4.55 5.32zM1047.064 296.994l5.178-19.318 8.694 2.33-5.178 19.318z"/>
        <path fill="#DDA812" d="M1047.064 296.994l5.178-19.318 8.694 2.33-5.178 19.318zM1135.98 333.32l2.611-1.476 4.43 7.835-2.612 1.477z"/>
        <path fill="#DDA812" d="M1135.98 333.32l2.611-1.476 4.43 7.835-2.612 1.477zM1157.34 246.875l4.337-4.147 8.983 9.397-4.337 4.147z"/>
        <path fill="#DDA812" d="M1157.34 246.875l4.337-4.147 8.983 9.397-4.337 4.147zM1227.384 329.205l.24-8.997 21.992.587-.24 8.997z"/>
        <path fill="#DDA812" d="M1227.384 329.205l.24-8.997 21.992.587-.24 8.997zM1216.91 163.933l2.29-4.445 8.89 4.579-2.29 4.445z"/>
        <path fill="#DDA812" d="M1216.91 163.933l2.29-4.445 8.89 4.579-2.29 4.445zM1278.458 196.504l2.067-4.553 10.017 4.545-2.067 4.553z"/>
        <path fill="#DDA812" d="M1278.458 196.504l2.067-4.553 10.017 4.545-2.067 4.553zM1318.096 216.175l3.05-8.467 19.758 7.117-3.05 8.467z"/>
        <path fill="#DDA812" d="M1318.096 216.175l3.05-8.467 19.758 7.117-3.05 8.467zM1366.148 245.165l19.193-12.675 5.51 8.345-19.192 12.675z"/>
        <path fill="#DDA812" d="M1366.148 245.165l19.193-12.675 5.51 8.345-19.192 12.675z"/>
        <circle cx="1560.5" cy="261.5" r="5.5" fill="#F50"/>
        <circle cx="1162.5" cy="326.5" r="5.5" fill="#F50"/>
        <circle cx="1089.5" cy="179.5" r="6.5" fill="#F50"/>
        <circle cx="988.5" cy="168.5" r="3.5" fill="#F50"/>
        <circle cx="913.5" cy="212.5" r="3.5" fill="#F50"/>
        <path fill="#9FE2A2" d="M1498.102 334.23l6.668-2.128 2.128 6.668-6.668 2.128z"/>
        <path fill="#9FE2A2" d="M1498.102 334.23l6.668-2.128 2.128 6.668-6.668 2.128zM1479.393 307.48l9.127-4.087 4.087 9.127-9.127 4.087z"/>
        <path fill="#9FE2A2" d="M1479.393 307.48l9.127-4.087 4.087 9.127-9.127 4.087zM1463.121 352.542l2.337-4.42 4.42 2.336-2.336 4.42z"/>
        <path fill="#9FE2A2" d="M1463.121 352.542l2.337-4.42 4.42 2.336-2.336 4.42zM1398.653 337.495l5.852-3.842 3.842 5.852-5.852 3.842z"/>
        <path fill="#9FE2A2" d="M1398.653 337.495l5.852-3.842 3.842 5.852-5.852 3.842zM1370.637 207.605l.758-8.968 8.968.758-.758 8.968z"/>
        <path fill="#9FE2A2" d="M1370.637 207.605l.758-8.968 8.968.758-.758 8.968zM1269.165 306.107l5.728-6.942 6.942 5.728-5.728 6.942z"/>
        <path fill="#9FE2A2" d="M1269.165 306.107l5.728-6.942 6.942 5.728-5.728 6.942zM1203.163 303.033l8.804-1.87 1.87 8.804-8.804 1.87z"/>
        <path fill="#9FE2A2" d="M1203.163 303.033l8.804-1.87 1.87 8.804-8.804 1.87zM1211.468 164.396l1.136-8.928 8.928 1.136-1.136 8.928z"/>
        <path fill="#9FE2A2" d="M1211.468 164.396l1.136-8.928 8.928 1.136-1.136 8.928zM1133.4 252.202l1.398-4.801 4.801 1.397-1.397 4.801z"/>
        <path fill="#9FE2A2" d="M1133.4 252.2l1.4-4.8 4.8 1.4-1.4 4.8zM1090.784 184.424l2.792-10.64 10.64 2.792-2.792 10.64z"/>
        <path fill="#9FE2A2" d="M1090.784 184.424l2.792-10.64 10.64 2.792-2.792 10.64zM997.313 258.991l4.696-7.678 7.678 4.696-4.696 7.678z"/>
        <path fill="#9FE2A2" d="M997.313 258.991l4.696-7.678 7.678 4.696-4.696 7.678z"/>
        <circle cx="993.5" cy="270.5" r="4.5" fill="#FFAEE4"/>
        <circle cx="1062" cy="213" r="6" fill="#FFAEE4"/>
        <circle cx="1120" cy="237" r="5" fill="#FFAEE4"/>
        <circle cx="1175.5" cy="296.5" r="5.5" fill="#FFAEE4"/>
        <circle cx="1232" cy="188" r="3" fill="#FFAEE4"/>
        <circle cx="1323.5" cy="177.5" r="4.5" fill="#FFAEE4"/>
        <circle cx="1410.5" cy="173.5" r="1.5" fill="#FFAEE4"/>
        <path fill="#F50" d="M1486.394 633.662l3.944-10.268 10.268 3.944-3.944 10.268z"/>
        <path fill="#F50" d="M1486.394 633.662l3.944-10.268 10.268 3.944-3.944 10.268zM1502.776 732.24l6.984-.464.464 6.984-6.984.464z"/>
        <path fill="#F50" d="M1502.776 732.24l6.984-.464.464 6.984-6.984.464zM1428.425 976.69l6.885-1.265 1.265 6.885-6.885 1.265z"/>
        <path fill="#F50" d="M1433.429 981.685l6.886-1.256 1.256 6.886-6.886 1.256zM1373.607 666.492l3.901-.885.885 3.901-3.901.885z"/>
        <path fill="#F50" d="M1373.607 666.492l3.901-.885.885 3.901-3.901.885zM1319.757 719.914l3.329-6.157 6.157 3.329-3.329 6.157z"/>
        <path fill="#F50" d="M1319.757 719.914l3.329-6.157 6.157 3.329-3.329 6.157zM1252.51 600.386l1.104-4.876 4.876 1.104-1.104 4.876z"/>
        <path fill="#F50" d="M1252.51 600.386l1.104-4.876 4.876 1.104-1.104 4.876zM1201.651 778.46l2.889-.809.809 2.889-2.889.809z"/>
        <path fill="#F50" d="M1201.651 778.46l2.889-.809.809 2.889-2.889.809zM1176.743 778.719l.538-5.976 5.976.538-.538 5.976z"/>
        <path fill="#F50" d="M1170.747 782.723l.53-5.976 5.976.53-.53 5.976zM1132.307 674.91l5.782-1.603 1.604 5.782-5.782 1.604z"/>
        <path fill="#F50" d="M1132.307 674.91l5.782-1.603 1.604 5.782-5.782 1.604zM1100.83 768.823l.347-8.993 8.993.347-.347 8.993z"/>
        <path fill="#F50" d="M1100.83 768.823l.347-8.993 8.993.347-.347 8.993zM1076.455 628.936l2.61-1.48 1.48 2.608-2.61 1.48z"/>
        <path fill="#F50" d="M1076.455 628.936l2.61-1.48 1.48 2.608-2.61 1.48zM934.495 758.698l6.807-4.203 4.203 6.807-6.807 4.203z"/>
        <path fill="#F50" d="M934.495 758.698l6.807-4.203 4.203 6.807-6.807 4.203zM929.14 701.4l4.46-2.26 2.26 4.46-4.46 2.26z"/>
        <path fill="#F50" d="M929.14 701.4l4.46-2.26 2.26 4.46-4.46 2.26z"/>
        <circle cx="1366.5" cy="899.5" r="5.5" fill="#DDA812"/>
        <circle cx="1542" cy="668" r="5" fill="#DDA812"/>
        <circle cx="1496.5" cy="691.5" r="5.5" fill="#DDA812"/>
        <circle cx="1479" cy="774" r="2" fill="#DDA812"/>
        <circle cx="1368" cy="757" r="5" fill="#DDA812"/>
        <circle cx="1299" cy="777" r="5" fill="#DDA812"/>
        <circle cx="1177" cy="740" r="2" fill="#DDA812"/>
        <circle cx="1012.5" cy="614.5" r="4.5" fill="#DDA812"/>
        <circle cx="1076.5" cy="838.5" r="3.5" fill="#DDA812"/>
        <path fill="#9FE2A2" d="M1520.386 795.076l4.742-1.585 3.486 10.433-4.742 1.585z"/>
        <path fill="#9FE2A2" d="M1520.386 795.076l4.742-1.585 3.486 10.433-4.742 1.585zM1491.902 823.305l7.465-5.028 11.73 17.418-7.464 5.028z"/>
        <path fill="#9FE2A2" d="M1491.902 823.305l7.465-5.028 11.73 17.418-7.464 5.028zM1441.223 888.834l7.707-4.65 10.847 17.982-7.707 4.65z"/>
        <path fill="#9FE2A2" d="M1441.223 888.834l7.707-4.65 10.847 17.982-7.707 4.65zM1419.734 688.287l5.088-8.61 3.444 2.036-5.088 8.61z"/>
        <path fill="#9FE2A2" d="M1419.734 688.287l5.088-8.61 3.444 2.036-5.088 8.61zM1341.877 699.365l2.331-14.818 6.915 1.088-2.331 14.818z"/>
        <path fill="#9FE2A2" d="M1341.877 699.365l2.331-14.818 6.915 1.088-2.331 14.818zM1298.39 901.73l19.72-3.335 1.5 8.874-19.72 3.336z"/>
        <path fill="#9FE2A2" d="M1298.39 901.73l19.72-3.335 1.5 8.874-19.72 3.336zM1222.847 795.791l2.29-5.545 12.016 4.963-2.29 5.545z"/>
        <path fill="#9FE2A2" d="M1222.847 795.791l2.29-5.545 12.016 4.963-2.29 5.545zM1191.393 765.823l1.787-2.41 6.427 4.764-1.787 2.41z"/>
        <path fill="#9FE2A2" d="M1191.393 765.823l1.787-2.41 6.427 4.764-1.787 2.41zM1151.253 688.798l3.488-6.07 13.006 7.474-3.488 6.07z"/>
        <path fill="#9FE2A2" d="M1151.253 688.798l3.488-6.07 13.006 7.474-3.488 6.07zM1122.533 850.152l10.558-5.703 2.376 4.399-10.558 5.703z"/>
        <path fill="#9FE2A2" d="M1122.533 850.152l10.558-5.703 2.376 4.399-10.558 5.703zM1041.813 713.449l7.944-6.075 2.43 3.177-7.944 6.075z"/>
        <path fill="#9FE2A2" d="M1041.813 713.449l7.944-6.075 2.43 3.177-7.944 6.075zM986.183 910.1l7.093-5.54 13.541 17.34-7.093 5.54z"/>
        <path fill="#9FE2A2" d="M986.183 910.1l7.093-5.54 13.541 17.34-7.093 5.54zM937.834 703.204l6.103-6.615 13.229 12.207-6.103 6.615z"/>
        <path fill="#9FE2A2" d="M937.834 703.204l6.103-6.615 13.229 12.207-6.103 6.615z"/>
        <path fill="#FFAEE4" d="M1511.257 947.37l.492-9.987 4.994.246-.492 9.988z"/>
        <path fill="#FFAEE4" d="M1511.257 947.37l.492-9.987 4.994.246-.492 9.988zM1329.017 999.707l9.054-16.703 7.912 4.289-9.054 16.703z"/>
        <path fill="#FFAEE4" d="M1329.017 999.707l9.054-16.703 7.912 4.289-9.054 16.703zM1447.91 917.268l7.982-.53.199 2.994-7.983.53z"/>
        <path fill="#FFAEE4" d="M1447.91 917.268l7.982-.53.199 2.994-7.983.53zM1466.324 795.285l2.964-.462 1.388 8.892-2.964.462z"/>
        <path fill="#FFAEE4" d="M1466.324 795.285l2.964-.462 1.388 8.892-2.964.462zM1440.68 778.988l8.8-1.887.84 3.911-8.8 1.887z"/>
        <path fill="#FFAEE4" d="M1440.68 778.988l8.8-1.887.84 3.911-8.8 1.887zM1431.712 727.271l9.004-4.35 9.572 19.808-9.004 4.35z"/>
        <path fill="#FFAEE4" d="M1431.712 727.271l9.004-4.35 9.572 19.808-9.004 4.35zM1351.535 732.88l3.782-8.166 18.148 8.405-3.782 8.167z"/>
        <path fill="#FFAEE4" d="M1351.535 732.88l3.782-8.166 18.148 8.405-3.782 8.167zM1278.44 695.473l.12-9 4 .054-.12 9z"/>
        <path fill="#FFAEE4" d="M1278.44 695.473l.12-9 4 .054-.12 9zM1161.41 612.724l7.163-3.564 8.017 16.116-7.163 3.564z"/>
        <path fill="#FFAEE4" d="M1161.41 612.724l7.163-3.564 8.017 16.116-7.163 3.564zM1072.796 696.474l5.075-4.822 10.333 10.874-5.075 4.822z"/>
        <path fill="#FFAEE4" d="M1072.796 696.474l5.075-4.822 10.333 10.874-5.075 4.822zM1037.824 639.217l1.794-8.82 21.558 4.386-1.794 8.82z"/>
        <path fill="#FFAEE4" d="M1037.824 639.217l1.794-8.82 21.558 4.386-1.794 8.82z"/>
        <path fill="#DDA812" d="M1524.68 650.5l4.95-18.344 8.69 2.344-4.95 18.344z"/>
        <path fill="#DDA812" d="M1524.68 650.5l4.95-18.344 8.69 2.344-4.95 18.344zM1441.98 596.32l2.611-1.476 4.43 7.835-2.612 1.477z"/>
        <path fill="#DDA812" d="M1441.98 596.32l2.611-1.476 4.43 7.835-2.612 1.477zM1415.34 684.875l4.337-4.147 8.983 9.397-4.337 4.147z"/>
        <path fill="#DDA812" d="M1415.34 684.875l4.337-4.147 8.983 9.397-4.337 4.147zM1334.384 617.205l.24-8.997 21.992.587-.24 8.997z"/>
        <path fill="#DDA812" d="M1334.384 617.205l.24-8.997 21.992.587-.24 8.997zM1357.91 771.933l2.29-4.445 8.89 4.579-2.29 4.445z"/>
        <path fill="#DDA812" d="M1357.91 771.933l2.29-4.445 8.89 4.579-2.29 4.445zM1296.458 738.504l2.067-4.553 10.017 4.545-2.067 4.553z"/>
        <path fill="#DDA812" d="M1296.458 738.504l2.067-4.553 10.017 4.545-2.067 4.553zM1244.096 721.175l3.05-8.467 19.758 7.117-3.05 8.467z"/>
        <path fill="#DDA812" d="M1244.096 721.175l3.05-8.467 19.758 7.117-3.05 8.467zM1283.989 835.03l8-.06.022 3-8 .06z"/>
        <path fill="#DDA812" d="M1283.989 835.03l8-.06.022 3-8 .06zM1188.152 694.184l19.172-12.704 5.524 8.336-19.172 12.704z"/>
        <path fill="#DDA812" d="M1188.152 694.184l19.172-12.704 5.524 8.336-19.172 12.704zM1198.04 852.72l4.2-14.4 6.72 1.96-4.2 14.4z"/>
        <path fill="#DDA812" d="M1198.04 852.72l4.2-14.4 6.72 1.96-4.2 14.4zM1228.026 930.946l6.996-5.662 11.952 14.77-6.996 5.662z"/>
        <path fill="#DDA812" d="M1228.026 930.946l6.996-5.662 11.952 14.77-6.996 5.662zM1064.978 915.654l9.159-16.647 7.885 4.339-9.159 16.647z"/>
        <path fill="#DDA812" d="M1064.978 915.654l9.159-16.647 7.885 4.339-9.159 16.647zM976.835 797.562l1.734-7.81 16.596 3.686-1.734 7.81z"/>
        <path fill="#DDA812" d="M976.835 797.562l1.734-7.81 16.596 3.686-1.734 7.81z"/>
        <circle cx="1024.5" cy="675.5" r="5.5" fill="#F50"/>
        <circle cx="1008" cy="738" r="4" fill="#F50"/>
        <circle cx="1422.5" cy="609.5" r="5.5" fill="#F50"/>
        <circle cx="1093" cy="956" r="5" fill="#F50"/>
        <circle cx="1051.5" cy="867.5" r="5.5" fill="#F50"/>
        <circle cx="1373" cy="846" r="5" fill="#F50"/>
        <circle cx="1334" cy="783" r="5" fill="#F50"/>
        <circle cx="1457" cy="845" r="2" fill="#F50"/>
        <circle cx="1496.5" cy="756.5" r="6.5" fill="#F50"/>
        <path fill="#9FE2A2" d="M900.746 731.7l9.554-2.954 2.954 9.554-9.554 2.954z"/>
        <path fill="#9FE2A2" d="M900.746 731.7l9.554-2.954 2.954 9.554-9.554 2.954zM970.981 708.39l7.629-2.409 2.409 7.629-7.629 2.409z"/>
        <path fill="#9FE2A2" d="M974.988 711.377l7.635-2.39 2.39 7.636-7.636 2.39zM1078.102 597.23l6.668-2.128 2.128 6.668-6.668 2.128z"/>
        <path fill="#9FE2A2" d="M1078.102 597.23l6.668-2.128 2.128 6.668-6.668 2.128zM1063.146 786.141l6.713-5.995 5.995 6.713-6.713 5.995z"/>
        <path fill="#9FE2A2" d="M1063.146 786.141l6.713-5.995 5.995 6.713-6.713 5.995zM1092.393 622.48l9.127-4.087 4.087 9.127-9.127 4.087z"/>
        <path fill="#9FE2A2" d="M1092.393 622.48l9.127-4.087 4.087 9.127-9.127 4.087zM1116.121 584.542l2.337-4.42 4.42 2.336-2.336 4.42z"/>
        <path fill="#9FE2A2" d="M1116.121 584.542l2.337-4.42 4.42 2.336-2.336 4.42zM1176.653 596.495l5.852-3.842 3.842 5.852-5.852 3.842z"/>
        <path fill="#9FE2A2" d="M1176.653 596.495l5.852-3.842 3.842 5.852-5.852 3.842zM1204.637 737.605l.758-8.968 8.968.758-.758 8.968z"/>
        <path fill="#9FE2A2" d="M1204.637 737.605l.758-8.968 8.968.758-.758 8.968zM1303.165 633.107l5.728-6.942 6.942 5.728-5.728 6.942z"/>
        <path fill="#9FE2A2" d="M1303.165 633.107l5.728-6.942 6.942 5.728-5.728 6.942zM1373.163 628.033l8.804-1.87 1.87 8.804-8.804 1.87z"/>
        <path fill="#9FE2A2" d="M1373.163 628.033l8.804-1.87 1.87 8.804-8.804 1.87zM1364.468 780.396l1.136-8.928 8.928 1.136-1.136 8.928z"/>
        <path fill="#9FE2A2" d="M1364.468 780.396l1.136-8.928 8.928 1.136-1.136 8.928zM1445.4 688.202l1.398-4.801 4.801 1.397-1.397 4.801z"/>
        <path fill="#9FE2A2" d="M1445.4 688.202l1.398-4.801 4.801 1.397-1.397 4.801zM1451.523 826.731l2.746-1.208 1.208 2.746-2.746 1.208z"/>
        <path fill="#9FE2A2" d="M1451.523 826.731l2.746-1.208 1.208 2.746-2.746 1.208zM1464.801 739.453l2.746-10.652 10.652 2.746-2.746 10.652z"/>
        <path fill="#9FE2A2" d="M1468.784 746.424l2.792-10.64 10.64 2.792-2.792 10.64zM1180.313 984.991l4.696-7.678 7.678 4.696-4.696 7.678z"/>
        <path fill="#9FE2A2" d="M1180.313 984.991l4.696-7.678 7.678 4.696-4.696 7.678z"/>
        <circle cx="1053.5" cy="1029.5" r="4.5" fill="#FFAEE4"/>
        <circle cx="1523" cy="724" r="6" fill="#FFAEE4"/>
        <circle cx="1464" cy="700" r="5" fill="#FFAEE4"/>
        <circle cx="1408.5" cy="639.5" r="5.5" fill="#FFAEE4"/>
        <circle cx="1354" cy="750" r="3" fill="#FFAEE4"/>
        <circle cx="1262.5" cy="758.5" r="4.5" fill="#FFAEE4"/>
        <path fill="#FFAEE4" d="M1267.896 872.894l.21-11.998 11.998.21-.21 11.998z"/>
        <circle cx="1274" cy="867" r="6" fill="#FFAEE4"/>
        <circle cx="922.5" cy="889.5" r="5.5" fill="#DDA812"/>
        <circle cx="633.5" cy="828.5" r="3.5" fill="#DDA812"/>
        <path fill="#9FE2A2" d="M1047.902 812.305l7.465-5.028 11.73 17.418-7.464 5.028z"/>
        <path fill="#9FE2A2" d="M1047.902 812.305l7.465-5.028 11.73 17.418-7.464 5.028zM997.223 877.834l7.707-4.65 10.847 17.982-7.707 4.65z"/>
        <path fill="#9FE2A2" d="M997.223 877.834l7.707-4.65 10.847 17.982-7.707 4.65zM853.39 890.73l19.72-3.335 1.5 8.874-19.72 3.336z"/>
        <path fill="#9FE2A2" d="M853.39 890.73l19.72-3.335 1.5 8.874-19.72 3.336zM677.533 840.152l10.558-5.703 2.376 4.399-10.558 5.703z"/>
        <path fill="#9FE2A2" d="M677.533 840.152l10.558-5.703 2.376 4.399-10.558 5.703z"/>
        <path fill="#DDA812" d="M840.989 825.03l8-.06.022 3-8 .06z"/>
        <path fill="#DDA812" d="M840.989 825.03l8-.06.022 3-8 .06zM754.04 841.72l4.2-14.4 6.72 1.96-4.2 14.4z"/>
        <path fill="#DDA812" d="M754.04 841.72l4.2-14.4 6.72 1.96-4.2 14.4zM619.978 904.654l9.159-16.647 7.885 4.339-9.159 16.647z"/>
        <path fill="#DDA812" d="M619.978 904.654l9.159-16.647 7.885 4.339-9.159 16.647z"/>
        <circle cx="929" cy="835" r="5" fill="#F50"/>
        <circle cx="1013" cy="834" r="2" fill="#F50"/>
        <path fill="#9FE2A2" d="M1007.523 816.731l2.746-1.208 1.208 2.746-2.746 1.208z"/>
        <path fill="#9FE2A2" d="M1007.523 816.731l2.746-1.208 1.208 2.746-2.746 1.208z"/>
        <path fill="#FFAEE4" d="M823.896 862.894l.21-11.998 11.998.21-.21 11.998z"/>
        <circle cx="830" cy="857" r="6" fill="#FFAEE4"/>
        <circle cx="1162.5" cy="923.5" r="4.5" fill="#FFAEE4"/>
        <circle cx="1018" cy="784" r="6" fill="#FFAEE4"/>
        <circle cx="980.5" cy="821.5" r="4.5" fill="#FFAEE4"/>
        <path fill="#FFAEE4" d="M1017.957 923.956l.087-5 5 .088-.088 5z"/>
        <circle cx="1020.5" cy="921.5" r="2.5" fill="#FFAEE4"/>
    </g>
</svg>
