<?xml version="1.0" encoding="UTF-8"?>
<svg width="301px" height="57px" viewBox="0 0 301 57" version="1.1" xmlns="http://www.w3.org/2000/svg" xmlns:xlink="http://www.w3.org/1999/xlink">
    <!-- Generator: sketchtool 50.2 (55047) - http://www.bohemiancoding.com/sketch -->
    <title>35163F5F-50E6-47B6-A5C0-52EC3317DEE3</title>
    <desc>Created with sketchtool.</desc>
    <defs></defs>
    <g id="game_end_win" stroke="none" stroke-width="1" fill="none" fill-rule="evenodd">
        <g id="game_end_win_mobile" transform="translate(-10.000000, -10.000000)">
            <g id="Group" transform="translate(10.000000, 10.000000)">
                <path d="M14.7915607,19.8549711 C21.5597688,19.8549711 30.9352023,16.1249133 30.9352023,9.1217341 C30.9352023,7.54109827 30.4938728,4.89052023 27.5363584,4.89052023 C22.5898266,4.89052023 17.5175723,12.4486127 14.6649711,19.8549711 L14.7915607,19.8549711 Z M18.5892486,44.5824277 C11.596474,44.5824277 7.4216185,40.2714451 7.4216185,33.0506358 C7.4216185,29.8425434 8.36757225,26.2226012 9.3733526,22.9919653 C4.02624277,21.4121965 0.866705202,17.4506358 0.866705202,12.2422543 C0.866705202,8.57549133 2.33982659,4.5783815 4.80745665,1.55063584 C5.15774566,1.11190751 5.69358382,0.867398844 6.31179191,0.867398844 C7.41034682,0.867398844 8.27132948,1.72751445 8.27132948,2.82693642 C8.27132948,3.37491329 8.09878613,3.8266474 7.75803468,4.16739884 C6.07682081,6.03676301 4.78578035,9.47809249 4.78578035,12.1382081 C4.78578035,16.6078613 7.84820809,18.4919653 10.7008092,19.2775145 C13.9886705,10.2896532 20.0034104,0.969710983 27.3707514,0.969710983 L27.5545665,0.971445087 C32.0580347,1.08156069 34.8542775,4.20381503 34.8542775,9.1217341 C34.8542775,18.1720231 24.5207514,23.7740462 14.9476301,23.7740462 C14.345896,23.7740462 13.8343353,23.7436994 13.2750867,23.6899422 C12.1982081,27.1919653 11.3406936,30.3246243 11.3406936,33.0506358 C11.3406936,38.0309827 13.847341,40.6633526 18.5892486,40.6633526 C24.8380925,40.6633526 29.0476301,36.8882081 32.664104,28.0408092 C32.9276879,27.3150867 33.6672832,26.8069942 34.4935838,26.8069942 C34.7372254,26.8069942 34.9730636,26.8512139 35.1941618,26.9396532 C36.2112139,27.4009249 36.6750867,28.4934104 36.3109249,29.4974566 C32.0484971,39.7997688 26.4221965,44.5824277 18.5892486,44.5824277 Z" id="Fill-1" fill="#A2D39F"></path>
                <path d="M15.954104,18.9519364 C19.5263584,10.2796821 24.354104,5.75713873 27.536185,5.75713873 C29.2165318,5.75713873 30.0679769,6.88864162 30.0679769,9.12130058 C30.0679769,15.177659 22.2168208,18.5713006 15.954104,18.9519364 M6.3116185,-8.67052023e-05 C5.43763006,-8.67052023e-05 4.6399422,0.370144509 4.12404624,1.01609827 C1.54630058,4.18083815 0.000346820809,8.38257225 0.000346820809,12.2426879 C0.000346820809,17.5854624 3.06364162,21.7074277 8.29369942,23.5542486 C7.33734104,26.7207225 6.55439306,29.9912428 6.55439306,33.0510694 C6.55439306,40.6984682 11.1662428,45.4499133 18.5890751,45.4499133 C26.8173988,45.4499133 32.6986127,40.4973121 37.0980347,29.8637861 L37.1127746,29.829104 L37.1257803,29.7935549 C37.6468786,28.3603179 36.9853179,26.8004913 35.5884971,26.1658092 L35.552948,26.1493353 L35.5165318,26.1354624 C35.1922543,26.0054046 34.8480347,25.9395087 34.4934104,25.9395087 C33.3185549,25.9395087 32.2624855,26.6600289 31.8523699,27.7360405 C28.3919653,36.1897977 24.4243353,39.7967341 18.5890751,39.7967341 C14.3543931,39.7967341 12.2075723,37.5267919 12.2075723,33.0510694 C12.2075723,30.611185 12.9419653,27.7741908 13.9009249,24.6094509 C14.2356069,24.6302601 14.5746243,24.6415318 14.9474566,24.6415318 C24.9376301,24.6415318 35.7211561,18.7074277 35.7211561,9.12130058 C35.7211561,3.76465318 32.5252023,0.225346821 27.5786705,0.10482659 L27.370578,0.102225434 C19.7752023,0.102225434 13.6269364,9.18893064 10.1752023,18.2097399 C7.17260116,17.1640751 5.65352601,15.1273699 5.65352601,12.1386416 C5.65352601,9.67794798 6.83791908,6.50280347 8.4133526,4.73748555 C8.75323699,4.37939306 9.13820809,3.76725434 9.13820809,2.82650289 C9.13820809,1.24153179 7.89745665,-8.67052023e-05 6.3116185,-8.67052023e-05 M14.7913873,20.7224566 C22.4908092,20.7224566 31.8020809,16.5085838 31.8020809,9.12130058 C31.8020809,6.15598266 30.3974566,4.02303468 27.536185,4.02303468 C21.3983237,4.02303468 15.8838728,13.8033815 13.4387861,20.6695665 C13.8549711,20.7224566 14.3231792,20.7224566 14.7913873,20.7224566 M6.3116185,1.73401734 C6.88473988,1.73401734 7.40410405,2.15020231 7.40410405,2.82650289 C7.40410405,3.0866185 7.35208092,3.3467341 7.14398844,3.55482659 C5.27202312,5.63575145 3.91942197,9.27736994 3.91942197,12.1386416 C3.91942197,16.7678324 6.93676301,19.3689884 11.253815,20.3062717 C14.1454335,12.045 20.0595954,1.83632948 27.370578,1.83632948 C27.4252023,1.83632948 27.4806936,1.83719653 27.536185,1.83806358 C31.8020809,1.94210983 33.987052,5.01147399 33.987052,9.12130058 C33.987052,17.861185 23.7913873,22.9074277 14.9474566,22.9074277 C14.1671098,22.9074277 13.5428324,22.8545376 12.6584393,22.7504913 C11.4619075,26.6002023 10.4734682,30.0337283 10.4734682,33.0510694 C10.4734682,38.6175434 13.4908092,41.5308382 18.5890751,41.5308382 C25.7673988,41.5308382 30.0853179,36.6397977 33.4668208,28.3689884 C33.6272254,27.9293931 34.0633526,27.6736127 34.4934104,27.6736127 C34.6226012,27.6736127 34.7509249,27.6961561 34.8714451,27.744711 C35.4436994,28.0048266 35.703815,28.629104 35.4957225,29.2013584 C31.7500578,38.2533815 26.703815,43.7158092 18.5890751,43.7158092 C11.8260694,43.7158092 8.28849711,39.5019364 8.28849711,33.0510694 C8.28849711,29.877659 9.22491329,26.2880636 10.4734682,22.3863295 C5.16797688,21.1377746 1.73445087,17.5481792 1.73445087,12.2426879 C1.73445087,8.70511561 3.19023121,4.90742775 5.47924855,2.09904624 C5.68734104,1.83806358 6.00034682,1.73401734 6.3116185,1.73401734" id="Fill-3" fill="#000000"></path>
                <path d="M44.1315607,18.6237572 C42.6523699,18.6237572 41.0162428,20.0405202 39.5231792,22.6139306 C36.9081503,26.9379191 35.5312717,31.1543931 35.5312717,34.819422 C35.5312717,37.1257803 36.5275145,37.1257803 36.953237,37.1257803 C38.2642197,37.1257803 40.0633526,35.7150867 41.8104624,33.3298266 C41.3188439,31.6936994 41.5113295,29.4671098 41.8399422,28.2913873 C42.0055491,27.4546821 42.804104,26.8252023 43.7673988,26.8252023 C44.2191329,26.8252023 44.6431214,26.9734682 44.9830058,27.2422543 C45.8292486,24.9827168 46.3338728,22.7387861 46.3338728,21.086185 C46.3338728,19.4977457 45.5517919,18.6237572 44.1315607,18.6237572 M36.953237,41.0448555 C33.4746243,41.0448555 31.5593064,38.8711561 31.5593064,34.9234682 C31.5593064,30.2821387 33.0480347,25.5905202 36.1095954,20.5815607 C38.4142197,16.7387861 41.2078613,14.7046821 44.1835838,14.7046821 C47.8806936,14.8165318 50.252948,17.3413873 50.252948,21.1382081 C50.252948,24.386185 48.6931214,29.3439884 46.4188439,33.4130636 C46.8064162,33.670578 47.3231792,33.7963006 47.9812717,33.7963006 C49.0963006,33.7963006 50.8295376,33.1989017 53.0084393,28.0321387 C53.2737572,27.3237572 53.9968786,26.8252023 54.7963006,26.8252023 C55.4726012,26.8252023 56.0977457,27.1616185 56.4688439,27.7252023 C56.8269364,28.2679769 56.8884971,28.9468786 56.6327168,29.5425434 C54.1711561,35.1965896 51.5023699,37.7153757 47.9812717,37.7153757 C46.6173988,37.7153757 45.3263584,37.3442775 44.2009249,36.6350289 C41.9465896,39.4113295 39.2804046,41.0448555 36.953237,41.0448555" id="Fill-5" fill="#DBA827"></path>
                <path d="M36.9529769,36.2586416 C36.7457514,36.2586416 36.3980636,36.2586416 36.3980636,34.8193353 C36.3980636,31.3121098 37.7324566,27.2508382 40.2573121,23.0751156 C41.5656936,20.8207803 43.0076012,19.4907225 44.1313006,19.4907225 C44.7529769,19.4907225 45.4665607,19.6719364 45.4665607,21.0860983 C45.4665607,22.4066185 45.0997977,24.1944798 44.4824566,26.048237 C44.2526879,25.9892775 44.0133815,25.9589306 43.7671387,25.9589306 C42.4119364,25.9589306 41.2813006,26.8398555 40.9908382,28.1100867 C40.6206069,29.4713584 40.4966185,31.5063295 40.8677168,33.1424566 C39.2229191,35.2884104 37.7445954,36.2586416 36.9529769,36.2586416 Z M44.2102023,13.8375434 L44.1833237,13.8375434 C41.8839017,13.8375434 38.487659,14.930896 35.3619364,20.1418786 C32.222341,25.2782948 30.6928613,30.1173121 30.6928613,34.9233815 C30.6928613,39.365289 32.9749422,41.9118208 36.9529769,41.9118208 C40.1194509,41.9118208 42.8090462,39.5439017 44.3974855,37.7413006 C45.4960405,38.2953468 46.7107803,38.582341 47.9810116,38.582341 C53.055,38.582341 55.8018208,33.6236705 57.4258092,29.8936127 C57.8003757,29.0196243 57.7119364,28.0346532 57.1925723,27.2473699 C56.6602023,26.4401445 55.7645376,25.9589306 54.7960405,25.9589306 C53.6523988,25.9589306 52.6145376,26.6638439 52.1992197,27.7181792 C50.738237,31.1759827 49.3197399,32.9291618 47.9810116,32.9291618 C47.8682948,32.9291618 47.7659827,32.9248266 47.672341,32.9170231 C49.7662717,28.8886994 51.1197399,24.3288728 51.1197399,21.1381214 C51.1197399,16.8306069 48.4180058,13.965 44.2362139,13.8384104 L44.2102023,13.8375434 Z M36.9529769,37.9927457 C38.8778324,37.9927457 41.0628035,35.9118208 42.7795665,33.4667341 C42.2073121,32.1141329 42.3113584,29.8259827 42.6755202,28.5254046 C42.7795665,28.0043064 43.2469075,27.6930347 43.7671387,27.6930347 C44.4954624,27.6930347 45.0156936,28.3684682 44.8084682,29.097659 C44.6515318,29.5138439 44.6515318,29.9300289 44.5995087,30.2941908 C46.2122254,27.0687572 47.2006647,23.4791618 47.2006647,21.0860983 C47.2006647,18.9011272 45.9000867,17.7566185 44.1313006,17.7566185 C42.155289,17.7566185 40.2824566,19.5774277 38.7737861,22.1785838 C37.421185,24.415578 34.6639595,29.4618208 34.6639595,34.8193353 C34.6639595,36.6921676 35.288237,37.9927457 36.9529769,37.9927457 Z M44.1833237,15.5716474 C47.6168497,15.6756936 49.3856358,18.0167341 49.3856358,21.1381214 C49.3856358,24.415578 47.720896,29.5138439 45.3278324,33.5707803 C45.9000867,34.299104 46.7844798,34.6632659 47.9810116,34.6632659 C50.1659827,34.6632659 51.9867919,32.6863873 53.8076012,28.3684682 C53.9636705,27.9522832 54.3798555,27.6930347 54.7960405,27.6930347 C55.5763873,27.6930347 56.1486416,28.4733815 55.8365029,29.2008382 C53.5474855,34.4551734 51.1023988,36.848237 47.9810116,36.848237 C46.5243642,36.848237 45.171763,36.3800289 44.0272543,35.4436127 C42.1023988,38.0447688 39.4500867,40.1777168 36.9529769,40.1777168 C33.571474,40.1777168 32.4269653,37.9407225 32.4269653,34.9233815 C32.4269653,28.8886994 35.1321676,23.8433237 36.8489306,21.0340751 C39.0330347,17.3924566 41.5821676,15.5716474 44.1833237,15.5716474 Z" id="Fill-7" fill="#000000"></path>
                <path d="M67.0733237,41.0447688 C64.228526,41.0447688 62.4606069,39.0384104 62.4606069,35.8077746 C62.4606069,33.1571965 63.5504913,30.2733815 64.6039595,27.4840751 C65.5889306,24.8785838 66.5184104,22.4187572 66.5184104,20.3577746 C66.5184104,19.0519942 65.9860405,18.5196243 64.6802601,18.5196243 C62.3921098,18.5196243 58.6377746,24.2551734 56.7007803,29.4028613 L53.0652312,39.6869653 C52.7929769,40.5011272 52.0473121,41.0369653 51.1715896,41.0369653 C50.9834393,41.0369653 50.7970231,41.0118208 50.6149422,40.9623988 C49.512052,40.564422 48.995289,39.4927457 49.3438439,38.4470809 C50.6713006,34.7725145 52.1270809,30.6583526 53.5074277,26.7583526 C54.9571387,22.6632659 56.3236127,18.8022832 57.3632081,15.9514162 C57.6233237,15.1710694 58.3542486,14.6525723 59.2178324,14.6525723 C59.8698555,14.6525723 60.4793931,14.9733815 60.8478902,15.5100867 C60.9215896,15.6176012 60.9840173,15.7303179 61.0334393,15.8465029 C62.2438439,15.0106647 63.4490462,14.6005491 64.6802601,14.6005491 C68.4467341,14.6005491 70.4374855,16.5913006 70.4374855,20.3577746 C70.4374855,22.9095087 69.3233237,25.9623988 68.2464451,28.915578 C67.2866185,31.5462139 66.3796821,34.031185 66.3796821,35.8077746 C66.3796821,37.1256936 66.7169653,37.1256936 67.0733237,37.1256936 C68.9340173,37.1256936 70.6265029,34.8245376 73.7773699,28.0051734 C74.1502023,27.2577746 74.8091618,26.8259827 75.5530925,26.8259827 C75.8496243,26.8259827 76.0967341,26.9083526 76.295289,26.9742486 L76.3542486,26.9933237 L76.4088728,27.0210694 C77.1328613,27.3834971 77.5646532,28.0424566 77.5646532,28.7846532 C77.5646532,29.0829191 77.477948,29.3395665 77.4155202,29.5277168 L77.3834393,29.6092197 C74.044422,37.0259827 71.411185,41.0447688 67.0733237,41.0447688" id="Fill-9" fill="#F05822"></path>
                <path d="M64.6804335,13.7334971 C63.5411272,13.7334971 62.4061561,14.049104 61.2859249,14.6759827 C60.7526879,14.1123988 60.0070231,13.7855202 59.2180058,13.7855202 C57.9841908,13.7855202 56.9367919,14.5251156 56.5422832,15.6713584 C55.5018208,18.5265607 54.1353468,22.3849422 52.6899711,26.4687572 C51.2957514,30.4077746 49.8538439,34.481185 48.5350578,38.132341 C48.0200289,39.6748266 48.7639595,41.215578 50.2509538,41.7557514 L50.3177168,41.7800289 L50.3862139,41.798237 C50.6428613,41.8684682 50.9064451,41.9040173 51.170896,41.9040173 C52.4272543,41.9040173 53.4954624,41.1358092 53.8925723,39.9462139 L57.5237861,29.6751156 C58.2087572,27.8569075 59.5292775,25.0441908 61.1463295,22.7014162 C62.9515318,20.0846532 64.2174277,19.3866763 64.6804335,19.3866763 C65.4971965,19.3866763 65.6515318,19.5410116 65.6515318,20.3577746 C65.6515318,22.2600867 64.7489306,24.648815 63.7934393,27.1771387 C62.7113584,30.0392775 61.5937283,32.998526 61.5937283,35.8077746 C61.5937283,39.5161561 63.7440173,41.9118208 67.0734971,41.9118208 C71.8830347,41.9118208 74.6853468,37.7135549 78.1743642,29.965578 L78.2099133,29.8858092 L78.237659,29.8034393 C78.3148266,29.5728035 78.4310116,29.2242486 78.4310116,28.7846532 C78.4310116,27.7225145 77.805,26.7496821 76.7966185,26.2459249 L76.6865029,26.1904335 L76.5694509,26.1514162 C76.338815,26.0751156 75.9902601,25.9589306 75.5532659,25.9589306 C74.4902601,25.9589306 73.5165607,26.5849422 73.0128035,27.5941908 L73.0015318,27.6176012 L72.9902601,27.6418786 C70.6960405,32.6057514 68.8344798,35.9785838 67.2685838,36.2421676 C67.2564451,36.1372543 67.2469075,35.9950578 67.2469075,35.8077746 C67.2469075,34.1837861 68.1685838,31.6563295 69.0607803,29.2129769 C70.1636705,26.1895665 71.304711,23.0629769 71.304711,20.3577746 C71.304711,16.148237 68.8899711,13.7334971 64.6804335,13.7334971 M64.6804335,15.4676012 C68.4260983,15.4676012 69.5706069,17.6005491 69.5706069,20.3577746 C69.5706069,24.9869653 65.5128035,31.8019942 65.5128035,35.8077746 C65.5128035,37.3164451 65.9810116,37.9927457 67.0734971,37.9927457 C69.5185838,37.9927457 71.3914162,35.2355202 74.5639595,28.3684682 C74.772052,27.9522832 75.1370809,27.6930347 75.5532659,27.6930347 C75.7084682,27.6930347 75.8645376,27.7450578 76.021474,27.7970809 C76.4367919,28.0043064 76.6969075,28.3684682 76.6969075,28.7846532 C76.6969075,28.9415896 76.6448844,29.097659 76.5928613,29.2528613 C73.0561561,37.1083526 70.6102023,40.1777168 67.0734971,40.1777168 C64.5763873,40.1777168 63.3278324,38.3569075 63.3278324,35.8077746 C63.3278324,30.9176012 67.3856358,24.8837861 67.3856358,20.3577746 C67.3856358,18.849104 66.7093353,17.6525723 64.6804335,17.6525723 C61.5070231,17.6525723 57.5532659,24.6756936 55.888526,29.097659 L52.2477746,39.3973699 C52.0786994,39.9028613 51.6373699,40.1699133 51.170896,40.1699133 C51.0616474,40.1699133 50.9515318,40.1551734 50.8431503,40.1256936 C50.2700289,39.9176012 49.9587572,39.3453468 50.1668497,38.7210694 C52.871185,31.2306069 56.1486416,21.814422 58.1775434,16.247948 C58.3336127,15.7797399 58.7497977,15.5196243 59.2180058,15.5196243 C59.9983526,15.5196243 60.5185838,16.2999711 60.2584682,16.9762717 L59.8422832,18.0167341 C61.3509538,16.4560405 62.9636705,15.4676012 64.6804335,15.4676012" id="Fill-11" fill="#000000"></path>
                <path d="M85.0304046,18.6237572 C81.1226012,18.7234682 76.7899422,28.8593064 76.6806936,34.2645087 C76.6425434,35.0483237 76.5731792,36.4616185 76.9980347,36.9081503 C77.0491908,36.9619075 77.2052601,37.1257803 77.7376301,37.1257803 C81.4425434,37.1257803 84.7546821,28.6789595 86.3465896,24.619422 L87.4295376,21.8136416 C87.3853179,19.8168208 86.4957225,18.6289595 85.0304046,18.6237572 Z M79.0555491,45.7668208 C78.5908092,45.8621965 78.1312717,45.9506358 77.6726012,46.0269364 C72.3445665,46.953815 71.4948555,48.4000578 71.3708671,49.8246243 C71.3743353,51.0315607 72.1156647,51.7971676 73.3572832,51.7971676 L73.4474566,51.7963006 C76.0824277,51.7468786 77.8980347,48.7520809 79.0555491,45.7668208 Z M73.3555491,55.7153757 C69.8266474,55.7153757 67.4552601,53.3387861 67.4552601,49.8012139 C67.4552601,45.8691329 70.6520809,43.2896532 76.9572832,42.1338728 C78.3489017,41.9110405 79.502948,41.6856069 80.5590173,41.4272254 L80.9899422,40.1908092 C79.9633526,40.7587283 78.9107514,41.0448555 77.8416763,41.0448555 C72.7095954,41.0448555 72.7095954,35.8893642 72.7095954,34.1951445 C72.9636416,27.4815607 77.9344509,14.7046821 84.9688439,14.7046821 C86.870289,14.7046821 88.4249133,15.3489017 89.5451445,16.586185 L89.7792486,15.9844509 C90.0280925,15.2353179 90.7564162,14.7046821 91.5757803,14.7046821 C92.2607514,14.7046821 92.8919653,15.0133526 93.2647977,15.5301156 C93.6324277,16.0408092 93.7130636,16.6893642 93.4902312,17.3552601 C92.703815,19.2775145 91.4240462,22.6780925 89.9413873,26.6162428 L89.5780925,27.5821387 L86.8260694,35.3179769 L85.2619075,39.8630636 C89.5095954,37.8662428 92.7124855,34.0737572 95.2512139,28.0824277 C95.636185,27.3098844 96.2951445,26.8780925 97.0382081,26.8780925 C97.3338728,26.8780925 97.5818497,26.9604624 97.7804046,27.0263584 L97.8384971,27.0454335 L97.8931214,27.0731792 C98.6171098,27.4347399 99.0489017,28.0936994 99.0489017,28.836763 C99.0489017,29.1332948 98.9673988,29.3804046 98.9015029,29.5780925 C95.3595954,37.9252023 90.7772254,42.4477457 83.6101734,44.6778035 C80.987341,51.9454335 77.5824277,55.6572832 73.4847399,55.7145087 L73.3555491,55.7153757 Z" id="Fill-13" fill="#EFAECE"></path>
                <path d="M72.2421676,49.8177746 C72.3097977,49.1267341 72.6176012,47.8209538 77.6187572,46.9174855 C76.3840751,49.4986994 74.9413006,50.9015896 73.4404335,50.9293353 L73.3571965,50.9302023 C72.8889884,50.9302023 72.2690462,50.8131503 72.2421676,49.8177746 M77.614422,36.2527457 C77.5433237,36.0333815 77.4878324,35.5157514 77.5450578,34.3322254 L77.5467919,34.3070809 L77.5467919,34.2828035 C77.5962139,31.8550578 78.6878324,27.9828035 80.2017052,24.8674855 C81.798815,21.5813584 83.6595087,19.5203757 85.0580636,19.4900289 C86.2294509,19.490896 86.5112428,20.7403179 86.5571965,21.6663295 L85.5366763,24.3117052 C84.2569075,27.5726879 80.8511272,36.258815 77.7375434,36.258815 C77.6872543,36.258815 77.6465029,36.2562139 77.614422,36.2527457 M91.5756936,13.8377168 C90.6080636,13.8377168 89.7288728,14.3432081 89.2277168,15.1443642 C88.0623988,14.2894509 86.6161561,13.8377168 84.9687572,13.8377168 C77.3040173,13.8377168 72.114711,26.975289 71.8433237,34.1293353 L71.8424566,34.1622832 L71.8424566,34.1952312 C71.8424566,37.0885838 72.5447688,40.4380058 75.548237,41.5400289 C69.5898555,42.9039017 66.5881214,45.6784682 66.5881214,49.8013006 C66.5881214,53.7940751 69.3704913,56.5825145 73.3554624,56.5825145 L73.5019942,56.5816474 C77.9118208,56.5200867 81.5369653,52.7510116 84.2785838,45.3741329 C91.3918786,43.0339595 96.1632659,38.2513006 99.6739595,29.9830925 L99.7008382,29.9189306 L99.7233815,29.8539017 C99.8005491,29.6223988 99.9158671,29.274711 99.9158671,28.8368497 C99.9158671,27.774711 99.2898555,26.8018786 98.2806069,26.2981214 L98.1713584,26.2426301 L98.0543064,26.2036127 C97.8236705,26.1273121 97.4751156,26.0102601 97.0381214,26.0102601 C95.9759827,26.0102601 95.0031503,26.6371387 94.498526,27.6446532 L94.4742486,27.6940751 L94.4525723,27.7443642 C92.4097977,32.5660405 89.9378324,35.9033237 86.8251156,37.9842486 L87.648815,35.592052 L90.3999711,27.857948 L90.7528613,26.9223988 C92.2329191,22.9903179 93.5109538,19.5949422 94.2722254,17.7385838 L94.2947688,17.6848266 L94.3129769,17.6293353 C94.6216474,16.7059249 94.4950578,15.7556358 93.9678902,15.0238439 C93.432052,14.2807803 92.5381214,13.8377168 91.5756936,13.8377168 M80.3907225,44.5989884 C79.4022832,44.807948 78.4667341,45.0151734 77.5303179,45.1721098 C72.7441908,46.0044798 70.715289,47.3570809 70.5071965,49.7492775 C70.5071965,51.5310694 71.6517052,52.6643064 73.3571965,52.6643064 C73.3953468,52.6643064 73.4334971,52.6643064 73.4725145,52.6625723 C76.281763,52.6105491 78.6739595,49.8541908 80.3907225,44.5989884 M77.7375434,37.9929191 C81.8993931,37.9929191 85.0728035,30.241474 87.1537283,24.9359827 L88.298237,21.9706647 C88.298237,19.2134393 86.8936127,17.7567919 85.0207803,17.7567919 C80.1826301,17.8608382 75.9176012,29.0978324 75.8135549,34.2472543 C75.7095087,36.3802023 75.8135549,37.9929191 77.7375434,37.9929191 M91.5756936,15.5718208 C92.3040173,15.5718208 92.9803179,16.1440751 92.6681792,17.0804913 C91.8358092,19.1093931 90.431185,22.8550578 88.7664451,27.2761561 L86.0092197,35.0276012 L83.8242486,41.374422 C89.8069075,39.3455202 93.448526,34.5593931 96.0496821,28.4206647 C96.2577746,28.0044798 96.6219364,27.7443642 97.0381214,27.7443642 C97.1933237,27.7443642 97.3502601,27.7972543 97.5063295,27.8492775 C97.9225145,28.0565029 98.181763,28.4206647 98.181763,28.8368497 C98.181763,28.9929191 98.1297399,29.1489884 98.0777168,29.3050578 C94.8531503,36.9004335 90.5352312,41.7385838 82.9398555,43.975578 C80.4427457,51.1018786 77.2173121,54.7955202 73.4725145,54.8475434 C73.4334971,54.8484104 73.3944798,54.8484104 73.3554624,54.8484104 C70.2999711,54.8484104 68.3222254,52.8325145 68.3222254,49.8013006 C68.3222254,46.524711 70.8713584,44.1307803 77.1141329,42.9871387 C78.414711,42.7790462 79.8184682,42.5189306 81.2230925,42.1547688 L82.7837861,37.6807803 C81.3791618,39.1374277 79.714422,40.1778902 77.8415896,40.1778902 C74.4089306,40.1778902 73.5765607,37.524711 73.5765607,34.1952312 C73.8366763,27.3290462 78.7788728,15.5718208 84.9687572,15.5718208 C87.3097977,15.5718208 88.8704913,16.6643064 89.7548844,18.4330925 L90.5872543,16.3001445 C90.7433237,15.8319364 91.1595087,15.5718208 91.5756936,15.5718208" id="Fill-15" fill="#000000"></path>
                <path d="M100.454827,14.8397688 C100.463497,14.844104 100.454827,14.8839884 100.454827,14.9481503 C100.454827,15.0894798 100.475636,15.2368786 100.517254,15.3851445 C100.534595,15.2828324 100.541532,15.2082659 100.541532,15.1553757 C100.541532,14.994104 100.520723,14.8891908 100.501647,14.8302312 C100.478237,14.8336994 100.463497,14.8371676 100.454827,14.8397688 Z M107.650491,41.0446821 C104.88026,41.0446821 103.090665,38.9889017 103.090665,35.8076879 C103.090665,34.6709827 103.260607,33.5559538 103.642977,32.192948 C104.006272,30.7371676 105.733439,25.4793642 106.525925,23.2406358 C104.164075,22.4611561 103.205983,22.127341 102.440376,21.793526 C102.168121,22.4126012 101.679104,23.4790751 100.714942,25.5825434 L98.0348844,31.4342775 C97.6819942,32.142659 97.0256358,32.5649133 96.3103179,32.5649133 C95.9634971,32.5649133 95.7077168,32.4808092 95.5204335,32.4183815 L95.4371965,32.3915029 L95.3591618,32.3472832 C94.7054046,31.9727168 94.2987572,31.3059538 94.2987572,30.6062428 C94.2987572,30.309711 94.3811272,30.0626012 94.4470231,29.8649133 L94.4817052,29.7756069 L98.6435549,20.7235838 L99.0042486,19.8209827 C97.344711,18.4909249 96.5357514,16.959711 96.5357514,15.1553757 C96.5357514,12.7336994 98.2724566,10.9068208 100.576214,10.9068208 C102.899046,10.9068208 104.460607,12.6357225 104.460607,15.2073988 C104.460607,16.0154913 104.295867,16.5383237 103.898757,17.8016185 L103.813786,18.0730058 C104.894133,18.5516185 106.10974,18.9678035 107.206561,19.3423699 L107.777081,19.5383237 C108.564364,19.7611561 109.23026,19.9718497 109.767832,20.1669364 C110.777081,20.5345665 111.281705,21.6756069 110.91841,22.7646243 C110.25078,24.4631792 107.75974,31.8712717 107.452803,33.1493064 C107.135462,34.2643353 107.052225,35.1079769 107.008006,35.8588439 C107.00974,37.1256069 107.443266,37.1256069 107.702514,37.1256069 C109.651647,37.1256069 111.467254,34.6571098 114.400491,28.0180925 C114.779393,27.2576879 115.43922,26.825896 116.182283,26.825896 C116.479682,26.825896 116.737197,26.9117341 116.925347,26.9750289 L116.982572,26.994104 L117.037197,27.0209827 C117.761185,27.3825434 118.193844,28.0423699 118.193844,28.7845665 C118.193844,29.0828324 118.108006,29.3403468 118.044711,29.5276301 C114.935462,36.6652023 112.134884,41.0446821 107.702514,41.0446821 L107.650491,41.0446821 Z" id="Fill-17" fill="#A2D39F"></path>
                <path d="M100.575954,10.0400289 C97.7779769,10.0400289 95.6684393,12.2397399 95.6684393,15.1556358 C95.6684393,17.0501445 96.4227746,18.6706647 97.9678613,20.0770231 L97.8378035,20.4013006 L93.6941618,29.4134393 L93.6551445,29.4992775 L93.6247977,29.5894509 C93.5476301,29.8209538 93.4314451,30.1686416 93.4314451,30.6056358 C93.4314451,31.6157514 94.0054335,32.5712428 94.9288439,33.0992775 L95.079711,33.1859827 L95.2453179,33.2406069 C95.463815,33.3125723 95.8245087,33.4322254 96.3100578,33.4322254 C97.3574566,33.4322254 98.3103468,32.825289 98.7976301,31.8489884 L98.8115029,31.8221098 L98.8236416,31.7952312 C99.9872254,29.2504335 100.85341,27.3602601 101.502832,25.9443642 C102.154855,24.5215318 102.590983,23.5703757 102.890116,22.9105491 C103.48578,23.1359827 104.251387,23.3995665 105.415838,23.7862717 C104.533179,26.3458092 103.134624,30.6645954 102.801676,31.9816474 C102.401965,33.4140173 102.223353,34.5949422 102.223353,35.807948 C102.223353,39.5163295 104.353699,41.9119942 107.651098,41.9119942 L107.703121,41.9119942 C112.607168,41.9119942 115.589827,37.3339595 118.811792,29.9466763 L118.843006,29.875578 L118.867283,29.8027457 C118.944451,29.5721098 119.060636,29.2235549 119.060636,28.7848266 C119.060636,27.7226879 118.433757,26.7489884 117.425376,26.2452312 L117.316127,26.1906069 L117.199942,26.1524566 C116.969306,26.075289 116.620751,25.958237 116.18289,25.958237 C115.119884,25.958237 114.146185,26.5851156 113.642428,27.5943642 L113.62422,27.6307803 L113.607746,27.6680636 C111.798208,31.7631503 109.716416,35.9466763 107.904277,36.242341 C107.890405,36.1486994 107.878266,36.0229769 107.876532,35.8556358 C107.919017,35.1680636 107.999653,34.3963873 108.277977,33.4226879 L108.287514,33.3871387 L108.296185,33.3515896 C108.565838,32.2304913 111.021329,24.8709538 111.708902,23.125578 L111.726243,23.0830925 L111.740116,23.0397399 C112.254277,21.5007225 111.51815,19.8819364 110.064971,19.3521676 C109.516127,19.1527457 108.845896,18.941185 108.014393,18.7027457 L107.486358,18.5215318 C106.646185,18.2345376 105.733179,17.9223988 104.876532,17.5799133 C105.185202,16.5854046 105.327399,16.025289 105.327399,15.207659 C105.327399,12.1651734 103.373931,10.0400289 100.575954,10.0400289 M100.836069,17.3406069 C101.096185,16.6122832 101.408324,15.6758671 101.408324,15.1556358 C101.408324,14.2712428 100.992139,13.959104 100.575954,13.959104 C99.8996532,13.959104 99.5875145,14.375289 99.5875145,14.9475434 C99.5875145,15.7799133 100.055723,16.7163295 100.836069,17.3406069 M100.575954,11.7741329 C102.448786,11.7741329 103.593295,13.1267341 103.593295,15.207659 C103.593295,16.0400289 103.385202,16.508237 102.760925,18.5371387 C104.217572,19.2654624 105.986358,19.8377168 107.494162,20.357948 C108.223353,20.5660405 108.899653,20.7741329 109.471908,20.9822254 C110.043295,21.1903179 110.304277,21.8666185 110.095318,22.4900289 C109.419884,24.2067919 106.922775,31.6460983 106.609769,32.9466763 C106.298497,34.0391618 106.194451,34.9235549 106.142428,35.807948 C106.142428,37.108526 106.558613,37.9929191 107.703121,37.9929191 C110.252254,37.9929191 112.228266,35.0796243 115.193584,28.3686416 C115.401676,27.9524566 115.765838,27.692341 116.18289,27.692341 C116.338092,27.692341 116.494162,27.7443642 116.650231,27.7963873 C117.066416,28.0044798 117.326532,28.3686416 117.326532,28.7848266 C117.326532,28.940896 117.274509,29.0969653 117.222486,29.2530347 C113.840983,37.0044798 111.239827,40.1778902 107.703121,40.1778902 L107.651098,40.1778902 C105.206012,40.1778902 103.957457,38.3570809 103.957457,35.807948 C103.957457,34.7674855 104.113526,33.7270231 104.477688,32.4264451 C104.893873,30.7617052 107.18289,23.8426301 107.651098,22.6989884 C103.697341,21.3984104 103.125087,21.1903179 101.980578,20.6180636 C101.772486,21.242341 101.408324,21.9706647 97.246474,31.0738439 C97.0383815,31.4900289 96.6742197,31.6981214 96.3100578,31.6981214 C96.1019653,31.6981214 95.945896,31.6460983 95.7898266,31.5940751 C95.4256647,31.3859827 95.1655491,31.0218208 95.1655491,30.6056358 C95.1655491,30.4495665 95.2175723,30.2934971 95.2695954,30.1374277 L99.4314451,21.0862717 L100.055723,19.525578 C98.4950289,18.4330925 97.4025434,17.0804913 97.4025434,15.1556358 C97.4025434,13.0226879 98.9112139,11.7741329 100.575954,11.7741329" id="Fill-19" fill="#000000"></path>
                <path d="M125.659855,18.6237572 C121.602919,18.7286705 117.303208,29.3717341 117.206098,34.2124855 C117.206098,37.1257803 118.019393,37.1257803 118.367081,37.1257803 C121.999162,37.1257803 125.081532,29.2642197 126.924017,24.5665318 L128.103208,21.4217341 C127.974884,19.669422 127.070549,18.6280925 125.659855,18.6237572 M128.667659,41.0448555 C126.505231,41.0448555 124.965347,39.8847399 124.350607,37.9104624 C122.473439,39.9922543 120.484422,41.0448555 118.419104,41.0448555 C115.253497,41.0448555 113.286156,38.5598844 113.286156,34.5593064 C113.286156,27.7633526 118.507543,14.7046821 125.650318,14.7046821 C127.524884,14.7046821 129.051763,15.3116185 130.149451,16.4760694 C130.193671,16.3633526 130.458988,15.6766474 130.458988,15.6766474 C130.739046,14.9309827 131.466503,14.4445665 132.309277,14.4445665 C132.969971,14.4445665 133.554364,14.753237 133.913324,15.2916763 C134.269682,15.8266474 134.339913,16.520289 134.097139,17.1020809 L131.508988,24.0428324 L130.941936,25.6286705 C129.349162,30.069711 127.974017,33.9055491 127.974017,35.8078613 C127.974017,37.1257803 128.280087,37.1257803 128.667659,37.1257803 C131.321705,37.1257803 133.813613,31.5393642 135.301474,28.2012139 L135.355231,28.036474 L135.382977,27.9809827 C135.745405,27.2578613 136.404364,26.8252023 137.147428,26.8252023 C137.443092,26.8252023 137.690202,26.9075723 137.888757,26.9734682 L137.945983,26.9934104 L138.002341,27.0211561 C138.726329,27.3827168 139.158121,28.0416763 139.158121,28.7847399 C139.158121,29.0838728 139.072283,29.3405202 139.009855,29.5278035 L138.94396,29.7263584 L138.819971,29.9994798 C136.713035,34.6607514 133.826618,41.0448555 128.667659,41.0448555" id="Fill-21" fill="#DBA827"></path>
                <path d="M118.358497,36.2586416 C118.276994,36.1138439 118.07237,35.6092197 118.07237,34.1950578 C118.196358,28.0788728 123.03711,19.547948 125.688555,19.4907225 C126.797514,19.4907225 127.132197,20.5121098 127.22237,21.3028613 L126.108208,24.2751156 C124.588266,28.148237 121.407919,36.2586416 118.367168,36.2586416 L118.358497,36.2586416 Z M132.309364,13.5774277 C131.235954,13.5774277 130.29,14.1366763 129.804451,15.0288728 C128.675549,14.2424566 127.276994,13.8375434 125.650405,13.8375434 C122.170925,13.8375434 118.755607,16.6259827 116.033931,21.6886994 C113.838555,25.7733815 112.419191,30.8248266 112.419191,34.5600867 C112.419191,39.0254046 114.774971,41.9118208 118.419191,41.9118208 C120.397803,41.9118208 122.292312,41.0777168 124.076705,39.4242486 C125.004451,40.9970809 126.611098,41.9118208 128.667746,41.9118208 C134.385954,41.9118208 137.529884,34.9580636 139.609942,30.3566185 L139.715723,30.1242486 L139.752139,30.0427457 L139.780751,29.9577746 L139.832775,29.8017052 C139.90474,29.5866763 140.02526,29.2251156 140.02526,28.7846532 C140.02526,27.7225145 139.399249,26.7496821 138.39,26.2459249 L138.280751,26.1904335 L138.163699,26.1514162 C137.932197,26.0742486 137.584509,25.9589306 137.146647,25.9589306 C136.085376,25.9589306 135.112543,26.5849422 134.607919,27.5924566 L134.551561,27.7051734 L134.511676,27.8239595 L134.488266,27.897659 C133.283064,30.5993931 130.893468,35.9161561 128.861098,36.2430347 C128.849827,36.1363873 128.841156,35.9941908 128.841156,35.8077746 C128.841156,34.0554624 130.257919,30.1043064 131.757919,25.9207803 L132.330173,24.3210694 L134.913121,17.397659 C135.253006,16.548815 135.149827,15.5837861 134.633931,14.8103757 C134.119769,14.0386994 133.250983,13.5774277 132.309364,13.5774277 Z M118.367168,37.9927457 C122.58104,37.9927457 125.650405,30.1892775 127.731329,24.8837861 L128.979884,21.5543064 C128.875838,19.1612428 127.523237,17.7566185 125.650405,17.7566185 C120.864277,17.8606647 116.443179,29.0456358 116.338266,34.1950578 C116.338266,36.4840751 116.806474,37.9927457 118.367168,37.9927457 Z M132.309364,15.3115318 C133.141734,15.3115318 133.557919,16.1439017 133.296936,16.7681792 L130.696647,23.7392775 C128.823815,28.9936127 127.107052,33.5187572 127.107052,35.8077746 C127.107052,37.3684682 127.57526,37.9927457 128.667746,37.9927457 C131.893179,37.9927457 134.390289,32.3751156 136.107052,28.5254046 L136.158208,28.3684682 C136.367168,27.9522832 136.730462,27.6930347 137.146647,27.6930347 C137.303584,27.6930347 137.458786,27.7450578 137.614855,27.7970809 C138.03104,28.0043064 138.291156,28.3684682 138.291156,28.7846532 C138.291156,28.9415896 138.24,29.097659 138.187977,29.2528613 L138.135954,29.4097977 C136.158208,33.7788728 133.349827,40.1777168 128.667746,40.1777168 C126.170636,40.1777168 124.922081,38.3569075 124.922081,35.8077746 C122.841156,38.7210694 120.656185,40.1777168 118.419191,40.1777168 C115.505896,40.1777168 114.153295,37.6806069 114.153295,34.5600867 C114.153295,27.7450578 119.40763,15.5716474 125.650405,15.5716474 C127.835376,15.5716474 129.448092,16.4560405 130.384509,18.3288728 C130.696647,17.4444798 131.008786,16.6641329 131.268902,15.9878324 C131.424971,15.5716474 131.841156,15.3115318 132.309364,15.3115318 Z" id="Fill-23" fill="#000000"></path>
                <path d="M138.292717,41.0447688 C135.471329,41.0447688 133.575954,38.9404335 133.575954,35.8077746 C133.575954,33.5413006 135.095029,28.6346532 136.600231,24.7762717 L138.831156,18.5196243 L136.784046,18.5196243 C135.685491,18.5196243 134.824509,17.6586416 134.824509,16.5600867 C134.824509,15.4797399 135.703699,14.6005491 136.784046,14.6005491 L140.188092,14.6005491 C140.764682,12.980896 142.534335,7.8999711 142.660058,7.48118497 C142.940116,6.64014451 143.67104,6.1216474 144.535491,6.1216474 C145.187514,6.1216474 145.796185,6.44245665 146.165549,6.97916185 C146.527977,7.50719653 146.60948,8.17135838 146.384913,8.7566185 L146.375376,8.75315029 C146.216705,9.4884104 145.686069,11.0222254 144.373353,14.6005491 L146.616416,14.6005491 C147.696763,14.6005491 148.575087,15.4797399 148.575087,16.5600867 C148.575087,17.6586416 147.714971,18.5196243 146.616416,18.5196243 L142.975665,18.5196243 C142.745896,19.1915896 142.392139,20.1791618 141.89185,21.5725145 C141.461792,22.7742486 140.920751,24.2837861 140.253988,26.1618208 C138.191272,31.997948 137.495029,34.4326301 137.495029,35.8077746 C137.495029,37.1256936 138.095029,37.1256936 138.292717,37.1256936 C141.375954,37.1256936 143.680578,33.4597977 146.191561,27.9566185 C146.595607,27.2421676 147.298786,26.8259827 148.020173,26.8259827 C148.318439,26.8259827 148.575087,26.9118208 148.763237,26.9742486 L148.843873,27.0019942 L148.918439,27.0436127 C149.573064,27.4181792 149.979711,28.0849422 149.979711,28.7846532 C149.979711,29.0829191 149.893873,29.3395665 149.831445,29.5277168 L149.815838,29.5745376 L149.795896,29.6178902 C146.521908,36.6730925 143.456012,41.0447688 138.292717,41.0447688" id="Fill-25" fill="#F05822"></path>
                <path d="M144.535231,5.25433526 C143.291012,5.25433526 142.237543,6.00520231 141.849104,7.16791908 L141.828295,7.23121387 L141.823092,7.25289017 C141.66789,7.73323699 140.273671,11.7546243 139.57396,13.733237 L136.783786,13.733237 C135.225694,13.733237 133.957197,15.0017341 133.957197,16.5606936 C133.957197,18.1456647 135.198815,19.3864162 136.783786,19.3864162 L137.601416,19.3864162 L135.783208,24.4855491 C134.362977,28.1289017 132.708642,33.2713873 132.708642,35.8075145 C132.708642,39.4586705 134.952572,41.9115607 138.292457,41.9115607 C144.524827,41.9115607 147.903728,35.7546243 150.582052,29.983526 L150.622803,29.8950867 L150.654017,29.8023121 C150.731185,29.5725434 150.84737,29.2239884 150.84737,28.7852601 C150.84737,27.7742775 150.272514,26.8187861 149.348237,26.2907514 L149.199971,26.2066474 L149.037832,26.1520231 C148.808064,26.0748555 148.458642,25.9586705 148.02078,25.9586705 C146.993324,25.9586705 145.993613,26.5465318 145.474249,27.4569364 L145.435231,27.5254335 L145.402283,27.5973988 C143.378584,32.033237 141.130318,36.1439306 138.406908,36.2557803 C138.384364,36.1621387 138.361821,36.0156069 138.361821,35.8075145 C138.361821,34.5589595 139.071069,32.1104046 141.072225,26.449422 C141.737254,24.5748555 142.277428,23.066185 142.708353,21.8653179 C143.080318,20.8283237 143.371647,20.0150289 143.592746,19.3864162 L146.616156,19.3864162 C148.201127,19.3864162 149.442746,18.1456647 149.442746,16.5606936 C149.442746,15.0017341 148.174249,13.733237 146.616156,13.733237 L145.615578,13.733237 C146.543324,11.1971098 147.023671,9.82456647 147.21789,9.00260116 C147.515289,8.16763006 147.391301,7.23294798 146.880607,6.48815029 C146.349104,5.71560694 145.473382,5.25433526 144.535231,5.25433526 M144.535231,6.98843931 C145.315578,6.98843931 145.835809,7.76878613 145.575694,8.44508671 C145.579162,8.43728324 145.581763,8.43381503 145.58263,8.43381503 C145.625983,8.43381503 143.486098,14.5031792 143.130607,15.467341 L146.616156,15.467341 C147.240434,15.467341 147.708642,15.9875723 147.708642,16.5606936 C147.708642,17.184104 147.240434,17.6523121 146.616156,17.6523121 L142.35026,17.6523121 C142.038121,18.6407514 141.153728,21.033815 139.436965,25.8719653 C137.304017,31.9066474 136.627717,34.299711 136.627717,35.8075145 C136.627717,37.2121387 137.251994,37.9924855 138.292457,37.9924855 C142.038121,37.9924855 144.535231,33.6754335 146.980318,28.317052 C147.18841,27.9528902 147.604595,27.6927746 148.02078,27.6927746 C148.17685,27.6927746 148.332919,27.7447977 148.488988,27.7968208 C148.852283,28.0049133 149.113266,28.3690751 149.113266,28.7852601 C149.113266,28.9413295 149.061243,29.0973988 149.00922,29.2534682 C145.991879,35.7563584 143.078584,40.1774566 138.292457,40.1774566 C135.795347,40.1774566 134.442746,38.3046243 134.442746,35.8075145 C134.442746,33.883526 135.743324,29.3575145 137.408064,25.0916185 L140.061243,17.6523121 L136.783786,17.6523121 C136.159509,17.6523121 135.691301,17.184104 135.691301,16.5606936 C135.691301,15.9875723 136.159509,15.467341 136.783786,15.467341 L140.789566,15.467341 C140.893613,15.2601156 143.442746,7.92485549 143.494769,7.71676301 C143.650838,7.24855491 144.067023,6.98843931 144.535231,6.98843931" id="Fill-27" fill="#000000"></path>
                <path d="M160.401676,41.0447688 C158.399653,41.0447688 156.966416,40.0936127 156.243295,38.3282948 C154.567283,40.0329191 152.442139,41.0447688 150.413237,41.0447688 C146.582601,41.0447688 144.500809,38.815578 144.500809,34.7673121 C144.500809,32.1618208 145.54474,29.4557514 149.93896,18.0670231 L150.800809,15.831763 C151.075665,15.099104 151.798786,14.6005491 152.598208,14.6005491 C153.284913,14.6005491 153.88578,14.9031503 154.248208,15.4303179 C154.607168,15.9531503 154.681734,16.6277168 154.448497,17.2355202 C153.520751,19.7014162 152.732601,21.7884104 152.06237,23.5589306 C148.834335,32.098526 148.419017,33.1953468 148.419017,34.7673121 C148.419017,36.8456358 149.427399,37.1256936 150.413237,37.1256936 C152.260925,37.1256936 154.108613,35.415 155.615549,32.3083526 C157.153699,29.232052 158.806301,24.6965029 160.898497,18.9531503 L162.032601,15.8465029 C162.312659,15.099104 163.03578,14.6005491 163.834335,14.6005491 C164.514971,14.6005491 165.145318,14.9265607 165.519884,15.4719364 C165.878844,15.9947688 165.960347,16.6545954 165.736647,17.2355202 C165.069017,18.9956358 164.45341,20.6881214 163.901965,22.2054624 C163.510058,23.2832081 163.150231,24.2716474 162.825954,25.1360983 C160.672197,30.9722254 159.708035,34.7022832 159.708035,35.8077746 C159.708035,37.1256936 160.044451,37.1256936 160.401676,37.1256936 C162.303121,37.1256936 164.181156,34.5713584 167.10052,28.0164451 C167.358035,27.3236705 168.081156,26.8259827 168.880578,26.8259827 C169.17711,26.8259827 169.423353,26.9074855 169.621908,26.9733815 L169.70341,27.0011272 L169.778844,27.0436127 C170.433468,27.4181792 170.840983,28.0849422 170.840983,28.7846532 C170.840983,29.0829191 170.754277,29.3395665 170.69185,29.5277168 C167.581734,36.665289 164.789827,41.0447688 160.401676,41.0447688" id="Fill-29" fill="#EFAECE"></path>
                <path d="M163.834769,13.7334971 C162.676387,13.7334971 161.626387,14.4574855 161.222341,15.5360983 C160.824364,16.6233815 160.446329,17.6603757 160.083902,18.6566185 C158.001243,24.3730925 156.356445,28.8886994 154.845173,31.9112428 C153.500376,34.6806069 151.888526,36.2586416 150.413671,36.2586416 C149.808468,36.2586416 149.286503,36.2586416 149.286503,34.7673121 C149.286503,33.3930347 149.589971,32.5502601 152.873497,23.8658671 C153.543728,22.0944798 154.332746,20.0074855 155.262225,17.5346532 C155.593439,16.6719364 155.483324,15.6973699 154.963092,14.9404335 C154.436792,14.1730925 153.574942,13.7334971 152.598642,13.7334971 C151.439393,13.7334971 150.389393,14.4574855 149.986214,15.5360983 L149.130434,17.7540173 C144.688526,29.265 143.633324,31.9996821 143.633324,34.7673121 C143.633324,39.2413006 146.148642,41.9118208 150.361647,41.9118208 L150.413671,41.9118208 C152.334191,41.9118208 154.321474,41.1097977 156.004422,39.7207803 C156.96078,41.1392775 158.470318,41.9118208 160.40211,41.9118208 C165.262803,41.9118208 168.236792,37.3337861 171.458757,29.9465029 L171.489971,29.8762717 L171.514249,29.8025723 C171.591416,29.5719364 171.707601,29.2233815 171.707601,28.7846532 C171.707601,27.7745376 171.133613,26.8190462 170.209335,26.2910116 L170.060202,26.2060405 L169.897197,26.1514162 C169.665694,26.0742486 169.318006,25.9589306 168.881012,25.9589306 C167.744306,25.9589306 166.712514,26.6551734 166.291994,27.699104 C164.575231,31.5522832 162.398064,35.9386994 160.596329,36.2421676 C160.584191,36.1372543 160.574653,35.9950578 160.574653,35.8077746 C160.574653,34.9771387 161.391416,31.5288728 163.641416,25.431763 C163.962225,24.5742486 164.323786,23.582341 164.716561,22.5019942 C165.262803,20.9993931 165.882746,19.2965029 166.548642,17.5389884 C166.872052,16.698815 166.755867,15.7398555 166.234769,14.981185 C165.698064,14.1999711 164.800665,13.7334971 163.834769,13.7334971 M163.834769,15.4676012 C164.667139,15.4676012 165.18737,16.247948 164.927254,16.9242486 C163.782746,19.9415896 162.794306,22.7508382 162.01396,24.831763 C160.037081,30.1892775 158.840549,34.4031503 158.840549,35.8077746 C158.840549,37.3164451 159.308757,37.9927457 160.40211,37.9927457 C162.898353,37.9927457 164.927254,35.0274277 167.892572,28.3684682 C168.048642,27.9522832 168.464827,27.6930347 168.881012,27.6930347 C169.037081,27.6930347 169.19315,27.7450578 169.34922,27.7970809 C169.713382,28.0043064 169.973497,28.3684682 169.973497,28.7846532 C169.973497,28.9415896 169.921474,29.097659 169.869451,29.2528613 C166.487948,37.0043064 163.886792,40.1777168 160.40211,40.1777168 C158.112225,40.1777168 156.968584,38.7730925 156.656445,36.4840751 C155.146908,38.6170231 152.754711,40.1777168 150.413671,40.1777168 L150.361647,40.1777168 C147.084191,40.1777168 145.367428,38.3048844 145.367428,34.7673121 C145.367428,32.1661561 146.615983,29.097659 151.610202,16.1439017 C151.766272,15.7277168 152.182457,15.4676012 152.598642,15.4676012 C153.483035,15.4676012 153.89922,16.247948 153.639104,16.9242486 C148.124653,31.5947688 147.552399,32.6863873 147.552399,34.7673121 C147.552399,36.9002601 148.540838,37.9927457 150.413671,37.9927457 C152.545751,37.9927457 154.678699,36.2239595 156.395462,32.6863873 C158.217139,29.0456358 160.141127,23.531185 162.846329,16.1439017 C163.002399,15.7277168 163.418584,15.4676012 163.834769,15.4676012" id="Fill-31" fill="#000000"></path>
                <path d="M169.869364,41.0447688 C167.047977,41.0447688 165.152601,38.9404335 165.152601,35.8077746 C165.152601,34.1213584 165.749133,32.0534393 167.014162,28.0554624 C167.94104,25.3433237 168.928613,22.5384104 169.923988,19.7092197 C170.448555,18.2196243 170.974855,16.7239595 171.495954,15.2334971 L174.199422,7.33205202 C174.489884,6.53176301 175.230347,6.02453757 176.091329,6.02453757 C176.281214,6.02453757 176.469364,6.04968208 176.652312,6.0999711 C177.210694,6.29939306 177.606936,6.65488439 177.834104,7.12222543 C178.067341,7.60083815 178.095954,8.1384104 177.915607,8.63696532 L175.215607,16.5288728 C174.685838,18.0418786 174.151734,19.548815 173.613295,21.0678902 C172.665607,23.7418786 171.703179,26.4548844 170.741618,29.2728035 C169.192197,34.0632659 169.071676,35.4860983 169.071676,35.8077746 C169.071676,37.1256936 169.671676,37.1256936 169.869364,37.1256936 C172.952601,37.1256936 175.257225,33.4597977 177.768208,27.9566185 C178.173121,27.2421676 178.877168,26.8259827 179.597688,26.8259827 C179.89422,26.8259827 180.141329,26.9083526 180.339884,26.9742486 L180.421387,27.0011272 L180.495087,27.0436127 C181.150578,27.4173121 181.556358,28.0849422 181.556358,28.7846532 C181.556358,29.0829191 181.47052,29.3395665 181.408092,29.5277168 L181.392486,29.5745376 L181.372543,29.6178902 C178.099422,36.6730925 175.033526,41.0447688 169.869364,41.0447688" id="Fill-33" fill="#A2D39F"></path>
                <path d="M176.09159,5.15783237 C174.86211,5.15783237 173.800838,5.88875723 173.389855,7.02026012 L170.673382,14.9581214 C170.156618,16.4364451 169.630318,17.9321098 169.106618,19.4208382 C168.131185,22.1919364 167.121936,25.0575434 166.199393,27.7558092 C164.89448,31.8786416 164.285809,34.001185 164.285809,35.8081214 C164.285809,39.4592775 166.52974,41.9121676 169.869624,41.9121676 C176.102861,41.9121676 179.480896,35.7543642 182.15922,29.9832659 L182.199104,29.8948266 L182.230318,29.8029191 C182.307486,29.5722832 182.423671,29.2237283 182.423671,28.785 C182.423671,27.7740173 181.849682,26.818526 180.925405,26.2913584 L180.776272,26.2055202 L180.614133,26.151763 C180.383497,26.0754624 180.034942,25.9584104 179.597081,25.9584104 C178.571358,25.9584104 177.572514,26.5462717 177.051416,27.4558092 L177.012399,27.5243064 L176.979451,27.5971387 C174.954884,32.0338439 172.707486,36.1436705 169.984075,36.2563873 C169.960665,36.1627457 169.938988,36.0153468 169.938988,35.8081214 C169.938988,35.6815318 169.984942,34.4321098 171.571647,29.5271965 C172.521936,26.7413584 173.492168,24.0049422 174.430318,21.3578324 C174.969624,19.8378902 175.504595,18.3292197 176.031763,16.8214162 L178.741301,8.90176301 C178.991879,8.21245665 178.95026,7.43384393 178.613844,6.74280347 C178.286965,6.0717052 177.719046,5.56187861 177.015867,5.30609827 L176.949104,5.28268786 L176.880607,5.26361272 C176.623092,5.1933815 176.357775,5.15783237 176.09159,5.15783237 M176.09159,6.89193642 C176.201705,6.89193642 176.313555,6.9066763 176.423671,6.93615607 C176.995925,7.14424855 177.308064,7.76852601 177.100838,8.34078035 L174.394769,16.2482948 C172.938988,20.4101445 171.430318,24.5719942 169.921647,28.9930925 C168.777139,32.5306647 168.204884,34.8717052 168.204884,35.8081214 C168.204884,37.2127457 168.829162,37.9930925 169.869624,37.9930925 C173.615289,37.9930925 176.111532,33.6751734 178.556618,28.3167919 C178.764711,27.9526301 179.180896,27.6925145 179.597081,27.6925145 C179.75315,27.6925145 179.90922,27.7445376 180.065289,27.7965607 C180.429451,28.0046532 180.689566,28.368815 180.689566,28.785 C180.689566,28.9410694 180.637543,29.0971387 180.58552,29.2532081 C177.569046,35.7560983 174.654884,40.1780636 169.869624,40.1780636 C167.372514,40.1780636 166.019913,38.3043642 166.019913,35.8081214 C166.019913,34.2994509 166.540145,32.4266185 167.840723,28.3167919 C169.245347,24.2069653 170.80604,19.8378902 172.314711,15.5199711 L175.019913,7.61245665 C175.188121,7.15031792 175.62685,6.89193642 176.09159,6.89193642" id="Fill-35" fill="#000000"></path>
                <path d="M189.022457,18.6237572 C184.96552,18.7286705 180.665809,29.3717341 180.568699,34.2124855 C180.568699,37.1257803 181.381994,37.1257803 181.729682,37.1257803 C185.361763,37.1257803 188.444133,29.2642197 190.286618,24.5665318 L191.465809,21.4217341 C191.337486,19.669422 190.43315,18.6280925 189.022457,18.6237572 M192.03026,41.0448555 C189.867832,41.0448555 188.327948,39.8847399 187.713208,37.9104624 C185.83604,39.9922543 183.847023,41.0448555 181.781705,41.0448555 C178.616098,41.0448555 176.648757,38.5598844 176.648757,34.5593064 C176.648757,27.7633526 181.870145,14.7046821 189.012919,14.7046821 C190.887486,14.7046821 192.414364,15.3116185 193.512052,16.4760694 C193.556272,16.3633526 193.82159,15.6766474 193.82159,15.6766474 C194.101647,14.9309827 194.829104,14.4445665 195.671879,14.4445665 C196.332572,14.4445665 196.916965,14.753237 197.275925,15.2916763 C197.632283,15.8266474 197.702514,16.520289 197.45974,17.1020809 L194.87159,24.0428324 L194.304538,25.6286705 C192.711763,30.069711 191.336618,33.9055491 191.336618,35.8078613 C191.336618,37.1257803 191.642688,37.1257803 192.03026,37.1257803 C194.684306,37.1257803 197.176214,31.5393642 198.664075,28.2012139 L198.717832,28.036474 L198.745578,27.9809827 C199.108006,27.2578613 199.766965,26.8252023 200.510029,26.8252023 C200.805694,26.8252023 201.052803,26.9075723 201.251358,26.9734682 L201.308584,26.9934104 L201.364942,27.0211561 C202.088931,27.3827168 202.520723,28.0416763 202.520723,28.7847399 C202.520723,29.0838728 202.434884,29.3405202 202.372457,29.5278035 L202.306561,29.7263584 L202.182572,29.9994798 C200.075636,34.6607514 197.18922,41.0448555 192.03026,41.0448555" id="Fill-37" fill="#DBA827"></path>
                <path d="M181.721098,36.2586416 C181.639595,36.1138439 181.434971,35.6092197 181.434971,34.1950578 C181.55896,28.0788728 186.399711,19.547948 189.051156,19.4907225 C190.160116,19.4907225 190.494798,20.5121098 190.584971,21.3028613 L189.470809,24.2751156 C187.950867,28.148237 184.77052,36.2586416 181.729769,36.2586416 L181.721098,36.2586416 Z M195.671965,13.5774277 C194.598555,13.5774277 193.652601,14.1366763 193.167052,15.0288728 C192.03815,14.2424566 190.639595,13.8375434 189.013006,13.8375434 C185.533526,13.8375434 182.118208,16.6259827 179.396532,21.6886994 C177.201156,25.7733815 175.781792,30.8248266 175.781792,34.5600867 C175.781792,39.0254046 178.137572,41.9118208 181.781792,41.9118208 C183.760405,41.9118208 185.654913,41.0777168 187.439306,39.4242486 C188.367052,40.9970809 189.973699,41.9118208 192.030347,41.9118208 C197.748555,41.9118208 200.892486,34.9580636 202.972543,30.3566185 L203.078324,30.1242486 L203.11474,30.0427457 L203.143353,29.9577746 L203.195376,29.8017052 C203.267341,29.5866763 203.387861,29.2251156 203.387861,28.7846532 C203.387861,27.7225145 202.76185,26.7496821 201.752601,26.2459249 L201.643353,26.1904335 L201.526301,26.1514162 C201.294798,26.0742486 200.94711,25.9589306 200.509249,25.9589306 C199.447977,25.9589306 198.475145,26.5849422 197.97052,27.5924566 L197.914162,27.7051734 L197.874277,27.8239595 L197.850867,27.897659 C196.645665,30.5993931 194.256069,35.9161561 192.223699,36.2430347 C192.212428,36.1363873 192.203757,35.9941908 192.203757,35.8077746 C192.203757,34.0554624 193.62052,30.1043064 195.12052,25.9207803 L195.692775,24.3210694 L198.275723,17.397659 C198.615607,16.548815 198.512428,15.5837861 197.996532,14.8103757 C197.48237,14.0386994 196.613584,13.5774277 195.671965,13.5774277 Z M181.729769,37.9927457 C185.943642,37.9927457 189.013006,30.1892775 191.093931,24.8837861 L192.342486,21.5543064 C192.238439,19.1612428 190.885838,17.7566185 189.013006,17.7566185 C184.226879,17.8606647 179.80578,29.0456358 179.700867,34.1950578 C179.700867,36.4840751 180.169075,37.9927457 181.729769,37.9927457 Z M195.671965,15.3115318 C196.504335,15.3115318 196.92052,16.1439017 196.659538,16.7681792 L194.059249,23.7392775 C192.186416,28.9936127 190.469653,33.5187572 190.469653,35.8077746 C190.469653,37.3684682 190.937861,37.9927457 192.030347,37.9927457 C195.25578,37.9927457 197.75289,32.3751156 199.469653,28.5254046 L199.520809,28.3684682 C199.729769,27.9522832 200.093064,27.6930347 200.509249,27.6930347 C200.666185,27.6930347 200.821387,27.7450578 200.977457,27.7970809 C201.393642,28.0043064 201.653757,28.3684682 201.653757,28.7846532 C201.653757,28.9415896 201.602601,29.097659 201.550578,29.2528613 L201.498555,29.4097977 C199.520809,33.7788728 196.712428,40.1777168 192.030347,40.1777168 C189.533237,40.1777168 188.284682,38.3569075 188.284682,35.8077746 C186.203757,38.7210694 184.018786,40.1777168 181.781792,40.1777168 C178.868497,40.1777168 177.515896,37.6806069 177.515896,34.5600867 C177.515896,27.7450578 182.770231,15.5716474 189.013006,15.5716474 C191.197977,15.5716474 192.810694,16.4560405 193.74711,18.3288728 C194.059249,17.4444798 194.371387,16.6641329 194.631503,15.9878324 C194.787572,15.5716474 195.203757,15.3115318 195.671965,15.3115318 Z" id="Fill-39" fill="#000000"></path>
                <path d="M201.655231,41.0447688 C198.833844,41.0447688 196.938468,38.9404335 196.938468,35.8077746 C196.938468,33.5413006 198.457543,28.6346532 199.962746,24.7762717 L202.193671,18.5196243 L200.146561,18.5196243 C199.048006,18.5196243 198.187023,17.6586416 198.187023,16.5600867 C198.187023,15.4797399 199.066214,14.6005491 200.146561,14.6005491 L203.550607,14.6005491 C204.127197,12.980896 205.89685,7.8999711 206.022572,7.48118497 C206.30263,6.64014451 207.033555,6.1216474 207.898006,6.1216474 C208.550029,6.1216474 209.158699,6.44245665 209.528064,6.97916185 C209.890491,7.50719653 209.971994,8.17135838 209.747428,8.7566185 L209.73789,8.75315029 C209.57922,9.4884104 209.048584,11.0222254 207.735867,14.6005491 L209.978931,14.6005491 C211.059277,14.6005491 211.937601,15.4797399 211.937601,16.5600867 C211.937601,17.6586416 211.077486,18.5196243 209.978931,18.5196243 L206.338179,18.5196243 C206.10841,19.1915896 205.754653,20.1791618 205.254364,21.5725145 C204.824306,22.7742486 204.283266,24.2837861 203.616503,26.1618208 C201.553786,31.997948 200.857543,34.4326301 200.857543,35.8077746 C200.857543,37.1256936 201.457543,37.1256936 201.655231,37.1256936 C204.738468,37.1256936 207.043092,33.4597977 209.554075,27.9566185 C209.958121,27.2421676 210.661301,26.8259827 211.382688,26.8259827 C211.680954,26.8259827 211.937601,26.9118208 212.125751,26.9742486 L212.206387,27.0019942 L212.280954,27.0436127 C212.935578,27.4181792 213.342225,28.0849422 213.342225,28.7846532 C213.342225,29.0829191 213.256387,29.3395665 213.19396,29.5277168 L213.178353,29.5745376 L213.15841,29.6178902 C209.884422,36.6730925 206.818526,41.0447688 201.655231,41.0447688" id="Fill-41" fill="#F05822"></path>
                <path d="M207.897746,5.25433526 C206.653526,5.25433526 205.600058,6.00520231 205.211618,7.16791908 L205.190809,7.23121387 L205.185607,7.25289017 C205.030405,7.73323699 203.636185,11.7546243 202.936474,13.733237 L200.146301,13.733237 C198.588208,13.733237 197.319711,15.0017341 197.319711,16.5606936 C197.319711,18.1456647 198.561329,19.3864162 200.146301,19.3864162 L200.963931,19.3864162 L199.145723,24.4855491 C197.725491,28.1289017 196.071156,33.2713873 196.071156,35.8075145 C196.071156,39.4586705 198.315087,41.9115607 201.654971,41.9115607 C207.887341,41.9115607 211.266243,35.7546243 213.944566,29.983526 L213.985318,29.8950867 L214.016532,29.8023121 C214.093699,29.5725434 214.209884,29.2239884 214.209884,28.7852601 C214.209884,27.7742775 213.635029,26.8187861 212.710751,26.2907514 L212.562486,26.2066474 L212.400347,26.1520231 C212.170578,26.0748555 211.821156,25.9586705 211.383295,25.9586705 C210.355838,25.9586705 209.356127,26.5465318 208.836763,27.4569364 L208.797746,27.5254335 L208.764798,27.5973988 C206.741098,32.033237 204.492832,36.1439306 201.769422,36.2557803 C201.746879,36.1621387 201.724335,36.0156069 201.724335,35.8075145 C201.724335,34.5589595 202.433584,32.1104046 204.43474,26.449422 C205.099769,24.5748555 205.639942,23.066185 206.070867,21.8653179 C206.442832,20.8283237 206.734162,20.0150289 206.95526,19.3864162 L209.978671,19.3864162 C211.563642,19.3864162 212.80526,18.1456647 212.80526,16.5606936 C212.80526,15.0017341 211.536763,13.733237 209.978671,13.733237 L208.978092,13.733237 C209.905838,11.1971098 210.386185,9.82456647 210.580405,9.00260116 C210.877803,8.16763006 210.753815,7.23294798 210.243121,6.48815029 C209.711618,5.71560694 208.835896,5.25433526 207.897746,5.25433526 M207.897746,6.98843931 C208.678092,6.98843931 209.198324,7.76878613 208.938208,8.44508671 C208.941676,8.43728324 208.944277,8.43381503 208.945145,8.43381503 C208.988497,8.43381503 206.848613,14.5031792 206.493121,15.467341 L209.978671,15.467341 C210.602948,15.467341 211.071156,15.9875723 211.071156,16.5606936 C211.071156,17.184104 210.602948,17.6523121 209.978671,17.6523121 L205.712775,17.6523121 C205.400636,18.6407514 204.516243,21.033815 202.79948,25.8719653 C200.666532,31.9066474 199.990231,34.299711 199.990231,35.8075145 C199.990231,37.2121387 200.614509,37.9924855 201.654971,37.9924855 C205.400636,37.9924855 207.897746,33.6754335 210.342832,28.317052 C210.550925,27.9528902 210.96711,27.6927746 211.383295,27.6927746 C211.539364,27.6927746 211.695434,27.7447977 211.851503,27.7968208 C212.214798,28.0049133 212.47578,28.3690751 212.47578,28.7852601 C212.47578,28.9413295 212.423757,29.0973988 212.371734,29.2534682 C209.354393,35.7563584 206.441098,40.1774566 201.654971,40.1774566 C199.157861,40.1774566 197.80526,38.3046243 197.80526,35.8075145 C197.80526,33.883526 199.105838,29.3575145 200.770578,25.0916185 L203.423757,17.6523121 L200.146301,17.6523121 C199.522023,17.6523121 199.053815,17.184104 199.053815,16.5606936 C199.053815,15.9875723 199.522023,15.467341 200.146301,15.467341 L204.152081,15.467341 C204.256127,15.2601156 206.80526,7.92485549 206.857283,7.71676301 C207.013353,7.24855491 207.429538,6.98843931 207.897746,6.98843931" id="Fill-43" fill="#000000"></path>
                <path d="M217.937861,13.7859538 C216.456069,13.7859538 215.25,12.6032948 215.25,11.1501156 C215.25,9.69693642 216.456069,8.51427746 217.937861,8.51427746 C219.416185,8.51427746 220.573699,9.67179191 220.573699,11.1501156 C220.573699,12.6284393 219.416185,13.7859538 217.937861,13.7859538 M212.371387,41.0443353 C211.060405,41.0443353 209.928035,40.5856647 209.095665,39.7160116 C208.165318,38.7449133 207.69104,37.3437572 207.759538,35.7700578 C207.919075,31.6272832 211.495665,22.3602312 213.862717,16.2275723 L213.955491,15.9882659 C214.205202,15.2356647 214.933526,14.7050289 215.75289,14.7050289 C216.431792,14.7050289 217.053468,15.0102312 217.415896,15.522659 C217.764451,16.0151445 217.833815,16.6342197 217.610983,17.2654335 L216.27052,21.0336416 C212.468497,31.7122543 211.677746,33.9353757 211.677746,35.807341 C211.677746,37.1252601 212.015029,37.1252601 212.371387,37.1252601 C215.012428,37.1252601 217.36474,31.9125434 219.081503,28.107052 L219.123988,28.0125434 C219.489884,27.2798844 220.202601,26.8255491 220.954335,26.8255491 C221.229191,26.8255491 221.427746,26.8966474 221.572543,26.9486705 L221.674855,26.9850867 C222.416185,27.2625434 222.91474,27.9856647 222.91474,28.7850867 C222.91474,29.0824855 222.828902,29.34 222.765607,29.5281503 C220.056069,35.6339306 217.247688,41.0443353 212.371387,41.0443353" id="Fill-45" fill="#EFAECE"></path>
                <path d="M217.937861,7.64722543 C215.977457,7.64722543 214.382948,9.2183237 214.382948,11.1501156 C214.382948,12.2295954 214.880636,13.1963584 215.66185,13.839711 C214.522543,13.8769942 213.520231,14.6148555 213.13526,15.7047399 L213.053757,15.9154335 C210.666763,22.1009827 207.058092,31.4495376 206.893353,35.740578 C206.814451,37.5440462 207.373699,39.1723699 208.469653,40.3160116 C209.468497,41.3599422 210.818497,41.9122543 212.371387,41.9122543 C218.215318,41.9122543 221.412139,34.7183237 223.527746,29.957341 L223.561561,29.8819075 L223.588439,29.8030058 C223.66474,29.5723699 223.781792,29.223815 223.781792,28.7850867 C223.781792,27.6258382 223.056936,26.5767052 221.979191,26.172659 L221.949711,26.1622543 L221.920231,26.1518497 L221.865607,26.1327746 C221.695665,26.0720809 221.380058,25.9584971 220.954335,25.9584971 C219.87659,25.9584971 218.859538,26.6001156 218.363584,27.5937572 L218.347977,27.6249711 L218.334104,27.656185 L218.291618,27.7498266 C216.9,30.8330636 214.601445,35.9295954 212.566474,36.2434682 C212.555202,36.1385549 212.544798,35.9963584 212.544798,35.8082081 C212.544798,34.0845087 213.417052,31.6350867 217.087283,21.324104 L218.426879,17.556763 C218.742486,16.6628324 218.631503,15.740289 218.12341,15.0223699 C218.028902,14.8888439 217.923121,14.7639884 217.806069,14.6504046 C217.850289,14.6521387 217.893642,14.6530058 217.937861,14.6530058 C219.869653,14.6530058 221.440751,13.0819075 221.440751,11.1501156 C221.440751,9.2183237 219.869653,7.64722543 217.937861,7.64722543 M215.75289,15.5720809 C216.429191,15.5720809 217.105491,16.0923121 216.793353,16.9767052 C211.74711,31.1781503 210.810694,33.5712139 210.810694,35.8082081 C210.810694,37.3168786 211.278902,37.9931792 212.371387,37.9931792 C215.596821,37.9931792 217.989884,32.6347977 219.91474,28.3689017 C220.122832,27.9527168 220.539017,27.6926012 220.954335,27.6926012 C221.111272,27.6926012 221.215318,27.7446243 221.37052,27.7966474 C221.786705,27.9527168 222.047688,28.3689017 222.047688,28.7850867 C222.047688,28.9411561 221.995665,29.0972254 221.943642,29.2532948 C219.446532,34.8717919 216.741329,40.1781503 212.371387,40.1781503 C209.874277,40.1781503 208.521676,38.2012717 208.625723,35.8082081 C208.781792,31.7504046 212.475434,22.2301734 214.764451,16.2995376 C214.92052,15.8313295 215.336705,15.5720809 215.75289,15.5720809 M217.937861,9.38132948 C218.926301,9.38132948 219.706647,10.1616763 219.706647,11.1501156 C219.706647,12.1385549 218.926301,12.9189017 217.937861,12.9189017 C216.949422,12.9189017 216.117052,12.1385549 216.117052,11.1501156 C216.117052,10.1616763 216.949422,9.38132948 217.937861,9.38132948" id="Fill-47" fill="#000000"></path>
                <path d="M230.578699,18.6237572 C229.099509,18.6237572 227.462514,20.0405202 225.971185,22.6139306 C223.355289,26.9379191 221.97841,31.1543931 221.97841,34.819422 C221.97841,37.1257803 222.973786,37.1257803 223.399509,37.1257803 C224.711358,37.1257803 226.510491,35.7142197 228.257601,33.3298266 C227.765983,31.6928324 227.958468,29.4671098 228.287081,28.2913873 C228.451821,27.4546821 229.250376,26.8252023 230.214538,26.8252023 C230.666272,26.8252023 231.09026,26.9734682 231.430145,27.2422543 C232.276387,24.9827168 232.781012,22.7387861 232.781012,21.086185 C232.781012,19.4977457 231.998931,18.6237572 230.578699,18.6237572 M223.399509,41.0448555 C219.921763,41.0448555 218.006445,38.8711561 218.006445,34.9234682 C218.006445,30.2821387 219.495173,25.5905202 222.556734,20.5815607 C224.862225,16.7387861 227.655,14.7046821 230.630723,14.7046821 C234.327832,14.8165318 236.700087,17.3413873 236.700087,21.1382081 C236.700087,24.386185 235.14026,29.3439884 232.865983,33.4130636 C233.253555,33.670578 233.770318,33.7963006 234.42841,33.7963006 C235.543439,33.7963006 237.276676,33.1989017 239.455578,28.0321387 C239.720896,27.3237572 240.444017,26.8252023 241.243439,26.8252023 C241.91974,26.8252023 242.544884,27.1616185 242.915983,27.7252023 C243.274075,28.2679769 243.335636,28.9468786 243.079855,29.5425434 C240.651243,35.119422 237.902688,37.7153757 234.42841,37.7153757 C233.064538,37.7153757 231.773497,37.3442775 230.648064,36.6350289 C228.393728,39.4113295 225.726676,41.0448555 223.399509,41.0448555" id="Fill-49" fill="#A2D39F"></path>
                <path d="M223.399682,36.2586416 C223.192457,36.2586416 222.844769,36.2586416 222.844769,34.8193353 C222.844769,31.3121098 224.179162,27.2508382 226.704884,23.0751156 C228.012399,20.8207803 229.455173,19.4907225 230.578873,19.4907225 C231.200549,19.4907225 231.914133,19.6719364 231.914133,21.0860983 C231.914133,22.4066185 231.54737,24.1944798 230.930029,26.048237 C230.699393,25.9892775 230.460087,25.9589306 230.214711,25.9589306 C228.857775,25.9589306 227.727139,26.8398555 227.437543,28.1109538 C227.068179,29.4722254 226.944191,31.5063295 227.314422,33.1424566 C225.670491,35.2884104 224.191301,36.2586416 223.399682,36.2586416 Z M230.656908,13.8375434 L230.630896,13.8375434 C228.331474,13.8375434 224.935231,14.930896 221.809509,20.1418786 C218.669046,25.2782948 217.139566,30.1173121 217.139566,34.9233815 C217.139566,39.365289 219.421647,41.9118208 223.399682,41.9118208 C226.566156,41.9118208 229.256618,39.5439017 230.844191,37.7413006 C231.943613,38.2953468 233.157486,38.582341 234.428584,38.582341 C239.501705,38.582341 242.248526,33.6236705 243.873382,29.8936127 C244.247081,29.0196243 244.158642,28.0346532 243.640145,27.2473699 C243.107775,26.4401445 242.21211,25.9589306 241.243613,25.9589306 C240.099971,25.9589306 239.06211,26.6638439 238.646792,27.7181792 C237.185809,31.1759827 235.766445,32.9291618 234.428584,32.9291618 C234.315867,32.9291618 234.213555,32.9248266 234.119046,32.9170231 C236.212977,28.8886994 237.567312,24.3288728 237.567312,21.1381214 C237.567312,16.8306069 234.865578,13.965 230.682919,13.8384104 L230.656908,13.8375434 Z M223.399682,37.9927457 C225.324538,37.9927457 227.509509,35.9118208 229.226272,33.4667341 C228.654017,32.1141329 228.758064,29.8259827 229.122225,28.5254046 C229.226272,28.0043064 229.69448,27.6930347 230.214711,27.6930347 C230.943035,27.6930347 231.463266,28.3684682 231.255173,29.097659 C231.099104,29.5138439 231.099104,29.9300289 231.047081,30.2941908 C232.659798,27.0687572 233.648237,23.4791618 233.648237,21.0860983 C233.648237,18.9011272 232.347659,17.7566185 230.578873,17.7566185 C228.601994,17.7566185 226.729162,19.5774277 225.220491,22.1785838 C223.86789,24.415578 221.110665,29.4618208 221.110665,34.8193353 C221.110665,36.6921676 221.734942,37.9927457 223.399682,37.9927457 Z M230.630896,15.5716474 C234.064422,15.6756936 235.833208,18.0167341 235.833208,21.1381214 C235.833208,24.415578 234.168468,29.5138439 231.775405,33.5707803 C232.347659,34.299104 233.232052,34.6632659 234.428584,34.6632659 C236.613555,34.6632659 238.433497,32.6863873 240.254306,28.3684682 C240.411243,27.9522832 240.827428,27.6930347 241.243613,27.6930347 C242.023092,27.6930347 242.595347,28.4733815 242.283208,29.2008382 C239.995058,34.4551734 237.549104,36.848237 234.428584,36.848237 C232.971936,36.848237 231.619335,36.3800289 230.474827,35.4436127 C228.549971,38.0447688 225.896792,40.1777168 223.399682,40.1777168 C220.019046,40.1777168 218.873671,37.9407225 218.873671,34.9233815 C218.873671,28.8886994 221.578873,23.8433237 223.295636,21.0340751 C225.480607,17.3924566 228.02974,15.5716474 230.630896,15.5716474 Z" id="Fill-51" fill="#000000"></path>
                <path d="M253.520462,41.0447688 C250.675665,41.0447688 248.907746,39.0384104 248.907746,35.8077746 C248.907746,33.1571965 249.99763,30.2733815 251.051098,27.4840751 C252.036069,24.8785838 252.965549,22.4187572 252.965549,20.3577746 C252.965549,19.0519942 252.433179,18.5196243 251.127399,18.5196243 C248.839249,18.5196243 245.084913,24.2551734 243.147919,29.4028613 L239.51237,39.6869653 C239.240116,40.5011272 238.494451,41.0369653 237.618728,41.0369653 C237.430578,41.0369653 237.244162,41.0118208 237.062081,40.9623988 C235.959191,40.564422 235.442428,39.4927457 235.790983,38.4470809 C237.118439,34.7725145 238.57422,30.6583526 239.954566,26.7583526 C241.404277,22.6632659 242.770751,18.8022832 243.810347,15.9514162 C244.070462,15.1710694 244.801387,14.6525723 245.664971,14.6525723 C246.316994,14.6525723 246.926532,14.9733815 247.295029,15.5100867 C247.368728,15.6176012 247.431156,15.7303179 247.480578,15.8465029 C248.690983,15.0106647 249.896185,14.6005491 251.127399,14.6005491 C254.893873,14.6005491 256.884624,16.5913006 256.884624,20.3577746 C256.884624,22.9095087 255.770462,25.9623988 254.693584,28.915578 C253.733757,31.5462139 252.826821,34.031185 252.826821,35.8077746 C252.826821,37.1256936 253.164104,37.1256936 253.520462,37.1256936 C255.381156,37.1256936 257.073642,34.8245376 260.224509,28.0051734 C260.598208,27.2577746 261.257168,26.8259827 262.000231,26.8259827 C262.29763,26.8259827 262.554277,26.9118208 262.742428,26.9742486 L262.80052,26.9933237 L262.855145,27.0210694 C263.579133,27.3826301 264.011792,28.0415896 264.011792,28.7846532 C264.011792,29.0829191 263.925087,29.3395665 263.862659,29.5277168 L263.830578,29.6092197 C260.491561,37.0259827 257.858324,41.0447688 253.520462,41.0447688" id="Fill-53" fill="#DBA827"></path>
                <path d="M251.127572,13.7334971 C249.988266,13.7334971 248.853295,14.049104 247.733064,14.6759827 C247.200694,14.1123988 246.454162,13.7855202 245.665145,13.7855202 C244.431329,13.7855202 243.383931,14.5251156 242.989422,15.6713584 C241.94896,18.5265607 240.582486,22.3849422 239.13711,26.4687572 C237.74289,30.4077746 236.300983,34.481185 234.983064,38.132341 C234.467168,39.6748266 235.211098,41.215578 236.698092,41.7557514 L236.764855,41.7800289 L236.833353,41.798237 C237.09,41.8684682 237.353584,41.9040173 237.618035,41.9040173 C238.874393,41.9040173 239.942601,41.1358092 240.339711,39.9462139 L243.970925,29.6751156 C244.655896,27.8569075 245.976416,25.0441908 247.593468,22.7014162 C249.398671,20.0846532 250.664566,19.3866763 251.127572,19.3866763 C251.944335,19.3866763 252.098671,19.5410116 252.098671,20.3577746 C252.098671,22.2600867 251.196069,24.648815 250.240578,27.1771387 C249.158497,30.0392775 248.040867,32.998526 248.040867,35.8077746 C248.040867,39.5161561 250.191156,41.9118208 253.520636,41.9118208 C258.330173,41.9118208 261.132486,37.7135549 264.621503,29.965578 L264.657052,29.8858092 L264.684798,29.8034393 C264.761965,29.5728035 264.87815,29.2242486 264.87815,28.7846532 C264.87815,27.7216474 264.251272,26.748815 263.242023,26.2450578 L263.132775,26.1904335 L263.017457,26.1522832 C262.786821,26.0751156 262.438266,25.9589306 262.000405,25.9589306 C260.938266,25.9589306 259.965434,26.5849422 259.460809,27.5924566 L259.448671,27.6167341 L259.437399,27.6418786 C257.143179,32.6057514 255.281618,35.9785838 253.715723,36.2421676 C253.703584,36.1372543 253.694046,35.9950578 253.694046,35.8077746 C253.694046,34.1837861 254.615723,31.6563295 255.507919,29.2129769 C256.610809,26.1895665 257.75185,23.0629769 257.75185,20.3577746 C257.75185,16.148237 255.33711,13.7334971 251.127572,13.7334971 M251.127572,15.4676012 C254.873237,15.4676012 256.017746,17.6005491 256.017746,20.3577746 C256.017746,24.9869653 251.959942,31.8019942 251.959942,35.8077746 C251.959942,37.3164451 252.42815,37.9927457 253.520636,37.9927457 C255.965723,37.9927457 257.838555,35.2355202 261.011098,28.3684682 C261.220058,27.9522832 261.58422,27.6930347 262.000405,27.6930347 C262.155607,27.6930347 262.311676,27.7450578 262.467746,27.7970809 C262.884798,28.0043064 263.144046,28.3684682 263.144046,28.7846532 C263.144046,28.9415896 263.092023,29.097659 263.04,29.2528613 C259.503295,37.1083526 257.058208,40.1777168 253.520636,40.1777168 C251.023526,40.1777168 249.774971,38.3569075 249.774971,35.8077746 C249.774971,30.9176012 253.832775,24.8837861 253.832775,20.3577746 C253.832775,18.849104 253.156474,17.6525723 251.127572,17.6525723 C247.954162,17.6525723 244.000405,24.6756936 242.335665,29.097659 L238.694913,39.3973699 C238.525838,39.9028613 238.084509,40.1699133 237.618035,40.1699133 C237.508786,40.1699133 237.398671,40.1551734 237.290289,40.1256936 C236.717168,39.9176012 236.405896,39.3453468 236.613988,38.7210694 C239.318324,31.2306069 242.59578,21.814422 244.624682,16.247948 C244.780751,15.7797399 245.196936,15.5196243 245.665145,15.5196243 C246.445491,15.5196243 246.965723,16.2999711 246.705607,16.9762717 L246.289422,18.0167341 C247.798092,16.4560405 249.410809,15.4676012 251.127572,15.4676012" id="Fill-55" fill="#000000"></path>
                <path d="M267.045694,27.8836127 C264.444538,27.8836127 263.124884,30.272341 262.968815,32.6393931 C262.970549,35.1295665 265.080954,37.1255202 267.774017,37.1255202 C271.612457,37.1255202 274.151185,34.6804335 274.242225,30.8974855 C274.19974,29.0610694 273.674306,27.8506647 271.360145,23.7573121 C271.295983,23.837948 271.233555,23.9185838 271.172861,23.9992197 C270.819971,24.4414162 270.320549,24.7110694 269.800318,24.7561561 C271.545694,25.8035549 272.771705,27.7856358 272.854075,30.0538439 C272.854942,31.1844798 271.99396,32.0454624 270.895405,32.0454624 C269.79685,32.0454624 268.935867,31.1844798 268.935867,30.0859249 C268.857832,28.788815 267.895405,27.8836127 267.045694,27.8836127 M267.774017,41.0445954 C262.96448,41.0445954 259.052341,37.2486416 259.052341,32.5821676 C259.406098,27.2445954 262.448584,23.9645376 266.993671,23.9645376 C267.366503,23.9645376 267.732399,24.0035549 268.088757,24.0789884 C267.800896,23.7321676 267.635289,23.2570231 267.635289,22.7506647 C267.635289,22.3578902 267.793092,21.921763 268.068815,21.555 C268.621127,20.9073121 269.06159,20.4182948 269.515058,19.9466185 C269.091069,18.8177168 268.883844,17.755578 268.883844,16.7159827 C268.883844,13.4844798 270.976908,10.854711 273.548584,10.854711 C275.41448,10.854711 276.765347,12.2662717 276.910145,14.3680058 C276.911879,16.9318786 275.34685,19.3076012 274.178931,20.7269653 C274.524884,21.3590462 274.848295,21.938237 275.147428,22.4758092 C277.061012,25.9076012 278.11448,27.7977746 278.161301,30.9573121 C278.052919,36.8142486 273.684711,41.0445954 267.774017,41.0445954" id="Fill-57" fill="#F05822"></path>
                <path d="M263.838295,32.6375723 C263.973555,30.8306358 264.889162,28.750578 267.04552,28.750578 C267.424422,28.750578 268.005347,29.2959538 268.069509,30.1543353 C268.105058,31.7063584 269.333671,32.9124277 270.895231,32.9124277 C271.944364,32.9124277 272.841763,32.3687861 273.329913,31.5416185 C272.995231,34.4696532 270.917775,36.2583815 267.774711,36.2583815 C265.855058,36.2583815 263.870376,34.9057803 263.838295,32.6375723 M273.54841,9.98757225 C270.498121,9.98757225 268.016618,13.0057803 268.016618,16.715896 C268.016618,17.7 268.183092,18.6953757 268.52211,19.7349711 C268.18396,20.0991329 267.83974,20.4867052 267.446098,20.9462428 L267.408815,20.9887283 L267.375,21.0346821 C266.989162,21.5488439 266.768064,22.1739884 266.768064,22.750578 C266.768064,22.8684971 266.775,22.9855491 266.787139,23.1 C261.928179,23.200578 258.56315,26.8543353 258.188584,32.4676301 L258.185116,32.5248555 L258.185116,32.582948 C258.185116,37.7271676 262.486561,41.9115607 267.774711,41.9115607 C274.17789,41.9115607 278.91026,37.3239884 279.028179,31.0023121 L279.028179,30.9736994 L279.028179,30.9442197 C278.97789,27.567052 277.821243,25.4913295 275.905058,22.0534682 C275.687428,21.6641618 275.458526,21.2523121 275.216618,20.8144509 C276.40448,19.2676301 277.779624,16.9343931 277.779624,14.4277457 L277.779624,14.3679191 L277.775289,14.3080925 C277.600145,11.7641618 275.861705,9.98757225 273.54841,9.98757225 M272.195809,18.3286127 C273.028179,17.184104 273.808526,15.5713873 273.808526,14.4277457 C273.808526,14.0783237 273.676734,13.932659 273.483382,13.932659 C273.271821,13.932659 272.987428,14.1043353 272.71604,14.3757225 C272.091763,14.9991329 271.935694,15.9355491 271.935694,16.6638728 C271.935694,17.2361272 272.03974,17.7563584 272.195809,18.3286127 M273.54841,11.7216763 C275.057081,11.7216763 275.941474,12.9190751 276.04552,14.4277457 C276.04552,16.5078035 274.744942,18.7968208 273.132225,20.6176301 C275.837428,25.6118497 277.242052,27.432659 277.294075,30.9702312 C277.190029,36.5887283 273.028179,40.1774566 267.774711,40.1774566 C263.456792,40.1774566 259.91922,36.7959538 259.91922,32.582948 C260.231358,27.9008671 262.831647,24.8315029 266.993497,24.8315029 C269.698699,24.8315029 271.883671,27.2245665 271.987717,30.0858382 C271.987717,30.7101156 271.519509,31.1783237 270.895231,31.1783237 C270.270954,31.1783237 269.802746,30.7101156 269.802746,30.0858382 C269.698699,28.317052 268.398121,27.016474 267.04552,27.016474 C264.184249,27.016474 262.312283,29.4095376 262.104191,32.582948 C262.104191,35.7563584 264.75737,37.9924855 267.774711,37.9924855 C271.987717,37.9924855 275.005058,35.2361272 275.109104,30.9182081 C275.057081,28.6291908 274.276734,27.1205202 271.519509,22.2823699 C271.155347,22.6465318 270.791185,23.0627168 270.479046,23.4789017 C270.270954,23.7390173 269.958815,23.8950867 269.646676,23.8950867 C269.386561,23.8950867 269.075289,23.8430636 268.866329,23.6349711 C268.607081,23.4268786 268.502168,23.0627168 268.502168,22.750578 C268.502168,22.5424855 268.607081,22.2823699 268.762283,22.0742775 C269.386561,21.3459538 269.907659,20.7736994 270.531069,20.149422 C270.062861,19.0569364 269.750723,17.9132948 269.750723,16.715896 C269.750723,14.0115607 271.415462,11.7216763 273.54841,11.7216763" id="Fill-59" fill="#000000"></path>
                <path d="M287.231272,33.670578 C287.005838,33.670578 286.783006,33.6315607 286.570578,33.553526 C285.551792,33.1832948 285.048902,32.0778035 285.426936,31.0382081 L295.516821,2.43416185 C295.719711,1.68156069 296.469711,1.11450867 297.322023,1.11450867 C297.547457,1.11450867 297.769422,1.15439306 297.982717,1.23156069 C298.473468,1.40930636 298.869711,1.76566474 299.096879,2.23213873 C299.330116,2.7116185 299.358728,3.24919075 299.177514,3.74774566 L289.088497,32.3509249 C288.800636,33.1434104 288.054971,33.670578 287.231272,33.670578 M284.837341,41.4610405 C283.359884,41.4610405 282.201503,40.302659 282.201503,38.8252023 C282.201503,37.3434104 283.384162,36.137341 284.837341,36.137341 C286.293988,36.137341 287.525202,37.3685549 287.525202,38.8252023 C287.525202,40.2783815 286.319133,41.4610405 284.837341,41.4610405" id="Fill-61" fill="#EFAECE"></path>
                <path d="M284.837601,35.2705491 C282.905809,35.2705491 281.334711,36.8650578 281.334711,38.8254624 C281.334711,40.7563873 282.905809,42.3283526 284.837601,42.3283526 C286.798006,42.3283526 288.392514,40.7563873 288.392514,38.8254624 C288.392514,36.8650578 286.798006,35.2705491 284.837601,35.2705491 M297.321416,0.247716763 C296.105809,0.247716763 295.032399,1.04280347 294.682977,2.19078035 L284.606098,30.7566763 C284.078064,32.2141908 284.822861,33.8407803 286.273439,34.367948 C286.582977,34.4806647 286.904653,34.5378902 287.231532,34.5378902 C288.417659,34.5378902 289.491069,33.7818208 289.900318,32.6563873 L299.998006,4.02719653 C300.254653,3.32315029 300.213902,2.54453757 299.876618,1.85263006 C299.54974,1.18239884 298.982688,0.672572254 298.278642,0.416791908 C297.970838,0.304942197 297.648295,0.247716763 297.321416,0.247716763 M284.837601,37.0046532 C285.82604,37.0046532 286.65841,37.8370231 286.65841,38.8254624 C286.65841,39.8139017 285.82604,40.5942486 284.837601,40.5942486 C283.849162,40.5942486 283.068815,39.8139017 283.068815,38.8254624 C283.068815,37.8370231 283.849162,37.0046532 284.837601,37.0046532 M297.321416,1.98182081 C297.442803,1.98182081 297.565925,2.00263006 297.686445,2.04684971 C298.258699,2.25407514 298.570838,2.87921965 298.362746,3.45060694 L288.271127,32.0624566 C288.107254,32.5141908 287.683266,32.8037861 287.231532,32.8037861 C287.110145,32.8037861 286.987023,32.7829769 286.866503,32.7387572 C286.294249,32.5306647 286.034133,31.9063873 286.242225,31.3341329 L296.333844,2.72228324 C296.456965,2.27141618 296.871416,1.98182081 297.321416,1.98182081" id="Fill-63" fill="#000000"></path>
            </g>
        </g>
    </g>
</svg>