<?xml version="1.0" encoding="UTF-8"?>
<svg width="282px" height="105px" viewBox="0 0 282 105" version="1.1" xmlns="http://www.w3.org/2000/svg" xmlns:xlink="http://www.w3.org/1999/xlink">
    <!-- Generator: sketchtool 50.2 (55047) - http://www.bohemiancoding.com/sketch -->
    <title>CA3DA24C-3879-4E6D-8E20-870D15D41D05</title>
    <desc>Created with sketchtool.</desc>
    <defs>
        <polygon id="path-1" points="0.389895954 0.485630058 28.389896 0.485630058 28.389896 34.7976879 0.389895954 34.7976879"></polygon>
        <polygon id="path-3" points="0.318277457 0.485630058 24.1109942 0.485630058 24.1109942 34.7976879 0.318277457 34.7976879"></polygon>
        <polygon id="path-5" points="0.658454567 0.485630058 31.3512659 0.485630058 31.3512659 34.7976879 0.658454567 34.7976879"></polygon>
        <polygon id="path-7" points="0.583144509 0.485630058 27.1523931 0.485630058 27.1523931 34.7976879 0.583144509 34.7976879"></polygon>
        <polygon id="path-9" points="0.171398844 0.485630058 26.7406474 0.485630058 26.7406474 34.7976879 0.171398844 34.7976879"></polygon>
        <polygon id="path-11" points="0.0648208092 0.485630058 9.80089017 0.485630058 9.80089017 34.7976879 0.0648208092 34.7976879"></polygon>
        <polygon id="path-13" points="0.361770468 0.485630058 36.146348 0.485630058 36.146348 34.7976879 0.361770468 34.7976879"></polygon>
        <polygon id="path-15" points="0.0029132948 0.485630058 23.7956301 0.485630058 23.7956301 34.7976879 0.0029132948 34.7976879"></polygon>
    </defs>
    <g id="game_end_lose" stroke="none" stroke-width="1" fill="none" fill-rule="evenodd">
        <g id="game_end_lose_mobile" transform="translate(-19.000000, -9.000000)">
            <g id="Group" transform="translate(20.000000, 10.000000)">
                <path d="M36.3717572,29.3550867 C35.3788092,29.3550867 33.4592717,29.3550867 33.4592717,28.8258382 C33.4592717,28.3621387 33.8566127,28.2957803 34.3858613,28.2957803 C34.9814682,28.2957803 37.7620462,28.8258382 38.4240116,29.0904624 C37.7620462,29.2223699 37.1000809,29.3550867 36.3717572,29.3550867 M51.7304855,17.3069942 C51.9287514,8.96606936 45.3746474,3.47127168 37.0337225,3.47127168 C22.6687514,3.47127168 15.1225087,13.8644509 15.1225087,28.3621387 C15.1225087,29.1568208 15.784474,29.7524277 16.5119884,29.7524277 C17.1739538,29.7524277 17.9686358,29.2887283 17.9686358,28.3621387 C18.3659769,14.7910405 24.3236647,6.25184971 36.9673642,6.25184971 C43.7197341,6.25184971 49.1481734,10.6209827 48.9490983,17.1742775 C48.9490983,21.2124277 46.3020462,25.6479191 42.1975376,27.8328902 C40.0789249,26.3762428 36.5708324,25.5152023 34.121237,25.5152023 C32.0026243,25.5152023 30.6786936,26.6408671 30.6786936,28.7594798 C30.6786936,31.6056069 33.0619306,32.1356647 36.0407746,32.1356647 C37.6301387,32.1356647 40.4099075,31.6056069 41.8665549,31.01 C44.7126821,33.2605202 46.2356879,37.2986705 46.2356879,41.1385549 C46.2356879,48.0891908 41.8665549,53.7167052 34.518578,53.7167052 C30.0830867,53.7167052 25.8466705,51.9954335 25.8466705,47.8909249 C25.8466705,45.5740462 27.6998497,43.4554335 29.9503699,43.4554335 C31.4733757,43.4554335 32.9955723,44.7793642 33.723896,46.8979769 C33.9229711,47.4935838 34.4522197,47.8245665 35.0478266,47.8245665 C36.1071329,47.8245665 36.7027399,46.8316185 36.3717572,45.970578 C35.1805434,42.8590173 32.9300231,40.6748555 29.8840116,40.6748555 C26.3759191,40.6748555 23.0660925,43.7200578 23.0660925,47.8909249 C23.0660925,53.3185549 27.8981156,56.496474 34.518578,56.496474 C43.1241272,56.496474 49.081815,49.8104624 49.081815,41.2712717 C49.081815,37.6304624 48.0225087,33.9232948 45.7719884,31.0763584 L44.5807746,29.6860694 C48.7508324,26.9054913 51.7304855,22.0734682 51.7304855,17.3069942" id="Fill-1" fill="#FFFFFF"></path>
                <path d="M36.3717572,29.3550867 C35.3788092,29.3550867 33.4592717,29.3550867 33.4592717,28.8258382 C33.4592717,28.3621387 33.8566127,28.2957803 34.3858613,28.2957803 C34.9814682,28.2957803 37.7620462,28.8258382 38.4240116,29.0904624 C37.7620462,29.2223699 37.1000809,29.3550867 36.3717572,29.3550867 Z M51.7304855,17.3069942 C51.9287514,8.96606936 45.3746474,3.47127168 37.0337225,3.47127168 C22.6687514,3.47127168 15.1225087,13.8644509 15.1225087,28.3621387 C15.1225087,29.1568208 15.784474,29.7524277 16.5119884,29.7524277 C17.1739538,29.7524277 17.9686358,29.2887283 17.9686358,28.3621387 C18.3659769,14.7910405 24.3236647,6.25184971 36.9673642,6.25184971 C43.7197341,6.25184971 49.1481734,10.6209827 48.9490983,17.1742775 C48.9490983,21.2124277 46.3020462,25.6479191 42.1975376,27.8328902 C40.0789249,26.3762428 36.5708324,25.5152023 34.121237,25.5152023 C32.0026243,25.5152023 30.6786936,26.6408671 30.6786936,28.7594798 C30.6786936,31.6056069 33.0619306,32.1356647 36.0407746,32.1356647 C37.6301387,32.1356647 40.4099075,31.6056069 41.8665549,31.01 C44.7126821,33.2605202 46.2356879,37.2986705 46.2356879,41.1385549 C46.2356879,48.0891908 41.8665549,53.7167052 34.518578,53.7167052 C30.0830867,53.7167052 25.8466705,51.9954335 25.8466705,47.8909249 C25.8466705,45.5740462 27.6998497,43.4554335 29.9503699,43.4554335 C31.4733757,43.4554335 32.9955723,44.7793642 33.723896,46.8979769 C33.9229711,47.4935838 34.4522197,47.8245665 35.0478266,47.8245665 C36.1071329,47.8245665 36.7027399,46.8316185 36.3717572,45.970578 C35.1805434,42.8590173 32.9300231,40.6748555 29.8840116,40.6748555 C26.3759191,40.6748555 23.0660925,43.7200578 23.0660925,47.8909249 C23.0660925,53.3185549 27.8981156,56.496474 34.518578,56.496474 C43.1241272,56.496474 49.081815,49.8104624 49.081815,41.2712717 C49.081815,37.6304624 48.0225087,33.9232948 45.7719884,31.0763584 L44.5807746,29.6860694 C48.7508324,26.9054913 51.7304855,22.0734682 51.7304855,17.3069942 Z" id="Stroke-3" stroke="#FFFFFF" stroke-width="2.199" stroke-linecap="round" stroke-linejoin="round"></path>
                <path d="M34.0550405,13.8647746 C34.7833642,12.2762197 36.570185,10.554948 38.0931908,10.2903237 C38.6232486,10.1576069 39.2180462,9.69390751 39.2180462,8.70095954 C39.0861387,7.97344509 38.4897225,7.50974566 37.8285665,7.50974566 C35.7099538,7.50974566 32.9293757,9.95853179 31.539896,12.5408439 C29.6859075,16.1816532 28.163711,21.0808439 26.6407052,26.1774913 C23.5291445,36.5051214 19.8883353,49.611711 10.488104,49.611711 C6.78093642,49.611711 3.67018497,47.4939075 3.67018497,43.3893988 C3.67018497,39.4831561 6.91365318,35.4450058 10.488104,35.4450058 C10.8854451,35.4450058 11.2164277,35.4450058 11.5474104,35.5777225 C12.4748092,35.8423468 13.3350405,35.1140231 13.3350405,34.1874335 C13.3350405,33.5918266 12.9376994,33.1281272 12.3420925,32.8635029 C11.6801272,32.5988786 11.083711,32.5988786 10.4217457,32.5988786 C5.45700578,32.5988786 0.889606936,37.7626936 0.889606936,43.5213064 C0.889606936,48.8833873 5.12602312,52.392289 10.5544624,52.392289 C21.6096069,52.392289 25.5150405,39.4176069 29.2885665,26.9721734 C30.8115723,22.0737919 32.2674104,17.3065087 34.0550405,13.8647746" id="Fill-5" fill="#FFFFFF"></path>
                <path d="M34.0550405,13.8647746 C34.7833642,12.2762197 36.570185,10.554948 38.0931908,10.2903237 C38.6232486,10.1576069 39.2180462,9.69390751 39.2180462,8.70095954 C39.0861387,7.97344509 38.4897225,7.50974566 37.8285665,7.50974566 C35.7099538,7.50974566 32.9293757,9.95853179 31.539896,12.5408439 C29.6859075,16.1816532 28.163711,21.0808439 26.6407052,26.1774913 C23.5291445,36.5051214 19.8883353,49.611711 10.488104,49.611711 C6.78093642,49.611711 3.67018497,47.4939075 3.67018497,43.3893988 C3.67018497,39.4831561 6.91365318,35.4450058 10.488104,35.4450058 C10.8854451,35.4450058 11.2164277,35.4450058 11.5474104,35.5777225 C12.4748092,35.8423468 13.3350405,35.1140231 13.3350405,34.1874335 C13.3350405,33.5918266 12.9376994,33.1281272 12.3420925,32.8635029 C11.6801272,32.5988786 11.083711,32.5988786 10.4217457,32.5988786 C5.45700578,32.5988786 0.889606936,37.7626936 0.889606936,43.5213064 C0.889606936,48.8833873 5.12602312,52.392289 10.5544624,52.392289 C21.6096069,52.392289 25.5150405,39.4176069 29.2885665,26.9721734 C30.8115723,22.0737919 32.2674104,17.3065087 34.0550405,13.8647746 Z" id="Stroke-7" stroke="#FFFFFF" stroke-width="2.199" stroke-linecap="round" stroke-linejoin="round"></path>
                <path d="M130.836555,23.3311214 C129.843607,22.5364393 129.248,21.3452254 129.248,20.2859191 C129.248,19.5575954 129.644532,19.0283468 130.505572,19.0283468 C131.03563,19.0283468 131.564879,19.4248786 131.564879,20.5505434 C131.564879,21.2125087 131.167538,22.4037225 130.836555,23.3311214 M117.729156,23.8603699 C119.185803,23.8603699 120.576092,24.1913526 120.576092,25.9789827 C120.576092,30.8773642 112.698058,34.1208324 107.204069,35.842104 C109.322682,30.7454566 113.161757,23.8603699 117.729156,23.8603699 M78.9378266,49.6122775 C77.6130867,49.6122775 76.8192139,48.6193295 76.8192139,46.8316994 C76.8192139,44.9113526 77.6794451,41.8669595 80.3936647,34.188 C82.5786358,28.031237 83.7034913,24.9860347 84.1008324,23.7284624 L89.5292717,23.7284624 C89.7599075,23.7284624 89.9703121,23.6726243 90.1580578,23.5827977 C90.3449942,23.6726243 90.5562081,23.7284624 90.7868439,23.7284624 L94.957711,23.7284624 L91.581526,33.1942428 C91.0781734,34.4849942 90.601526,35.7927399 90.1669595,37.0713526 C90.1046474,37.144185 90.0399075,37.2162081 89.9929711,37.2987514 C86.8814104,44.1174798 83.7034913,49.6122775 78.9378266,49.6122775 M69.2066127,23.8603699 C70.6632601,23.8603699 72.0535491,24.1913526 72.0535491,25.9789827 C72.0535491,30.8773642 64.1755145,34.1208324 58.681526,35.842104 C60.8001387,30.7454566 64.6392139,23.8603699 69.2066127,23.8603699 M150.960948,36.6367861 C150.762682,36.5704277 150.563607,36.5048786 150.365341,36.5048786 C149.835283,36.5048786 149.372393,36.835052 149.107769,37.3651098 C145.334243,45.9051098 142.818289,49.6122775 139.574821,49.6122775 C138.118173,49.6122775 137.588925,48.4866127 137.588925,46.8316994 C137.655283,45.7060347 137.787191,44.5803699 138.184532,43.1908902 C138.581873,41.5359769 141.759792,32.0693873 142.620023,29.8844162 C142.884647,29.0905434 142.553665,28.2295029 141.825341,27.9648786 C141.097017,27.7002543 140.236786,27.4356301 139.310197,27.1710058 C137.38985,26.5082312 135.139329,25.7799075 133.28615,24.8533179 C134.080023,22.271815 134.344647,21.6762081 134.344647,20.6169017 C134.344647,17.9690405 132.888809,16.2477688 130.505572,16.2477688 C128.38696,16.2477688 126.467422,17.8363237 126.467422,20.5505434 C126.467422,23.0001387 127.857711,24.7214104 129.843607,26.1116994 L129.049734,28.0975954 L124.899098,37.124763 C124.840832,37.1992139 124.78904,37.2785202 124.74615,37.3651098 C121.039792,45.9051098 116.802566,49.744185 111.374127,49.6122775 C107.402335,49.4795607 105.283723,47.1626821 105.416439,43.3891561 C105.482798,41.9988671 105.681064,40.7412948 106.144763,39.0200231 C113.49274,37.2323931 123.355861,32.9959769 123.355861,25.9789827 C123.355861,22.8018728 121.039792,21.0806012 117.729156,21.0806012 C111.571584,21.0806012 105.991815,29.6367861 103.710543,37.4096185 C100.615168,44.1765549 97.4469595,49.6122775 92.7063815,49.6122775 C91.3824509,49.6122775 90.588578,48.6193295 90.588578,46.8316994 C90.588578,44.9113526 91.4488092,41.8669595 94.1630289,34.188 C96.3471908,28.031237 97.4728555,24.9860347 97.8701965,23.7284624 L103.298636,23.7284624 C104.092509,23.7284624 104.688116,23.1320462 104.688116,22.3381734 C104.688116,21.6098497 104.092509,20.9478844 103.298636,20.9478844 L98.8631445,20.9478844 C99.3268439,19.6903121 102.172971,11.6140116 101.973896,12.0113526 C102.305688,11.1503121 101.643723,10.1573642 100.650775,10.1573642 C100.054358,10.1573642 99.5251098,10.4883468 99.3268439,11.084763 C99.2596763,11.3493873 96.0162081,20.6832601 95.8843006,20.9478844 L90.7868439,20.9478844 C90.5562081,20.9478844 90.3449942,21.008578 90.1580578,21.1056879 C89.9703121,21.008578 89.7599075,20.9478844 89.5292717,20.9478844 L85.0937803,20.9478844 C85.5574798,19.6903121 88.4036069,11.6140116 88.205341,12.0113526 C88.5363237,11.1503121 87.8743584,10.1573642 86.8814104,10.1573642 C86.2858035,10.1573642 85.7557457,10.4883468 85.5574798,11.084763 C85.4911214,11.3493873 82.2476532,20.6832601 82.1149364,20.9478844 L77.0174798,20.9478844 C76.2236069,20.9478844 75.6271908,21.6098497 75.6271908,22.3381734 C75.6271908,23.1320462 76.2236069,23.7284624 77.0174798,23.7284624 L81.1883468,23.7284624 L77.8121618,33.1942428 C77.3023353,34.5003699 76.8208324,35.8251098 76.3814104,37.1190983 C76.321526,37.1951676 76.2681156,37.2760925 76.2236069,37.3651098 C72.5172486,45.9051098 68.2800231,49.744185 62.8515838,49.6122775 C58.8797919,49.4795607 56.7611792,47.1626821 56.893896,43.3891561 C56.9602543,41.9988671 57.1585202,40.7412948 57.6222197,39.0200231 C64.9701965,37.2323931 74.8333179,32.9959769 74.8333179,25.9789827 C74.8333179,22.8018728 72.5172486,21.0806012 69.2066127,21.0806012 C61.3949364,21.0806012 54.510659,34.8491561 54.1133179,43.3227977 C53.9814104,48.751237 57.291237,52.3920462 62.7860347,52.3920462 C67.1640694,52.3920462 70.8307746,50.5040694 74.0499653,46.5322775 C74.0451098,46.6334335 74.0386358,46.7394451 74.0386358,46.8316994 C74.0386358,50.0088092 75.7599075,52.3920462 78.9378266,52.3920462 C82.5656879,52.3920462 85.3454566,50.3834913 87.8136647,47.0194451 C87.8816416,50.1018728 89.5923931,52.3920462 92.7063815,52.3920462 C96.9169017,52.3920462 99.988,49.6996763 102.751584,45.3054566 C103.383607,49.6187514 106.512971,52.3920462 111.308578,52.3920462 C117.328578,52.3920462 122.004416,48.8353988 126.018289,41.1701965 C126.112971,41.067422 126.198751,40.9484624 126.268347,40.8076532 C131.564879,29.2224509 132.027769,28.2958613 132.293202,27.5011792 C133.74904,28.2295029 134.477364,28.4941272 139.508462,30.1490405 C138.912855,31.6056879 135.999561,40.4103121 135.470312,42.5289249 C135.006613,44.1838382 134.808347,45.5077688 134.808347,46.8316994 C134.808347,50.0751676 136.397711,52.3920462 139.508462,52.3920462 L139.574821,52.3920462 C144.075861,52.3920462 147.386497,48.353896 151.689272,38.4899653 C151.75563,38.2916994 151.821179,38.0934335 151.821179,37.8951676 C151.821179,37.3651098 151.490197,36.9022197 150.960948,36.6367861" id="Fill-9" fill="#FFFFFF"></path>
                <path d="M130.836555,23.3311214 C129.843607,22.5364393 129.248,21.3452254 129.248,20.2859191 C129.248,19.5575954 129.644532,19.0283468 130.505572,19.0283468 C131.03563,19.0283468 131.564879,19.4248786 131.564879,20.5505434 C131.564879,21.2125087 131.167538,22.4037225 130.836555,23.3311214 Z M117.729156,23.8603699 C119.185803,23.8603699 120.576092,24.1913526 120.576092,25.9789827 C120.576092,30.8773642 112.698058,34.1208324 107.204069,35.842104 C109.322682,30.7454566 113.161757,23.8603699 117.729156,23.8603699 Z M78.9378266,49.6122775 C77.6130867,49.6122775 76.8192139,48.6193295 76.8192139,46.8316994 C76.8192139,44.9113526 77.6794451,41.8669595 80.3936647,34.188 C82.5786358,28.031237 83.7034913,24.9860347 84.1008324,23.7284624 L89.5292717,23.7284624 C89.7599075,23.7284624 89.9703121,23.6726243 90.1580578,23.5827977 C90.3449942,23.6726243 90.5562081,23.7284624 90.7868439,23.7284624 L94.957711,23.7284624 L91.581526,33.1942428 C91.0781734,34.4849942 90.601526,35.7927399 90.1669595,37.0713526 C90.1046474,37.144185 90.0399075,37.2162081 89.9929711,37.2987514 C86.8814104,44.1174798 83.7034913,49.6122775 78.9378266,49.6122775 Z M69.2066127,23.8603699 C70.6632601,23.8603699 72.0535491,24.1913526 72.0535491,25.9789827 C72.0535491,30.8773642 64.1755145,34.1208324 58.681526,35.842104 C60.8001387,30.7454566 64.6392139,23.8603699 69.2066127,23.8603699 Z M150.960948,36.6367861 C150.762682,36.5704277 150.563607,36.5048786 150.365341,36.5048786 C149.835283,36.5048786 149.372393,36.835052 149.107769,37.3651098 C145.334243,45.9051098 142.818289,49.6122775 139.574821,49.6122775 C138.118173,49.6122775 137.588925,48.4866127 137.588925,46.8316994 C137.655283,45.7060347 137.787191,44.5803699 138.184532,43.1908902 C138.581873,41.5359769 141.759792,32.0693873 142.620023,29.8844162 C142.884647,29.0905434 142.553665,28.2295029 141.825341,27.9648786 C141.097017,27.7002543 140.236786,27.4356301 139.310197,27.1710058 C137.38985,26.5082312 135.139329,25.7799075 133.28615,24.8533179 C134.080023,22.271815 134.344647,21.6762081 134.344647,20.6169017 C134.344647,17.9690405 132.888809,16.2477688 130.505572,16.2477688 C128.38696,16.2477688 126.467422,17.8363237 126.467422,20.5505434 C126.467422,23.0001387 127.857711,24.7214104 129.843607,26.1116994 L129.049734,28.0975954 L124.899098,37.124763 C124.840832,37.1992139 124.78904,37.2785202 124.74615,37.3651098 C121.039792,45.9051098 116.802566,49.744185 111.374127,49.6122775 C107.402335,49.4795607 105.283723,47.1626821 105.416439,43.3891561 C105.482798,41.9988671 105.681064,40.7412948 106.144763,39.0200231 C113.49274,37.2323931 123.355861,32.9959769 123.355861,25.9789827 C123.355861,22.8018728 121.039792,21.0806012 117.729156,21.0806012 C111.571584,21.0806012 105.991815,29.6367861 103.710543,37.4096185 C100.615168,44.1765549 97.4469595,49.6122775 92.7063815,49.6122775 C91.3824509,49.6122775 90.588578,48.6193295 90.588578,46.8316994 C90.588578,44.9113526 91.4488092,41.8669595 94.1630289,34.188 C96.3471908,28.031237 97.4728555,24.9860347 97.8701965,23.7284624 L103.298636,23.7284624 C104.092509,23.7284624 104.688116,23.1320462 104.688116,22.3381734 C104.688116,21.6098497 104.092509,20.9478844 103.298636,20.9478844 L98.8631445,20.9478844 C99.3268439,19.6903121 102.172971,11.6140116 101.973896,12.0113526 C102.305688,11.1503121 101.643723,10.1573642 100.650775,10.1573642 C100.054358,10.1573642 99.5251098,10.4883468 99.3268439,11.084763 C99.2596763,11.3493873 96.0162081,20.6832601 95.8843006,20.9478844 L90.7868439,20.9478844 C90.5562081,20.9478844 90.3449942,21.008578 90.1580578,21.1056879 C89.9703121,21.008578 89.7599075,20.9478844 89.5292717,20.9478844 L85.0937803,20.9478844 C85.5574798,19.6903121 88.4036069,11.6140116 88.205341,12.0113526 C88.5363237,11.1503121 87.8743584,10.1573642 86.8814104,10.1573642 C86.2858035,10.1573642 85.7557457,10.4883468 85.5574798,11.084763 C85.4911214,11.3493873 82.2476532,20.6832601 82.1149364,20.9478844 L77.0174798,20.9478844 C76.2236069,20.9478844 75.6271908,21.6098497 75.6271908,22.3381734 C75.6271908,23.1320462 76.2236069,23.7284624 77.0174798,23.7284624 L81.1883468,23.7284624 L77.8121618,33.1942428 C77.3023353,34.5003699 76.8208324,35.8251098 76.3814104,37.1190983 C76.321526,37.1951676 76.2681156,37.2760925 76.2236069,37.3651098 C72.5172486,45.9051098 68.2800231,49.744185 62.8515838,49.6122775 C58.8797919,49.4795607 56.7611792,47.1626821 56.893896,43.3891561 C56.9602543,41.9988671 57.1585202,40.7412948 57.6222197,39.0200231 C64.9701965,37.2323931 74.8333179,32.9959769 74.8333179,25.9789827 C74.8333179,22.8018728 72.5172486,21.0806012 69.2066127,21.0806012 C61.3949364,21.0806012 54.510659,34.8491561 54.1133179,43.3227977 C53.9814104,48.751237 57.291237,52.3920462 62.7860347,52.3920462 C67.1640694,52.3920462 70.8307746,50.5040694 74.0499653,46.5322775 C74.0451098,46.6334335 74.0386358,46.7394451 74.0386358,46.8316994 C74.0386358,50.0088092 75.7599075,52.3920462 78.9378266,52.3920462 C82.5656879,52.3920462 85.3454566,50.3834913 87.8136647,47.0194451 C87.8816416,50.1018728 89.5923931,52.3920462 92.7063815,52.3920462 C96.9169017,52.3920462 99.988,49.6996763 102.751584,45.3054566 C103.383607,49.6187514 106.512971,52.3920462 111.308578,52.3920462 C117.328578,52.3920462 122.004416,48.8353988 126.018289,41.1701965 C126.112971,41.067422 126.198751,40.9484624 126.268347,40.8076532 C131.564879,29.2224509 132.027769,28.2958613 132.293202,27.5011792 C133.74904,28.2295029 134.477364,28.4941272 139.508462,30.1490405 C138.912855,31.6056879 135.999561,40.4103121 135.470312,42.5289249 C135.006613,44.1838382 134.808347,45.5077688 134.808347,46.8316994 C134.808347,50.0751676 136.397711,52.3920462 139.508462,52.3920462 L139.574821,52.3920462 C144.075861,52.3920462 147.386497,48.353896 151.689272,38.4899653 C151.75563,38.2916994 151.821179,38.0934335 151.821179,37.8951676 C151.821179,37.3651098 151.490197,36.9022197 150.960948,36.6367861 Z" id="Stroke-11" stroke="#FFFFFF" stroke-width="2.199" stroke-linecap="round" stroke-linejoin="round"></path>
                <path d="M181.941329,46.5006358 C180.154509,48.5528902 177.373121,49.9423699 174.72526,49.9423699 C172.47474,49.9423699 170.621561,48.949422 170.621561,46.3679191 C170.753468,43.587341 172.739364,41.8668786 175.057052,41.8668786 C177.307572,41.8668786 179.822717,43.4554335 182.603295,45.7059538 C182.338671,45.970578 182.140405,46.2360116 181.941329,46.5006358 M204.184335,3.53763006 C204.713584,3.53763006 205.110925,3.9349711 205.110925,4.46421965 C205.110925,5.52352601 202.727688,7.44306358 199.94711,8.03947977 C201.006416,5.78815029 202.727688,3.53763006 204.184335,3.53763006 M217.754624,57.6221387 C217.225376,57.6221387 216.695318,57.9531214 216.497052,58.4823699 C215.437746,60.7992486 212.392543,62.1231792 209.082717,62.1231792 C203.058671,62.1231792 197.166532,55.9008671 191.672543,50.4060694 C189.818555,48.6192486 188.031734,46.8316185 186.244104,45.1767052 C187.436127,43.3227168 188.429075,41.2712717 189.355665,39.0199422 C190.613237,35.9091908 192.069884,31.4736994 194.254046,24.5222543 C195.512428,20.2194798 197.034624,15.3210983 198.623179,11.3493064 C203.323295,10.0917341 208.089769,7.57578035 208.089769,4.46421965 C208.089769,2.34560694 206.501214,0.889768786 204.184335,0.889768786 C200.80815,0.889768786 197.961214,5.19254335 196.505376,9.03242775 L190.877861,9.89265896 C180.948382,11.4156647 170.22422,13.0697688 168.966647,22.2717341 C168.900289,22.6027168 168.900289,23.0000578 168.900289,23.3310405 C168.833931,25.4496532 169.363988,27.5010983 170.555202,29.024104 C171.746416,30.6790173 173.534046,31.8046821 175.850925,32.1356647 C176.115549,32.2020231 176.446532,32.2020231 176.778324,32.2020231 C177.572197,32.2020231 178.234162,31.6056069 178.234162,30.8772832 C178.30052,30.0834104 177.704913,29.4214451 176.910231,29.4214451 L176.248266,29.3550867 C174.72526,29.1568208 173.600405,28.4284971 172.805723,27.3691908 C172.01104,26.3098844 171.614509,24.9204046 171.680867,23.4637572 C171.680867,23.1991329 171.680867,22.9336994 171.746416,22.6690751 C172.739364,15.5193642 182.470578,13.9971676 191.341561,12.6068786 C192.665491,12.4086127 194.05578,12.2095376 195.379711,11.9449133 C193.989422,15.7184393 192.665491,19.9548555 191.539827,23.6620231 C189.024682,31.8046821 188.031734,34.7171676 186.774162,37.9606358 C185.97948,39.8809827 185.119249,41.7341618 184.126301,43.3890751 C181.081098,40.8075723 177.969538,39.0863006 175.122601,39.0863006 C171.283526,39.0863006 168.105607,41.7341618 167.840983,46.3679191 C167.840983,50.2741618 170.157861,52.3919653 174.72526,52.722948 C178.234162,52.722948 181.743064,51.0016763 184.059942,48.2874566 C184.258208,48.0891908 184.456474,47.8245665 184.655549,47.5599422 C186.310462,49.0157803 187.965376,50.737052 189.686647,52.3919653 C195.446069,58.1513873 201.999364,64.9701156 209.016358,64.9701156 C212.98815,64.9701156 217.357283,63.3152023 219.013006,59.6080347 C219.078555,59.4089595 219.144913,59.2106936 219.144913,59.0779769 C219.144913,58.5487283 218.681214,57.6221387 217.754624,57.6221387" id="Fill-13" fill="#FFFFFF"></path>
                <path d="M181.941329,46.5006358 C180.154509,48.5528902 177.373121,49.9423699 174.72526,49.9423699 C172.47474,49.9423699 170.621561,48.949422 170.621561,46.3679191 C170.753468,43.587341 172.739364,41.8668786 175.057052,41.8668786 C177.307572,41.8668786 179.822717,43.4554335 182.603295,45.7059538 C182.338671,45.970578 182.140405,46.2360116 181.941329,46.5006358 Z M204.184335,3.53763006 C204.713584,3.53763006 205.110925,3.9349711 205.110925,4.46421965 C205.110925,5.52352601 202.727688,7.44306358 199.94711,8.03947977 C201.006416,5.78815029 202.727688,3.53763006 204.184335,3.53763006 Z M217.754624,57.6221387 C217.225376,57.6221387 216.695318,57.9531214 216.497052,58.4823699 C215.437746,60.7992486 212.392543,62.1231792 209.082717,62.1231792 C203.058671,62.1231792 197.166532,55.9008671 191.672543,50.4060694 C189.818555,48.6192486 188.031734,46.8316185 186.244104,45.1767052 C187.436127,43.3227168 188.429075,41.2712717 189.355665,39.0199422 C190.613237,35.9091908 192.069884,31.4736994 194.254046,24.5222543 C195.512428,20.2194798 197.034624,15.3210983 198.623179,11.3493064 C203.323295,10.0917341 208.089769,7.57578035 208.089769,4.46421965 C208.089769,2.34560694 206.501214,0.889768786 204.184335,0.889768786 C200.80815,0.889768786 197.961214,5.19254335 196.505376,9.03242775 L190.877861,9.89265896 C180.948382,11.4156647 170.22422,13.0697688 168.966647,22.2717341 C168.900289,22.6027168 168.900289,23.0000578 168.900289,23.3310405 C168.833931,25.4496532 169.363988,27.5010983 170.555202,29.024104 C171.746416,30.6790173 173.534046,31.8046821 175.850925,32.1356647 C176.115549,32.2020231 176.446532,32.2020231 176.778324,32.2020231 C177.572197,32.2020231 178.234162,31.6056069 178.234162,30.8772832 C178.30052,30.0834104 177.704913,29.4214451 176.910231,29.4214451 L176.248266,29.3550867 C174.72526,29.1568208 173.600405,28.4284971 172.805723,27.3691908 C172.01104,26.3098844 171.614509,24.9204046 171.680867,23.4637572 C171.680867,23.1991329 171.680867,22.9336994 171.746416,22.6690751 C172.739364,15.5193642 182.470578,13.9971676 191.341561,12.6068786 C192.665491,12.4086127 194.05578,12.2095376 195.379711,11.9449133 C193.989422,15.7184393 192.665491,19.9548555 191.539827,23.6620231 C189.024682,31.8046821 188.031734,34.7171676 186.774162,37.9606358 C185.97948,39.8809827 185.119249,41.7341618 184.126301,43.3890751 C181.081098,40.8075723 177.969538,39.0863006 175.122601,39.0863006 C171.283526,39.0863006 168.105607,41.7341618 167.840983,46.3679191 C167.840983,50.2741618 170.157861,52.3919653 174.72526,52.722948 C178.234162,52.722948 181.743064,51.0016763 184.059942,48.2874566 C184.258208,48.0891908 184.456474,47.8245665 184.655549,47.5599422 C186.310462,49.0157803 187.965376,50.737052 189.686647,52.3919653 C195.446069,58.1513873 201.999364,64.9701156 209.016358,64.9701156 C212.98815,64.9701156 217.357283,63.3152023 219.013006,59.6080347 C219.078555,59.4089595 219.144913,59.2106936 219.144913,59.0779769 C219.144913,58.5487283 218.681214,57.6221387 217.754624,57.6221387 Z" id="Stroke-15" stroke="#FFFFFF" stroke-width="2.199" stroke-linecap="round" stroke-linejoin="round"></path>
                <path d="M260.783341,10.0251329 C260.253283,10.0251329 259.724035,10.3561156 259.52496,10.8853642 C259.078254,12.1704509 257.169237,17.6077919 249.936173,37.7839769 C246.658717,45.1432832 242.590624,49.6119538 236.289815,49.6119538 C233.112705,49.6119538 230.994092,47.096 230.994092,43.3896416 C230.994092,41.8415491 231.266,40.1550751 231.736983,38.4443237 C231.768543,38.3488324 231.796867,38.2525318 231.818717,38.1570405 C233.831318,31.1691792 239.139988,23.8608555 243.24126,23.8608555 C245.227156,23.8608555 246.087387,24.985711 246.087387,27.3033988 C246.087387,29.9512601 244.498832,31.0761156 244.498832,32.0027052 C244.498832,32.8637457 245.02889,33.3266358 245.889121,33.3266358 C247.412127,33.3266358 248.867965,30.2822428 248.867965,27.3033988 C248.867965,23.6617803 247.013977,21.0802775 243.24126,21.0802775 C237.596751,21.0802775 230.892127,29.4066358 228.84311,38.1707977 C225.26704,46.0682543 222.748659,49.6119538 219.675133,49.6119538 C218.284844,49.6119538 217.689237,48.7509133 217.689237,46.8313757 C217.689237,45.0437457 219.211434,39.6816647 221.727387,32.8637457 C222.720335,30.2158844 223.977908,26.6406243 225.433746,22.8015491 C225.765538,21.9413179 225.103572,20.9483699 224.044266,20.9483699 C223.514208,20.9483699 222.98496,21.2785434 222.785884,21.8086012 C219.343341,31.2088324 216.894555,38.2258266 214.577676,42.8595838 C212.393514,47.3614335 209.679295,49.6119538 206.965075,49.6119538 C204.581838,49.6119538 203.324266,48.2216647 203.324266,45.5074451 C203.324266,42.8595838 204.05178,41.4692948 211.068775,22.8015491 C211.400566,21.9413179 210.870509,20.9483699 209.744844,20.9483699 C209.215595,20.9483699 208.686347,21.2785434 208.487272,21.8086012 C202.132243,38.292185 200.543688,42.1976185 200.543688,45.5074451 C200.543688,50.0092948 202.72785,52.3925318 206.898717,52.3925318 L206.965075,52.3925318 C209.943919,52.3925318 212.988312,50.4058266 214.908659,47.6916069 C215.306,50.6049017 216.762647,52.3925318 219.675133,52.3925318 C222.895133,52.3925318 225.522763,50.2488324 228.367272,45.3075607 C229.052705,49.6200462 232.008081,52.3925318 236.224266,52.3925318 C240.173399,52.3925318 243.348081,51.0872139 246.053399,48.6044393 C245.824382,49.2437457 245.596173,49.8781965 245.359064,50.5385434 C245.094439,51.2668671 245.49178,52.0607399 246.219295,52.3253642 C246.947618,52.5244393 247.742301,52.0607399 248.006925,51.3987746 C252.442416,39.4170405 256.414208,28.0972717 262.17363,11.8791214 C262.503803,11.0180809 261.842647,10.0251329 260.783341,10.0251329" id="Fill-17" fill="#FFFFFF"></path>
                <path d="M260.783341,10.0251329 C260.253283,10.0251329 259.724035,10.3561156 259.52496,10.8853642 C259.078254,12.1704509 257.169237,17.6077919 249.936173,37.7839769 C246.658717,45.1432832 242.590624,49.6119538 236.289815,49.6119538 C233.112705,49.6119538 230.994092,47.096 230.994092,43.3896416 C230.994092,41.8415491 231.266,40.1550751 231.736983,38.4443237 C231.768543,38.3488324 231.796867,38.2525318 231.818717,38.1570405 C233.831318,31.1691792 239.139988,23.8608555 243.24126,23.8608555 C245.227156,23.8608555 246.087387,24.985711 246.087387,27.3033988 C246.087387,29.9512601 244.498832,31.0761156 244.498832,32.0027052 C244.498832,32.8637457 245.02889,33.3266358 245.889121,33.3266358 C247.412127,33.3266358 248.867965,30.2822428 248.867965,27.3033988 C248.867965,23.6617803 247.013977,21.0802775 243.24126,21.0802775 C237.596751,21.0802775 230.892127,29.4066358 228.84311,38.1707977 C225.26704,46.0682543 222.748659,49.6119538 219.675133,49.6119538 C218.284844,49.6119538 217.689237,48.7509133 217.689237,46.8313757 C217.689237,45.0437457 219.211434,39.6816647 221.727387,32.8637457 C222.720335,30.2158844 223.977908,26.6406243 225.433746,22.8015491 C225.765538,21.9413179 225.103572,20.9483699 224.044266,20.9483699 C223.514208,20.9483699 222.98496,21.2785434 222.785884,21.8086012 C219.343341,31.2088324 216.894555,38.2258266 214.577676,42.8595838 C212.393514,47.3614335 209.679295,49.6119538 206.965075,49.6119538 C204.581838,49.6119538 203.324266,48.2216647 203.324266,45.5074451 C203.324266,42.8595838 204.05178,41.4692948 211.068775,22.8015491 C211.400566,21.9413179 210.870509,20.9483699 209.744844,20.9483699 C209.215595,20.9483699 208.686347,21.2785434 208.487272,21.8086012 C202.132243,38.292185 200.543688,42.1976185 200.543688,45.5074451 C200.543688,50.0092948 202.72785,52.3925318 206.898717,52.3925318 L206.965075,52.3925318 C209.943919,52.3925318 212.988312,50.4058266 214.908659,47.6916069 C215.306,50.6049017 216.762647,52.3925318 219.675133,52.3925318 C222.895133,52.3925318 225.522763,50.2488324 228.367272,45.3075607 C229.052705,49.6200462 232.008081,52.3925318 236.224266,52.3925318 C240.173399,52.3925318 243.348081,51.0872139 246.053399,48.6044393 C245.824382,49.2437457 245.596173,49.8781965 245.359064,50.5385434 C245.094439,51.2668671 245.49178,52.0607399 246.219295,52.3253642 C246.947618,52.5244393 247.742301,52.0607399 248.006925,51.3987746 C252.442416,39.4170405 256.414208,28.0972717 262.17363,11.8791214 C262.503803,11.0180809 261.842647,10.0251329 260.783341,10.0251329 Z" id="Stroke-19" stroke="#FFFFFF" stroke-width="2.199" stroke-linecap="round" stroke-linejoin="round"></path>
                <path d="M278.127318,36.6371098 C277.928243,36.5707514 277.729977,36.5043931 277.531711,36.5043931 C277.001653,36.5043931 276.538763,36.8353757 276.273329,37.3646243 C273.758185,43.0584971 270.580266,49.6117919 266.674832,49.6117919 C265.284543,49.6117919 264.55622,48.3542197 264.55622,47.1621965 C264.55622,45.64 265.284543,40.5425434 265.284543,39.0203468 C265.218185,36.1734104 264.357954,33.9228902 261.246393,33.3936416 L272.301538,23.3314451 C272.566162,23.0660116 272.765237,22.7350289 272.765237,22.3384971 C272.765237,21.8084393 272.301538,20.9482081 271.30859,20.9482081 C270.977607,20.9482081 270.779341,20.9482081 270.382,21.2783815 C261.577376,29.3546821 255.486971,34.716763 254.62674,35.5778035 C253.633792,36.5707514 253.964775,38.0273988 255.421422,38.0273988 C256.678994,38.0273988 257.671942,36.0415029 259.59148,36.0415029 C261.842,36.0415029 262.438416,37.2990751 262.503965,39.0203468 C262.570324,40.2115607 262.372058,41.6018497 262.173792,42.9257803 C261.974717,44.4479769 261.776451,45.9046243 261.776451,47.3612717 C261.776451,49.8764162 263.62963,52.3923699 266.674832,52.3923699 C272.16963,52.3923699 275.677723,45.5736416 278.855642,38.490289 C278.921191,38.2920231 278.987549,38.092948 278.987549,37.8946821 C278.987549,37.3646243 278.656566,36.8353757 278.127318,36.6371098" id="Fill-21" fill="#FFFFFF"></path>
                <path d="M278.127318,36.6371098 C277.928243,36.5707514 277.729977,36.5043931 277.531711,36.5043931 C277.001653,36.5043931 276.538763,36.8353757 276.273329,37.3646243 C273.758185,43.0584971 270.580266,49.6117919 266.674832,49.6117919 C265.284543,49.6117919 264.55622,48.3542197 264.55622,47.1621965 C264.55622,45.64 265.284543,40.5425434 265.284543,39.0203468 C265.218185,36.1734104 264.357954,33.9228902 261.246393,33.3936416 L272.301538,23.3314451 C272.566162,23.0660116 272.765237,22.7350289 272.765237,22.3384971 C272.765237,21.8084393 272.301538,20.9482081 271.30859,20.9482081 C270.977607,20.9482081 270.779341,20.9482081 270.382,21.2783815 C261.577376,29.3546821 255.486971,34.716763 254.62674,35.5778035 C253.633792,36.5707514 253.964775,38.0273988 255.421422,38.0273988 C256.678994,38.0273988 257.671942,36.0415029 259.59148,36.0415029 C261.842,36.0415029 262.438416,37.2990751 262.503965,39.0203468 C262.570324,40.2115607 262.372058,41.6018497 262.173792,42.9257803 C261.974717,44.4479769 261.776451,45.9046243 261.776451,47.3612717 C261.776451,49.8764162 263.62963,52.3923699 266.674832,52.3923699 C272.16963,52.3923699 275.677723,45.5736416 278.855642,38.490289 C278.921191,38.2920231 278.987549,38.092948 278.987549,37.8946821 C278.987549,37.3646243 278.656566,36.8353757 278.127318,36.6371098 Z" id="Stroke-23" stroke="#FFFFFF" stroke-width="2.199" stroke-linecap="round" stroke-linejoin="round"></path>
                <path d="M41.3442659,102.607861 C40.9388324,102.607861 40.5592948,102.405549 40.3343237,102.067283 L28.3347861,84.0679769 L28.3347861,101.393988 C28.3347861,102.064855 27.7909711,102.607861 27.1209133,102.607861 L22.2403353,102.607861 C21.5694682,102.607861 21.0264624,102.064855 21.0264624,101.393988 L21.0264624,71.937341 C21.0264624,71.266474 21.5694682,70.7234682 22.2403353,70.7234682 L27.2050751,70.7234682 C27.6137457,70.7234682 27.9940925,70.9290173 28.2190636,71.269711 L39.2466936,88.0041618 L39.2466936,71.937341 C39.2466936,71.266474 39.7905087,70.7234682 40.4605665,70.7234682 L45.3840347,70.7234682 C46.0549017,70.7234682 46.5979075,71.266474 46.5979075,71.937341 L46.5979075,101.393988 C46.5979075,102.064855 46.0549017,102.607861 45.3840347,102.607861 L41.3442659,102.607861 Z" id="Fill-25" fill="#E8E6E5"></path>
                <g id="Group-29" transform="translate(19.421965, 69.024046)">
                    <mask id="mask-2" fill="white">
                        <use xlink:href="#path-1"></use>
                    </mask>
                    <g id="Clip-28"></g>
                    <path d="M25.9621503,0.485630058 L21.0386821,0.485630058 C19.6977572,0.485630058 18.6109364,1.57245087 18.6109364,2.91337572 L18.6109364,14.9323353 L9.81035838,1.57730636 C9.36122543,0.895919075 8.59972254,0.485630058 7.78319075,0.485630058 L2.81764162,0.485630058 C1.47752601,0.485630058 0.389895954,1.57245087 0.389895954,2.91337572 L0.389895954,32.3700231 C0.389895954,33.710948 1.47752601,34.7977688 2.81764162,34.7977688 L7.6990289,34.7977688 C9.03914451,34.7977688 10.1267746,33.710948 10.1267746,32.3700231 L10.1267746,19.0530289 L19.9024971,33.7166127 C20.3524393,34.391526 21.1107052,34.7977688 21.9223815,34.7977688 L25.9621503,34.7977688 C27.3030751,34.7977688 28.389896,33.710948 28.389896,32.3700231 L28.389896,2.91337572 C28.389896,1.57245087 27.3030751,0.485630058 25.9621503,0.485630058 M25.9621503,2.91337572 L25.9621503,32.3700231 L21.9223815,32.3700231 L7.6990289,11.0349942 L7.6990289,32.3700231 L2.81764162,32.3700231 L2.81764162,2.91337572 L7.78319075,2.91337572 L21.0386821,23.0280578 L21.0386821,2.91337572 L25.9621503,2.91337572" id="Fill-27" fill="#000000" mask="url(#mask-2)"></path>
                </g>
                <path d="M56.1565087,102.607861 C55.4856416,102.607861 54.9426358,102.064855 54.9426358,101.393988 L54.9426358,71.937341 C54.9426358,71.266474 55.4856416,70.7234682 56.1565087,70.7234682 L74.6721156,70.7234682 C75.3421734,70.7234682 75.8859884,71.266474 75.8859884,71.937341 L75.8859884,76.5662428 C75.8859884,77.2363006 75.3421734,77.7801156 74.6721156,77.7801156 L62.3359306,77.7801156 L62.3359306,82.5061272 L71.7685318,82.5061272 C72.4393988,82.5061272 72.9824046,83.0499422 72.9824046,83.72 L72.9824046,88.3489017 C72.9824046,89.0189595 72.4393988,89.5627746 71.7685318,89.5627746 L62.3359306,89.5627746 L62.3359306,95.5512139 L75.0929249,95.5512139 C75.7637919,95.5512139 76.3067977,96.0942197 76.3067977,96.7650867 L76.3067977,101.393988 C76.3067977,102.064855 75.7637919,102.607861 75.0929249,102.607861 L56.1565087,102.607861 Z" id="Fill-30" fill="#E8E6E5"></path>
                <g id="Group-34" transform="translate(53.410405, 69.024046)">
                    <mask id="mask-4" fill="white">
                        <use xlink:href="#path-3"></use>
                    </mask>
                    <g id="Clip-33"></g>
                    <path d="M21.2616301,0.485630058 L2.74602312,0.485630058 C1.40509827,0.485630058 0.318277457,1.57245087 0.318277457,2.91337572 L0.318277457,32.3700231 C0.318277457,33.710948 1.40509827,34.7977688 2.74602312,34.7977688 L21.6832486,34.7977688 C23.0233642,34.7977688 24.1109942,33.710948 24.1109942,32.3700231 L24.1109942,27.7411214 C24.1109942,26.4001965 23.0233642,25.3133757 21.6832486,25.3133757 L10.1393179,25.3133757 L10.1393179,21.7526821 L18.3580462,21.7526821 C19.6989711,21.7526821 20.7857919,20.6658613 20.7857919,19.3249364 L20.7857919,14.6960347 C20.7857919,13.3551098 19.6989711,12.268289 18.3580462,12.268289 L10.1393179,12.268289 L10.1393179,9.97002312 L21.2616301,9.97002312 C22.6025549,9.97002312 23.6893757,8.88239306 23.6893757,7.54227746 L23.6893757,2.91337572 C23.6893757,1.57245087 22.6025549,0.485630058 21.2616301,0.485630058 M21.2616301,2.91337572 L21.2616301,7.54227746 L7.71157225,7.54227746 L7.71157225,14.6960347 L18.3580462,14.6960347 L18.3580462,19.3249364 L7.71157225,19.3249364 L7.71157225,27.7411214 L21.6832486,27.7411214 L21.6832486,32.3700231 L2.74602312,32.3700231 L2.74602312,2.91337572 L21.2616301,2.91337572" id="Fill-32" fill="#000000" mask="url(#mask-4)"></path>
                </g>
                <path d="M101.099017,102.607861 C100.695202,102.607861 100.318092,102.407168 100.092312,102.072948 L93.6927746,92.5820809 L87.2924277,102.072948 C87.0666474,102.407168 86.6895376,102.607861 86.2857225,102.607861 L80.7739306,102.607861 C80.3239884,102.607861 79.9112717,102.359422 79.7008671,101.961272 C79.4904624,101.563931 79.5171676,101.082428 79.7704624,100.710983 L89.5308092,86.3719075 L80.1491908,72.6211561 C79.895896,72.249711 79.8691908,71.7682081 80.0787861,71.3700578 C80.2891908,70.9727168 80.7019075,70.7234682 81.152659,70.7234682 L86.6644509,70.7234682 C87.0682659,70.7234682 87.4453757,70.9241618 87.6711561,71.2591908 L93.6927746,80.200578 L99.7127746,71.2591908 C99.9385549,70.9241618 100.315665,70.7234682 100.71948,70.7234682 L106.23289,70.7234682 C106.682023,70.7234682 107.09474,70.9719075 107.305145,71.3692486 C107.515549,71.7665896 107.488844,72.2472832 107.236358,72.6195376 L97.8952023,86.3719075 L107.615896,100.712601 C107.868382,101.084855 107.894277,101.565549 107.683873,101.96289 C107.472659,102.359422 107.060751,102.607861 106.611618,102.607861 L101.099017,102.607861 Z" id="Fill-35" fill="#E8E6E5"></path>
                <g id="Group-39" transform="translate(77.687861, 69.024046)">
                    <mask id="mask-6" fill="white">
                        <use xlink:href="#path-5"></use>
                    </mask>
                    <g id="Clip-38"></g>
                    <path d="M28.5448671,5.34112139 L28.5489133,5.34112139 L28.5448671,5.34112139 Z M28.5489133,0.485630058 L28.5448671,0.485630058 L23.0322659,0.485630058 C22.2238266,0.485630058 21.4687977,0.88782659 21.0180462,1.55707514 L16.0047514,9.0029711 L10.9906474,1.55707514 C10.5390867,0.88782659 9.7840578,0.485630058 8.97642775,0.485630058 L3.46463584,0.485630058 C2.56475145,0.485630058 1.73850867,0.983317919 1.31769942,1.7796185 C0.897699422,2.57510983 0.951919075,3.53811561 1.45931792,4.28181503 L10.3731908,17.3487514 L1.0789711,31.0040116 C0.573190751,31.747711 0.519780347,32.7099075 0.939780347,33.5053988 C1.3605896,34.3000809 2.18683237,34.7977688 3.08590751,34.7977688 L8.59850867,34.7977688 C9.40532948,34.7977688 10.1595491,34.3963815 10.6111098,33.7271329 L16.0047514,25.7293295 L21.3983931,33.7271329 C21.8499538,34.3963815 22.6041734,34.7977688 23.4109942,34.7977688 L28.9235954,34.7977688 C29.8218613,34.7977688 30.6472948,34.3016994 31.068104,33.5070173 C31.4897225,32.7131445 31.4371214,31.7517572 30.9329595,31.0080578 L21.6735376,17.3487514 L30.5097225,4.34169942 C30.8018613,3.94112139 30.9742312,3.44747977 30.9742312,2.91337572 C30.9742312,1.57245087 29.8898382,0.485630058 28.5489133,0.485630058 Z M28.5448671,2.91337572 L18.7400116,17.3471329 L28.9235954,32.3700231 L23.4109942,32.3700231 L16.0047514,21.3869017 L8.59850867,32.3700231 L3.08590751,32.3700231 L13.3115723,17.3471329 L3.46463584,2.91337572 L8.97642775,2.91337572 L16.0047514,13.3494451 L23.0322659,2.91337572 L28.5448671,2.91337572 Z M28.5448671,2.91337572 L28.5489133,2.91337572 L28.5448671,2.91337572 Z" id="Fill-37" fill="#000000" mask="url(#mask-6)"></path>
                </g>
                <path d="M119.866624,102.607861 C119.195757,102.607861 118.652751,102.064855 118.652751,101.393988 L118.652751,77.7801156 L111.450439,77.7801156 C110.779572,77.7801156 110.236566,77.2363006 110.236566,76.5662428 L110.236566,71.937341 C110.236566,71.266474 110.779572,70.7234682 111.450439,70.7234682 L133.164197,70.7234682 C133.834254,70.7234682 134.378069,71.266474 134.378069,71.937341 L134.378069,76.5662428 C134.378069,77.2363006 133.834254,77.7801156 133.164197,77.7801156 L125.961884,77.7801156 L125.961884,101.393988 C125.961884,102.064855 125.418879,102.607861 124.748012,102.607861 L119.866624,102.607861 Z" id="Fill-40" fill="#E8E6E5"></path>
                <g id="Group-44" transform="translate(108.439306, 69.024046)">
                    <mask id="mask-8" fill="white">
                        <use xlink:href="#path-7"></use>
                    </mask>
                    <g id="Clip-43"></g>
                    <path d="M24.7246474,0.485630058 L3.01089017,0.485630058 C1.66996532,0.485630058 0.583144509,1.57245087 0.583144509,2.91337572 L0.583144509,7.54227746 C0.583144509,8.88239306 1.66996532,9.97002312 3.01089017,9.97002312 L8.99932948,9.97002312 L8.99932948,32.3700231 C8.99932948,33.710948 10.0869595,34.7977688 11.4270751,34.7977688 L16.3092717,34.7977688 C17.6493873,34.7977688 18.7370173,33.710948 18.7370173,32.3700231 L18.7370173,9.97002312 L24.7246474,9.97002312 C26.0655723,9.97002312 27.1523931,8.88239306 27.1523931,7.54227746 L27.1523931,2.91337572 C27.1523931,1.57245087 26.0655723,0.485630058 24.7246474,0.485630058 M24.7246474,2.91337572 L24.7246474,7.54227746 L16.3092717,7.54227746 L16.3092717,32.3700231 L11.4270751,32.3700231 L11.4270751,7.54227746 L3.01089017,7.54227746 L3.01089017,2.91337572 L24.7246474,2.91337572" id="Fill-42" fill="#000000" mask="url(#mask-8)"></path>
                </g>
                <path d="M160.726555,102.607861 C160.055688,102.607861 159.512682,102.064855 159.512682,101.393988 L159.512682,77.7801156 L152.31037,77.7801156 C151.639503,77.7801156 151.096497,77.2363006 151.096497,76.5662428 L151.096497,71.937341 C151.096497,71.266474 151.639503,70.7234682 152.31037,70.7234682 L174.024127,70.7234682 C174.694185,70.7234682 175.238,71.266474 175.238,71.937341 L175.238,76.5662428 C175.238,77.2363006 174.694185,77.7801156 174.024127,77.7801156 L166.821006,77.7801156 L166.821006,101.393988 C166.821006,102.064855 166.278,102.607861 165.607133,102.607861 L160.726555,102.607861 Z" id="Fill-45" fill="#E8E6E5"></path>
                <g id="Group-49" transform="translate(149.710983, 69.024046)">
                    <mask id="mask-10" fill="white">
                        <use xlink:href="#path-9"></use>
                    </mask>
                    <g id="Clip-48"></g>
                    <path d="M24.3129017,0.485630058 L2.59914451,0.485630058 C1.25821965,0.485630058 0.171398844,1.57245087 0.171398844,2.91337572 L0.171398844,7.54227746 C0.171398844,8.88239306 1.25821965,9.97002312 2.59914451,9.97002312 L8.58758382,9.97002312 L8.58758382,32.3700231 C8.58758382,33.710948 9.67521387,34.7977688 11.0153295,34.7977688 L15.8967168,34.7977688 C17.2368324,34.7977688 18.3244624,33.710948 18.3244624,32.3700231 L18.3244624,9.97002312 L24.3129017,9.97002312 C25.6538266,9.97002312 26.7406474,8.88239306 26.7406474,7.54227746 L26.7406474,2.91337572 C26.7406474,1.57245087 25.6538266,0.485630058 24.3129017,0.485630058 M24.3129017,2.91337572 L24.3129017,7.54227746 L15.8967168,7.54227746 L15.8967168,32.3700231 L11.0153295,32.3700231 L11.0153295,7.54227746 L2.59914451,7.54227746 L2.59914451,2.91337572 L24.3129017,2.91337572" id="Fill-47" fill="#000000" mask="url(#mask-10)"></path>
                </g>
                <path d="M182.145584,102.607861 C181.474717,102.607861 180.931711,102.064855 180.931711,101.393988 L180.931711,71.937341 C180.931711,71.266474 181.474717,70.7234682 182.145584,70.7234682 L187.026162,70.7234682 C187.697029,70.7234682 188.240035,71.266474 188.240035,71.937341 L188.240035,101.393988 C188.240035,102.064855 187.697029,102.607861 187.026162,102.607861 L182.145584,102.607861 Z" id="Fill-50" fill="#E8E6E5"></path>
                <g id="Group-54" transform="translate(179.653179, 69.024046)">
                    <mask id="mask-12" fill="white">
                        <use xlink:href="#path-11"></use>
                    </mask>
                    <g id="Clip-53"></g>
                    <path d="M7.37314451,0.485630058 L2.49256647,0.485630058 C1.15164162,0.485630058 0.0648208092,1.57245087 0.0648208092,2.91337572 L0.0648208092,32.3700231 C0.0648208092,33.710948 1.15164162,34.7977688 2.49256647,34.7977688 L7.37314451,34.7977688 C8.71406936,34.7977688 9.80089017,33.710948 9.80089017,32.3700231 L9.80089017,2.91337572 C9.80089017,1.57245087 8.71406936,0.485630058 7.37314451,0.485630058 Z M2.49256647,32.3700231 L7.37314451,32.3700231 L7.37314451,2.91337572 L2.49256647,2.91337572 L2.49256647,32.3700231 Z" id="Fill-52" fill="#000000" mask="url(#mask-12)"></path>
                </g>
                <path d="M222.03741,102.607861 C221.425618,102.607861 220.910127,102.153064 220.833249,101.546127 L218.696832,84.6563006 L212.793364,95.4937572 C212.581341,95.883815 212.17348,96.1265896 211.729202,96.1273988 L211.727584,96.1273988 C211.284116,96.1273988 210.876254,95.8862428 210.663422,95.4978035 L204.672555,84.5842775 L202.495676,101.548555 C202.417988,102.153873 201.902497,102.607861 201.291514,102.607861 L196.199723,102.607861 C195.849318,102.607861 195.515908,102.456532 195.285272,102.191908 C195.054636,101.927283 194.949434,101.576879 194.997179,101.228902 L199.036948,71.7722543 C199.119491,71.1717919 199.633364,70.7234682 200.239491,70.7234682 L204.321341,70.7234682 C204.770474,70.7234682 205.182382,70.9710983 205.393595,71.3676301 L211.685503,83.1972254 L217.97822,71.3676301 C218.189434,70.9710983 218.601341,70.7234682 219.050474,70.7234682 L223.089434,70.7234682 C223.695561,70.7234682 224.209434,71.1717919 224.291977,71.7722543 L228.331746,101.228902 C228.379491,101.576879 228.275098,101.927283 228.043653,102.191908 C227.813827,102.456532 227.480416,102.607861 227.129202,102.607861 L222.03741,102.607861 Z" id="Fill-55" fill="#E8E6E5"></path>
                <g id="Group-59" transform="translate(193.410405, 69.024046)">
                    <mask id="mask-14" fill="white">
                        <use xlink:href="#path-13"></use>
                    </mask>
                    <g id="Clip-58"></g>
                    <path d="M29.6788671,0.485630058 L25.6399075,0.485630058 C24.7424509,0.485630058 23.9178266,0.980890173 23.4962081,1.77314451 L18.2749364,11.5885202 L13.054474,1.77314451 C12.6336647,0.980890173 11.8090405,0.485630058 10.9115838,0.485630058 L6.8297341,0.485630058 C5.61586127,0.485630058 4.58892486,1.38146821 4.42383815,2.58320231 L0.384069364,32.0398497 C0.289387283,32.7349942 0.498982659,33.437422 0.960254335,33.9658613 C1.42152601,34.4943006 2.08834682,34.7977688 2.78915607,34.7977688 L7.88094798,34.7977688 C9.10291329,34.7977688 10.133896,33.8906012 10.2892717,32.6791561 L11.9919306,19.411526 L16.1886936,27.0573064 C16.6151676,27.834185 17.4308902,28.3173064 18.3170173,28.3173064 L18.3210636,28.3173064 C19.2088092,28.3156879 20.0245318,27.8301387 20.4493873,27.0508324 L24.553896,19.5151098 L26.2185202,32.6743006 C26.3722775,33.8881734 27.4040694,34.7977688 28.6268439,34.7977688 L33.7186358,34.7977688 C34.4202543,34.7977688 35.0870751,34.4943006 35.5483468,33.9658613 C36.0096185,33.437422 36.2192139,32.7349942 36.1237225,32.0398497 L32.0839538,2.58320231 C31.9196763,1.38146821 30.8927399,0.485630058 29.6788671,0.485630058 M29.6788671,2.91337572 L33.7186358,32.3700231 L28.6268439,32.3700231 L26.0186358,11.7503699 L18.3170173,25.8895607 L10.5328555,11.708289 L7.88094798,32.3700231 L2.78915607,32.3700231 L6.8297341,2.91337572 L10.9115838,2.91337572 L18.2749364,16.758 L25.6399075,2.91337572 L29.6788671,2.91337572" id="Fill-57" fill="#000000" mask="url(#mask-14)"></path>
                </g>
                <path d="M236.303572,102.607861 C235.632705,102.607861 235.089699,102.064855 235.089699,101.393988 L235.089699,71.937341 C235.089699,71.266474 235.632705,70.7234682 236.303572,70.7234682 L254.819179,70.7234682 C255.489237,70.7234682 256.033052,71.266474 256.033052,71.937341 L256.033052,76.5662428 C256.033052,77.2363006 255.489237,77.7801156 254.819179,77.7801156 L242.482994,77.7801156 L242.482994,82.5061272 L251.915595,82.5061272 C252.586462,82.5061272 253.129468,83.0499422 253.129468,83.72 L253.129468,88.3489017 C253.129468,89.0189595 252.586462,89.5627746 251.915595,89.5627746 L242.482994,89.5627746 L242.482994,95.5512139 L255.239988,95.5512139 C255.910855,95.5512139 256.453861,96.0942197 256.453861,96.7650867 L256.453861,101.393988 C256.453861,102.064855 255.910855,102.607861 255.239988,102.607861 L236.303572,102.607861 Z" id="Fill-60" fill="#E8E6E5"></path>
                <g id="Group-64" transform="translate(233.872832, 69.024046)">
                    <mask id="mask-16" fill="white">
                        <use xlink:href="#path-15"></use>
                    </mask>
                    <g id="Clip-63"></g>
                    <path d="M20.9462659,0.485630058 L2.43065896,0.485630058 C1.0897341,0.485630058 0.0029132948,1.57245087 0.0029132948,2.91337572 L0.0029132948,32.3700231 C0.0029132948,33.710948 1.0897341,34.7977688 2.43065896,34.7977688 L21.3678844,34.7977688 C22.708,34.7977688 23.7956301,33.710948 23.7956301,32.3700231 L23.7956301,27.7411214 C23.7956301,26.4001965 22.708,25.3133757 21.3678844,25.3133757 L9.82395376,25.3133757 L9.82395376,21.7526821 L18.0426821,21.7526821 C19.3836069,21.7526821 20.4704277,20.6658613 20.4704277,19.3249364 L20.4704277,14.6960347 C20.4704277,13.3551098 19.3836069,12.268289 18.0426821,12.268289 L9.82395376,12.268289 L9.82395376,9.97002312 L20.9462659,9.97002312 C22.2871908,9.97002312 23.3740116,8.88239306 23.3740116,7.54227746 L23.3740116,2.91337572 C23.3740116,1.57245087 22.2871908,0.485630058 20.9462659,0.485630058 M20.9462659,2.91337572 L20.9462659,7.54227746 L7.39620809,7.54227746 L7.39620809,14.6960347 L18.0426821,14.6960347 L18.0426821,19.3249364 L7.39620809,19.3249364 L7.39620809,27.7411214 L21.3678844,27.7411214 L21.3678844,32.3700231 L2.43065896,32.3700231 L2.43065896,2.91337572 L20.9462659,2.91337572" id="Fill-62" fill="#000000" mask="url(#mask-16)"></path>
                </g>
            </g>
        </g>
    </g>
</svg>