<svg id="Layer_1" data-name="Layer 1" xmlns="http://www.w3.org/2000/svg" viewBox="0 0 650 275"><defs><style>.cls-1{fill:#efefef;}.cls-2{stroke:#000;stroke-linecap:round;stroke-linejoin:round;stroke-width:0.63px;}</style></defs><title>portland_text</title><path class="cls-1" d="M29.34,26.74q12.75-2.53,25.48-4.41c17-2.47,25.48,4.57,25.48,19.94,0,8-2.15,14.13-6.44,18.5s-10.54,7.07-18.73,8.28q-6.35.93-12.69,2V95.94q-6.54,1.13-13.1,2.43ZM53.6,58.33c4.5-.68,7.86-2.15,10.07-4.49S67,48.23,67,44s-1.13-7.21-3.38-8.92-5.69-2.26-10.33-1.56q-5.43.81-10.85,1.75V60.13Q48,59.17,53.6,58.33Z"/><path d="M29.34,100.52a2.16,2.16,0,0,1-2.15-2.15V26.74a2.15,2.15,0,0,1,1.74-2.11c8.35-1.66,17-3.15,25.58-4.43,9.36-1.35,16.53.05,21.29,4.17,4.42,3.82,6.65,9.84,6.65,17.9,0,8.51-2.37,15.24-7.06,20s-11.12,7.6-20,8.9c-3.62.53-7.27,1.11-10.85,1.71v23a2.15,2.15,0,0,1-1.78,2.12c-4.34.75-8.73,1.56-13,2.42A3,3,0,0,1,29.34,100.52Zm2.15-72V95.76c2.93-.57,5.87-1.11,8.8-1.63v-23A2.15,2.15,0,0,1,42.08,69c4.18-.72,8.47-1.41,12.74-2,7.86-1.16,13.58-3.66,17.5-7.65s5.83-9.55,5.83-17c0-6.75-1.73-11.68-5.16-14.65-3.78-3.27-9.79-4.34-17.86-3.16S39.24,27,31.49,28.51Zm11,33.77a2.17,2.17,0,0,1-2.15-2.15V35.26a2.16,2.16,0,0,1,1.79-2.12c3.56-.61,7.23-1.2,10.89-1.76,5.19-.78,9.21-.12,12,2S69.15,39.07,69.15,44c0,4.77-1.32,8.58-3.91,11.33S59,59.69,53.92,60.45c-3.73.56-7.47,1.17-11.11,1.8A2.31,2.31,0,0,1,42.44,62.28Zm2.15-25.2v20.5c2.87-.48,5.78-.94,8.69-1.38h0c4-.6,7-1.9,8.83-3.84s2.74-4.68,2.74-8.37c0-3.51-.85-5.93-2.53-7.21S57.61,35,53.61,35.63C50.59,36.09,47.56,36.57,44.59,37.08Z"/><path class="cls-1" d="M113.4,85.06a30.53,30.53,0,0,1-12.58-12.35q-4.56-8.13-4.55-19.17a42.32,42.32,0,0,1,4.55-19.82,34.76,34.76,0,0,1,30.75-19.16A33.86,33.86,0,0,1,149.73,19a32.72,32.72,0,0,1,12.59,13.18,40.91,40.91,0,0,1,4.55,19.57,40.08,40.08,0,0,1-4.55,19.42,32.91,32.91,0,0,1-12.59,13,37.31,37.31,0,0,1-18.16,4.88A36.29,36.29,0,0,1,113.4,85.06Zm34.18-15.67q5.58-6.77,5.58-17.81c0-7.36-1.86-13.31-5.58-17.8s-9.05-6.7-16-6.53-12.3,2.64-16,7.31S110,45.28,110,52.65s1.85,13.19,5.57,17.52,9.06,6.36,16,6.19S143.86,73.91,147.58,69.39Z"/><path d="M130.48,91.21A38,38,0,0,1,112.4,87a32.84,32.84,0,0,1-13.46-13.2,40.92,40.92,0,0,1-4.83-20.22,44.66,44.66,0,0,1,4.8-20.81,36.93,36.93,0,0,1,32.61-20.32,36.13,36.13,0,0,1,19.29,4.72,34.9,34.9,0,0,1,13.4,14A43.19,43.19,0,0,1,169,51.74a42.36,42.36,0,0,1-4.81,20.44A35.15,35.15,0,0,1,150.81,86a39.6,39.6,0,0,1-19.19,5.17Zm2.06-74.51h-.92a32.62,32.62,0,0,0-28.89,18,40.41,40.41,0,0,0-4.31,18.83,36.67,36.67,0,0,0,4.27,18.12,28.23,28.23,0,0,0,11.72,11.5h0a34.34,34.34,0,0,0,17.11,3.74,35.35,35.35,0,0,0,17.13-4.59,31,31,0,0,0,11.78-12.18,38.07,38.07,0,0,0,4.29-18.39,39,39,0,0,0-4.3-18.56,30.75,30.75,0,0,0-11.77-12.33A31.69,31.69,0,0,0,132.54,16.7Zm-1.75,61.82c-7.23,0-12.91-2.33-16.87-7s-6.09-11.07-6.09-18.92,2-14.38,6-19.43C118,28,124,25.28,131.52,25.1s13.55,2.27,17.72,7.31c4,4.87,6.07,11.32,6.07,19.18s-2,14.28-6.07,19.17-10,7.57-17.62,7.75Zm1.52-49.13h-.69c-6.32.16-11,2.29-14.38,6.51s-5.11,9.9-5.11,16.75,1.65,12.16,5.05,16.12,8,5.6,14.34,5.44S142.62,72,145.92,68h0c3.38-4.1,5.09-9.63,5.09-16.43s-1.71-12.36-5.08-16.44C142.72,31.28,138.25,29.39,132.31,29.39Z"/><path class="cls-1" d="M188.56,16.58q13.11.53,26.2,1.37c7.64.48,13.66,2.74,18.06,6.72s6.6,9.57,6.6,16.73q0,7.47-3.17,12a20.24,20.24,0,0,1-9,6.95Q235.33,76,243.41,91.65q-7.32-.59-14.63-1.12Q221.86,76.71,215,63l-.51,0q-6.39-.41-12.79-.74V88.82q-6.54-.34-13.1-.61Zm22.72,35.23c9.62.58,14.43-2.94,14.43-10.72q0-5.62-3.28-8.77t-10.64-3.61q-5.06-.3-10.13-.57V51.26C204.87,51.43,208.07,51.61,211.28,51.81Z"/><path d="M243.41,93.8h-.17q-7.31-.6-14.62-1.13a2.12,2.12,0,0,1-1.76-1.18q-6.63-13.24-13.26-26.44c-3.26-.2-6.53-.39-9.79-.57V88.82a2.15,2.15,0,0,1-.67,1.56,2.18,2.18,0,0,1-1.59.59c-4.42-.24-8.82-.44-13.07-.62a2.14,2.14,0,0,1-2.07-2.14V16.58a2.14,2.14,0,0,1,.66-1.55,2.18,2.18,0,0,1,1.58-.6c8.4.34,17.23.8,26.24,1.37,8.08.51,14.6,3,19.37,7.28s7.31,10.55,7.31,18.32c0,5.4-1.2,9.85-3.56,13.22a21.8,21.8,0,0,1-7.83,6.71Q237.76,76,245.32,90.67a2.14,2.14,0,0,1-1.91,3.13Zm-13.26-5.33,9.58.73q-7.2-14-14.4-27.88a2.19,2.19,0,0,1-.11-1.72,2.16,2.16,0,0,1,1.19-1.25,18.21,18.21,0,0,0,8.08-6.21c1.84-2.62,2.78-6.24,2.78-10.74,0-6.6-1.93-11.55-5.89-15.14s-9.68-5.72-16.76-6.17c-8.18-.51-16.21-.94-23.91-1.27V86.14c2.89.13,5.84.26,8.8.41V62.21a2.15,2.15,0,0,1,.67-1.56,2.18,2.18,0,0,1,1.59-.58q6.4.33,12.82.73l.51,0A2.16,2.16,0,0,1,216.89,62Q223.52,75.21,230.15,88.47ZM213.29,54c-.69,0-1.4,0-2.14-.07h0q-4.8-.29-9.6-.54a2.15,2.15,0,0,1-2-2.15V28.14A2.15,2.15,0,0,1,201.77,26q5.08.27,10.15.57c5.4.33,9.44,1.75,12,4.2s3.94,6,3.94,10.33c0,4-1.19,7.23-3.53,9.43C221.83,52.87,218.21,54,213.29,54Zm-9.48-4.8,7.6.44h0c4.71.29,8.07-.48,10-2.27,1.47-1.38,2.18-3.44,2.18-6.3,0-3.17-.86-5.54-2.61-7.22s-4.94-2.75-9.29-3c-2.62-.16-5.23-.31-7.85-.45Z"/><path class="cls-1" d="M276.05,35.62q-10.12-1-20.26-1.86V21.07c17.88,1.57,35.75,3.35,53.62,5.17V38.92l-20.26-2V95.83q-6.54-.64-13.1-1.27Z"/><path d="M289.15,98h-.21q-6.54-.64-13.09-1.27a2.16,2.16,0,0,1-2-2.14v-57c-6.45-.61-12.46-1.16-18.29-1.67a2.15,2.15,0,0,1-2-2.14V21.07a2.15,2.15,0,0,1,.7-1.58,2.12,2.12,0,0,1,1.64-.56c18.74,1.64,37.52,3.53,53.65,5.17a2.14,2.14,0,0,1,1.93,2.14V38.92a2.17,2.17,0,0,1-.71,1.6,2.13,2.13,0,0,1-1.66.54q-8.94-.9-17.89-1.8V95.83A2.16,2.16,0,0,1,289.15,98ZM278.2,92.6l8.8.86V36.89a2.16,2.16,0,0,1,2.36-2.14l17.9,1.79V28.18c-15-1.52-32.13-3.24-49.32-4.76v8.37c5.82.52,11.83,1.07,18.32,1.69a2.14,2.14,0,0,1,1.94,2.14Z"/><path d="M329.06,30.76a2.24,2.24,0,0,1,2.51-2.27l8.08.82a2.85,2.85,0,0,1,2.51,2.77V87a2.84,2.84,0,0,0,2.51,2.77l24.45,2.36a2.84,2.84,0,0,1,2.51,2.76v6.62a2.26,2.26,0,0,1-2.51,2.29l-37.55-3.68a2.86,2.86,0,0,1-2.51-2.78Z"/><path d="M428.42,93.8a4.11,4.11,0,0,0-3.34-2.55L404,89.79A3.52,3.52,0,0,0,400.65,92l-4.23,11.77a3.47,3.47,0,0,1-3.36,2.16l-7.67-.64a1.84,1.84,0,0,1-1.64-2.59L407.5,37.85a3.54,3.54,0,0,1,3.38-2.19l7.35.51a4.16,4.16,0,0,1,3.34,2.55L445.39,107a1.58,1.58,0,0,1-1.69,2.26l-7.65-.38a4.06,4.06,0,0,1-3.33-2.52ZM421,79.54a1.56,1.56,0,0,0,1.7-2.22l-7.28-21.4c-.44-1.32-1.19-1.32-1.66,0l-7.29,20.19a1.8,1.8,0,0,0,1.65,2.55Z"/><path d="M464.64,40.93a2.47,2.47,0,0,1,2.52-2.47l7.85.16a5.36,5.36,0,0,1,3.91,2.14l27.81,41.87c.77,1.16,1.4,1,1.4-.42V41a2.62,2.62,0,0,1,2.52-2.6l8.06-.28a2.42,2.42,0,0,1,2.52,2.43v66.58a2.67,2.67,0,0,1-2.52,2.63L513,110a5.09,5.09,0,0,1-3.93-2L479.14,63.27c-.77-1.15-1.4-1-1.4.43v44.07a2.48,2.48,0,0,1-2.52,2.48l-8.06-.16a2.6,2.6,0,0,1-2.52-2.58Z"/><path d="M547.22,38.9a2.83,2.83,0,0,1,2.51-2.76l21.79-2.32c1.38-.16,3.64-.32,5-.36,0,0,10.39-.3,15.74,1.68a24.27,24.27,0,0,1,12.54,10.17c3,4.82,4.5,10.89,4.5,18.26a43.93,43.93,0,0,1-4.5,20,38.9,38.9,0,0,1-12.54,14.6c-5.35,3.74-15.82,6.36-15.82,6.36a45.86,45.86,0,0,1-5,.91l-21.79,2.32a2.26,2.26,0,0,1-2.51-2.28Zm24.31,54.9a32.94,32.94,0,0,0,4.9-1.07s9.62-3,13.2-7.89S595,73.78,595,66.21,593.21,53,589.63,49.34s-13.08-4.05-13.08-4.05a38.18,38.18,0,0,0-5,.21l-8.71,1a2.88,2.88,0,0,0-2.5,2.8V92.58a2.21,2.21,0,0,0,2.5,2.25Z"/><path class="cls-2" d="M48.16,146.43a11.68,11.68,0,0,1-4.45-4.84,16.26,16.26,0,0,1,0-13.77A11.68,11.68,0,0,1,48.16,123a12.92,12.92,0,0,1,6.89-1.78A12.93,12.93,0,0,1,61.9,123a11.62,11.62,0,0,1,4.48,4.84,16.26,16.26,0,0,1,0,13.77,11.62,11.62,0,0,1-4.48,4.84,12.93,12.93,0,0,1-6.85,1.78A12.92,12.92,0,0,1,48.16,146.43ZM61,141.54a12.22,12.22,0,0,0,0-13.67,7.37,7.37,0,0,0-5.9-2.43,7.38,7.38,0,0,0-5.91,2.43,12.22,12.22,0,0,0,0,13.67A7.38,7.38,0,0,0,55.05,144,7.37,7.37,0,0,0,61,141.54Z"/><path class="cls-2" d="M75.47,120.32H71l.64-3.71h3.86v-6.14a7.93,7.93,0,0,1,1.88-5.58,7,7,0,0,1,5.43-2,11.5,11.5,0,0,1,4.13.69l-.74,4a7.45,7.45,0,0,0-2.65-.48q-3.28,0-3.28,3.71v5.82h7v3.71h-7v22.24H75.47Z"/><path d="M114.54,237.79a41.65,41.65,0,0,1-19.22-4.24c-7.6-3.9-12.46-11.14-14-20.93a54.13,54.13,0,0,1,1.5-22.2,99.42,99.42,0,0,1,6.59-15.49c-5.22,1.32-10.41,2.5-15,3.39-12.74,2.48-24.08,5.13-33.69,12.54-2.27,1.76-4.84,7.1-5,12.67-.1,3.2.55,7.7,4.27,11a7.19,7.19,0,1,1-9.52,10.79C24.24,219.85,21,212,21.29,203.06c.31-9.3,4.68-19,10.63-23.59C44,170.14,57.07,167,71.65,164.2c6.64-1.3,17.39-3.82,27.92-7.07,7-10.81,17.32-23.72,27.19-25.45a14.24,14.24,0,0,1,2.5-.22,13.52,13.52,0,0,1,11.15,6.06,11.78,11.78,0,0,1,1.43,11.55c-1.87,4.69-7,11.1-29.86,19.13-1,.34-2,.67-2.94,1-6.25,10.26-11.19,20.73-12.39,25.06-2.32,8.38-2.84,22.35,5.24,26.5,3.2,1.64,8,2.58,13.09,2.58a48.13,48.13,0,0,0,18.25-3.72c21.09-8.79,32.31-34.53,37.11-49.1,5.88-17.8,2.07-33.59-10.19-42.26a32.62,32.62,0,0,0-19-5.89c-9.26,0-19,3.61-27.5,10.17a7.18,7.18,0,0,1-10.09-1.28,7.19,7.19,0,0,1,1.29-10.09c11.16-8.64,23.72-13.21,36.3-13.21a47,47,0,0,1,27.26,8.55c17.44,12.33,23.4,34.75,15.56,58.52-13,39.37-33.93,53.15-45.25,57.87A65.57,65.57,0,0,1,114.54,237.79Z"/><path class="cls-1" d="M141.19,110.11a44.66,44.66,0,0,1,26,8.16C183.85,130,189.5,151.52,182,174.35c-12.72,38.56-33.05,52-44,56.56a62.93,62.93,0,0,1-23.39,4.72,39.82,39.82,0,0,1-18.24-4c-7-3.58-11.43-10.27-12.89-19.36A51.92,51.92,0,0,1,84.86,191c1-3.67,4.21-11.08,8.66-19.38-7.37,2-14.29,3.57-19.54,4.59-13,2.53-24.61,5.25-34.59,12.95-2.72,2.1-5.66,8-5.87,14.3-.12,3.66.65,8.83,5,12.66a5,5,0,0,1-6.67,7.56c-5.68-5-8.67-12.31-8.4-20.55.29-8.7,4.31-17.73,9.79-21.95,11.73-9.05,24.52-12.09,38.83-14.87A295,295,0,0,0,101,159c8-12.37,17.63-23.66,26.18-25.16a12.15,12.15,0,0,1,2.14-.19,11.31,11.31,0,0,1,9.39,5.16,9.71,9.71,0,0,1,1.19,9.5c-1.57,3.93-6.25,10.07-28.58,17.9-1.2.42-2.42.84-3.65,1.24-6.51,10.56-11.74,21.59-13,26.28-2.15,7.79-3.61,23.88,6.33,29,3.3,1.7,8.26,2.82,14.07,2.82a49.89,49.89,0,0,0,19.07-3.89c21.89-9.11,33.41-35.49,38.34-50.41,6.18-18.74,2.07-35.44-11-44.69a34.61,34.61,0,0,0-20.2-6.28c-9.59,0-19.73,3.59-28.81,10.62a5,5,0,1,1-6.18-8c10.93-8.46,23.22-12.76,35-12.76M118,152.71c10.16-4.49,12.09-7.41,12.42-8.09h0c-.54-.76-.87-.92-1.2-.92a2.2,2.2,0,0,0-.36,0c-2.09.37-5.85,3-10.86,9m23.17-46.9c-13.06,0-26.07,4.72-37.62,13.66A9.35,9.35,0,0,0,115,134.25c8.1-6.28,17.4-9.73,26.18-9.73A30.5,30.5,0,0,1,158.91,130c11.44,8.1,15,23,9.39,39.84C157.37,203,141.12,214,132.4,217.63A45.76,45.76,0,0,1,115,221.19c-4.79,0-9.2-.85-12.11-2.35s-4.83-5-5.38-10.11a39.8,39.8,0,0,1,1.24-13.89c1.13-4.1,5.78-14,11.74-23.85l2.23-.76c23.71-8.32,29.1-15.25,31.14-20.36a14.05,14.05,0,0,0-1.68-13.6,15.6,15.6,0,0,0-12.89-7,16.56,16.56,0,0,0-2.88.25c-8.46,1.49-17.94,10.15-28.2,25.75-10.21,3.11-20.53,5.52-26.95,6.77C56.38,165,43.07,168.15,30.6,177.77c-6.52,5-11.12,15.17-11.46,25.22-.31,9.54,3.19,18,9.86,23.92a9.35,9.35,0,0,0,13.18-.83,9.35,9.35,0,0,0-.82-13.19c-2.48-2.18-3.67-5.31-3.54-9.29.17-5.15,2.59-9.79,4.2-11,9.23-7.13,20.31-9.72,32.78-12.14,3.3-.64,6.92-1.43,10.63-2.32a83.21,83.21,0,0,0-4.71,11.74A56.44,56.44,0,0,0,79.16,213c1.7,10.5,6.94,18.28,15.17,22.51a43.92,43.92,0,0,0,20.21,4.47,67.68,67.68,0,0,0,25-5.06c11.67-4.85,33.21-19,46.47-59.18,8.15-24.7,1.88-48-16.35-60.94a49,49,0,0,0-28.51-9Z"/><path d="M546.74,262.93a14,14,0,0,1-10.86-5.05,15.88,15.88,0,0,1-3.5-12c.71-7.17,5.48-14,9.6-17.34a45.23,45.23,0,0,1,10.52-6.25c-.25-.26-.48-.52-.71-.8a16.2,16.2,0,0,1-1-1.4c-4.61,4.15-10.23,6.65-15.2,6.65a13.77,13.77,0,0,1-5.53-1.12,12.57,12.57,0,0,1-5.39-4.39,22.26,22.26,0,0,1-13.78,5.22c-.38,0-.75,0-1.12,0a12,12,0,0,1-9.1-4.72c-3.82,3.36-8.4,5.3-12.67,5.3a13.6,13.6,0,0,1-4.13-.63c-3.77-1.19-10.06-5-9.68-17.42.21-6.78,2.53-13,4.77-18.92s4.26-11.33,4.21-16.89a5.39,5.39,0,0,0-.08-1c-2.15,0-8.14,2.57-12.05,10.19-2.2,5.73-4.32,10.8-6.46,15.47-4.12,10.35-7.85,20.35-9.28,24.52a7.2,7.2,0,0,1-6.81,4.86,7.12,7.12,0,0,1-2.33-.39,7.29,7.29,0,0,1-1.88-1,18.68,18.68,0,0,1-7.41,1.49,24,24,0,0,1-5.58-.7,10.94,10.94,0,0,1-6.49-4.54l-.26.2a20.59,20.59,0,0,1-12.65,4.38,18.77,18.77,0,0,1-3.37-.3A16.59,16.59,0,0,1,398,219.9c-4.35,4.34-9.62,6.86-14.53,6.86a13.28,13.28,0,0,1-5.94-1.35,13.49,13.49,0,0,1-5.64-5.31c-4.41,4.19-9.21,6.4-13.87,6.4a13.49,13.49,0,0,1-7.06-2c-6.65-4-9.13-13-6.33-22.85.94-3.32,3.17-7.36,5.53-11.64,1.28-2.32,3.22-5.83,4.33-8.36-1.62-.59-3.63-1.21-5.23-1.71l-1.27-.39c-4.33,10.67-10.78,24.49-18.08,33.34-3.36,4.08-9.34,6.72-15.25,6.72a17.76,17.76,0,0,1-7.41-1.56c-6.29,5.95-12.64,9.08-18.43,9.08a15,15,0,0,1-9.64-3.45,14.79,14.79,0,0,1-4.67-7,17.7,17.7,0,0,1-9.21,2.6,19,19,0,0,1-2.89-.23,23.48,23.48,0,0,1-5.17-1.4,37.44,37.44,0,0,1-10.15,7.92,17.26,17.26,0,0,1-7.81,1.88,17,17,0,0,1-9-2.59c-3.68,10.23-6.87,19-10.34,27.69a7.19,7.19,0,1,1-13.37-5.31c3.64-9.17,7.12-18.76,10.5-28.14a31,31,0,0,1-4.65-.67,16.27,16.27,0,0,1-3-.95,29.23,29.23,0,0,1-12.32,8.58,21.44,21.44,0,0,1-6.73,1.17,14.74,14.74,0,0,1-9.18-3.05c-3.89,10.83-7,20.14-9.11,27.69a7.22,7.22,0,0,1-6.91,5.22,7,7,0,0,1-2-.28A7.2,7.2,0,0,1,158.3,248c7.82-27.37,24.38-67.94,31.46-85.27l.74-1.81a7.19,7.19,0,0,1,11.81-2.3,19.41,19.41,0,0,1,8.81-2.31,15.22,15.22,0,0,1,8.47,2.55c14.76,9.68,4.45,33,1.06,40.6-.82,1.86-1.69,3.65-2.58,5.37h.45c1.77,0,3.07-.48,4.81-3,3.32-9.05,6.17-16.52,9-23.45a6.44,6.44,0,0,1,.3-.72c2.56-6.32,4.94-11.87,7.28-17a7.23,7.23,0,0,1,6.54-4.19,7.09,7.09,0,0,1,3,.66,7.19,7.19,0,0,1,2.71,2.17,19.39,19.39,0,0,1,6.49-2c.48,0,1-.07,1.43-.07a12.18,12.18,0,0,1,8.37,3.2c5.21,4.77,7.28,12.34,6,21.9a66.56,66.56,0,0,1-7.8,22.23c2.3-1,4.61-4.26,6.26-7.07a95.12,95.12,0,0,0,4.44-9.64c5.57-13.19,13.18-31.21,28.71-31.21a21.61,21.61,0,0,1,4.59.52c5.91,1.29,10.29,5.34,12.34,11.4,3.42,10.09-.12,25.21-5.58,36.05a4.15,4.15,0,0,0,1.49-.93c4.86-5.9,10.65-16.74,16-29.9a14.52,14.52,0,0,1-4.85-5.62,12.51,12.51,0,0,1-.08-10.39,13.68,13.68,0,0,1,9-8.38,11.68,11.68,0,0,1,2.89-.37,13,13,0,0,1,8.14,3c5.12,4.09,4.28,10.31,3.29,14l.28.08c5.4,1.67,10.06,3.1,13.16,5.93,6.56,6,1.5,15.14-3.86,24.85-1.69,3.07-3.8,6.89-4.29,8.63-1,3.46-.53,5.68-.13,6.44a9.43,9.43,0,0,0,3.71-2.45c5.36-5.12,8.61-13.14,11.23-20.25.47-1.37.94-2.66,1.42-3.91l0-.1c.66-1.84,1.41-3.91,2.17-5.9,1.51-3.93,3-7.64,4.5-11.23l.34-.82c-2.25.1-4.46.22-6.78.38h-.48a7.21,7.21,0,0,1-7.17-6.71,7.2,7.2,0,0,1,6.7-7.66c5.38-.35,9.65-.51,13.42-.62,1.52-4.29,2.8-8.39,3.89-12.5A7.21,7.21,0,0,1,398.3,135a6.89,6.89,0,0,1,1.86.25,7.19,7.19,0,0,1,5.1,8.8c-.75,2.79-1.55,5.53-2.45,8.31,1.85-.08,3.69-.19,5.58-.32h.48A7.22,7.22,0,0,1,415.7,157a7.2,7.2,0,0,1,1.67-.2,7.42,7.42,0,0,1,2.19.34,7.21,7.21,0,0,1,4.66,9,241.7,241.7,0,0,1-10.71,27.46c-.3.84-.62,1.73-1,2.66-1.13,3.09-4.58,12.48-3.15,14.81a2.22,2.22,0,0,0,1.66,1.1,5.1,5.1,0,0,0,.8.06,6.46,6.46,0,0,0,3.8-1.32c3.56-2.79,7.14-8.5,10.93-17.46.63-1.65,1.16-2.88,1.42-3.47,2-5.13,3.94-10.67,5.62-15.56,1.57-4.57,3-8.82,4.52-12.64a7.19,7.19,0,1,1,13.4,5.22c-1.37,3.54-2.79,7.64-4.28,12l0,.1c-2.34,6.81-4.76,13.85-7.61,20.51a44,44,0,0,0-2.93,13.29h.11c2.32,0,3.93-1.36,6.38-5.37a149.39,149.39,0,0,0,8.13-15.38c1.94-4.9,3.69-9.15,5.2-12.64.38-1,.85-2.07,1.36-3.11,1.87-4.9,3.58-9.67,5.22-14.27l1-2.66a7.19,7.19,0,0,1,13.21-.78,19.93,19.93,0,0,1,5.93-1,15.46,15.46,0,0,1,2.75.24c8.48,1.52,11.55,9,11.61,15,.07,8.24-2.57,15.27-5.13,22.07-1.92,5.11-3.73,9.92-3.86,14.3a12.83,12.83,0,0,0,.21,3,9.22,9.22,0,0,0,4.09-3.42c5.52-8.38,10.13-21.54,14.2-33.16l0-.1c1.76-5,3.43-9.79,5.1-14a7.21,7.21,0,0,1,11-3.13c2.19-3.14,6.51-4,15.48-4.24,1.3-4.38,2.48-8.7,3.6-13.14a7.19,7.19,0,0,1,7-5.44A7.51,7.51,0,0,1,551,136a7.2,7.2,0,0,1,5.22,8.74c-.8,3.16-1.66,6.39-2.57,9.61,3.3.09,6.09.22,7.59.38a7.2,7.2,0,0,1,5.57,3.67,7.14,7.14,0,0,1,1.9-.26,7,7,0,0,1,1.77.22,7.2,7.2,0,0,1,5.2,8.74,172.48,172.48,0,0,1-10.24,28c-4.28,11.26-3.22,16.29-2.51,17.19a2.33,2.33,0,0,0,.36,0,3.47,3.47,0,0,0,.67-.07c3.84-.66,9.37-5.38,12.06-12.82,1.88-5.23,3.86-9.85,5.78-14.33a165.14,165.14,0,0,0,8.34-22.65,7.2,7.2,0,0,1,13.88,3.8,180,180,0,0,1-9,24.47l-.63,1.49A103.49,103.49,0,0,0,590,206c-.2.78-.41,1.58-.62,2.38a77.74,77.74,0,0,0,11.6-8.06c2.79-2.34,12.89-20,9.53-35.64-2.47-11.46-11.89-19.56-28-24.09a7.19,7.19,0,1,1,3.89-13.85c14.88,4.18,33.59,13.63,38.17,34.9,2.52,11.68-.23,23.12-3,30.66-3.46,9.47-8.19,16.38-11.34,19a96.47,96.47,0,0,1-27.67,16.13c-.19.52-.39,1-.58,1.57-2.8,7.55-5.69,15.34-11.35,21.66-2.84,3.17-13.28,12.22-23.61,12.22Zm.26-14.38c3.35,0,10-4.16,13-7.44a32.8,32.8,0,0,0,5-8.08c-5.33,1.67-10.06,3.59-13.93,6.7-1.62,1.3-4,4.81-4.31,7.56a2,2,0,0,0,.14,1.25Zm-310.06-42c-.67,2.87-.35,5.13.84,6.07a2.47,2.47,0,0,0,1.53.51,2.83,2.83,0,0,0,1.29-.32,25.16,25.16,0,0,0,7-5.78c-1-3.64-.87-7.9.35-13a7.18,7.18,0,0,1,7-5.5,7,7,0,0,1,1.7.21,7.5,7.5,0,0,1,1.31.45,43.83,43.83,0,0,0,2.22-8.72c.53-3.86.2-7-.86-8.66-2.21.85-8.13,4.91-13.83,12.44-2.66,6.6-5.36,13.68-8.49,22.24Zm-46.89,6.31a2.28,2.28,0,0,0,.42,0,7.14,7.14,0,0,0,2.16-.44c2.15-.71,4.51-2.57,6.89-5.41a17.39,17.39,0,0,1-.16-11.48,7.19,7.19,0,0,1,9.12-4.51l.1,0c7.08-17,3.57-19.94,3.12-20.23a1.07,1.07,0,0,0-.61-.15c-2.44,0-7.9,4-14.18,12.64-2.75,6.85-5.34,13.42-7.7,19.53-1,6.13.25,9.44.84,10ZM290.35,194a7.46,7.46,0,0,1-.47,2.23c-2.55,6.59-2.61,15-1.56,16.35a1.28,1.28,0,0,0,.69.15c2,0,5.58-2.31,9.24-6a31.85,31.85,0,0,1,0-13,7.2,7.2,0,0,1,7.06-5.84,7.06,7.06,0,0,1,3,.64c1.65-6.19,2.1-12.2,1.05-15.3-.58-1.69-1.25-1.84-1.79-2a5.29,5.29,0,0,0-1.16-.13c-5.87,0-11,11-15.81,22.37Zm107.13-27.08c-.89,2.24-1.8,4.46-2.72,6.71-1.44,3.52-2.93,7.16-4.39,11-.73,1.89-1.43,3.83-2.17,5.89-.46,1.28-.93,2.57-1.41,3.88-3.63,10.66-3.28,16.11-2.68,17.9,1.26-.39,3.89-1.94,6.19-5.67a180.07,180.07,0,0,0,9.82-18.35l.16-.46a7.19,7.19,0,0,1,.92-1.89c2.88-6.34,5.48-12.89,7.77-19.53C404.26,166.7,400.54,166.85,397.48,166.94ZM539.3,195.61c-3.66,10.58-3.37,15.08-3,16.65a14.81,14.81,0,0,0,7.9-6.65c5.12-9.62,11.84-23.43,15.93-36.54l-.38,0c-2-.2-6-.35-10.5-.39C546.39,177.36,543.13,186.2,539.3,195.61ZM515.81,194a9.4,9.4,0,0,1-.22,1l-.06.18c-3.3,10.58-3.67,15.1-3.59,16.88,3.39-.68,6.77-4.71,8.51-8.69,5.37-12.28,9.8-23.52,13.49-34.24-.64.06-1.08.12-1.39.17a7.12,7.12,0,0,1-3.64,1,7.24,7.24,0,0,1-2.67-.51,7.36,7.36,0,0,1-1.41-.76c-1.35,3.53-2.74,7.49-4.2,11.66S517.54,189.39,515.81,194Z"/><path class="cls-1" d="M584.47,128.64a5,5,0,0,1,1.37.19c14.31,4,32.29,13.06,36.65,33.29s-7.57,42.51-13.61,47.58a94.24,94.24,0,0,1-28,16.11c-.31.82-.61,1.65-.93,2.5-2.72,7.35-5.54,14.94-10.93,21-3.39,3.79-13.18,11.51-22,11.51h-.26a12,12,0,0,1-9.26-4.28,13.76,13.76,0,0,1-3-10.42c.65-6.55,5-12.83,8.81-15.88a47.13,47.13,0,0,1,13.4-7.31,12,12,0,0,1-3.28-2.78,13.81,13.81,0,0,1-2.12-3.61c-4.27,4.69-10.27,8.08-15.76,8.08a11.59,11.59,0,0,1-4.66-.94,10.66,10.66,0,0,1-5.69-5.82c-4.66,4.65-10,6.47-14.35,6.47-.33,0-.66,0-1,0a10,10,0,0,1-7.86-4.33,11.25,11.25,0,0,1-.93-1.71c-3.37,3.72-8.26,6.61-13.12,6.61a11.53,11.53,0,0,1-3.48-.53c-3.2-1-8.51-4.35-8.18-15.31.19-6.41,2.45-12.42,4.63-18.23,2.27-6,4.4-11.7,4.35-17.66,0-2.81-1-3-1.52-3.08a3.92,3.92,0,0,0-.71-.06c-3.42,0-10,3.59-14,11.46-2,5.12-4.09,10.32-6.47,15.51-3.88,9.76-7.78,20.14-9.34,24.66a5,5,0,0,1-4.77,3.41,5,5,0,0,1-3.83-1.77,16.42,16.42,0,0,1-7.79,1.9,21.58,21.58,0,0,1-5.07-.64,8.92,8.92,0,0,1-5.94-4.92q-.22-.48-.42-1a25.56,25.56,0,0,1-2.23,2,18.53,18.53,0,0,1-11.32,3.92,16.7,16.7,0,0,1-3-.26,14.5,14.5,0,0,1-9.92-6.76c-.22-.36-.42-.74-.6-1.11-4.3,5.23-9.83,8.27-14.86,8.27a11.15,11.15,0,0,1-5-1.13,11.87,11.87,0,0,1-5.95-7.13c-.65.73-1.32,1.44-2,2.12-4.06,3.87-8.43,5.88-12.47,5.88a11.37,11.37,0,0,1-5.95-1.65c-5.79-3.5-7.9-11.51-5.37-20.42.87-3.08,3-7,5.35-11.19,1.72-3.12,4.43-8,5.19-10.59a62.76,62.76,0,0,0-7.39-2.58l-3.11-1c-3.78,9.51-10.68,25.15-18.49,34.63-2.83,3.43-8.18,5.93-13.59,5.93a15.59,15.59,0,0,1-6.65-1.43c-.4-.19-.78-.4-1.14-.61-6.29,6.29-12.53,9.56-18,9.56a12.88,12.88,0,0,1-8.29-3c-2.65-2.14-4.07-5.32-4.71-8.85a16.4,16.4,0,0,1-10.52,4,16.19,16.19,0,0,1-2.55-.2,20,20,0,0,1-6-1.89,36.93,36.93,0,0,1-10.58,8.62,15.07,15.07,0,0,1-6.84,1.64h0a14.73,14.73,0,0,1-9.08-3.11c-.33-.26-.65-.54-1-.82-3.8,10.58-7.43,20.61-11.31,30.39a5,5,0,1,1-9.37-3.73c3.95-9.94,7.66-20.23,11.56-31.11-.54,0-1.09.08-1.62.08a26.5,26.5,0,0,1-5.64-.67,15,15,0,0,1-4-1.49c-3.49,4.17-7.64,7.59-12.45,9.18a19.29,19.29,0,0,1-6.05,1.06A12.48,12.48,0,0,1,182,222.1a11.94,11.94,0,0,1-1.65-1.75c-4,10.94-7.66,21.77-10.29,31a5.07,5.07,0,0,1-4.85,3.66,4.82,4.82,0,0,1-1.39-.2,5,5,0,0,1-3.46-6.23c7.78-27.25,24.32-67.75,31.38-85.05l.74-1.81a5,5,0,0,1,4.67-3.14,4.92,4.92,0,0,1,1.9.38,5,5,0,0,1,2.63,2.47,18.13,18.13,0,0,1,9.43-3,13.13,13.13,0,0,1,7.29,2.2c13.24,8.68,3.48,30.7.27,37.93a84.19,84.19,0,0,1-4,7.88l.3.08a16.61,16.61,0,0,0,3.5.44c2.9,0,4.78-1.23,6.74-4.12,2.89-7.91,5.88-15.86,9.05-23.71a6.07,6.07,0,0,1,.24-.59c2.32-5.72,4.72-11.39,7.28-16.94a5,5,0,0,1,4.58-2.94,4.9,4.9,0,0,1,2.1.47,5,5,0,0,1,2.72,3.12,19.16,19.16,0,0,1,7.59-2.73c.41,0,.82-.06,1.22-.06a10,10,0,0,1,6.92,2.64c4.67,4.27,6.5,11.19,5.3,20-1,7.6-4.47,16.67-9.37,24.59a13.19,13.19,0,0,0,1.45.3,5.22,5.22,0,0,0,.91.08c2.15,0,5.28-1.31,9.46-8.43a97.16,97.16,0,0,0,4.57-9.89c5.39-12.79,12.61-29.9,26.72-29.9a19,19,0,0,1,4.13.47,14.46,14.46,0,0,1,10.77,10c3.72,11-1.44,28.05-7.43,38a6.25,6.25,0,0,0,1.23.11,8.35,8.35,0,0,0,5.8-2.26c5.22-6.34,11.37-18,17-32.1a13.52,13.52,0,0,1-5.56-5.71,10.47,10.47,0,0,1,0-8.65,11.6,11.6,0,0,1,7.56-7.12,9.49,9.49,0,0,1,2.36-.3,10.89,10.89,0,0,1,6.8,2.57c4.26,3.4,3.59,8.8,1.95,13.71l2.33.73c5.15,1.59,9.6,3,12.35,5.46,5.3,4.82.85,12.89-4.3,22.22-1.84,3.33-3.92,7.1-4.48,9.08-1.42,5-.34,8.29.89,9a1.54,1.54,0,0,0,.79.18c1.19,0,3.14-.88,5.45-3.08,5.53-5.26,8.83-13.09,11.77-21.06.43-1.25.89-2.54,1.4-3.89a.08.08,0,0,0,0,0c.71-2,1.44-4,2.19-6,1.5-3.91,3-7.63,4.5-11.22.53-1.3,1.06-2.59,1.58-3.88-3,.1-6.27.25-10.17.51h-.34a5,5,0,0,1-.32-10.07c6-.4,10.57-.55,14.79-.66,1.6-4.38,3.1-9,4.45-14a5,5,0,0,1,4.87-3.75,5.27,5.27,0,0,1,1.3.17,5,5,0,0,1,3.58,6.18c-1.06,4-2.2,7.66-3.39,11.15,2.6-.1,5.45-.24,8.74-.46h.34a5,5,0,0,1,5,4.71,5.21,5.21,0,0,1-.15,1.58,5.06,5.06,0,0,1,3.62-1.54,5.15,5.15,0,0,1,1.54.24,5,5,0,0,1,3.26,6.34,237.62,237.62,0,0,1-10.66,27.31c-.3.86-.63,1.77-1,2.73-1.72,4.7-4.93,13.46-3,16.67a4.36,4.36,0,0,0,3.12,2.09,6.48,6.48,0,0,0,1.18.1A8.53,8.53,0,0,0,417,212.6c4.43-3.46,8.25-10.41,11.59-18.31.64-1.67,1.17-2.89,1.41-3.44,2.07-5.23,3.95-10.7,5.68-15.73,1.55-4.51,3-8.76,4.49-12.56a5,5,0,0,1,4.7-3.21,5.11,5.11,0,0,1,1.83.34,5,5,0,0,1,2.87,6.53c-1.4,3.61-2.83,7.77-4.35,12.18-2.31,6.73-4.76,13.83-7.58,20.41-2.64,7.18-3.54,13.84-2.85,16a10.05,10.05,0,0,0,2,.22c3.57,0,5.71-2.3,8.22-6.4A151.88,151.88,0,0,0,453.28,193c1.8-4.51,3.6-8.92,5.2-12.64.42-1.07.88-2.11,1.37-3.1,1.87-4.92,3.61-9.76,5.27-14.41l.95-2.66a5,5,0,0,1,4.74-3.34,4.89,4.89,0,0,1,1.71.3,5,5,0,0,1,3.32,4.33,19.26,19.26,0,0,1,7.34-1.59,13.14,13.14,0,0,1,2.37.21c7.18,1.28,9.79,7.51,9.84,12.92.07,7.84-2.51,14.69-5,21.3-2,5.27-3.85,10.25-4,15-.11,3.72.74,5.26,1.15,5.39a1.61,1.61,0,0,0,.42.05c1.47,0,4.64-1.51,6.67-4.59,5.67-8.59,10.33-21.89,14.44-33.63,1.77-5.05,3.44-9.82,5.11-14a5,5,0,0,1,4.69-3.17,4.88,4.88,0,0,1,1.86.36,5,5,0,0,1,2.82,6.55c-1.59,4-3.22,8.65-5,13.6-1.54,4.39-3.16,9-4.89,13.55a4.3,4.3,0,0,1-.18.85l0,.18c-4.68,15-3.84,18.78-3.18,19.72a1.2,1.2,0,0,0,.25,0l.41,0c4.84,0,9.3-5.14,11.46-10.08,5.89-13.47,10.64-25.65,14.59-37.46a38,38,0,0,0-5.26.49,5.09,5.09,0,0,1-2.84.87,4.93,4.93,0,0,1-1.87-.36,5,5,0,0,1-2.81-6.56c1.36-3.39,4.5-4.39,16-4.64,1.47-4.9,2.82-9.79,4.06-14.73a5.06,5.06,0,0,1,4.89-3.81,4.85,4.85,0,0,1,1.24.16,5,5,0,0,1,3.65,6.12q-1.55,6.15-3.32,12.23c4.5.08,8.41.24,10.21.43a5,5,0,0,1,4.52,4.55,5,5,0,0,1,3.17-1.13,4.8,4.8,0,0,1,1.24.16,5,5,0,0,1,3.65,6.13,172.29,172.29,0,0,1-10.15,27.74c-4.23,11.11-3.81,17.38-2.17,19.39a2.33,2.33,0,0,0,2,.8,5.84,5.84,0,0,0,1-.1c4.55-.78,10.73-5.92,13.72-14.21,1.87-5.18,3.84-9.79,5.75-14.25a165.92,165.92,0,0,0,8.42-22.89,5.06,5.06,0,0,1,4.86-3.72,4.82,4.82,0,0,1,1.34.19,5,5,0,0,1,3.53,6.19,176.06,176.06,0,0,1-8.88,24.2l-.63,1.49a106.35,106.35,0,0,0-4.45,14.07c-.59,2.3-1.2,4.64-2,7.2A82,82,0,0,0,602.39,202c3.08-2.59,13.85-21,10.24-37.74C610,152,600.05,143.3,583.11,138.54a5,5,0,0,1,1.36-9.9m-243.21,34.8a12.68,12.68,0,0,0,.42-1.78,3.67,3.67,0,0,0-.49.87,1.92,1.92,0,0,0-.16.56,1.61,1.61,0,0,0,.23.35m42.3,51.11c1.67,0,5.51-1.84,8.57-6.8a182.26,182.26,0,0,0,10-18.68c.07-.21.15-.42.21-.61a4.92,4.92,0,0,1,.75-1.46,229.36,229.36,0,0,0,9.38-24.28,5,5,0,0,1-3.26,1.5c-5.26.35-9.41.51-13.2.62-1.05,2.67-2.13,5.31-3.23,8-1.45,3.54-2.95,7.2-4.41,11-.73,1.9-1.44,3.86-2.18,5.93l-1.4,3.86C379.62,208.77,382,214,383,214.44a1.28,1.28,0,0,0,.57.11m176.92-47.62-.51,0c-2.3-.23-7.17-.39-12.28-.41-3,9.16-6.38,18.47-10.4,28.37-5.73,16.52-2.38,19.52-2.35,19.53a1.65,1.65,0,0,0,.7.13c2.41,0,7.87-3.05,10.46-7.9,5.73-10.76,13.22-26.31,17.14-40.52a5.06,5.06,0,0,1-2.76.83m-370,48.13a9.48,9.48,0,0,0,2.84-.55c2.84-.94,5.8-3.39,8.68-7.08a15.29,15.29,0,0,1-.59-11.16,5,5,0,0,1,6.39-3.16,5.14,5.14,0,0,1,1.81,1.07c8.09-18.38,5.54-23.62,3.28-25.09a3.18,3.18,0,0,0-1.79-.51c-3.79,0-9.89,5.14-16.08,13.75-2.42,6-5.12,12.84-7.88,20-1.07,6.19-.07,10.79,1.51,12.17a2.72,2.72,0,0,0,1.83.56M289,214.9c3.14,0,7.68-3.34,11.65-7.49-1.54-4.9-.9-10.3-.34-13.24a5,5,0,0,1,4.95-4.09,5.17,5.17,0,0,1,1,.09,5,5,0,0,1,3.19,2.07c2.47-7.52,3.34-15.52,1.93-19.66-.85-2.51-2.18-3.11-3.36-3.37a7.66,7.66,0,0,0-1.62-.18c-7.16,0-12.33,10.74-17.79,23.68l-.36.85a5.11,5.11,0,0,1-.34,1.91c-2.63,6.81-3.16,17-1,18.74a3.28,3.28,0,0,0,2.11.69m-49.7.39a5,5,0,0,0,2.26-.55,28.61,28.61,0,0,0,8.39-7.2c-1.23-3.48-1.22-7.76,0-13a5,5,0,0,1,4.9-3.86,4.91,4.91,0,0,1,1.19.15,5,5,0,0,1,2.79,1.8,48.4,48.4,0,0,0,3.38-11.87c.73-5.34,0-9.32-2.11-11.23a1.19,1.19,0,0,0-.29,0c-2.26,0-9.7,4.86-16.31,13.69-3,7.51-5.9,15.13-8.68,22.74v0s0,.07,0,.1c-.88,3.75-.29,6.75,1.6,8.24a4.64,4.64,0,0,0,2.86,1M547.06,250.7c4.32,0,11.56-4.89,14.49-8.16,3.08-3.44,5.24-8.06,7.14-12.88-7.07,2-13.71,4.11-19,8.4-1.92,1.54-4.76,5.54-5.1,9a3.68,3.68,0,0,0,.72,3,1.92,1.92,0,0,0,1.69.65h.09m37.41-126.36a9.37,9.37,0,0,0-9,6.82A9.34,9.34,0,0,0,582,142.68c15.28,4.3,24.19,11.86,26.48,22.47,3.29,15.26-6.91,31.82-8.82,33.55a74,74,0,0,1-6.77,5.06,91.47,91.47,0,0,1,3.52-10.71l.27-.64.35-.8a180.28,180.28,0,0,0,9.07-24.75,9.34,9.34,0,1,0-18-4.94,163.1,163.1,0,0,1-8.22,22.32c-1.95,4.55-3.95,9.21-5.85,14.5-2.32,6.41-6.68,10.18-9.55,11.2-.19-2.05.16-6.53,3-14a174,174,0,0,0,10.35-28.34A9.35,9.35,0,0,0,568.67,156a6.94,6.94,0,0,0-.91,0,9.35,9.35,0,0,0-6.34-3.45c-1.11-.11-2.87-.22-5-.3.65-2.35,1.27-4.7,1.85-7a9.34,9.34,0,1,0-18.12-4.57c-1,3.92-2,7.73-3.13,11.57-6.55.24-11.32.9-14.3,3.61l-.38-.16a9.35,9.35,0,0,0-12.13,5.22c-1.7,4.25-3.37,9-5.15,14.1l0,.07c-4,11.5-8.6,24.53-14,32.69-.08.13-.17.25-.26.37.4-3.73,2-7.92,3.63-12.33,2.51-6.67,5.34-14.22,5.27-22.86-.08-9-5.34-15.68-13.38-17.12a18.88,18.88,0,0,0-3.13-.27,22,22,0,0,0-5,.6A9.34,9.34,0,0,0,462,158.73l-.95,2.66c-1.56,4.35-3.32,9.28-5.17,14.14-.51,1.05-1,2.12-1.4,3.19-1.49,3.46-3.23,7.69-5.17,12.57a147.27,147.27,0,0,1-8,15.11,21.51,21.51,0,0,1-2.18,3.08,50.88,50.88,0,0,1,2.45-9.08c2.87-6.72,5.3-13.78,7.65-20.61,1.5-4.36,2.91-8.48,4.29-12a9.36,9.36,0,0,0-5.32-12.1,9.39,9.39,0,0,0-3.39-.63,9.27,9.27,0,0,0-8.71,5.95c-1.5,3.86-3,8.14-4.53,12.67v.05c-1.67,4.84-3.55,10.32-5.59,15.47-.28.63-.8,1.85-1.43,3.5-3.58,8.45-7,14-10.25,16.53a4.3,4.3,0,0,1-2.47.86,2.54,2.54,0,0,1-.41,0l-.16,0c-.24-.95-.06-3.9,3.28-13,.33-.91.64-1.77.93-2.59a240.57,240.57,0,0,0,10.76-27.61,9.35,9.35,0,0,0-6-11.75,9.23,9.23,0,0,0-2.85-.45H417a9.35,9.35,0,0,0-8.13-4.76c-.21,0-.41,0-.62,0l-2.46.15c.54-1.81,1.06-3.62,1.54-5.45a9.36,9.36,0,0,0-9-11.75,9.36,9.36,0,0,0-9,6.94c-1,3.66-2.06,7.19-3.36,11-3.43.1-7.3.26-12,.58a9.34,9.34,0,0,0,.61,18.66c.21,0,.42,0,.63,0l3.36-.2c-1.18,2.88-2.38,5.85-3.57,9-.76,2-1.48,4-2.18,5.91l0,.09c-.48,1.26-1,2.56-1.45,4-2.53,6.88-5.65,14.6-10.68,19.39-.16.16-.33.31-.48.44a13.79,13.79,0,0,1,.46-2.29c.42-1.5,2.64-5.52,4.1-8.17,5.53-10,11.24-20.37,3.43-27.48-3.13-2.85-7.41-4.35-12.38-5.9,1.11-6.16-.38-10.92-4.45-14.18a15.13,15.13,0,0,0-9.49-3.51,13.67,13.67,0,0,0-3.43.44,15.8,15.8,0,0,0-10.46,9.64,14.86,14.86,0,0,0,.12,12.12,16.11,16.11,0,0,0,4.2,5.4c-2.41,5.84-4.9,11.17-7.33,15.75,1.83-7.55,2.37-15.62.09-22.35a18.85,18.85,0,0,0-13.92-12.82,24,24,0,0,0-5.05-.56c-16.21,0-24.17,17.16-29.89,30.66.16-.86.3-1.7.41-2.53,1.76-13-2.64-20.1-6.65-23.77a14.3,14.3,0,0,0-9.83-3.77,15.34,15.34,0,0,0-1.65.09,20.07,20.07,0,0,0-5.75,1.5,9.12,9.12,0,0,0-2.33-1.53,9.27,9.27,0,0,0-3.9-.86,9.37,9.37,0,0,0-8.49,5.45c-2.35,5.1-4.74,10.66-7.31,17-.12.27-.23.55-.33.82-.45,1.12-.9,2.24-1.35,3.39l0-.21c2.18-13.78-3.25-20.54-8.19-23.78a17.61,17.61,0,0,0-9.65-2.9,20.68,20.68,0,0,0-8.47,1.92,9.22,9.22,0,0,0-5.49-1.79,9.29,9.29,0,0,0-8.65,5.82l-.74,1.81c-7.1,17.37-23.69,58-31.54,85.49a9.34,9.34,0,1,0,18,5.13c2-6.91,4.71-15.31,8.16-25a17.22,17.22,0,0,0,8.06,1.93,23.57,23.57,0,0,0,7.4-1.28,30.44,30.44,0,0,0,12.24-8.1,16.59,16.59,0,0,0,1.92.53c.74.16,1.46.3,2.16.41-3.08,8.53-6.25,17.2-9.55,25.5A9.35,9.35,0,0,0,222,253.42c3.22-8.11,6.19-16.18,9.52-25.42a19.25,19.25,0,0,0,7.83,1.67,19.46,19.46,0,0,0,8.79-2.11,38.41,38.41,0,0,0,9.74-7.34,27.18,27.18,0,0,0,4.27,1,20.73,20.73,0,0,0,3.22.25,19.59,19.59,0,0,0,8.11-1.75,16.27,16.27,0,0,0,4.42,5.65,17.11,17.11,0,0,0,11,3.92c6,0,12.5-3,18.88-8.72a20.28,20.28,0,0,0,7,1.2c6.52,0,13.16-3,16.91-7.5,7.06-8.56,13.29-21.55,17.67-32.07l2.28.72c-1.06,2.11-2.37,4.48-3.23,6.05-2.43,4.41-4.72,8.55-5.73,12.11-3.08,10.82-.21,20.74,7.29,25.27a15.59,15.59,0,0,0,8.17,2.27c4.56,0,9.18-1.84,13.49-5.35a15.31,15.31,0,0,0,12,5.61c4.92,0,10-2.1,14.35-5.9a18.81,18.81,0,0,0,10.27,5.43,21.17,21.17,0,0,0,3.75.33A22.73,22.73,0,0,0,424.39,225a12.9,12.9,0,0,0,6.37,3.68,25.66,25.66,0,0,0,6.09.77,20.93,20.93,0,0,0,7.2-1.25,8.66,8.66,0,0,0,1.39.62,9.48,9.48,0,0,0,3,.5,9.35,9.35,0,0,0,8.84-6.31c1.42-4.14,5.13-14.08,9.22-24.37,2.15-4.67,4.26-9.73,6.45-15.44a18.89,18.89,0,0,1,8-8.26c-.35,4.6-2.14,9.34-4,14.33-2.31,6.14-4.69,12.48-4.91,19.61-.43,14.31,7.68,18.43,11.18,19.54a16,16,0,0,0,4.78.73,21.3,21.3,0,0,0,12.44-4.5,14.47,14.47,0,0,0,9.19,3.92c.4,0,.83,0,1.26,0a23.92,23.92,0,0,0,13.41-4.41,15,15,0,0,0,4.9,3.4,15.94,15.94,0,0,0,6.39,1.3,18.44,18.44,0,0,0,3.12-.27c-4,4-7.78,10.31-8.45,17a18,18,0,0,0,4,13.6,16.34,16.34,0,0,0,12.48,5.82h.34c11.12,0,22.21-9.58,25.21-12.94,5.93-6.62,8.9-14.61,11.76-22.33.08-.23.17-.45.25-.68A98.15,98.15,0,0,0,611.64,213c7.54-6.33,19.68-30.35,15.05-51.79C624,148.89,615,132.56,587,124.69a9.36,9.36,0,0,0-2.53-.35ZM399,169.05q3-.11,6.91-.31c-2,5.47-4.17,10.87-6.54,16.13a8.92,8.92,0,0,0-1.09,2.29c0,.1-.07.2-.1.31a179.71,179.71,0,0,1-9.66,18,14.67,14.67,0,0,1-2.57,3.16c.05-2.54.64-6.84,2.93-13.57.48-1.29.94-2.58,1.39-3.84.74-2.05,1.43-4,2.15-5.85,1.44-3.76,2.93-7.39,4.37-10.9.7-1.71,1.45-3.56,2.21-5.44Zm142.36,27.32c3.62-8.9,6.73-17.29,9.48-25.55,2.46,0,4.72.11,6.45.2-4.08,12.16-10.19,24.67-14.94,33.57a12.64,12.64,0,0,1-4,4.3,51.17,51.17,0,0,1,3-12.52Zm-23.42-1.84c1.72-4.55,3.34-9.16,4.77-13.25,1.16-3.31,2.27-6.49,3.35-9.41a9.21,9.21,0,0,0,2.9.46,8.93,8.93,0,0,0,1.64-.14c-3.39,9.5-7.36,19.45-12.07,30.22a17.27,17.27,0,0,1-4.07,5.78,94.79,94.79,0,0,1,3.17-12.47l.06-.17c.1-.34.18-.67.25-1ZM198.8,184.42c6-8.3,10.26-10.89,11.79-11.42.35,1.15.84,5.13-3.31,15.61a8.23,8.23,0,0,0-1.1-.07,9.35,9.35,0,0,0-8.86,6.35,19.44,19.44,0,0,0-.22,11.67,13.38,13.38,0,0,1-5.14,3.87c-.24.08-.44.14-.61.18a18.27,18.27,0,0,1,0-7.14c2.32-6,4.78-12.26,7.5-19.05Zm93.67,10.11.06-.15c2.89-6.83,8.89-21,13.83-21a.64.64,0,0,1,.91.64c.69,2,.62,6.53-.57,11.92a8.53,8.53,0,0,0-1.43-.11,9.35,9.35,0,0,0-9.17,7.58,35,35,0,0,0-.2,12.72,21.43,21.43,0,0,1-6,4.28,32.58,32.58,0,0,1,2-13.34,9.32,9.32,0,0,0,.59-2.49Zm-45.14-9.18a46.39,46.39,0,0,1,10.74-10.41,18.35,18.35,0,0,1-.07,5.27,39.57,39.57,0,0,1-1.46,6.35,9,9,0,0,0-1.64-.15,9.32,9.32,0,0,0-9.08,7.15,29.47,29.47,0,0,0-.62,12.87,21.48,21.48,0,0,1-5.58,4.48.78.78,0,0,1-.31.08.35.35,0,0,1-.2-.05c-.21-.17-.64-1.42-.09-3.81,3.06-8.36,5.71-15.31,8.31-21.78Zm302,60.5a12.72,12.72,0,0,1,3.07-4.45,31,31,0,0,1,8.09-4.53,21.58,21.58,0,0,1-2.11,2.8,28.14,28.14,0,0,1-9.05,6.18Z"/><path d="M522.33,157.72a10.78,10.78,0,0,1-4.25-.88,10.52,10.52,0,0,1-6.12-6.78A7.24,7.24,0,0,1,515,142a9.74,9.74,0,0,1,5.25-1.51,10.5,10.5,0,0,1,8.68,4.65,7.23,7.23,0,0,1,1.18,1.62,7.19,7.19,0,0,1-2.94,9.74A10.4,10.4,0,0,1,522.33,157.72Z"/><path class="cls-1" d="M520.28,142.64a8.37,8.37,0,0,1,3.4.74,8.2,8.2,0,0,1,3.6,3.12,5,5,0,0,1,1,1.28,5,5,0,0,1-2.06,6.82,8.18,8.18,0,0,1-3.86,1,8.76,8.76,0,0,1-3.42-.7,8.39,8.39,0,0,1-4.88-5.39,5,5,0,0,1,2.15-5.65,7.64,7.64,0,0,1,4.1-1.18m0-4.3a11.88,11.88,0,0,0-6.4,1.85,9.39,9.39,0,0,0-4,10.47,12.72,12.72,0,0,0,7.35,8.17,13.19,13.19,0,0,0,5.09,1,12.42,12.42,0,0,0,5.89-1.47A9.34,9.34,0,0,0,532,145.74a9.53,9.53,0,0,0-1.39-1.94,12.67,12.67,0,0,0-10.37-5.46Z"/></svg>