<svg xmlns="http://www.w3.org/2000/svg" width="650" height="261" viewBox="0 0 650 261">
    <g fill="none" fill-rule="nonzero">
        <path fill="#E8E6E5" stroke="#000" stroke-linecap="round" stroke-linejoin="round" stroke-width="4" d="M29 15.057A565.077 565.077 0 0 1 55.506 10.5C73.17 7.948 82 15.231 82 31.097c0 8.249-2.233 14.59-6.698 19.11-4.466 4.522-10.965 7.296-19.484 8.547a547.915 547.915 0 0 0-13.197 2.093v25.676c-4.54.776-9.08 1.602-13.621 2.477V15.057zm25.221 32.624c4.69-.693 8.183-2.217 10.49-4.644 2.308-2.428 3.456-5.785 3.456-10.157s-1.173-7.431-3.518-9.227c-2.345-1.796-5.925-2.329-10.74-1.61-3.741.57-7.483 1.238-11.226 1.808v25.676a569.26 569.26 0 0 1 11.538-1.846zM115.74 74.853a31.486 31.486 0 0 1-13.017-12.756 39.826 39.826 0 0 1-4.71-19.817 43.749 43.749 0 0 1 4.71-20.435 35.953 35.953 0 0 1 31.785-19.817 35.02 35.02 0 0 1 18.78 4.583 33.763 33.763 0 0 1 13.004 13.624 42.153 42.153 0 0 1 4.699 20.188 41.336 41.336 0 0 1-4.711 20.064 33.937 33.937 0 0 1-13.004 13.437 38.754 38.754 0 0 1-18.78 5.041 37.503 37.503 0 0 1-18.756-4.112zm35.33-16.187c3.842-4.657 5.764-10.783 5.764-18.38 0-7.596-1.922-13.743-5.765-18.441-3.855-4.632-9.371-6.924-16.561-6.75-7.19.173-12.707 2.725-16.55 7.555-3.842 4.83-5.764 11.072-5.764 18.677 0 7.604 1.922 13.623 5.765 18.107 3.842 4.483 9.359 6.564 16.549 6.39 7.19-.173 12.706-2.489 16.561-7.158zM193 4c9.072.373 18.144.85 27.216 1.431 7.939.498 14.207 2.85 18.768 6.97 4.56 4.12 6.866 9.957 6.866 17.425 0 5.177-1.096 9.31-3.302 12.446a20.932 20.932 0 0 1-9.359 7.219A8406.058 8406.058 0 0 1 250 82c-5.068-.407-10.14-.797-15.216-1.17-4.785-9.55-9.57-19.092-14.356-28.626h-.523c-4.436-.274-8.86-.523-13.297-.76v27.544A933.093 933.093 0 0 0 193 78.341V4zm23.553 36.567c9.97.61 14.954-3.05 14.954-11.127a12.002 12.002 0 0 0-3.402-9.098c-2.268-2.178-5.957-3.435-11.054-3.734-3.514-.212-7.016-.41-10.53-.585v23.984c3.415.174 6.754.36 10.032.56zM283.79 23.983A3678.76 3678.76 0 0 0 263 22.068V9c18.33 1.618 36.67 3.446 55 5.324v13.068l-20.753-2.1V86l-13.433-1.31-.024-60.707z"/>
        <path fill="#000" d="M338 19.253a2.2 2.2 0 0 1 .725-1.69 2.188 2.188 0 0 1 1.752-.544l8.604.868a2.815 2.815 0 0 1 2.476 2.73v57.089a2.802 2.802 0 0 0 2.476 2.73l25.49 2.482A2.777 2.777 0 0 1 382 85.636v7.111a2.2 2.2 0 0 1-.724 1.69 2.188 2.188 0 0 1-1.752.544l-39.01-3.822a2.802 2.802 0 0 1-2.475-2.73L338 19.253zM441.221 83.898a3.998 3.998 0 0 0-3.268-2.475L415.956 79.9a3.466 3.466 0 0 0-3.293 2.104l-4.444 12.375a3.429 3.429 0 0 1-3.305 2.129l-8.17-.693a1.795 1.795 0 0 1-1.61-2.475l24.585-67.185A3.479 3.479 0 0 1 423.037 24l7.835.545a4.097 4.097 0 0 1 3.293 2.475l24.671 70.724a1.559 1.559 0 0 1-1.609 2.24l-8.158-.408a3.949 3.949 0 0 1-3.268-2.475l-4.58-13.204zm-7.514-14.603a1.535 1.535 0 0 0 1.671-2.178l-7.6-22.276c-.434-1.237-1.238-1.237-1.634 0L418.53 65.88a1.782 1.782 0 0 0 1.634 2.475l13.542.94zM478 29.708c0-1.358 1.1-2.46 2.459-2.46l8.298.173a5.2 5.2 0 0 1 3.81 2.09l28.644 43.134c.75 1.132 1.365.947 1.365-.405V29.83a2.557 2.557 0 0 1 2.458-2.532l8.507-.295a2.348 2.348 0 0 1 2.459 2.36V97.84a2.582 2.582 0 0 1-2.459 2.557l-6.146.222a4.917 4.917 0 0 1-3.774-1.93l-30.832-46.05c-.75-1.13-1.365-.946-1.365.407V98.54c0 1.358-1.1 2.459-2.458 2.459l-8.507-.172a2.52 2.52 0 0 1-2.459-2.46v-68.66zM564 27.576a2.775 2.775 0 0 1 2.47-2.717l22.698-2.482a64.68 64.68 0 0 1 4.94-.36s10.83-.31 16.338 1.75a24.983 24.983 0 0 1 12.918 10.51c3.087 4.965 4.631 11.27 4.631 18.902a45.594 45.594 0 0 1-4.63 20.7 40.266 40.266 0 0 1-12.919 15.115c-5.507 3.872-16.412 6.615-16.412 6.615a46.107 46.107 0 0 1-4.841.894l-22.698 2.482a2.204 2.204 0 0 1-1.743-.56 2.227 2.227 0 0 1-.727-1.687L564 27.576zm25.156 56.926a33.523 33.523 0 0 0 4.804-1.055s10.028-3.202 13.708-8.203c3.68-5.001 5.508-11.455 5.508-19.286 0-7.83-1.84-13.65-5.533-17.46-3.692-3.81-13.584-4.195-13.584-4.195a38.22 38.22 0 0 0-4.94.21l-9.213 1.093a2.837 2.837 0 0 0-2.47 2.755v45.024c-.017.64.248 1.256.724 1.682a2.154 2.154 0 0 0 1.746.527l9.25-1.092zM7.213 153.893a13.834 13.834 0 0 1-5.366-5.735 18.937 18.937 0 0 1 0-16.316 13.834 13.834 0 0 1 5.366-5.735 15.732 15.732 0 0 1 8.28-2.102 15.822 15.822 0 0 1 8.269 2.102 13.972 13.972 0 0 1 5.39 5.735 18.937 18.937 0 0 1 0 16.316 13.972 13.972 0 0 1-5.39 5.735 15.822 15.822 0 0 1-8.268 2.102 15.732 15.732 0 0 1-8.281-2.102zm15.405-5.797A11.904 11.904 0 0 0 25.132 140a11.904 11.904 0 0 0-2.514-8.096 8.945 8.945 0 0 0-7.112-2.88 8.983 8.983 0 0 0-7.112 2.88A11.965 11.965 0 0 0 5.881 140a11.965 11.965 0 0 0 2.513 8.096 8.983 8.983 0 0 0 7.112 2.88 8.945 8.945 0 0 0 7.112-2.88zM39.243 122.699H34l.742-4.337h4.5v-7.293a9.439 9.439 0 0 1 2.202-6.59 8.13 8.13 0 0 1 6.326-2.464c1.657-.037 3.307.239 4.865.813l-.864 4.755a8.756 8.756 0 0 0-3.09-.567c-2.554 0-3.83 1.462-3.83 4.386v6.96H53v4.374h-8.15V149h-5.607v-26.301zM565.369 257.975a14.755 14.755 0 0 1-11.423-5.344 16.56 16.56 0 0 1-3.713-12.541 28.482 28.482 0 0 1 10.012-18.022 46.979 46.979 0 0 1 10.582-6.332c-.174-.185-.334-.37-.495-.568a14.641 14.641 0 0 1-.904-1.234c-4.764 4.196-10.532 6.702-15.643 6.702a14.426 14.426 0 0 1-5.804-1.172 13.249 13.249 0 0 1-5.507-4.358 23.253 23.253 0 0 1-14.146 5.308h-1.237a12.734 12.734 0 0 1-9.406-4.74 20.585 20.585 0 0 1-13.044 5.332 14.552 14.552 0 0 1-4.332-.654c-3.193-1.012-10.569-4.801-10.173-18.182.223-7.023 2.624-13.392 4.95-19.564 2.253-5.974 4.37-11.615 4.32-17.281v-.79c-2.475.185-8.28 3.21-11.943 10.196-2.277 5.937-4.48 11.195-6.707 16.046-4.245 10.64-8.107 20.984-9.58 25.23a7.696 7.696 0 0 1-7.202 5.148 7.79 7.79 0 0 1-2.475-.42 7.916 7.916 0 0 1-1.881-.95 19.574 19.574 0 0 1-7.624 1.493 24.813 24.813 0 0 1-5.816-.728 11.448 11.448 0 0 1-6.696-4.555h-.062a21.57 21.57 0 0 1-13.205 4.567 19.728 19.728 0 0 1-3.527-.32 17.445 17.445 0 0 1-10.791-6.469c-4.48 4.382-9.901 6.925-14.963 6.925a14.015 14.015 0 0 1-6.188-1.42 14.267 14.267 0 0 1-5.742-5.307c-4.542 4.234-9.48 6.455-14.282 6.455a14.21 14.21 0 0 1-7.425-2.049c-6.968-4.196-9.58-13.578-6.658-23.81.99-3.444 3.291-7.616 5.742-12.035 1.237-2.136 3.156-5.703 4.331-8.332-1.62-.58-3.576-1.234-5.148-1.667l-1.052-.333c-4.48 10.974-11.138 25.095-18.564 34.167a21.25 21.25 0 0 1-15.94 7.011c-2.61.02-5.195-.51-7.586-1.555-6.51 6.085-13.081 9.295-19.083 9.295a15.718 15.718 0 0 1-10.1-3.605 15.33 15.33 0 0 1-4.801-6.999 18.477 18.477 0 0 1-9.368 2.556c-1.012 0-2.021-.078-3.02-.235a25.423 25.423 0 0 1-5.235-1.395 38.92 38.92 0 0 1-10.42 8.085 18.206 18.206 0 0 1-8.169 1.95c-3.23.002-6.4-.873-9.17-2.53-3.713 10.381-7.017 19.28-10.569 28.205a7.648 7.648 0 0 1-7.14 4.839 7.753 7.753 0 0 1-2.835-.543 7.652 7.652 0 0 1-4.22-4.085 7.622 7.622 0 0 1-.074-5.864c3.712-9.332 7.264-19.083 10.705-28.637a32.256 32.256 0 0 1-4.493-.667 17.67 17.67 0 0 1-2.945-.913 30.47 30.47 0 0 1-12.698 8.764 22.689 22.689 0 0 1-7.03 1.234 15.56 15.56 0 0 1-9.343-2.975c-3.96 10.998-7.066 20.466-9.27 28.156a7.707 7.707 0 0 1-7.425 5.554 7.692 7.692 0 0 1-6.157-3.032 7.65 7.65 0 0 1-1.268-6.731c8.007-28.131 25.098-69.852 32.362-87.726l.78-1.913a7.66 7.66 0 0 1 7.116-4.765 7.566 7.566 0 0 1 2.896.568 7.675 7.675 0 0 1 2.475 1.617 19.842 19.842 0 0 1 9.01-2.32c3.171.01 6.269.959 8.898 2.728 15.408 10.084 4.703 34.191 1.238 42.103a221.6 221.6 0 0 1-2.475 5.185c1.732 0 3.02-.47 4.74-2.913 3.403-9.295 6.336-16.973 9.232-24.12.087-.257.19-.508.31-.753 2.648-6.517 5.098-12.232 7.524-17.466a7.64 7.64 0 0 1 4.316-3.956 7.667 7.667 0 0 1 5.857.253 7.497 7.497 0 0 1 2.76 2.148 20.274 20.274 0 0 1 6.608-1.95c.495 0 .99-.074 1.473-.074a12.853 12.853 0 0 1 8.836 3.357c5.445 4.937 7.599 12.837 6.188 22.774a68.03 68.03 0 0 1-7.673 22.218c2.067-1.234 4.109-4.234 5.619-6.789a98.367 98.367 0 0 0 4.554-9.875c2.995-7.06 6.374-15.046 11.064-21.304 5.47-7.27 11.844-10.961 18.96-10.961 1.56.006 3.116.176 4.64.506a17.308 17.308 0 0 1 12.921 11.911c3.49 10.245 0 25.477-5.433 36.636.288-.148.551-.34.78-.568 6.744-8.172 13.254-22.922 16.36-30.526a15.169 15.169 0 0 1-4.95-5.776 13.065 13.065 0 0 1-.099-10.887 14.403 14.403 0 0 1 9.48-8.777 12.033 12.033 0 0 1 3.168-.53c3.135.05 6.157 1.17 8.564 3.172 5.297 4.221 4.555 10.566 3.552 14.417 5.656 1.74 10.482 3.234 13.725 6.172 6.918 6.283 1.646 15.812-3.936 25.921a66.585 66.585 0 0 0-4.405 8.826 10.146 10.146 0 0 0-.236 6.246 10.273 10.273 0 0 0 3.515-2.395c5.483-5.221 8.787-13.368 11.46-20.589.47-1.37.99-2.802 1.522-4.184v-.112c.73-2.012 1.486-4.073 2.24-6.06 1.572-4.061 3.144-7.9 4.666-11.603l.173-.444c-2.178.098-4.331.222-6.584.37h-.507c-4.042-.01-7.388-3.137-7.66-7.16-.276-4.218 2.924-7.862 7.153-8.146 5.457-.358 9.826-.53 13.687-.63a162.52 162.52 0 0 0 3.948-12.689 7.694 7.694 0 0 1 7.426-5.678 8.362 8.362 0 0 1 1.98.247 7.67 7.67 0 0 1 4.667 3.567 7.636 7.636 0 0 1 .766 5.814 158.53 158.53 0 0 1-2.413 8.22c1.782-.085 3.564-.197 5.383-.308h.507a7.71 7.71 0 0 1 7.228 5.061 7.27 7.27 0 0 1 1.56-.16c.788.001 1.573.122 2.326.358 4.029 1.307 6.241 5.615 4.95 9.64a245.79 245.79 0 0 1-11.002 28.279c-.297.864-.631 1.777-.978 2.728-3.106 8.443-4.207 13.504-3.28 15.022.332.558.903.931 1.548 1.012.26.02.52.02.78 0a6.372 6.372 0 0 0 3.712-1.308c3.639-2.84 7.314-8.64 11.138-17.861.656-1.691 1.238-2.975 1.486-3.592 2.079-5.271 4.046-10.961 5.779-15.985 1.597-4.654 3.119-9.06 4.666-13.023a7.686 7.686 0 0 1 13.141-2.013 7.64 7.64 0 0 1 1.165 7.568c-1.435 3.703-2.896 7.937-4.443 12.442-2.475 7.048-4.95 14.331-7.908 21.219a45.57 45.57 0 0 0-2.97 13.232c2.24-.062 3.713-1.395 6.188-5.406a148.162 148.162 0 0 0 8.366-15.8c2.03-5.086 3.836-9.468 5.383-13.035a45.34 45.34 0 0 1 1.399-3.172 536.71 536.71 0 0 0 5.383-14.664l.978-2.753a7.67 7.67 0 0 1 6.664-5.057 7.677 7.677 0 0 1 7.333 4.033c1.942-.59 3.96-.898 5.99-.914a15.67 15.67 0 0 1 2.883.247c8.911 1.58 12.141 9.455 12.19 15.701.087 8.53-2.66 15.787-5.296 22.81-1.98 5.234-3.837 10.172-3.973 14.64-.043.92.007 1.843.149 2.753a9.202 9.202 0 0 0 3.96-3.259c5.68-8.64 10.445-22.132 14.64-34.068 1.832-5.221 3.565-10.159 5.31-14.504a7.623 7.623 0 0 1 7.128-4.826c.975.001 1.94.185 2.847.543a7.258 7.258 0 0 1 1.497.803c2.34-3.136 6.807-3.987 15.854-4.271 1.311-4.432 2.475-8.801 3.65-13.331a7.67 7.67 0 0 1 7.426-5.79 7.444 7.444 0 0 1 1.881.235c4.114 1.037 6.607 5.203 5.57 9.307a346.09 346.09 0 0 1-2.575 9.579c3.28.098 6.027.234 7.537.382a7.687 7.687 0 0 1 5.841 3.703 7.63 7.63 0 0 1 1.844-.234 7.444 7.444 0 0 1 1.881.247c4.11 1.042 6.596 5.207 5.557 9.307a177.362 177.362 0 0 1-10.594 28.908c-4.245 11.11-3.378 16.257-2.673 17.281h.235c.216-.005.431-.025.644-.062 5.21-.9 10.198-7.406 12.24-13.047 1.955-5.394 4.01-10.17 5.99-14.812a167.875 167.875 0 0 0 8.576-23.255 7.695 7.695 0 0 1 7.425-5.629 7.68 7.68 0 0 1 6.12 3.002 7.637 7.637 0 0 1 1.306 6.676 183.018 183.018 0 0 1-9.282 25.34l-.631 1.482c-1.83 4.62-3.331 9.364-4.493 14.195l-.482 1.864a81.683 81.683 0 0 0 11.398-7.974c2.846-2.382 13.192-20.478 9.752-36.438-2.537-11.69-12.19-19.96-28.724-24.6a7.665 7.665 0 0 1-5.498-8.417 7.679 7.679 0 0 1 7.577-6.618 7.89 7.89 0 0 1 2.079.284c15.433 4.332 34.813 14.109 39.603 36.13 2.61 12.071-.248 23.896-3.094 31.685-3.59 9.8-8.503 16.96-11.782 19.75a99.896 99.896 0 0 1-28.464 16.602c-.19.494-.376 1-.557 1.518-2.896 7.777-5.891 15.824-11.757 22.367-2.958 3.283-13.8 12.664-24.554 12.664l-.396-.025zm.26-15.318c3.39 0 10.16-4.234 13.155-7.567a32.5 32.5 0 0 0 4.876-7.727c-5.247 1.667-9.9 3.605-13.737 6.678a13.755 13.755 0 0 0-4.356 7.604c-.076.333-.076.679 0 1.012h.062zm-319.742-42.881c-.656 2.79-.359 5.085.78 5.974.407.304.903.465 1.41.457.43.003.854-.094 1.238-.284a25.603 25.603 0 0 0 7.018-5.802 27.087 27.087 0 0 1 .408-13.343 7.644 7.644 0 0 1 7.425-5.863 7.444 7.444 0 0 1 1.82.222c.387.097.768.221 1.138.37a43.394 43.394 0 0 0 2.19-8.64c.52-3.765.236-6.839-.717-8.542-2.376.988-8.292 5.123-13.96 12.59-2.735 6.777-5.52 14.047-8.737 22.836l-.013.025zm-48.525 6.171h.322a7.343 7.343 0 0 0 2.14-.444 16.862 16.862 0 0 0 6.906-5.37 18.088 18.088 0 0 1-.111-11.85 7.647 7.647 0 0 1 7.265-5.208 7.902 7.902 0 0 1 2.339.358c5.037-12.146 5.309-18.923 3.23-20.28a.856.856 0 0 0-.495-.112c-2.476 0-7.983 4.024-14.406 12.875a1495.054 1495.054 0 0 0-7.92 20.045c-.978 5.938.148 9.32.73 9.999v-.013zm101.543-.222c.146.058.302.083.458.074 1.659 0 5.111-1.851 9.27-5.95a33.082 33.082 0 0 1 0-13.38 7.68 7.68 0 0 1 8.972-6.036c.504.098.997.242 1.473.432 1.634-6.171 2.067-12.207 1.015-15.306-.545-1.617-1.139-1.74-1.659-1.851a5.41 5.41 0 0 0-1.15-.136c-5.904 0-11.139 11.294-16.09 22.873l-.185.432a7.39 7.39 0 0 1-.507 2.345 38.178 38.178 0 0 0-2.19 10.949 12.904 12.904 0 0 0 .593 5.554zm112.62-46.56c-.903 2.247-1.819 4.481-2.747 6.74-1.498 3.703-3.032 7.406-4.53 11.282-.755 1.95-1.472 3.95-2.24 6.073-.47 1.333-.965 2.69-1.472 4.049-2.723 8.01-3.206 12.874-3.132 15.515.004.833.108 1.662.31 2.47a13.599 13.599 0 0 0 6.014-5.642 189.31 189.31 0 0 0 10.112-18.836l.148-.47c.235-.706.564-1.379.978-1.999a224.043 224.043 0 0 0 7.87-19.75c-4.653.334-8.365.482-11.348.58l.037-.012zm146.43 29.341c-3.588 10.344-3.477 14.973-3.155 16.738a15.186 15.186 0 0 0 7.735-6.653c5.247-9.875 12.103-23.885 16.324-37.265h-.075c-1.98-.21-6.027-.358-10.63-.408-2.97 8.937-6.312 17.972-10.235 27.6l.037-.012zm-24.243-1.728a8.215 8.215 0 0 1-.235.987v.173a95.793 95.793 0 0 0-3.206 12.257 23.098 23.098 0 0 0-.408 4.716c3.28-.89 6.51-4.827 8.205-8.715 5.482-12.492 10.012-23.934 13.787-34.846-.421 0-.73.087-.978.124a7.688 7.688 0 0 1-3.837 1.024 7.84 7.84 0 0 1-2.858-.543 9.514 9.514 0 0 1-1.238-.63c-1.349 3.53-2.747 7.505-4.22 11.678a616.397 616.397 0 0 1-5.05 13.787l.038-.012z"/>
        <path fill="#E8E6E5" d="M604.865 119.942c.478 0 .953.066 1.411.197 14.778 4.151 33.33 13.454 37.822 34.295 4.493 20.841-7.809 43.795-14.047 49.02a97.359 97.359 0 0 1-28.849 16.592c-.322.84-.631 1.705-.965 2.57-2.81 7.573-5.718 15.405-11.275 21.595-3.503 3.904-13.614 11.86-22.71 11.86h-.224a12.286 12.286 0 0 1-9.542-4.41 14.09 14.09 0 0 1-3.106-10.724c.668-6.758 5.185-13.219 9.084-16.369a48.641 48.641 0 0 1 13.824-7.524 12.63 12.63 0 0 1-3.378-2.866 13.905 13.905 0 0 1-2.179-3.706c-4.418 4.83-10.606 8.314-16.275 8.314a11.887 11.887 0 0 1-4.814-.963 10.943 10.943 0 0 1-5.854-5.98 21.367 21.367 0 0 1-14.852 6.647h-1.015a10.364 10.364 0 0 1-8.118-4.46 11.495 11.495 0 0 1-.966-1.754c-3.478 3.83-8.527 6.794-13.54 6.794-1.213.003-2.42-.18-3.576-.543-3.305-1.038-8.788-4.472-8.453-15.764.21-6.61 2.537-12.799 4.79-18.778 2.338-6.177 4.541-12.058 4.48-18.198 0-2.903-1.028-3.088-1.572-3.175a3.31 3.31 0 0 0-.718-.061c-3.527 0-10.285 3.706-14.419 11.662-2.042 5.312-4.257 10.723-6.732 16.06-4.01 10.069-8.033 20.755-9.642 25.425a5.21 5.21 0 0 1-4.95 3.508 5.343 5.343 0 0 1-1.683-.284 5.26 5.26 0 0 1-2.265-1.544 17.005 17.005 0 0 1-8.045 1.952 22.13 22.13 0 0 1-5.235-.655 9.192 9.192 0 0 1-6.126-5.065c-.161-.334-.297-.667-.434-1.013-.731.71-1.5 1.383-2.302 2.014a19.18 19.18 0 0 1-11.683 4.052 17.122 17.122 0 0 1-3.082-.284 14.914 14.914 0 0 1-10.235-6.956c-.234-.37-.445-.753-.631-1.149-4.43 5.4-10.136 8.525-15.334 8.525a11.59 11.59 0 0 1-5.149-1.162 12.47 12.47 0 0 1-6.126-7.412 39.39 39.39 0 0 1-2.117 2.199c-4.195 3.99-8.663 6.053-12.871 6.053a11.786 11.786 0 0 1-6.188-1.692c-5.978-3.607-8.156-11.86-5.545-21.002.904-3.175 3.144-7.24 5.52-11.526 1.658-3.015 4.555-8.24 5.359-10.909a65.798 65.798 0 0 0-7.624-2.668 160.437 160.437 0 0 1-3.218-1.001c-3.898 9.797-11.015 25.943-19.072 35.666a18.877 18.877 0 0 1-14.035 6.177 16.114 16.114 0 0 1-6.856-1.47c-.42-.198-.804-.408-1.238-.63-6.485 6.473-12.92 9.883-18.626 9.883a13.368 13.368 0 0 1-8.391-3.175 14.607 14.607 0 0 1-4.852-9.117 17.01 17.01 0 0 1-10.866 4.114 16.23 16.23 0 0 1-2.636-.21 20.869 20.869 0 0 1-6.189-1.94 37.858 37.858 0 0 1-10.916 8.87 15.53 15.53 0 0 1-7.054 1.693 15.253 15.253 0 0 1-9.381-3.2 12.58 12.58 0 0 1-.978-.852c-3.923 10.896-7.674 21.236-11.683 31.317a5.214 5.214 0 0 1-6.704 2.758 5.198 5.198 0 0 1-2.975-6.6c4.084-10.241 7.909-20.841 11.943-32.046-.569.05-1.126.074-1.67.074a27.275 27.275 0 0 1-5.83-.692 15.65 15.65 0 0 1-4.109-1.52c-3.601 4.287-7.871 7.808-12.834 9.451a20.107 20.107 0 0 1-6.25 1.087 12.923 12.923 0 0 1-8.663-3.137 13.859 13.859 0 0 1-1.696-1.804c-4.109 11.267-7.909 22.422-10.631 31.935a5.209 5.209 0 0 1-4.95 3.768 5.196 5.196 0 0 1-4.548-2.669 5.18 5.18 0 0 1-.453-3.953c8.02-28.056 25.087-69.775 32.364-87.59l.78-1.89a5.198 5.198 0 0 1 4.656-3.239 5.2 5.2 0 0 1 4.849 2.943 18.749 18.749 0 0 1 9.493-3.027c2.689.012 5.313.825 7.537 2.335 13.614 8.932 3.59 31.614.272 39.075a90.441 90.441 0 0 1-4.084 8.105l.31.086c1.184.28 2.396.433 3.613.457 2.983 0 4.95-1.235 6.956-4.25 2.983-8.14 6.064-16.331 9.344-24.411a4.43 4.43 0 0 1 .248-.63c2.388-5.88 4.876-11.724 7.5-17.432a5.182 5.182 0 0 1 2.919-2.715 5.194 5.194 0 0 1 3.987.158 5.13 5.13 0 0 1 2.797 3.212 19.825 19.825 0 0 1 7.834-2.804h1.238c2.648-.041 5.212.931 7.166 2.718 4.814 4.398 6.708 11.526 5.47 20.63a68.478 68.478 0 0 1-9.666 25.327c.493.129.993.232 1.497.309.311.055.626.084.941.086 2.228 0 5.446-1.359 9.753-8.648a100.6 100.6 0 0 0 4.715-10.192c2.933-6.93 6.25-14.825 10.767-20.792 4.951-6.634 10.669-9.982 16.969-9.982a19.03 19.03 0 0 1 4.108.457 14.841 14.841 0 0 1 11.14 10.291c3.848 11.329-1.486 28.896-7.662 39.1.409.074.823.111 1.238.112a8.672 8.672 0 0 0 5.99-2.335c7.426-8.981 14.344-25.128 17.5-33.06a13.972 13.972 0 0 1-5.73-5.892 10.693 10.693 0 0 1 0-8.908 11.922 11.922 0 0 1 7.81-7.325 9.534 9.534 0 0 1 2.475-.31 11.15 11.15 0 0 1 7.017 2.632c4.406 3.509 3.713 9.08 2.017 14.133l2.402.754c5.321 1.63 9.9 3.039 12.747 5.62 5.47 4.942.879 13.281-4.443 22.893a63.91 63.91 0 0 0-4.616 9.352c-1.473 5.151-.347 8.536.916 9.302.25.134.532.198.816.186 1.238 0 3.243-.902 5.632-3.163 5.656-5.399 9.06-13.392 12.079-21.545.458-1.36.965-2.743 1.51-4.164.73-2.026 1.485-4.126 2.252-6.177 1.547-4.027 3.12-7.857 4.642-11.55.544-1.343 1.089-2.677 1.633-4.003-3.082.11-6.473.259-10.495.53h-.347a5.197 5.197 0 0 1-5.365-5.021 5.195 5.195 0 0 1 5.031-5.356c6.189-.42 10.904-.568 15.273-.68 1.633-4.52 3.18-9.24 4.591-14.478a5.197 5.197 0 0 1 5.025-3.854c.452-.004.901.054 1.337.173a5.197 5.197 0 0 1 3.178 2.405 5.18 5.18 0 0 1 .535 3.944 166.295 166.295 0 0 1-3.503 11.502 370.16 370.16 0 0 0 9.035-.482h.334a5.219 5.219 0 0 1 5.198 4.855 5.377 5.377 0 0 1-.148 1.619 5.277 5.277 0 0 1 3.713-1.57 5.095 5.095 0 0 1 1.584.248 5.196 5.196 0 0 1 3.042 2.57 5.18 5.18 0 0 1 .324 3.965 244.838 244.838 0 0 1-11.002 28.13c-.31.89-.656 1.829-1.015 2.805-1.77 4.842-5.087 13.86-3.057 17.172a4.493 4.493 0 0 0 3.218 2.162c.408.073.823.106 1.237.099a8.897 8.897 0 0 0 5.285-1.829c4.58-3.57 8.515-10.723 11.968-18.864.656-1.742 1.238-3.002 1.448-3.558 2.141-5.387 4.084-11.02 5.866-16.197 1.597-4.645 3.107-9.03 4.63-12.934a5.215 5.215 0 0 1 9.127-1.697 5.193 5.193 0 0 1 .575 5.403c-1.448 3.706-2.92 8.005-4.492 12.54-2.401 6.967-4.95 14.33-7.86 21.125-2.697 7.412-3.613 14.182-2.908 16.406.693.142 1.397.217 2.104.222 3.713 0 5.891-2.372 8.478-6.584a154.636 154.636 0 0 0 8.503-16.234c1.856-4.657 3.712-9.203 5.383-13.033.421-1.1.891-2.162 1.399-3.175 1.93-5.065 3.713-10.056 5.433-14.825l.978-2.755a5.222 5.222 0 0 1 4.95-3.434 5.417 5.417 0 0 1 1.758.296 5.202 5.202 0 0 1 3.428 4.472 20.13 20.13 0 0 1 7.574-1.63c.83-.009 1.66.061 2.476.21 7.425 1.31 10.099 7.733 10.148 13.305.075 8.08-2.574 15.134-5.148 21.953-2.042 5.423-3.973 10.55-4.122 15.43-.111 3.842.768 5.424 1.176 5.547.144.048.295.069.446.062 1.51 0 4.79-1.557 6.88-4.732 5.855-8.845 10.657-22.546 14.853-34.59 1.831-5.202 3.552-10.119 5.272-14.418a5.21 5.21 0 0 1 4.84-3.274 5.058 5.058 0 0 1 1.93.37 5.198 5.198 0 0 1 2.908 6.746c-1.646 4.102-3.329 8.92-5.124 14.01-1.584 4.533-3.255 9.277-5.037 13.96-.04.297-.107.59-.198.877v.185a98.688 98.688 0 0 0-3.292 12.589c-.916 5.51-.173 7.412 0 7.733h.681c4.95 0 9.591-5.287 11.82-10.377 6.076-13.874 10.977-26.425 15.049-38.594a41.15 41.15 0 0 0-5.42.507 5.218 5.218 0 0 1-4.865.53 5.194 5.194 0 0 1-2.853-2.778 5.18 5.18 0 0 1-.043-3.979c1.399-3.496 4.641-4.521 16.523-4.78a349.207 349.207 0 0 0 4.195-15.172 5.209 5.209 0 0 1 5.05-3.928c.417.002.833.056 1.237.16a5.2 5.2 0 0 1 3.775 6.313 371.489 371.489 0 0 1-3.428 12.601c4.641.074 8.663.247 10.532.433a5.206 5.206 0 0 1 4.666 4.694 5.179 5.179 0 0 1 3.267-1.235 5.74 5.74 0 0 1 1.238.16 5.213 5.213 0 0 1 3.713 6.326 177.766 177.766 0 0 1-10.483 28.587c-4.356 11.44-3.923 17.901-2.228 19.964a2.39 2.39 0 0 0 2.08.828 7.24 7.24 0 0 0 1.064-.099c6.188-1.075 11.807-8.178 14.146-14.652 1.93-5.337 3.973-10.08 5.94-14.676a171.04 171.04 0 0 0 8.664-23.584 5.209 5.209 0 0 1 5.013-3.818 4.86 4.86 0 0 1 1.386.186 5.184 5.184 0 0 1 3.146 2.432 5.168 5.168 0 0 1 .493 3.942 179.753 179.753 0 0 1-9.159 24.93l-.631 1.47a109.202 109.202 0 0 0-4.617 14.566c-.606 2.36-1.237 4.781-2.066 7.413a83.792 83.792 0 0 0 16.98-11.02c3.18-2.669 14.295-21.644 10.57-38.878-2.736-12.663-12.983-21.57-30.471-26.475a5.201 5.201 0 0 1-3.739-5.714 5.207 5.207 0 0 1 5.15-4.49l.086.037zm-251.092 35.79c.186-.595.327-1.202.421-1.817a4 4 0 0 0-.495.89c-.084.183-.139.38-.16.58.056.13.136.246.234.346zm43.652 52.665c1.733 0 5.68-1.89 8.849-7.005a192.855 192.855 0 0 0 10.31-19.235l.21-.63a5.05 5.05 0 0 1 .78-1.52 235.703 235.703 0 0 0 9.678-25.005 5.202 5.202 0 0 1-3.366 1.545c-5.421.358-9.703.53-13.614.642a637.797 637.797 0 0 1-3.342 8.228c-1.498 3.706-3.045 7.412-4.555 11.353a293.811 293.811 0 0 0-2.252 6.115c-.47 1.322-.965 2.681-1.46 4.04-2.835 8.302-3.38 13.478-3.293 16.456.1 3.36 1.003 4.67 1.46 4.941.188.081.391.119.595.112v-.037zm182.601-49.021h-.545c-2.363-.247-7.425-.408-12.66-.433-3.058 9.439-6.585 19.038-10.743 29.218-5.916 17.036-2.476 20.124-2.414 20.137.228.09.473.132.718.123 2.475 0 8.119-3.138 10.792-8.129 5.916-11.118 13.614-27.104 17.699-41.744a5.168 5.168 0 0 1-2.847.852v-.024zm-381.787 49.601a9.805 9.805 0 0 0 2.921-.568c2.934-.964 5.99-3.496 8.96-7.289a15.811 15.811 0 0 1-.606-11.502 5.197 5.197 0 0 1 4.95-3.533 5.178 5.178 0 0 1 3.54 1.384c3.652-8.29 8.775-22.336 3.392-25.857a3.359 3.359 0 0 0-1.857-.52c-3.91 0-10.198 5.288-16.596 14.159a1728.28 1728.28 0 0 0-8.132 20.606c-1.101 6.375-.074 11.119 1.56 12.54.54.415 1.212.621 1.893.58h-.025zm101.71-.173c3.255 0 7.933-3.434 12.03-7.709a29.376 29.376 0 0 1-.347-13.59 5.202 5.202 0 0 1 9.381-1.989c2.55-7.757 3.44-16.06 1.993-20.247-.879-2.595-2.253-3.212-3.478-3.484a7.86 7.86 0 0 0-1.67-.186c-7.427 0-12.711 11.12-18.355 24.4l-.371.877a5.18 5.18 0 0 1-.347 1.964 41.382 41.382 0 0 0-2.364 11.749c-.222 4.941.792 7.091 1.362 7.548a3.32 3.32 0 0 0 2.166.717v-.05zm-51.288.445a5.243 5.243 0 0 0 2.339-.556 29.454 29.454 0 0 0 8.663-7.412c-1.237-3.583-1.237-7.993 0-13.355a5.22 5.22 0 0 1 5.05-3.978 5.224 5.224 0 0 1 4.109 2.001 49.175 49.175 0 0 0 3.49-12.218c.755-5.485 0-9.587-2.153-11.55a1.091 1.091 0 0 0-.297 0c-2.401 0-10.05 5.015-16.857 14.083-3.119 7.733-6.09 15.578-8.96 23.41v.112c-.904 3.867-.298 6.955 1.658 8.487.844.648 1.88.996 2.945.988l.013-.012zm317.615 36.494c4.455 0 11.918-5.028 14.938-8.401 3.02-3.373 5.421-8.302 7.426-13.268-7.302 2.1-14.159 4.237-19.641 8.648-1.98 1.593-4.95 5.707-5.273 9.302a3.788 3.788 0 0 0 .755 3.052c.428.5 1.08.75 1.733.667h.111-.05zM604.866 115a10.183 10.183 0 0 0-9.778 7.412c-1.5 5.388 1.64 10.974 7.03 12.503 15.582 4.373 24.654 12.033 26.968 22.756 3.144 14.578-6.263 31.59-8.948 34.085a67.571 67.571 0 0 1-5.78 4.398 89.862 89.862 0 0 1 3.28-9.674l.606-1.408a185.614 185.614 0 0 0 9.382-25.573c.745-2.61.409-5.41-.934-7.77a10.134 10.134 0 0 0-6.208-4.781c-5.41-1.474-10.993 1.705-12.475 7.103a168.29 168.29 0 0 1-8.453 22.93c-2.005 4.657-4.072 9.475-6.052 14.948-1.795 4.941-5.545 9.5-8.899 11.007 0-2.273.483-6.646 3.07-13.466a181.27 181.27 0 0 0 10.705-29.279 10.14 10.14 0 0 0-1.11-7.698 10.172 10.172 0 0 0-6.241-4.656 10.03 10.03 0 0 0-2.476-.321 7.228 7.228 0 0 0-.73 0 10.092 10.092 0 0 0-6.708-3.533c-1.04-.112-2.624-.198-4.554-.285.606-2.21 1.237-4.435 1.745-6.634a10.114 10.114 0 0 0-1.107-7.706 10.147 10.147 0 0 0-6.257-4.648c-.81-.2-1.641-.303-2.476-.309a10.145 10.145 0 0 0-9.9 7.66 343.085 343.085 0 0 1-3.12 11.539c-6.522.271-11.349.963-14.48 3.62h-.087c-5.208-2.063-11.106.467-13.193 5.658-1.757 4.398-3.49 9.352-5.334 14.59-3.899 11.118-8.255 23.472-13.317 31.91a74.548 74.548 0 0 1 3.33-10.18c2.598-6.906 5.544-14.726 5.457-23.72-.086-9.5-5.668-16.616-14.233-18.135a18.213 18.213 0 0 0-3.316-.284c-1.666.003-3.326.19-4.951.556a10.158 10.158 0 0 0-17.389 3.026l-.99 2.755c-1.596 4.473-3.416 9.525-5.322 14.529a44.94 44.94 0 0 0-1.435 3.261c-1.535 3.57-3.33 7.931-5.335 12.96a151.947 151.947 0 0 1-8.205 15.504c-.322.531-.631 1-.904 1.396a54.357 54.357 0 0 1 2.055-7.03c2.983-6.967 5.619-14.602 7.946-21.347 1.547-4.497 3.007-8.735 4.418-12.354a10.101 10.101 0 0 0-.173-7.759 10.017 10.017 0 0 0-5.62-5.361 9.917 9.917 0 0 0-3.712-.692 10.098 10.098 0 0 0-9.357 6.622c-1.56 4.002-3.081 8.437-4.69 13.12-1.72 4.941-3.713 10.612-5.755 15.9-.285.654-.83 1.914-1.486 3.619-3.712 8.648-7.165 14.281-10.408 16.814a3.965 3.965 0 0 1-2.24.778h-.136c-.174-1.84.965-6.177 3.416-12.786l.953-2.656a248.208 248.208 0 0 0 11.138-28.415 10.115 10.115 0 0 0-1.433-9.156 10.155 10.155 0 0 0-8.295-4.161 10.177 10.177 0 0 0-8.663-4.942h-.656l-1.82.111c.496-1.63.954-3.274 1.4-4.941 1.407-5.395-1.81-10.912-7.204-12.354a10.364 10.364 0 0 0-2.611-.334 10.17 10.17 0 0 0-9.815 7.524c-.977 3.706-2.054 7.177-3.341 10.908-3.453.111-7.352.272-12.067.58-5.453.38-9.628 5-9.448 10.453.18 5.453 4.65 9.787 10.116 9.808h.668l2.661-.16a420.207 420.207 0 0 0-3.379 8.487 243.09 243.09 0 0 0-2.24 6.078v.1a144.943 144.943 0 0 0-1.547 4.274c-2.475 6.67-5.482 14.133-10.223 19.012.062-.259.124-.518.21-.79a67.578 67.578 0 0 1 4.196-8.314c2.773-5.029 5.397-9.773 6.684-14.208 1.782-6.177.693-11.118-3.255-14.726-3.218-2.915-7.538-4.484-12.538-6.053 1.04-6.325-.594-11.242-4.864-14.652a16.107 16.107 0 0 0-10.111-3.706c-1.252-.007-2.5.147-3.713.457a16.795 16.795 0 0 0-11.139 10.241 15.762 15.762 0 0 0 .136 12.898c1 2.094 2.42 3.96 4.171 5.485-1.435 3.447-3.39 7.894-5.656 12.44 1.238-6.732 1.3-13.589-.705-19.556a19.949 19.949 0 0 0-14.753-13.59 24.015 24.015 0 0 0-5.16-.567c-7.946 0-14.989 4.027-20.942 11.958a83.653 83.653 0 0 0-8.972 16.283c1.398-12.799-3.095-19.915-7.191-23.646a15.313 15.313 0 0 0-10.508-4.015c-.557 0-1.138 0-1.708.087-1.994.214-3.948.71-5.804 1.47a9.82 9.82 0 0 0-2.364-1.334 10.065 10.065 0 0 0-4.233-.94 10.187 10.187 0 0 0-9.257 5.881c-2.476 5.263-4.95 10.995-7.55 17.53-.111.248-.21.495-.297.73.854-12.021-4.344-18.21-9.109-21.324a18.427 18.427 0 0 0-10.272-3.113c-2.993.041-5.944.706-8.664 1.952a10.13 10.13 0 0 0-1.881-1 9.917 9.917 0 0 0-3.824-.754 10.1 10.1 0 0 0-9.406 6.313l-.78 1.89c-7.327 17.9-24.456 59.793-32.55 88.097a10.14 10.14 0 0 0 1.667 8.882 10.18 10.18 0 0 0 8.098 4.04 10.195 10.195 0 0 0 9.765-7.413c1.993-6.967 4.753-15.43 8.218-25.177a18.332 18.332 0 0 0 8.02 1.779 24.67 24.67 0 0 0 7.81-1.347 31.627 31.627 0 0 0 12.598-8.24c.582.185 1.164.334 1.746.457.581.124 1.101.235 1.646.321-3.107 8.648-6.312 17.296-9.642 25.684a10.122 10.122 0 0 0 1.471 10.03 10.164 10.164 0 0 0 17.403-2.543c3.268-8.215 6.288-16.381 9.654-25.684a20.342 20.342 0 0 0 7.785 1.544 20.563 20.563 0 0 0 9.294-2.223 39.834 39.834 0 0 0 9.963-7.413c1.368.432 2.766.759 4.184.976a21.3 21.3 0 0 0 3.403.272c2.795.003 5.561-.56 8.131-1.656a17.19 17.19 0 0 0 4.48 5.56 18.412 18.412 0 0 0 11.66 4.15c6.274 0 13.007-3.063 19.603-8.919a21.26 21.26 0 0 0 7.067 1.235 23.893 23.893 0 0 0 17.86-7.906c7.215-8.747 13.613-21.94 18.118-32.75l1.337.42a211.1 211.1 0 0 1-3.057 5.695c-2.475 4.558-4.95 8.857-5.953 12.576-3.243 11.378-.198 21.83 7.748 26.61a16.582 16.582 0 0 0 8.663 2.41 22.56 22.56 0 0 0 13.886-5.325 16.102 16.102 0 0 0 12.377 5.596 23.39 23.39 0 0 0 14.79-5.892 19.939 19.939 0 0 0 10.532 5.398c1.307.238 2.632.358 3.96.359a24.054 24.054 0 0 0 12.909-3.88 13.769 13.769 0 0 0 6.522 3.707c2.098.52 4.25.79 6.411.803 2.528.017 5.04-.401 7.426-1.236.421.221.86.407 1.312.556a10.135 10.135 0 0 0 12.896-6.3c1.473-4.25 5.297-14.48 9.517-25.08 2.216-4.842 4.419-10.092 6.696-16.06a19.026 19.026 0 0 1 7.092-7.684c-.495 4.324-2.154 8.722-4.01 13.689-2.401 6.362-4.876 12.934-5.1 20.371-.47 15.072 8.157 19.446 11.894 20.632 1.643.51 3.354.769 5.075.766a22.44 22.44 0 0 0 12.81-4.472 15.522 15.522 0 0 0 9.492 3.879h1.337a25.13 25.13 0 0 0 13.775-4.386 15.819 15.819 0 0 0 4.95 3.299 16.746 16.746 0 0 0 6.795 1.383c.619 0 1.237 0 1.856-.086a30.75 30.75 0 0 0-7.871 16.814 19.063 19.063 0 0 0 4.233 14.392A17.402 17.402 0 0 0 565.954 261h.371c10.396 0 21.708-8.277 26.4-13.503 6.187-6.894 9.257-15.17 12.227-23.164l.186-.482a102.17 102.17 0 0 0 28.094-16.616c7.859-6.584 20.52-31.564 15.706-53.851-2.773-12.823-12.191-29.823-41.325-38.001a9.843 9.843 0 0 0-2.748-.383zm-191.067 47.069c1.77-.062 3.775-.148 6.04-.272a226.996 226.996 0 0 1-6.461 15.826c-.498.767-.89 1.598-1.163 2.47-.028.101-.06.2-.1.297a184.828 184.828 0 0 1-9.9 18.531 15.234 15.234 0 0 1-1.659 2.236 53.042 53.042 0 0 1 2.933-12.453c.495-1.359.978-2.705 1.46-4.015a225.975 225.975 0 0 1 2.216-6.029c1.485-3.879 3.02-7.622 4.505-11.242l2.154-5.275-.025-.074zm147.056 27.821a419.098 419.098 0 0 0 9.666-25.943c2.08 0 4.01.099 5.582.173a241.563 241.563 0 0 1-15.161 33.862 11.853 11.853 0 0 1-3.07 3.583 58.053 58.053 0 0 1 2.983-11.638v-.037zm-24.159-1.927c1.77-4.682 3.44-9.426 4.95-13.59a682.92 682.92 0 0 1 3.268-9.166c.872.236 1.77.357 2.673.358h.929c-3.429 9.537-7.426 19.52-12.166 30.305a18.341 18.341 0 0 1-2.97 4.694 99.588 99.588 0 0 1 2.945-11.366v-.185c.11-.345.2-.695.272-1.05h.1zm-329.36-10.316c5.26-7.19 9.443-10.439 11.399-11.34.272 1.741-.087 6.3-3.44 14.824h-.805a10.147 10.147 0 0 0-9.617 6.894 20.534 20.534 0 0 0-.322 12.057 12.573 12.573 0 0 1-4.888 3.62h-.087a18.893 18.893 0 0 1 0-6.585c2.376-6.177 4.95-12.551 7.698-19.52l.062.05zm96.722 10.291v-.074c2.933-6.93 9.034-21.372 13.787-21.372h.359l.099.284c.668 1.964.619 6.313-.495 11.55a10.49 10.49 0 0 0-1.077 0 10.169 10.169 0 0 0-9.988 8.154 36.898 36.898 0 0 0-.247 13.022 24.898 24.898 0 0 1-5.124 3.805 21.272 21.272 0 0 1 0-2.582 36.19 36.19 0 0 1 2.03-10.192 9.622 9.622 0 0 0 .63-2.632l.026.037zm-46.647-9.315a48.93 48.93 0 0 1 10.248-10.093 20.964 20.964 0 0 1-.186 4.472 38.83 38.83 0 0 1-1.361 6.029c-.444-.053-.89-.082-1.337-.086a10.133 10.133 0 0 0-9.901 7.758 30.831 30.831 0 0 0-.693 13.219 21.405 21.405 0 0 1-5.434 4.311 6.364 6.364 0 0 1 .1-3.286c3.143-8.561 5.866-15.69 8.527-22.324h.037zm312.256 61.042a11.69 11.69 0 0 1 2.475-3.15 29.281 29.281 0 0 1 6.61-3.93c-.354.487-.734.953-1.14 1.397a28.96 28.96 0 0 1-7.896 5.683h-.05z"/>
        <path fill="#000" d="M538.001 150a11.183 11.183 0 0 1-4.38-.899 10.917 10.917 0 0 1-6.318-7.032 7.568 7.568 0 0 1 3.195-8.502 10.078 10.078 0 0 1 5.434-1.567 10.797 10.797 0 0 1 8.955 4.858 7.548 7.548 0 0 1-1.851 11.879A10.643 10.643 0 0 1 538 150z"/>
        <path fill="#E8E6E5" d="M535.417 133.926a8.298 8.298 0 0 1 3.461.76 8.24 8.24 0 0 1 3.656 3.186c.394.378.728.817.988 1.299 1.33 2.507.393 5.625-2.097 6.972a8.179 8.179 0 0 1-3.924.98 8.94 8.94 0 0 1-3.473-.71 8.56 8.56 0 0 1-4.96-5.515 5.147 5.147 0 0 1 2.181-5.771 7.745 7.745 0 0 1 4.168-1.226v.025zm0-4.926a12.588 12.588 0 0 0-6.776 1.96c-3.731 2.402-5.463 6.973-4.265 11.262 1.144 3.926 4 7.118 7.763 8.675A13.55 13.55 0 0 0 537.5 152c2.171 0 4.309-.535 6.228-1.556 4.863-2.628 6.69-8.72 4.082-13.614-.4-.749-.891-1.444-1.462-2.07a13.385 13.385 0 0 0-10.968-5.76h.036z"/>
        <path fill="#000" d="M121.607 231.99a43.38 43.38 0 0 1-19.956-4.38c-16.453-8.426-17.332-29.324-13.06-44.659a94.703 94.703 0 0 1 6.56-15.495c-5.211 1.308-10.361 2.468-14.93 3.356-13.122 2.541-24.759 5.268-34.663 12.855-2.005 1.554-4.89 6.871-5.088 12.842a13.78 13.78 0 0 0 4.308 11.103 7.642 7.642 0 0 1 .49 10.64 7.707 7.707 0 0 1-10.653.846 28.83 28.83 0 0 1-9.57-23.094c.322-9.635 4.878-19.74 11.068-24.452 12.54-9.647 25.997-12.842 41.125-15.766 6.846-1.333 17.926-3.923 28.808-7.267 10.584-16.16 19.807-24.673 28.09-26.19.87-.15 1.752-.229 2.636-.235a14.224 14.224 0 0 1 11.711 6.354 12.301 12.301 0 0 1 1.51 12.114c-1.955 4.935-7.241 11.535-30.949 19.825-.965.346-1.956.679-2.946 1.012-6.425 10.51-11.476 21.207-12.714 25.636-2.365 8.537-2.922 22.761 5.274 26.956a30.807 30.807 0 0 0 13.395 2.64 49.233 49.233 0 0 0 18.743-3.825c21.664-8.993 33.177-35.406 38.13-50.346 6.016-18.197 2.116-34.345-10.437-43.179a33.507 33.507 0 0 0-19.424-6.008c-9.495 0-19.523 3.701-28.226 10.413-3.353 2.589-8.178 1.978-10.776-1.364a7.637 7.637 0 0 1 1.368-10.739c10.584-8.167 22.519-12.83 34.527-13.496.978 0 1.943-.086 2.921-.086a49.776 49.776 0 0 1 28.474 8.783c18.087 12.744 24.277 35.925 16.094 60.45a130.58 130.58 0 0 1-16.75 34.284c-8.567 12.115-18.694 20.664-30.108 25.401a67.97 67.97 0 0 1-24.982 5.07z"/>
        <path fill="#E8E6E5" d="M148.307 100.938a46.96 46.96 0 0 1 27.046 8.33c17.169 12.107 23.011 34.223 15.226 57.722a127.75 127.75 0 0 1-16.426 33.655c-8.281 11.737-18.047 19.993-29.027 24.56a65.425 65.425 0 0 1-24.05 4.85 41.234 41.234 0 0 1-18.877-4.147c-15.139-7.75-15.82-27.373-11.809-41.825 1.238-4.58 4.691-12.095 8.962-19.957-7.613 2.061-14.767 3.703-20.189 4.74-13.442 2.603-25.412 5.405-35.71 13.328-2.81 2.16-5.843 8.257-6.054 14.711a16.167 16.167 0 0 0 5.15 13.033 5.193 5.193 0 0 1 .482 7.343 5.23 5.23 0 0 1-7.364.482 26.372 26.372 0 0 1-8.665-21.154c.297-8.96 4.456-18.253 10.1-22.597 12.106-9.318 25.314-12.44 40.08-15.304 10.101-2.016 20.091-4.55 29.931-7.59 10.249-15.834 19.297-24.535 26.922-25.917a13.531 13.531 0 0 1 2.204-.197 11.68 11.68 0 0 1 9.692 5.319 9.948 9.948 0 0 1 1.238 9.774c-1.622 4.048-6.45 10.367-29.498 18.426-1.237.432-2.475.852-3.713 1.234-6.721 10.873-12.118 22.215-13.455 27.053-2.228 8.01-3.713 24.572 6.523 29.817a32.886 32.886 0 0 0 14.52 2.913 51.624 51.624 0 0 0 19.693-4.011c22.59-9.38 34.486-36.531 39.61-51.835 6.387-19.29 2.142-36.481-11.35-45.997a35.784 35.784 0 0 0-20.845-6.467c-9.903 0-20.362 3.703-29.708 10.935a5.246 5.246 0 0 1-7.358-.82 5.21 5.21 0 0 1 .823-7.338c10.175-7.861 21.637-12.341 33.136-12.983.928 0 1.857-.086 2.785-.086h-.025zm-23.704 43.775c10.484-4.616 12.477-7.627 12.824-8.33-.557-.778-.891-.95-1.238-.95a2.197 2.197 0 0 0-.371 0c-2.154.37-6.028 3.11-11.14 9.23l-.075.05zm23.704-48.712c-1.015 0-2.042 0-3.057.086-12.514.704-24.93 5.542-35.897 14.008a10.1 10.1 0 0 0-2.283 13.7c2.998 4.45 8.955 5.797 13.585 3.072-5.273 4.443-10.844 11.108-16.76 20.055-10.51 3.197-21.043 5.665-27.703 6.936-15.36 2.937-29.15 6.27-42.122 16.242-6.845 5.27-11.685 15.858-12.02 26.349a31.216 31.216 0 0 0 10.336 25.016 10.169 10.169 0 0 0 14.334-.9 10.101 10.101 0 0 0-.891-14.292 11.09 11.09 0 0 1-3.478-9.17c.173-5.32 2.735-9.873 4.134-10.96 9.432-7.269 20.808-9.873 33.619-12.403 3.094-.592 6.461-1.32 9.902-2.135a78.638 78.638 0 0 0-4.419 11.194c-4.505 16.242-3.465 38.432 14.322 47.54a45.912 45.912 0 0 0 21.043 4.652 70.5 70.5 0 0 0 25.994-5.232c11.858-4.937 22.342-13.761 31.18-26.276a133.3 133.3 0 0 0 17.218-34.938c8.492-25.646 1.943-49.897-17.07-63.3A52.195 52.195 0 0 0 148.308 96zm-20.931 26.361a42.376 42.376 0 0 1 21.154-6.17 31.096 31.096 0 0 1 17.998 5.553c11.61 8.195 15.163 23.301 9.506 40.419-11.227 33.902-27.85 45.17-36.775 48.873a46.86 46.86 0 0 1-17.787 3.628c-4.212.135-8.4-.674-12.255-2.37-6.832-3.492-6.09-16.648-4.023-24.115 1.127-4.06 5.954-14.28 11.97-24.251l2.129-.728c24.67-8.64 30.302-15.884 32.455-21.24a14.946 14.946 0 0 0-1.794-14.477 16.624 16.624 0 0 0-13.728-7.405 18.397 18.397 0 0 0-3.057.272 20.924 20.924 0 0 0-5.793 1.974v.037z"/>
    </g>
</svg>
