<svg xmlns="http://www.w3.org/2000/svg" width="1440" height="457" viewBox="0 0 1440 457">
    <g fill="none" fill-rule="evenodd">
        <path fill="#E0E0E0" fill-rule="nonzero" d="M-221.65.35h1200v840h-1200z"/>
        <path fill="#E0E0E0" fill-rule="nonzero" d="M976.35.35h1200v840h-1200z"/>
        <g transform="translate(-183 31)">
            <circle cx="569.31" cy="331.3" r="21.13" fill="#9FE2A2" fill-rule="nonzero"/>
            <path stroke="#000" stroke-width="1.62" d="M569.31 319.84v52.52"/>
            <path stroke="#000" stroke-linejoin="round" stroke-width="1.62" d="M579.48 328.72v4.64a10.17 10.17 0 1 1-20.33 0v-4.64M572.47 321.75a3.16 3.16 0 1 1-6.31 0M564.31 330.09a5.16 5.16 0 0 1-10.32 0M584.64 330.09a5.16 5.16 0 0 1-10.32 0"/>
            <circle cx="288.61" cy="25.09" r="21.13" fill="#F50" fill-rule="nonzero"/>
            <path stroke="#000" stroke-width="1.62" d="M288.61 13.63v52.53"/>
            <path stroke="#000" stroke-linejoin="round" stroke-width="1.62" d="M298.78 22.51v4.64a10.17 10.17 0 1 1-20.34 0v-4.64M291.77 15.55a3.16 3.16 0 0 1-6.31 0M283.6 23.88a5.16 5.16 0 0 1-10.32 0M303.94 23.88a5.16 5.16 0 0 1-10.32 0"/>
            <circle cx="836.8" cy="21.86" r="21.13" fill="#DDA812" fill-rule="nonzero"/>
            <path stroke="#000" stroke-width="1.62" d="M836.8 10.4v52.52"/>
            <path stroke="#000" stroke-linejoin="round" stroke-width="1.62" d="M847 19.28v4.64c0 5.617-4.553 10.17-10.17 10.17s-10.17-4.553-10.17-10.17v-4.64M840 12.31a3.16 3.16 0 1 1-6.31 0M831.79 20.65a5.16 5.16 0 0 1-10.32 0M852.13 20.65a5.16 5.16 0 0 1-10.32 0"/>
            <path fill="#DDA812" fill-rule="nonzero" d="M459.17 193.05c0 3.13-4.86 6.14-5 9.09-.12 3.17 4.49 6.39 4.25 9.28-.27 3.26-5.39 6-5.79 8.8-.5 3.46 3.65 7 3 9.56-1.33 5.09-5.31 6-7.05 6-1.74 0-5.73-.86-7.06-6-.66-2.53 3.49-6.1 3-9.56-.4-2.79-5.52-5.54-5.79-8.8-.24-2.89 4.37-6.11 4.25-9.28-.11-2.95-5-6-5-9.09s4.86-6.13 5-9.08c.12-3.17-4.49-6.39-4.25-9.28.27-3.26 5.39-6 5.79-8.8.5-3.46-3.65-7-3-9.56 1.33-5.09 5.31-6 7.06-6s5.72.87 7.05 6c.66 2.53-3.49 6.1-3 9.56.4 2.79 5.52 5.54 5.79 8.8.24 2.89-4.37 6.1-4.25 9.28.14 2.95 5 5.95 5 9.08z"/>
            <path stroke="#000" stroke-linejoin="round" stroke-width="1.62" d="M448.59 254.94v-85.89M452.66 227.51l-4.07 4.07-4.08-4.07M452.66 214.43l-4.07 4.07-4.08-4.07M452.66 188.28l-4.07 4.07-4.08-4.07M452.66 201.36l-4.07 4.07-4.08-4.07M452.66 175.21l-4.07 4.07-4.08-4.07"/>
            <path fill="#FFAEE4" fill-rule="nonzero" d="M1095.27 48c0 4.77-6.86 9.07-8.53 12.83-3.07 6.89-5.57 12.58-11.76 12.58-6.19 0-8.69-5.69-11.75-12.58-1.68-3.76-8.53-8.06-8.53-12.83s6.85-9.07 8.53-12.83c3.06-6.89 5.57-12.58 11.75-12.58s8.69 5.69 11.76 12.58c1.67 3.83 8.53 8.08 8.53 12.83z"/>
            <path stroke="#000" stroke-linejoin="round" stroke-width="1.62" d="M1074.98 29.76v56.21"/>
            <path stroke="#231F20" stroke-width="1.62" d="M1081.68 36.46c-3.7 0-6.7-3-6.7-6.7v-.31a6.7 6.7 0 0 1-6.7 6.7M1081.68 45.57a6.71 6.71 0 0 1-6.7-6.71v-.3a6.7 6.7 0 0 1-6.7 6.7M1081.68 54.67A6.7 6.7 0 0 1 1075 48v-.31c0 3.7-3 6.7-6.7 6.7M1081.68 63.78c-3.7 0-6.7-3-6.7-6.7v-.31c0 3.7-3 6.7-6.7 6.7"/>
            <path fill="#F50" fill-rule="nonzero" d="M426.57 424.57c0 4.76-6.85 9.07-8.53 12.83-3.04 6.88-5.56 12.6-11.75 12.6s-8.69-5.7-11.76-12.58c-1.67-3.76-8.52-8.07-8.52-12.83s6.85-9.08 8.52-12.84c3.07-6.88 5.57-12.57 11.76-12.57 6.19 0 8.71 5.67 11.71 12.55 1.72 3.76 8.57 8.07 8.57 12.84z"/>
            <path stroke="#000" stroke-linejoin="round" stroke-width="1.62" d="M406.29 406.3v56.22"/>
            <path stroke="#231F20" stroke-width="1.62" d="M413 413a6.7 6.7 0 0 1-6.7-6.71V406c0 3.7-3 6.7-6.7 6.7M413 422.11c-3.7 0-6.7-3-6.7-6.7v-.31c0 3.7-3 6.7-6.7 6.7M413 431.22c-3.7 0-6.7-3-6.7-6.7v-.31c0 3.7-3 6.7-6.7 6.7"/>
            <path fill="#DDA812" fill-rule="nonzero" d="M199.34 158.39c0 4.76-6.85 9.07-8.52 12.83-3.07 6.88-5.57 12.58-11.76 12.58-6.19 0-8.69-5.7-11.75-12.58-1.68-3.76-8.53-8.07-8.53-12.83s6.85-9.08 8.53-12.84c3.06-6.88 5.56-12.57 11.75-12.57s8.69 5.69 11.76 12.57c1.67 3.76 8.52 8.07 8.52 12.84z"/>
            <path stroke="#231F20" stroke-width="1.62" d="M185.76 146.83a6.7 6.7 0 0 1-6.7-6.71v-.3c0 3.7-3 6.7-6.7 6.7M185.76 155.93c-3.7 0-6.7-3-6.7-6.7v-.31a6.71 6.71 0 0 1-6.7 6.71M185.76 165c-3.7 0-6.7-3-6.7-6.7v-.3c0 3.7-3 6.7-6.7 6.7M185.76 174.14c-3.7 0-6.7-3-6.7-6.7v-.3c0 3.7-3 6.7-6.7 6.7"/>
            <path stroke="#000" stroke-linejoin="round" stroke-width="1.62" d="M694.15 84.74v59.43"/>
            <path fill="#F50" fill-rule="nonzero" d="M694.16 88.9a2.91 2.91 0 0 1-2.91-2.92v-5.47a2.92 2.92 0 0 1 5.83 0V86a2.92 2.92 0 0 1-2.92 2.9z"/>
            <path fill="#F50" fill-rule="nonzero" d="M702.37 91.9a12.65 12.65 0 0 1-5.36-1 15.57 15.57 0 0 1-2.09-1.21l-.77-.48-.77.48a15.57 15.57 0 0 1-2.09 1.21 12.62 12.62 0 0 1-5.36 1 2.65 2.65 0 1 1 0-5.3 7.79 7.79 0 0 0 3.15-.5 13.8 13.8 0 0 0 1.42-.84 5.29 5.29 0 0 1 7.3 0c.456.308.93.589 1.42.84a7.79 7.79 0 0 0 3.15.5 2.65 2.65 0 1 1 0 5.3z"/>
            <path fill="#F50" fill-rule="nonzero" d="M704.46 100.69a15.19 15.19 0 0 1-6.44-1.18 19.52 19.52 0 0 1-2.54-1.47c-.41-.26-1-.63-1.33-.8-.35.17-.92.54-1.33.8a18.88 18.88 0 0 1-2.54 1.47 15.19 15.19 0 0 1-6.44 1.18 2.65 2.65 0 1 1 0-5.3 10.35 10.35 0 0 0 4.23-.69 16.82 16.82 0 0 0 1.87-1.1 6 6 0 0 1 8.42 0c.6.404 1.225.772 1.87 1.1a10.35 10.35 0 0 0 4.23.69 2.65 2.65 0 1 1 0 5.3z"/>
            <path fill="#F50" fill-rule="nonzero" d="M706.55 109.48a17.76 17.76 0 0 1-7.52-1.37 24 24 0 0 1-3-1.73 14 14 0 0 0-1.89-1.1 14.62 14.62 0 0 0-1.89 1.1 23.3 23.3 0 0 1-3 1.73 17.76 17.76 0 0 1-7.52 1.37 2.65 2.65 0 1 1 0-5.29 13.07 13.07 0 0 0 5.31-.89 19.4 19.4 0 0 0 2.32-1.36c1.57-1 3-2 4.77-2 1.77 0 3.2 1 4.77 2a20.22 20.22 0 0 0 2.32 1.36 13.1 13.1 0 0 0 5.31.89 2.65 2.65 0 1 1 0 5.29h.02z"/>
            <path fill="#F50" fill-rule="nonzero" d="M708.64 118.27a20.33 20.33 0 0 1-8.6-1.56 27.8 27.8 0 0 1-3.44-2 12.69 12.69 0 0 0-2.45-1.38 12.69 12.69 0 0 0-2.45 1.38 28.4 28.4 0 0 1-3.43 2 20.38 20.38 0 0 1-8.61 1.56 2.65 2.65 0 1 1 0-5.29 15.71 15.71 0 0 0 6.4-1.08 24.13 24.13 0 0 0 2.76-1.62c1.78-1.15 3.45-2.24 5.33-2.24s3.56 1.09 5.33 2.24a24.24 24.24 0 0 0 2.77 1.62 15.64 15.64 0 0 0 6.39 1.08 2.65 2.65 0 1 1 0 5.29z"/>
            <path fill="#F50" fill-rule="nonzero" d="M710.73 127.06a23.11 23.11 0 0 1-9.69-1.75 31.66 31.66 0 0 1-3.88-2.25 12.67 12.67 0 0 0-3-1.65 13 13 0 0 0-3 1.65 31.66 31.66 0 0 1-3.88 2.25 23.11 23.11 0 0 1-9.69 1.75 2.65 2.65 0 1 1 0-5.29 18.28 18.28 0 0 0 7.48-1.27 28.16 28.16 0 0 0 3.21-1.88c2-1.29 3.86-2.5 5.89-2.5s3.91 1.21 5.9 2.5a27.21 27.21 0 0 0 3.2 1.88 18.28 18.28 0 0 0 7.48 1.27 2.65 2.65 0 1 1 0 5.29h-.02z"/>
            <path fill="#F50" fill-rule="nonzero" d="M712.82 135.85a25.68 25.68 0 0 1-10.77-1.94 34.06 34.06 0 0 1-4.32-2.51c-1.18-.76-3-1.91-3.58-1.91-.58 0-2.4 1.15-3.57 1.91a34.92 34.92 0 0 1-4.33 2.51 25.68 25.68 0 0 1-10.77 1.94 2.65 2.65 0 1 1 0-5.29 20.71 20.71 0 0 0 8.56-1.47 31.23 31.23 0 0 0 3.66-2.09c2.19-1.42 4.26-2.77 6.45-2.77 2.19 0 4.26 1.35 6.46 2.77a30.33 30.33 0 0 0 3.65 2.13 20.71 20.71 0 0 0 8.56 1.47 2.65 2.65 0 1 1 0 5.29v-.04z"/>
            <path stroke="#000" stroke-linejoin="round" stroke-width="1.62" d="M1019.43 306.29v59.42"/>
            <path fill="#DDA812" fill-rule="nonzero" d="M1019.44 310.44a2.92 2.92 0 0 1-2.92-2.92v-5.46a2.92 2.92 0 1 1 5.83 0v5.46a2.91 2.91 0 0 1-2.91 2.92z"/>
            <path fill="#DDA812" fill-rule="nonzero" d="M1027.64 313.45a12.61 12.61 0 0 1-5.35-1 16.89 16.89 0 0 1-2.1-1.21c-.22-.15-.53-.34-.76-.48l-.77.48a16.89 16.89 0 0 1-2.1 1.21 12.58 12.58 0 0 1-5.35 1 2.65 2.65 0 0 1 0-5.3 7.83 7.83 0 0 0 3.15-.51 11.65 11.65 0 0 0 1.42-.84 5.31 5.31 0 0 1 7.29 0c.456.313.934.594 1.43.84 1 .385 2.07.559 3.14.51a2.65 2.65 0 0 1 0 5.3z"/>
            <path fill="#DDA812" fill-rule="nonzero" d="M1029.73 322.24a15.4 15.4 0 0 1-6.44-1.18 22.11 22.11 0 0 1-2.54-1.47c-.4-.26-1-.64-1.32-.81-.35.17-.93.55-1.33.81a22.11 22.11 0 0 1-2.54 1.47 15.38 15.38 0 0 1-6.44 1.18 2.65 2.65 0 0 1 0-5.3 10.37 10.37 0 0 0 4.23-.7 15.63 15.63 0 0 0 1.87-1.1 6 6 0 0 1 8.42 0c.592.412 1.214.78 1.86 1.1a10.37 10.37 0 0 0 4.23.7 2.65 2.65 0 0 1 0 5.3z"/>
            <path fill="#DDA812" fill-rule="nonzero" d="M1031.82 331a18 18 0 0 1-7.52-1.37 24.38 24.38 0 0 1-3-1.73 14.14 14.14 0 0 0-1.89-1.1 13.57 13.57 0 0 0-1.9 1.1 24.38 24.38 0 0 1-3 1.73A17.92 17.92 0 0 1 1007 331a2.65 2.65 0 0 1 0-5.3 12.93 12.93 0 0 0 5.31-.89 18 18 0 0 0 2.31-1.36c1.57-1 3.06-2 4.78-2 1.72 0 3.2 1 4.77 2a18.76 18.76 0 0 0 2.31 1.36 12.93 12.93 0 0 0 5.31.89 2.65 2.65 0 0 1 0 5.3h.03z"/>
            <path fill="#DDA812" fill-rule="nonzero" d="M1033.91 339.82a20.52 20.52 0 0 1-8.6-1.56 27.65 27.65 0 0 1-3.43-2 13 13 0 0 0-2.45-1.38 12.72 12.72 0 0 0-2.46 1.38 27.65 27.65 0 0 1-3.43 2 20.49 20.49 0 0 1-8.6 1.56 2.65 2.65 0 0 1 0-5.3 15.5 15.5 0 0 0 6.39-1.08 23.3 23.3 0 0 0 2.76-1.62c1.78-1.15 3.46-2.24 5.34-2.24s3.55 1.09 5.33 2.24a23.3 23.3 0 0 0 2.76 1.62 15.5 15.5 0 0 0 6.39 1.08 2.65 2.65 0 0 1 0 5.3z"/>
            <path fill="#DDA812" fill-rule="nonzero" d="M1036 348.61a23.09 23.09 0 0 1-9.68-1.75 31.66 31.66 0 0 1-3.88-2.25 12.31 12.31 0 0 0-3-1.65 12.47 12.47 0 0 0-3 1.65 30.92 30.92 0 0 1-3.88 2.25 23.06 23.06 0 0 1-9.68 1.75 2.65 2.65 0 0 1 0-5.3 18 18 0 0 0 7.47-1.27 25.28 25.28 0 0 0 3.21-1.88c2-1.28 3.86-2.5 5.9-2.5 2.04 0 3.91 1.22 5.89 2.5a25.28 25.28 0 0 0 3.21 1.88 18.07 18.07 0 0 0 7.47 1.27 2.65 2.65 0 0 1 0 5.3h-.03z"/>
            <path fill="#DDA812" fill-rule="nonzero" d="M1038.09 357.4a25.64 25.64 0 0 1-10.76-1.94A34.21 34.21 0 0 1 1023 353c-1.17-.76-3-1.91-3.57-1.91-.57 0-2.41 1.15-3.58 1.91a34.21 34.21 0 0 1-4.33 2.51 25.61 25.61 0 0 1-10.76 1.94 2.65 2.65 0 1 1 0-5.3 20.62 20.62 0 0 0 8.55-1.46 30 30 0 0 0 3.66-2.14c2.19-1.42 4.26-2.76 6.46-2.76s4.26 1.34 6.45 2.76a30 30 0 0 0 3.66 2.14 20.62 20.62 0 0 0 8.55 1.46 2.65 2.65 0 0 1 0 5.3v-.05z"/>
            <path stroke="#000" stroke-linejoin="round" stroke-width="1.62" d="M804.07 227.59v80.35"/>
            <path fill="#FFAEE4" fill-rule="nonzero" d="M806.25 233.84a5.56 5.56 0 0 1-2.18-.5 5.65 5.65 0 0 1-2.18.5 7.21 7.21 0 0 1-7.2-7.19 2.84 2.84 0 1 1 5.67 0 1.54 1.54 0 0 0 1.38 1.52l.19-.08a5.38 5.38 0 0 1 2.14-.5 5.32 5.32 0 0 1 2.13.5l.19.08a1.53 1.53 0 0 0 1.38-1.52 2.84 2.84 0 1 1 5.67 0 7.2 7.2 0 0 1-7.19 7.19z"/>
            <path fill="#FFAEE4" fill-rule="nonzero" d="M807.19 244.33a6.68 6.68 0 0 1-2.7-.65l-.42-.16-.42.16a6.69 6.69 0 0 1-2.71.65 9 9 0 0 1-8.86-7.71 2.83 2.83 0 1 1 5.61-.75 3.28 3.28 0 0 0 3.22 2.79 4.81 4.81 0 0 0 .57-.21 6.38 6.38 0 0 1 2.59-.63 6.47 6.47 0 0 1 2.59.63c.184.085.375.155.57.21a3.26 3.26 0 0 0 3.21-2.79 2.835 2.835 0 0 1 5.62.75 9 9 0 0 1-8.87 7.71z"/>
            <path fill="#FFAEE4" fill-rule="nonzero" d="M808.13 254.82a8.1 8.1 0 0 1-3.19-.78 5 5 0 0 0-.88-.31 5.57 5.57 0 0 0-.87.31 8.06 8.06 0 0 1-3.19.78 10.84 10.84 0 0 1-10.52-8.35 2.831 2.831 0 1 1 5.52-1.26 5.14 5.14 0 0 0 5 3.94 4.43 4.43 0 0 0 1-.34c1.907-1 4.183-1 6.09 0a4.43 4.43 0 0 0 1 .34 5.14 5.14 0 0 0 5-3.94 2.84 2.84 0 0 1 5.53 1.26 10.85 10.85 0 0 1-10.49 8.35z"/>
            <path fill="#FFAEE4" fill-rule="nonzero" d="M809.08 265.31a9.33 9.33 0 0 1-3.68-.91 5.05 5.05 0 0 0-1.33-.44 4.83 4.83 0 0 0-1.33.44 9.42 9.42 0 0 1-3.68.91 12.75 12.75 0 0 1-12.18-9.07 2.84 2.84 0 1 1 5.44-1.6 7 7 0 0 0 6.74 5 4.9 4.9 0 0 0 1.51-.48 7.48 7.48 0 0 1 7 0 4.82 4.82 0 0 0 1.51.48 7.05 7.05 0 0 0 6.74-5 2.84 2.84 0 1 1 5.44 1.6 12.76 12.76 0 0 1-12.18 9.07z"/>
            <path fill="#FFAEE4" fill-rule="nonzero" d="M810 275.79a10.68 10.68 0 0 1-4.17-1 5.78 5.78 0 0 0-1.78-.56 5.9 5.9 0 0 0-1.79.56 10.63 10.63 0 0 1-4.16 1 14.64 14.64 0 0 1-13.82-9.79 2.83 2.83 0 1 1 5.35-1.85 9 9 0 0 0 8.49 6 5.86 5.86 0 0 0 2-.61 8.4 8.4 0 0 1 7.91 0 5.9 5.9 0 0 0 2 .61 9 9 0 0 0 8.48-6 2.84 2.84 0 0 1 5.36 1.85 14.65 14.65 0 0 1-13.87 9.79z"/>
            <path fill="#FFAEE4" fill-rule="nonzero" d="M811 286.28a11.89 11.89 0 0 1-4.65-1.16 4 4 0 0 0-4.48 0 12 12 0 0 1-4.66 1.16 16.73 16.73 0 0 1-15.5-10.63 2.83 2.83 0 0 1 5.28-2 11 11 0 0 0 10.22 7 7.24 7.24 0 0 0 2.49-.73 9.24 9.24 0 0 1 8.82 0 7.26 7.26 0 0 0 2.48.73 11 11 0 0 0 10.22-7 2.83 2.83 0 0 1 5.29 2A16.73 16.73 0 0 1 811 286.28zM804.07 233.61a2.23 2.23 0 0 1-2.23-2.23v-11.44a2.23 2.23 0 1 1 4.46 0v11.44a2.23 2.23 0 0 1-2.23 2.23z"/>
            <path stroke="#000" stroke-linejoin="round" stroke-width="1.62" d="M965.54 173.27v-72.28"/>
            <path fill="#9FE2A2" fill-rule="nonzero" d="M965 163.52c-1.45 0-6.3 0-7.83-.54a17.41 17.41 0 0 1-6.93-4.9 5.07 5.07 0 0 0-2.48-1.74 2.16 2.16 0 0 0-.46-.05 8.18 8.18 0 0 0-1.31.16 9.88 9.88 0 0 1-1.77.2 5.73 5.73 0 0 1-1-.1c-2-.43-6.73-3.6-6.62-6.57 0-.85.55-2.84 4.63-2.84a11.91 11.91 0 0 1 3.3.43 8.22 8.22 0 0 1 3.56 2.67c1 1.12 1.69 1.81 2.82 1.95.62.074 1.245.107 1.87.1h2a12.58 12.58 0 0 1 4.57.71c.95.365 1.87.806 2.75 1.32a8.08 8.08 0 0 0 3.55 1.25h.11a14.89 14.89 0 0 0 3.77-1.11c2.66-1 6-2.23 9.51-2.23h.46c1.52 0 2.12-.67 3.12-1.78a13 13 0 0 1 2.13-2 7.8 7.8 0 0 1 4.51-1.33 9 9 0 0 1 4.27 1 1.91 1.91 0 0 1 1 1.75c0 2.44-4.91 5.91-5.23 6.07a5.48 5.48 0 0 1-2.49.57 13.9 13.9 0 0 1-1.48-.11l-.92-.1H984a3.48 3.48 0 0 0-2.56 1.07c-.52.45-1 .92-1.48 1.38a17.09 17.09 0 0 1-5.43 3.94c-1.83.77-7.76.83-9.53.83z"/>
            <path fill="#9FE2A2" fill-rule="nonzero" d="M965.07 152.76c-1.63 0-5.58-.06-6.92-.56-2.6-1-4.62-3.16-6.1-4.95a4.38 4.38 0 0 0-2-1.68 3.16 3.16 0 0 0-.66-.06 9.08 9.08 0 0 0-.91.05c-.38 0-.76.05-1.13.05a5.49 5.49 0 0 1-1.33-.14c-1.77-.43-5.91-3.3-5.81-6.24 0-.67.39-2.85 4.2-2.85a9.44 9.44 0 0 1 3 .45 7.44 7.44 0 0 1 3.18 2.72c.85 1.09 1.42 1.76 2.3 1.89a11.83 11.83 0 0 0 1.58.09h1.76a9.91 9.91 0 0 1 4.09.73 16.37 16.37 0 0 1 2.43 1.33 6.18 6.18 0 0 0 2.95 1.21 11.59 11.59 0 0 0 3.21-1.08c2.33-1 5.24-2.26 8.38-2.26h.4c1.14 0 1.59-.52 2.52-1.7a12.13 12.13 0 0 1 1.86-2 6.5 6.5 0 0 1 4.1-1.38 7.27 7.27 0 0 1 3.87 1.1c.6.365.953 1.028.92 1.73-.05 2.19-3.8 5.34-4.29 5.62a6.67 6.67 0 0 1-3.46.84 12.35 12.35 0 0 1-1.27-.06h-.35a2.57 2.57 0 0 0-2 1c-.45.46-.87.92-1.29 1.38a15.31 15.31 0 0 1-4.77 4c-1.65.69-6.46.77-8.46.77z"/>
            <path fill="#9FE2A2" fill-rule="nonzero" d="M965.17 142c-1.75 0-4.86-.08-6-.59-2.26-1-4-3.2-5.26-5-.51-.74-1.06-1.47-1.59-1.61a6.63 6.63 0 0 0-1.41-.15 9.38 9.38 0 0 1-2.08-.26c-1.52-.43-5.06-3-5-5.91 0-1.38 1.06-2.85 3.78-2.85a7.5 7.5 0 0 1 2.67.47 7 7 0 0 1 2.78 2.78c.7 1.05 1.17 1.7 1.79 1.8a7.76 7.76 0 0 0 1.28.09h1.49a7.62 7.62 0 0 1 3.63.77c.74.384 1.443.836 2.1 1.35a4.6 4.6 0 0 0 2.37 1.16 10 10 0 0 0 2.52-1.06c2-1 4.52-2.28 7.28-2.28h.34c.77 0 1.09-.39 1.91-1.61a11.48 11.48 0 0 1 1.59-2 5.29 5.29 0 0 1 3.69-1.45 5.84 5.84 0 0 1 3.49 1.15 2 2 0 0 1 .81 1.72c0 2-2.78 4.76-3.33 5.13a7.54 7.54 0 0 1-4 1.25 5.25 5.25 0 0 1-.56 0h-.26c-.4 0-.79.07-1.51.92-.37.45-.73.92-1.08 1.38a13.9 13.9 0 0 1-4.12 4c-1.38.69-5.17.8-7.32.8z"/>
            <path fill="#9FE2A2" fill-rule="nonzero" d="M965.26 131.24c-1.81 0-4.17-.11-5.15-.63-1.91-1-3.35-3.25-4.39-5.06-.25-.42-.81-1.41-1.18-1.53a12.1 12.1 0 0 0-1.25-.3 13.45 13.45 0 0 1-1.69-.42c-1.52-.52-4.2-2.83-4.13-5.57 0-1.74 1.35-2.86 3.34-2.86a5.52 5.52 0 0 1 2.4.52 6.53 6.53 0 0 1 2.35 2.83c.4.73.89 1.63 1.29 1.71.33.063.665.09 1 .08h1.23a5.78 5.78 0 0 1 3.19.82c.63.409 1.223.874 1.77 1.39a3.34 3.34 0 0 0 1.71 1.07 10.44 10.44 0 0 0 1.85-1c1.69-1 3.81-2.34 6.19-2.34h.24c.45 0 .7-.34 1.35-1.51a11.14 11.14 0 0 1 1.31-2 4.31 4.31 0 0 1 3.3-1.55 4.68 4.68 0 0 1 3.11 1.23 2.17 2.17 0 0 1 .69 1.73c0 1.73-1.8 4.14-2.35 4.59a7.55 7.55 0 0 1-4.12 1.69 2.23 2.23 0 0 1-.37 0h-.16c-.18 0-.41 0-1 .82-.31.45-.6.92-.89 1.38a13 13 0 0 1-3.43 4.07c-1.19.72-4.41.84-6.21.84z"/>
            <path fill="#9FE2A2" fill-rule="nonzero" d="M965.33 120.48c-2.16 0-3.61-.24-4.3-.71-1.53-1.05-2.62-3.17-3.5-5.1a5.56 5.56 0 0 0-.83-1.46c-.56-.23-1.28-.55-1.92-.83l-.44-.19a6 6 0 0 1-3.25-5.21 2.77 2.77 0 0 1 2.92-2.87 4 4 0 0 1 2.14.6 6.23 6.23 0 0 1 1.9 2.87 5.82 5.82 0 0 0 .88 1.63c.19.016.38.016.57 0h1a4.21 4.21 0 0 1 2.79.92 9.46 9.46 0 0 1 1.42 1.41c.46.54.7.8 1 .91a12.29 12.29 0 0 0 1.2-.87c1.3-1 3.1-2.43 5.14-2.43h.21a6 6 0 0 0 .71-1.39 11.62 11.62 0 0 1 1-2 3.48 3.48 0 0 1 2.9-1.68 3.68 3.68 0 0 1 2.76 1.35c1.47 1.7-.29 5.17-.8 5.7-.71.74-2.71 2.19-4.1 2.19h-.32s-.18.13-.49.69c-.31.56-.47.91-.7 1.37a12.53 12.53 0 0 1-2.71 4.1c-1 .83-3.37 1-5.18 1z"/>
            <path fill="#9FE2A2" fill-rule="nonzero" d="M965.36 109.72c-1.73 0-2.91-.28-3.5-.84-.9-.86-1.66-2.38-2.55-5.11a7.89 7.89 0 0 0-.57-1.43 11.32 11.32 0 0 1-1-.76 7.84 7.84 0 0 0-.74-.58 5.61 5.61 0 0 1-2.32-4.81c0-2.13 1.36-2.88 2.49-2.88a3 3 0 0 1 1.93.73 6.63 6.63 0 0 1 1.39 2.88c.149.523.336 1.034.56 1.53h.79a3.08 3.08 0 0 1 2.42 1.07c.376.445.71.924 1 1.43.08.14.21.34.32.51l.46-.49c1-1.05 2.29-2.48 3.94-2.57.174-.41.32-.83.44-1.26a14.9 14.9 0 0 1 .73-2 2.82 2.82 0 0 1 2.52-1.85 2.9 2.9 0 0 1 2.41 1.52 6.24 6.24 0 0 1 .06 5c-.46.67-2.59 2.68-4 2.74a3.57 3.57 0 0 0-.23.52c-.18.45-.35.92-.51 1.38a13.43 13.43 0 0 1-2 4.09c-.73.98-2.61 1.18-4.04 1.18z"/>
            <path fill="#9FE2A2" fill-rule="nonzero" d="M963.69 103.76c1.43-4.19-1.65-6-2.1-9.82-.16-1.35 1.39-8.6 4.4-8.6 3.01 0 4.27 6.76 3 10.32-.53 1.54-1.74 2.77-2 4.42l.07 3.68h-3.37z"/>
            <path stroke="#000" stroke-linejoin="round" stroke-width="1.62" d="M688.45 486.49v-72.28"/>
            <path fill="#DDA812" fill-rule="nonzero" d="M688.24 433.7c-2.16 0-3.61-.24-4.3-.71-1.53-1.05-2.62-3.17-3.5-5.1a5.8 5.8 0 0 0-.83-1.47c-.56-.22-1.28-.54-1.92-.82l-.44-.19a6 6 0 0 1-3.25-5.22 2.77 2.77 0 0 1 2.92-2.86 4 4 0 0 1 2.14.6 6.23 6.23 0 0 1 1.9 2.87c.2.589.498 1.14.88 1.63.19.016.38.016.57 0h1a4.25 4.25 0 0 1 2.79.91 10 10 0 0 1 1.42 1.42 3.1 3.1 0 0 0 1 .91 11.19 11.19 0 0 0 1.19-.87c1.31-1 3.11-2.43 5.15-2.43h.21a6.92 6.92 0 0 0 .71-1.39 11.53 11.53 0 0 1 1-2 3.47 3.47 0 0 1 2.91-1.68 3.68 3.68 0 0 1 2.76 1.35c1.47 1.7-.29 5.17-.8 5.7-.71.74-2.71 2.19-4.1 2.19a1.66 1.66 0 0 1-.32 0s-.19.13-.49.69c-.3.56-.47.92-.7 1.38a12.8 12.8 0 0 1-2.71 4.1c-1.01.81-3.38.99-5.19.99z"/>
            <path fill="#DDA812" fill-rule="nonzero" d="M688.27 422.94c-1.73 0-2.91-.28-3.5-.85-.9-.85-1.66-2.37-2.55-5.1a8.46 8.46 0 0 0-.57-1.44 8.49 8.49 0 0 1-1-.76c-.26-.2-.55-.43-.72-.54a5.62 5.62 0 0 1-2.33-4.81c0-2.12 1.37-2.87 2.5-2.87a3 3 0 0 1 1.93.73 6.59 6.59 0 0 1 1.39 2.87c.149.526.336 1.041.56 1.54h.79a3.1 3.1 0 0 1 2.42 1.06c.376.449.71.93 1 1.44.08.14.21.34.32.5.15-.15.32-.33.45-.48 1-1 2.3-2.48 3.95-2.58.171-.411.318-.832.44-1.26a16 16 0 0 1 .73-2 2.82 2.82 0 0 1 2.52-1.84 2.9 2.9 0 0 1 2.41 1.52 6.24 6.24 0 0 1 .06 5c-.46.67-2.59 2.67-4 2.74a3.34 3.34 0 0 0-.23.51c-.18.46-.35.93-.51 1.39a13.48 13.48 0 0 1-2 4.08c-.75.95-2.63 1.15-4.06 1.15z"/>
            <path fill="#DDA812" fill-rule="nonzero" d="M686.6 417c1.43-4.19-1.65-6-2.1-9.83-.16-1.34 1.39-8.59 4.4-8.59 3.01 0 4.27 6.76 3 10.31-.53 1.54-1.74 2.78-2 4.42l.1 3.69h-3.4z"/>
            <path fill="#9FE2A2" fill-rule="nonzero" d="M288.07 346.41c0-3.93-5.25-5.93-5.25-9.58 0-4.09 5.73-6.51 5.15-11-.69-5.41-5.42-9.75-11.28-10.35-7.74-.79-14.3 4.8-14.3 11.8 0 3.93 5.25 5.92 5.25 9.57 0 3.65-5.25 5.65-5.25 9.58 0 3.93 5.25 5.92 5.25 9.57 0 4.1-5.73 6.51-5.15 11 .69 5.41 5.42 9.74 11.28 10.34 7.74.79 14.3-4.79 14.3-11.8 0-3.93-5.25-5.92-5.25-9.57 0-3.65 5.25-5.63 5.25-9.56z"/>
            <path stroke="#000" stroke-linejoin="round" stroke-width="1.62" d="M275.23 321.54v70.51M267.86 366.3c3.69 0 3.69 2.94 7.37 2.94s3.68-2.94 7.36-2.94M267.86 356.23c3.69 0 3.69 2.95 7.37 2.95s3.68-2.95 7.36-2.95M267.86 346.16c3.69 0 3.69 2.95 7.37 2.95s3.68-2.95 7.36-2.95M267.86 336.1c3.69 0 3.69 2.94 7.37 2.94s3.68-2.94 7.36-2.94M267.86 326c3.69 0 3.69 3 7.37 3s3.68-3 7.36-3"/>
            <path fill="#FFAEE4" fill-rule="nonzero" d="M548.07 50c0-3.93-5.25-5.92-5.25-9.57 0-4.1 5.74-6.51 5.16-11-.69-5.41-5.43-9.74-11.28-10.34-7.75-.79-14.3 4.79-14.3 11.8 0 3.93 5.25 5.92 5.25 9.57 0 3.65-5.25 5.63-5.25 9.54 0 3.91 5.25 5.93 5.25 9.58 0 4.09-5.74 6.51-5.16 11 .7 5.41 5.43 9.75 11.29 10.35 7.74.79 14.29-4.8 14.29-11.8 0-3.93-5.25-5.92-5.25-9.57 0-3.65 5.25-5.56 5.25-9.56z"/>
            <path stroke="#000" stroke-linejoin="round" stroke-width="1.62" d="M535.24 25.16v70.5M527.87 69.91c3.68 0 3.68 3 7.37 3s3.68-3 7.36-3M527.87 59.85c3.68 0 3.68 2.94 7.37 2.94s3.68-2.94 7.36-2.94M527.87 49.78c3.68 0 3.68 3 7.37 3s3.68-3 7.36-3M527.87 39.71c3.68 0 3.68 3 7.37 3s3.68-3 7.36-3M527.87 29.65c3.68 0 3.68 2.94 7.37 2.94s3.68-2.94 7.36-2.94"/>
            <path fill="#F50" fill-rule="nonzero" d="M883.74 411.17c0-3.93-5.25-5.93-5.25-9.58 0-4.09 5.74-6.51 5.16-11-.7-5.41-5.43-9.75-11.29-10.35-7.74-.79-14.29 4.8-14.29 11.8 0 3.93 5.25 5.92 5.25 9.57 0 3.65-5.25 5.65-5.25 9.58 0 3.93 5.25 5.92 5.25 9.57 0 4.1-5.74 6.51-5.16 11 .69 5.41 5.43 9.74 11.28 10.34 7.75.79 14.3-4.79 14.3-11.8 0-3.93-5.25-5.92-5.25-9.57 0-3.65 5.25-5.63 5.25-9.56z"/>
            <path stroke="#000" stroke-linejoin="round" stroke-width="1.62" d="M870.9 386.3v70.51M863.54 421c3.68 0 3.68 2.95 7.36 2.95s3.69-2.95 7.37-2.95M863.54 410.92c3.68 0 3.68 2.95 7.36 2.95s3.69-2.95 7.37-2.95M863.54 400.86c3.68 0 3.68 2.94 7.36 2.94s3.69-2.94 7.37-2.94M863.54 390.79c3.68 0 3.68 2.95 7.36 2.95s3.69-2.95 7.37-2.95"/>
            <path fill="#9FE2A2" fill-rule="nonzero" d="M1088.37 230.49a7.62 7.62 0 1 0-15.23 0h15.23zM608.61 208.85c1.25-.45 4.29-1.59 4.29-2.86 0-1.27-3.84-1.75-4.29-2.85-.45-1.1 1.87-4.2 1-5.06-.87-.86-3.92 1.49-5.06 1-1.14-.49-1.59-4.29-2.86-4.29-1.27 0-1.75 3.83-2.85 4.29-1.1.46-4.2-1.88-5.06-1-.86.88 1.49 3.92 1 5.06-.49 1.14-4.29 1.59-4.29 2.85s3 2.41 4.29 2.86h13.83z"/>
            <path fill="#FFAEE4" fill-rule="nonzero" d="M323.79 189.1c1.26-.45 4.3-1.59 4.3-2.86 0-1.27-3.84-1.75-4.3-2.85-.46-1.1 1.88-4.2 1-5.06-.88-.86-3.92 1.49-5.06 1-1.14-.49-1.59-4.29-2.85-4.29s-1.76 3.84-2.85 4.29c-1.09.45-4.2-1.88-5.06-1-.86.88 1.49 3.92 1 5.06-.49 1.14-4.3 1.59-4.3 2.85s3 2.41 4.3 2.86h13.82z"/>
        </g>
        <g transform="translate(1015 31)">
            <circle cx="288.61" cy="25.09" r="21.13" fill="#F50" fill-rule="nonzero"/>
            <path stroke="#000" stroke-width="1.62" d="M288.61 13.63v52.53"/>
            <path stroke="#000" stroke-linejoin="round" stroke-width="1.62" d="M298.78 22.51v4.64a10.17 10.17 0 1 1-20.34 0v-4.64M291.77 15.55a3.16 3.16 0 0 1-6.31 0M283.6 23.88a5.16 5.16 0 0 1-10.32 0M303.94 23.88a5.16 5.16 0 0 1-10.32 0"/>
            <path fill="#F50" fill-rule="nonzero" d="M426.57 424.57c0 4.76-6.85 9.07-8.53 12.83-3.04 6.88-5.56 12.6-11.75 12.6s-8.69-5.7-11.76-12.58c-1.67-3.76-8.52-8.07-8.52-12.83s6.85-9.08 8.52-12.84c3.07-6.88 5.57-12.57 11.76-12.57 6.19 0 8.71 5.67 11.71 12.55 1.72 3.76 8.57 8.07 8.57 12.84z"/>
            <path stroke="#000" stroke-linejoin="round" stroke-width="1.62" d="M406.29 406.3v56.22"/>
            <path stroke="#231F20" stroke-width="1.62" d="M413 413a6.7 6.7 0 0 1-6.7-6.71V406c0 3.7-3 6.7-6.7 6.7M413 422.11c-3.7 0-6.7-3-6.7-6.7v-.31c0 3.7-3 6.7-6.7 6.7M413 431.22c-3.7 0-6.7-3-6.7-6.7v-.31c0 3.7-3 6.7-6.7 6.7"/>
            <path fill="#DDA812" fill-rule="nonzero" d="M199.34 158.39c0 4.76-6.85 9.07-8.52 12.83-3.07 6.88-5.57 12.58-11.76 12.58-6.19 0-8.69-5.7-11.75-12.58-1.68-3.76-8.53-8.07-8.53-12.83s6.85-9.08 8.53-12.84c3.06-6.88 5.56-12.57 11.75-12.57s8.69 5.69 11.76 12.57c1.67 3.76 8.52 8.07 8.52 12.84z"/>
            <path stroke="#000" stroke-linejoin="round" stroke-width="1.62" d="M179.06 140.12v56.22"/>
            <path stroke="#231F20" stroke-width="1.62" d="M185.76 146.83a6.7 6.7 0 0 1-6.7-6.71v-.3c0 3.7-3 6.7-6.7 6.7M185.76 155.93c-3.7 0-6.7-3-6.7-6.7v-.31a6.71 6.71 0 0 1-6.7 6.71M185.76 165c-3.7 0-6.7-3-6.7-6.7v-.3c0 3.7-3 6.7-6.7 6.7M185.76 174.14c-3.7 0-6.7-3-6.7-6.7v-.3c0 3.7-3 6.7-6.7 6.7"/>
            <path stroke="#000" stroke-linejoin="round" stroke-width="1.62" d="M33.37 181.76v59.43"/>
            <path fill="#9FE2A2" fill-rule="nonzero" d="M33.38 185.92a2.92 2.92 0 0 1-2.92-2.92v-5.47a2.92 2.92 0 0 1 5.84 0V183a2.92 2.92 0 0 1-2.92 2.92z"/>
            <path fill="#9FE2A2" fill-rule="nonzero" d="M41.59 188.92a12.62 12.62 0 0 1-5.36-1 16.38 16.38 0 0 1-2.1-1.21c-.22-.14-.52-.34-.76-.48l-.77.48a15.57 15.57 0 0 1-2.09 1.21 12.65 12.65 0 0 1-5.36 1 2.65 2.65 0 1 1 0-5.29 7.83 7.83 0 0 0 3.15-.51 12.2 12.2 0 0 0 1.42-.84 6.72 6.72 0 0 1 3.65-1.46 6.78 6.78 0 0 1 3.63 1.46 12.2 12.2 0 0 0 1.42.84 7.8 7.8 0 0 0 3.15.51 2.65 2.65 0 0 1 0 5.29h.02z"/>
            <path fill="#9FE2A2" fill-rule="nonzero" d="M43.68 197.71a15.19 15.19 0 0 1-6.44-1.18 18.27 18.27 0 0 1-2.54-1.47c-.41-.26-1-.63-1.33-.8-.35.17-.93.54-1.33.8a19.52 19.52 0 0 1-2.54 1.47 15.22 15.22 0 0 1-6.44 1.18 2.65 2.65 0 1 1 0-5.29 10.37 10.37 0 0 0 4.23-.7 18.86 18.86 0 0 0 1.87-1.1 8 8 0 0 1 4.21-1.72c1.54.158 3 .755 4.21 1.72a16.82 16.82 0 0 0 1.87 1.1 10.37 10.37 0 0 0 4.23.7 2.65 2.65 0 0 1 0 5.29z"/>
            <path fill="#9FE2A2" fill-rule="nonzero" d="M45.77 206.5a17.83 17.83 0 0 1-7.53-1.37 22 22 0 0 1-3-1.73 14.62 14.62 0 0 0-1.89-1.1 14 14 0 0 0-1.89 1.1 22.82 22.82 0 0 1-3 1.73A17.76 17.76 0 0 1 21 206.5a2.65 2.65 0 1 1 0-5.29 12.93 12.93 0 0 0 5.31-.89A20.22 20.22 0 0 0 28.6 199c1.57-1 3.05-2 4.77-2 1.72 0 3.2 1 4.77 2 .739.504 1.51.959 2.31 1.36a13 13 0 0 0 5.32.89 2.65 2.65 0 0 1 0 5.29v-.04z"/>
            <path fill="#9FE2A2" fill-rule="nonzero" d="M47.86 215.3a20.4 20.4 0 0 1-8.61-1.57 27.13 27.13 0 0 1-3.43-2 13 13 0 0 0-2.45-1.38 13 13 0 0 0-2.46 1.38 26.45 26.45 0 0 1-3.43 2 20.36 20.36 0 0 1-8.6 1.57 2.65 2.65 0 1 1 0-5.3 15.67 15.67 0 0 0 6.39-1.08A23.3 23.3 0 0 0 28 207.3c1.78-1.15 3.46-2.24 5.34-2.24s3.55 1.09 5.33 2.24a23.3 23.3 0 0 0 2.76 1.62 15.71 15.71 0 0 0 6.4 1.08 2.65 2.65 0 1 1 0 5.3h.03z"/>
            <path fill="#9FE2A2" fill-rule="nonzero" d="M50 224.09a23 23 0 0 1-9.69-1.76 31.66 31.66 0 0 1-3.88-2.25 12.67 12.67 0 0 0-3-1.65 13 13 0 0 0-3 1.65 30.23 30.23 0 0 1-3.88 2.25 22.93 22.93 0 0 1-9.68 1.76 2.65 2.65 0 1 1 0-5.3 18.21 18.21 0 0 0 7.47-1.27 26.53 26.53 0 0 0 3.21-1.88c2-1.29 3.86-2.5 5.9-2.5 2.04 0 3.91 1.21 5.89 2.5a28.16 28.16 0 0 0 3.21 1.88 18.28 18.28 0 0 0 7.45 1.27 2.65 2.65 0 1 1 0 5.3z"/>
            <path fill="#9FE2A2" fill-rule="nonzero" d="M52 232.88a25.54 25.54 0 0 1-10.77-1.95 34.21 34.21 0 0 1-4.33-2.51c-1.17-.76-3-1.91-3.57-1.91-.57 0-2.4 1.15-3.58 1.91a34.21 34.21 0 0 1-4.33 2.51 25.47 25.47 0 0 1-10.76 1.95 2.65 2.65 0 1 1 0-5.3 20.85 20.85 0 0 0 8.56-1.46 31.23 31.23 0 0 0 3.69-2.12c2.19-1.42 4.26-2.76 6.46-2.76s4.26 1.34 6.45 2.76a31.34 31.34 0 0 0 3.66 2.14 20.82 20.82 0 0 0 8.52 1.44 2.65 2.65 0 1 1 0 5.3z"/>
            <path stroke="#000" stroke-linejoin="round" stroke-width="1.62" d="M112.63 433.77v-72.28"/>
            <path fill="#FFAEE4" fill-rule="nonzero" d="M112.09 424c-1.45 0-6.3 0-7.83-.53a17.51 17.51 0 0 1-6.93-4.9 5.14 5.14 0 0 0-2.48-1.75 3.15 3.15 0 0 0-.46 0 8.18 8.18 0 0 0-1.31.16 9.88 9.88 0 0 1-1.77.2 5 5 0 0 1-1-.11c-2-.42-6.73-3.59-6.62-6.56 0-.85.55-2.84 4.63-2.84a12 12 0 0 1 3.3.43 8.28 8.28 0 0 1 3.56 2.66c1 1.13 1.69 1.82 2.82 2 .62.074 1.245.107 1.87.1h2a12.5 12.5 0 0 1 4.56.71 18.46 18.46 0 0 1 2.76 1.32 8 8 0 0 0 3.54 1.25h.12a14.89 14.89 0 0 0 3.77-1.11c2.66-1 6-2.23 9.51-2.23h.46c1.52 0 2.12-.67 3.12-1.78a12.17 12.17 0 0 1 2.13-2 7.77 7.77 0 0 1 4.51-1.33 9 9 0 0 1 4.27 1.05 1.91 1.91 0 0 1 1 1.75c-.05 2.43-4.91 5.91-5.24 6.07a5.41 5.41 0 0 1-2.48.57 14.3 14.3 0 0 1-1.49-.11c-.29 0-.59-.08-.91-.1h-.44a3.51 3.51 0 0 0-2.57 1.08c-.51.45-1 .92-1.47 1.38a17.09 17.09 0 0 1-5.43 3.94c-1.8.68-7.73.68-9.5.68z"/>
            <path fill="#FFAEE4" fill-rule="nonzero" d="M112.16 413.26c-1.63 0-5.58-.06-6.92-.56-2.6-1-4.63-3.16-6.1-4.95a4.38 4.38 0 0 0-2-1.68 2.6 2.6 0 0 0-.67-.07c-.3 0-.6 0-.91.05-.31.05-.75.06-1.12.06a5.49 5.49 0 0 1-1.33-.14c-1.77-.43-5.91-3.3-5.81-6.24 0-.67.39-2.85 4.2-2.85a9.49 9.49 0 0 1 3 .45 7.44 7.44 0 0 1 3.18 2.72c.85 1.09 1.42 1.76 2.3 1.88a10.23 10.23 0 0 0 1.58.1h1.75a9.88 9.88 0 0 1 4.09.74 17.07 17.07 0 0 1 2.44 1.33 6.13 6.13 0 0 0 3 1.21 11.7 11.7 0 0 0 3.16-1.11c2.33-1 5.24-2.26 8.38-2.26h.4c1.13 0 1.59-.52 2.52-1.7a12.13 12.13 0 0 1 1.86-2 6.5 6.5 0 0 1 4.1-1.38 7.35 7.35 0 0 1 3.87 1.09 2 2 0 0 1 .92 1.74c0 2.18-3.8 5.34-4.29 5.62a6.77 6.77 0 0 1-3.46.84c-.37 0-.77 0-1.27-.06h-.35a2.6 2.6 0 0 0-2 1c-.44.46-.86.92-1.28 1.38a15.31 15.31 0 0 1-4.77 4c-1.63.71-6.47.79-8.47.79z"/>
            <path fill="#FFAEE4" fill-rule="nonzero" d="M112.26 402.5c-1.75 0-4.86-.08-6-.59-2.26-1-4-3.2-5.26-5-.51-.74-1.06-1.47-1.59-1.61a6.7 6.7 0 0 0-1.41-.15 9.38 9.38 0 0 1-2.08-.26c-1.52-.44-5.06-3-5-5.91 0-1.38 1.05-2.86 3.78-2.86a7.49 7.49 0 0 1 2.67.48 7 7 0 0 1 2.78 2.78c.7 1.05 1.17 1.7 1.79 1.8a7.76 7.76 0 0 0 1.28.09h1.49a7.62 7.62 0 0 1 3.63.77 14 14 0 0 1 2.1 1.35 4.61 4.61 0 0 0 2.36 1.16 9.87 9.87 0 0 0 2.53-1.06c2-1 4.52-2.29 7.28-2.29h.33c.77 0 1.1-.39 1.92-1.61a11.13 11.13 0 0 1 1.59-2 5.3 5.3 0 0 1 3.69-1.46 5.85 5.85 0 0 1 3.49 1.16 2 2 0 0 1 .81 1.71c-.05 2-2.78 4.77-3.33 5.14a7.54 7.54 0 0 1-4 1.25 5.12 5.12 0 0 1-.56 0h-.26c-.4 0-.79.07-1.51.92-.38.45-.73.92-1.08 1.38a14 14 0 0 1-4.12 4c-1.38.7-5.18.81-7.32.81z"/>
            <path fill="#FFAEE4" fill-rule="nonzero" d="M112.35 391.74c-1.81 0-4.17-.11-5.15-.64-1.91-1-3.35-3.24-4.39-5.05-.25-.42-.81-1.41-1.18-1.53a12.1 12.1 0 0 0-1.25-.3 13 13 0 0 1-1.69-.42c-1.52-.53-4.2-2.83-4.13-5.57 0-1.74 1.35-2.86 3.34-2.86a5.44 5.44 0 0 1 2.39.52 6.48 6.48 0 0 1 2.36 2.83c.4.73.89 1.63 1.29 1.71.33.064.665.09 1 .08h1.23a5.8 5.8 0 0 1 3.19.82c.63.409 1.223.874 1.77 1.39a3.24 3.24 0 0 0 1.71 1.06 9.34 9.34 0 0 0 1.84-1c1.7-1 3.82-2.34 6.2-2.34h.24c.45 0 .7-.34 1.35-1.51a11.14 11.14 0 0 1 1.31-2 4.31 4.31 0 0 1 3.3-1.55 4.68 4.68 0 0 1 3.11 1.23 2.17 2.17 0 0 1 .69 1.73c0 1.73-1.8 4.14-2.35 4.58a7.52 7.52 0 0 1-4.12 1.7h-.53c-.18 0-.41 0-1 .82-.31.45-.6.92-.89 1.38a13 13 0 0 1-3.43 4.07c-1.2.73-4.41.85-6.21.85z"/>
            <path fill="#FFAEE4" fill-rule="nonzero" d="M112.42 381c-2.17 0-3.61-.24-4.3-.71-1.53-1-2.63-3.17-3.5-5.1a5.56 5.56 0 0 0-.83-1.46c-.56-.23-1.28-.55-1.92-.83l-.44-.19a6 6 0 0 1-3.25-5.21 2.77 2.77 0 0 1 2.92-2.87 4 4 0 0 1 2.14.6 6.23 6.23 0 0 1 1.9 2.87c.2.589.498 1.14.88 1.63.19.016.38.016.57 0h1a4.21 4.21 0 0 1 2.79.92 9.46 9.46 0 0 1 1.42 1.41c.46.53.7.8 1 .91a11.19 11.19 0 0 0 1.19-.87c1.31-1 3.11-2.43 5.15-2.43h.21a6.4 6.4 0 0 0 .71-1.39 11.9 11.9 0 0 1 1-2 3.47 3.47 0 0 1 2.91-1.68 3.68 3.68 0 0 1 2.76 1.35c1.47 1.7-.29 5.17-.8 5.7-.71.74-2.71 2.19-4.1 2.19h-.32s-.19.13-.49.7-.47.91-.7 1.37a12.69 12.69 0 0 1-2.71 4.1c-1.01.8-3.38.99-5.19.99z"/>
            <path fill="#FFAEE4" fill-rule="nonzero" d="M112.45 370.22c-1.73 0-2.91-.28-3.5-.85-.9-.85-1.66-2.37-2.55-5.1a9.17 9.17 0 0 0-.57-1.44 9.57 9.57 0 0 1-1-.75 6.66 6.66 0 0 0-.73-.54 5.66 5.66 0 0 1-2.32-4.81c0-2.13 1.37-2.88 2.5-2.88a3 3 0 0 1 1.93.73 6.63 6.63 0 0 1 1.39 2.88c.149.523.336 1.034.56 1.53h.79a3.08 3.08 0 0 1 2.42 1.07c.376.445.71.924 1 1.43.08.14.21.34.32.5.15-.15.32-.33.45-.48 1-1.05 2.3-2.48 3.95-2.57.17-.412.316-.832.44-1.26a14.9 14.9 0 0 1 .73-2 2.82 2.82 0 0 1 2.52-1.85 2.9 2.9 0 0 1 2.41 1.52 6.24 6.24 0 0 1 .06 5c-.46.67-2.59 2.68-4 2.74a3.57 3.57 0 0 0-.23.52c-.18.45-.35.92-.51 1.38a13.54 13.54 0 0 1-2 4.09c-.75.92-2.63 1.14-4.06 1.14z"/>
            <path fill="#FFAEE4" fill-rule="nonzero" d="M110.78 364.26c1.43-4.19-1.65-6-2.1-9.82-.16-1.35 1.39-8.6 4.4-8.6 3.01 0 4.27 6.76 3 10.31-.53 1.54-1.74 2.78-2.05 4.42l.07 3.69h-3.32z"/>
            <path fill="#9FE2A2" fill-rule="nonzero" d="M288.07 346.41c0-3.93-5.25-5.93-5.25-9.58 0-4.09 5.73-6.51 5.15-11-.69-5.41-5.42-9.75-11.28-10.35-7.74-.79-14.3 4.8-14.3 11.8 0 3.93 5.25 5.92 5.25 9.57 0 3.65-5.25 5.65-5.25 9.58 0 3.93 5.25 5.92 5.25 9.57 0 4.1-5.73 6.51-5.15 11 .69 5.41 5.42 9.74 11.28 10.34 7.74.79 14.3-4.79 14.3-11.8 0-3.93-5.25-5.92-5.25-9.57 0-3.65 5.25-5.63 5.25-9.56z"/>
            <path stroke="#000" stroke-linejoin="round" stroke-width="1.62" d="M275.23 321.54v70.51M267.86 366.3c3.69 0 3.69 2.94 7.37 2.94s3.68-2.94 7.36-2.94M267.86 356.23c3.69 0 3.69 2.95 7.37 2.95s3.68-2.95 7.36-2.95M267.86 346.16c3.69 0 3.69 2.95 7.37 2.95s3.68-2.95 7.36-2.95M267.86 336.1c3.69 0 3.69 2.94 7.37 2.94s3.68-2.94 7.36-2.94M267.86 326c3.69 0 3.69 3 7.37 3s3.68-3 7.36-3"/>
            <path fill="#FFAEE4" fill-rule="nonzero" d="M79.65 76.3a7.62 7.62 0 0 0-15.24 0h15.24zM323.79 189.1c1.26-.45 4.3-1.59 4.3-2.86 0-1.27-3.84-1.75-4.3-2.85-.46-1.1 1.88-4.2 1-5.06-.88-.86-3.92 1.49-5.06 1-1.14-.49-1.59-4.29-2.85-4.29s-1.76 3.84-2.85 4.29c-1.09.45-4.2-1.88-5.06-1-.86.88 1.49 3.92 1 5.06-.49 1.14-4.3 1.59-4.3 2.85s3 2.41 4.3 2.86h13.82z"/>
            <path fill="#F50" fill-rule="nonzero" d="M18.66 366.82c1.25-.45 4.3-1.59 4.3-2.85s-3.84-1.76-4.3-2.86c-.46-1.1 1.88-4.19 1-5.05-.88-.86-3.92 1.49-5.06 1-1.14-.49-1.59-4.29-2.85-4.29s-1.76 3.84-2.86 4.29c-1.1.45-4.2-1.87-5-1-.8.87 1.49 3.91 1 5.05C4.4 362.25.6 362.7.6 363.97c0 1.27 3 2.4 4.29 2.85h13.77z"/>
        </g>
    </g>
</svg>
