<?xml version="1.0" encoding="UTF-8"?>
<svg width="205px" height="43px" viewBox="0 0 205 43" version="1.1" xmlns="http://www.w3.org/2000/svg" xmlns:xlink="http://www.w3.org/1999/xlink">
    <!-- Generator: sketchtool 50.2 (55047) - http://www.bohemiancoding.com/sketch -->
    <title>9E5DE141-AB5D-4066-97CF-D9A68FE8DB57</title>
    <desc>Created with sketchtool.</desc>
    <defs>
        <polygon id="path-1" points="0.103693493 0.468832192 71.4207363 0.468832192 71.4207363 33.4232842 0.103693493 33.4232842"></polygon>
    </defs>
    <g id="character_selection" stroke="none" stroke-width="1" fill="none" fill-rule="evenodd">
        <g id="character_selection_mobile" transform="translate(-85.000000, -473.000000)">
            <g id="pleasewait" transform="translate(85.000000, 473.000000)">
                <path d="M40.0318664,10.8152945 C40.0318664,4.44765753 35.0437671,0.000140410959 27.9017637,0.000140410959 C17.8307877,0.000140410959 11.3234418,7.61883904 11.3234418,19.4091473 C11.3234418,20.1884281 11.9573973,20.8216815 12.7366781,20.8216815 C13.5152568,20.8216815 14.1492123,20.1884281 14.1492123,19.4091473 C14.1492123,7.98811986 20.8025856,2.87575685 27.3962842,2.87575685 C33.5392637,2.87575685 37.2067979,5.84404452 37.2067979,10.8152945 C37.2067979,16.3095753 33.4676541,22.1927945 27.9017637,22.1927945 C26.6949315,22.1927945 25.3399658,21.9274178 23.8684589,21.4022808 C23.6627568,21.3327774 23.5188356,21.3327774 23.3524486,21.3327774 C23.0400342,21.3327774 22.7184932,21.4401918 22.4657534,21.6465959 C22.524726,21.4444041 22.5836986,21.2436164 22.6419692,21.0435308 L23.0316096,19.7103288 L23.0330137,19.7075205 C24.2251027,15.511339 25.5056507,11.1852774 26.8922089,8.46200685 C27.5366952,7.33450685 28.6164555,6.08414726 29.7474658,5.9514589 C30.3708904,5.81315411 31.0539897,5.29714384 30.9304281,4.30935274 C30.8581164,3.58342808 30.1153425,3.13411301 29.4694521,3.13411301 C27.8182192,3.13411301 25.4501884,5.02193836 24.4055308,7.1660137 C22.9501712,9.97633904 21.6906849,14.2195582 20.3581849,18.7127089 L20.2858733,18.957024 C17.1638356,29.5896438 14.2159075,39.6332397 7.68118151,39.6332397 C4.82241438,39.6332397 2.82506849,37.7608596 2.82506849,35.0804144 C2.82506849,32.4919384 4.96914384,29.3649863 7.63063356,29.3649863 C7.90794521,29.3649863 8.16981164,29.3649863 8.38674658,29.450637 C8.80517123,29.5798151 9.27063356,29.4969726 9.63148973,29.2301918 C9.99655822,28.9606027 10.2057705,28.5506027 10.2057705,28.1040959 C10.2057705,27.5199863 9.88422945,26.5399178 7.73172945,26.5399178 C3.54046233,26.5399178 0,30.4974007 0,35.1815103 C0,39.3980514 3.20909247,42.4583082 7.63063356,42.4583082 C15.7751712,42.4583082 19.3430137,32.1984795 22.0417123,23.0893185 C22.1624658,23.5351233 22.4847089,23.8882568 22.922089,24.0335822 C24.6329966,24.6956199 26.2119178,25.017863 27.7501199,25.017863 C33.787089,25.017863 40.0318664,19.7054144 40.0318664,10.8152945" id="Fill-1" fill="#FFFFFF"></path>
                <path d="M59.2396644,17.5866832 C60.5342534,17.5866832 61.0621986,17.9538579 61.0621986,18.8531901 C61.0621986,22.0433271 56.2032774,24.3685325 51.8273699,25.8154675 C53.1219589,22.8787723 55.916137,17.5866832 59.2396644,17.5866832 M74.7571815,17.5866832 C76.4266678,17.5866832 77.5260856,18.8433613 77.6384144,20.8708955 L76.4512397,24.0357586 C74.4967192,29.0203476 71.5431747,36.5491832 67.6797671,36.5491832 C66.9250582,36.5491832 66.0587226,36.1700736 66.0587226,33.2172312 C66.1563082,28.3913065 70.4290137,17.6807586 74.7571815,17.5866832 M95.9339623,16.174149 C95.9339623,15.6806045 96.018911,14.7686353 96.5889795,14.1978647 C96.8578664,13.9296798 97.0389966,13.8728134 97.0305719,13.8391147 C97.0354863,13.8510497 97.0516336,13.8966832 97.0516336,14.0005873 C97.0516336,14.8402449 96.570726,15.9712551 95.9964452,16.9155188 C95.9529178,16.6529503 95.9339623,16.4156558 95.9339623,16.174149 M97.1702808,20.0628305 C98.9254178,18.0205531 99.92725,15.8210154 99.9265479,13.9760154 C99.8043904,12.2082414 98.6888253,11.0203647 97.1499212,11.0203647 C94.9215993,11.0203647 93.1088938,13.355399 93.1088938,16.2246969 C93.1088938,17.2623339 93.3363596,18.3294572 93.8039281,19.480125 C93.2893219,20.0024538 92.8203493,20.517762 92.2186884,21.2205188 C92.0164966,21.4908099 91.8950411,21.8144572 91.8950411,22.0889606 C91.8950411,22.555125 92.0768733,22.9791661 92.3520788,23.196101 C92.5844589,23.4284812 92.9326781,23.5520428 93.3588253,23.5520428 C93.7681233,23.5520428 94.1725068,23.3512551 94.4477123,23.0072483 C94.6477979,22.7411695 94.8710514,22.4722825 95.1062397,22.2167346 C97.4988425,26.4220428 98.2675925,27.9265462 98.3153322,30.0172654 C98.2212568,33.9242003 95.4979863,36.5491832 91.5383973,36.5491832 C88.6459315,36.5491832 86.3796986,34.393875 86.3789966,31.6663921 C86.4323527,30.844286 86.6057603,30.0994058 86.8739452,29.4436866 C86.9364281,29.306786 86.999613,29.1691832 87.0599897,29.0343887 C87.8287397,27.5088236 89.1759829,26.5849195 90.830726,26.5849195 C92.0291336,26.5849195 93.0737911,27.7749024 93.1587397,29.2162209 C93.1587397,30.0214777 93.7667192,30.6294572 94.571976,30.6294572 C95.3772329,30.6294572 95.9845103,30.0214777 95.9838082,29.2035839 C95.8749897,26.2015976 93.5406575,23.759851 90.7801781,23.759851 C88.1214966,23.759851 86.0321815,25.0116147 84.7902466,27.1971113 C84.7368904,27.2750394 84.680024,27.346649 84.6357945,27.437214 L84.5929692,27.5607757 C84.4637911,27.8177277 84.3430377,28.0831045 84.2363253,28.3632243 C82.6517877,31.8875394 80.3841507,36.5491832 77.6889623,36.5491832 C77.0746644,36.5491832 76.5235514,36.4136866 76.5235514,34.7771969 C76.5235514,32.843036 77.8729007,29.0800223 79.4349726,24.7216661 L82.5120788,16.4100394 C82.6854863,15.9944229 82.6335342,15.4966661 82.3772842,15.1119401 C82.1210342,14.7286182 81.7026096,14.508875 81.2273185,14.508875 C80.6151267,14.508875 80.0892877,14.8556901 79.8892021,15.3906558 L79.7186027,15.8308442 C79.5817021,16.1839777 79.4342705,16.5630873 79.2833288,16.9674709 C78.2969418,15.5022825 76.7776952,14.7616147 74.7571815,14.7616147 C70.1524041,14.7616147 65.9709658,21.3581216 64.1694932,27.6443202 C61.4455205,33.8097654 58.3283973,36.6474709 54.3982945,36.5498853 C52.9843562,36.5021455 51.9010856,36.0858271 51.1772671,35.3107586 C50.4738082,34.5574538 50.1410342,33.4980531 50.1873699,32.1655531 C50.2358116,31.1545942 50.3790308,30.2538579 50.6788082,29.1031901 C54.0402466,28.2628305 63.8879692,25.2496113 63.8879692,18.8531901 C63.8879692,16.3293031 62.1061541,14.7616147 59.2396644,14.7616147 C54.3905719,14.7616147 49.9606062,21.3672483 48.178089,27.5165462 C45.6879007,32.9441318 43.3563767,36.5491832 40.131839,36.5491832 C39.029613,36.5491832 38.8653322,35.4392346 38.8653322,34.7771969 C38.8653322,33.8806729 39.4669932,31.5063236 40.5144589,28.2684469 C41.451,25.5241147 42.3959658,22.8570086 43.3107432,20.2783613 C43.8323699,18.8061524 44.3504863,17.3458784 44.8622842,15.8827962 L47.4879692,8.20582705 C47.7540479,7.47569007 47.3651096,6.66130651 46.5935514,6.3818887 C45.8297158,6.17408048 45.063774,6.5510839 44.8040137,7.26437158 L42.1762226,14.9462551 C41.6700411,16.3945942 41.1582432,17.8492517 40.6485514,19.2968887 C39.6811199,22.0440291 38.722113,24.7680017 37.825589,27.3915805 C36.5078322,31.5554675 36.0402637,33.2972654 36.0402637,34.7771969 C36.0402637,37.5699709 37.645863,39.3749538 40.131839,39.3749538 C43.2349212,39.3749538 45.5362568,37.6036695 47.6276781,34.5125223 C47.9232432,35.6519572 48.459613,36.6411524 49.2290651,37.430262 C50.4702979,38.7023853 52.2366678,39.3749538 54.3358116,39.3749538 C57.813089,39.3749538 60.7392534,37.8451764 63.2947329,34.6480188 C63.6127637,37.5896284 65.2492534,39.3749538 67.7303151,39.3749538 C69.8210342,39.3749538 71.8471644,38.1533784 73.7623699,35.7425223 C74.0754863,38.007351 75.5203151,39.3749538 77.6889623,39.3749538 C80.4536541,39.3749538 82.5338425,37.2779161 84.1864795,34.6571455 C85.4017363,37.4267517 88.2394418,39.3749538 91.5383973,39.3749538 C97.0909486,39.3749538 101.039305,35.5536695 101.141103,30.0706216 C101.097575,27.1240976 100.094339,25.3254332 98.273911,22.0594743 C97.9362226,21.453601 97.5683459,20.7936695 97.1702808,20.0628305" id="Fill-3" fill="#FFFFFF"></path>
                <path d="M115.094161,17.5866832 C116.38875,17.5866832 116.916695,17.9538579 116.916695,18.8531901 C116.916695,22.0433271 112.057774,24.3685325 107.681866,25.8154675 C108.976455,22.8787723 111.770634,17.5866832 115.094161,17.5866832 M121.988339,26.6621455 C121.270137,26.4016832 120.476815,26.7155017 120.130702,27.4084298 C117.381455,33.7423682 114.236952,36.648875 110.252791,36.5498853 C108.838853,36.5021455 107.755582,36.0858271 107.031764,35.3107586 C106.328305,34.5574538 105.995531,33.4980531 106.041866,32.1655531 C106.090308,31.1545942 106.233527,30.2538579 106.533305,29.1031901 C109.894743,28.2628305 119.742466,25.2496113 119.742466,18.8531901 C119.742466,16.3293031 117.960651,14.7616147 115.094161,14.7616147 C108.986284,14.7616147 103.538339,25.2418887 103.2175,32.0897312 C103.164144,34.2773339 103.809332,36.1244401 105.083562,37.430262 C106.324795,38.7023853 108.091164,39.3749538 110.190308,39.3749538 C115.422021,39.3749538 119.411096,35.9355873 122.757791,28.5183784 L122.786575,28.435536 C122.828699,28.3175908 122.876438,28.1834983 122.876438,28.0030702 C122.876438,27.4568716 122.54226,26.936649 121.988339,26.6621455" id="Fill-5" fill="#FFFFFF"></path>
                <path d="M189.952789,12.8851627 C191.113286,12.8851627 192.022447,11.9760017 192.022447,10.8155051 C192.022447,9.65430651 191.113286,8.7458476 189.952789,8.7458476 C188.783868,8.7458476 187.832584,9.67396404 187.832584,10.8155051 C187.832584,11.9563442 188.783868,12.8851627 189.952789,12.8851627" id="Fill-7" fill="#FFFFFF"></path>
                <g id="Group-11" transform="translate(133.390411, 5.951670)">
                    <mask id="mask-2" fill="white">
                        <use xlink:href="#path-1"></use>
                    </mask>
                    <g id="Clip-10"></g>
                    <path d="M38.9722551,11.6350137 C40.6424435,11.6350137 41.7418613,12.8916918 41.853488,14.919226 L40.6670154,18.084089 C38.7117928,23.067976 35.7589503,30.5975137 31.8948408,30.5975137 C31.1408339,30.5975137 30.2744983,30.2184041 30.2744983,27.2655616 C30.3720839,22.439637 34.6440873,11.729089 38.9722551,11.6350137 M70.5738476,20.7069658 C70.4067586,20.6515034 70.2172038,20.5883185 70.0086935,20.5883185 C69.4891729,20.5883185 68.9598236,20.9035411 68.6775976,21.4005959 C66.158625,26.9208527 63.8130599,30.5975137 60.5548236,30.5975137 C59.4525976,30.5975137 59.2883168,29.4875651 59.2883168,28.8255274 C59.2883168,27.4087808 59.9468442,25.0905959 61.9975462,19.287411 C62.6455428,17.4627705 63.1713818,15.9961781 63.5898065,14.8279589 C64.1661935,13.2188493 64.5424949,12.1692774 64.7531113,11.5339178 L68.6431969,11.5339178 C69.4484538,11.5339178 70.0557312,10.9266404 70.0557312,10.1213836 C70.0557312,9.34210274 69.4224777,8.70884932 68.6431969,8.70884932 L65.7598579,8.70884932 C67.2341729,4.69871233 67.7880942,3.10294178 67.9200805,2.43598973 C67.9299092,2.42194863 67.939036,2.40720548 67.9467586,2.39176027 L67.9306113,2.38333562 C67.9320154,2.37280479 67.9341216,2.36227397 67.9355257,2.35174315 L67.9600976,2.36086986 C68.1208682,1.94384932 68.0604914,1.46855822 67.8000291,1.08874658 C67.5332483,0.700510274 67.0923579,0.468832192 66.6212791,0.468832192 C65.9964503,0.468832192 65.4692072,0.840921233 65.2705257,1.43766781 C65.1764503,1.76903767 63.1622551,7.54905479 62.7403202,8.70884932 L59.0889332,8.70884932 C58.3103545,8.70884932 57.676399,9.34210274 57.676399,10.1213836 C57.676399,10.9266404 58.2836764,11.5339178 59.0889332,11.5339178 L61.7756969,11.5339178 L59.368351,18.2841747 C58.9723921,19.3000479 58.6052175,20.3117089 58.2724435,21.2917774 C58.2366387,21.3458356 58.1931113,21.3928733 58.163625,21.4525479 L58.1215017,21.5452192 C56.3017757,25.578524 54.0369469,30.5975137 51.1536079,30.5975137 C50.5891558,30.5975137 49.9874949,30.460613 49.9874949,28.8255274 C49.9874949,26.9215548 50.7604572,24.7515034 54.4722209,14.3231815 L55.7815531,10.6423082 C55.9430257,10.1838664 55.8980942,9.74157192 55.6544812,9.39686301 C55.3975291,9.03460274 54.9320668,8.80994521 54.4392243,8.80994521 C53.8544127,8.80994521 53.3348921,9.1904589 53.1516558,9.74227397 L53.0653031,9.96622945 C51.7749264,13.3066062 50.1145668,17.6102021 48.8824606,21.4371027 C48.8726318,21.4546541 48.8599949,21.4672911 48.8508682,21.4855445 L48.8003202,21.632274 C47.208762,25.2029247 44.8028202,30.5975137 41.904036,30.5975137 C41.289738,30.5975137 40.738625,30.4620171 40.738625,28.8255274 C40.738625,26.8913664 42.0879743,23.1283527 43.6507483,18.7699966 L46.7271524,10.4583699 C46.9005599,10.0427534 46.8486079,9.54499658 46.5923579,9.16027055 C46.3368099,8.77694863 45.9176832,8.55720548 45.4430942,8.55720548 C44.8302003,8.55720548 44.3050634,8.90402055 44.1042757,9.4389863 L43.9336764,9.87917466 C43.7967757,10.2323082 43.6493442,10.6114178 43.4984024,11.0158014 C42.5120154,9.55061301 40.9927688,8.80994521 38.9722551,8.80994521 C34.3632654,8.80994521 30.1783168,15.4197911 28.3796524,21.7123082 C26.8842757,25.1123596 25.3699435,27.3624452 22.9499606,27.3624452 C22.2092928,27.3624452 21.4580942,27.0661781 21.0024606,26.6084384 C22.8285051,23.3817945 26.8948065,15.3018459 29.1477003,10.6865377 C29.2031627,10.5194486 29.2663476,10.3298938 29.2663476,10.0708356 C29.2663476,9.30489384 28.6429229,8.65830137 27.9043613,8.65830137 C27.3855428,8.65830137 26.8561935,8.97282192 26.5767757,9.46426027 C25.2253202,12.2970514 22.2457997,18.1648253 20.456964,21.6238493 C20.4106284,21.4623767 20.3341045,21.3086267 20.2287962,21.1703219 C19.9549949,20.8059555 19.5169127,20.5883185 19.0577688,20.5883185 C18.4125805,20.5883185 17.9092072,20.9842774 17.7091216,21.6519315 C17.240149,23.2926336 17.2415531,25.0877877 17.7063134,26.4961096 C15.5636421,29.5402192 14.7260908,30.5975137 13.294601,30.5975137 C12.704875,30.5975137 12.1291901,30.460613 12.1291901,28.8255274 C12.1291901,26.4097568 14.6825634,19.4481815 18.0201318,10.600887 C18.1794983,10.1873767 18.1205257,9.717 17.8635736,9.34210274 C17.586964,8.93982534 17.137649,8.70884932 16.6314675,8.70884932 C16.0585908,8.70884932 15.5404743,9.06408904 15.3396866,9.59975685 L15.3024777,9.70576712 C12.5202346,17.5484212 11.4531113,20.402274 11.0480257,21.4160411 C8.47359075,27.8517774 6.39410445,30.5975137 4.09417295,30.5975137 C3.479875,30.5975137 2.92876199,30.4620171 2.92876199,28.8255274 C2.92876199,26.8997911 3.95797432,23.9953904 8.81970377,10.600887 C8.98889897,10.1614007 8.93624486,9.67557877 8.67999486,9.30208562 C8.42023459,8.92508219 7.98355651,8.70884932 7.48158733,8.70884932 C6.90871062,8.70884932 6.39059418,9.06408904 6.19261473,9.5927363 C1.98169007,20.7554075 0.103693493,26.181589 0.103693493,28.8255274 C0.103693493,31.6611267 1.63276884,33.4232842 4.09417295,33.4232842 C6.02692979,33.4232842 7.82980651,32.382839 9.45997774,30.3293288 C9.97107363,32.3835411 11.2579401,33.4232842 13.294601,33.4232842 C15.6893099,33.4232842 17.5111421,31.6667432 19.4649606,28.9961267 C20.3853545,29.7676849 21.6069298,30.1875137 22.9499606,30.1875137 C24.6798236,30.1875137 26.196964,29.434911 27.4704914,28.2786267 C27.6726832,31.4701678 29.348488,33.4232842 31.9453887,33.4232842 C34.0361079,33.4232842 36.062238,32.2017089 37.9774435,29.7908527 C38.2905599,32.0556815 39.7353887,33.4232842 41.904036,33.4232842 C44.082512,33.4232842 45.8334366,32.1174623 47.2880942,30.2850993 C47.4643099,31.0671884 47.8160394,31.7516918 48.3250291,32.2838493 C49.0390188,33.0294315 50.0169812,33.4232842 51.1536079,33.4232842 C53.3440188,33.4232842 55.0963476,32.1750308 56.6155942,30.2261267 C57.0691216,32.2059212 58.5146524,33.4232842 60.5548236,33.4232842 C65.3119469,33.4232842 68.1882654,29.2832671 71.3032825,22.5624966 C71.3587449,22.3968116 71.4212277,22.208661 71.4212277,22.0008527 C71.4212277,21.4967774 71.1207483,21.0116575 70.5738476,20.7069658" id="Fill-9" fill="#FFFFFF" mask="url(#mask-2)"></path>
                </g>
            </g>
        </g>
    </g>
</svg>