<svg id="Layer_1" data-name="Layer 1" xmlns="http://www.w3.org/2000/svg" viewBox="0 0 300 150"><defs><style>.cls-1{fill:#efefef;}</style></defs><title>portland_text</title><path d="M234.29,110.63a1.84,1.84,0,0,0,.14-.69,2.32,2.32,0,0,0-1.29-2l-.1,0a2.29,2.29,0,0,0-2.85,1.16c-3.11,7.16-6.6,10.48-11,10.34a4.63,4.63,0,0,1-3.38-1.28,4.38,4.38,0,0,1-1-3.27,15.36,15.36,0,0,1,.48-3.15c4.28-1.11,15.49-4.74,15.49-12.4,0-3.22-2.34-5.31-6-5.31-5.85,0-11.19,7.82-13.37,15.15-2.82,6.16-5.43,10.26-8.91,10.26-.23,0-.93,0-.93-1.53s.78-4.32,3.12-10.94l1.86-5.2c.57-1.59,1-2.72,1.23-3.48H212A2.16,2.16,0,0,0,214.15,96,2.19,2.19,0,0,0,212,93.84h-2.58a69.22,69.22,0,0,0,2.28-6.67h0a2.17,2.17,0,0,0-.24-2,2.23,2.23,0,0,0-1.83-1,2.16,2.16,0,0,0-2.09,1.52c-.14.48-2.16,6.28-2.81,8.09h-3.88a2.18,2.18,0,0,0-2.17,2.06A6.06,6.06,0,0,0,193.87,94c-5.86,0-11.2,7.82-13.38,15.15-2.82,6.16-5.42,10.26-8.91,10.26-.23,0-.93,0-.93-1.53,0-.34.12-1.74,1.51-6.21.13-.35.25-.71.35-1.06a2,2,0,0,0,.1-.34c1.07-3.12,2.13-6.13,3.19-9.1q.91-2.58,1.81-5.14L180.67,87a2.16,2.16,0,0,0-.09-1.69,2.2,2.2,0,0,0-4.06.23l-3.06,9-1.78,5.07c-1.13,3.2-2.25,6.38-3.3,9.46-.11.32-.2.64-.3.94-1.06,2.83-3.32,5.58-5.57,5.58a2.81,2.81,0,0,1-1.53-.42c2.09-3.51,4.24-9.63,4.24-13.66,0-4.87-2.15-7.67-5.9-7.67A7.61,7.61,0,0,0,155,95.27a2.32,2.32,0,0,0-.24-.47,2.22,2.22,0,0,0-1.82-1,2.13,2.13,0,0,0-2.07,1.44l-.35.94c-.43,1.1-1.83,5-3.61,9.85-.63,1.75-1.32,3.64-2,5.57-2.55,5.45-4.46,7.73-6.4,7.73-.42,0-.81,0-.81-1.53,0-2.29,1-5,2.11-8,1.19-3.18,2.43-6.48,2.43-9.56,0-4.24-2.25-6.49-6.5-6.49-2.48,0-5,1.81-6.9,4-.82-2.48-3-4-6-4a6.82,6.82,0,0,0-4.11,1.57,2.26,2.26,0,0,0-.25-.49,2.23,2.23,0,0,0-1.82-1,2.15,2.15,0,0,0-2.08,1.46q-2.25,6.36-4.54,12.73c-.1.27-.19.54-.29.82l0,.07c-1.89,4.47-3.71,6.55-5.73,6.55a3.19,3.19,0,0,1-1.81-.45c2.58-4.61,4.35-10.24,4.35-13.92,0-4.28-2.67-7.13-6.84-7.26-3.36,0-6.52,2.3-9.12,6.65a36.82,36.82,0,0,0-4,8.59c-4.09,9.93-8.85,14.17-15.91,14.17-5.4,0-8.25-3-8.25-8.65,0-3.1,1-6.66,2.2-10.64.64.06,1.23.09,1.92.09C77.31,104.17,89,97.84,89,87.6c0-5.55-3.15-9.08-8.24-9.2-8.42-.17-15.31,10.45-19.07,20.75-3.25-.89-6.76-3-6.76-8.13a15.18,15.18,0,0,1,3.38-9,2,2,0,0,0,.57-1.5,2.16,2.16,0,0,0-2.19-2.19A2.09,2.09,0,0,0,55,79a19.86,19.86,0,0,0-4.45,12.1c0,5.89,3.58,10.38,9.64,12.16A40.65,40.65,0,0,0,58,114.72c0,8.16,4.72,13,12.63,13,6.12,0,11-2.59,15.1-8,.78,2.62,2.74,4,5.7,4,2.64,0,5.66-1.85,8.21-5a7.94,7.94,0,0,0,4.29,1.23,7.76,7.76,0,0,0,1.94-.25c-.14.38-.28.77-.41,1.16a2.2,2.2,0,0,0,1.4,2.83,2.39,2.39,0,0,0,.63.09,2.21,2.21,0,0,0,2.11-1.52l4-11.23.15-.32s0-.07,0-.1c.72-1.52,3.76-7.08,4.71-8.51,1.83-2.59,3.3-3.9,4.35-3.9,1.3,0,2,.37,2,2.35s-.78,4.26-2.07,8h0c-.45,1.26-4,11.75-4,11.82a2.13,2.13,0,0,0,.25,2,2.2,2.2,0,0,0,1.82,1,2.15,2.15,0,0,0,2.08-1.47s0,0,0-.06c.16-.51,2.21-6.51,3.2-9.42.44-1.29.76-2.22.78-2.29,1.91-5.35,6.37-11.87,8.83-11.87,1.53,0,2.12.59,2.12,2.11,0,2.19-1.05,5-2.15,8-1.21,3.24-2.45,6.6-2.45,9.52,0,3.64,2,5.9,5.25,5.9a6.66,6.66,0,0,0,2.16-.36l-4.22,11.8a2.17,2.17,0,0,0,.24,2,2.23,2.23,0,0,0,1.83,1,2.16,2.16,0,0,0,2.08-1.48c.52-1.58,2.47-7,5-14.11a6.08,6.08,0,0,0,3.93,1.38c3.16.1,6.24-1.65,9-5.08a7.12,7.12,0,0,0,3.91,1.13,7.85,7.85,0,0,0,3.9-1.12,5.15,5.15,0,0,0,5.23,4.89c3.53,0,6.2-1.82,8.57-5a7.72,7.72,0,0,0,1.66,2.59,8.59,8.59,0,0,0,6.34,2.43,12.78,12.78,0,0,0,9.33-4,5,5,0,0,0,5.05,4c3.53,0,6.19-1.82,8.57-5a7.85,7.85,0,0,0,1.65,2.59,8.62,8.62,0,0,0,6.35,2.43c6.33,0,11.14-4.11,15.13-12.93Zm-9.48-12.29c1.59,0,1.59.47,1.59.93,0,2.54-3.25,5.06-9.22,7.2C219.62,101.34,222.41,98.34,224.81,98.34Zm-30.94,0c1.58,0,1.58.47,1.58.93,0,2.54-3.25,5.06-9.21,7.2C188.67,101.34,191.46,98.34,193.87,98.34Zm-38.09,16.85c-2,2.86-4.15,4.43-6.15,4.35-.71,0-1.32,0-1.32-2.11a9.27,9.27,0,0,1,.86-3.82l.37-1c2.13-5.37,5.69-14.37,9.9-14.37.44,0,1.35,0,1.35,3.18a20.83,20.83,0,0,1-1.47,6.81,2.19,2.19,0,0,0-1.41-.52,2.13,2.13,0,0,0-2.1,1.64A10.65,10.65,0,0,0,155.78,115.19ZM97,115c-2,2.72-4,4.33-5.54,4.33-.49,0-1.64,0-1.64-2.65,0-4.16,1.56-8.94,4.53-13.85,1.7-2.92,3.56-4.53,5.25-4.53s2.53,1,2.53,2.82a21.6,21.6,0,0,1-1.55,7A2.22,2.22,0,0,0,97,109.33,11.78,11.78,0,0,0,97,115ZM66.11,99.8c3.24-8.42,9-17,14.63-17,3.38,0,3.89,3,3.89,4.82,0,8-10.64,12.2-18.33,12.2Zm134.71-1.58h2.37l-2.55,7.13c-.43,1.1-.85,2.27-1.26,3.45,0,.08-.1.15-.14.23-3.11,7.16-6.6,10.48-11,10.34a4.63,4.63,0,0,1-3.38-1.28,4.38,4.38,0,0,1-1-3.27,15.36,15.36,0,0,1,.48-3.15c4.28-1.11,15.5-4.74,15.5-12.4a6.22,6.22,0,0,0-.18-1.39A2.2,2.2,0,0,0,200.82,98.22Z"/><path d="M251.49,79.81a2.2,2.2,0,0,0-1.24-1.12,2.15,2.15,0,0,0-1.72.11,2.07,2.07,0,0,0-1,1.24l-11.43,32.41a2.16,2.16,0,0,0,1.28,2.81,2.08,2.08,0,0,0,.73.13,2.23,2.23,0,0,0,2.08-1.48L251.59,81.5A2.16,2.16,0,0,0,251.49,79.81Z"/><path d="M235.36,118.25a3,3,0,0,0-3,3,2.93,2.93,0,0,0,3,3,3,3,0,0,0,3-3A3.05,3.05,0,0,0,235.36,118.25Z"/><path class="cls-1" d="M48.15,55.76a1.46,1.46,0,0,1-1.31-.8L39.17,40.13H33.53V54.28a1.48,1.48,0,0,1-1.48,1.48H25.1a1.48,1.48,0,0,1-1.48-1.48V13a1.48,1.48,0,0,1,1.48-1.48H39.6c4.77,0,8.6,1.17,11.37,3.47s4.31,5.9,4.31,10.51a14.1,14.1,0,0,1-2.07,7.88,13.67,13.67,0,0,1-4.49,4.21l8.56,16a1.45,1.45,0,0,1,0,1.45,1.49,1.49,0,0,1-1.26.72ZM38.3,31.35c2.48,0,4.27-.49,5.34-1.47a5.18,5.18,0,0,0,1.56-4.07c0-2.55-.77-5.48-6.72-5.48H33.53v11Z"/><path d="M39.6,13Q46.26,13,50,16.14t3.77,9.38A12.69,12.69,0,0,1,52,32.59,12.72,12.72,0,0,1,46.73,37L56,54.28H48.15L40.07,38.66h-8V54.28H25.1V13H39.6M32.05,32.83H38.3q4.31,0,6.34-1.86a6.66,6.66,0,0,0,2-5.16q0-7-8.19-7H32.05v14M39.6,10.07H25.1a3,3,0,0,0-3,2.95V54.28a3,3,0,0,0,3,2.95h6.95a3,3,0,0,0,3-2.95V41.61h3.27l7.26,14a2.93,2.93,0,0,0,2.62,1.59H56a2.95,2.95,0,0,0,2.59-4.34L50.66,38.1a14.7,14.7,0,0,0,3.78-3.89,15.56,15.56,0,0,0,2.31-8.69c0-5.07-1.63-9-4.84-11.65-3-2.52-7.19-3.8-12.31-3.8ZM35,21.8h3.48c4.84,0,5.24,2,5.24,4a3.65,3.65,0,0,1-1.07,3c-.78.71-2.28,1.09-4.35,1.09H35V21.8Z"/><path class="cls-1" d="M82.39,56.58a22.12,22.12,0,0,1-11.22-2.85,20.24,20.24,0,0,1-7.79-8.09,25.06,25.06,0,0,1-2.8-12,25.09,25.09,0,0,1,2.8-12,20.24,20.24,0,0,1,7.79-8.09,23.53,23.53,0,0,1,22.45,0,20.37,20.37,0,0,1,7.79,8.09,25.09,25.09,0,0,1,2.8,12,25.09,25.09,0,0,1-2.8,12,20.3,20.3,0,0,1-7.79,8.09A22.14,22.14,0,0,1,82.39,56.58Zm0-36.31c-3.77,0-6.58,1.17-8.59,3.59a14.94,14.94,0,0,0-3.08,9.79,14.94,14.94,0,0,0,3.08,9.79c2,2.42,4.82,3.59,8.59,3.59S89,45.86,91,43.44,94,37.68,94,33.65A15,15,0,0,0,91,23.86C89,21.44,86.17,20.27,82.39,20.27Z"/><path d="M82.39,12.19a20.64,20.64,0,0,1,10.5,2.66,18.73,18.73,0,0,1,7.22,7.51,23.41,23.41,0,0,1,2.62,11.29,23.41,23.41,0,0,1-2.62,11.29,18.82,18.82,0,0,1-7.22,7.52,22.11,22.11,0,0,1-21,0,18.82,18.82,0,0,1-7.22-7.52,23.41,23.41,0,0,1-2.62-11.29,23.41,23.41,0,0,1,2.62-11.29,18.73,18.73,0,0,1,7.22-7.51,20.6,20.6,0,0,1,10.49-2.66m0,36.32q6.31,0,9.7-4.13t3.39-10.73q0-6.6-3.39-10.73t-9.7-4.12q-6.3,0-9.72,4.12T69.25,33.65q0,6.6,3.42,10.73t9.72,4.13m0-39.26a23.61,23.61,0,0,0-12,3A21.76,21.76,0,0,0,62.09,21a26.37,26.37,0,0,0-3,12.69,26.37,26.37,0,0,0,3,12.69A21.76,21.76,0,0,0,70.43,55a25,25,0,0,0,23.93,0,21.76,21.76,0,0,0,8.34-8.67,26.37,26.37,0,0,0,3-12.69,26.4,26.4,0,0,0-3-12.69,21.76,21.76,0,0,0-8.34-8.67,23.62,23.62,0,0,0-12-3Zm0,36.31c-3.31,0-5.75-1-7.45-3.06-1.85-2.23-2.74-5.12-2.74-8.85s.89-6.62,2.74-8.85c1.7-2.06,4.14-3.06,7.45-3.06s5.74,1,7.42,3.05c1.83,2.23,2.72,5.13,2.72,8.86s-.89,6.63-2.72,8.86c-1.68,2.05-4.11,3.05-7.42,3.05Z"/><path class="cls-1" d="M129.08,56.58c-6.07,0-10.75-1.81-13.9-5.39s-4.67-8.41-4.67-14.53V13A1.48,1.48,0,0,1,112,11.54h6.84A1.47,1.47,0,0,1,120.3,13V34.89c0,4.11.65,7.27,1.94,9.41,1.16,1.92,3.4,2.85,6.84,2.85s5.69-.93,6.85-2.85c1.28-2.14,1.94-5.3,1.94-9.41V13a1.47,1.47,0,0,1,1.47-1.48h6.84A1.47,1.47,0,0,1,147.65,13V36.66c0,6.12-1.57,11-4.67,14.53S135.16,56.58,129.08,56.58Z"/><path d="M146.18,13V36.66q0,8.66-4.31,13.56t-12.79,4.89q-8.49,0-12.79-4.89T112,36.66V13h6.83V34.89q0,6.6,2.16,10.17c1.43,2.38,4.13,3.56,8.1,3.56s6.67-1.18,8.11-3.56,2.15-5.77,2.15-10.17V13h6.84m0-2.95h-6.84a3,3,0,0,0-3,2.95V34.89c0,3.83-.58,6.74-1.73,8.64-.32.53-1.29,2.15-5.58,2.15s-5.26-1.62-5.58-2.14c-1.15-1.9-1.73-4.81-1.73-8.65V13a3,3,0,0,0-3-2.95H112A3,3,0,0,0,109,13V36.66c0,6.49,1.69,11.7,5,15.5s8.48,5.9,15,5.9,11.57-2,15-5.9,5-9,5-15.5V13a3,3,0,0,0-2.94-2.95Z"/><path class="cls-1" d="M184.61,55.76a1.47,1.47,0,0,1-1.22-.66L166.16,29.26v25a1.47,1.47,0,0,1-1.47,1.48h-6.84a1.48,1.48,0,0,1-1.48-1.48V13a1.48,1.48,0,0,1,1.48-1.48h7a1.46,1.46,0,0,1,1.23.67L181.9,36.28V13a1.47,1.47,0,0,1,1.47-1.48h6.9A1.47,1.47,0,0,1,191.74,13V54.28a1.47,1.47,0,0,1-1.47,1.48Z"/><path d="M190.27,13V54.28h-5.66L164.69,24.4V54.28h-6.84V13h7L183.37,41.2V13h6.9m0-2.95h-6.9A3,3,0,0,0,180.43,13V31.37l-13.16-20a3,3,0,0,0-2.47-1.33h-7A3,3,0,0,0,154.9,13V54.28a3,3,0,0,0,2.95,2.95h6.84a3,3,0,0,0,2.94-2.95V34.13l14.53,21.79a3,3,0,0,0,2.45,1.31h5.66a3,3,0,0,0,2.95-2.95V13a3,3,0,0,0-2.95-2.95Z"/><path class="cls-1" d="M202.41,55.76a1.47,1.47,0,0,1-1.47-1.48V13a1.47,1.47,0,0,1,1.47-1.48H217.8a23.77,23.77,0,0,1,11.28,2.65,19.22,19.22,0,0,1,7.81,7.72,23.89,23.89,0,0,1,2.78,11.74,23.89,23.89,0,0,1-2.78,11.74,19.22,19.22,0,0,1-7.81,7.72,23.77,23.77,0,0,1-11.28,2.65Zm15.39-9.08c3.79,0,6.56-1.1,8.49-3.35s3-5.54,3-9.68-1-7.39-3-9.68-4.7-3.35-8.49-3.35h-7.08V46.68Z"/><path d="M217.8,13a22.09,22.09,0,0,1,10.58,2.47,17.73,17.73,0,0,1,7.22,7.14,22.28,22.28,0,0,1,2.6,11,22.28,22.28,0,0,1-2.6,11,17.67,17.67,0,0,1-7.22,7.14,22.09,22.09,0,0,1-10.58,2.47H202.41V13H217.8m-8.55,35.13h8.55q6.3,0,9.61-3.86t3.3-10.64q0-6.78-3.3-10.64t-9.61-3.86h-8.55v29m8.55-38.08H202.41A3,3,0,0,0,199.47,13V54.28a3,3,0,0,0,2.94,2.95H217.8a25.12,25.12,0,0,0,12-2.82,20.68,20.68,0,0,0,8.41-8.3,25.42,25.42,0,0,0,3-12.46,25.42,25.42,0,0,0-3-12.46,20.65,20.65,0,0,0-8.41-8.29,25,25,0,0,0-12-2.83Zm-5.6,12h5.6c3.33,0,5.74.92,7.37,2.83s2.59,4.94,2.59,8.72-.87,6.71-2.59,8.73-4,2.82-7.37,2.82h-5.6V22.1Z"/><path class="cls-1" d="M268.32,55.76a1.48,1.48,0,0,1-1.48-1.48V25.4a15.3,15.3,0,0,1-3.73,1.43,1.24,1.24,0,0,1-.33,0,1.46,1.46,0,0,1-.84-.26,1.49,1.49,0,0,1-.63-1l-.76-6a1.48,1.48,0,0,1,1.1-1.62,11.22,11.22,0,0,0,4-2.17,10.43,10.43,0,0,0,3-3.47,1.49,1.49,0,0,1,1.33-.83h5.07A1.47,1.47,0,0,1,276.57,13V54.28a1.47,1.47,0,0,1-1.47,1.48Z"/><path d="M275.1,13V54.28h-6.78V22.74a15.54,15.54,0,0,1-5.54,2.66l-.77-6A12.67,12.67,0,0,0,266.58,17,11.86,11.86,0,0,0,270,13h5.07m0-2.95H270a3,3,0,0,0-2.65,1.66,9.08,9.08,0,0,1-2.62,2.95,9.83,9.83,0,0,1-3.46,1.9,3,3,0,0,0-2.21,3.24l.76,5.95a3,3,0,0,0,2.93,2.58,3.07,3.07,0,0,0,.67-.08,15.65,15.65,0,0,0,1.92-.59v26.6a3,3,0,0,0,2.95,2.95h6.78A3,3,0,0,0,278,54.28V13a3,3,0,0,0-2.94-2.95Z"/></svg>