<svg xmlns="http://www.w3.org/2000/svg" xmlns:xlink="http://www.w3.org/1999/xlink" width="301" height="113" viewBox="0 0 301 113">
    <defs>
        <path id="a" d="M.418.52h30v36.763h-30z"/>
        <path id="c" d="M.341.52h25.492v36.763H.341z"/>
        <path id="e" d="M.705.52h32.886v36.763H.705z"/>
        <path id="g" d="M.625.52h28.467v36.763H.625z"/>
        <path id="i" d="M.184.52H28.65v36.763H.184z"/>
        <path id="k" d="M.07.52H10.5v36.763H.069z"/>
        <path id="m" d="M.388.52h38.34v36.763H.388z"/>
        <path id="o" d="M.003.52h25.492v36.763H.003z"/>
    </defs>
    <g fill="none" fill-rule="evenodd">
        <path fill="#000" d="M39.97 32.452c-1.064 0-3.12 0-3.12-.567 0-.497.425-.568.992-.568.638 0 3.617.568 4.327.851-.71.142-1.419.284-2.2.284m16.457-12.909c.212-8.936-6.81-14.824-15.747-14.824-15.391 0-23.476 11.136-23.476 26.669 0 .851.709 1.49 1.488 1.49.71 0 1.561-.497 1.561-1.49.426-14.54 6.81-23.69 20.356-23.69 7.235 0 13.05 4.682 12.837 11.703 0 4.327-2.836 9.079-7.233 11.42-2.27-1.56-6.029-2.483-8.654-2.483-2.27 0-3.688 1.206-3.688 3.476 0 3.05 2.553 3.617 5.745 3.617 1.703 0 4.681-.568 6.242-1.206 3.05 2.411 4.681 6.738 4.681 10.852 0 7.447-4.681 13.477-12.554 13.477-4.752 0-9.291-1.845-9.291-6.242 0-2.483 1.985-4.753 4.397-4.753 1.631 0 3.262 1.419 4.043 3.689.213.638.78.993 1.418.993 1.135 0 1.773-1.064 1.419-1.987-1.277-3.334-3.688-5.674-6.951-5.674-3.76 0-7.305 3.263-7.305 7.732 0 5.815 5.177 9.22 12.27 9.22 9.22 0 15.604-7.164 15.604-16.313 0-3.9-1.135-7.873-3.547-10.923l-1.276-1.49c4.468-2.979 7.66-8.156 7.66-13.263"/>
        <path stroke="#000" stroke-linecap="round" stroke-linejoin="round" stroke-width="2.199" d="M39.97 32.452c-1.064 0-3.12 0-3.12-.567 0-.497.425-.568.992-.568.638 0 3.617.568 4.327.851-.71.142-1.419.284-2.2.284zm16.456-12.909c.212-8.936-6.81-14.824-15.747-14.824-15.391 0-23.476 11.136-23.476 26.669 0 .851.709 1.49 1.488 1.49.71 0 1.561-.497 1.561-1.49.426-14.54 6.81-23.69 20.356-23.69 7.235 0 13.05 4.682 12.837 11.703 0 4.327-2.836 9.079-7.233 11.42-2.27-1.56-6.029-2.483-8.654-2.483-2.27 0-3.688 1.206-3.688 3.476 0 3.05 2.553 3.617 5.745 3.617 1.703 0 4.681-.568 6.242-1.206 3.05 2.411 4.681 6.738 4.681 10.852 0 7.447-4.681 13.477-12.554 13.477-4.752 0-9.291-1.845-9.291-6.242 0-2.483 1.985-4.753 4.397-4.753 1.631 0 3.262 1.419 4.043 3.689.213.638.78.993 1.418.993 1.135 0 1.773-1.064 1.419-1.987-1.277-3.334-3.688-5.674-6.951-5.674-3.76 0-7.305 3.263-7.305 7.732 0 5.815 5.177 9.22 12.27 9.22 9.22 0 15.604-7.164 15.604-16.313 0-3.9-1.135-7.873-3.547-10.923l-1.276-1.49c4.468-2.979 7.66-8.156 7.66-13.263z"/>
        <path fill="#000" d="M37.488 15.855c.78-1.702 2.694-3.546 4.326-3.83.568-.142 1.205-.639 1.205-1.703-.141-.779-.78-1.276-1.488-1.276-2.27 0-5.25 2.624-6.738 5.39-1.987 3.901-3.618 9.15-5.25 14.611-3.333 11.066-7.234 25.108-17.306 25.108-3.972 0-7.305-2.269-7.305-6.666 0-4.186 3.475-8.512 7.305-8.512.426 0 .78 0 1.135.142.994.284 1.916-.497 1.916-1.49 0-.638-.426-1.135-1.064-1.418-.71-.284-1.349-.284-2.058-.284-5.32 0-10.213 5.533-10.213 11.703 0 5.745 4.54 9.505 10.355 9.505 11.845 0 16.03-13.902 20.073-27.236 1.631-5.249 3.191-10.356 5.107-14.044"/>
        <path stroke="#000" stroke-linecap="round" stroke-linejoin="round" stroke-width="2.199" d="M37.488 15.855c.78-1.702 2.694-3.546 4.326-3.83.568-.142 1.205-.639 1.205-1.703-.141-.779-.78-1.276-1.488-1.276-2.27 0-5.25 2.624-6.738 5.39-1.987 3.901-3.618 9.15-5.25 14.611-3.333 11.066-7.234 25.108-17.306 25.108-3.972 0-7.305-2.269-7.305-6.666 0-4.186 3.475-8.512 7.305-8.512.426 0 .78 0 1.135.142.994.284 1.916-.497 1.916-1.49 0-.638-.426-1.135-1.064-1.418-.71-.284-1.349-.284-2.058-.284-5.32 0-10.213 5.533-10.213 11.703 0 5.745 4.54 9.505 10.355 9.505 11.845 0 16.03-13.902 20.073-27.236 1.631-5.249 3.191-10.356 5.107-14.044z"/>
        <path fill="#000" d="M141.182 25.998c-1.064-.852-1.702-2.128-1.702-3.263 0-.78.425-1.347 1.347-1.347.568 0 1.135.424 1.135 1.63 0 .71-.425 1.986-.78 2.98m-14.044.567c1.561 0 3.05.354 3.05 2.27 0 5.248-8.44 8.723-14.326 10.567 2.27-5.46 6.383-12.837 11.276-12.837M85.576 54.156c-1.42 0-2.27-1.064-2.27-2.98 0-2.057.922-5.319 3.83-13.546 2.341-6.597 3.546-9.86 3.972-11.207h5.816c.247 0 .473-.06.674-.156.2.097.427.156.674.156h4.468l-3.617 10.142c-.54 1.383-1.05 2.784-1.516 4.154-.066.078-.136.156-.186.244-3.334 7.306-6.739 13.193-11.845 13.193M75.15 26.565c1.56 0 3.05.354 3.05 2.27 0 5.248-8.44 8.723-14.327 10.567 2.27-5.46 6.383-12.837 11.277-12.837m87.594 13.689c-.213-.071-.426-.142-.638-.142-.568 0-1.064.354-1.348.922-4.043 9.15-6.738 13.122-10.214 13.122-1.56 0-2.127-1.206-2.127-2.98.07-1.205.212-2.411.638-3.9.426-1.773 3.83-11.916 4.752-14.257.284-.85-.07-1.773-.851-2.057a41.521 41.521 0 0 0-2.695-.85c-2.058-.71-4.469-1.49-6.454-2.483.85-2.766 1.134-3.404 1.134-4.54 0-2.836-1.56-4.68-4.114-4.68-2.27 0-4.326 1.701-4.326 4.61 0 2.624 1.49 4.468 3.617 5.958l-.85 2.128-4.448 9.672c-.062.08-.117.164-.163.257-3.972 9.15-8.511 13.263-14.328 13.122-4.255-.142-6.525-2.625-6.383-6.668.071-1.49.284-2.837.78-4.68 7.873-1.916 18.441-6.455 18.441-13.973 0-3.404-2.482-5.249-6.029-5.249-6.597 0-12.575 9.168-15.02 17.496-3.316 7.25-6.71 13.074-11.79 13.074-1.418 0-2.269-1.064-2.269-2.98 0-2.057.922-5.319 3.83-13.546 2.34-6.597 3.546-9.86 3.972-11.207h5.816c.85 0 1.489-.639 1.489-1.49 0-.78-.638-1.489-1.489-1.489h-4.752c.497-1.347 3.546-10 3.333-9.575.355-.922-.354-1.986-1.418-1.986-.639 0-1.206.355-1.418.994-.072.283-3.547 10.284-3.689 10.567h-5.461c-.247 0-.474.065-.674.17a1.455 1.455 0 0 0-.674-.17h-4.752c.497-1.347 3.546-10 3.334-9.575.354-.922-.355-1.986-1.419-1.986-.638 0-1.206.355-1.418.994-.071.283-3.547 10.284-3.689 10.567H83.52c-.85 0-1.49.71-1.49 1.49 0 .85.64 1.49 1.49 1.49h4.469L84.37 36.564c-.546 1.4-1.062 2.819-1.533 4.205a1.535 1.535 0 0 0-.169.264c-3.97 9.15-8.51 13.263-14.327 13.122-4.256-.142-6.525-2.625-6.383-6.668.07-1.49.283-2.837.78-4.68 7.873-1.916 18.44-6.455 18.44-13.973 0-3.404-2.48-5.249-6.028-5.249-8.37 0-15.746 14.752-16.171 23.831-.142 5.816 3.404 9.717 9.292 9.717 4.69 0 8.62-2.022 12.068-6.278-.005.108-.012.222-.012.32 0 3.405 1.844 5.958 5.25 5.958 3.886 0 6.865-2.152 9.51-5.756.072 3.303 1.905 5.756 5.241 5.756 4.512 0 7.802-2.884 10.763-7.592.677 4.62 4.03 7.592 9.168 7.592 6.45 0 11.46-3.81 15.76-12.023.102-.11.194-.238.269-.389 5.674-12.412 6.17-13.405 6.455-14.256 1.56.78 2.34 1.063 7.73 2.837-.638 1.56-3.76 10.994-4.326 13.264-.497 1.773-.71 3.191-.71 4.61 0 3.475 1.703 5.957 5.036 5.957h.071c4.823 0 8.37-4.326 12.98-14.895.071-.212.142-.425.142-.637 0-.568-.355-1.064-.922-1.348"/>
        <path stroke="#000" stroke-linecap="round" stroke-linejoin="round" stroke-width="2.199" d="M141.182 25.998c-1.064-.852-1.702-2.128-1.702-3.263 0-.78.425-1.347 1.347-1.347.568 0 1.135.424 1.135 1.63 0 .71-.425 1.986-.78 2.98zm-14.044.567c1.561 0 3.05.354 3.05 2.27 0 5.248-8.44 8.723-14.326 10.567 2.27-5.46 6.383-12.837 11.276-12.837zM85.576 54.156c-1.42 0-2.27-1.064-2.27-2.98 0-2.057.922-5.319 3.83-13.546 2.341-6.597 3.546-9.86 3.972-11.207h5.816c.247 0 .473-.06.674-.156.2.097.427.156.674.156h4.468l-3.617 10.142c-.54 1.383-1.05 2.784-1.516 4.154-.066.078-.136.156-.186.244-3.334 7.306-6.739 13.193-11.845 13.193zM75.15 26.565c1.56 0 3.05.354 3.05 2.27 0 5.248-8.44 8.723-14.327 10.567 2.27-5.46 6.383-12.837 11.277-12.837zm87.594 13.689c-.213-.071-.426-.142-.638-.142-.568 0-1.064.354-1.348.922-4.043 9.15-6.738 13.122-10.214 13.122-1.56 0-2.127-1.206-2.127-2.98.07-1.205.212-2.411.638-3.9.426-1.773 3.83-11.916 4.752-14.257.284-.85-.07-1.773-.851-2.057a41.521 41.521 0 0 0-2.695-.85c-2.058-.71-4.469-1.49-6.454-2.483.85-2.766 1.134-3.404 1.134-4.54 0-2.836-1.56-4.68-4.114-4.68-2.27 0-4.326 1.701-4.326 4.61 0 2.624 1.49 4.468 3.617 5.958l-.85 2.128-4.448 9.672c-.062.08-.117.164-.163.257-3.972 9.15-8.511 13.263-14.328 13.122-4.255-.142-6.525-2.625-6.383-6.668.071-1.49.284-2.837.78-4.68 7.873-1.916 18.441-6.455 18.441-13.973 0-3.404-2.482-5.249-6.029-5.249-6.597 0-12.575 9.168-15.02 17.496-3.316 7.25-6.71 13.074-11.79 13.074-1.418 0-2.269-1.064-2.269-2.98 0-2.057.922-5.319 3.83-13.546 2.34-6.597 3.546-9.86 3.972-11.207h5.816c.85 0 1.489-.639 1.489-1.49 0-.78-.638-1.489-1.489-1.489h-4.752c.497-1.347 3.546-10 3.333-9.575.355-.922-.354-1.986-1.418-1.986-.639 0-1.206.355-1.418.994-.072.283-3.547 10.284-3.689 10.567h-5.461c-.247 0-.474.065-.674.17a1.455 1.455 0 0 0-.674-.17h-4.752c.497-1.347 3.546-10 3.334-9.575.354-.922-.355-1.986-1.419-1.986-.638 0-1.206.355-1.418.994-.071.283-3.547 10.284-3.689 10.567H83.52c-.85 0-1.49.71-1.49 1.49 0 .85.64 1.49 1.49 1.49h4.469L84.37 36.564c-.546 1.4-1.062 2.819-1.533 4.205a1.535 1.535 0 0 0-.169.264c-3.97 9.15-8.51 13.263-14.327 13.122-4.256-.142-6.525-2.625-6.383-6.668.07-1.49.283-2.837.78-4.68 7.873-1.916 18.44-6.455 18.44-13.973 0-3.404-2.48-5.249-6.028-5.249-8.37 0-15.746 14.752-16.171 23.831-.142 5.816 3.404 9.717 9.292 9.717 4.69 0 8.62-2.022 12.068-6.278-.005.108-.012.222-.012.32 0 3.405 1.844 5.958 5.25 5.958 3.886 0 6.865-2.152 9.51-5.756.072 3.303 1.905 5.756 5.241 5.756 4.512 0 7.802-2.884 10.763-7.592.677 4.62 4.03 7.592 9.168 7.592 6.45 0 11.46-3.81 15.76-12.023.102-.11.194-.238.269-.389 5.674-12.412 6.17-13.405 6.455-14.256 1.56.78 2.34 1.063 7.73 2.837-.638 1.56-3.76 10.994-4.326 13.264-.497 1.773-.71 3.191-.71 4.61 0 3.475 1.703 5.957 5.036 5.957h.071c4.823 0 8.37-4.326 12.98-14.895.071-.212.142-.425.142-.637 0-.568-.355-1.064-.922-1.348z"/>
        <path fill="#000" d="M195.937 50.822c-1.914 2.199-4.894 3.688-7.731 3.688-2.412 0-4.397-1.064-4.397-3.83.141-2.98 2.269-4.823 4.752-4.823 2.411 0 5.106 1.702 8.085 4.114-.283.283-.496.568-.709.851M219.77 4.79a.97.97 0 0 1 .993.993c0 1.135-2.554 3.192-5.533 3.83 1.135-2.411 2.98-4.823 4.54-4.823m14.54 57.948c-.568 0-1.135.355-1.348.922-1.135 2.482-4.398 3.9-7.944 3.9-6.454 0-12.767-6.666-18.654-12.553-1.986-1.915-3.9-3.83-5.816-5.603 1.277-1.987 2.341-4.185 3.334-6.597 1.347-3.333 2.908-8.085 5.248-15.533 1.349-4.61 2.98-9.859 4.682-14.114 5.035-1.347 10.142-4.043 10.142-7.377 0-2.27-1.702-3.83-4.184-3.83-3.617 0-6.668 4.61-8.228 8.725l-6.029.921c-10.639 1.632-22.129 3.404-23.476 13.264-.071.354-.071.78-.071 1.135-.072 2.27.496 4.467 1.773 6.1 1.276 1.772 3.191 2.978 5.674 3.333.283.071.638.071.993.071.85 0 1.56-.639 1.56-1.42.071-.85-.567-1.559-1.418-1.559l-.71-.071c-1.631-.213-2.837-.993-3.688-2.128-.851-1.135-1.276-2.624-1.205-4.184 0-.284 0-.568.07-.852 1.064-7.66 11.49-9.291 20.995-10.78 1.418-.213 2.908-.426 4.326-.71-1.49 4.043-2.908 8.582-4.114 12.554-2.695 8.724-3.758 11.845-5.106 15.32-.851 2.058-1.773 4.043-2.837 5.816-3.263-2.766-6.596-4.61-9.647-4.61-4.113 0-7.518 2.837-7.801 7.802 0 4.185 2.482 6.454 7.376 6.809 3.76 0 7.519-1.844 10.001-4.752.213-.213.425-.496.638-.78 1.773 1.56 3.546 3.404 5.39 5.177 6.172 6.171 13.193 13.477 20.711 13.477 4.256 0 8.937-1.773 10.71-5.745.071-.214.142-.426.142-.568 0-.567-.497-1.56-1.49-1.56"/>
        <path stroke="#000" stroke-linecap="round" stroke-linejoin="round" stroke-width="2.199" d="M195.937 50.822c-1.914 2.199-4.894 3.688-7.731 3.688-2.412 0-4.397-1.064-4.397-3.83.141-2.98 2.269-4.823 4.752-4.823 2.411 0 5.106 1.702 8.085 4.114-.283.283-.496.568-.709.851zM219.77 4.79a.97.97 0 0 1 .993.993c0 1.135-2.554 3.192-5.533 3.83 1.135-2.411 2.98-4.823 4.54-4.823zm14.54 57.948c-.568 0-1.135.355-1.348.922-1.135 2.482-4.398 3.9-7.944 3.9-6.454 0-12.767-6.666-18.654-12.553-1.986-1.915-3.9-3.83-5.816-5.603 1.277-1.987 2.341-4.185 3.334-6.597 1.347-3.333 2.908-8.085 5.248-15.533 1.349-4.61 2.98-9.859 4.682-14.114 5.035-1.347 10.142-4.043 10.142-7.377 0-2.27-1.702-3.83-4.184-3.83-3.617 0-6.668 4.61-8.228 8.725l-6.029.921c-10.639 1.632-22.129 3.404-23.476 13.264-.071.354-.071.78-.071 1.135-.072 2.27.496 4.467 1.773 6.1 1.276 1.772 3.191 2.978 5.674 3.333.283.071.638.071.993.071.85 0 1.56-.639 1.56-1.42.071-.85-.567-1.559-1.418-1.559l-.71-.071c-1.631-.213-2.837-.993-3.688-2.128-.851-1.135-1.276-2.624-1.205-4.184 0-.284 0-.568.07-.852 1.064-7.66 11.49-9.291 20.995-10.78 1.418-.213 2.908-.426 4.326-.71-1.49 4.043-2.908 8.582-4.114 12.554-2.695 8.724-3.758 11.845-5.106 15.32-.851 2.058-1.773 4.043-2.837 5.816-3.263-2.766-6.596-4.61-9.647-4.61-4.113 0-7.518 2.837-7.801 7.802 0 4.185 2.482 6.454 7.376 6.809 3.76 0 7.519-1.844 10.001-4.752.213-.213.425-.496.638-.78 1.773 1.56 3.546 3.404 5.39 5.177 6.172 6.171 13.193 13.477 20.711 13.477 4.256 0 8.937-1.773 10.71-5.745.071-.214.142-.426.142-.568 0-.567-.497-1.56-1.49-1.56z"/>
        <path fill="#000" d="M280.41 11.741c-.567 0-1.134.355-1.348.922-.478 1.377-2.524 7.202-10.273 28.82-3.512 7.885-7.87 12.673-14.621 12.673-3.404 0-5.674-2.696-5.674-6.667 0-1.659.291-3.466.796-5.299.033-.102.064-.205.087-.307 2.157-7.487 7.844-15.318 12.239-15.318 2.127 0 3.05 1.205 3.05 3.689 0 2.837-1.703 4.042-1.703 5.035 0 .922.568 1.418 1.49 1.418 1.631 0 3.191-3.262 3.191-6.453 0-3.902-1.986-6.668-6.028-6.668-6.048 0-13.232 8.921-15.427 18.311-3.831 8.462-6.53 12.259-9.823 12.259-1.49 0-2.128-.923-2.128-2.98 0-1.915 1.631-7.66 4.327-14.965 1.064-2.837 2.411-6.667 3.971-10.78.356-.922-.354-1.986-1.489-1.986-.567 0-1.135.353-1.348.921-3.688 10.072-6.312 17.59-8.794 22.555-2.34 4.823-5.249 7.235-8.157 7.235-2.553 0-3.9-1.49-3.9-4.398 0-2.837.779-4.327 8.297-24.328.356-.921-.212-1.985-1.418-1.985-.567 0-1.134.353-1.348.921-6.809 17.661-8.51 21.846-8.51 25.392 0 4.823 2.34 7.377 6.808 7.377h.071c3.192 0 6.454-2.129 8.511-5.037.426 3.122 1.987 5.037 5.107 5.037 3.45 0 6.266-2.297 9.313-7.591.735 4.62 3.901 7.59 8.418 7.59 4.232 0 7.633-1.398 10.532-4.058l-.744 2.072c-.284.78.142 1.631.921 1.915.78.213 1.632-.284 1.916-.993 4.752-12.837 9.008-24.966 15.178-42.342.354-.923-.354-1.987-1.49-1.987"/>
        <path stroke="#000" stroke-linecap="round" stroke-linejoin="round" stroke-width="2.199" d="M280.41 11.741c-.567 0-1.134.355-1.348.922-.478 1.377-2.524 7.202-10.273 28.82-3.512 7.885-7.87 12.673-14.621 12.673-3.404 0-5.674-2.696-5.674-6.667 0-1.659.291-3.466.796-5.299.033-.102.064-.205.087-.307 2.157-7.487 7.844-15.318 12.239-15.318 2.127 0 3.05 1.205 3.05 3.689 0 2.837-1.703 4.042-1.703 5.035 0 .922.568 1.418 1.49 1.418 1.631 0 3.191-3.262 3.191-6.453 0-3.902-1.986-6.668-6.028-6.668-6.048 0-13.232 8.921-15.427 18.311-3.831 8.462-6.53 12.259-9.823 12.259-1.49 0-2.128-.923-2.128-2.98 0-1.915 1.631-7.66 4.327-14.965 1.064-2.837 2.411-6.667 3.971-10.78.356-.922-.354-1.986-1.489-1.986-.567 0-1.135.353-1.348.921-3.688 10.072-6.312 17.59-8.794 22.555-2.34 4.823-5.249 7.235-8.157 7.235-2.553 0-3.9-1.49-3.9-4.398 0-2.837.779-4.327 8.297-24.328.356-.921-.212-1.985-1.418-1.985-.567 0-1.134.353-1.348.921-6.809 17.661-8.51 21.846-8.51 25.392 0 4.823 2.34 7.377 6.808 7.377h.071c3.192 0 6.454-2.129 8.511-5.037.426 3.122 1.987 5.037 5.107 5.037 3.45 0 6.266-2.297 9.313-7.591.735 4.62 3.901 7.59 8.418 7.59 4.232 0 7.633-1.398 10.532-4.058l-.744 2.072c-.284.78.142 1.631.921 1.915.78.213 1.632-.284 1.916-.993 4.752-12.837 9.008-24.966 15.178-42.342.354-.923-.354-1.987-1.49-1.987z"/>
        <path fill="#000" d="M298.994 40.254c-.214-.071-.426-.142-.639-.142-.568 0-1.063.354-1.348.922-2.695 6.1-6.1 13.121-10.284 13.121-1.49 0-2.27-1.347-2.27-2.624 0-1.631.78-7.093.78-8.723-.07-3.05-.992-5.462-4.326-6.03l11.845-10.78c.283-.284.496-.639.496-1.064 0-.568-.496-1.49-1.56-1.49-.355 0-.567 0-.993.354-9.434 8.653-15.959 14.399-16.88 15.321-1.065 1.064-.71 2.625.85 2.625 1.348 0 2.412-2.128 4.469-2.128 2.411 0 3.05 1.347 3.12 3.192.071 1.276-.141 2.765-.354 4.184-.213 1.63-.425 3.192-.425 4.752 0 2.695 1.985 5.39 5.248 5.39 5.887 0 9.646-7.305 13.05-14.894.071-.213.142-.426.142-.639 0-.567-.354-1.135-.921-1.347"/>
        <path stroke="#000" stroke-linecap="round" stroke-linejoin="round" stroke-width="2.199" d="M298.994 40.254c-.214-.071-.426-.142-.639-.142-.568 0-1.063.354-1.348.922-2.695 6.1-6.1 13.121-10.284 13.121-1.49 0-2.27-1.347-2.27-2.624 0-1.631.78-7.093.78-8.723-.07-3.05-.992-5.462-4.326-6.03l11.845-10.78c.283-.284.496-.639.496-1.064 0-.568-.496-1.49-1.56-1.49-.355 0-.567 0-.993.354-9.434 8.653-15.959 14.399-16.88 15.321-1.065 1.064-.71 2.625.85 2.625 1.348 0 2.412-2.128 4.469-2.128 2.411 0 3.05 1.347 3.12 3.192.071 1.276-.141 2.765-.354 4.184-.213 1.63-.425 3.192-.425 4.752 0 2.695 1.985 5.39 5.248 5.39 5.887 0 9.646-7.305 13.05-14.894.071-.213.142-.426.142-.639 0-.567-.354-1.135-.921-1.347z"/>
        <path fill="#E8E6E5" d="M45.297 110.937a1.3 1.3 0 0 1-1.082-.58L31.36 91.074v18.563a1.3 1.3 0 0 1-1.3 1.301h-5.23a1.3 1.3 0 0 1-1.3-1.3V78.075a1.3 1.3 0 0 1 1.3-1.3h5.32c.437 0 .845.22 1.086.584L43.05 95.29V78.076a1.3 1.3 0 0 1 1.3-1.3h5.276a1.3 1.3 0 0 1 1.3 1.3v31.56a1.3 1.3 0 0 1-1.3 1.301h-4.329z"/>
        <g transform="translate(21.81 74.954)">
            <mask id="b" fill="#fff">
                <use xlink:href="#a"/>
            </mask>
            <path fill="#000" d="M27.817.52H22.54a2.601 2.601 0 0 0-2.6 2.601V16L10.51 1.69A2.601 2.601 0 0 0 8.34.52H3.02A2.602 2.602 0 0 0 .418 3.121v31.561a2.602 2.602 0 0 0 2.6 2.601H8.25a2.602 2.602 0 0 0 2.601-2.6V20.413l10.474 15.71a2.602 2.602 0 0 0 2.164 1.16h4.329a2.601 2.601 0 0 0 2.6-2.602V3.122a2.601 2.601 0 0 0-2.6-2.602m0 2.601v31.561h-4.329L8.25 11.823v22.86h-5.23V3.12h5.32l14.202 21.552V3.12h5.276" mask="url(#b)"/>
        </g>
        <path fill="#E8E6E5" d="M61.168 110.937a1.3 1.3 0 0 1-1.3-1.3V78.075a1.3 1.3 0 0 1 1.3-1.3h19.838a1.3 1.3 0 0 1 1.3 1.3v4.96c0 .717-.582 1.3-1.3 1.3H67.788v5.063h10.107a1.3 1.3 0 0 1 1.3 1.301v4.96a1.3 1.3 0 0 1-1.3 1.3H67.788v6.416h13.669a1.3 1.3 0 0 1 1.3 1.3v4.96a1.3 1.3 0 0 1-1.3 1.301h-20.29z"/>
        <g transform="translate(58.225 74.954)">
            <mask id="d" fill="#fff">
                <use xlink:href="#c"/>
            </mask>
            <path fill="#000" d="M22.78.52H2.942A2.601 2.601 0 0 0 .341 3.121v31.561a2.601 2.601 0 0 0 2.601 2.601h20.29a2.602 2.602 0 0 0 2.601-2.6v-4.96a2.602 2.602 0 0 0-2.6-2.602h-12.37v-3.815h8.806a2.601 2.601 0 0 0 2.601-2.6v-4.96a2.601 2.601 0 0 0-2.6-2.601h-8.806v-2.463H22.78a2.602 2.602 0 0 0 2.601-2.601v-4.96a2.601 2.601 0 0 0-2.6-2.6m0 2.6v4.96H8.261v7.665H19.67v4.96H8.262v9.017h14.97v4.96H2.942V3.12H22.78" mask="url(#d)"/>
        </g>
        <path fill="#E8E6E5" d="M109.32 110.937c-.432 0-.836-.215-1.078-.573l-6.857-10.169-6.857 10.169a1.302 1.302 0 0 1-1.079.573h-5.906a1.3 1.3 0 0 1-1.075-2.032L96.926 93.54 86.874 78.808a1.303 1.303 0 0 1 1.075-2.033h5.906a1.3 1.3 0 0 1 1.078.574l6.452 9.58 6.45-9.58a1.3 1.3 0 0 1 1.079-.574h5.907a1.3 1.3 0 0 1 1.075 2.032L105.888 93.54l10.415 15.365a1.301 1.301 0 0 1-1.076 2.031h-5.907z"/>
        <g transform="translate(84.237 74.954)">
            <mask id="f" fill="#fff">
                <use xlink:href="#e"/>
            </mask>
            <path fill="#000" d="M30.584 5.723h.004-.004zM30.588.52h-5.911c-.866 0-1.675.431-2.158 1.148l-5.371 7.978-5.372-7.978A2.604 2.604 0 0 0 9.618.52H3.712a2.602 2.602 0 0 0-2.148 4.068l9.55 14-9.958 14.63a2.603 2.603 0 0 0 2.15 4.065h5.907c.864 0 1.672-.43 2.156-1.147l5.779-8.569 5.779 8.57a2.602 2.602 0 0 0 2.156 1.146h5.907a2.6 2.6 0 0 0 2.152-4.06l-9.92-14.635 9.467-13.936a2.599 2.599 0 0 0-2.1-4.132zm-.004 2.601L20.079 18.586l10.91 16.096h-5.906l-7.935-11.767-7.935 11.767H3.306l10.956-16.096L3.712 3.121h5.906l7.53 11.182 7.53-11.182h5.906zm0 0h.004-.004z" mask="url(#f)"/>
        </g>
        <path fill="#E8E6E5" d="M129.429 110.937a1.3 1.3 0 0 1-1.301-1.3V84.335h-7.717a1.3 1.3 0 0 1-1.3-1.3v-4.96a1.3 1.3 0 0 1 1.3-1.3h23.265a1.3 1.3 0 0 1 1.3 1.3v4.96c0 .717-.582 1.3-1.3 1.3h-7.717v25.3a1.3 1.3 0 0 1-1.3 1.301h-5.23z"/>
        <g transform="translate(117.185 74.954)">
            <mask id="h" fill="#fff">
                <use xlink:href="#g"/>
            </mask>
            <path fill="#000" d="M26.49.52H3.227A2.601 2.601 0 0 0 .625 3.121v4.96a2.602 2.602 0 0 0 2.601 2.601h6.416v24a2.602 2.602 0 0 0 2.601 2.601h5.231a2.602 2.602 0 0 0 2.601-2.6v-24h6.416a2.602 2.602 0 0 0 2.6-2.602v-4.96a2.601 2.601 0 0 0-2.6-2.6m0 2.6v4.96h-9.017v26.601h-5.23V8.081H3.225v-4.96h23.265" mask="url(#h)"/>
        </g>
        <path fill="#E8E6E5" d="M173.207 110.937a1.3 1.3 0 0 1-1.3-1.3V84.335h-7.717a1.3 1.3 0 0 1-1.3-1.3v-4.96a1.3 1.3 0 0 1 1.3-1.3h23.264a1.3 1.3 0 0 1 1.301 1.3v4.96c0 .717-.583 1.3-1.3 1.3h-7.718v25.3a1.3 1.3 0 0 1-1.3 1.301h-5.23z"/>
        <g transform="translate(161.405 74.954)">
            <mask id="j" fill="#fff">
                <use xlink:href="#i"/>
            </mask>
            <path fill="#000" d="M26.05.52H2.785A2.601 2.601 0 0 0 .184 3.121v4.96a2.602 2.602 0 0 0 2.6 2.601h6.417v24a2.602 2.602 0 0 0 2.601 2.601h5.23a2.602 2.602 0 0 0 2.601-2.6v-24h6.417a2.602 2.602 0 0 0 2.6-2.602v-4.96a2.601 2.601 0 0 0-2.6-2.6m0 2.6v4.96h-9.018v26.601h-5.23V8.081H2.785v-4.96H26.05" mask="url(#j)"/>
        </g>
        <path fill="#E8E6E5" d="M196.156 110.937a1.3 1.3 0 0 1-1.3-1.3V78.075a1.3 1.3 0 0 1 1.3-1.3h5.23a1.3 1.3 0 0 1 1.3 1.3v31.56a1.3 1.3 0 0 1-1.3 1.301h-5.23z"/>
        <g transform="translate(193.486 74.954)">
            <mask id="l" fill="#fff">
                <use xlink:href="#k"/>
            </mask>
            <path fill="#000" d="M7.9.52H2.67a2.601 2.601 0 0 0-2.6 2.601v31.561a2.601 2.601 0 0 0 2.6 2.601H7.9a2.601 2.601 0 0 0 2.601-2.6V3.12A2.601 2.601 0 0 0 7.9.521zM2.67 34.682H7.9V3.122H2.67v31.56z" mask="url(#l)"/>
        </g>
        <path fill="#E8E6E5" d="M238.897 110.937a1.3 1.3 0 0 1-1.29-1.138l-2.289-18.096-6.325 11.612a1.3 1.3 0 0 1-1.14.679h-.002a1.3 1.3 0 0 1-1.14-.675l-6.419-11.693-2.332 18.176a1.3 1.3 0 0 1-1.29 1.135h-5.456a1.3 1.3 0 0 1-1.288-1.477l4.328-31.561a1.301 1.301 0 0 1 1.288-1.124h4.374c.48 0 .922.265 1.149.69l6.74 12.675 6.743-12.675c.226-.425.668-.69 1.149-.69h4.327c.65 0 1.2.48 1.289 1.124l4.328 31.56c.051.373-.06.749-.309 1.032a1.297 1.297 0 0 1-.98.446h-5.455z"/>
        <g transform="translate(208.225 74.954)">
            <mask id="n" fill="#fff">
                <use xlink:href="#m"/>
            </mask>
            <path fill="#000" d="M31.799.52H27.47c-.961 0-1.845.531-2.296 1.38L19.58 12.416 13.987 1.9A2.6 2.6 0 0 0 11.69.52H7.318c-1.301 0-2.401.96-2.578 2.248L.412 34.328a2.603 2.603 0 0 0 2.576 2.955h5.456a2.6 2.6 0 0 0 2.58-2.27l1.824-14.215 4.497 8.192a2.602 2.602 0 0 0 2.28 1.35h.005a2.602 2.602 0 0 0 2.28-1.357l4.398-8.074 1.783 14.1a2.601 2.601 0 0 0 2.58 2.274h5.456a2.602 2.602 0 0 0 2.577-2.955l-4.328-31.56A2.6 2.6 0 0 0 31.799.52m0 2.601l4.328 31.561h-5.455L27.877 12.59l-8.252 15.149-8.34-15.194-2.841 22.137H2.988l4.33-31.56h4.373l7.89 14.833 7.89-14.834H31.8" mask="url(#n)"/>
        </g>
        <path fill="#E8E6E5" d="M254.182 110.937a1.3 1.3 0 0 1-1.3-1.3V78.075a1.3 1.3 0 0 1 1.3-1.3h19.839a1.3 1.3 0 0 1 1.3 1.3v4.96c0 .717-.583 1.3-1.3 1.3h-13.218v5.063h10.107a1.3 1.3 0 0 1 1.3 1.301v4.96a1.3 1.3 0 0 1-1.3 1.3h-10.107v6.416h13.668a1.3 1.3 0 0 1 1.301 1.3v4.96a1.3 1.3 0 0 1-1.3 1.301h-20.29z"/>
        <g transform="translate(251.578 74.954)">
            <mask id="p" fill="#fff">
                <use xlink:href="#o"/>
            </mask>
            <path fill="#000" d="M22.442.52H2.604a2.601 2.601 0 0 0-2.6 2.601v31.561a2.601 2.601 0 0 0 2.6 2.601h20.29a2.602 2.602 0 0 0 2.601-2.6v-4.96a2.602 2.602 0 0 0-2.6-2.602h-12.37v-3.815h8.806a2.601 2.601 0 0 0 2.602-2.6v-4.96a2.601 2.601 0 0 0-2.602-2.601h-8.805v-2.463h11.916a2.602 2.602 0 0 0 2.602-2.601v-4.96a2.601 2.601 0 0 0-2.602-2.6m0 2.6v4.96H7.925v7.665H19.33v4.96H7.925v9.017h14.97v4.96H2.604V3.12h19.837" mask="url(#p)"/>
        </g>
    </g>
</svg>
