<svg id="Layer_1" data-name="Layer 1" xmlns="http://www.w3.org/2000/svg" viewBox="0 0 300 150"><defs><style>.cls-1{fill:#efefef;}</style></defs><title>portland_text</title><path d="M223.62,110.9a1.89,1.89,0,0,0,.13-.65,2.18,2.18,0,0,0-1.23-1.93l-.09,0a2.18,2.18,0,0,0-2.71,1.1c-3,6.81-6.27,10-10.47,9.83A4.39,4.39,0,0,1,206,118a4.22,4.22,0,0,1-1-3.11,15.2,15.2,0,0,1,.46-3c4.08-1,14.74-4.51,14.74-11.79,0-3.07-2.22-5-5.67-5-5.57,0-10.65,7.44-12.72,14.41-2.69,5.86-5.16,9.75-8.48,9.75-.22,0-.89,0-.89-1.45s.76-4.11,3-10.4l1.78-5c.54-1.49.92-2.55,1.16-3.26h3.95A2.07,2.07,0,0,0,204.46,97a2.09,2.09,0,0,0-2.08-2.09h-2.46a64.43,64.43,0,0,0,2.17-6.34h0a2.06,2.06,0,0,0-.23-1.89,2.12,2.12,0,0,0-1.74-.91,2.06,2.06,0,0,0-2,1.45c-.13.45-2.06,6-2.67,7.69h-3.69a2.08,2.08,0,0,0-2.07,2,5.75,5.75,0,0,0-4.55-1.84c-5.57,0-10.65,7.43-12.72,14.41-2.69,5.86-5.16,9.75-8.48,9.75-.22,0-.89,0-.89-1.45,0-.32.12-1.66,1.44-5.91.13-.33.24-.66.34-1q0-.13.09-.33c1-3,2-5.82,3-8.64.58-1.64,1.16-3.27,1.73-4.91l2.91-8.51a2,2,0,0,0-.09-1.6,2.09,2.09,0,0,0-3.86.22l-2.92,8.52c-.55,1.59-1.12,3.19-1.68,4.78-1.07,3.06-2.14,6.1-3.15,9-.1.31-.19.61-.28.9-1,2.69-3.16,5.31-5.3,5.31a2.62,2.62,0,0,1-1.45-.41c2-3.34,4-9.16,4-13,0-4.64-2-7.3-5.61-7.3a7.26,7.26,0,0,0-4.15,1.36,3.19,3.19,0,0,0-.23-.45,2.1,2.1,0,0,0-1.73-.91,2,2,0,0,0-2,1.38l-.34.88c-.4,1-1.74,4.73-3.43,9.38l-1.92,5.3c-2.42,5.18-4.24,7.34-6.08,7.34-.4,0-.78,0-.78-1.45,0-2.18,1-4.79,2-7.56,1.13-3,2.31-6.16,2.31-9.09,0-4-2.14-6.18-6.18-6.18-2.36,0-4.78,1.72-6.56,3.8a5.62,5.62,0,0,0-5.72-3.8,6.51,6.51,0,0,0-3.92,1.49,2,2,0,0,0-.24-.46,2.1,2.1,0,0,0-1.73-.91,2,2,0,0,0-2,1.38c-1.43,4-2.88,8.08-4.32,12.11-.09.26-.18.52-.28.78a.43.43,0,0,1,0,.07c-1.79,4.26-3.52,6.24-5.45,6.24a3,3,0,0,1-1.72-.44c2.46-4.38,4.14-9.74,4.14-13.24,0-4.07-2.54-6.78-6.51-6.9-3.2,0-6.2,2.18-8.68,6.32A35.66,35.66,0,0,0,83,109.54C79.15,119,74.62,123,67.9,123c-5.13,0-7.84-2.85-7.84-8.24,0-3,.93-6.34,2.09-10.12a17.89,17.89,0,0,0,1.82.09c10.31,0,21.43-6,21.43-15.76,0-5.29-3-8.64-7.84-8.76-8-.16-14.57,9.94-18.14,19.74C56.32,99.14,53,97.1,53,92.25a14.52,14.52,0,0,1,3.21-8.62,1.94,1.94,0,0,0,.55-1.42,2.06,2.06,0,0,0-2.08-2.08,2,2,0,0,0-1.6.72,18.85,18.85,0,0,0-4.24,11.51c0,5.61,3.41,9.88,9.17,11.57a38.88,38.88,0,0,0-2.11,10.86c0,7.77,4.49,12.4,12,12.4,5.83,0,10.52-2.46,14.37-7.63.74,2.48,2.6,3.82,5.43,3.82,2.5,0,5.38-1.77,7.8-4.76a7.57,7.57,0,0,0,4.08,1.17,7.06,7.06,0,0,0,1.85-.24c-.13.36-.27.73-.4,1.1a2.12,2.12,0,0,0,1.34,2.7,2.61,2.61,0,0,0,.6.08,2.1,2.1,0,0,0,2-1.44l3.76-10.68c.05-.11.1-.21.14-.31a.38.38,0,0,0,0-.1c.68-1.44,3.57-6.73,4.48-8.09,1.74-2.46,3.13-3.71,4.14-3.71,1.23,0,1.9.35,1.9,2.23s-.74,4-2,7.62h0c-.43,1.19-3.78,11.17-3.8,11.24a2,2,0,0,0,.23,1.88,2.08,2.08,0,0,0,1.73.92,2,2,0,0,0,2-1.41l0,0c.15-.49,2.1-6.2,3-9,.42-1.23.72-2.11.74-2.18,1.82-5.09,6-11.29,8.4-11.29,1.45,0,2,.56,2,2,0,2.08-1,4.76-2,7.59-1.15,3.09-2.33,6.28-2.33,9.06,0,3.47,1.91,5.62,5,5.62a6.35,6.35,0,0,0,2.05-.35l-4,11.23a2,2,0,0,0,.24,1.89,2.1,2.1,0,0,0,1.73.91,2.05,2.05,0,0,0,2-1.4c.5-1.51,2.35-6.68,4.78-13.43a5.82,5.82,0,0,0,3.75,1.32c3,.09,5.93-1.57,8.59-4.84a6.77,6.77,0,0,0,3.72,1.08,7.41,7.41,0,0,0,3.71-1.07,4.91,4.91,0,0,0,5,4.66c3.36,0,5.89-1.73,8.15-4.78a7.36,7.36,0,0,0,1.58,2.47,8.18,8.18,0,0,0,6,2.31,12.17,12.17,0,0,0,8.88-3.78,4.79,4.79,0,0,0,4.8,3.78c3.36,0,5.89-1.73,8.15-4.78a7.51,7.51,0,0,0,1.58,2.47,8.18,8.18,0,0,0,6,2.31c6,0,10.61-3.91,14.4-12.31Zm-9-11.69c1.51,0,1.51.45,1.51.89,0,2.41-3.1,4.81-8.77,6.85C209.66,102.06,212.31,99.21,214.6,99.21Zm-29.44,0c1.51,0,1.51.45,1.51.89,0,2.41-3.1,4.81-8.77,6.85C180.22,102.06,182.87,99.21,185.16,99.21Zm-36.23,16c-1.87,2.72-4,4.21-5.85,4.14-.68,0-1.26,0-1.26-2a8.84,8.84,0,0,1,.82-3.63l.35-1c2-5.11,5.41-13.67,9.42-13.67.42,0,1.28,0,1.28,3a19.86,19.86,0,0,1-1.39,6.48,2.11,2.11,0,0,0-1.35-.49,2,2,0,0,0-2,1.55A10.15,10.15,0,0,0,148.93,115.24Zm-56-.14c-1.9,2.58-3.85,4.11-5.27,4.11-.47,0-1.57,0-1.57-2.51,0-4,1.49-8.51,4.31-13.17,1.62-2.79,3.39-4.32,5-4.32s2.41,1,2.41,2.68a20.58,20.58,0,0,1-1.47,6.69,2.09,2.09,0,0,0-1.33-.47A2,2,0,0,0,93,109.67,11.14,11.14,0,0,0,93,115.1ZM63.63,100.6c3.07-8,8.56-16.19,13.92-16.19,3.21,0,3.69,2.87,3.69,4.59,0,7.57-10.12,11.6-17.43,11.6Zm128.15-1.5H194l-2.42,6.78c-.41,1.05-.82,2.16-1.2,3.29,0,.07-.1.14-.14.21-3,6.81-6.28,9.93-10.46,9.83a4.39,4.39,0,0,1-3.22-1.21,4.22,4.22,0,0,1-1-3.11,15.2,15.2,0,0,1,.46-3c4.07-1,14.74-4.51,14.74-11.79a5.54,5.54,0,0,0-.17-1.32A2.1,2.1,0,0,0,191.78,99.1Z"/><path d="M224.64,118.15a2.84,2.84,0,0,0-2.81,2.87,2.78,2.78,0,0,0,2.81,2.81,2.84,2.84,0,0,0,2.87-2.81A2.91,2.91,0,0,0,224.64,118.15Z"/><path d="M240,81.58a2.12,2.12,0,0,0-1.18-1.06,2,2,0,0,0-1.64.1,2,2,0,0,0-1,1.18L225.3,112.63a2.06,2.06,0,0,0,1.22,2.68,2.09,2.09,0,0,0,2.67-1.28l10.88-30.84A2.05,2.05,0,0,0,240,81.58Z"/><path class="cls-1" d="M46.53,58.7a1.39,1.39,0,0,1-1.24-.76L38,43.84H32.63V57.3a1.41,1.41,0,0,1-1.41,1.4H24.61a1.41,1.41,0,0,1-1.41-1.4V18a1.41,1.41,0,0,1,1.41-1.4H38.4c4.54,0,8.18,1.11,10.82,3.3s4.1,5.61,4.1,10a13.37,13.37,0,0,1-2,7.5,13,13,0,0,1-4.27,4l8.15,15.2A1.4,1.4,0,0,1,54,58.7ZM37.17,35.48c2.35,0,4.06-.47,5.08-1.4a4.9,4.9,0,0,0,1.48-3.87c0-2.43-.73-5.21-6.39-5.21H32.63V35.48Z"/><path d="M38.4,18c4.23,0,7.53,1,9.93,3s3.59,4.95,3.59,8.91a12,12,0,0,1-1.74,6.73,12.11,12.11,0,0,1-5,4.21L54,57.3H46.53L38.85,42.44H31.22V57.3H24.61V18H38.4M31.22,36.89h6q4.09,0,6-1.77a6.31,6.31,0,0,0,1.93-4.91q0-6.62-7.79-6.61H31.22V36.89M38.4,15.24H24.61A2.8,2.8,0,0,0,21.8,18V57.3a2.8,2.8,0,0,0,2.81,2.8h6.61A2.8,2.8,0,0,0,34,57.3V45.24h3.11L44,58.59a2.81,2.81,0,0,0,2.49,1.51H54A2.8,2.8,0,0,0,56.46,56L48.93,41.91a14.16,14.16,0,0,0,3.59-3.7,14.81,14.81,0,0,0,2.2-8.28c0-4.82-1.55-8.54-4.6-11.07-2.9-2.4-6.84-3.62-11.72-3.62ZM34,26.4h3.31c4.6,0,5,1.88,5,3.81a3.5,3.5,0,0,1-1,2.84c-.74.67-2.18,1-4.14,1H34V26.4Z"/><path class="cls-1" d="M79.12,59.49a21.08,21.08,0,0,1-10.69-2.72A19.24,19.24,0,0,1,61,49.08a23.76,23.76,0,0,1-2.66-11.41A23.69,23.69,0,0,1,61,26.27a19.2,19.2,0,0,1,7.4-7.7,22.42,22.42,0,0,1,21.37,0,19.2,19.2,0,0,1,7.4,7.7,23.69,23.69,0,0,1,2.66,11.4A23.76,23.76,0,0,1,97.2,49.08a19.24,19.24,0,0,1-7.4,7.69A21.07,21.07,0,0,1,79.12,59.49Zm0-34.55c-3.6,0-6.27,1.12-8.18,3.42A14.21,14.21,0,0,0,68,37.67,14.2,14.2,0,0,0,70.94,47c1.91,2.3,4.58,3.42,8.18,3.42s6.25-1.12,8.14-3.41a14.27,14.27,0,0,0,2.9-9.32,14.29,14.29,0,0,0-2.9-9.32C85.37,26.06,82.71,24.94,79.12,24.94Z"/><path d="M79.12,17.26a19.66,19.66,0,0,1,10,2.52A17.93,17.93,0,0,1,96,26.93a22.35,22.35,0,0,1,2.49,10.74A22.29,22.29,0,0,1,96,48.41a17.93,17.93,0,0,1-6.87,7.15,21,21,0,0,1-20,0,17.93,17.93,0,0,1-6.87-7.15,22.29,22.29,0,0,1-2.49-10.74,22.35,22.35,0,0,1,2.49-10.74,17.93,17.93,0,0,1,6.87-7.15,19.67,19.67,0,0,1,10-2.52m0,34.54q6,0,9.22-3.92a15.57,15.57,0,0,0,3.23-10.21,15.57,15.57,0,0,0-3.23-10.21q-3.23-3.91-9.22-3.92t-9.26,3.92a15.47,15.47,0,0,0-3.25,10.21,15.47,15.47,0,0,0,3.25,10.21q3.26,3.93,9.26,3.92m0-37.35a22.54,22.54,0,0,0-11.39,2.9A20.66,20.66,0,0,0,59.8,25.6,25.11,25.11,0,0,0,57,37.67,25.11,25.11,0,0,0,59.8,49.74,20.6,20.6,0,0,0,67.73,58,23.8,23.8,0,0,0,90.5,58a20.69,20.69,0,0,0,7.94-8.25,25.22,25.22,0,0,0,2.83-12.07A25.28,25.28,0,0,0,98.44,25.6a20.75,20.75,0,0,0-7.94-8.25,22.53,22.53,0,0,0-11.38-2.9Zm0,34.55c-3.16,0-5.48-1-7.1-2.91a12.7,12.7,0,0,1-2.61-8.42A12.7,12.7,0,0,1,72,29.25c1.62-1.95,3.94-2.91,7.1-2.91s5.45.95,7,2.91,2.59,4.87,2.59,8.42S87.91,44,86.17,46.1c-1.6,1.95-3.91,2.9-7,2.9Z"/><path class="cls-1" d="M123.53,59.49c-5.78,0-10.23-1.73-13.22-5.13s-4.44-8-4.44-13.83V18a1.4,1.4,0,0,1,1.4-1.4h6.5a1.4,1.4,0,0,1,1.4,1.4V38.85c0,3.91.63,6.92,1.85,8.95,1.1,1.83,3.23,2.71,6.51,2.71s5.41-.88,6.51-2.71c1.22-2,1.85-5,1.85-8.95V18a1.4,1.4,0,0,1,1.4-1.4h6.5A1.41,1.41,0,0,1,141.2,18V40.53c0,5.82-1.5,10.47-4.45,13.83S129.31,59.49,123.53,59.49Z"/><path d="M139.79,18V40.53q0,8.25-4.09,12.9t-12.17,4.65q-8.07,0-12.17-4.65t-4.09-12.9V18h6.5V38.85q0,6.28,2,9.67t7.71,3.4q5.67,0,7.71-3.4t2-9.67V18h6.5m0-2.8h-6.5a2.8,2.8,0,0,0-2.81,2.8V38.85c0,3.65-.55,6.42-1.64,8.22-.3.51-1.23,2-5.31,2s-5-1.53-5.31-2c-1.09-1.8-1.64-4.57-1.64-8.22V18a2.8,2.8,0,0,0-2.81-2.8h-6.5a2.8,2.8,0,0,0-2.81,2.8V40.53c0,6.17,1.62,11.14,4.8,14.75s8.07,5.61,14.27,5.61,11-1.89,14.28-5.61,4.79-8.58,4.79-14.75V18a2.8,2.8,0,0,0-2.81-2.8Z"/><path class="cls-1" d="M176.36,58.7a1.4,1.4,0,0,1-1.17-.62L158.8,33.5V57.3a1.4,1.4,0,0,1-1.4,1.4h-6.5a1.41,1.41,0,0,1-1.41-1.4V18a1.41,1.41,0,0,1,1.41-1.4h6.61a1.41,1.41,0,0,1,1.17.63l15.1,22.9V18a1.4,1.4,0,0,1,1.4-1.4h6.56a1.4,1.4,0,0,1,1.4,1.4V57.3a1.4,1.4,0,0,1-1.4,1.4Z"/><path d="M181.74,18V57.3h-5.38l-19-28.43V57.3h-6.5V18h6.61l17.67,26.81V18h6.56m0-2.8h-6.56a2.8,2.8,0,0,0-2.81,2.8V35.5l-12.52-19a2.77,2.77,0,0,0-2.34-1.26H150.9a2.8,2.8,0,0,0-2.81,2.8V57.3a2.8,2.8,0,0,0,2.81,2.8h6.5a2.8,2.8,0,0,0,2.81-2.8V38.13L174,58.85a2.81,2.81,0,0,0,2.34,1.25h5.38a2.8,2.8,0,0,0,2.8-2.8V18a2.8,2.8,0,0,0-2.8-2.8Z"/><path class="cls-1" d="M193.29,58.7a1.4,1.4,0,0,1-1.4-1.4V18a1.4,1.4,0,0,1,1.4-1.4h14.64a22.54,22.54,0,0,1,10.73,2.52,18.23,18.23,0,0,1,7.43,7.34,22.75,22.75,0,0,1,2.64,11.17,22.75,22.75,0,0,1-2.64,11.17,18.23,18.23,0,0,1-7.43,7.34,22.54,22.54,0,0,1-10.73,2.52Zm14.64-8.64c3.6,0,6.24-1,8.07-3.18s2.81-5.27,2.81-9.21-.94-7-2.81-9.21-4.47-3.18-8.07-3.18H201.2V50.06Z"/><path d="M207.93,18A21,21,0,0,1,218,20.4a16.82,16.82,0,0,1,6.88,6.78,21.29,21.29,0,0,1,2.46,10.49,21.27,21.27,0,0,1-2.46,10.49A16.82,16.82,0,0,1,218,54.94a21,21,0,0,1-10.06,2.36H193.29V18h14.64M199.8,51.47h8.13q6,0,9.14-3.68t3.14-10.12q0-6.45-3.14-10.12t-9.14-3.67H199.8V51.47m8.13-36.23H193.29a2.8,2.8,0,0,0-2.8,2.8V57.3a2.8,2.8,0,0,0,2.8,2.8h14.64a23.94,23.94,0,0,0,11.39-2.68,19.61,19.61,0,0,0,8-7.9,24,24,0,0,0,2.83-11.85,24,24,0,0,0-2.83-11.85,19.58,19.58,0,0,0-8-7.89,23.83,23.83,0,0,0-11.39-2.69ZM202.6,26.68h5.33c3.17,0,5.46.88,7,2.69s2.47,4.71,2.47,8.3-.83,6.39-2.47,8.3-3.84,2.69-7,2.69H202.6v-22Z"/><path class="cls-1" d="M260.81,59.49A25.52,25.52,0,0,1,249,56.63a1.4,1.4,0,0,1-.68-1.61l1.57-5.67a1.38,1.38,0,0,1,.79-.91,1.36,1.36,0,0,1,.56-.11,1.43,1.43,0,0,1,.66.16A19.09,19.09,0,0,0,260.87,51a6.57,6.57,0,0,0,4.31-1.27,4.14,4.14,0,0,0,1.41-3.39,4.45,4.45,0,0,0-1.48-3.68c-1.06-.87-2.77-1.31-5.08-1.31h-3.42A1.4,1.4,0,0,1,255.2,40V33.91a1.41,1.41,0,0,1,1.41-1.4H260a6.42,6.42,0,0,0,4.15-1.16,3.76,3.76,0,0,0,1.29-3.1,3.67,3.67,0,0,0-1.08-2.89,5,5,0,0,0-3.46-1,11.31,11.31,0,0,0-3.82.65A22.57,22.57,0,0,0,253,27a1.42,1.42,0,0,1-1.32.07,1.38,1.38,0,0,1-.79-1.05l-1-6a1.39,1.39,0,0,1,.71-1.44,22.25,22.25,0,0,1,11-2.7c4,0,7.26,1.06,9.55,3.17a10.9,10.9,0,0,1,3.51,8.38,11.72,11.72,0,0,1-1.7,6.32,10.25,10.25,0,0,1-2.39,2.69A10.81,10.81,0,0,1,276,46.31,12,12,0,0,1,271.72,56C269,58.32,265.28,59.49,260.81,59.49Z"/><path d="M261.6,17.26q5.55,0,8.6,2.8a9.5,9.5,0,0,1,3.06,7.35A10.34,10.34,0,0,1,271.77,33a9.46,9.46,0,0,1-4.17,3.62,10.4,10.4,0,0,1,5.16,3.59,9.9,9.9,0,0,1,1.85,6.11,10.59,10.59,0,0,1-3.79,8.63q-3.78,3.15-10,3.14a23.84,23.84,0,0,1-6.06-.75,23.22,23.22,0,0,1-5-1.94l1.57-5.66a20.47,20.47,0,0,0,9.59,2.69,7.84,7.84,0,0,0,5.21-1.6A5.5,5.5,0,0,0,268,46.36a5.8,5.8,0,0,0-2-4.76Q264,40,260,40h-3.42V33.91H260a7.72,7.72,0,0,0,5-1.48,5.15,5.15,0,0,0,1.79-4.18,5,5,0,0,0-1.54-3.93,6.35,6.35,0,0,0-4.4-1.4,12.8,12.8,0,0,0-4.29.73,24.07,24.07,0,0,0-4.35,2.13l-.95-6a20.89,20.89,0,0,1,10.32-2.52m0-2.81a23.7,23.7,0,0,0-11.68,2.88,2.78,2.78,0,0,0-1.41,2.89l1,6a2.82,2.82,0,0,0,1.59,2.11,2.89,2.89,0,0,0,1.18.26,2.83,2.83,0,0,0,1.46-.41,21.09,21.09,0,0,1,3.83-1.89,10.07,10.07,0,0,1,3.35-.56,3.72,3.72,0,0,1,2.51.67,2.19,2.19,0,0,1,.63,1.85,2.33,2.33,0,0,1-.78,2,5.12,5.12,0,0,1-3.26.84h-3.36a2.81,2.81,0,0,0-2.81,2.8V40a2.8,2.8,0,0,0,2.81,2.8H260a6.84,6.84,0,0,1,4.19,1,3,3,0,0,1,1,2.59,2.68,2.68,0,0,1-.91,2.31,5.22,5.22,0,0,1-3.41.95,17.78,17.78,0,0,1-8.27-2.37,2.81,2.81,0,0,0-4,1.73L247,54.64a2.8,2.8,0,0,0,1.38,3.22A26,26,0,0,0,254,60a26.66,26.66,0,0,0,6.77.85c4.8,0,8.77-1.28,11.8-3.79a13.32,13.32,0,0,0,4.8-10.79,12.16,12.16,0,0,0-4.61-10.06,11.9,11.9,0,0,0,1.35-1.78,13.1,13.1,0,0,0,1.91-7.06,12.23,12.23,0,0,0-4-9.41c-2.56-2.35-6.1-3.55-10.5-3.55Z"/></svg>