<svg xmlns="http://www.w3.org/2000/svg" width="302" height="67" viewBox="0 0 302 67">
    <g fill="none" fill-rule="evenodd">
        <path stroke="#D8D8D8" stroke-linejoin="round" stroke-width="10" d="M2.798 26.853c99.013 23.406 197.497-24.387 296.511-.98"/>
        <path fill="#000" d="M219.305 7.208a1.883 1.883 0 0 0 1.778-1.882c0-1.002-.784-1.755-1.778-1.702-.995.052-1.832.89-1.832 1.892 0 1.001.837 1.744 1.832 1.692"/>
        <path stroke="#000" stroke-linecap="round" stroke-linejoin="round" stroke-width="1.935" d="M219.305 7.208a1.883 1.883 0 0 0 1.778-1.882c0-1.002-.784-1.755-1.778-1.702-.995.052-1.832.89-1.832 1.892 0 1.001.837 1.744 1.832 1.692z"/>
        <path fill="#000" d="M273.616 12.852c0-.738.157-1.665.785-2.208.524-.454 1.1-.526 1.1.211 0 1.16-.786 2.677-1.623 3.72-.157-.602-.262-1.143-.262-1.723m-41.963 8.876c-.524.01-.995.336-1.099.866-.366 1.326-.47 3.646.104 5.004-1.726 2.514-3.924 4.686-5.86 4.761-1.674.063-2.302-1.224-2.302-3.12 0-5.428 2.806-10.664 4.134-12.967 1.527-2.647 3.4-4.581 5.39-4.616 1.778-.031 3.087 1.12 3.087 3.333 0 2.424-.995 6.066-2.617 9.36.052-.37.075-.803.21-1.216a1.079 1.079 0 0 0-1.047-1.405m-48.766 14.173c-1.57.188-2.064-1.305-2.041-3.6.013-1.34.33-3.137.87-5.072.006-.014.012-.029.02-.043.032-.103.06-.204.08-.305 1.593-5.475 4.935-11.906 8.395-12.326 1.862-.226 3.244 1.073 3.35 3.486l-1.256 3.506c-2.094 5.6-5.181 13.845-9.418 14.354m-63.731 8.442c-1.57.188-2.064-1.31-2.041-3.605.013-1.338.328-3.13.868-5.061l.02-.05c.034-.102.06-.205.08-.305 1.593-5.473 4.935-11.908 8.397-12.387 1.861-.258 3.245 1.005 3.35 3.415l-1.256 3.535c-2.094 5.648-5.18 13.95-9.418 14.458m-17.634-19.024c-.785-.56-1.256-1.465-1.256-2.309 0-.58.314-1.03.994-1.093.419-.039.838.238.838 1.134 0 .527-.314 1.505-.576 2.268M78.289 47.838c-1.936.079-2.008-1.585-1.936-3.72.177-5.145 4.444-16.81 9.262-17.15 1.862-.13 3.297 1.267 3.297 4.06l-1.152 3.08c-2.093 5.51-5.285 13.56-9.47 13.73M73.998 62.85c-1.77.094-3.058-1.115-2.982-2.877.1-2.33 2.25-3.816 7.063-4.853.942-.197 1.884-.448 2.878-.708-1.727 5.406-4.149 8.289-6.96 8.438M44.123 36.985c-.524-.04-.995.241-1.1.76-.365 1.29-.47 3.6.105 5.014-1.726 2.345-3.924 4.261-5.86 4.067-1.674-.169-2.301-1.561-2.301-3.457-.001-5.429 2.806-10.255 4.132-12.387 1.527-2.454 3.402-4.18 5.39-4.038 1.779.126 3.087 1.361 3.087 3.574 0 2.424-.994 6.006-2.616 9.16.052-.365.076-.798.21-1.197.229-.684-.315-1.444-1.047-1.496M27.796 11.266c2.878.409 4.29 2.73 4.29 5.734 0 7.483-9.365 10.55-17.109 8.974-.47-.096-.942-.193-1.36-.334 2.459-6.44 8.006-15.251 14.18-14.374M277.75 11.2c-.05-1.494-.994-2.901-2.511-3.123-2.146-.313-3.82 1.794-3.82 4.534 0 1.213.314 2.412.785 3.58-.628.55-1.15 1.063-1.78 1.722-.156.19-.261.441-.261.652 0 .317.128.698.366.943.21.215.524.329.785.362a.955.955 0 0 0 .837-.312c.314-.38.68-.753 1.048-1.071 2.772 5.28 3.611 7 3.61 9.273-.004 4.257-3.14 6.668-7.379 6.157-3.034-.365-5.804-2.989-5.703-6.096a6.577 6.577 0 0 1 .525-2.407c.06-.122.118-.246.177-.372.835-1.584 2.354-2.556 4.269-2.331 1.36.159 2.723 1.696 2.773 3.451.018.613.471 1.167 1.099 1.251.629.084 1.11-.336 1.099-.957-.052-2.861-2.303-5.646-5.023-5.965-3.11-.362-5.44 1.23-6.496 3.946-2.906 5.936-4.723 8.33-7.056 8.187-1.099-.067-1.57-.776-1.57-2.304 0-4.059 4.082-10.704 4.082-15.395 0-2.792-1.151-5.06-4.919-5.256-1.727-.09-3.349.842-4.866 2.371l.418-1.038c.262-.676-.26-1.487-1.046-1.512-.471-.015-.889.237-1.047.707-1.136 3.108-2.663 7.43-4.262 11.957a.98.98 0 0 0-.133.23c-1.831 4.35-3.662 6.342-5.86 6.354-1.204.007-2.093-.35-2.668-1.08 2.406-4.143 4.08-9.306 4.08-12.626 0-3.162-1.83-5.597-5.232-5.59-2.576.006-5.173 1.991-7.377 5.741-1.048 1.784-2.481 4.451-3.435 7.655-1.93 4.401-4.328 9.89-7.553 10.104-1.099.073-1.57-.578-1.57-2.106 0-2.266.941-4.786 6.017-19.454.315-.915-.366-1.404-1.046-1.364a1.131 1.131 0 0 0-.994.796c-1.307 3.49-3.063 8.191-4.37 12.36-.026.036-.057.068-.077.106-2.46 5.602-4.971 10.167-8.739 10.503-1.046.093-1.674-.639-1.674-2.062 0-1.529.677-4.024 2.825-10.319 1.723-5.049 2.617-7.544 2.93-8.572 1.717-.139 2.575-.205 4.291-.328a1.173 1.173 0 0 0 1.1-1.184c0-.58-.472-1.074-1.1-1.028-1.402.1-2.103.153-3.506.264.366-1.03 2.616-7.631 2.46-7.303.261-.704-.262-1.457-1.047-1.396-.47.036-.89.33-1.047.818-.052.215-2.616 7.854-2.72 8.074-1.612.135-2.418.206-4.03.354-.627.058-1.098.629-1.098 1.208 0 .633.47 1.062 1.099 1.005 1.318-.121 1.978-.18 3.295-.292l-2.667 7.771a81.339 81.339 0 0 0-1.132 3.231c-.044.066-.09.13-.126.204l-.051.164c-1.727 4.06-4.238 9.994-7.483 10.336-1.099.117-1.57-.464-1.57-2.045 0-2.318 1.727-7.09 3.612-12.606 1.045-2.932 1.569-4.397 2.615-7.325.262-.658-.157-1.46-.994-1.377-.471.047-.89.353-1.047.79-.261.712-.574 1.535-.89 2.462-.941-1.8-2.843-2.717-4.76-2.284-5.476 1.236-9.15 8.118-10.716 14.602-2.397 5.521-4.873 9.979-8.54 10.461-1.046.137-1.674-.569-1.674-1.992 0-.9.508-3.195 1.557-6.582.04-.094.078-.182.117-.279.043-.132.077-.263.093-.392 1.46-4.61 3.008-9.008 4.46-13.373l2.72-8.355c.21-.606-.124-1.23-.68-1.338-.546-.105-1.203.258-1.412.864a23710.48 23710.48 0 0 0-2.72 8.36c-1.519 4.571-3.148 9.235-4.501 13.555l-.197.633c-2.847 6.726-4.845 9.844-7.285 10.178-1.099.151-1.57-.469-1.57-1.997 0-1.423 1.203-5.858 3.192-11.556.785-2.215 1.78-5.196 2.93-8.408.262-.72-.262-1.44-1.1-1.327a1.276 1.276 0 0 0-.993.82c-2.722 7.853-4.687 13.716-6.488 17.647-1.738 3.793-3.872 5.91-6.017 6.208-1.883.262-2.879-.707-2.879-2.868 0-1.218.195-2.135 1.428-5.704l.038-.085c.016-.05.03-.1.044-.151.905-2.612 2.343-6.587 4.613-12.985.261-.72-.157-1.454-1.047-1.33a1.28 1.28 0 0 0-.993.823c-2.226 6.12-3.71 10.172-4.676 13.018-2.453 5.75-4.962 10.451-8.72 10.963-1.046.143-1.674-.563-1.674-1.986 0-1.528.678-4.049 2.826-10.45 1.722-5.135 2.616-7.683 2.93-8.728 1.716-.236 2.574-.355 4.29-.593a1.275 1.275 0 0 0 1.1-1.259c0-.58-.472-1.04-1.1-.955-1.403.195-2.103.292-3.506.485.366-1.051 2.616-7.792 2.46-7.454.26-.722-.262-1.438-1.047-1.33-.471.065-.89.386-1.047.882-.051.218-2.616 8-2.72 8.226l-4.029.55c-.628.085-1.099.675-1.099 1.255 0 .632.471 1.042 1.099.957 1.319-.178 1.978-.268 3.296-.448l-2.668 7.9a85.334 85.334 0 0 0-1.132 3.28c-.044.068-.09.134-.126.21l-.051.165c-1.727 4.133-4.239 10.163-7.483 10.585-1.099.143-1.57-.43-1.57-2.01 0-2.32 1.727-7.126 3.612-12.696l2.615-7.41c.262-.667-.157-1.454-.994-1.342-.47.062-.89.38-1.046.823-.262.719-.575 1.552-.89 2.489-.942-1.774-2.84-2.639-4.762-2.177-5.518 1.328-9.21 8.283-10.752 14.805-2.852 6.745-4.805 9.765-7.299 10.027-1.151.121-1.607-.771-1.57-2.05.025-.876.186-1.824.47-2.946.335-1.317 2.826-9.153 3.507-10.966.21-.654-.053-1.312-.628-1.46a29.148 29.148 0 0 0-1.988-.42c-1.518-.368-3.298-.769-4.762-1.365.628-2.116.837-2.61.837-3.454 0-2.108-1.152-3.363-3.035-3.189-1.674.157-3.192 1.552-3.192 3.712 0 1.951 1.1 3.227 2.67 4.19l-.629 1.637c-1.376 3.14-2.193 5.002-3.368 7.675-.01.02-.024.035-.033.054-.074.181-.152.358-.227.536l-.558 1.269c0 .002 0 .006-.002.008-2.557 5.587-6.07 10.015-11.51 12.18.88-2.621 1.32-3.933 2.197-6.56a7070.49 7070.49 0 0 0 2.774-8.033c1.675-4.594 3.087-8.494 3.924-10.614.315-.973-.366-1.5-1.099-1.445a1.154 1.154 0 0 0-.993.81l-.837 2.221c-.89-1.728-2.46-2.724-4.814-2.585-4.657.277-8.686 7.156-10.474 13.466-3.186 7.045-5.07 9.866-7.526 9.89-1.1.011-1.57-.673-1.57-2.202 0-4.058 4.081-11.007 4.081-15.697 0-2.793-1.15-4.914-4.918-4.905-1.727.004-3.348.994-4.867 2.555.169-.42.252-.629.419-1.049.263-.681-.262-1.478-1.046-1.49-.47-.007-.89.25-1.047.72-1.137 3.123-2.667 7.44-4.268 11.943a.93.93 0 0 0-.127.218c-1.832 4.311-3.662 6.235-5.86 6.111-1.203-.068-2.093-.494-2.669-1.27 2.407-3.951 4.082-9.036 4.082-12.355 0-3.163-1.827-5.664-5.233-5.958-2.573-.223-5.174 1.459-7.378 4.9-1.05 1.642-2.49 4.092-3.444 7.158-3.395 7.925-7.73 12.33-14.921 11.003-5.128-.947-8.163-4.624-8.163-10.263 0-3.057.994-6.309 2.198-9.952.89.297 1.52.477 2.301.64 7.868 1.619 18.917-1.51 19.15-10.962.102-4.06-2.201-7.5-6.487-8.207C20.381 7.83 14.35 17.014 11.42 24.797c-4.343-1.911-7.377-5.362-7.377-10.053 0-2.899 1.36-6.229 3.243-7.877.21-.161.262-.411.262-.675 0-.685-.522-1.234-1.099-1.376-.314-.079-.628-.051-.836.16-2.303 2.264-3.769 5.704-3.769 9.288 0 5.374 3.454 9.995 8.791 12.465-1.256 3.67-2.197 7.08-2.197 10.295 0 6.534 3.558 11.73 10.36 12.985 6.134 1.132 10.524-1.4 13.926-6.45.087 2.892 1.273 5.152 4.544 5.48 2.512.253 5.18-1.687 7.116-4.183 1.151 1.03 2.511 1.594 3.977 1.676a5.276 5.276 0 0 0 3.24-.864c-.353.982-.702 1.945-1.042 2.876-.21.622.118 1.249.68 1.455a1.088 1.088 0 0 0 1.413-.678c1.465-4.115 2.197-6.177 3.663-10.31 1.674-4.436 5.65-11.48 8.842-11.488 2.04-.005 2.72 1.194 2.72 2.723 0 4.584-4.08 10.716-4.08 15.67 0 2.582 1.255 4.437 3.767 4.412 2.47-.025 4.41-1.564 6.556-5.207.133 2.849 1.171 5.054 4.276 4.927 1.883-.078 3.557-1.215 4.97-2.767l-1.57 4.613a40.92 40.92 0 0 1-4.133 1.029c-6.28 1.405-8.843 3.819-8.843 7.14 0 3.11 2.045 5.14 5.18 5 3.761-.167 6.454-8.31 9.523-11.414 2.84-2.872 10.288-7.06 14.105-13.705.11-.107.21-.23.285-.388l.402-.921c.149-.312.303-.621.434-.944l.045-.153c3.356-7.679 3.687-8.404 3.88-9.009 1.151.47 1.727.637 5.703 1.537-.471 1.208-2.755 8.483-3.191 10.182-.344 1.34-.523 2.422-.523 3.476 0 2.583 1.255 4.307 3.714 4.049l.053-.006c2.423-.254 4.408-1.968 6.503-5.64.159 2.702 1.594 4.745 4.275 4.423 2.25-.27 4.448-2.018 6.54-5.235 0 2.582 1.257 4.27 3.768 3.943 2.388-.311 4.291-2.233 5.847-4.663.184 2.227 1.507 3.688 3.834 3.37 2.948-.4 5.188-2.394 7.18-5.484.3 2.897 1.983 4.224 4.96 3.812l.052-.007c2.354-.327 4.761-2.241 6.278-4.612.314 2.276 1.466 3.539 3.768 3.225 2.097-.287 3.877-1.691 5.696-4.542.22 2.161 1.54 3.562 3.826 3.263 3.204-.422 5.572-2.716 7.694-6.25.055 2.866 1.497 5.073 4.288 4.738 2.25-.27 4.448-2 6.54-5.184 0 2.581 1.256 4.284 3.768 4.017 2.389-.252 4.29-2.112 5.846-4.483.183 2.236 1.507 3.745 3.835 3.537 2.868-.254 5.065-2.031 7.016-4.854-.037 2.353 1.303 4.177 3.763 4.015 2.703-.18 4.772-2.334 6.55-5.313.097 2.849 1.29 4.854 4.542 4.73 2.511-.096 5.18-2.327 7.117-4.997 1.15.928 2.511 1.385 3.976 1.376 1.166-.006 2.237-.343 3.242-1.031-.354.997-.704 1.975-1.044 2.924-.21.631.12 1.243.68 1.424a1.13 1.13 0 0 0 1.413-.73c1.465-4.162 2.198-6.239 3.662-10.383 1.674-4.445 5.651-11.442 8.843-11.275 2.04.107 2.721 1.368 2.721 2.896 0 4.585-4.081 10.475-4.081 15.43 0 2.58 1.255 4.476 3.767 4.63 2.545.156 4.528-1.302 6.752-4.917.976 3.17 4.067 5.787 7.584 6.21 5.285.636 9.565-2.388 9.576-7.97.006-3.533-1.465-5.681-4.186-11.133 1.622-1.61 3-3.793 2.93-5.828"/>
        <path stroke="#000" stroke-linecap="round" stroke-linejoin="round" stroke-width="1.935" d="M273.616 12.852c0-.738.157-1.665.785-2.208.524-.454 1.1-.526 1.1.211 0 1.16-.786 2.677-1.623 3.72-.157-.602-.262-1.143-.262-1.723zm-41.963 8.876c-.524.01-.995.336-1.099.866-.366 1.326-.47 3.646.104 5.004-1.726 2.514-3.924 4.686-5.86 4.761-1.674.063-2.302-1.224-2.302-3.12 0-5.428 2.806-10.664 4.134-12.967 1.527-2.647 3.4-4.581 5.39-4.616 1.778-.031 3.087 1.12 3.087 3.333 0 2.424-.995 6.066-2.617 9.36.052-.37.075-.803.21-1.216a1.079 1.079 0 0 0-1.047-1.405zm-48.766 14.173c-1.57.188-2.064-1.305-2.041-3.6.013-1.34.33-3.137.87-5.072.006-.014.012-.029.02-.043.032-.103.06-.204.08-.305 1.593-5.475 4.935-11.906 8.395-12.326 1.862-.226 3.244 1.073 3.35 3.486l-1.256 3.506c-2.094 5.6-5.181 13.845-9.418 14.354zm-63.731 8.442c-1.57.188-2.064-1.31-2.041-3.605.013-1.338.328-3.13.868-5.061l.02-.05c.034-.102.06-.205.08-.305 1.593-5.473 4.935-11.908 8.397-12.387 1.861-.258 3.245 1.005 3.35 3.415l-1.256 3.535c-2.094 5.648-5.18 13.95-9.418 14.458zm-17.634-19.024c-.785-.56-1.256-1.465-1.256-2.309 0-.58.314-1.03.994-1.093.419-.039.838.238.838 1.134 0 .527-.314 1.505-.576 2.268zM78.289 47.838c-1.936.079-2.008-1.585-1.936-3.72.177-5.145 4.444-16.81 9.262-17.15 1.862-.13 3.297 1.267 3.297 4.06l-1.152 3.08c-2.093 5.51-5.285 13.56-9.47 13.73zM74 62.85c-1.77.094-3.058-1.115-2.982-2.877.1-2.33 2.25-3.816 7.063-4.853.942-.197 1.884-.448 2.878-.708-1.727 5.406-4.149 8.289-6.96 8.438zM44.122 36.985c-.524-.04-.995.241-1.1.76-.365 1.29-.47 3.6.105 5.014-1.726 2.345-3.924 4.261-5.86 4.067-1.674-.169-2.301-1.561-2.301-3.457-.001-5.429 2.806-10.255 4.132-12.387 1.527-2.454 3.402-4.18 5.39-4.038 1.779.126 3.087 1.361 3.087 3.574 0 2.424-.994 6.006-2.616 9.16.052-.365.076-.798.21-1.197.229-.684-.315-1.444-1.047-1.496zM27.796 11.266c2.878.409 4.29 2.73 4.29 5.734 0 7.483-9.365 10.55-17.109 8.974-.47-.096-.942-.193-1.36-.334 2.459-6.44 8.006-15.251 14.18-14.374zM277.75 11.2c-.05-1.494-.994-2.901-2.511-3.123-2.146-.313-3.82 1.794-3.82 4.534 0 1.213.314 2.412.785 3.58-.628.55-1.15 1.063-1.78 1.722-.156.19-.261.441-.261.652 0 .317.128.698.366.943.21.215.524.329.785.362a.955.955 0 0 0 .837-.312c.314-.38.68-.753 1.048-1.071 2.772 5.28 3.611 7 3.61 9.273-.004 4.257-3.14 6.668-7.379 6.157-3.034-.365-5.804-2.989-5.703-6.096a6.577 6.577 0 0 1 .525-2.407c.06-.122.118-.246.177-.372.835-1.584 2.354-2.556 4.269-2.331 1.36.159 2.723 1.696 2.773 3.451.018.613.471 1.167 1.099 1.251.629.084 1.11-.336 1.099-.957-.052-2.861-2.303-5.646-5.023-5.965-3.11-.362-5.44 1.23-6.496 3.946-2.906 5.936-4.723 8.33-7.056 8.187-1.099-.067-1.57-.776-1.57-2.304 0-4.059 4.082-10.704 4.082-15.395 0-2.792-1.151-5.06-4.919-5.256-1.727-.09-3.349.842-4.866 2.371l.418-1.038c.262-.676-.26-1.487-1.046-1.512-.471-.015-.889.237-1.047.707-1.136 3.108-2.663 7.43-4.262 11.957a.98.98 0 0 0-.133.23c-1.831 4.35-3.662 6.342-5.86 6.354-1.204.007-2.093-.35-2.668-1.08 2.406-4.143 4.08-9.306 4.08-12.626 0-3.162-1.83-5.597-5.232-5.59-2.576.006-5.173 1.991-7.377 5.741-1.048 1.784-2.481 4.451-3.435 7.655-1.93 4.401-4.328 9.89-7.553 10.104-1.099.073-1.57-.578-1.57-2.106 0-2.266.941-4.786 6.017-19.454.315-.915-.366-1.404-1.046-1.364a1.131 1.131 0 0 0-.994.796c-1.307 3.49-3.063 8.191-4.37 12.36-.026.036-.057.068-.077.106-2.46 5.602-4.971 10.167-8.739 10.503-1.046.093-1.674-.639-1.674-2.062 0-1.529.677-4.024 2.825-10.319 1.723-5.049 2.617-7.544 2.93-8.572 1.717-.139 2.575-.205 4.291-.328a1.173 1.173 0 0 0 1.1-1.184c0-.58-.472-1.074-1.1-1.028-1.402.1-2.103.153-3.506.264.366-1.03 2.616-7.631 2.46-7.303.261-.704-.262-1.457-1.047-1.396-.47.036-.89.33-1.047.818-.052.215-2.616 7.854-2.72 8.074-1.612.135-2.418.206-4.03.354-.627.058-1.098.629-1.098 1.208 0 .633.47 1.062 1.099 1.005 1.318-.121 1.978-.18 3.295-.292l-2.667 7.771a81.339 81.339 0 0 0-1.132 3.231c-.044.066-.09.13-.126.204l-.051.164c-1.727 4.06-4.238 9.994-7.483 10.336-1.099.117-1.57-.464-1.57-2.045 0-2.318 1.727-7.09 3.612-12.606 1.045-2.932 1.569-4.397 2.615-7.325.262-.658-.157-1.46-.994-1.377-.471.047-.89.353-1.047.79-.261.712-.574 1.535-.89 2.462-.941-1.8-2.843-2.717-4.76-2.284-5.476 1.236-9.15 8.118-10.716 14.602-2.397 5.521-4.873 9.979-8.54 10.461-1.046.137-1.674-.569-1.674-1.992 0-.9.508-3.195 1.557-6.582.04-.094.078-.182.117-.279.043-.132.077-.263.093-.392 1.46-4.61 3.008-9.008 4.46-13.373l2.72-8.355c.21-.606-.124-1.23-.68-1.338-.546-.105-1.203.258-1.412.864a23710.48 23710.48 0 0 0-2.72 8.36c-1.519 4.571-3.148 9.235-4.501 13.555l-.197.633c-2.847 6.726-4.845 9.844-7.285 10.178-1.099.151-1.57-.469-1.57-1.997 0-1.423 1.203-5.858 3.192-11.556.785-2.215 1.78-5.196 2.93-8.408.262-.72-.262-1.44-1.1-1.327a1.276 1.276 0 0 0-.993.82c-2.722 7.853-4.687 13.716-6.488 17.647-1.738 3.793-3.872 5.91-6.017 6.208-1.883.262-2.879-.707-2.879-2.868 0-1.218.195-2.135 1.428-5.704l.038-.085c.016-.05.03-.1.044-.151.905-2.612 2.343-6.587 4.613-12.985.261-.72-.157-1.454-1.047-1.33a1.28 1.28 0 0 0-.993.823c-2.226 6.12-3.71 10.172-4.676 13.018-2.453 5.75-4.962 10.451-8.72 10.963-1.046.143-1.674-.563-1.674-1.986 0-1.528.678-4.049 2.826-10.45 1.722-5.135 2.616-7.683 2.93-8.728 1.716-.236 2.574-.355 4.29-.593a1.275 1.275 0 0 0 1.1-1.259c0-.58-.472-1.04-1.1-.955-1.403.195-2.103.292-3.506.485.366-1.051 2.616-7.792 2.46-7.454.26-.722-.262-1.438-1.047-1.33-.471.065-.89.386-1.047.882-.051.218-2.616 8-2.72 8.226l-4.029.55c-.628.085-1.099.675-1.099 1.255 0 .632.471 1.042 1.099.957 1.319-.178 1.978-.268 3.296-.448l-2.668 7.9a85.334 85.334 0 0 0-1.132 3.28c-.044.068-.09.134-.126.21l-.051.165c-1.727 4.133-4.239 10.163-7.483 10.585-1.099.143-1.57-.43-1.57-2.01 0-2.32 1.727-7.126 3.612-12.696l2.615-7.41c.262-.667-.157-1.454-.994-1.342-.47.062-.89.38-1.046.823-.262.719-.575 1.552-.89 2.489-.942-1.774-2.84-2.639-4.762-2.177-5.518 1.328-9.21 8.283-10.752 14.805-2.852 6.745-4.805 9.765-7.299 10.027-1.151.121-1.607-.771-1.57-2.05.025-.876.186-1.824.47-2.946.335-1.317 2.826-9.153 3.507-10.966.21-.654-.053-1.312-.628-1.46a29.148 29.148 0 0 0-1.988-.42c-1.518-.368-3.298-.769-4.762-1.365.628-2.116.837-2.61.837-3.454 0-2.108-1.152-3.363-3.035-3.189-1.674.157-3.192 1.552-3.192 3.712 0 1.951 1.1 3.227 2.67 4.19l-.629 1.637c-1.376 3.14-2.193 5.002-3.368 7.675-.01.02-.024.035-.033.054-.074.181-.152.358-.227.536l-.558 1.269c0 .002 0 .006-.002.008-2.557 5.587-6.07 10.015-11.51 12.18.88-2.621 1.32-3.933 2.197-6.56a7070.49 7070.49 0 0 0 2.774-8.033c1.675-4.594 3.087-8.494 3.924-10.614.315-.973-.366-1.5-1.099-1.445a1.154 1.154 0 0 0-.993.81l-.837 2.221c-.89-1.728-2.46-2.724-4.814-2.585-4.657.277-8.686 7.156-10.474 13.466-3.186 7.045-5.07 9.866-7.526 9.89-1.1.011-1.57-.673-1.57-2.202 0-4.058 4.081-11.007 4.081-15.697 0-2.793-1.15-4.914-4.918-4.905-1.727.004-3.348.994-4.867 2.555.169-.42.252-.629.419-1.049.263-.681-.262-1.478-1.046-1.49-.47-.007-.89.25-1.047.72-1.137 3.123-2.667 7.44-4.268 11.943a.93.93 0 0 0-.127.218c-1.832 4.311-3.662 6.235-5.86 6.111-1.203-.068-2.093-.494-2.669-1.27 2.407-3.951 4.082-9.036 4.082-12.355 0-3.163-1.827-5.664-5.233-5.958-2.573-.223-5.174 1.459-7.378 4.9-1.05 1.642-2.49 4.092-3.444 7.158-3.395 7.925-7.73 12.33-14.921 11.003-5.128-.947-8.163-4.624-8.163-10.263 0-3.057.994-6.309 2.198-9.952.89.297 1.52.477 2.301.64 7.868 1.619 18.917-1.51 19.15-10.962.102-4.06-2.201-7.5-6.487-8.207C20.381 7.83 14.35 17.014 11.42 24.797c-4.343-1.911-7.377-5.362-7.377-10.053 0-2.899 1.36-6.229 3.243-7.877.21-.161.262-.411.262-.675 0-.685-.522-1.234-1.099-1.376-.314-.079-.628-.051-.836.16-2.303 2.264-3.769 5.704-3.769 9.288 0 5.374 3.454 9.995 8.791 12.465-1.256 3.67-2.197 7.08-2.197 10.295 0 6.534 3.558 11.73 10.36 12.985 6.134 1.132 10.524-1.4 13.926-6.45.087 2.892 1.273 5.152 4.544 5.48 2.512.253 5.18-1.687 7.116-4.183 1.151 1.03 2.511 1.594 3.977 1.676a5.276 5.276 0 0 0 3.24-.864c-.353.982-.702 1.945-1.042 2.876-.21.622.118 1.249.68 1.455a1.088 1.088 0 0 0 1.413-.678c1.465-4.115 2.197-6.177 3.663-10.31 1.674-4.436 5.65-11.48 8.842-11.488 2.04-.005 2.72 1.194 2.72 2.723 0 4.584-4.08 10.716-4.08 15.67 0 2.582 1.255 4.437 3.767 4.412 2.47-.025 4.41-1.564 6.556-5.207.133 2.849 1.171 5.054 4.276 4.927 1.883-.078 3.557-1.215 4.97-2.767l-1.57 4.613a40.92 40.92 0 0 1-4.133 1.029c-6.28 1.405-8.843 3.819-8.843 7.14 0 3.11 2.045 5.14 5.18 5 3.761-.167 6.454-8.31 9.523-11.414 2.84-2.872 10.288-7.06 14.105-13.705.11-.107.21-.23.285-.388l.402-.921c.149-.312.303-.621.434-.944l.045-.153c3.356-7.679 3.687-8.404 3.88-9.009 1.151.47 1.727.637 5.703 1.537-.471 1.208-2.755 8.483-3.191 10.182-.344 1.34-.523 2.422-.523 3.476 0 2.583 1.255 4.307 3.714 4.049l.053-.006c2.423-.254 4.408-1.968 6.503-5.64.159 2.702 1.594 4.745 4.275 4.423 2.25-.27 4.448-2.018 6.54-5.235 0 2.582 1.257 4.27 3.768 3.943 2.388-.311 4.291-2.233 5.847-4.663.184 2.227 1.507 3.688 3.834 3.37 2.948-.4 5.188-2.394 7.18-5.484.3 2.897 1.983 4.224 4.96 3.812l.052-.007c2.354-.327 4.761-2.241 6.278-4.612.314 2.276 1.466 3.539 3.768 3.225 2.097-.287 3.877-1.691 5.696-4.542.22 2.161 1.54 3.562 3.826 3.263 3.204-.422 5.572-2.716 7.694-6.25.055 2.866 1.497 5.073 4.288 4.738 2.25-.27 4.448-2 6.54-5.184 0 2.581 1.256 4.284 3.768 4.017 2.389-.252 4.29-2.112 5.846-4.483.183 2.236 1.507 3.745 3.835 3.537 2.868-.254 5.065-2.031 7.016-4.854-.037 2.353 1.303 4.177 3.763 4.015 2.703-.18 4.772-2.334 6.55-5.313.097 2.849 1.29 4.854 4.542 4.73 2.511-.096 5.18-2.327 7.117-4.997 1.15.928 2.511 1.385 3.976 1.376 1.166-.006 2.237-.343 3.242-1.031-.354.997-.704 1.975-1.044 2.924-.21.631.12 1.243.68 1.424a1.13 1.13 0 0 0 1.413-.73c1.465-4.162 2.198-6.239 3.662-10.383 1.674-4.445 5.651-11.442 8.843-11.275 2.04.107 2.721 1.368 2.721 2.896 0 4.585-4.081 10.475-4.081 15.43 0 2.58 1.255 4.476 3.767 4.63 2.545.156 4.528-1.302 6.752-4.917.976 3.17 4.067 5.787 7.584 6.21 5.285.636 9.565-2.388 9.576-7.97.006-3.533-1.465-5.681-4.186-11.133 1.622-1.61 3-3.793 2.93-5.828z"/>
        <path fill="#000" d="M286.593 35.656c-.994-.2-1.779.493-1.779 1.495 0 1 .785 1.94 1.78 2.141.993.2 1.83-.415 1.83-1.416s-.837-2.021-1.83-2.22"/>
        <path stroke="#000" stroke-linecap="round" stroke-linejoin="round" stroke-width="1.935" d="M286.593 35.656c-.994-.2-1.779.493-1.779 1.495 0 1 .785 1.94 1.78 2.141.993.2 1.83-.415 1.83-1.416s-.837-2.021-1.83-2.22z"/>
        <path fill="#000" d="M299.517 3.268c-.576-.366-1.204-.214-1.36.325a6438.032 6438.032 0 0 0-10.15 26.607c-.21.536.05 1.222.627 1.555.576.332 1.203.152 1.413-.382 3.364-8.84 6.732-17.679 10.15-26.498.21-.523-.105-1.24-.68-1.607"/>
        <path stroke="#000" stroke-linecap="round" stroke-linejoin="round" stroke-width="1.935" d="M299.517 3.268c-.576-.366-1.204-.214-1.36.325a6438.032 6438.032 0 0 0-10.15 26.607c-.21.536.05 1.222.627 1.555.576.332 1.203.152 1.413-.382 3.364-8.84 6.732-17.679 10.15-26.498.21-.523-.105-1.24-.68-1.607z"/>
    </g>
</svg>
