<svg id="Layer_1" data-name="Layer 1" xmlns="http://www.w3.org/2000/svg" viewBox="0 0 300 150"><defs><style>.cls-1{fill:#efefef;}</style></defs><title>portland_text</title><path d="M220.48,107.29a1.62,1.62,0,0,0,.13-.64,2.14,2.14,0,0,0-1.2-1.89l-.1,0a2.13,2.13,0,0,0-2.66,1.08c-2.9,6.69-6.15,9.78-10.28,9.66a4.35,4.35,0,0,1-3.15-1.19,4.1,4.1,0,0,1-.94-3.06,13.88,13.88,0,0,1,.44-2.94c4-1,14.48-4.44,14.48-11.58,0-3-2.19-5-5.57-5-5.47,0-10.46,7.31-12.49,14.15-2.64,5.76-5.07,9.58-8.32,9.58-.22,0-.88,0-.88-1.42s.74-4,2.92-10.22l1.76-4.91c.52-1.46.89-2.5,1.13-3.2h3.88a2,2,0,0,0,2-2,2.05,2.05,0,0,0-2-2h-2.42a61.82,61.82,0,0,0,2.13-6.23h0a2,2,0,0,0-.23-1.86,2.05,2.05,0,0,0-1.7-.89,2,2,0,0,0-1.95,1.42c-.14.44-2,5.86-2.63,7.55h-3.62a2,2,0,0,0-2,1.92,5.67,5.67,0,0,0-4.47-1.81c-5.47,0-10.46,7.31-12.49,14.15-2.64,5.76-5.07,9.58-8.32,9.58-.22,0-.88,0-.88-1.42,0-.31.11-1.63,1.42-5.8.12-.33.23-.66.32-1a1.52,1.52,0,0,0,.1-.32c1-2.91,2-5.72,3-8.49.57-1.61,1.14-3.21,1.7-4.82l2.85-8.35a2,2,0,0,0-.08-1.58,2.12,2.12,0,0,0-1.23-1.07,2.1,2.1,0,0,0-2.56,1.29l-2.86,8.36L162,97c-1.06,3-2.11,6-3.1,8.87l-.28.89c-1,2.64-3.1,5.21-5.2,5.21a2.73,2.73,0,0,1-1.43-.39c1.95-3.28,4-9,4-12.76,0-4.56-2-7.17-5.52-7.17A7.09,7.09,0,0,0,146.38,93a1.85,1.85,0,0,0-.23-.44,2.06,2.06,0,0,0-1.7-.9A2,2,0,0,0,142.52,93l-.33.87c-.4,1-1.72,4.66-3.38,9.24l-1.88,5.18c-2.38,5.08-4.16,7.2-6,7.2-.39,0-.77,0-.77-1.42,0-2.14,1-4.71,2-7.43,1.11-3,2.26-6,2.26-8.92,0-4-2.09-6.07-6.06-6.07-2.32,0-4.7,1.69-6.45,3.73a5.51,5.51,0,0,0-5.61-3.73,6.35,6.35,0,0,0-3.84,1.46,2,2,0,0,0-.24-.45,2.06,2.06,0,0,0-1.7-.9,2,2,0,0,0-1.94,1.36q-2.1,6-4.24,11.9l-.27.76a.43.43,0,0,1,0,.07c-1.76,4.18-3.46,6.12-5.35,6.12A2.9,2.9,0,0,1,97,111.5c2.41-4.3,4.07-9.56,4.07-13,0-4-2.5-6.66-6.4-6.78-3.14,0-6.09,2.15-8.52,6.21a34.83,34.83,0,0,0-3.7,8c-3.83,9.27-8.28,13.24-14.87,13.24-5,0-7.7-2.8-7.7-8.09,0-2.89.91-6.22,2-9.94a17.3,17.3,0,0,0,1.79.09c10.12,0,21-5.92,21-15.48,0-5.18-3-8.48-7.7-8.59h-.2c-7.78,0-14.14,9.85-17.62,19.39-3-.83-6.31-2.83-6.31-7.59a14.19,14.19,0,0,1,3.15-8.46,1.9,1.9,0,0,0,.54-1.4,2,2,0,0,0-2.05-2.05,2,2,0,0,0-1.57.72,18.57,18.57,0,0,0-4.16,11.3c0,5.5,3.35,9.69,9,11.35a37.88,37.88,0,0,0-2.07,10.67c0,7.63,4.41,12.18,11.79,12.18,5.72,0,10.33-2.42,14.11-7.5.73,2.44,2.56,3.75,5.33,3.75,2.46,0,5.28-1.73,7.66-4.67a7.47,7.47,0,0,0,4,1.15,6.76,6.76,0,0,0,1.81-.24l-.39,1.09a2.07,2.07,0,0,0,1.32,2.64,2,2,0,0,0,.59.08,2.06,2.06,0,0,0,2-1.41l3.69-10.49c0-.1.1-.2.14-.3a.38.38,0,0,0,0-.1c.67-1.42,3.51-6.61,4.4-7.94,1.71-2.42,3.07-3.65,4.06-3.65,1.21,0,1.87.35,1.87,2.2s-.73,4-1.94,7.47h0c-.42,1.16-3.72,11-3.74,11a2,2,0,0,0,.23,1.85,2.06,2.06,0,0,0,1.7.9,2,2,0,0,0,1.94-1.38s0,0,0,0c.14-.45,1.89-5.57,2.83-8.34.5-1.45.86-2.52.89-2.6,1.79-5,5.95-11.09,8.25-11.09,1.42,0,2,.56,2,2,0,2-1,4.67-2,7.45-1.13,3-2.29,6.17-2.29,8.9,0,3.4,1.88,5.51,4.91,5.51a6.06,6.06,0,0,0,2-.34l-3.94,11a2,2,0,0,0,.23,1.85,2.06,2.06,0,0,0,1.7.9,2,2,0,0,0,1.94-1.38c.51-1.5,2.47-7,4.7-13.18a5.78,5.78,0,0,0,3.68,1.29c2.92.09,5.83-1.54,8.44-4.75a6.68,6.68,0,0,0,3.65,1.06,7.27,7.27,0,0,0,3.65-1,4.8,4.8,0,0,0,4.89,4.57c3.29,0,5.78-1.7,8-4.69a7.1,7.1,0,0,0,1.54,2.42,8,8,0,0,0,5.93,2.27,11.93,11.93,0,0,0,8.72-3.71,4.7,4.7,0,0,0,4.72,3.71c3.29,0,5.78-1.7,8-4.69a7.1,7.1,0,0,0,1.54,2.42,8,8,0,0,0,5.93,2.27c5.92,0,10.41-3.84,14.13-12.08A1.15,1.15,0,0,0,220.48,107.29Zm-8.85-11.48c1.48,0,1.48.45,1.48.88,0,2.36-3,4.72-8.61,6.72C206.78,98.61,209.38,95.81,211.63,95.81Zm-28.91,0c1.48,0,1.48.45,1.48.88,0,2.36-3,4.72-8.61,6.72C177.87,98.61,180.47,95.81,182.72,95.81Zm-35.57,15.74c-1.84,2.67-3.9,4.14-5.75,4.07-.66,0-1.24,0-1.24-2a8.68,8.68,0,0,1,.81-3.56l.34-1c2-5,5.32-13.43,9.25-13.43.41,0,1.26,0,1.26,3a19.31,19.31,0,0,1-1.37,6.36,2,2,0,0,0-1.32-.48,2,2,0,0,0-1.95,1.53A9.76,9.76,0,0,0,147.15,111.55Zm-55-.14c-1.86,2.54-3.77,4-5.17,4-.46,0-1.54,0-1.54-2.47,0-3.88,1.46-8.35,4.23-12.93,1.59-2.73,3.33-4.24,4.91-4.24s2.36,1,2.36,2.64A20.08,20.08,0,0,1,95.53,105a2.06,2.06,0,0,0-1.3-.46,2,2,0,0,0-2,1.53A11,11,0,0,0,92.19,111.41ZM63.38,97.17c3-7.86,8.41-15.9,13.67-15.9,3.16,0,3.63,2.83,3.63,4.51,0,7.44-9.94,11.39-17.12,11.39ZM189.22,95.7h2.21l-2.38,6.66c-.4,1-.8,2.13-1.18,3.23l-.13.21c-2.9,6.69-6.18,9.75-10.28,9.66a4.35,4.35,0,0,1-3.15-1.19,4.15,4.15,0,0,1-.95-3.06,14.6,14.6,0,0,1,.45-2.94c4-1,14.48-4.44,14.48-11.58a5.31,5.31,0,0,0-.17-1.3A2.14,2.14,0,0,0,189.22,95.7Z"/><path d="M236.55,78.5a2.08,2.08,0,0,0-1.16-1,2,2,0,0,0-1.61.1,1.9,1.9,0,0,0-1,1.15L222.14,109a2,2,0,0,0,1.19,2.63,2.05,2.05,0,0,0,2.63-1.26l10.68-30.28A2,2,0,0,0,236.55,78.5Z"/><path d="M221.49,114.41a2.78,2.78,0,0,0-2.76,2.81,2.73,2.73,0,0,0,2.76,2.76,2.78,2.78,0,0,0,2.81-2.76A2.85,2.85,0,0,0,221.49,114.41Z"/><path class="cls-1" d="M46.6,56a1.38,1.38,0,0,1-1.23-.74L38.22,41.44H32.94V54.66A1.37,1.37,0,0,1,31.56,56H25.07a1.37,1.37,0,0,1-1.38-1.37V16.11a1.38,1.38,0,0,1,1.38-1.38H38.61c4.46,0,8,1.09,10.63,3.24s4,5.51,4,9.82a13.19,13.19,0,0,1-1.93,7.36,12.77,12.77,0,0,1-4.19,3.93l8,14.93a1.37,1.37,0,0,1-1.21,2ZM37.4,33.24c2.31,0,4-.47,5-1.38a4.82,4.82,0,0,0,1.45-3.8c0-2.38-.71-5.12-6.27-5.12H32.94v10.3Z"/><path d="M38.61,16.11q6.22,0,9.75,2.92c2.35,1.95,3.52,4.86,3.52,8.76a11.8,11.8,0,0,1-1.7,6.6,11.86,11.86,0,0,1-4.9,4.13l8.64,16.14H46.6L39.05,40.07H31.56V54.66H25.07V16.11H38.61m-7,18.5H37.4c2.68,0,4.65-.57,5.92-1.73a6.19,6.19,0,0,0,1.9-4.82q0-6.49-7.65-6.5h-6V34.61m7.05-21.25H25.07a2.76,2.76,0,0,0-2.76,2.75V54.66a2.76,2.76,0,0,0,2.76,2.75h6.49a2.76,2.76,0,0,0,2.76-2.75V42.82h3.06l6.77,13.1a2.75,2.75,0,0,0,2.45,1.49h7.32a2.76,2.76,0,0,0,2.43-4L49,39.54a14,14,0,0,0,3.53-3.63,14.56,14.56,0,0,0,2.16-8.12c0-4.74-1.52-8.4-4.52-10.88-2.85-2.36-6.72-3.55-11.51-3.55Zm-4.29,11h3.25c4.52,0,4.9,1.85,4.9,3.74a3.42,3.42,0,0,1-1,2.79c-.72.66-2.13,1-4.06,1H34.32V24.32Z"/><path class="cls-1" d="M78.59,56.81A20.66,20.66,0,0,1,68.1,54.14a18.91,18.91,0,0,1-7.27-7.56,23.36,23.36,0,0,1-2.61-11.2,23.34,23.34,0,0,1,2.61-11.19,18.85,18.85,0,0,1,7.27-7.56,21.94,21.94,0,0,1,21,0,18.91,18.91,0,0,1,7.27,7.56A23.23,23.23,0,0,1,99,35.38a23.27,23.27,0,0,1-2.62,11.2,18.91,18.91,0,0,1-7.27,7.56A20.66,20.66,0,0,1,78.59,56.81Zm0-33.93c-3.53,0-6.15,1.1-8,3.36a14,14,0,0,0-2.87,9.14,14,14,0,0,0,2.87,9.15c1.88,2.26,4.5,3.35,8,3.35s6.14-1.09,8-3.35a14,14,0,0,0,2.85-9.15,14,14,0,0,0-2.85-9.14C84.73,24,82.12,22.88,78.59,22.88Z"/><path d="M78.59,15.34a19.26,19.26,0,0,1,9.8,2.48,17.5,17.5,0,0,1,6.75,7,21.9,21.9,0,0,1,2.45,10.54,21.91,21.91,0,0,1-2.45,10.55,17.5,17.5,0,0,1-6.75,7,20.6,20.6,0,0,1-19.6,0,17.56,17.56,0,0,1-6.75-7,21.91,21.91,0,0,1-2.45-10.55A21.9,21.9,0,0,1,62,24.84a17.56,17.56,0,0,1,6.75-7,19.26,19.26,0,0,1,9.8-2.48m0,33.92q5.89,0,9.06-3.85a15.29,15.29,0,0,0,3.17-10,15.28,15.28,0,0,0-3.17-10q-3.16-3.86-9.06-3.85T69.5,25.36a15.24,15.24,0,0,0-3.19,10,15.25,15.25,0,0,0,3.19,10q3.19,3.86,9.09,3.85m0-36.67a22.07,22.07,0,0,0-11.18,2.84,20.33,20.33,0,0,0-7.79,8.1,24.63,24.63,0,0,0-2.78,11.85,24.64,24.64,0,0,0,2.78,11.86,20.33,20.33,0,0,0,7.79,8.1,23.43,23.43,0,0,0,22.36,0,20.33,20.33,0,0,0,7.79-8.1,24.67,24.67,0,0,0,2.78-11.86,24.63,24.63,0,0,0-2.78-11.85,20.33,20.33,0,0,0-7.79-8.1,22.07,22.07,0,0,0-11.18-2.84Zm0,33.92c-3.09,0-5.37-.94-7-2.86-1.73-2.08-2.57-4.78-2.57-8.27a12.44,12.44,0,0,1,2.56-8.26c1.6-1.92,3.88-2.86,7-2.86s5.36.93,6.93,2.85a12.52,12.52,0,0,1,2.54,8.27c0,3.49-.83,6.2-2.54,8.28-1.57,1.92-3.84,2.85-6.93,2.85Z"/><path class="cls-1" d="M122.2,56.81c-5.67,0-10-1.7-13-5s-4.36-7.86-4.36-13.58V16.11a1.37,1.37,0,0,1,1.37-1.38h6.39A1.38,1.38,0,0,1,114,16.11V36.54c0,3.84.61,6.8,1.81,8.79C116.89,47.12,119,48,122.2,48s5.31-.88,6.4-2.67c1.2-2,1.81-4.95,1.81-8.79V16.11a1.38,1.38,0,0,1,1.38-1.38h6.38a1.38,1.38,0,0,1,1.38,1.38V38.19c0,5.72-1.47,10.29-4.36,13.58S127.88,56.81,122.2,56.81Z"/><path d="M138.17,16.11V38.19q0,8.1-4,12.67t-12,4.57q-7.92,0-12-4.57t-4-12.67V16.11h6.39V36.54q0,6.16,2,9.5c1.34,2.22,3.87,3.33,7.57,3.33s6.23-1.11,7.58-3.33,2-5.39,2-9.5V16.11h6.38m0-2.75h-6.38A2.75,2.75,0,0,0,129,16.11V36.54c0,3.58-.54,6.3-1.61,8.08-.3.49-1.21,2-5.22,2s-4.91-1.51-5.21-2c-1.07-1.78-1.62-4.49-1.62-8.08V16.11a2.75,2.75,0,0,0-2.75-2.75h-6.39a2.75,2.75,0,0,0-2.75,2.75V38.19c0,6.06,1.58,10.94,4.71,14.49s7.92,5.5,14,5.5,10.81-1.85,14-5.5,4.71-8.43,4.71-14.49V16.11a2.76,2.76,0,0,0-2.76-2.75Z"/><path class="cls-1" d="M174.08,56a1.37,1.37,0,0,1-1.15-.61L156.84,31.29V54.66A1.37,1.37,0,0,1,155.46,56h-6.38a1.37,1.37,0,0,1-1.38-1.37V16.11a1.38,1.38,0,0,1,1.38-1.38h6.49a1.38,1.38,0,0,1,1.15.62l14.82,22.49V16.11a1.38,1.38,0,0,1,1.38-1.38h6.44a1.38,1.38,0,0,1,1.38,1.38V54.66A1.37,1.37,0,0,1,179.36,56Z"/><path d="M179.36,16.11V54.66h-5.28L155.46,26.74V54.66h-6.38V16.11h6.49l17.35,26.32V16.11h6.44m0-2.75h-6.44a2.75,2.75,0,0,0-2.75,2.75V33.25L157.87,14.6a2.74,2.74,0,0,0-2.3-1.24h-6.49a2.75,2.75,0,0,0-2.76,2.75V54.66a2.75,2.75,0,0,0,2.76,2.75h6.38a2.76,2.76,0,0,0,2.76-2.75V35.83l13.56,20.36a2.77,2.77,0,0,0,2.3,1.22h5.28a2.76,2.76,0,0,0,2.76-2.75V16.11a2.76,2.76,0,0,0-2.76-2.75Z"/><path class="cls-1" d="M190.71,56a1.37,1.37,0,0,1-1.38-1.37V16.11a1.38,1.38,0,0,1,1.38-1.38h14.37a22.09,22.09,0,0,1,10.53,2.48,17.91,17.91,0,0,1,7.3,7.21,22.29,22.29,0,0,1,2.6,11,22.3,22.3,0,0,1-2.6,11,18,18,0,0,1-7.3,7.21A22.09,22.09,0,0,1,205.08,56Zm14.37-8.48c3.54,0,6.13-1,7.93-3.12s2.75-5.18,2.75-9-.93-6.9-2.75-9-4.4-3.13-7.93-3.13h-6.61V47.55Z"/><path d="M205.08,16.11A20.62,20.62,0,0,1,215,18.42a16.61,16.61,0,0,1,6.75,6.67,20.87,20.87,0,0,1,2.42,10.29,20.89,20.89,0,0,1-2.42,10.3A16.61,16.61,0,0,1,215,52.35a20.62,20.62,0,0,1-9.88,2.31H190.71V16.11h14.37m-8,32.82h8q5.89,0,9-3.61t3.09-9.94q0-6.33-3.09-9.94t-9-3.6h-8V48.93m8-35.57H190.71A2.75,2.75,0,0,0,188,16.11V54.66a2.75,2.75,0,0,0,2.76,2.75h14.37a23.42,23.42,0,0,0,11.18-2.64A19.21,19.21,0,0,0,224.11,47a23.6,23.6,0,0,0,2.77-11.64,23.59,23.59,0,0,0-2.77-11.63A19.21,19.21,0,0,0,216.26,16a23.42,23.42,0,0,0-11.18-2.64Zm-5.23,11.23h5.23c3.11,0,5.36.87,6.88,2.64s2.42,4.63,2.42,8.15-.81,6.27-2.42,8.16-3.77,2.64-6.88,2.64h-5.23V24.59Z"/><path class="cls-1" d="M263.89,56a1.37,1.37,0,0,1-1.38-1.37V46.78H244.78a1.37,1.37,0,0,1-1.12-2.17l20.93-29.3a1.37,1.37,0,0,1,1.12-.58h4.4a1.38,1.38,0,0,1,1.38,1.38V38.8h3.58a1.37,1.37,0,0,1,1.37,1.38v5.23a1.37,1.37,0,0,1-1.37,1.37h-3.58v7.88A1.37,1.37,0,0,1,270.11,56ZM262.51,38.8V31.69l-5,7.11Z"/><path d="M270.11,16.11V40.18h5v5.23h-5v9.25h-6.22V45.41H244.78l20.93-29.3h4.4M254.86,40.18h9V27.34l-9,12.84m15.25-26.82h-4.4a2.78,2.78,0,0,0-2.25,1.15l-20.92,29.3a2.75,2.75,0,0,0,2.24,4.35h16.36v6.5a2.75,2.75,0,0,0,2.75,2.75h6.22a2.75,2.75,0,0,0,2.75-2.75v-6.5h2.21a2.75,2.75,0,0,0,2.75-2.75V40.18a2.75,2.75,0,0,0-2.75-2.76h-2.21V16.11a2.75,2.75,0,0,0-2.75-2.75Zm-9.95,24.06,1-1.38v1.38Z"/></svg>