<svg id="Layer_1" data-name="Layer 1" xmlns="http://www.w3.org/2000/svg" viewBox="0 0 300 150"><defs><style>.cls-1{fill:#efefef;}</style></defs><title>portland_text</title><path d="M224.69,108.94a1.68,1.68,0,0,0,.13-.65,2.21,2.21,0,0,0-1.23-1.94l-.09,0a2.2,2.2,0,0,0-2.72,1.11c-2.95,6.82-6.28,10-10.47,9.84a4.42,4.42,0,0,1-3.22-1.21,4.16,4.16,0,0,1-1-3.12,14.45,14.45,0,0,1,.45-3c4.08-1.05,14.76-4.52,14.76-11.8,0-3.08-2.23-5.06-5.68-5.06-5.57,0-10.66,7.44-12.73,14.42-2.69,5.87-5.17,9.77-8.49,9.77-.22,0-.89,0-.89-1.45s.75-4.12,3-10.42c.72-2,1.3-3.66,1.77-5,.54-1.52.93-2.59,1.18-3.32h4A2.06,2.06,0,0,0,205.51,95,2.09,2.09,0,0,0,203.43,93H201a64.59,64.59,0,0,0,2.18-6.35h0a2,2,0,0,0-.24-1.88,2.08,2.08,0,0,0-1.73-.92,2,2,0,0,0-2,1.45c-.14.45-2.06,6-2.68,7.7h-3.69a2.09,2.09,0,0,0-2.08,2,5.75,5.75,0,0,0-4.55-1.84c-5.57,0-10.66,7.44-12.74,14.42-2.68,5.87-5.16,9.77-8.48,9.77-.22,0-.89,0-.89-1.45,0-.32.11-1.66,1.44-5.92.13-.33.24-.67.34-1q0-.14.09-.33c1-3,2-5.84,3-8.67.58-1.64,1.16-3.26,1.73-4.9l2.91-8.51a2,2,0,0,0-.08-1.61,2.1,2.1,0,0,0-3.87.22l-2.92,8.53-1.69,4.82c-1.08,3.06-2.14,6.08-3.14,9-.1.31-.2.61-.29.9-1,2.69-3.16,5.32-5.31,5.32a2.75,2.75,0,0,1-1.45-.4c2-3.35,4-9.17,4-13,0-4.64-2-7.31-5.62-7.31a7.28,7.28,0,0,0-4.15,1.36,2.64,2.64,0,0,0-.23-.44,2.1,2.1,0,0,0-1.74-.92,2,2,0,0,0-2,1.38l-.33.89c-.41,1-1.74,4.73-3.44,9.38-.6,1.67-1.25,3.46-1.93,5.31-2.42,5.18-4.24,7.35-6.08,7.35-.4,0-.78,0-.78-1.45,0-2.18,1-4.8,2-7.57,1.14-3,2.31-6.17,2.31-9.1,0-4-2.14-6.19-6.18-6.19-2.36,0-4.79,1.72-6.57,3.8a5.64,5.64,0,0,0-5.73-3.8,6.51,6.51,0,0,0-3.92,1.49,2,2,0,0,0-.24-.46,2.1,2.1,0,0,0-1.73-.91,2.05,2.05,0,0,0-2,1.38q-2.14,6.08-4.32,12.13c-.09.26-.18.52-.28.78a.43.43,0,0,0,0,.07c-1.79,4.26-3.53,6.24-5.45,6.24a3,3,0,0,1-1.73-.44c2.46-4.39,4.15-9.75,4.15-13.25,0-4.08-2.55-6.79-6.52-6.91-3.2,0-6.21,2.19-8.69,6.32A36,36,0,0,0,84,107.58c-3.9,9.46-8.44,13.5-15.16,13.5-5.14,0-7.85-2.85-7.85-8.25,0-3,.93-6.34,2.09-10.13a17.94,17.94,0,0,0,1.83.09c10.32,0,21.45-6,21.45-15.78,0-5.29-3-8.65-7.85-8.77-8-.18-14.58,10-18.16,19.77-3.1-.85-6.44-2.89-6.44-7.74a14.5,14.5,0,0,1,3.22-8.63,1.93,1.93,0,0,0,.54-1.42,2.06,2.06,0,0,0-2.08-2.09,2,2,0,0,0-1.6.73A18.89,18.89,0,0,0,49.7,90.38c0,5.61,3.42,9.88,9.19,11.58a38.59,38.59,0,0,0-2.11,10.87c0,7.78,4.49,12.42,12,12.42,5.83,0,10.53-2.47,14.39-7.65.74,2.49,2.6,3.83,5.43,3.83,2.51,0,5.38-1.77,7.81-4.77a7.59,7.59,0,0,0,4.09,1.18,7,7,0,0,0,1.84-.25L102,118.7a2.12,2.12,0,0,0,1.34,2.7,2.47,2.47,0,0,0,.6.08,2.1,2.1,0,0,0,2-1.44l3.77-10.69a2.92,2.92,0,0,1,.14-.31.38.38,0,0,1,0-.1c.67-1.44,3.57-6.74,4.48-8.1,1.74-2.47,3.14-3.72,4.14-3.72,1.24,0,1.91.36,1.91,2.24s-.75,4.06-2,7.62h0c-.43,1.2-3.79,11.19-3.81,11.25a2.05,2.05,0,0,0,.23,1.89,2.09,2.09,0,0,0,1.74.92,2.06,2.06,0,0,0,2-1.41s0,0,0,0c.16-.49,2.11-6.2,3.05-9l.75-2.19c1.82-5.08,6.06-11.3,8.41-11.3,1.45,0,2,.57,2,2,0,2.08-1,4.76-2,7.6-1.15,3.09-2.34,6.29-2.34,9.07,0,3.47,1.92,5.62,5,5.62a6,6,0,0,0,2.05-.35l-4,11.25a2.06,2.06,0,0,0,.23,1.89,2.13,2.13,0,0,0,1.74.91,2,2,0,0,0,2-1.41c.5-1.5,2.36-6.68,4.79-13.43a5.87,5.87,0,0,0,3.75,1.31c3,.1,5.94-1.57,8.6-4.84a6.86,6.86,0,0,0,3.73,1.08,7.41,7.41,0,0,0,3.71-1.07,4.91,4.91,0,0,0,5,4.66c3.36,0,5.9-1.73,8.16-4.78a7.49,7.49,0,0,0,1.57,2.47,8.22,8.22,0,0,0,6,2.31,12.15,12.15,0,0,0,8.89-3.79,4.79,4.79,0,0,0,4.81,3.79c3.37,0,5.9-1.73,8.16-4.78a7.51,7.51,0,0,0,1.58,2.47,8.2,8.2,0,0,0,6,2.31c6,0,10.62-3.91,14.41-12.32Zm-9-11.71c1.51,0,1.51.46,1.51.9,0,2.41-3.09,4.81-8.77,6.85C210.72,100.09,213.37,97.23,215.66,97.23Zm-29.47,0c1.51,0,1.51.46,1.51.9,0,2.41-3.1,4.81-8.77,6.85C181.25,100.09,183.9,97.23,186.19,97.23Zm-36.27,16c-1.87,2.72-3.95,4.22-5.86,4.15-.67,0-1.26,0-1.26-2a8.85,8.85,0,0,1,.82-3.64l.35-1c2-5.12,5.42-13.69,9.43-13.69.42,0,1.29,0,1.29,3a19.91,19.91,0,0,1-1.4,6.48,2.1,2.1,0,0,0-1.35-.48,2,2,0,0,0-2,1.55A10.15,10.15,0,0,0,149.92,113.28Zm-56-.14c-1.89,2.59-3.85,4.12-5.27,4.12-.47,0-1.57,0-1.57-2.52,0-4,1.49-8.51,4.32-13.18,1.61-2.79,3.39-4.33,5-4.33s2.41,1,2.41,2.69a20.68,20.68,0,0,1-1.47,6.7,2.12,2.12,0,0,0-3.38,1.09A11.25,11.25,0,0,0,93.89,113.14ZM64.52,98.62c3.08-8,8.57-16.21,13.94-16.21,3.21,0,3.69,2.88,3.69,4.6,0,7.58-10.13,11.61-17.45,11.61Zm128.3-1.5h2.25l-2.42,6.8c-.41,1-.82,2.16-1.21,3.28,0,.07-.09.14-.13.22-3,6.82-6.28,10-10.48,9.84a4.44,4.44,0,0,1-3.22-1.21,4.24,4.24,0,0,1-1-3.12,15.2,15.2,0,0,1,.46-3c4.08-1.05,14.76-4.52,14.76-11.8a5.63,5.63,0,0,0-.17-1.33A2.1,2.1,0,0,0,192.82,97.12Z"/><path d="M225.71,116.2a2.84,2.84,0,0,0-2.81,2.87,2.79,2.79,0,0,0,2.81,2.81,2.84,2.84,0,0,0,2.87-2.81A2.9,2.9,0,0,0,225.71,116.2Z"/><path d="M241.07,79.59a2.1,2.1,0,0,0-1.18-1.07,2,2,0,0,0-1.64.11,1.91,1.91,0,0,0-1,1.17l-10.89,30.87a2.06,2.06,0,0,0,1.21,2.68,2.15,2.15,0,0,0,.7.12,2.11,2.11,0,0,0,2-1.4l10.89-30.88A2,2,0,0,0,241.07,79.59Z"/><path class="cls-1" d="M47.41,56.68a1.4,1.4,0,0,1-1.25-.76L38.86,41.8H33.48V55.28a1.4,1.4,0,0,1-1.4,1.4H25.46a1.41,1.41,0,0,1-1.41-1.4V16a1.41,1.41,0,0,1,1.41-1.41H39.27c4.54,0,8.19,1.11,10.83,3.3s4.1,5.62,4.1,10a13.43,13.43,0,0,1-2,7.51,13.07,13.07,0,0,1-4.27,4l8.15,15.21a1.4,1.4,0,0,1-1.24,2.07ZM38,33.44c2.36,0,4.07-.47,5.09-1.4a4.94,4.94,0,0,0,1.48-3.88c0-2.43-.73-5.22-6.4-5.22H33.48v10.5Z"/><path d="M39.27,16q6.34,0,9.93,3t3.6,8.93a12,12,0,0,1-1.74,6.74,12.14,12.14,0,0,1-5,4.21l8.82,16.45H47.41L39.72,40.4H32.08V55.28H25.46V16H39.27M32.08,34.84h6c2.73,0,4.75-.59,6-1.77A6.31,6.31,0,0,0,46,28.16q0-6.63-7.8-6.62H32.08v13.3m7.19-21.67H25.46A2.81,2.81,0,0,0,22.65,16v39.3a2.8,2.8,0,0,0,2.81,2.8h6.62a2.8,2.8,0,0,0,2.81-2.8V43.21H38l6.9,13.36a2.82,2.82,0,0,0,2.5,1.51h7.47A2.81,2.81,0,0,0,57.35,54L49.8,39.87a13.93,13.93,0,0,0,3.6-3.71,14.81,14.81,0,0,0,2.2-8.28c0-4.82-1.55-8.55-4.6-11.09s-6.85-3.62-11.73-3.62ZM34.89,24.34H38.2c4.61,0,5,1.89,5,3.82a3.47,3.47,0,0,1-1,2.84c-.74.68-2.17,1-4.14,1H34.89V24.34Z"/><path class="cls-1" d="M80,57.47a21.12,21.12,0,0,1-10.7-2.72A19.31,19.31,0,0,1,61.92,47a23.77,23.77,0,0,1-2.67-11.41,23.78,23.78,0,0,1,2.67-11.42,19.31,19.31,0,0,1,7.41-7.71,22.46,22.46,0,0,1,21.39,0,19.25,19.25,0,0,1,7.41,7.71,23.78,23.78,0,0,1,2.67,11.42A23.77,23.77,0,0,1,98.13,47a19.25,19.25,0,0,1-7.41,7.71A21.11,21.11,0,0,1,80,57.47Zm0-34.59c-3.6,0-6.28,1.12-8.19,3.42a14.25,14.25,0,0,0-2.93,9.33A14.24,14.24,0,0,0,71.84,45c1.91,2.3,4.59,3.42,8.19,3.42s6.26-1.12,8.15-3.42a14.27,14.27,0,0,0,2.91-9.32,14.3,14.3,0,0,0-2.91-9.33C86.29,24,83.62,22.88,80,22.88Z"/><path d="M80,15.19a19.57,19.57,0,0,1,10,2.53,17.85,17.85,0,0,1,6.88,7.16,22.34,22.34,0,0,1,2.5,10.75,22.37,22.37,0,0,1-2.5,10.75A17.91,17.91,0,0,1,90,53.54a21.08,21.08,0,0,1-20,0,17.82,17.82,0,0,1-6.87-7.16,22.25,22.25,0,0,1-2.5-10.75,22.22,22.22,0,0,1,2.5-10.75A17.76,17.76,0,0,1,70,17.72a19.59,19.59,0,0,1,10-2.53m0,34.58c4,0,7.08-1.3,9.23-3.93a15.55,15.55,0,0,0,3.23-10.21,15.6,15.6,0,0,0-3.23-10.22Q86,21.48,80,21.48t-9.27,3.93a15.5,15.5,0,0,0-3.25,10.22q0,6.28,3.25,10.21C72.93,48.47,76,49.77,80,49.77m0-37.39a22.46,22.46,0,0,0-11.4,2.91,20.78,20.78,0,0,0-7.95,8.25,25.21,25.21,0,0,0-2.83,12.09,25.06,25.06,0,0,0,2.84,12.08A20.65,20.65,0,0,0,68.63,56a23.84,23.84,0,0,0,22.79,0,20.67,20.67,0,0,0,8-8.26,25.17,25.17,0,0,0,2.83-12.08,25.21,25.21,0,0,0-2.83-12.09,20.65,20.65,0,0,0-8-8.25A22.44,22.44,0,0,0,80,12.38ZM80,47c-3.16,0-5.48-1-7.11-2.92a12.7,12.7,0,0,1-2.61-8.42,12.73,12.73,0,0,1,2.61-8.43c1.63-2,4-2.91,7.11-2.91s5.46.95,7.06,2.9c1.75,2.12,2.59,4.88,2.59,8.44s-.84,6.31-2.59,8.43C85.49,46,83.18,47,80,47Z"/><path class="cls-1" d="M124.49,57.47c-5.79,0-10.24-1.73-13.24-5.14s-4.44-8-4.44-13.84V16a1.4,1.4,0,0,1,1.4-1.41h6.51A1.41,1.41,0,0,1,116.13,16V36.81c0,3.91.62,6.93,1.84,8.95,1.11,1.83,3.24,2.72,6.52,2.72s5.42-.89,6.52-2.71c1.22-2,1.85-5.05,1.85-9V16a1.4,1.4,0,0,1,1.4-1.41h6.51A1.41,1.41,0,0,1,142.18,16V38.49c0,5.83-1.5,10.48-4.45,13.84S130.28,57.47,124.49,57.47Z"/><path d="M140.77,16V38.49q0,8.25-4.1,12.91t-12.18,4.66q-8.08,0-12.18-4.66t-4.1-12.91V16h6.51V36.81q0,6.28,2,9.68t7.72,3.4q5.67,0,7.72-3.4t2-9.68V16h6.51m0-2.81h-6.51A2.81,2.81,0,0,0,131.45,16V36.81c0,3.65-.55,6.42-1.64,8.23-.31.5-1.23,2-5.32,2s-5-1.53-5.31-2c-1.1-1.81-1.65-4.58-1.65-8.23V16a2.81,2.81,0,0,0-2.81-2.81h-6.51A2.81,2.81,0,0,0,105.4,16V38.49c0,6.18,1.62,11.15,4.8,14.77s8.08,5.61,14.29,5.61,11-1.89,14.29-5.61,4.8-8.59,4.8-14.77V16a2.81,2.81,0,0,0-2.81-2.81Z"/><path class="cls-1" d="M177.38,56.68a1.4,1.4,0,0,1-1.17-.62L159.8,31.45V55.28a1.4,1.4,0,0,1-1.4,1.4h-6.51a1.41,1.41,0,0,1-1.41-1.4V16a1.41,1.41,0,0,1,1.41-1.41h6.62a1.41,1.41,0,0,1,1.17.63l15.11,22.93V16a1.41,1.41,0,0,1,1.41-1.41h6.57a1.41,1.41,0,0,1,1.4,1.41v39.3a1.4,1.4,0,0,1-1.4,1.4Z"/><path d="M182.77,16v39.3h-5.39l-19-28.47V55.28h-6.51V16h6.62L176.2,42.81V16h6.57m0-2.81H176.2A2.81,2.81,0,0,0,173.39,16V33.45l-12.53-19a2.8,2.8,0,0,0-2.35-1.26h-6.62A2.81,2.81,0,0,0,149.08,16v39.3a2.8,2.8,0,0,0,2.81,2.8h6.51a2.8,2.8,0,0,0,2.81-2.8V36.08L175,56.83a2.81,2.81,0,0,0,2.34,1.25h5.39a2.8,2.8,0,0,0,2.8-2.8V16a2.8,2.8,0,0,0-2.8-2.81Z"/><path class="cls-1" d="M194.33,56.68a1.4,1.4,0,0,1-1.4-1.4V16a1.41,1.41,0,0,1,1.4-1.41H209a22.44,22.44,0,0,1,10.74,2.53,18.28,18.28,0,0,1,7.45,7.34,22.83,22.83,0,0,1,2.64,11.19,22.81,22.81,0,0,1-2.64,11.18,18.37,18.37,0,0,1-7.45,7.35A22.55,22.55,0,0,1,209,56.68ZM209,48c3.61,0,6.26-1,8.09-3.18s2.81-5.28,2.81-9.22-.95-7.05-2.81-9.22-4.48-3.19-8.09-3.19h-6.73V48Z"/><path d="M209,16a21.06,21.06,0,0,1,10.08,2.35,16.87,16.87,0,0,1,6.88,6.8,21.2,21.2,0,0,1,2.47,10.5,21.23,21.23,0,0,1-2.47,10.5,16.85,16.85,0,0,1-6.88,6.79A21.07,21.07,0,0,1,209,55.28H194.33V16H209m-8.14,33.46H209q6,0,9.16-3.68t3.14-10.13c0-4.31-1.05-7.68-3.14-10.14S213,21.82,209,21.82h-8.14V49.44M209,13.17H194.33A2.81,2.81,0,0,0,191.52,16v39.3a2.8,2.8,0,0,0,2.81,2.8H209a23.88,23.88,0,0,0,11.41-2.69,19.63,19.63,0,0,0,8-7.9,24,24,0,0,0,2.83-11.86,24.07,24.07,0,0,0-2.83-11.87,19.63,19.63,0,0,0-8-7.9A23.88,23.88,0,0,0,209,13.17Zm-5.33,11.45H209c3.18,0,5.47.88,7,2.7s2.47,4.71,2.47,8.31S217.64,42,216,43.94s-3.84,2.69-7,2.69h-5.33v-22Z"/><path class="cls-1" d="M251.54,56.68a1.39,1.39,0,0,1-1.23-.73,1.4,1.4,0,0,1,.05-1.44l10.45-16.06a67.87,67.87,0,0,0,4.31-7.25,10.15,10.15,0,0,0,1.13-4.33,4.29,4.29,0,0,0-1.07-3.13,4,4,0,0,0-3-1.08c-2.85,0-5.73,1.43-8.55,4.25a1.39,1.39,0,0,1-1.45.33,1.43,1.43,0,0,1-.94-1.16l-.78-6.62a1.4,1.4,0,0,1,.51-1.27,19.33,19.33,0,0,1,12.33-4.4,12.81,12.81,0,0,1,6.58,1.62,10.81,10.81,0,0,1,4.22,4.42,13.12,13.12,0,0,1,1.39,6,18.83,18.83,0,0,1-1.55,7.37,60.51,60.51,0,0,1-5.08,9l-3.68,5.57h10.31a1.4,1.4,0,0,1,1.4,1.4v6.07a1.4,1.4,0,0,1-1.4,1.4Z"/><path d="M263.27,15.19a11.45,11.45,0,0,1,5.87,1.43,9.39,9.39,0,0,1,3.68,3.85,11.68,11.68,0,0,1,1.23,5.39,17.32,17.32,0,0,1-1.43,6.82,58.82,58.82,0,0,1-5,8.79l-5.11,7.74h12.92v6.07H251.54L262,39.22a67.76,67.76,0,0,0,4.41-7.41,11.54,11.54,0,0,0,1.26-4.94,5.64,5.64,0,0,0-1.46-4.1,5.35,5.35,0,0,0-4-1.52q-4.89,0-9.54,4.66l-.79-6.62a17.85,17.85,0,0,1,11.45-4.1m0-2.81a20.67,20.67,0,0,0-13.21,4.72,2.83,2.83,0,0,0-1,2.52l.79,6.63a2.83,2.83,0,0,0,1.87,2.32,2.91,2.91,0,0,0,.92.15,2.81,2.81,0,0,0,2-.82c2.58-2.58,5.06-3.84,7.56-3.84a2.53,2.53,0,0,1,2,.66,2.76,2.76,0,0,1,.68,2.15,8.93,8.93,0,0,1-1,3.73,67.13,67.13,0,0,1-4.22,7.08L249.19,53.75a2.79,2.79,0,0,0,2.35,4.33h23.92a2.8,2.8,0,0,0,2.8-2.8V49.21a2.8,2.8,0,0,0-2.8-2.8h-7.7L270,43a61.92,61.92,0,0,0,5.21-9.24,20.4,20.4,0,0,0,1.65-7.91,14.55,14.55,0,0,0-1.54-6.67,12.09,12.09,0,0,0-4.76-5,14.29,14.29,0,0,0-7.29-1.82Z"/></svg>