<svg xmlns="http://www.w3.org/2000/svg" xmlns:xlink="http://www.w3.org/1999/xlink" width="308" height="156" viewBox="0 0 308 156">
    <defs>
        <path id="a" d="M.165.684h24.316V25H.165z"/>
        <path id="c" d="M.165.684h24.316V25H.165z"/>
    </defs>
    <g fill="none" fill-rule="evenodd">
        <path stroke="#DDA812" stroke-width="3" d="M248.113 97.36l9 9M257.113 97.36l-9 9M284.113 113.36l9 9M293.113 113.36l-9 9"/>
        <path fill="#DDA812" d="M288.113 93.938c0-12.632-6.316-18.947-18.948-18.947 12.632 0 18.948-6.317 18.948-18.949 0 12.632 6.315 18.95 18.947 18.95-12.632 0-18.947 6.314-18.947 18.946"/>
        <path stroke="#DDA812" stroke-width="3" d="M288.113 93.938c0-12.632-6.316-18.947-18.948-18.947 12.632 0 18.948-6.317 18.948-18.949 0 12.632 6.315 18.95 18.947 18.95-12.632 0-18.947 6.314-18.947 18.946z"/>
        <g transform="translate(252 130.359)">
            <mask id="b" fill="#fff">
                <use xlink:href="#a"/>
            </mask>
            <path fill="#DDA812" d="M12.323 25c0-8.105-4.053-12.158-12.158-12.158 8.105 0 12.158-4.053 12.158-12.158 0 8.105 4.053 12.158 12.158 12.158-8.105 0-12.158 4.053-12.158 12.158" mask="url(#b)"/>
        </g>
        <g transform="translate(252 130.359)">
            <mask id="d" fill="#fff">
                <use xlink:href="#c"/>
            </mask>
            <path stroke="#DDA812" stroke-width="3" d="M12.323 25c0-8.105-4.053-12.158-12.158-12.158 8.105 0 12.158-4.053 12.158-12.158 0 8.105 4.053 12.158 12.158 12.158-8.105 0-12.158 4.053-12.158 12.158z" mask="url(#d)"/>
        </g>
        <path stroke="#DDA812" stroke-width="3" d="M10.06 50.043l-9-9M1.06 50.043l9-9"/>
        <path fill="#DDA812" d="M38.06 54.464c0 12.632 6.317 18.947 18.949 18.947-12.632 0-18.948 6.317-18.948 18.949 0-12.632-6.316-18.95-18.948-18.95 12.632 0 18.948-6.314 18.948-18.946"/>
        <path stroke="#DDA812" stroke-width="3" d="M38.06 54.464c0 12.632 6.317 18.947 18.949 18.947-12.632 0-18.948 6.317-18.948 18.949 0-12.632-6.316-18.95-18.948-18.95 12.632 0 18.948-6.314 18.948-18.946z"/>
        <path fill="#DDA812" d="M27.85.043c0 8.105 4.053 12.158 12.158 12.158-8.105 0-12.158 4.053-12.158 12.158 0-8.105-4.053-12.158-12.158-12.158C23.797 12.2 27.85 8.148 27.85.043"/>
        <path stroke="#DDA812" stroke-width="3" d="M27.85.043c0 8.105 4.053 12.158 12.158 12.158-8.105 0-12.158 4.053-12.158 12.158 0-8.105-4.053-12.158-12.158-12.158C23.797 12.2 27.85 8.148 27.85.043z"/>
    </g>
</svg>
