<?xml version="1.0" encoding="utf-8"?>
<svg width="308" height="156" viewBox="0 0 308 156" xmlns="http://www.w3.org/2000/svg">
  <defs>
    <path id="a" d="M.165.684h24.316V25H.165z"/>
    <path id="c" d="M.165.684h24.316V25H.165z"/>
  </defs>
  <g fill="none" fill-rule="evenodd">
    <path stroke="#DDA812" stroke-width="3" d="M 203.131 95.782 L 212.131 104.782 M 212.131 95.782 L 203.131 104.782 M 239.131 111.782 L 248.131 120.782 M 248.131 111.782 L 239.131 120.782"/>
    <path fill="#DDA812" d="M 243.131 92.36 C 243.131 79.728 236.815 73.413 224.183 73.413 C 236.815 73.413 243.131 67.096 243.131 54.464 C 243.131 67.096 249.446 73.414 262.078 73.414 C 249.446 73.414 243.131 79.728 243.131 92.36"/>
    <path stroke="#DDA812" stroke-width="3" d="M 243.131 92.36 C 243.131 79.728 236.815 73.413 224.183 73.413 C 236.815 73.413 243.131 67.096 243.131 54.464 C 243.131 67.096 249.446 73.414 262.078 73.414 C 249.446 73.414 243.131 79.728 243.131 92.36 Z"/>
    <g transform="matrix(1, 0, 0, 1, 207.01767, 128.780991)">
      <mask id="b" fill="#fff">
        <path id="" d="M.165.684h24.316V25H.165z" transform="matrix(1, 0, 0, 1, 0, 0)"/>
      </mask>
      <path fill="#DDA812" d="M12.323 25c0-8.105-4.053-12.158-12.158-12.158 8.105 0 12.158-4.053 12.158-12.158 0 8.105 4.053 12.158 12.158 12.158-8.105 0-12.158 4.053-12.158 12.158" mask="url(#b)"/>
    </g>
    <g transform="matrix(1, 0, 0, 1, 207.01767, 128.780991)">
      <mask id="d" fill="#fff">
        <path id="" d="M.165.684h24.316V25H.165z" transform="matrix(1, 0, 0, 1, 0, 0)"/>
      </mask>
      <path stroke="#DDA812" stroke-width="3" d="M12.323 25c0-8.105-4.053-12.158-12.158-12.158 8.105 0 12.158-4.053 12.158-12.158 0 8.105 4.053 12.158 12.158 12.158-8.105 0-12.158 4.053-12.158 12.158z" mask="url(#d)"/>
    </g>
    <path stroke="#DDA812" stroke-width="3" d="M 53.051 53.465 L 44.051 44.465 M 44.051 53.465 L 53.051 44.465"/>
    <path fill="#DDA812" d="M 81.051 57.886 C 81.051 70.518 87.368 76.833 100 76.833 C 87.368 76.833 81.052 83.15 81.052 95.782 C 81.052 83.15 74.736 76.832 62.104 76.832 C 74.736 76.832 81.052 70.518 81.052 57.886"/>
    <path stroke="#DDA812" stroke-width="3" d="M 81.051 57.886 C 81.051 70.518 87.368 76.833 100 76.833 C 87.368 76.833 81.052 83.15 81.052 95.782 C 81.052 83.15 74.736 76.832 62.104 76.832 C 74.736 76.832 81.052 70.518 81.052 57.886 Z"/>
    <path fill="#DDA812" d="M 70.841 3.465 C 70.841 11.57 74.894 15.623 82.999 15.623 C 74.894 15.623 70.841 19.676 70.841 27.781 C 70.841 19.676 66.788 15.623 58.683 15.623 C 66.788 15.622 70.841 11.57 70.841 3.465"/>
    <path stroke="#DDA812" stroke-width="3" d="M 70.841 3.465 C 70.841 11.57 74.894 15.623 82.999 15.623 C 74.894 15.623 70.841 19.676 70.841 27.781 C 70.841 19.676 66.788 15.623 58.683 15.623 C 66.788 15.622 70.841 11.57 70.841 3.465 Z"/>
  </g>
</svg>