<svg xmlns="http://www.w3.org/2000/svg" width="512" height="178" viewBox="0 0 512 178">
    <g fill="none" fill-rule="evenodd">
        <path fill="#000" d="M63.182 9.163a1.664 1.664 0 0 1 1.634 1.69c0 1.865-4.2 5.124-9.099 5.897 1.866-3.859 4.9-7.679 7.465-7.587M133.058 5.9a2.672 2.672 0 0 0 2.45-2.674c0-1.399-1.167-2.34-2.566-2.215-14.932 1.317-22.164 24.922-29.63 48.636-7 22.595-14.116 45.311-26.364 45.297-5.367-.028-7.233-4.527-7.233-11.052 0-11.55 7.932-34.455 17.15-62.276.582-1.527-.585-3.253-2.335-3.23-1.049.013-2.1.605-2.45 1.89-1.166 5.438-14.814 43.12-18.314 50.268-6.183 13.085-13.299 23.752-20.064 23.14-5.484-.736-8.049-4.446-8.049-11.438 0-6.61 11.082-43.472 17.73-59.802 8.283-1.68 16.682-5.969 16.682-11.454 0-3.735-2.799-6.344-6.883-6.493-5.949-.215-10.965 7.034-13.53 13.611-3.034.363-6.417.426-9.917.653C22.937 19.898 1.006 18.69 1.006 36.04c-.233 8.685 5.832 17.055 13.998 18.544 1.633.297 2.567-.827 2.567-2.109 0-1.167-.817-2.473-2.45-2.769-5.132-.933-9.215-6.15-9.215-12.33 0-13.875 19.948-12.646 34.645-13.749 2.45-.107 4.783-.252 7.116-.535-7.932 20.994-16.915 51.106-16.915 58.558 0 9.545 4.084 15.881 12.95 16.933 7.815.705 15.166-7.894 21.347-19.596-.117 1.63-.233 3.26-.233 4.775 0 9.086 3.85 16.154 12.132 16.2 15.865-.008 23.447-24.75 31.03-49.04 7-22.218 13.765-44.13 25.08-45.02"/>
        <path stroke="#000" stroke-linejoin="round" stroke-width="2" d="M63.182 9.163a1.664 1.664 0 0 1 1.634 1.69c0 1.865-4.2 5.124-9.099 5.897 1.866-3.859 4.9-7.679 7.465-7.587zM133.058 5.9a2.672 2.672 0 0 0 2.45-2.674c0-1.399-1.167-2.34-2.566-2.215-14.932 1.317-22.164 24.922-29.63 48.636-7 22.595-14.116 45.311-26.364 45.297-5.367-.028-7.233-4.527-7.233-11.052 0-11.55 7.932-34.455 17.15-62.276.582-1.527-.585-3.253-2.335-3.23-1.049.013-2.1.605-2.45 1.89-1.166 5.438-14.814 43.12-18.314 50.268-6.183 13.085-13.299 23.752-20.064 23.14-5.484-.736-8.049-4.446-8.049-11.438 0-6.61 11.082-43.472 17.73-59.802 8.283-1.68 16.682-5.969 16.682-11.454 0-3.735-2.799-6.344-6.883-6.493-5.949-.215-10.965 7.034-13.53 13.611-3.034.363-6.417.426-9.917.653C22.937 19.898 1.006 18.69 1.006 36.04c-.233 8.685 5.832 17.055 13.998 18.544 1.633.297 2.567-.827 2.567-2.109 0-1.167-.817-2.473-2.45-2.769-5.132-.933-9.215-6.15-9.215-12.33 0-13.875 19.948-12.646 34.645-13.749 2.45-.107 4.783-.252 7.116-.535-7.932 20.994-16.915 51.106-16.915 58.558 0 9.545 4.084 15.881 12.95 16.933 7.815.705 15.166-7.894 21.347-19.596-.117 1.63-.233 3.26-.233 4.775 0 9.086 3.85 16.154 12.132 16.2 15.865-.008 23.447-24.75 31.03-49.04 7-22.218 13.765-44.13 25.08-45.02z"/>
        <path fill="#000" d="M354.011 33.03c2.566.438 5.017 1.488 5.017 4.638-.002 8.571-13.88 11.798-23.565 13.865 3.734-8.567 10.5-19.887 18.548-18.503M234.905 53.61c-1.167.11-2.217.911-2.45 2.1-.818 2.996-1.05 8.152.233 11.06-3.85 5.853-8.749 11.02-13.066 11.485-3.733.401-5.132-2.356-5.132-6.557 0-12.018 6.182-24.01 9.215-29.339 3.383-6.185 7.582-10.693 12.016-11.107 3.966-.37 6.883 1.948 6.883 6.847 0 5.368-2.217 13.603-5.834 21.17.117-.828.117-1.76.467-2.727.466-1.676-.7-3.086-2.332-2.932M138.43 42.031c2.566-.245 5.016.092 5.016 3.242 0 8.643-13.88 15.737-23.564 19.453 3.734-9.255 10.5-21.923 18.548-22.695m232.496 20.195c.117-.323.232-.529.233-.879 0-.933-.583-2.004-1.516-2.684-1.283-.76-2.683-.483-3.267.558-6.53 13.645-13.998 19.002-23.563 17.477-6.999-1.16-10.733-5.56-10.499-12.2.116-2.438.467-4.619 1.283-7.567 12.948-1.958 30.33-6.018 30.33-18.293 0-5.593-4.083-9.505-9.916-10.507-10.943-1.897-20.849 12.451-24.804 25.88-6.203 13.832-10.835 20.29-16.494 20.018-2.449-.112-3.499-1.662-3.499-5.046 0-10.063 8.984-23.039 8.983-34.206 0-6.164-2.567-11.179-10.966-11.475-5.483-.184-11.432 5.137-14.815 10.517 0-6.175-3.733-10.75-10.732-10.584-3.967.098-7.699 2.92-11.082 7.04.35-1.183.7-2.132 1.166-3.202.584-1.54-.583-3.244-2.332-3.16-1.05.05-1.984.68-2.334 1.747-3.174 9.126-6.38 18.283-9.585 27.458-.029.062-.075.113-.099.178-4.083 9.954-8.166 14.692-13.065 15.102-2.682.225-4.666-.413-5.949-1.93 5.366-9.586 9.098-21.309 9.098-28.659 0-6.994-3.966-11.949-11.665-11.467-5.833.544-11.549 5.216-16.448 13.91-2.372 4.132-5.58 10.28-7.699 17.55-5.813 13.911-13.024 22.812-24.264 24.152-5.6.666-9.332-3.325-9.332-9.858 0-2.76.492-5.83 1.342-8.987.04-.13.078-.26.107-.39 3.542-12.739 12.902-26.744 20.131-27.592 3.5-.409 5.016 1.401 5.016 5.484 0 4.666-2.799 6.973-2.799 8.606 0 1.517.933 2.225 2.45 2.05 2.683-.31 5.25-5.967 5.25-11.216 0-6.416-3.267-10.6-9.917-9.823-9.762 1.15-21.324 16.662-25.163 32.24-5.384 12.326-10.928 22.298-19.165 23.201-2.334.255-3.733-1.347-3.733-4.496 0-2.007 1.173-7.019 3.517-14.626.071-.162.144-.31.214-.475.114-.354.225-.599.23-.934 3.345-10.159 6.69-19.768 9.92-29.367 2.023-6.142 4.044-12.287 6.067-18.433.466-1.338-.235-2.656-1.518-2.973-1.283-.2-2.682.544-3.149 1.881a66808.44 66808.44 0 0 1-6.066 18.421c-3.38 10.063-6.882 20.245-10.033 29.795l-.12.395C144.17 80.4 136.74 87.848 127.231 88.413c-6.999.346-10.733-3.503-10.498-10.163.116-2.457.466-4.698 1.283-7.789 12.948-4.03 30.331-13.314 30.33-25.689 0-5.602-4.084-8.199-9.916-7.64-13.766 1.34-25.898 26.357-26.598 41.324-.232 9.573 5.6 15.667 15.283 14.866 7.604-.638 13.99-4.487 19.603-11.858 0 .073-.005.15-.005.223 0 5.597 3.033 9.492 8.633 8.882 7.597-.835 13.086-6.456 18.046-15.113 1.034 7.802 6.304 12.32 13.917 11.411 9.466-1.128 16.416-6.178 22.176-14.799 0 .142-.012.282-.012.425 0 6.77 2.565 11.48 10.15 10.661 5.6-.603 11.548-5.982 15.864-12.217 2.566 1.858 5.6 2.634 8.866 2.36 2.554-.214 4.905-1.124 7.112-2.77-.774 2.235-1.557 4.461-2.328 6.7-.467 1.318.233 2.662 1.518 3.032a2.74 2.74 0 0 0 3.148-1.866c2.622-7.63 5.244-15.244 7.867-22.843.1-.228.198-.442.297-.674.024-.06.03-.118.05-.178 1.491-3.282 7.584-14.726 9.518-17.699 3.383-4.93 6.883-8.785 10.15-8.865 4.198-.1 5.832 2.11 5.832 6.422 0 4.084-1.749 9.352-4.2 16.521-.117.218-7.816 23.308-7.932 23.68-.584 1.538.583 3.242 2.332 3.185 1.051-.035 1.983-.644 2.334-1.704-.117.22 7.7-22.806 7.932-23.489 3.383-9.51 12.483-24.792 19.248-24.547 4.666.16 6.066 2.931 6.066 6.308 0 9.535-9.099 23.671-9.099 34.317 0 5.724 2.8 9.844 8.515 10.101 6.357.303 11.224-4.714 15.035-10.795 1.341 7.317 6.76 12.37 14.948 13.45 11.783 1.59 20.648-4.314 28.23-19.357"/>
        <path stroke="#000" stroke-linejoin="round" stroke-width="2" d="M354.011 33.03c2.566.438 5.017 1.488 5.017 4.638-.002 8.571-13.88 11.798-23.565 13.865 3.734-8.567 10.5-19.887 18.548-18.503zM234.905 53.61c-1.167.11-2.217.911-2.45 2.1-.818 2.996-1.05 8.152.233 11.06-3.85 5.853-8.749 11.02-13.066 11.485-3.733.401-5.132-2.356-5.132-6.557 0-12.018 6.182-24.01 9.215-29.339 3.383-6.185 7.582-10.693 12.016-11.107 3.966-.37 6.883 1.948 6.883 6.847 0 5.368-2.217 13.603-5.834 21.17.117-.828.117-1.76.467-2.727.466-1.676-.7-3.086-2.332-2.932zM138.43 42.031c2.566-.245 5.016.092 5.016 3.242 0 8.643-13.88 15.737-23.564 19.453 3.734-9.255 10.5-21.923 18.548-22.695zm232.496 20.195c.117-.323.232-.529.233-.879 0-.933-.583-2.004-1.516-2.684-1.283-.76-2.683-.483-3.267.558-6.53 13.645-13.998 19.002-23.563 17.477-6.999-1.16-10.733-5.56-10.499-12.2.116-2.438.467-4.619 1.283-7.567 12.948-1.958 30.33-6.018 30.33-18.293 0-5.593-4.083-9.505-9.916-10.507-10.943-1.897-20.849 12.451-24.804 25.88-6.203 13.832-10.835 20.29-16.494 20.018-2.449-.112-3.499-1.662-3.499-5.046 0-10.063 8.984-23.039 8.983-34.206 0-6.164-2.567-11.179-10.966-11.475-5.483-.184-11.432 5.137-14.815 10.517 0-6.175-3.733-10.75-10.732-10.584-3.967.098-7.699 2.92-11.082 7.04.35-1.183.7-2.132 1.166-3.202.584-1.54-.583-3.244-2.332-3.16-1.05.05-1.984.68-2.334 1.747-3.174 9.126-6.38 18.283-9.585 27.458-.029.062-.075.113-.099.178-4.083 9.954-8.166 14.692-13.065 15.102-2.682.225-4.666-.413-5.949-1.93 5.366-9.586 9.098-21.309 9.098-28.659 0-6.994-3.966-11.949-11.665-11.467-5.833.544-11.549 5.216-16.448 13.91-2.372 4.132-5.58 10.28-7.699 17.55-5.813 13.911-13.024 22.812-24.264 24.152-5.6.666-9.332-3.325-9.332-9.858 0-2.76.492-5.83 1.342-8.987.04-.13.078-.26.107-.39 3.542-12.739 12.902-26.744 20.131-27.592 3.5-.409 5.016 1.401 5.016 5.484 0 4.666-2.799 6.973-2.799 8.606 0 1.517.933 2.225 2.45 2.05 2.683-.31 5.25-5.967 5.25-11.216 0-6.416-3.267-10.6-9.917-9.823-9.762 1.15-21.324 16.662-25.163 32.24-5.384 12.326-10.928 22.298-19.165 23.201-2.334.255-3.733-1.347-3.733-4.496 0-2.007 1.173-7.019 3.517-14.626.071-.162.144-.31.214-.475.114-.354.225-.599.23-.934 3.345-10.159 6.69-19.768 9.92-29.367 2.023-6.142 4.044-12.287 6.067-18.433.466-1.338-.235-2.656-1.518-2.973-1.283-.2-2.682.544-3.149 1.881a66808.44 66808.44 0 0 1-6.066 18.421c-3.38 10.063-6.882 20.245-10.033 29.795l-.12.395C144.17 80.4 136.74 87.848 127.231 88.413c-6.999.346-10.733-3.503-10.498-10.163.116-2.457.466-4.698 1.283-7.789 12.948-4.03 30.331-13.314 30.33-25.689 0-5.602-4.084-8.199-9.916-7.64-13.766 1.34-25.898 26.357-26.598 41.324-.232 9.573 5.6 15.667 15.283 14.866 7.604-.638 13.99-4.487 19.603-11.858 0 .073-.005.15-.005.223 0 5.597 3.033 9.492 8.633 8.882 7.597-.835 13.086-6.456 18.046-15.113 1.034 7.802 6.304 12.32 13.917 11.411 9.466-1.128 16.416-6.178 22.176-14.799 0 .142-.012.282-.012.425 0 6.77 2.565 11.48 10.15 10.661 5.6-.603 11.548-5.982 15.864-12.217 2.566 1.858 5.6 2.634 8.866 2.36 2.554-.214 4.905-1.124 7.112-2.77-.774 2.235-1.557 4.461-2.328 6.7-.467 1.318.233 2.662 1.518 3.032a2.74 2.74 0 0 0 3.148-1.866c2.622-7.63 5.244-15.244 7.867-22.843.1-.228.198-.442.297-.674.024-.06.03-.118.05-.178 1.491-3.282 7.584-14.726 9.518-17.699 3.383-4.93 6.883-8.785 10.15-8.865 4.198-.1 5.832 2.11 5.832 6.422 0 4.084-1.749 9.352-4.2 16.521-.117.218-7.816 23.308-7.932 23.68-.584 1.538.583 3.242 2.332 3.185 1.051-.035 1.983-.644 2.334-1.704-.117.22 7.7-22.806 7.932-23.489 3.383-9.51 12.483-24.792 19.248-24.547 4.666.16 6.066 2.931 6.066 6.308 0 9.535-9.099 23.671-9.099 34.317 0 5.724 2.8 9.844 8.515 10.101 6.357.303 11.224-4.714 15.035-10.795 1.341 7.317 6.76 12.37 14.948 13.45 11.783 1.59 20.648-4.314 28.23-19.357z"/>
        <path fill="#000" d="M402.107 71.296c0 1.922.618 3.567 1.857 4.934 1.238 1.368 3.058 2.051 5.46 2.051h4.77l.553-5.045h-1.663c-1.59 0-2.689-.09-3.299-.276-.61-.185-1.007-.582-1.192-1.192-.185-.61-.277-1.728-.277-3.355V55.22h6.486V50.23h-6.486v-6.986l-6.209.665v6.321h-3.604l-.554 4.99h4.158v16.076z"/>
        <path stroke="#000" stroke-linejoin="round" stroke-width="2" d="M402.107 71.296c0 1.922.618 3.567 1.857 4.934 1.238 1.368 3.058 2.051 5.46 2.051h4.77l.553-5.045h-1.663c-1.59 0-2.689-.09-3.299-.276-.61-.185-1.007-.582-1.192-1.192-.185-.61-.277-1.728-.277-3.355V55.22h6.486V50.23h-6.486v-6.986l-6.209.665v6.321h-3.604l-.554 4.99h4.158v16.076z"/>
        <path fill="#000" d="M437.06 70.631c-1.35 1.627-3.225 2.44-5.627 2.44-2.402 0-4.269-.813-5.6-2.44-1.33-1.626-1.995-3.843-1.995-6.653 0-2.772.665-4.98 1.995-6.625 1.331-1.644 3.198-2.467 5.6-2.467 2.402 0 4.277.823 5.627 2.467 1.35 1.645 2.023 3.853 2.023 6.625 0 2.81-.674 5.027-2.023 6.653m1.857-19.043c-2.106-1.275-4.6-1.913-7.484-1.913-2.847 0-5.322.638-7.429 1.913a12.848 12.848 0 0 0-4.85 5.183c-1.128 2.181-1.692 4.584-1.692 7.207 0 2.625.564 5.027 1.692 7.207a12.844 12.844 0 0 0 4.85 5.184c2.107 1.275 4.582 1.912 7.43 1.912 2.882 0 5.377-.637 7.483-1.912 2.107-1.275 3.715-3.003 4.824-5.184 1.108-2.18 1.663-4.582 1.663-7.207 0-2.623-.555-5.026-1.663-7.207-1.109-2.18-2.717-3.908-4.824-5.183"/>
        <path stroke="#000" stroke-linejoin="round" stroke-width="2" d="M437.06 70.631c-1.35 1.627-3.225 2.44-5.627 2.44-2.402 0-4.269-.813-5.6-2.44-1.33-1.626-1.995-3.843-1.995-6.653 0-2.772.665-4.98 1.995-6.625 1.331-1.644 3.198-2.467 5.6-2.467 2.402 0 4.277.823 5.627 2.467 1.35 1.645 2.023 3.853 2.023 6.625 0 2.81-.674 5.027-2.023 6.653zm1.857-19.043c-2.106-1.275-4.6-1.913-7.484-1.913-2.847 0-5.322.638-7.429 1.913a12.848 12.848 0 0 0-4.85 5.183c-1.128 2.181-1.692 4.584-1.692 7.207 0 2.625.564 5.027 1.692 7.207a12.844 12.844 0 0 0 4.85 5.184c2.107 1.275 4.582 1.912 7.43 1.912 2.882 0 5.377-.637 7.483-1.912 2.107-1.275 3.715-3.003 4.824-5.184 1.108-2.18 1.663-4.582 1.663-7.207 0-2.623-.555-5.026-1.663-7.207-1.109-2.18-2.717-3.908-4.824-5.183z"/>
        <path fill="#000" d="M154.202 143.116c-1.568 1.433-3.946 2.15-7.13 2.15h-7.641v-17.604h7.505c3.275 0 5.698.706 7.266 2.115 1.57 1.411 2.354 3.64 2.354 6.687 0 3.002-.784 5.22-2.354 6.652m-6.242-22.208h-16.58v47.76h8.05V152.02h8.598c5.32 0 9.415-1.297 12.28-3.889 2.867-2.593 4.299-6.527 4.299-11.804 0-10.279-5.55-15.419-16.647-15.419"/>
        <path stroke="#000" stroke-linejoin="round" stroke-width="2" d="M154.202 143.116c-1.568 1.433-3.946 2.15-7.13 2.15h-7.641v-17.604h7.505c3.275 0 5.698.706 7.266 2.115 1.57 1.411 2.354 3.64 2.354 6.687 0 3.002-.784 5.22-2.354 6.652zm-6.242-22.208h-16.58v47.76h8.05V152.02h8.598c5.32 0 9.415-1.297 12.28-3.889 2.867-2.593 4.299-6.527 4.299-11.804 0-10.279-5.55-15.419-16.647-15.419z"/>
        <path fill="#000" d="M206.806 157.205c-2.616 3.184-6.356 4.776-11.224 4.776-4.867 0-8.62-1.592-11.257-4.776-2.639-3.184-3.957-7.323-3.957-12.418 0-5.093 1.318-9.233 3.957-12.417 2.637-3.184 6.39-4.776 11.257-4.776 4.868 0 8.608 1.592 11.224 4.776 2.615 3.184 3.923 7.324 3.923 12.417 0 5.095-1.308 9.234-3.923 12.418m.921-34.183c-3.548-2.046-7.597-3.07-12.145-3.07-4.548 0-8.596 1.024-12.144 3.07-3.549 2.047-6.335 4.947-8.359 8.7-2.024 3.752-3.036 8.108-3.036 13.065 0 4.96 1.012 9.314 3.036 13.066 2.024 3.753 4.81 6.652 8.36 8.7 3.547 2.046 7.595 3.07 12.143 3.07 4.548 0 8.597-1.024 12.145-3.07 3.55-2.048 6.334-4.947 8.358-8.7 2.024-3.752 3.036-8.107 3.036-13.066 0-4.957-1.012-9.313-3.036-13.065-2.024-3.753-4.809-6.653-8.358-8.7"/>
        <path stroke="#000" stroke-linejoin="round" stroke-width="2" d="M206.806 157.205c-2.616 3.184-6.356 4.776-11.224 4.776-4.867 0-8.62-1.592-11.257-4.776-2.639-3.184-3.957-7.323-3.957-12.418 0-5.093 1.318-9.233 3.957-12.417 2.637-3.184 6.39-4.776 11.257-4.776 4.868 0 8.608 1.592 11.224 4.776 2.615 3.184 3.923 7.324 3.923 12.417 0 5.095-1.308 9.234-3.923 12.418zm.921-34.183c-3.548-2.046-7.597-3.07-12.145-3.07-4.548 0-8.596 1.024-12.144 3.07-3.549 2.047-6.335 4.947-8.359 8.7-2.024 3.752-3.036 8.108-3.036 13.065 0 4.96 1.012 9.314 3.036 13.066 2.024 3.753 4.81 6.652 8.36 8.7 3.547 2.046 7.595 3.07 12.143 3.07 4.548 0 8.597-1.024 12.145-3.07 3.55-2.048 6.334-4.947 8.358-8.7 2.024-3.752 3.036-8.107 3.036-13.066 0-4.957-1.012-9.313-3.036-13.065-2.024-3.753-4.809-6.653-8.358-8.7z"/>
        <path fill="#000" d="M252.997 141.683c-1.57 1.433-4.016 2.15-7.335 2.15h-7.231v-16.17h7.436c6.32 0 9.484 2.683 9.484 8.05 0 2.548-.785 4.537-2.354 5.97m8.494 1.876c1.41-2.137 2.115-4.867 2.115-8.188 0-4.82-1.456-8.437-4.367-10.848-2.91-2.41-6.936-3.616-12.076-3.616h-16.784v47.76h8.052v-18.08h9.277l9.349 18.08h9.074l-10.712-19.99c2.638-1.274 4.662-2.979 6.072-5.118"/>
        <path stroke="#000" stroke-linejoin="round" stroke-width="2" d="M252.997 141.683c-1.57 1.433-4.016 2.15-7.335 2.15h-7.231v-16.17h7.436c6.32 0 9.484 2.683 9.484 8.05 0 2.548-.785 4.537-2.354 5.97zm8.494 1.876c1.41-2.137 2.115-4.867 2.115-8.188 0-4.82-1.456-8.437-4.367-10.848-2.91-2.41-6.936-3.616-12.076-3.616h-16.784v47.76h8.052v-18.08h9.277l9.349 18.08h9.074l-10.712-19.99c2.638-1.274 4.662-2.979 6.072-5.118z"/>
        <path fill="#000" d="M271.044 128.413h13.646v40.255h7.915v-40.255h13.645v-7.505h-35.206z"/>
        <path stroke="#000" stroke-linejoin="round" stroke-width="2" d="M271.044 128.413h13.646v40.255h7.915v-40.255h13.645v-7.505h-35.206z"/>
        <path fill="#000" d="M323.92 120.908h-7.913v47.76h28.383v-7.095h-20.47z"/>
        <path stroke="#000" stroke-linejoin="round" stroke-width="2" d="M323.92 120.908h-7.913v47.76h28.383v-7.095h-20.47z"/>
        <path fill="#000" d="M363.015 149.768l6.413-18.149 6.346 18.15h-12.759zm2.524-28.86l-17.057 47.76h7.915l4.162-11.873h17.74l4.161 11.872h7.847l-16.989-47.76h-7.779z"/>
        <path stroke="#000" stroke-linejoin="round" stroke-width="2" d="M363.015 149.768l6.413-18.149 6.346 18.15h-12.759zm2.524-28.86l-17.057 47.76h7.915l4.162-11.873h17.74l4.161 11.872h7.847l-16.989-47.76h-7.779z"/>
        <path fill="#000" d="M428.925 153.52l-21.493-32.612h-8.05v47.76h7.913v-34.592l23.063 34.592h6.548v-47.76h-7.981z"/>
        <path stroke="#000" stroke-linejoin="round" stroke-width="2" d="M428.925 153.52l-21.493-32.612h-8.05v47.76h7.913v-34.592l23.063 34.592h6.548v-47.76h-7.981z"/>
        <path fill="#000" d="M479.891 157.103c-2.548 2.98-6.255 4.469-11.12 4.469h-9.895v-33.57h9.894c4.866 0 8.573 1.492 11.121 4.47 2.547 2.98 3.821 7.086 3.821 12.316s-1.274 9.336-3.82 12.315m1.125-33.33c-3.57-1.91-7.653-2.865-12.247-2.865h-17.808v47.76h17.808c4.594 0 8.676-.955 12.247-2.866 3.57-1.91 6.355-4.661 8.357-8.255 2.001-3.593 3.003-7.847 3.003-12.76 0-4.912-1.002-9.164-3.003-12.758-2.002-3.593-4.787-6.345-8.357-8.256"/>
        <path stroke="#000" stroke-linejoin="round" stroke-width="2" d="M479.891 157.103c-2.548 2.98-6.255 4.469-11.12 4.469h-9.895v-33.57h9.894c4.866 0 8.573 1.492 11.121 4.47 2.547 2.98 3.821 7.086 3.821 12.316s-1.274 9.336-3.82 12.315zm1.126-33.33c-3.57-1.91-7.653-2.865-12.247-2.865h-17.808v47.76h17.808c4.594 0 8.676-.955 12.247-2.866 3.57-1.91 6.355-4.661 8.357-8.255 2.001-3.593 3.003-7.847 3.003-12.76 0-4.912-1.002-9.164-3.003-12.758-2.002-3.593-4.787-6.345-8.357-8.256z"/>
        <path fill="#000" d="M501.794 160.139v8.529h3.139l-2.798 7.846h3.957l4.025-8.597v-7.778z"/>
        <path stroke="#000" stroke-linejoin="round" stroke-width="2" d="M501.794 160.139v8.529h3.139l-2.798 7.846h3.957l4.025-8.597v-7.778z"/>
    </g>
</svg>
