<?xml version="1.0" encoding="UTF-8"?>
<svg width="251px" height="102px" viewBox="0 0 251 102" version="1.1" xmlns="http://www.w3.org/2000/svg" xmlns:xlink="http://www.w3.org/1999/xlink">
    <!-- Generator: sketchtool 50.2 (55047) - http://www.bohemiancoding.com/sketch -->
    <title>6642D55F-7A52-468E-BC31-3F7B18A44593</title>
    <desc>Created with sketchtool.</desc>
    <defs>
        <polygon id="path-1" points="0.168269781 0.491013072 71.1605392 0.491013072 71.1605392 51.8046569 0.168269781 51.8046569"></polygon>
        <polygon id="path-3" points="0 0.728022876 26.1729575 0.728022876 26.1729575 36.1561275 0 36.1561275"></polygon>
        <polygon id="path-5" points="0.290114379 0.119526144 35.2843954 0.119526144 35.2843954 36.7647059 0.290114379 36.7647059"></polygon>
        <polygon id="path-7" points="0.587009804 0.727696078 31.9738562 0.727696078 31.9738562 36.1558007 0.587009804 36.1558007"></polygon>
    </defs>
    <g id="character_chosen" stroke="none" stroke-width="1" fill="none" fill-rule="evenodd">
        <g id="character_chosen_mobile" transform="translate(-35.000000, -10.000000)">
            <g id="Group-Copy" transform="translate(35.000000, 10.000000)">
                <g id="Group-3" transform="translate(6.535948, -0.491013)">
                    <mask id="mask-2" fill="white">
                        <use xlink:href="#path-1"></use>
                    </mask>
                    <g id="Clip-2"></g>
                    <path d="M30.9791667,6.84795752 C31.7773693,5.70416667 32.5772059,5.05874183 33.0755719,5.05874183 L33.0772059,5.05874183 C33.0772059,5.05874183 33.0812908,5.06446078 33.0829248,5.08243464 C33.0224673,5.41331699 32.2128268,6.21805556 30.9791667,6.84795752 M69.0281863,0.490931373 C60.8353758,0.490931373 57.0894608,12.2000817 53.1237745,24.5979575 L52.9742647,25.0636438 C49.6654412,35.5987745 45.9146242,47.540768 40.1482843,47.540768 C39.3492647,47.540768 37.2267157,47.540768 37.2267157,42.6943627 C37.2267157,37.1943627 40.9489379,26.043219 45.2585784,13.1322712 L46.0175654,10.8544935 C46.2544935,10.2376634 46.1670752,9.53668301 45.7847222,8.97785948 C45.3941993,8.41086601 44.7487745,8.07099673 44.059232,8.07099673 C43.0763889,8.07099673 42.2741013,8.68292484 42.0061275,9.67066993 C41.3835784,12.532598 34.3664216,31.8806373 32.6164216,35.5546569 C27.9644608,45.5611928 24.8198529,47.660866 23.0363562,47.661683 C21.3656046,47.5906046 19.6589052,46.9803105 19.6589052,42.9941993 C19.6589052,39.7654412 25.1074346,20.9214869 28.5984477,12.0195261 C32.9301471,10.789951 37.4080882,8.3626634 37.4080882,5.09060458 C37.4080882,2.70171569 35.6156046,1.03259804 33.0494281,1.03259804 C29.690768,1.03259804 26.9750817,4.82671569 25.4808007,8.52769608 C24.7446895,8.65678105 23.9685458,8.76544118 23.1540033,8.87900327 C22.3958333,8.98521242 21.6147876,9.09468954 20.8337418,9.22377451 C12.6058007,10.4811275 0.171977124,12.3806373 0.171977124,22.2164216 C0.104166667,24.7548203 0.968545752,27.0783497 2.60416667,28.7580882 C4.07965686,30.2736111 6.06658497,31.1077614 8.2005719,31.1077614 C9.53472222,31.1077614 10.3329248,30.0236111 10.3329248,28.9762255 C10.3329248,28.0015523 9.60661765,26.9639706 8.26021242,26.9639706 C5.9750817,26.9639706 4.31658497,25.0268791 4.31658497,22.3569444 C4.31658497,16.0080882 13.5290033,14.5505719 20.931781,13.3790033 L21.4906046,13.290768 C22.3272059,13.1706699 23.0821078,13.0595588 23.8059641,12.9378268 C19.936683,23.7180556 15.5142974,38.9982843 15.5142974,42.9941993 C15.5142974,48.5489379 18.1654412,51.6780229 23.0012255,51.8046569 C26.3713235,51.8046569 29.7618464,49.0162582 33.1025327,43.5056373 C33.3541667,48.6110294 36.0053105,51.7450163 40.1482843,51.7450163 C48.8664216,51.7450163 52.9211601,38.9566176 56.8427288,26.5881536 L57.0363562,25.9811275 C60.4031863,15.4860294 63.8835784,4.63472222 69.0502451,4.63472222 C70.2177288,4.67638889 71.1605392,3.73684641 71.1605392,2.5628268 C71.1605392,1.4002451 70.2242647,0.490931373 69.0281863,0.490931373" id="Fill-1" fill="#000000" mask="url(#mask-2)"></path>
                </g>
                <path d="M78.3871732,23.036683 C80.031781,23.036683 80.165768,23.541585 80.165768,24.1526961 C80.165768,26.8610294 76.6772059,29.543219 70.293219,31.7785131 C71.918219,28.285049 74.9345588,23.036683 78.3871732,23.036683 M126.096324,34.4631536 C125.649428,36.0611928 125.548938,38.5628268 126.089788,40.2744281 C124.01299,43.1306373 121.848775,44.8234477 120.256454,44.8234477 C119.754003,44.8234477 118.418219,44.8234477 118.418219,41.9615196 C118.418219,37.6886438 120.020343,32.7776961 123.06201,27.7474673 C124.823448,24.7090686 126.776062,23.036683 128.559559,23.036683 C130.301389,23.036683 131.300572,24.1445261 131.300572,26.0783497 C131.300572,28.0750817 130.672304,30.8079248 129.624918,33.533415 C129.239297,33.1347222 128.710703,32.910866 128.138807,32.910866 C127.117565,32.910866 126.271977,33.5726307 126.096324,34.4631536 M189.56201,23.036683 C191.205801,23.036683 191.339788,23.541585 191.339788,24.1526961 C191.339788,26.8610294 187.852042,29.543219 181.467239,31.7785131 C183.092239,28.285049 186.108578,23.036683 189.56201,23.036683 M197.986029,33.1167484 C197.957435,33.1020425 197.92884,33.0906046 197.899428,33.0791667 C196.861029,32.7033497 195.705801,33.159232 195.197631,34.1796569 C191.99665,41.5538399 188.392075,44.9353758 183.812827,44.8242647 C182.237663,44.7711601 181.039134,44.3169118 180.251552,43.4729575 C179.487663,42.6559641 179.126552,41.4884804 179.17884,40.0146242 C179.231127,38.906781 179.383088,37.910049 179.694363,36.6731209 C183.965605,35.5799837 195.484395,31.9043301 195.484395,24.1526961 C195.484395,20.9566176 193.159232,18.8912582 189.56201,18.8912582 C183.58652,18.8912582 178.134722,27.0048203 175.986846,34.5040033 C172.783415,41.915768 170.606944,44.8234477 168.266258,44.8234477 C167.798938,44.8234477 167.270343,44.8234477 167.270343,43.1053105 C167.270343,40.7352124 168.324265,37.918219 169.439461,34.9345588 C170.651062,31.6968137 171.902696,28.3487745 171.902696,25.2352124 C171.902696,21.0064542 169.667402,18.7711601 165.438644,18.7711601 C162.870833,18.7711601 160.226225,20.7123366 158.326716,23.0113562 C157.575899,20.3798203 155.359395,18.7711601 152.262173,18.7711601 C150.841422,18.7711601 149.405964,19.3438725 147.975408,20.4786765 C147.916585,20.2392974 147.813644,20.0097222 147.669036,19.7989379 C147.27933,19.2311275 146.634722,18.8912582 145.944363,18.8912582 C145.030147,18.8912582 144.257271,19.4402778 143.979493,20.2727941 C142.449265,24.5930556 140.90433,28.914134 139.358578,33.2343954 C139.259722,33.5113562 139.161683,33.788317 139.062827,34.0652778 C139.044036,34.1069444 139.02116,34.1453431 139.00482,34.1878268 C137.053023,38.8169118 135.148611,40.9729575 133.011356,40.9729575 C132.125735,40.9729575 131.44518,40.781781 130.950082,40.3904412 C133.612663,35.6837418 135.444363,29.9051471 135.444363,26.1379902 C135.444363,21.7956699 132.838971,19.0195261 128.620016,18.8912582 C125.250735,18.8912582 122.077533,21.2123366 119.445997,25.5963235 C117.61348,28.5946895 116.282598,31.4917484 115.416585,34.3332516 C112.231944,41.5824346 108.599592,44.8234477 103.652696,44.8234477 C101.220507,44.8234477 99.6477941,42.9206699 99.6477941,39.9762255 C99.6477941,33.168219 105.822631,23.036683 109.970507,23.036683 C111.097141,23.036683 111.748284,23.415768 111.748284,25.3561275 C111.748284,26.6469771 111.260539,27.4762255 110.867565,28.1404412 C110.57835,28.6314542 110.304657,29.0938725 110.304657,29.6281863 C110.304657,30.8316176 111.137173,31.6404412 112.377369,31.6404412 C114.449265,31.6404412 115.892892,28.3283497 115.892892,25.3561275 C115.892892,21.3683824 113.623284,18.8912582 109.970507,18.8912582 C104.418219,18.8912582 98.2319444,26.4468137 96.1959967,34.5897876 C93.3463235,40.7491013 90.6837418,44.8234477 87.1085784,44.8234477 C86.3675654,44.8234477 85.9917484,44.2458333 85.9917484,43.1053105 C85.9917484,42.6363562 86.1731209,41.0097222 87.7597222,36.0309641 C87.7989379,35.9451797 87.8389706,35.8659314 87.8781863,35.7801471 L87.910049,35.6894608 C87.9500817,35.5799837 87.9901144,35.4263889 88.0154412,35.2499183 C89.1020425,32.0701797 90.1992647,28.9729575 91.2605392,25.9786765 C91.8814542,24.2262255 92.4982843,22.4876634 93.1085784,20.7441993 L96.2319444,11.6142974 C96.6200163,10.543219 96.0530229,9.34877451 94.9010621,8.93210784 C93.7997549,8.63472222 92.6812908,9.18537582 92.3005719,10.2335784 L89.1731209,19.3741013 C88.5718137,21.0946895 87.9631536,22.8226307 87.3569444,24.5440359 C86.2049837,27.8177288 85.0620098,31.0620098 83.9917484,34.1976307 C83.9721405,34.2564542 83.9558007,34.3111928 83.9370098,34.3691993 C80.7572712,41.6077614 77.161683,44.9345588 72.6379902,44.8242647 C71.0628268,44.7711601 69.8642974,44.3169118 69.0767157,43.4729575 C68.3136438,42.6559641 67.9525327,41.4884804 68.0048203,40.0146242 C68.0562908,38.906781 68.2090686,37.910049 68.5195261,36.6731209 C72.790768,35.5799837 84.3103758,31.9043301 84.3103758,24.1526961 C84.3103758,20.9566176 81.9852124,18.8912582 78.3871732,18.8912582 C70.9125,18.8912582 64.2499183,31.5914216 63.8610294,39.8977941 C63.7948529,42.6085784 64.6012255,44.9043301 66.1935458,46.535866 C67.7458333,48.1265523 69.9443627,48.9672386 72.5505719,48.9672386 C76.160866,48.9672386 79.281781,47.6396242 82.0464869,44.8634804 C82.6379902,47.3757353 84.5236111,48.9672386 87.1085784,48.9672386 C90.8095588,48.9672386 93.5693627,46.9713235 96.0448529,43.4713235 C97.156781,46.8602124 99.913317,48.9672386 103.593056,48.9672386 C107.905964,48.9672386 111.361029,47.4321078 114.360212,44.0146242 C115.027696,48.0530229 117.84469,48.9672386 120.256454,48.9672386 C122.928023,48.9672386 126.005637,47.0513889 128.597958,43.8046569 C129.902696,44.665768 131.4125,45.1167484 133.011356,45.1167484 C133.790768,45.1167484 134.532598,45.0031863 135.244199,44.7776961 C135.068546,45.2711601 134.891258,45.7646242 134.716422,46.2580882 C134.326716,47.3299837 134.894526,48.5227941 136.04567,48.9394608 C136.24665,48.9933824 136.446814,49.0203431 136.642892,49.0203431 C137.544853,49.0203431 138.352042,48.4656046 138.644526,47.5848856 L142.676389,36.1437092 C142.731127,36.0219771 142.785866,35.906781 142.840605,35.782598 C142.856127,35.7458333 142.860212,35.7058007 142.873284,35.668219 C143.615931,34.0906046 146.713154,28.4296569 147.687827,26.9656046 C149.588971,24.2785131 151.128186,22.915768 152.262173,22.915768 C153.655147,22.915768 154.462337,23.3340686 154.462337,25.4762255 C154.462337,27.3945261 153.660049,29.8618464 152.340605,33.6968137 L152.343873,33.6984477 C151.92067,34.8683824 148.285049,45.6812908 148.258088,45.7629902 C148.02116,46.3798203 148.108578,47.0816176 148.492565,47.6388072 C148.882271,48.2074346 149.527696,48.5473039 150.216422,48.5473039 C151.130637,48.5473039 151.90433,47.9991013 152.18701,47.1518791 C152.192729,47.1330882 152.198448,47.1151144 152.20335,47.0963235 C152.357761,46.6102124 154.373284,40.7041667 155.463971,37.5072712 C155.919036,36.1731209 156.245016,35.2172386 156.272794,35.1355392 C158.254003,29.6004085 162.784232,22.915768 165.438644,22.915768 C167.08652,22.915768 167.758905,23.5881536 167.758905,25.2352124 C167.758905,27.4925654 166.688644,30.3814542 165.554657,33.4394608 C164.330801,36.7392974 163.065278,40.1518791 163.065278,43.1053105 C163.065278,46.7213235 165.057925,48.9672386 168.266258,48.9672386 C171.387173,48.9672386 173.810376,46.8071078 175.740931,44.0146242 C176.12982,44.9672386 176.667402,45.8185458 177.367565,46.535866 C178.92067,48.1265523 181.118382,48.9672386 183.725408,48.9672386 C190.124101,48.9672386 194.984395,44.8013889 199.053023,35.7801471 L199.084069,35.6894608 C199.139624,35.536683 199.214788,35.3258987 199.214788,35.042402 C199.214788,34.2458333 198.732761,33.4901144 197.986029,33.1167484" id="Fill-4" fill="#000000"></path>
                <path d="M213.969363,47.4371732 C213.337827,46.7558007 213.02165,45.9232843 213.02165,44.9396242 L213.02165,35.5254085 L210.49469,35.5254085 L210.735703,33.4200163 L213.02165,33.4200163 L213.02165,29.7803105 L215.729167,29.5098856 L215.729167,33.4200163 L219.609069,33.4200163 L219.609069,35.5254085 L215.729167,35.5254085 L215.729167,43.2860294 C215.729167,44.3089052 215.788807,45.0107026 215.909722,45.3922386 C216.02982,45.7721405 216.285539,46.0188725 216.676062,46.1275327 C217.067402,46.2386438 217.783905,46.2950163 218.827206,46.2950163 L219.519199,46.2950163 L219.308415,48.460049 L216.872141,48.460049 C215.568219,48.460049 214.600899,48.1193627 213.969363,47.4371732" id="Fill-6" fill="#000000"></path>
                <path d="M231.595752,44.6702614 C232.387418,43.7470588 232.784477,42.4545752 232.784477,40.7903595 C232.784477,39.1253268 232.387418,37.8312092 231.595752,36.9088235 C230.803268,35.9872549 229.685621,35.5256536 228.241993,35.5256536 C226.797549,35.5256536 225.679902,35.9872549 224.888235,36.9088235 C224.094935,37.8312092 223.69951,39.1253268 223.69951,40.7903595 C223.69951,42.4545752 224.094935,43.7470588 224.888235,44.6702614 C225.679902,45.5926471 226.797549,46.0526144 228.241993,46.0526144 C229.685621,46.0526144 230.803268,45.5926471 231.595752,44.6702614 M224.331863,47.4513072 C223.228105,46.7805556 222.385784,45.8630719 221.804902,44.6996732 C221.222386,43.5362745 220.932353,42.2339869 220.932353,40.7903595 C220.932353,39.345098 221.222386,38.0419935 221.804902,36.8794118 C222.385784,35.7160131 223.228105,34.7993464 224.331863,34.1269608 C225.433987,33.4545752 226.737908,33.1187908 228.241993,33.1187908 C229.725654,33.1187908 231.023856,33.4545752 232.137418,34.1269608 C233.250163,34.7993464 234.097386,35.7160131 234.679085,36.8794118 C235.260784,38.0419935 235.551634,39.345098 235.551634,40.7903595 C235.551634,42.2339869 235.260784,43.5362745 234.679085,44.6996732 C234.097386,45.8630719 233.250163,46.7805556 232.137418,47.4513072 C231.023856,48.1245098 229.725654,48.4602941 228.241993,48.4602941 C226.737908,48.4602941 225.433987,48.1245098 224.331863,47.4513072" id="Fill-8" fill="#000000"></path>
                <path d="M12.4999183,82.3612745 C14.1951797,82.3612745 15.4386438,82.0107843 16.1951797,81.3204248 C16.9190359,80.6586601 17.285866,79.545098 17.285866,78.0099673 C17.285866,76.4495098 16.9214869,75.3302288 16.2017157,74.6831699 C15.4451797,74.0034314 14.1698529,73.6578431 12.413317,73.6578431 L8.8871732,73.6578431 L8.8871732,82.3612745 L12.4999183,82.3612745 Z M2.50727124,99.7714052 C1.81446078,99.7714052 1.25318627,99.2101307 1.25318627,98.5173203 L1.25318627,68.1031046 C1.25318627,67.4102941 1.81446078,66.8498366 2.50727124,66.8498366 L13.0644608,66.8498366 C20.8209967,66.8498366 24.9198529,70.678268 24.9198529,77.921732 C24.9198529,81.6357843 23.8602124,84.4789216 21.7703431,86.3686275 C19.7164216,88.2281046 16.8022059,89.170098 13.1085784,89.170098 L8.8871732,89.170098 L8.8871732,98.5173203 C8.8871732,99.2101307 8.32589869,99.7714052 7.63308824,99.7714052 L2.50727124,99.7714052 Z" id="Fill-10" fill="#EFEFEF"></path>
                <g id="Group-14" transform="translate(0.000000, 64.868464)">
                    <mask id="mask-4" fill="white">
                        <use xlink:href="#path-3"></use>
                    </mask>
                    <g id="Clip-13"></g>
                    <path d="M10.1402778,10.0425654 L12.4131536,10.0425654 C13.8110294,10.0425654 14.859232,10.2933824 15.365768,10.7476307 C15.9164216,11.2435458 16.0324346,12.3227941 16.0324346,13.1414216 C16.0324346,13.9445261 15.9147876,15.0107026 15.3502451,15.5254085 C14.8388072,15.9927288 13.8535131,16.2394608 12.4997549,16.2394608 L10.1402778,16.2394608 L10.1402778,10.0425654 Z M13.0651144,0.728022876 L2.50710784,0.728022876 C1.12230392,0.728022876 -0.000245098039,1.8497549 -0.000245098039,3.23455882 L-0.000245098039,33.6495915 C-0.000245098039,35.0335784 1.12230392,36.1561275 2.50710784,36.1561275 L7.63374183,36.1561275 C9.01772876,36.1561275 10.1402778,35.0335784 10.1402778,33.6495915 L10.1402778,25.5548203 L13.108415,25.5548203 C17.1223039,25.5548203 20.3191993,24.5033497 22.611683,22.4290033 C24.9744281,20.2917484 26.1729575,17.1373366 26.1729575,13.0540033 C26.1729575,5.10465686 21.5177288,0.728022876 13.0651144,0.728022876 Z M7.63374183,18.7459967 L12.4997549,18.7459967 C14.5267157,18.7459967 16.0414216,18.2901144 17.0406046,17.3775327 C18.0397876,16.464134 18.5397876,15.0531863 18.5397876,13.1414216 C18.5397876,11.2010621 18.0397876,9.78194444 17.0406046,8.88243464 C16.0414216,7.98455882 14.4989379,7.53602941 12.4131536,7.53602941 L7.63374183,7.53602941 L7.63374183,18.7459967 Z M13.0651144,3.23455882 C20.1321078,3.23455882 23.6664216,6.50825163 23.6664216,13.0540033 C23.6664216,16.4151144 22.7538399,18.9200163 20.9294935,20.5711601 C19.1043301,22.2223039 16.4973039,23.0482843 13.108415,23.0482843 L7.63374183,23.0482843 L7.63374183,33.6495915 L2.50710784,33.6495915 L2.50710784,3.23455882 L13.0651144,3.23455882 Z" id="Fill-12" fill="#000000" mask="url(#mask-4)"></path>
                </g>
                <path d="M45.5646242,73.6137255 C42.833415,73.6137255 40.8040033,74.4601307 39.3611928,76.2019608 C37.8799837,77.9887255 37.1291667,80.3800654 37.1291667,83.3098039 C37.1291667,86.2403595 37.8799837,88.6316993 39.3611928,90.4176471 C40.8023693,92.1594771 42.831781,93.0058824 45.5646242,93.0058824 C48.2950163,93.0058824 50.3154412,92.1611111 51.7435458,90.422549 C53.2125,88.6341503 53.957598,86.2411765 53.957598,83.3098039 C53.957598,80.3792484 53.2125,77.9870915 51.7435458,76.1978758 C50.3146242,74.4593137 48.2933824,73.6137255 45.5646242,73.6137255 M45.5646242,100.380065 C42.459232,100.380065 39.6471405,99.6660131 37.2051471,98.2575163 C34.7500817,96.8408497 32.7991013,94.8106209 31.4044935,92.2256536 C30.0221405,89.6643791 29.3211601,86.6643791 29.3211601,83.3098039 C29.3211601,79.9576797 30.0221405,76.9584967 31.4044935,74.3939542 C32.8007353,71.8065359 34.7525327,69.7787582 37.2051471,68.3637255 C39.6471405,66.9560458 42.459232,66.2419935 45.5646242,66.2419935 C48.6700163,66.2419935 51.4829248,66.9560458 53.9249183,68.3637255 C56.3767157,69.7779412 58.3285131,71.8065359 59.7247549,74.3939542 C61.1071078,76.9593137 61.8080882,79.9584967 61.8080882,83.3098039 C61.8080882,86.6635621 61.1071078,89.6627451 59.7247549,92.2256536 C58.3301471,94.8114379 56.3791667,96.8408497 53.9257353,98.2566993 C51.4829248,99.6660131 48.6700163,100.380065 45.5646242,100.380065" id="Fill-15" fill="#EFEFEF"></path>
                <g id="Group-19" transform="translate(27.777778, 64.868464)">
                    <mask id="mask-6" fill="white">
                        <use xlink:href="#path-5"></use>
                    </mask>
                    <g id="Clip-18"></g>
                    <path d="M17.7868464,26.885049 C15.4510621,26.885049 13.7370098,26.1873366 12.5491013,24.7510621 C11.2402778,23.1726307 10.6046569,21.1097222 10.6046569,18.4414216 C10.6046569,15.7747549 11.2402778,13.7118464 12.5482843,12.133415 C13.7378268,10.6971405 15.4518791,9.99861111 17.7868464,9.99861111 C20.1169118,9.99861111 21.8211601,10.6946895 22.9976307,12.1260621 C24.2950163,13.7053105 24.9265523,15.7714869 24.9265523,18.4414216 C24.9265523,21.1129902 24.2958333,23.1783497 22.9976307,24.757598 C21.8219771,26.1889706 20.1185458,26.885049 17.7868464,26.885049 M17.7868464,0.119526144 C14.459232,0.119526144 11.4355392,0.890767974 8.80073529,2.40955882 C6.14387255,3.94223856 4.03194444,6.13668301 2.52377451,8.93080065 C1.04174837,11.6791667 0.290114379,14.8793301 0.290114379,18.4414216 C0.290114379,22.0051471 1.04174837,25.2053105 2.52377451,27.9528595 C4.03031046,30.7461601 6.14223856,32.9397876 8.7999183,34.4741013 C11.4355392,35.9937092 14.459232,36.764951 17.7868464,36.764951 C21.1152778,36.764951 24.1381536,35.9937092 26.7737745,34.4741013 C29.4314542,32.9406046 31.5425654,30.7469771 33.0499183,27.9528595 C34.5327614,25.2028595 35.2843954,22.0035131 35.2843954,18.4414216 C35.2843954,14.8809641 34.5327614,11.6816176 33.0507353,8.93161765 C31.5417484,6.13668301 29.4298203,3.94223856 26.7737745,2.41037582 C24.1381536,0.890767974 21.1152778,0.119526144 17.7868464,0.119526144 M17.7868464,29.390768 C20.8865196,29.390768 23.2688725,28.3776961 24.9347222,26.3499183 C26.5997549,24.3221405 27.4330882,21.6873366 27.4330882,18.4414216 C27.4330882,15.1979575 26.5997549,12.5623366 24.9347222,10.5337418 C23.2688725,8.50759804 20.8865196,7.49207516 17.7868464,7.49207516 C14.6871732,7.49207516 12.2974673,8.50759804 10.6185458,10.5337418 C8.9371732,12.5623366 8.09812092,15.1979575 8.09812092,18.4414216 C8.09812092,21.6873366 8.9371732,24.3221405 10.6185458,26.3499183 C12.2974673,28.3776961 14.6871732,29.390768 17.7868464,29.390768 M17.7868464,2.62687908 C20.6830882,2.62687908 23.2615196,3.27802288 25.5213235,4.58112745 C27.7803105,5.88423203 29.5548203,7.73227124 30.8440359,10.1203431 C32.1324346,12.510866 32.7770425,15.2845588 32.7770425,18.4414216 C32.7770425,21.5991013 32.1324346,24.3736111 30.8440359,26.7625 C29.5548203,29.1522059 27.7803105,30.9986111 25.5213235,32.3033497 C23.2615196,33.6064542 20.6830882,34.257598 17.7868464,34.257598 C14.8906046,34.257598 12.3121732,33.6064542 10.0531863,32.3033497 C7.79338235,30.9986111 6.01887255,29.1522059 4.73047386,26.7625 C3.44125817,24.3736111 2.79665033,21.5991013 2.79665033,18.4414216 C2.79665033,15.2845588 3.44125817,12.510866 4.73047386,10.1203431 C6.01887255,7.73227124 7.79338235,5.88423203 10.0531863,4.58112745 C12.3121732,3.27802288 14.8906046,2.62687908 17.7868464,2.62687908" id="Fill-17" fill="#000000" mask="url(#mask-6)"></path>
                </g>
                <path d="M79.6285948,81.4485294 C81.4104575,81.4485294 82.6980392,81.0980392 83.4545752,80.4076797 C84.1882353,79.7369281 84.5452614,78.7965686 84.5452614,77.5310458 C84.5452614,75.6151961 83.976634,73.6576797 79.7593137,73.6576797 L76.2764706,73.6576797 L76.2764706,81.4485294 L79.6285948,81.4485294 Z M86.8851307,99.7712418 C86.4161765,99.7712418 85.9872549,99.5089869 85.7715686,99.0931373 L80.1694444,88.2573529 L76.2764706,88.2573529 L76.2764706,98.5179739 C76.2764706,99.2099673 75.7151961,99.7712418 75.0232026,99.7712418 L69.8957516,99.7712418 C69.2037582,99.7712418 68.6424837,99.2099673 68.6424837,98.5179739 L68.6424837,68.1029412 C68.6424837,67.4101307 69.2037582,66.8496732 69.8957516,66.8496732 L80.5844771,66.8496732 C84.1408497,66.8496732 86.9970588,67.7205882 89.0738562,69.4403595 C91.220915,71.2189542 92.3091503,73.8676471 92.3091503,77.3137255 C92.3091503,79.6683007 91.7862745,81.6544118 90.7552288,83.2181373 C89.9529412,84.4346405 88.8720588,85.4640523 87.5338235,86.2892157 L93.7683007,97.9256536 C93.976634,98.3145425 93.9651961,98.7834967 93.7388889,99.1617647 C93.5125817,99.5400327 93.104902,99.7712418 92.6637255,99.7712418 L86.8851307,99.7712418 Z" id="Fill-20" fill="#EFEFEF"></path>
                <path d="M77.5294935,74.9110294 L79.7590686,74.9110294 C83.2917484,74.9110294 83.2917484,76.3636438 83.2917484,77.5311275 C83.2917484,78.7214869 82.9028595,79.214951 82.6095588,79.4821078 C82.1054739,79.9420752 81.0466503,80.1961601 79.6283497,80.1961601 L77.5294935,80.1961601 L77.5294935,74.9110294 Z M80.585049,65.5964869 L69.8963235,65.5964869 C68.5115196,65.5964869 67.3889706,66.718219 67.3889706,68.1030229 L67.3889706,98.5180556 C67.3889706,99.9020425 68.5115196,101.024592 69.8963235,101.024592 L75.0229575,101.024592 C76.4069444,101.024592 77.5294935,99.9020425 77.5294935,98.5180556 L77.5294935,89.5107026 L79.4061275,89.5107026 L84.6585784,99.6691993 C85.088317,100.500899 85.9477941,101.024592 86.8848856,101.024592 L92.6634804,101.024592 C93.5450163,101.024592 94.3620098,100.561356 94.8146242,99.8056373 C95.2672386,99.0491013 95.2892974,98.1103758 94.8734477,97.333415 L89.1700163,86.6896242 C90.2231209,85.8963235 91.1038399,84.966585 91.8015523,83.9077614 C92.9698529,82.1365196 93.5629902,79.9175654 93.5629902,77.3138072 C93.5629902,73.4763889 92.3211601,70.5025327 89.8742647,68.4747549 C87.5654412,66.5638072 84.4396242,65.5964869 80.585049,65.5964869 Z M75.0229575,82.7018791 L79.6283497,82.7018791 C81.7427288,82.7018791 83.2999183,82.2459967 84.2999183,81.332598 C85.2991013,80.4208333 85.7982843,79.1544935 85.7982843,77.5311275 C85.7982843,74.1136438 83.7852124,72.4044935 79.7590686,72.4044935 L75.0229575,72.4044935 L75.0229575,82.7018791 Z M80.585049,68.1030229 C83.8579248,68.1030229 86.4208333,68.8709967 88.2745915,70.4053105 C90.1283497,71.9412582 91.0556373,74.2443627 91.0556373,77.3138072 C91.0556373,79.4281863 90.6062908,81.1667484 89.709232,82.5278595 C88.8105392,83.8897876 87.5213235,84.9763889 85.842402,85.7868464 L92.6634804,98.5180556 L86.8848856,98.5180556 L80.9322712,87.0041667 L80.714951,87.0041667 L75.0229575,87.0041667 L75.0229575,98.5180556 L69.8963235,98.5180556 L69.8963235,68.1030229 L80.585049,68.1030229 Z" id="Fill-22" fill="#000000"></path>
                <path d="M106.655229,99.7710784 C105.963235,99.7710784 105.401961,99.2098039 105.401961,98.5178105 L105.401961,74.1362745 L97.9648693,74.1362745 C97.2728758,74.1362745 96.7116013,73.575817 96.7116013,72.8830065 L96.7116013,68.1027778 C96.7116013,67.4107843 97.2728758,66.8495098 97.9648693,66.8495098 L120.384804,66.8495098 C121.076797,66.8495098 121.638072,67.4107843 121.638072,68.1027778 L121.638072,72.8830065 C121.638072,73.575817 121.076797,74.1362745 120.384804,74.1362745 L112.948529,74.1362745 L112.948529,98.5178105 C112.948529,99.2098039 112.387255,99.7710784 111.694444,99.7710784 L106.655229,99.7710784 Z" id="Fill-24" fill="#EFEFEF"></path>
                <path d="M120.384967,65.5961601 L97.9650327,65.5961601 C96.5802288,65.5961601 95.4584967,66.7178922 95.4584967,68.1026961 L95.4584967,72.8829248 C95.4584967,74.2669118 96.5802288,75.3894608 97.9650327,75.3894608 L104.148039,75.3894608 L104.148039,98.5177288 C104.148039,99.9017157 105.270588,101.024265 106.655392,101.024265 L111.694608,101.024265 C113.079412,101.024265 114.201961,99.9017157 114.201961,98.5177288 L114.201961,75.3894608 L120.384967,75.3894608 C121.768954,75.3894608 122.891503,74.2669118 122.891503,72.8829248 L122.891503,68.1026961 C122.891503,66.7178922 121.768954,65.5961601 120.384967,65.5961601 M120.384967,68.1026961 L120.384967,72.8829248 L111.694608,72.8829248 L111.694608,98.5177288 L106.655392,98.5177288 L106.655392,72.8829248 L97.9650327,72.8829248 L97.9650327,68.1026961 L120.384967,68.1026961" id="Fill-26" fill="#000000"></path>
                <path d="M128.770261,99.7710784 C128.078268,99.7710784 127.516993,99.2098039 127.516993,98.5178105 L127.516993,68.1027778 C127.516993,67.4107843 128.078268,66.8495098 128.770261,66.8495098 L133.810294,66.8495098 C134.502288,66.8495098 135.063562,67.4107843 135.063562,68.1027778 L135.063562,92.7449346 L146.845425,92.7449346 C147.537418,92.7449346 148.098693,93.3062092 148.098693,93.9990196 L148.098693,98.5178105 C148.098693,99.2098039 147.537418,99.7710784 146.845425,99.7710784 L128.770261,99.7710784 Z" id="Fill-28" fill="#EFEFEF"></path>
                <path d="M133.810294,65.5961601 L128.770261,65.5961601 C127.386275,65.5961601 126.263725,66.7178922 126.263725,68.1026961 L126.263725,98.5177288 C126.263725,99.9017157 127.386275,101.024265 128.770261,101.024265 L146.845425,101.024265 C148.229412,101.024265 149.351961,99.9017157 149.351961,98.5177288 L149.351961,93.9989379 C149.351961,92.614134 148.229412,91.491585 146.845425,91.491585 L136.31683,91.491585 L136.31683,68.1026961 C136.31683,66.7178922 135.194281,65.5961601 133.810294,65.5961601 M133.810294,68.1026961 L133.810294,93.9989379 L146.845425,93.9989379 L146.845425,98.5177288 L128.770261,98.5177288 L128.770261,68.1026961 L133.810294,68.1026961" id="Fill-30" fill="#000000"></path>
                <path d="M167.238399,85.2287582 L164.957353,78.7042484 L162.651797,85.2287582 L167.238399,85.2287582 Z M173.262908,99.7712418 C172.730229,99.7712418 172.256373,99.4346405 172.079902,98.9321895 L169.723693,92.2107843 L160.204085,92.2107843 L157.847876,98.9321895 C157.672222,99.4346405 157.197549,99.7712418 156.665686,99.7712418 L151.624837,99.7712418 C151.217157,99.7712418 150.834804,99.5735294 150.600327,99.2393791 C150.36585,98.9060458 150.307843,98.4803922 150.444281,98.0964052 L161.307026,67.6813725 C161.485131,67.1821895 161.957353,66.8496732 162.487582,66.8496732 L167.441013,66.8496732 C167.970425,66.8496732 168.444281,67.1830065 168.621569,67.6830065 L179.440196,98.0980392 C179.576634,98.4820261 179.518627,98.9076797 179.283333,99.2401961 C179.048856,99.5735294 178.666503,99.7712418 178.259641,99.7712418 L173.262908,99.7712418 Z" id="Fill-32" fill="#EFEFEF"></path>
                <path d="M164.42402,83.9753268 L164.95098,82.4843137 L165.473039,83.9753268 L164.42402,83.9753268 Z M167.440359,65.5962418 L162.486928,65.5962418 C161.428105,65.5962418 160.482843,66.2612745 160.126634,67.2596405 L149.263889,97.6746732 C148.990196,98.4426471 149.106209,99.2955882 149.57598,99.9614379 C150.044935,100.628105 150.809641,101.024346 151.625,101.024346 L156.665033,101.024346 C157.730392,101.024346 158.678105,100.351961 159.030229,99.3470588 L161.093137,93.4638889 L168.834967,93.4638889 L170.897059,99.3470588 C171.249183,100.351961 172.197712,101.024346 173.262255,101.024346 L178.259804,101.024346 C179.074346,101.024346 179.838235,100.628922 180.30719,99.9630719 C180.776961,99.2972222 180.894608,98.445098 180.620915,97.6771242 L169.802288,67.2629085 C169.446895,66.2629085 168.501634,65.5962418 167.440359,65.5962418 Z M160.879902,86.4818627 L169.004085,86.4818627 L164.964052,74.9246732 L160.879902,86.4818627 Z M167.440359,68.1027778 L178.259804,98.5178105 L173.262255,98.5178105 L170.612745,90.9573529 L159.315359,90.9573529 L156.665033,98.5178105 L151.625,98.5178105 L162.486928,68.1027778 L167.440359,68.1027778 Z" id="Fill-34" fill="#000000"></path>
                <path d="M205.936275,99.7710784 C205.517157,99.7710784 205.125817,99.5611111 204.893791,99.2122549 L192.504085,80.6281046 L192.504085,98.5178105 C192.504085,99.2098039 191.94281,99.7710784 191.25,99.7710784 L186.209967,99.7710784 C185.517974,99.7710784 184.956699,99.2098039 184.956699,98.5178105 L184.956699,68.1027778 C184.956699,67.4107843 185.517974,66.8495098 186.209967,66.8495098 L191.337418,66.8495098 C191.75817,66.8495098 192.151961,67.0619281 192.383987,67.4140523 L203.770425,84.6918301 L203.770425,68.1027778 C203.770425,67.4107843 204.331699,66.8495098 205.023693,66.8495098 L210.107026,66.8495098 C210.799837,66.8495098 211.361111,67.4107843 211.361111,68.1027778 L211.361111,98.5178105 C211.361111,99.2098039 210.799837,99.7710784 210.107026,99.7710784 L205.936275,99.7710784 Z" id="Fill-36" fill="#EFEFEF"></path>
                <path d="M210.107435,65.5961601 L205.024101,65.5961601 C203.639297,65.5961601 202.516748,66.7178922 202.516748,68.1026961 L202.516748,80.5128268 L193.430147,66.7236111 C192.966912,66.0201797 192.180147,65.5961601 191.33701,65.5961601 L186.210376,65.5961601 C184.826389,65.5961601 183.70384,66.7178922 183.70384,68.1026961 L183.70384,98.5177288 C183.70384,99.9017157 184.826389,101.024265 186.210376,101.024265 L191.250408,101.024265 C192.634395,101.024265 193.756944,99.9017157 193.756944,98.5177288 L193.756944,84.7685458 L203.850899,99.9082516 C204.315768,100.605964 205.098448,101.024265 205.936683,101.024265 L210.107435,101.024265 C211.491422,101.024265 212.613971,99.9017157 212.613971,98.5177288 L212.613971,68.1026961 C212.613971,66.7178922 211.491422,65.5961601 210.107435,65.5961601 M210.107435,68.1026961 L210.107435,98.5177288 L205.936683,98.5177288 L191.250408,76.489134 L191.250408,98.5177288 L186.210376,98.5177288 L186.210376,68.1026961 L191.33701,68.1026961 L205.024101,88.8714869 L205.024101,68.1026961 L210.107435,68.1026961" id="Fill-38" fill="#000000"></path>
                <path d="M232.57116,92.7452614 C235.311356,92.7452614 237.316258,91.9576797 238.700245,90.3383987 C240.116095,88.6831699 240.833415,86.3187908 240.833415,83.3098039 C240.833415,80.303268 240.115278,77.9380719 238.700245,76.2828431 C237.315441,74.6627451 235.310539,73.8751634 232.57116,73.8751634 L227.524592,73.8751634 L227.524592,92.7452614 L232.57116,92.7452614 Z M221.231291,99.7714052 C220.53848,99.7714052 219.977206,99.2101307 219.977206,98.5173203 L219.977206,68.1031046 C219.977206,67.4102941 220.53848,66.8498366 221.231291,66.8498366 L232.57116,66.8498366 C235.690441,66.8498366 238.513154,67.5132353 240.961683,68.8228758 C243.439624,70.1488562 245.399592,72.0843137 246.787663,74.5753268 C248.161846,77.0426471 248.858742,79.9813725 248.858742,83.3098039 C248.858742,86.6382353 248.161846,89.5777778 246.787663,92.045098 C245.401225,94.5344771 243.441258,96.4707516 240.961683,97.798366 C238.513154,99.1071895 235.690441,99.7714052 232.57116,99.7714052 L221.231291,99.7714052 Z" id="Fill-40" fill="#EFEFEF"></path>
                <g id="Group-44" transform="translate(218.137255, 64.868464)">
                    <mask id="mask-8" fill="white">
                        <use xlink:href="#path-7"></use>
                    </mask>
                    <g id="Clip-43"></g>
                    <path d="M10.6401144,10.2595588 L14.434232,10.2595588 C16.7839052,10.2595588 18.4775327,10.9041667 19.6115196,12.2285131 C20.8263889,13.6500817 21.442402,15.741585 21.442402,18.4417484 C21.442402,21.1435458 20.8263889,23.234232 19.6107026,24.6549837 C18.4783497,25.9793301 16.7847222,26.6231209 14.434232,26.6231209 L10.6401144,26.6231209 L10.6401144,10.2595588 Z M14.434232,0.727696078 L3.09354575,0.727696078 C1.70874183,0.727696078 0.587009804,1.8494281 0.587009804,3.23423203 L0.587009804,33.6492647 C0.587009804,35.0332516 1.70874183,36.1558007 3.09354575,36.1558007 L14.434232,36.1558007 C17.7610294,36.1558007 20.7830882,35.4425654 23.4146242,34.0357026 C26.1098856,32.5920752 28.2397876,30.489951 29.7455065,27.7865196 C31.2242647,25.1304739 31.9742647,21.986683 31.9742647,18.4417484 C31.9742647,14.8968137 31.2242647,11.7530229 29.7455065,9.09697712 C28.2381536,6.39272876 26.1090686,4.28978758 23.4154412,2.8494281 C20.7839052,1.44174837 17.7618464,0.727696078 14.434232,0.727696078 Z M8.13357843,29.1304739 L14.434232,29.1304739 C17.5330882,29.1304739 19.8933824,28.1819444 21.5159314,26.2840686 C23.1376634,24.3878268 23.9497549,21.7734477 23.9497549,18.4417484 C23.9497549,15.111683 23.1376634,12.4973039 21.5159314,10.5994281 C19.8933824,8.70318627 17.5330882,7.75302288 14.434232,7.75302288 L8.13357843,7.75302288 L8.13357843,29.1304739 Z M14.434232,3.23423203 C17.3590686,3.23423203 19.9587418,3.84289216 22.2324346,5.05939542 C24.5069444,6.27589869 26.2806373,8.02916667 27.5559641,10.3167484 C28.8296569,12.6051471 29.4677288,15.3142974 29.4677288,18.4417484 C29.4677288,21.5700163 28.8296569,24.2783497 27.5559641,26.5667484 C26.2806373,28.8559641 24.5069444,30.606781 22.2324346,31.8249183 C19.9587418,33.0406046 17.3590686,33.6492647 14.434232,33.6492647 L3.09354575,33.6492647 L3.09354575,3.23423203 L14.434232,3.23423203 Z" id="Fill-42" fill="#000000" mask="url(#mask-8)"></path>
                </g>
            </g>
        </g>
    </g>
</svg>