<svg id="Layer_1" data-name="Layer 1" xmlns="http://www.w3.org/2000/svg" viewBox="0 0 75 75"><defs><style>.cls-1{stroke:#fff;stroke-miterlimit:10;stroke-width:1.5px;}</style></defs><title>portland_characters</title><circle class="cls-1" cx="19.27" cy="39.72" r="4.56"/><circle class="cls-1" cx="55.73" cy="39.72" r="4.56"/><path class="cls-1" d="M55.73,44.27a18.23,18.23,0,1,1-36.46,0V35.16a18.23,18.23,0,0,1,36.46,0Z"/><path class="cls-1" d="M42.06,46.55a4.56,4.56,0,0,1-9.12,0"/><rect class="cls-1" x="19.27" y="26.05" width="4.56" height="13.67"/><path class="cls-1" d="M51.22,16.93c-5.69-3.93-15-5.73-22-3.38A22.74,22.74,0,0,0,14.77,28a22.71,22.71,0,0,0,20.17,2.88,30.73,30.73,0,0,0,12-7.2,9.17,9.17,0,0,0,4.3,5.74V39.72h4.55V21.49A4.56,4.56,0,0,0,51.22,16.93Z"/><circle class="cls-1" cx="31.36" cy="37.16" r="2.26"/><circle class="cls-1" cx="43.71" cy="37.16" r="2.26"/><circle class="cls-1" cx="43.71" cy="36.72" r="1.52"/><circle class="cls-1" cx="31.36" cy="36.72" r="1.52"/><line class="cls-1" x1="27.52" y1="36.51" x2="25.5" y2="35.8"/><line class="cls-1" x1="27.47" y1="38.14" x2="25.54" y2="39.07"/><line class="cls-1" x1="47.55" y1="36.51" x2="49.57" y2="35.8"/><line class="cls-1" x1="47.59" y1="38.14" x2="49.53" y2="39.07"/><path class="cls-1" d="M32.21,45a2.65,2.65,0,0,1,5.3,0Z"/><path class="cls-1" d="M37.49,45a2.65,2.65,0,0,1,5.3,0Z"/></svg>