<svg id="Layer_1" data-name="Layer 1" xmlns="http://www.w3.org/2000/svg" viewBox="0 0 75 75"><defs><style>.cls-1{fill:#231f20;stroke:#fff;stroke-miterlimit:10;stroke-width:1.5px;}</style></defs><title>portland_characters</title><path class="cls-1" d="M52.61,47.53a15,15,0,0,1-29.95,0V40a15,15,0,0,1,30,0Z"/><path class="cls-1" d="M53.69,36.76c8.78-.28-7.13-15.91-15.91-15.91S13.09,36.46,21.87,36.76c10.12.34,15.91-7.95,15.91-7.95A18.75,18.75,0,0,0,53.69,36.76Z"/><path class="cls-1" d="M41.38,49.4a3.75,3.75,0,0,1-7.49,0"/><path class="cls-1" d="M22.68,44C13.09,36.77,16.4,12.5,37.77,12.5,62,12.5,59.7,40,52.62,44V37.07c0-7.65-6.7-13.85-15-13.85s-15,6.2-15,13.85Z"/><path class="cls-1" d="M23.34,52a4.21,4.21,0,0,1-4.21-4.21c0-2.33,1-4.26,3.34-4.26C22.21,43.44,23.06,52,23.34,52Z"/><path class="cls-1" d="M56.14,47.75a4,4,0,0,1-4,4.23c.26,0,.54-8.54.57-8.49C55.08,43.49,56.14,45.42,56.14,47.75Z"/><path class="cls-1" d="M54.29,51.7a2.48,2.48,0,0,1,1.23-2.13,2.46,2.46,0,1,0,0,4.25A2.47,2.47,0,0,1,54.29,51.7Z"/><path class="cls-1" d="M21.22,51.7A2.48,2.48,0,0,0,20,49.57a2.46,2.46,0,1,1,0,4.25A2.47,2.47,0,0,0,21.22,51.7Z"/><path class="cls-1" d="M49.65,20.06v5.35a2.83,2.83,0,0,1-4.16,2.5l-8-5.18,7.6-4.92A2.83,2.83,0,0,1,49.65,20.06Z"/><path class="cls-1" d="M25.35,25.41V20.06a2.83,2.83,0,0,1,4.16-2.5l8,5.17-7.6,4.92A2.83,2.83,0,0,1,25.35,25.41Z"/><circle class="cls-1" cx="37.5" cy="22.73" r="3.44"/><circle class="cls-1" cx="32.03" cy="41.76" r="2.11"/><circle class="cls-1" cx="43.53" cy="41.76" r="2.11"/><circle class="cls-1" cx="43.53" cy="41.35" r="1.42"/><circle class="cls-1" cx="32.03" cy="41.35" r="1.42"/></svg>