<svg id="Layer_1" data-name="Layer 1" xmlns="http://www.w3.org/2000/svg" viewBox="0 0 75 75"><defs><style>.cls-1{fill:#231f20;stroke:#fff;stroke-miterlimit:10;stroke-width:1.5px;}</style></defs><title>portland_characters</title><path class="cls-1" d="M56,44V31a18.49,18.49,0,1,0-37,0V44A18.49,18.49,0,0,0,37.5,62.5h0A18.49,18.49,0,0,0,56,44Z"/><path class="cls-1" d="M52.63,41.09a15.13,15.13,0,1,1-30.26,0V33.53a15.13,15.13,0,1,1,30.26,0Z"/><path class="cls-1" d="M52.63,41.09a15.13,15.13,0,1,1-30.26,0V33.53a15.13,15.13,0,1,1,30.26,0Z"/><path class="cls-1" d="M41.28,43a3.78,3.78,0,1,1-7.56,0"/><path class="cls-1" d="M37.5,29.4a34.64,34.64,0,0,1,15.12,3.45,15.14,15.14,0,0,0-30.24,0A34.64,34.64,0,0,1,37.5,29.4Z"/><circle class="cls-1" cx="32.03" cy="35.19" r="2.13"/><circle class="cls-1" cx="43.65" cy="35.19" r="2.13"/><circle class="cls-1" cx="43.65" cy="34.78" r="1.43"/><circle class="cls-1" cx="32.03" cy="34.78" r="1.43"/></svg>