<svg id="Layer_1" data-name="Layer 1" xmlns="http://www.w3.org/2000/svg" viewBox="0 0 75 75"><defs><style>.cls-1{fill:#231f20;stroke:#fff;stroke-miterlimit:10;stroke-width:1.5px;}</style></defs><title>portland_characters</title><path class="cls-1" d="M56.5,32.91a19,19,0,0,1-38,0Z"/><circle class="cls-1" cx="21.56" cy="41.53" r="4.52"/><circle class="cls-1" cx="53.74" cy="41.53" r="4.52"/><path class="cls-1" d="M53.74,46.41a16.09,16.09,0,0,1-32.18,0v-8a16.09,16.09,0,0,1,32.18,0Z"/><path class="cls-1" d="M41.67,48.42a4,4,0,1,1-8,0"/><path class="cls-1" d="M58.73,33.73a21.23,21.23,0,1,0-42.46,0h16L37.11,30l5.19,3.78Z"/><circle class="cls-1" cx="31.47" cy="40.38" r="2.26"/><circle class="cls-1" cx="43.83" cy="40.38" r="2.26"/><circle class="cls-1" cx="43.83" cy="39.94" r="1.52"/><circle class="cls-1" cx="31.47" cy="39.94" r="1.52"/></svg>