<svg xmlns="http://www.w3.org/2000/svg" width="63" height="52" viewBox="0 0 63 52">
    <g fill="none" fill-rule="evenodd">
        <path fill="#000" d="M21.553 29.797l13.69 13.422a3.016 3.016 0 0 1 0 4.324 3.164 3.164 0 0 1-4.41 0L17.143 34.12l-2.205-2.161a12.061 12.061 0 0 1 0-17.295s10.46-7.487 17.9-.194"/>
        <path stroke="#FFF" stroke-width="2" d="M21.553 29.797l13.69 13.422a3.016 3.016 0 0 1 0 4.324 3.164 3.164 0 0 1-4.41 0L17.143 34.12l-2.205-2.161a12.061 12.061 0 0 1 0-17.295s10.46-7.487 17.9-.194"/>
        <path fill="#000" d="M48.368 32.182a12.061 12.061 0 0 0 0-17.295c-4.872-4.776-12.77-4.776-17.641 0"/>
        <path stroke="#FFF" stroke-width="2" d="M48.368 32.182a12.061 12.061 0 0 0 0-17.295c-4.872-4.776-12.77-4.776-17.641 0"/>
        <path fill="#000" d="M61.598 19.21L43.958 1.917l-6.616 6.486 17.641 17.294z"/>
        <path stroke="#FFF" stroke-width="2" d="M61.598 19.21L43.958 1.917l-6.616 6.486 17.641 17.294z"/>
        <path fill="#000" d="M56.637 20.069a1.581 1.581 0 0 1-2.205 0 1.507 1.507 0 0 1 0-2.162 1.583 1.583 0 0 1 2.205 0 1.507 1.507 0 0 1 0 2.162"/>
        <path stroke="#FFF" stroke-width="2" d="M56.637 20.069a1.581 1.581 0 0 1-2.205 0 1.507 1.507 0 0 1 0-2.162 1.583 1.583 0 0 1 2.205 0 1.507 1.507 0 0 1 0 2.162z"/>
        <path fill="#000" d="M25.956 25.467l15.08 14.785a3.015 3.015 0 0 1 0 4.323 3.162 3.162 0 0 1-4.41 0L21.547 29.79"/>
        <path stroke="#FFF" stroke-width="2" d="M25.956 25.467l15.08 14.785a3.015 3.015 0 0 1 0 4.323 3.162 3.162 0 0 1-4.41 0L21.547 29.79"/>
        <path fill="#000" d="M31.708 22.458L46.796 37.25a3.013 3.013 0 0 1 0 4.324 3.162 3.162 0 0 1-4.41 0L27.298 26.782"/>
        <path stroke="#FFF" stroke-width="2" d="M31.708 22.458L46.796 37.25a3.013 3.013 0 0 1 0 4.324 3.162 3.162 0 0 1-4.41 0L27.298 26.782"/>
        <path fill="#000" d="M36.03 18.049l13.411 13.147a3.016 3.016 0 0 1 0 4.323 3.162 3.162 0 0 1-4.41 0L32.837 23.566"/>
        <path stroke="#FFF" stroke-width="2" d="M36.03 18.049l13.411 13.147a3.016 3.016 0 0 1 0 4.323 3.162 3.162 0 0 1-4.41 0L32.837 23.566"/>
        <path fill="#000" d="M19.348 1.693L1.707 18.988l6.616 6.485 17.64-17.295z"/>
        <path stroke="#FFF" stroke-width="2" d="M19.348 1.693L1.707 18.988l6.616 6.485 17.64-17.295z"/>
        <path fill="#000" d="M9.425 17.907a1.507 1.507 0 0 1 0 2.162 1.581 1.581 0 0 1-2.205 0 1.507 1.507 0 0 1 0-2.162 1.583 1.583 0 0 1 2.205 0"/>
        <path stroke="#FFF" stroke-width="2" d="M9.425 17.907a1.507 1.507 0 0 1 0 2.162 1.581 1.581 0 0 1-2.205 0 1.507 1.507 0 0 1 0-2.162 1.583 1.583 0 0 1 2.205 0z"/>
        <path fill="#000" d="M12.739 32.523a3.015 3.015 0 0 0 0 4.323 3.162 3.162 0 0 0 4.41 0l2.205-2.161a3.015 3.015 0 0 0 0-4.324 3.162 3.162 0 0 0-4.41 0l-2.205 2.162z"/>
        <path stroke="#FFF" stroke-width="2" d="M12.739 32.523a3.015 3.015 0 0 0 0 4.323 3.162 3.162 0 0 0 4.41 0l2.205-2.161a3.015 3.015 0 0 0 0-4.324 3.162 3.162 0 0 0-4.41 0l-2.205 2.162z"/>
        <path fill="#000" d="M30.727 14.887L19.745 25.654c2.205 2.163 6.615 2.163 8.82 0l7.968-7.811"/>
        <path stroke="#FFF" stroke-width="2" d="M30.727 14.887L19.745 25.654c2.205 2.163 6.615 2.163 8.82 0l7.968-7.811"/>
        <path fill="#000" d="M20.047 42.652a3.162 3.162 0 0 1-4.41 0 3.015 3.015 0 0 1 0-4.323l3.717-3.644a3.162 3.162 0 0 1 4.41 0 3.015 3.015 0 0 1 0 4.323l-3.717 3.644z"/>
        <path stroke="#FFF" stroke-width="2" d="M20.047 42.652a3.162 3.162 0 0 1-4.41 0 3.015 3.015 0 0 1 0-4.323l3.717-3.644a3.162 3.162 0 0 1 4.41 0 3.015 3.015 0 0 1 0 4.323l-3.717 3.644z"/>
        <path fill="#000" d="M24.457 46.976a3.162 3.162 0 0 1-4.41 0 3.015 3.015 0 0 1 0-4.324l3.717-3.644a3.162 3.162 0 0 1 4.41 0 3.015 3.015 0 0 1 0 4.324l-3.717 3.644z"/>
        <path stroke="#FFF" stroke-width="2" d="M24.457 46.976a3.162 3.162 0 0 1-4.41 0 3.015 3.015 0 0 1 0-4.324l3.717-3.644a3.162 3.162 0 0 1 4.41 0 3.015 3.015 0 0 1 0 4.324l-3.717 3.644z"/>
        <path fill="#000" d="M30.38 49.817a3.162 3.162 0 0 1-4.41 0 3.015 3.015 0 0 1 0-4.323l2.204-2.162a3.162 3.162 0 0 1 4.41 0 3.015 3.015 0 0 1 0 4.324l-2.205 2.161z"/>
        <path stroke="#FFF" stroke-width="2" d="M30.38 49.817a3.162 3.162 0 0 1-4.41 0 3.015 3.015 0 0 1 0-4.323l2.204-2.162a3.162 3.162 0 0 1 4.41 0 3.015 3.015 0 0 1 0 4.324l-2.205 2.161z"/>
    </g>
</svg>
