<svg xmlns="http://www.w3.org/2000/svg" width="60" height="50" viewBox="0 0 60 50">
    <g fill="none" fill-rule="evenodd">
        <path fill="#020303" d="M19.989 28.47l13.163 13.164a3 3 0 0 1-4.24 4.241L15.748 32.711l-2.12-2.12c-4.683-4.685-4.683-12.278 0-16.963 0 0 10.06-7.342 17.212-.19l6.954 7.393"/>
        <path stroke="#DBA826" stroke-width="1.333" d="M19.989 28.47l13.163 13.164a3 3 0 0 1-4.24 4.241L15.748 32.711l-2.12-2.12c-4.683-4.685-4.683-12.278 0-16.963 0 0 10.06-7.342 17.212-.19l6.954 7.393"/>
        <path fill="#020303" d="M45.773 30.809c4.684-4.684 4.684-12.278 0-16.963-4.685-4.683-12.279-4.683-16.964 0"/>
        <path stroke="#EFAFCE" stroke-width="1.333" d="M45.773 30.809c4.684-4.684 4.684-12.278 0-16.963-4.685-4.683-12.279-4.683-16.964 0"/>
        <path fill="#020303" d="M58.495 18.087L41.53 1.125l-6.36 6.361 16.963 16.962z"/>
        <path stroke="#A3D39F" stroke-width="1.333" d="M58.495 18.087L41.53 1.125l-6.36 6.361 16.963 16.962z"/>
        <path fill="#020303" d="M53.723 18.93a1.499 1.499 0 1 1-2.12-2.12 1.499 1.499 0 0 1 2.12 2.12"/>
        <path stroke="#F05822" stroke-width="1.333" d="M53.723 18.93a1.499 1.499 0 1 1-2.12-2.12 1.499 1.499 0 0 1 2.12 2.12z"/>
        <path fill="#020303" d="M24.222 24.222l14.502 14.502a2.998 2.998 0 1 1-4.24 4.24L19.98 28.464"/>
        <path stroke="#DBA826" stroke-width="1.333" d="M24.222 24.222l14.502 14.502a2.998 2.998 0 1 1-4.24 4.24L19.98 28.464"/>
        <path fill="#020303" d="M29.754 21.272L44.26 35.78a2.998 2.998 0 1 1-4.24 4.24L25.513 25.512"/>
        <path stroke="#DBA826" stroke-width="1.333" d="M29.754 21.272L44.26 35.78a2.998 2.998 0 1 1-4.24 4.24L25.513 25.512"/>
        <path fill="#020303" d="M33.91 16.947l12.894 12.896a2.998 2.998 0 1 1-4.24 4.24l-12.81-12.81"/>
        <path stroke="#DBA826" stroke-width="1.333" d="M33.91 16.947l12.894 12.896a2.998 2.998 0 1 1-4.24 4.24l-12.81-12.81"/>
        <path fill="#020303" d="M17.869.906L.906 17.87l6.362 6.36L24.229 7.268z"/>
        <path stroke="#F05822" stroke-width="1.333" d="M17.869.906L.906 17.87l6.362 6.36L24.229 7.268z"/>
        <path fill="#020303" d="M8.327 16.809a1.499 1.499 0 1 1-2.12 2.12 1.499 1.499 0 0 1 2.12-2.12"/>
        <path stroke="#A3D39F" stroke-width="1.333" d="M8.327 16.809a1.499 1.499 0 1 1-2.12 2.12 1.499 1.499 0 0 1 2.12-2.12z"/>
        <path fill="#020303" d="M11.514 31.143a2.998 2.998 0 1 0 4.24 4.24l2.12-2.12a2.998 2.998 0 1 0-4.24-4.24l-2.12 2.12z"/>
        <path stroke="#EFAFCE" stroke-width="1.333" d="M11.514 31.143a2.998 2.998 0 1 0 4.24 4.24l2.12-2.12a2.998 2.998 0 1 0-4.24-4.24l-2.12 2.12z"/>
        <path fill="#020303" d="M28.81 13.847l-10.56 10.56c2.12 2.12 6.362 2.12 8.482 0l7.66-7.661"/>
        <path stroke="#EFAFCE" stroke-width="1.333" d="M28.81 13.847l-10.56 10.56c2.12 2.12 6.362 2.12 8.482 0l7.66-7.661"/>
        <path fill="#020303" d="M18.54 41.078a2.998 2.998 0 1 1-4.24-4.24l3.575-3.574a2.998 2.998 0 1 1 4.24 4.24l-3.574 3.574z"/>
        <path stroke="#EFAFCE" stroke-width="1.333" d="M18.54 41.078a2.998 2.998 0 1 1-4.24-4.24l3.575-3.574a2.998 2.998 0 1 1 4.24 4.24l-3.574 3.574z"/>
        <path fill="#020303" d="M22.781 45.319a2.998 2.998 0 1 1-4.24-4.24l3.575-3.575a2.998 2.998 0 1 1 4.24 4.24l-3.575 3.575z"/>
        <path stroke="#EFAFCE" stroke-width="1.333" d="M22.781 45.319a2.998 2.998 0 1 1-4.24-4.24l3.575-3.575a2.998 2.998 0 1 1 4.24 4.24l-3.575 3.575z"/>
        <path fill="#020303" d="M28.476 48.105a2.998 2.998 0 1 1-4.24-4.24l2.12-2.12a2.998 2.998 0 1 1 4.24 4.24l-2.12 2.12z"/>
        <path stroke="#EFAFCE" stroke-width="1.333" d="M28.476 48.105a2.998 2.998 0 1 1-4.24-4.24l2.12-2.12a2.998 2.998 0 1 1 4.24 4.24l-2.12 2.12z"/>
    </g>
</svg>
