<svg xmlns="http://www.w3.org/2000/svg" width="47" height="53" viewBox="0 0 47 53">
    <g fill="none" fill-rule="evenodd">
        <path fill="#000" d="M1.49 1.49v24.26h8.404l8.402 8.18v-8.18h22.41V1.49z"/>
        <path stroke="#FFF" stroke-width="2" d="M1.49 1.49v24.26h8.403l8.404 8.18v-8.18h22.409V1.49z"/>
        <path fill="#000" d="M23.55 30.902v14.26h11.66v5.347l5.198-5.347h5.2v-14.26z"/>
        <path stroke="#FFF" stroke-width="2" d="M45.608 30.902v14.26h-5.2l-5.2 5.348v-5.347H23.55V30.902z"/>
        <path fill="#000" d="M13.745 13.745a2.45 2.45 0 1 1-4.901 0 2.45 2.45 0 0 1 4.901 0"/>
        <path stroke="#FFF" stroke-width="2" d="M13.745 13.745a2.45 2.45 0 1 1-4.901 0 2.45 2.45 0 0 1 4.901 0z"/>
        <path fill="#000" d="M23.549 13.745a2.45 2.45 0 1 1-4.901 0 2.45 2.45 0 0 1 4.901 0"/>
        <path stroke="#FFF" stroke-width="2" d="M23.549 13.745a2.45 2.45 0 1 1-4.901 0 2.45 2.45 0 0 1 4.901 0z"/>
        <path fill="#000" d="M33.353 13.745a2.45 2.45 0 1 1-4.901 0 2.45 2.45 0 0 1 4.9 0"/>
        <path stroke="#FFF" stroke-width="2" d="M33.353 13.745a2.45 2.45 0 1 1-4.901 0 2.45 2.45 0 0 1 4.9 0z"/>
    </g>
</svg>
