<svg xmlns="http://www.w3.org/2000/svg" width="46" height="52" viewBox="0 0 46 52">
    <g fill="none" fill-rule="evenodd">
        <path fill="#020303" d="M1.641 1.641v23.794h8.243l8.24 8.022v-8.022h21.98V1.641z"/>
        <path stroke="#F05822" stroke-width="1.333" d="M1.641 1.641v23.794h8.242l8.242 8.021v-8.02h21.978V1.64z"/>
        <path fill="#020303" d="M44.91 30.487v13.986h-5.1l-5.098 5.245v-5.245H23.276V30.487z"/>
        <path stroke="#EFAFCE" stroke-width="1.333" d="M44.91 30.487v13.986h-5.1l-5.098 5.245v-5.245H23.276V30.487z"/>
        <path fill="#020303" d="M13.66 13.66a2.404 2.404 0 1 1-4.808 0 2.404 2.404 0 0 1 4.809 0"/>
        <path stroke="#EFAFCE" stroke-width="1.333" d="M13.66 13.66a2.404 2.404 0 1 1-4.808 0 2.404 2.404 0 0 1 4.809 0z"/>
        <path fill="#020303" d="M23.276 13.66a2.404 2.404 0 1 1-4.808 0 2.404 2.404 0 0 1 4.808 0"/>
        <path stroke="#A3D39F" stroke-width="1.333" d="M23.276 13.66a2.404 2.404 0 1 1-4.808 0 2.404 2.404 0 0 1 4.808 0z"/>
        <path fill="#020303" d="M32.891 13.66a2.404 2.404 0 1 1-4.808 0 2.404 2.404 0 0 1 4.808 0"/>
        <path stroke="#DBA826" stroke-width="1.333" d="M32.891 13.66a2.404 2.404 0 1 1-4.808 0 2.404 2.404 0 0 1 4.808 0z"/>
    </g>
</svg>
