<svg xmlns="http://www.w3.org/2000/svg" width="51" height="52" viewBox="0 0 51 52">
    <g fill="none" fill-rule="evenodd">
        <path fill="#020303" d="M40.344 6.555a4.902 4.902 0 0 1 9.804 0h-9.804"/>
        <path stroke="#F05822" stroke-width="1.333" d="M40.344 6.555a4.902 4.902 0 0 1 9.804 0h-9.804"/>
        <path fill="#020303" d="M45.246 1.653H10.932A4.902 4.902 0 0 0 6.03 6.555v39.216h24.51a4.902 4.902 0 1 0 9.804 0V6.555a4.902 4.902 0 0 1 4.902-4.902"/>
        <path stroke="#EFAFCE" stroke-width="1.333" d="M45.246 1.653H10.932A4.902 4.902 0 0 0 6.03 6.555v39.216h24.51a4.902 4.902 0 1 0 9.804 0V6.555a4.902 4.902 0 0 1 4.902-4.902z"/>
        <path fill="#020303" d="M30.54 45.771v-2.45H1.128v2.45a4.902 4.902 0 0 0 4.902 4.902h29.412a4.902 4.902 0 0 1-4.902-4.902"/>
        <path stroke="#F05822" stroke-width="1.333" d="M30.54 45.771v-2.45H1.128v2.45a4.902 4.902 0 0 0 4.902 4.902h29.412a4.902 4.902 0 0 1-4.902-4.902z"/>
        <path stroke="#FEFEFE" stroke-width="1.333" d="M13.383 13.908H32.99M13.383 21.261H32.99M13.383 28.614H32.99M13.383 35.967H32.99"/>
        <path fill="#020303" d="M15.834 38.418l-6.128-5.515-6.127 5.515V16.36h12.255z"/>
        <path stroke="#A3D39F" stroke-width="1.333" d="M15.834 38.418l-6.128-5.515-6.127 5.515V16.36h12.255z"/>
        <path fill="#020303" d="M17.5 15.134l1.114-2.894-2.601-1.687-.802-2.994-3.095.16-2.41-1.948L7.299 7.72l-3.094-.16-.804 2.994L.8 12.24l1.114 2.894L.8 18.028 3.4 19.715l.804 2.994 3.094-.16 2.409 1.948 2.41-1.948 3.094.16.802-2.994 2.6-1.687z"/>
        <path stroke="#DBA826" stroke-width="1.333" d="M17.5 15.134l1.114-2.894-2.601-1.687-.802-2.994-3.095.16-2.41-1.948L7.299 7.72l-3.094-.16-.804 2.994L.8 12.24l1.114 2.894L.8 18.028 3.4 19.715l.804 2.994 3.094-.16 2.409 1.948 2.41-1.948 3.094.16.802-2.994 2.6-1.687z"/>
        <path fill="#020303" d="M17.5 15.134l1.114-2.894-2.601-1.687-.802-2.994-3.095.16-2.41-1.948L7.299 7.72l-3.094-.16-.804 2.994L.8 12.24l1.114 2.894L.8 18.028 3.4 19.715l.804 2.994 3.094-.16 2.409 1.948 2.41-1.948 3.094.16.802-2.994 2.6-1.687z"/>
        <path stroke="#DBA826" stroke-width="1.333" d="M17.5 15.134l1.114-2.894-2.601-1.687-.802-2.994-3.095.16-2.41-1.948L7.299 7.72l-3.094-.16-.804 2.994L.8 12.24l1.114 2.894L.8 18.028 3.4 19.715l.804 2.994 3.094-.16 2.409 1.948 2.41-1.948 3.094.16.802-2.994 2.6-1.687z"/>
        <path fill="#020303" d="M13.383 15.134a3.677 3.677 0 1 0-7.353 0 3.677 3.677 0 0 0 7.353 0"/>
        <path stroke="#F05822" stroke-width="1.333" d="M13.383 15.134a3.677 3.677 0 1 0-7.353 0 3.677 3.677 0 0 0 7.353 0z"/>
    </g>
</svg>
