<svg xmlns="http://www.w3.org/2000/svg" width="53" height="51" viewBox="0 0 53 51">
    <g fill="none" fill-rule="evenodd">
        <path fill="#000" d="M41.679 1.443H11.878c-2.742 0-4.966 2.138-4.966 4.775v38.206h24.833c0 2.637 2.224 4.776 4.967 4.776 2.743 0 4.967-2.139 4.967-4.776V6.218h4.967V1.443h-4.967z"/>
        <path stroke="#FFF" stroke-width="2" d="M41.679 1.443H11.878c-2.742 0-4.966 2.138-4.966 4.775v38.206h24.833c0 2.637 2.224 4.776 4.967 4.776 2.743 0 4.967-2.139 4.967-4.776V6.218h4.967V1.443h-4.967z"/>
        <path fill="#000" d="M41.679 6.218c0-2.637 2.224-4.775 4.967-4.775 2.742 0 4.966 2.138 4.966 4.775h-9.933"/>
        <path stroke="#FFF" stroke-width="2" d="M41.679 6.218c0-2.637 2.224-4.775 4.967-4.775 2.742 0 4.966 2.138 4.966 4.775h-9.933"/>
        <path fill="#000" d="M31.745 44.424v-2.388h-29.8v2.388c0 2.637 2.223 4.776 4.967 4.776h29.8c-2.743 0-4.967-2.139-4.967-4.776"/>
        <path stroke="#FFF" stroke-width="2" d="M31.745 44.424v-2.388h-29.8v2.388c0 2.637 2.223 4.776 4.967 4.776h29.8c-2.743 0-4.967-2.139-4.967-4.776z"/>
        <path fill="#000" d="M14.361 13.381h19.867"/>
        <path stroke="#FFF" stroke-width="2" d="M14.361 13.381h19.867"/>
        <path fill="#000" d="M14.361 20.545h19.867"/>
        <path stroke="#FFF" stroke-width="2" d="M14.361 20.545h19.867"/>
        <path fill="#000" d="M14.361 27.709h19.867"/>
        <path stroke="#FFF" stroke-width="2" d="M14.361 27.709h19.867"/>
        <path fill="#000" d="M14.361 34.872h19.867"/>
        <path stroke="#FFF" stroke-width="2" d="M14.361 34.872h19.867"/>
        <path fill="#000" d="M16.845 37.26l-6.208-5.373-6.21 5.373V15.77h12.418z"/>
        <path stroke="#FFF" stroke-width="2" d="M16.845 37.26l-6.208-5.373-6.21 5.373V15.77h12.418z"/>
        <path fill="#000" d="M18.534 14.576l1.127-2.82-2.634-1.644-.813-2.916-3.136.156-2.441-1.897-2.441 1.897-3.136-.156-.813 2.916-2.635 1.643 1.128 2.82-1.128 2.82 2.635 1.644.813 2.916 3.136-.155 2.44 1.897 2.442-1.897 3.136.155.813-2.916 2.634-1.644z"/>
        <path stroke="#FFF" stroke-width="2" d="M18.534 14.576l1.127-2.82-2.634-1.644-.813-2.916-3.136.156-2.441-1.897-2.441 1.897-3.136-.156-.813 2.916-2.635 1.643 1.128 2.82-1.128 2.82 2.635 1.644.813 2.916 3.136-.155 2.44 1.897 2.442-1.897 3.136.155.813-2.916 2.634-1.644z"/>
        <path fill="#000" d="M18.534 14.576l1.127-2.82-2.634-1.644-.813-2.916-3.136.156-2.441-1.897-2.441 1.897-3.136-.156-.813 2.916-2.635 1.643 1.128 2.82-1.128 2.82 2.635 1.644.813 2.916 3.136-.155 2.44 1.897 2.442-1.897 3.136.155.813-2.916 2.634-1.644z"/>
        <path stroke="#FFF" stroke-width="2" d="M18.534 14.576l1.127-2.82-2.634-1.644-.813-2.916-3.136.156-2.441-1.897-2.441 1.897-3.136-.156-.813 2.916-2.635 1.643 1.128 2.82-1.128 2.82 2.635 1.644.813 2.916 3.136-.155 2.44 1.897 2.442-1.897 3.136.155.813-2.916 2.634-1.644z"/>
        <path fill="#000" d="M14.361 14.576c0-1.98-1.667-3.583-3.725-3.583-2.057 0-3.725 1.604-3.725 3.583s1.668 3.581 3.725 3.581c2.058 0 3.725-1.602 3.725-3.581"/>
        <path stroke="#FFF" stroke-width="2" d="M14.361 14.576c0-1.98-1.667-3.583-3.725-3.583-2.057 0-3.725 1.604-3.725 3.583s1.668 3.581 3.725 3.581c2.058 0 3.725-1.602 3.725-3.581z"/>
    </g>
</svg>
