<svg xmlns="http://www.w3.org/2000/svg" xmlns:xlink="http://www.w3.org/1999/xlink" width="46" height="52" viewBox="0 0 46 52">
    <defs>
        <path id="a" d="M0 51h43.817V0H0z"/>
    </defs>
    <g fill="none" fill-rule="evenodd" transform="translate(1)">
        <path fill="#000" d="M.36 50.642h43.097V26.697H.359z"/>
        <path stroke="#4A4A4A" stroke-width="2" d="M.36 50.64h43.098V26.698H.359z"/>
        <path fill="#000" d="M2.753 26.697h4.79v-2.394h-4.79z"/>
        <path stroke="#4A4A4A" stroke-width="2" d="M2.753 26.697h4.79v-2.394h-4.79z"/>
        <path fill="#000" d="M2.753 50.642h4.79V26.697h-4.79z"/>
        <path stroke="#4A4A4A" stroke-width="2" d="M2.753 50.64h4.79V26.698h-4.79z"/>
        <path fill="#000" d="M36.275 26.697h4.788v-2.394h-4.788z"/>
        <path stroke="#4A4A4A" stroke-width="2" d="M36.275 26.697h4.788v-2.394h-4.788z"/>
        <path fill="#000" d="M36.275 50.642h4.788V26.697h-4.788z"/>
        <path stroke="#4A4A4A" stroke-width="2" d="M36.275 50.64h4.788V26.698h-4.788z"/>
        <path fill="#000" d="M9.937 14.726v11.971h2.394V17.12h19.155v9.577h2.394V14.726z"/>
        <path stroke="#4A4A4A" stroke-width="2" d="M9.937 14.726v11.971h2.394V17.12h19.155v9.577h2.394V14.726z"/>
        <path fill="#000" d="M12.33 21.909a2.395 2.395 0 0 0 4.79 0v-4.79a2.394 2.394 0 1 0-4.79 0v4.79z"/>
        <path stroke="#4A4A4A" stroke-width="2" d="M12.33 21.909a2.395 2.395 0 0 0 4.79 0v-4.79a2.394 2.394 0 1 0-4.79 0v4.79z"/>
        <path fill="#000" d="M21.909 21.909a2.394 2.394 0 1 1-4.79 0v-4.79a2.394 2.394 0 1 1 4.79 0v4.79z"/>
        <path stroke="#4A4A4A" stroke-width="2" d="M21.909 21.909a2.394 2.394 0 1 1-4.79 0v-4.79a2.394 2.394 0 1 1 4.79 0v4.79z"/>
        <path fill="#000" d="M26.697 21.909a2.394 2.394 0 1 1-4.788 0v-4.79a2.394 2.394 0 1 1 4.788 0v4.79z"/>
        <path stroke="#4A4A4A" stroke-width="2" d="M26.697 21.909a2.394 2.394 0 1 1-4.788 0v-4.79a2.394 2.394 0 1 1 4.788 0v4.79z"/>
        <path fill="#000" d="M31.486 21.909a2.394 2.394 0 1 1-4.79 0v-4.79a2.395 2.395 0 0 1 4.79 0v4.79z"/>
        <path stroke="#4A4A4A" stroke-width="2" d="M31.486 21.909a2.394 2.394 0 1 1-4.79 0v-4.79a2.395 2.395 0 0 1 4.79 0v4.79z"/>
        <path fill="#000" d="M21.909 9.937c0 2.394-1.88 4.789-4.79 4.789h2.395c2.395 0 4.789 2.394 4.789 4.788h-9.578s-2.394 0-2.394-2.394v-2.394a9.578 9.578 0 0 1 19.155 0"/>
        <path stroke="#4A4A4A" stroke-width="2" d="M21.909 9.937c0 2.394-1.88 4.789-4.79 4.789h2.395c2.395 0 4.789 2.394 4.789 4.788h-9.578s-2.394 0-2.394-2.394v-2.394a9.578 9.578 0 0 1 19.155 0"/>
        <mask id="b" fill="#fff">
            <use xlink:href="#a"/>
        </mask>
        <path fill="#000" d="M12.33 7.542h19.156V.36H12.33z" mask="url(#b)"/>
        <path stroke="#4A4A4A" stroke-width="2" d="M12.33 7.542h19.156V.36H12.33z" mask="url(#b)"/>
        <path fill="#000" d="M17.12 3.95a1.197 1.197 0 1 1-2.394 0 1.197 1.197 0 0 1 2.394 0" mask="url(#b)"/>
        <path stroke="#4A4A4A" stroke-width="2" d="M17.12 3.95a1.197 1.197 0 1 1-2.394 0 1.197 1.197 0 0 1 2.394 0z" mask="url(#b)"/>
    </g>
</svg>
