<svg xmlns="http://www.w3.org/2000/svg" width="46" height="53" viewBox="0 0 46 53">
    <g fill="none" fill-rule="evenodd">
        <path fill="#000" d="M1.36 51.642h43.097V27.697H1.359z"/>
        <path stroke="#FFF" stroke-width="2" d="M1.36 51.64h43.098V27.698H1.359z"/>
        <path fill="#000" d="M3.753 27.697h4.79v-2.394h-4.79z"/>
        <path stroke="#FFF" stroke-width="2" d="M3.753 27.697h4.79v-2.394h-4.79z"/>
        <path fill="#000" d="M3.753 51.642h4.79V27.697h-4.79z"/>
        <path stroke="#FFF" stroke-width="2" d="M3.753 51.64h4.79V27.698h-4.79z"/>
        <path fill="#000" d="M37.275 27.697h4.788v-2.394h-4.788z"/>
        <path stroke="#FFF" stroke-width="2" d="M37.275 27.697h4.788v-2.394h-4.788z"/>
        <path fill="#000" d="M37.275 51.642h4.788V27.697h-4.788z"/>
        <path stroke="#FFF" stroke-width="2" d="M37.275 51.64h4.788V27.698h-4.788z"/>
        <path fill="#000" d="M10.937 15.726v11.971h2.394V18.12h19.155v9.577h2.394V15.726z"/>
        <path stroke="#FFF" stroke-width="2" d="M10.937 15.726v11.971h2.394V18.12h19.155v9.577h2.394V15.726z"/>
        <path fill="#000" d="M13.33 22.909a2.395 2.395 0 0 0 4.79 0v-4.79a2.394 2.394 0 1 0-4.79 0v4.79z"/>
        <path stroke="#FFF" stroke-width="2" d="M13.33 22.909a2.395 2.395 0 0 0 4.79 0v-4.79a2.394 2.394 0 1 0-4.79 0v4.79z"/>
        <path fill="#000" d="M22.909 22.909a2.394 2.394 0 1 1-4.79 0v-4.79a2.394 2.394 0 1 1 4.79 0v4.79z"/>
        <path stroke="#FFF" stroke-width="2" d="M22.909 22.909a2.394 2.394 0 1 1-4.79 0v-4.79a2.394 2.394 0 1 1 4.79 0v4.79z"/>
        <path fill="#000" d="M27.697 22.909a2.394 2.394 0 1 1-4.788 0v-4.79a2.394 2.394 0 1 1 4.788 0v4.79z"/>
        <path stroke="#FFF" stroke-width="2" d="M27.697 22.909a2.394 2.394 0 1 1-4.788 0v-4.79a2.394 2.394 0 1 1 4.788 0v4.79z"/>
        <path fill="#000" d="M32.486 22.909a2.394 2.394 0 1 1-4.79 0v-4.79a2.395 2.395 0 0 1 4.79 0v4.79z"/>
        <path stroke="#FFF" stroke-width="2" d="M32.486 22.909a2.394 2.394 0 1 1-4.79 0v-4.79a2.395 2.395 0 0 1 4.79 0v4.79z"/>
        <path fill="#000" d="M22.909 10.937c0 2.394-1.88 4.789-4.79 4.789h2.395c2.395 0 4.789 2.394 4.789 4.788h-9.578s-2.394 0-2.394-2.394v-2.394a9.578 9.578 0 0 1 19.155 0"/>
        <path stroke="#FFF" stroke-width="2" d="M22.909 10.937c0 2.394-1.88 4.789-4.79 4.789h2.395c2.395 0 4.789 2.394 4.789 4.788h-9.578s-2.394 0-2.394-2.394v-2.394a9.578 9.578 0 0 1 19.155 0"/>
        <path fill="#000" d="M13.33 8.542h19.156V1.36H13.33z"/>
        <path stroke="#FFF" stroke-width="2" d="M13.33 8.542h19.156V1.36H13.33z"/>
        <path fill="#000" d="M18.12 4.95a1.197 1.197 0 1 1-2.394 0 1.197 1.197 0 0 1 2.394 0"/>
        <path stroke="#FFF" stroke-width="2" d="M18.12 4.95a1.197 1.197 0 1 1-2.394 0 1.197 1.197 0 0 1 2.394 0z"/>
    </g>
</svg>
