<svg xmlns="http://www.w3.org/2000/svg" xmlns:xlink="http://www.w3.org/1999/xlink" width="49" height="52" viewBox="0 0 49 52">
    <defs>
        <path id="a" d="M0 51h46.659V0H0z"/>
    </defs>
    <g fill="none" fill-rule="evenodd" transform="translate(1)">
        <path fill="#000" d="M9.706 27.718a4.556 4.556 0 1 1-9.113 0 4.556 4.556 0 0 1 9.113 0"/>
        <path stroke="#FFF" stroke-width="2" d="M9.706 27.718a4.556 4.556 0 1 1-9.113 0 4.556 4.556 0 0 1 9.113 0z"/>
        <path fill="#000" d="M46.159 27.718a4.557 4.557 0 1 1-9.114 0 4.557 4.557 0 0 1 9.114 0"/>
        <path stroke="#FFF" stroke-width="2" d="M46.159 27.718a4.557 4.557 0 1 1-9.114 0 4.557 4.557 0 0 1 9.114 0z"/>
        <path fill="#000" d="M41.602 32.274c0 10.065-8.16 18.226-18.226 18.226C13.31 50.5 5.15 42.34 5.15 32.274v-9.113c0-10.067 8.16-18.227 18.226-18.227 10.066 0 18.226 8.16 18.226 18.227v9.113z"/>
        <path stroke="#FFF" stroke-width="2" d="M41.602 32.274c0 10.065-8.16 18.226-18.226 18.226C13.31 50.5 5.15 42.34 5.15 32.274v-9.113c0-10.067 8.16-18.227 18.226-18.227 10.066 0 18.226 8.16 18.226 18.227v9.113z"/>
        <path fill="#000" d="M27.933 34.553a4.557 4.557 0 1 1-9.113 0"/>
        <path stroke="#FFF" stroke-width="2" d="M27.933 34.553a4.557 4.557 0 1 1-9.113 0"/>
        <path fill="#000" d="M16.541 27.717a2.278 2.278 0 1 1 0-4.556 2.278 2.278 0 0 1 0 4.556z"/>
        <path stroke="#FFF" stroke-width="2" d="M18.82 25.44a2.278 2.278 0 1 1-4.557-.001 2.278 2.278 0 0 1 4.556 0z"/>
        <mask id="b" fill="#fff">
            <use xlink:href="#a"/>
        </mask>
        <path fill="#000" d="M5.15 27.718h4.556v-13.67H5.15z" mask="url(#b)"/>
        <path stroke="#FFF" stroke-width="2" d="M5.15 27.718h4.556v-13.67H5.15z" mask="url(#b)"/>
        <path fill="#000" d="M32.489 25.44a2.278 2.278 0 1 1-4.556-.001 2.278 2.278 0 0 1 4.556 0" mask="url(#b)"/>
        <path stroke="#FFF" stroke-width="2" d="M32.489 25.44a2.278 2.278 0 1 1-4.556-.001 2.278 2.278 0 0 1 4.556 0z" mask="url(#b)"/>
        <path fill="#000" d="M37.045 4.934C31.352 1 22.073-.804 15.002 1.554 7.932 3.91 2.786 9.397.593 15.961c5.694 3.935 13.102 5.24 20.174 2.881 4.399-1.466 8.776-3.952 11.984-7.202a9.125 9.125 0 0 0 4.294 5.733v10.343h4.557V9.491a4.557 4.557 0 0 0-4.556-4.557" mask="url(#b)"/>
        <path stroke="#FFF" stroke-width="2" d="M37.045 4.934C31.352 1 22.073-.804 15.002 1.554 7.932 3.91 2.786 9.397.593 15.961c5.694 3.935 13.102 5.24 20.174 2.881 4.399-1.466 8.776-3.952 11.984-7.202a9.125 9.125 0 0 0 4.294 5.733v10.343h4.557V9.491a4.557 4.557 0 0 0-4.556-4.557z" mask="url(#b)"/>
    </g>
</svg>
