<svg xmlns="http://www.w3.org/2000/svg" xmlns:xlink="http://www.w3.org/1999/xlink" width="99" height="8" viewBox="0 0 99 8">
    <defs>
        <path id="a" d="M3.795.58a3.42 3.42 0 1 0 0 6.841h91.662a3.421 3.421 0 0 0 0-6.841"/>
        <path id="c" d="M3.795.58a3.42 3.42 0 1 0 0 6.841h91.662a3.421 3.421 0 0 0 0-6.841"/>
    </defs>
    <g fill="none" fill-rule="evenodd">
        <g transform="translate(0 .102)">
            <mask id="b" fill="#fff">
                <use xlink:href="#a"/>
            </mask>
            <path fill="#EFAECE" d="M-52.216 3.316c3.945 0 3.945 1.368 7.89 1.368 3.947 0 3.947-1.368 7.893-1.368 3.947 0 3.947 1.368 7.893 1.368 3.946 0 3.946-1.368 7.892-1.368s3.946 1.368 7.892 1.368c3.945 0 3.945-1.368 7.89-1.368s3.945 1.368 7.89 1.368c3.946 0 3.946-1.368 7.89-1.368 3.946 0 3.946 1.368 7.89 1.368 3.947 0 3.947-1.368 7.893-1.368 3.946 0 3.946 1.368 7.893 1.368 3.946 0 3.946-1.368 7.892-1.368s3.946 1.368 7.892 1.368c3.947 0 3.947-1.368 7.893-1.368 3.948 0 3.948 1.368 7.894 1.368 3.947 0 3.947-1.368 7.894-1.368C78 3.316 78 4.684 81.949 4.684c3.946 0 3.946-1.368 7.893-1.368 3.946 0 3.946 1.368 7.892 1.368s3.946-1.368 7.893-1.368c3.949 0 3.949 1.368 7.896 1.368s3.947-1.368 7.894-1.368c3.95 0 3.95 1.368 7.899 1.368 3.926 0 3.953-1.35 7.83-1.367A3.42 3.42 0 0 0 133.795.58H-64.58a3.42 3.42 0 0 0-3.351 2.737c3.873.017 3.902 1.367 7.823 1.367 3.946 0 3.946-1.368 7.892-1.368" mask="url(#b)"/>
        </g>
        <g transform="translate(0 .102)">
            <mask id="d" fill="#fff">
                <use xlink:href="#c"/>
            </mask>
            <path fill="#F05822" d="M129.316 4.684c-3.95 0-3.95-1.368-7.899-1.368-3.947 0-3.947 1.368-7.894 1.368-3.948 0-3.948-1.368-7.896-1.368-3.947 0-3.947 1.368-7.894 1.368-3.945 0-3.945-1.368-7.89-1.368-3.948 0-3.948 1.368-7.895 1.368-3.947 0-3.947-1.368-7.894-1.368-3.946 0-3.946 1.368-7.893 1.368-3.947 0-3.947-1.368-7.894-1.368s-3.947 1.368-7.893 1.368c-3.946 0-3.946-1.368-7.892-1.368s-3.946 1.368-7.892 1.368c-3.947 0-3.947-1.368-7.893-1.368-3.946 0-3.946 1.368-7.892 1.368-3.945 0-3.945-1.368-7.89-1.368-3.946 0-3.946 1.368-7.89 1.368-3.946 0-3.946-1.368-7.89-1.368-3.946 0-3.946 1.368-7.89 1.368-3.947 0-3.947-1.368-7.893-1.368-3.946 0-3.946 1.368-7.892 1.368-3.947 0-3.947-1.368-7.893-1.368-3.946 0-3.946 1.368-7.892 1.368s-3.946-1.368-7.89-1.368c-3.948 0-3.948 1.368-7.893 1.368-3.922 0-3.95-1.35-7.824-1.366A3.42 3.42 0 0 0-64.58 7.42h198.375a3.42 3.42 0 0 0 3.351-4.102c-3.877.016-3.905 1.366-7.83 1.366" mask="url(#d)"/>
        </g>
    </g>
</svg>
