<svg xmlns="http://www.w3.org/2000/svg" width="13" height="10" viewBox="0 0 13 10">
    <g fill="none" fill-rule="evenodd">
        <path fill="#F05822" d="M12.292 3.737C12.288 2.067 10.97.533 9.339.533c-1.068 0-2.004.615-2.523 1.537C6.298 1.148 5.362.533 4.294.533c-1.631 0-2.95 1.534-2.953 3.204-.007 3.55 5.475 5.685 5.475 5.685s5.484-2.45 5.476-5.685"/>
        <path fill="#000" d="M4.294 1.067c-1.286 0-2.417 1.249-2.42 2.67C1.868 6.523 5.85 8.424 6.805 8.84c1.558-.744 4.96-2.842 4.953-5.1-.003-1.423-1.134-2.672-2.42-2.672-.842 0-1.61.473-2.057 1.265l-.465.825-.464-.825c-.447-.792-1.216-1.265-2.058-1.265zM6.83 10l-.207-.08C6.385 9.827.8 7.607.807 3.736.812 1.71 2.408 0 4.294 0a3.35 3.35 0 0 1 2.522 1.154A3.353 3.353 0 0 1 9.338 0c1.886 0 3.482 1.71 3.487 3.736.01 3.54-5.554 6.068-5.79 6.173l-.205.09z"/>
    </g>
</svg>
