<svg xmlns="http://www.w3.org/2000/svg" viewBox="0 0 150 150"><defs><style>.cls-1{fill-rule:evenodd;}.cls-2{stroke:#fff;stroke-miterlimit:10;stroke-width:1.6px;}</style></defs><title>portland_icon</title><g id="Layer_1" data-name="Layer 1"><polygon class="cls-1" points="93.55 15 75 25.44 56.46 15 47.29 34.9 26.46 37.92 30.15 59.68 15 75 30.15 90.32 26.46 112.08 47.29 115.1 56.45 135 75 124.56 93.54 135 102.7 115.1 123.54 112.08 119.85 90.32 135 75 119.85 59.68 123.54 37.92 102.71 34.9 93.55 15"/><path class="cls-2" d="M78.25,75.42v-.84c8-2.07,14-11.59,14-23H57.73c0,11.44,6,21,14,23v.84c-8,2.07-14,11.59-14,23H92.27C92.27,87,86.24,77.49,78.25,75.42Z"/><rect class="cls-2" x="55.12" y="45" width="39.76" height="6.55"/><rect class="cls-2" x="55.12" y="98.45" width="39.76" height="6.55"/><path class="cls-2" d="M62.63,58.47c11.42.11,11.72,4.2,23.14,4.3-2,4.11-5,7.19-8.47,7.81a16.11,16.11,0,0,1-4.6,0C68.09,69.87,64.28,64.64,62.63,58.47Z"/><path class="cls-2" d="M62,94.45c1.1-7.35,13.18-7.51,13.18-15,0,7.52,11.68,7.68,12.78,15Z"/></g></svg>