<svg xmlns="http://www.w3.org/2000/svg" width="15" height="22" viewBox="0 0 15 22">
    <g fill="none" fill-rule="evenodd">
        <path fill="#FFF" d="M8.56 11.13v-.275c2.538-.674 4.458-3.78 4.458-7.51H2.033c0 3.73 1.92 6.836 4.458 7.51v.275c-2.538.674-4.458 3.78-4.458 7.511h10.985c0-3.731-1.92-6.837-4.458-7.51"/>
        <path stroke="#000" d="M8.56 11.13v-.275c2.538-.674 4.458-3.78 4.458-7.51H2.033c0 3.73 1.92 6.836 4.458 7.51v.275c-2.538.674-4.458 3.78-4.458 7.511h10.985c0-3.731-1.92-6.837-4.458-7.51z"/>
        <path fill="#FFF" d="M1.205 3.344h12.642V1.21H1.205z"/>
        <path stroke="#000" d="M1.205 3.344h12.642V1.21H1.205z"/>
        <path fill="#FFF" d="M1.205 20.776h12.642V18.64H1.205z"/>
        <path stroke="#000" d="M1.205 20.776h12.642V18.64H1.205z"/>
    </g>
</svg>
