<svg xmlns="http://www.w3.org/2000/svg" width="82" height="83" viewBox="0 0 82 83">
    <g fill="none" fill-rule="evenodd">
        <path fill="#000" d="M53.671.488L41.032 7.605 28.395.488l-6.245 13.56-14.198 2.058 2.515 14.83L.142 41.376l10.325 10.442L7.95 66.645l14.198 2.06 6.244 13.562 12.64-7.117 12.638 7.117 6.243-13.56 14.199-2.062-2.517-14.826 10.327-10.443-10.327-10.44 2.518-14.828-14.199-2.06z"/>
        <path fill="#FFF" d="M43.227 40.518l-.431.111v1.496l.43.112c5.455 1.413 9.452 7.852 9.645 15.432H29.193c.192-7.58 4.189-14.02 9.643-15.432l.431-.112V40.63l-.43-.111c-5.455-1.412-9.452-7.852-9.644-15.432H52.87c-.193 7.58-4.19 14.02-9.644 15.432zm11.526 21.857H27.31V58.82h27.443v3.556zM27.31 20.38h27.443v3.556H27.31V20.38zm26.71 4.707h1.884v-5.857H26.16v5.857h1.884c.188 7.714 4.15 14.349 9.67 16.292-5.52 1.942-9.482 8.577-9.67 16.29H26.16v5.858h29.744V57.67h-1.885c-.188-7.714-4.15-14.35-9.67-16.291 5.52-1.943 9.482-8.578 9.67-16.292z"/>
        <path fill="#FFF" d="M32.908 30.085c1.297 4.141 3.875 7.135 6.558 7.544.978.15 2.288.15 3.117.003 1.965-.35 3.85-1.97 5.26-4.493-3.607-.137-5.625-.858-7.58-1.558-1.98-.708-3.856-1.38-7.355-1.496m8.204 8.807c-.675 0-1.331-.05-1.82-.126-3.336-.508-6.363-4.09-7.71-9.123l-.196-.732.756.007c4.202.039 6.39.822 8.508 1.58 2.122.759 4.125 1.475 8.134 1.512l.908.008-.395.818c-1.604 3.316-3.978 5.477-6.512 5.928-.51.092-1.099.128-1.673.128M32.42 54.792h17.225c-.59-1.89-2.388-3.004-4.279-4.176-1.653-1.026-3.347-2.076-4.2-3.694-.881 1.62-2.628 2.67-4.335 3.694-1.954 1.174-3.81 2.288-4.411 4.176zm18.612 1.15H31.031l.098-.659c.423-2.838 2.806-4.269 5.11-5.653 2.242-1.347 4.36-2.618 4.36-5.074h1.15c0 2.463 2.052 3.735 4.224 5.082 2.232 1.384 4.54 2.814 4.961 5.645l.098.66z"/>
    </g>
</svg>
