<svg xmlns="http://www.w3.org/2000/svg" viewBox="0 0 201 201"><defs><style>.cls-1{fill:#f0b0cf;}.cls-1,.cls-2,.cls-3,.cls-4{stroke:#010101;stroke-miterlimit:10;stroke-width:4px;}.cls-2{fill:#a3d4a0;}.cls-3{fill:#f15822;}.cls-4{fill:#dca927;}</style></defs><title>portland_icon</title><g id="Layer_1" data-name="Layer 1"><path class="cls-1" d="M108.14,101.55v-2.1c20-5.17,35.05-29,35.05-57.59H56.82c0,28.61,15.09,52.42,35.05,57.59v2.1c-20,5.17-35.05,29-35.05,57.59h86.37C143.19,130.53,128.1,106.72,108.14,101.55Z"/><rect class="cls-2" x="50.3" y="25.5" width="99.4" height="16.36"/><rect class="cls-3" x="50.3" y="159.14" width="99.4" height="16.36"/><path class="cls-4" d="M69.08,59.19c28.54.26,29.31,10.48,57.86,10.74-5,10.27-12.53,18-21.19,19.52a40.21,40.21,0,0,1-11.49,0C82.72,87.69,73.21,74.6,69.08,59.19Z"/><path class="cls-4" d="M67.56,149.14c2.74-18.4,32.94-18.8,32.94-37.59,0,18.79,29.21,19.19,31.95,37.59Z"/></g></svg>