<svg xmlns="http://www.w3.org/2000/svg" viewBox="0 0 275 275"><defs><style>.cls-1{fill:#e0e1e0;}.cls-11,.cls-2{fill:#dca927;}.cls-2,.cls-3,.cls-4,.cls-5,.cls-7,.cls-8{stroke:#010101;}.cls-10,.cls-2,.cls-3,.cls-4,.cls-5,.cls-7{stroke-miterlimit:10;}.cls-2,.cls-3,.cls-4,.cls-5{stroke-width:4px;}.cls-3,.cls-9{fill:#f0b0cf;}.cls-4,.cls-6{fill:#a3d4a0;}.cls-12,.cls-5{fill:#f15822;}.cls-10,.cls-7,.cls-8{fill:none;stroke-width:1.62px;}.cls-8{stroke-linejoin:round;}.cls-10{stroke:#231f20;}</style></defs><title>portland_icon</title><g id="Layer_1" data-name="Layer 1"><circle class="cls-1" cx="136.37" cy="136.93" r="125"/><path class="cls-2" d="M106.07,147.93,147.14,189a9.36,9.36,0,0,1-13.23,13.23L92.84,161.16l-6.61-6.62a37.41,37.41,0,0,1,0-52.92s31.38-22.91,53.7-.59l21.69,23.06"/><path class="cls-3" d="M186.52,155.22a37.42,37.42,0,0,0-52.93-52.92"/><rect class="cls-4" x="152.4" y="84.96" width="74.84" height="28.07" transform="translate(125.6 -105.23) rotate(45)"/><circle class="cls-5" cx="208.02" cy="114.85" r="4.68"/><path class="cls-2" d="M119.28,134.67l45.24,45.25a9.36,9.36,0,0,1-13.23,13.23L106.05,147.9"/><path class="cls-2" d="M136.54,125.47l45.26,45.26A9.36,9.36,0,0,1,168.57,184L123.31,138.7"/><path class="cls-2" d="M149.51,112l40.23,40.23a9.36,9.36,0,0,1-13.23,13.23l-40-40"/><rect class="cls-5" x="45.5" y="84.28" width="74.84" height="28.07" transform="translate(-45.23 87.43) rotate(-45)"/><circle class="cls-4" cx="66.38" cy="114.85" r="4.68"/><path class="cls-3" d="M79.63,156.27A9.36,9.36,0,0,0,92.86,169.5l6.62-6.62a9.36,9.36,0,1,0-13.23-13.23Z"/><path class="cls-3" d="M133.59,102.3l-32.94,33c6.61,6.61,19.84,6.61,26.46,0l23.9-23.9"/><path class="cls-3" d="M101.56,187.26A9.36,9.36,0,0,1,88.32,174l11.16-11.15a9.36,9.36,0,0,1,13.23,13.23Z"/><path class="cls-3" d="M114.79,200.49a9.36,9.36,0,0,1-13.23-13.23l11.15-11.15a9.36,9.36,0,0,1,13.23,13.23Z"/><path class="cls-3" d="M132.55,209.19A9.36,9.36,0,0,1,119.32,196l6.62-6.62a9.36,9.36,0,1,1,13.23,13.23Z"/><circle class="cls-6" cx="40.37" cy="194.98" r="21.13"/><line class="cls-7" x1="40.37" y1="183.53" x2="40.37" y2="236.05"/><path class="cls-8" d="M50.54,192.4V197a10.17,10.17,0,1,1-20.34,0V192.4"/><path class="cls-8" d="M43.53,185.44a3.16,3.16,0,0,1-6.31,0"/><path class="cls-8" d="M35.36,193.78a5.16,5.16,0,0,1-10.32,0"/><path class="cls-8" d="M55.7,193.78a5.16,5.16,0,0,1-10.32,0"/><path class="cls-9" d="M43.73,58.54c0,3.13-4.86,6.13-5,9.08C38.63,70.8,43.24,74,43,76.9c-.27,3.26-5.39,6-5.79,8.8-.5,3.46,3.65,7,3,9.57-1.33,5.08-5.3,6-7.05,6s-5.73-.87-7.06-6c-.66-2.52,3.49-6.1,3-9.56-.41-2.78-5.53-5.54-5.8-8.8-.24-2.89,4.37-6.1,4.25-9.28-.11-3-5-6-5-9.08s4.86-6.14,5-9.08c.12-3.18-4.49-6.4-4.25-9.29.27-3.26,5.39-6,5.8-8.8.49-3.46-3.66-7-3-9.56,1.33-5.09,5.31-5.95,7.06-5.95s5.72.86,7.05,5.95c.66,2.53-3.49,6.1-3,9.56.4,2.79,5.52,5.54,5.79,8.8.24,2.89-4.37,6.11-4.25,9.28C38.87,52.4,43.73,55.41,43.73,58.54Z"/><line class="cls-8" x1="33.15" y1="120.42" x2="33.15" y2="34.53"/><polyline class="cls-8" points="37.22 92.99 33.15 97.06 29.08 92.99"/><polyline class="cls-8" points="37.22 79.91 33.15 83.98 29.08 79.91"/><polyline class="cls-8" points="37.22 53.77 33.15 57.84 29.08 53.77"/><polyline class="cls-8" points="37.22 66.84 33.15 70.91 29.08 66.84"/><polyline class="cls-8" points="37.22 40.69 33.15 44.76 29.08 40.69"/><path class="cls-6" d="M231.42,41.66c0,4.76-6.86,9.07-8.53,12.83-3.07,6.88-5.57,12.58-11.76,12.58s-8.69-5.7-11.75-12.58c-1.67-3.76-8.53-8.07-8.53-12.83s6.86-9.07,8.53-12.83c3.06-6.89,5.57-12.58,11.75-12.58s8.69,5.69,11.76,12.58C224.56,32.59,231.42,36.89,231.42,41.66Z"/><line class="cls-8" x1="211.13" y1="23.4" x2="211.13" y2="79.61"/><path class="cls-10" d="M217.84,30.1a6.7,6.7,0,0,1-6.71-6.7v-.31a6.7,6.7,0,0,1-6.7,6.7"/><path class="cls-10" d="M217.84,39.2a6.7,6.7,0,0,1-6.71-6.7v-.31a6.7,6.7,0,0,1-6.7,6.71"/><path class="cls-10" d="M217.84,48.31a6.7,6.7,0,0,1-6.71-6.7V41.3a6.7,6.7,0,0,1-6.7,6.7"/><path class="cls-10" d="M217.84,57.42a6.71,6.71,0,0,1-6.71-6.71v-.3a6.7,6.7,0,0,1-6.7,6.7"/><line class="cls-8" x1="190.92" y1="201.84" x2="190.92" y2="261.26"/><path class="cls-11" d="M190.93,206a2.92,2.92,0,0,1-2.92-2.92v-5.46a2.92,2.92,0,1,1,5.83,0v5.46A2.91,2.91,0,0,1,190.93,206Z"/><path class="cls-11" d="M199.13,209a12.61,12.61,0,0,1-5.35-1,16.89,16.89,0,0,1-2.1-1.21c-.22-.15-.53-.34-.76-.48-.24.14-.55.33-.77.48a16.89,16.89,0,0,1-2.1,1.21,12.58,12.58,0,0,1-5.35,1,2.65,2.65,0,1,1,0-5.3,7.83,7.83,0,0,0,3.15-.51,12.46,12.46,0,0,0,1.42-.84,5.31,5.31,0,0,1,7.29,0,12.46,12.46,0,0,0,1.42.84,7.83,7.83,0,0,0,3.15.51,2.65,2.65,0,0,1,0,5.3Z"/><path class="cls-11" d="M201.22,217.79a15.4,15.4,0,0,1-6.44-1.18,22.11,22.11,0,0,1-2.54-1.47c-.4-.26-1-.64-1.32-.81-.35.17-.93.55-1.33.81a22.11,22.11,0,0,1-2.54,1.47,15.38,15.38,0,0,1-6.44,1.18,2.65,2.65,0,1,1,0-5.3,10.37,10.37,0,0,0,4.23-.7,15.63,15.63,0,0,0,1.87-1.1,6,6,0,0,1,8.42,0,14.79,14.79,0,0,0,1.86,1.1,10.37,10.37,0,0,0,4.23.7,2.65,2.65,0,1,1,0,5.3Z"/><path class="cls-11" d="M203.31,226.58a18,18,0,0,1-7.52-1.37,24.38,24.38,0,0,1-3-1.73,14.14,14.14,0,0,0-1.89-1.1,13.57,13.57,0,0,0-1.9,1.1,24.38,24.38,0,0,1-3,1.73,17.92,17.92,0,0,1-7.52,1.37,2.65,2.65,0,1,1,0-5.3,12.93,12.93,0,0,0,5.31-.89,18,18,0,0,0,2.31-1.36c1.57-1,3.06-2,4.78-2s3.2,1,4.77,2a18.76,18.76,0,0,0,2.31,1.36,12.93,12.93,0,0,0,5.31.89,2.65,2.65,0,0,1,0,5.3Z"/><path class="cls-11" d="M205.4,235.37a20.52,20.52,0,0,1-8.6-1.56,27.65,27.65,0,0,1-3.43-2,13,13,0,0,0-2.45-1.38,12.72,12.72,0,0,0-2.46,1.38,27.65,27.65,0,0,1-3.43,2,20.49,20.49,0,0,1-8.6,1.56,2.65,2.65,0,0,1,0-5.3,15.5,15.5,0,0,0,6.39-1.08,23.3,23.3,0,0,0,2.76-1.62c1.78-1.15,3.46-2.24,5.34-2.24s3.55,1.09,5.33,2.24A23.3,23.3,0,0,0,199,229a15.5,15.5,0,0,0,6.39,1.08,2.65,2.65,0,0,1,0,5.3Z"/><path class="cls-11" d="M207.49,244.16a23.09,23.09,0,0,1-9.68-1.75,31.66,31.66,0,0,1-3.88-2.25,12.31,12.31,0,0,0-3-1.65,12.47,12.47,0,0,0-3,1.65,30.92,30.92,0,0,1-3.88,2.25,23.06,23.06,0,0,1-9.68,1.75,2.65,2.65,0,1,1,0-5.3,18,18,0,0,0,7.47-1.27,25.28,25.28,0,0,0,3.21-1.88c2-1.28,3.86-2.5,5.9-2.5s3.91,1.22,5.89,2.5a25.28,25.28,0,0,0,3.21,1.88,18,18,0,0,0,7.47,1.27,2.65,2.65,0,1,1,0,5.3Z"/><path class="cls-11" d="M209.58,253A25.64,25.64,0,0,1,198.82,251a34.21,34.21,0,0,1-4.33-2.51c-1.17-.76-3-1.91-3.57-1.91s-2.41,1.15-3.58,1.91A34.21,34.21,0,0,1,183,251,25.61,25.61,0,0,1,172.25,253a2.65,2.65,0,0,1,0-5.3,20.62,20.62,0,0,0,8.55-1.46,30,30,0,0,0,3.66-2.14c2.19-1.42,4.26-2.76,6.46-2.76s4.26,1.34,6.45,2.76a30,30,0,0,0,3.66,2.14,20.62,20.62,0,0,0,8.55,1.46,2.65,2.65,0,0,1,0,5.3Z"/><line class="cls-8" x1="235.63" y1="134.75" x2="235.63" y2="215.1"/><path class="cls-12" d="M237.81,141a5.38,5.38,0,0,1-2.18-.5,5.47,5.47,0,0,1-2.18.5,7.2,7.2,0,0,1-7.2-7.19,2.84,2.84,0,0,1,5.67,0,1.53,1.53,0,0,0,1.38,1.52l.19-.08a5.38,5.38,0,0,1,2.14-.5,5.32,5.32,0,0,1,2.13.5l.19.08a1.52,1.52,0,0,0,1.38-1.52,2.84,2.84,0,0,1,5.67,0A7.2,7.2,0,0,1,237.81,141Z"/><path class="cls-12" d="M238.75,151.49a6.86,6.86,0,0,1-2.7-.64l-.42-.17-.42.17a6.87,6.87,0,0,1-2.71.64,9,9,0,0,1-8.86-7.7,2.83,2.83,0,1,1,5.61-.76,3.27,3.27,0,0,0,3.22,2.79,4.81,4.81,0,0,0,.57-.21,6.56,6.56,0,0,1,2.59-.62,6.65,6.65,0,0,1,2.59.62,3.79,3.79,0,0,0,.57.21A3.25,3.25,0,0,0,242,143a2.84,2.84,0,1,1,5.62.76A9,9,0,0,1,238.75,151.49Z"/><path class="cls-12" d="M239.69,162a8.05,8.05,0,0,1-3.18-.78,5.33,5.33,0,0,0-.89-.31,5.57,5.57,0,0,0-.87.31,8.06,8.06,0,0,1-3.19.78A10.84,10.84,0,0,1,221,153.63a2.83,2.83,0,0,1,5.52-1.26,5.14,5.14,0,0,0,5,3.94,4.43,4.43,0,0,0,1-.34,7.8,7.8,0,0,1,3-.75,7.7,7.7,0,0,1,3,.75,4.43,4.43,0,0,0,1,.34,5.13,5.13,0,0,0,5-3.94,2.84,2.84,0,0,1,5.53,1.26A10.85,10.85,0,0,1,239.69,162Z"/><path class="cls-12" d="M240.64,172.47a9.2,9.2,0,0,1-3.68-.91,5.46,5.46,0,0,0-1.33-.44,5.2,5.2,0,0,0-1.33.44,9.25,9.25,0,0,1-3.68.91,12.75,12.75,0,0,1-12.18-9.07,2.84,2.84,0,0,1,5.44-1.6,7,7,0,0,0,6.74,5,5.12,5.12,0,0,0,1.51-.47,7.48,7.48,0,0,1,7,0,5,5,0,0,0,1.51.47,7.05,7.05,0,0,0,6.74-5,2.84,2.84,0,1,1,5.44,1.6A12.76,12.76,0,0,1,240.64,172.47Z"/><path class="cls-12" d="M241.58,183a10.59,10.59,0,0,1-4.16-1,3.14,3.14,0,0,0-3.58,0,10.63,10.63,0,0,1-4.16,1,14.65,14.65,0,0,1-13.84-9.83,2.83,2.83,0,0,1,5.35-1.85,9,9,0,0,0,8.49,6,5.86,5.86,0,0,0,2-.61,8.4,8.4,0,0,1,7.91,0,6,6,0,0,0,2,.61,9,9,0,0,0,8.48-6,2.84,2.84,0,0,1,5.36,1.85A14.65,14.65,0,0,1,241.58,183Z"/><path class="cls-12" d="M242.52,193.44a11.89,11.89,0,0,1-4.65-1.16,4,4,0,0,0-4.48,0,12,12,0,0,1-4.66,1.16,16.73,16.73,0,0,1-15.5-10.62,2.83,2.83,0,1,1,5.28-2,11,11,0,0,0,10.22,7,7.07,7.07,0,0,0,2.49-.74,9.32,9.32,0,0,1,8.82,0,7.08,7.08,0,0,0,2.48.74,11,11,0,0,0,10.22-7,2.84,2.84,0,0,1,5.29,2A16.74,16.74,0,0,1,242.52,193.44Z"/><path class="cls-12" d="M235.63,140.77a2.23,2.23,0,0,1-2.23-2.23V127.1a2.23,2.23,0,0,1,4.46,0v11.44A2.23,2.23,0,0,1,235.63,140.77Z"/><path class="cls-9" d="M102.55,235.6a7.62,7.62,0,1,0-15.23,0Z"/><path class="cls-11" d="M147.71,52.52c1.26-.45,4.3-1.59,4.3-2.85s-3.84-1.76-4.3-2.86,1.88-4.2,1-5.05-3.92,1.49-5,1-1.6-4.29-2.86-4.29-1.75,3.84-2.85,4.29-4.2-1.87-5.06-1,1.49,3.92,1,5.06-4.3,1.59-4.3,2.86,3,2.4,4.3,2.85Z"/></g></svg>