<svg xmlns="http://www.w3.org/2000/svg" viewBox="0 0 150 150"><defs><style>.cls-1{fill-rule:evenodd;}.cls-2{fill:#dca927;}.cls-2,.cls-3,.cls-4,.cls-5{stroke:#010101;stroke-miterlimit:10;stroke-width:1.6px;}.cls-3{fill:#f0b0cf;}.cls-4{fill:#a3d4a0;}.cls-5{fill:#f15822;}</style></defs><title>portland_icon</title><g id="Layer_1" data-name="Layer 1"><polygon class="cls-1" points="90.68 9.94 71.36 20.29 52.05 9.94 42.5 29.66 20.8 32.65 24.65 54.21 8.87 69.39 24.65 84.58 20.8 106.14 42.5 109.13 52.05 128.85 71.36 118.5 90.68 128.85 100.22 109.13 121.93 106.14 118.08 84.58 133.87 69.39 118.08 54.21 121.93 32.65 100.23 29.66 90.68 9.94"/><path class="cls-2" d="M59.25,73.8,75.67,90.22a3.74,3.74,0,1,1-5.29,5.3L54,79.09l-2.64-2.65a15,15,0,0,1,0-21.17S63.86,46.11,72.79,55l8.67,9.22"/><path class="cls-3" d="M91.42,76.72A15,15,0,1,0,70.25,55.55"/><rect class="cls-4" x="77.78" y="48.61" width="29.94" height="11.23" transform="translate(65.51 -49.7) rotate(45)"/><circle class="cls-5" cx="100.02" cy="60.57" r="1.87"/><path class="cls-2" d="M64.53,68.49l18.1,18.1a3.74,3.74,0,0,1-5.3,5.29L59.24,73.79"/><path class="cls-2" d="M71.43,64.81,89.54,82.92a3.74,3.74,0,0,1-5.3,5.29l-18.1-18.1"/><path class="cls-2" d="M76.62,59.42,92.71,75.51a3.74,3.74,0,0,1-5.29,5.29l-16-16"/><rect class="cls-5" x="35.02" y="48.34" width="29.94" height="11.23" transform="translate(-23.51 51.15) rotate(-45)"/><circle class="cls-4" cx="43.37" cy="60.57" r="1.87"/><path class="cls-3" d="M48.67,77.13A3.74,3.74,0,1,0,54,82.42l2.65-2.64a3.74,3.74,0,1,0-5.3-5.29Z"/><path class="cls-3" d="M70.25,55.55,57.08,68.73a8.06,8.06,0,0,0,10.58,0l9.56-9.57"/><path class="cls-3" d="M57.44,89.53a3.74,3.74,0,0,1-5.29-5.29l4.46-4.46a3.74,3.74,0,0,1,5.29,5.29Z"/><path class="cls-3" d="M62.73,94.82a3.74,3.74,0,1,1-5.29-5.29l4.46-4.46a3.74,3.74,0,0,1,5.29,5.29Z"/><path class="cls-3" d="M69.84,98.3A3.74,3.74,0,1,1,64.54,93l2.65-2.65a3.74,3.74,0,1,1,5.29,5.29Z"/></g></svg>