<svg xmlns="http://www.w3.org/2000/svg" viewBox="0 0 150 150"><defs><style>.cls-1,.cls-2{fill:#dca927;}.cls-1{fill-rule:evenodd;}.cls-2,.cls-3,.cls-4,.cls-5{stroke:#010101;stroke-miterlimit:10;stroke-width:1.6px;}.cls-3{fill:#f0b0cf;}.cls-4{fill:#a3d4a0;}.cls-5{fill:#f15822;}</style></defs><title>portland_icon</title><g id="Layer_1" data-name="Layer 1"><polygon class="cls-1" points="93.55 15 75 25.44 56.46 15 47.29 34.9 26.46 37.92 30.15 59.68 15 75 30.15 90.32 26.46 112.08 47.29 115.1 56.45 135 75 124.56 93.54 135 102.7 115.1 123.54 112.08 119.85 90.32 135 75 119.85 59.68 123.54 37.92 102.71 34.9 93.55 15"/><path class="cls-2" d="M62.88,79.4,79.31,95.83A3.74,3.74,0,0,1,74,101.12L57.59,84.69l-2.65-2.64a15,15,0,0,1,0-21.17s12.56-9.17,21.48-.24l8.68,9.23"/><path class="cls-3" d="M95.06,82.32A15,15,0,0,0,73.89,61.15"/><rect class="cls-4" x="81.41" y="54.21" width="29.94" height="11.23" transform="translate(70.53 -50.63) rotate(45)"/><circle class="cls-5" cx="103.66" cy="66.17" r="1.87"/><path class="cls-2" d="M68.16,74.1l18.1,18.1A3.74,3.74,0,1,1,81,97.49l-18.1-18.1"/><path class="cls-2" d="M75.07,70.42l18.1,18.1a3.74,3.74,0,0,1-5.29,5.29L69.77,75.71"/><path class="cls-2" d="M80.25,65l16.1,16.09a3.74,3.74,0,0,1-5.3,5.29l-16-16"/><rect class="cls-5" x="38.65" y="53.94" width="29.94" height="11.23" transform="translate(-26.41 55.36) rotate(-45)"/><circle class="cls-4" cx="47" cy="66.17" r="1.87"/><path class="cls-3" d="M52.3,82.74A3.74,3.74,0,0,0,57.6,88l2.64-2.65A3.74,3.74,0,0,0,55,80.09Z"/><path class="cls-3" d="M73.89,61.15,60.71,74.33a8.06,8.06,0,0,0,10.58,0l9.57-9.56"/><path class="cls-3" d="M61.07,95.13a3.74,3.74,0,1,1-5.29-5.29l4.46-4.46a3.74,3.74,0,0,1,5.29,5.29Z"/><path class="cls-3" d="M66.37,100.43a3.75,3.75,0,1,1-5.3-5.3l4.46-4.46a3.75,3.75,0,1,1,5.3,5.3Z"/><path class="cls-3" d="M73.47,103.9a3.74,3.74,0,0,1-5.29-5.29L70.83,96a3.74,3.74,0,0,1,5.29,5.29Z"/></g></svg>