<svg xmlns="http://www.w3.org/2000/svg" viewBox="0 0 150 150"><defs><style>.cls-1{stroke:#fff;stroke-miterlimit:10;stroke-width:2.67px;}</style></defs><title>portland_icon</title><g id="Layer_1" data-name="Layer 1"><path class="cls-1" d="M51.17,76.73l27.38,27.38a6.24,6.24,0,1,1-8.82,8.82L42.34,85.55l-4.41-4.41a25,25,0,0,1,0-35.28s20.93-15.28,35.81-.4L88.2,60.84"/><path class="cls-1" d="M104.79,81.59A24.95,24.95,0,0,0,69.51,46.31"/><rect class="cls-1" x="82.05" y="34.75" width="49.9" height="18.71" transform="translate(62.53 -62.74) rotate(45)"/><circle class="cls-1" cx="119.13" cy="54.68" r="3.12"/><path class="cls-1" d="M60,67.89,90.13,98.06a6.24,6.24,0,0,1-8.82,8.82L51.15,76.71"/><path class="cls-1" d="M71.47,61.76l30.18,30.17a6.24,6.24,0,1,1-8.82,8.82L62.65,70.58"/><path class="cls-1" d="M80.12,52.76l26.82,26.82a6.24,6.24,0,1,1-8.82,8.82L71.47,61.76"/><rect class="cls-1" x="10.78" y="34.3" width="49.9" height="18.71" transform="translate(-20.4 38.05) rotate(-45)"/><circle class="cls-1" cx="24.7" cy="54.68" r="3.12"/><path class="cls-1" d="M33.54,82.29a6.24,6.24,0,0,0,8.82,8.82l4.41-4.41A6.24,6.24,0,1,0,38,77.88Z"/><path class="cls-1" d="M69.51,46.31l-22,22c4.41,4.41,13.23,4.41,17.64,0L81.12,52.34"/><path class="cls-1" d="M48.15,103a6.24,6.24,0,0,1-8.82-8.82l7.44-7.43a6.24,6.24,0,1,1,8.82,8.82Z"/><path class="cls-1" d="M57,111.77A6.24,6.24,0,0,1,48.15,103l7.44-7.43a6.24,6.24,0,0,1,8.82,8.82Z"/><path class="cls-1" d="M68.82,117.57A6.24,6.24,0,0,1,60,108.75l4.41-4.41a6.24,6.24,0,0,1,8.82,8.82Z"/></g></svg>