<svg xmlns="http://www.w3.org/2000/svg" viewBox="0 0 201 201"><defs><style>.cls-1{fill:#dca927;}.cls-1,.cls-2,.cls-3,.cls-4{stroke:#010101;stroke-miterlimit:10;stroke-width:4px;}.cls-2{fill:#f0b0cf;}.cls-3{fill:#a3d4a0;}.cls-4{fill:#f15822;}</style></defs><title>portland_icon</title><g id="Layer_1" data-name="Layer 1"><path class="cls-1" d="M70.26,115.75l41.08,41.08a9.36,9.36,0,0,1-13.23,13.23L57,129l-6.61-6.62a37.43,37.43,0,0,1,0-52.92s31.38-22.91,53.7-.59l21.69,23.06"/><path class="cls-2" d="M150.71,123.05A37.42,37.42,0,0,0,97.79,70.13"/><rect class="cls-3" x="116.6" y="52.79" width="74.84" height="28.07" transform="translate(92.36 -89.33) rotate(45)"/><circle class="cls-4" cx="172.21" cy="82.68" r="4.68"/><path class="cls-1" d="M83.47,102.5l45.25,45.25A9.36,9.36,0,1,1,115.49,161L70.24,115.73"/><path class="cls-1" d="M100.73,93.3,146,138.56a9.36,9.36,0,1,1-13.23,13.23L87.5,106.53"/><path class="cls-1" d="M113.7,79.8,153.93,120a9.36,9.36,0,0,1-13.23,13.23l-40-40"/><rect class="cls-4" x="9.69" y="52.11" width="74.84" height="28.07" transform="translate(-32.97 52.68) rotate(-45)"/><circle class="cls-3" cx="30.57" cy="82.68" r="4.68"/><path class="cls-2" d="M43.82,124.09a9.36,9.36,0,0,0,13.23,13.23l6.62-6.61a9.36,9.36,0,1,0-13.23-13.23Z"/><path class="cls-2" d="M97.79,70.13l-32.95,33c6.62,6.61,19.85,6.61,26.46,0l23.9-23.91"/><path class="cls-2" d="M65.75,155.09a9.36,9.36,0,1,1-13.23-13.23l11.15-11.15A9.36,9.36,0,1,1,76.9,143.94Z"/><path class="cls-2" d="M79,168.32a9.36,9.36,0,0,1-13.23-13.23L76.9,143.94a9.36,9.36,0,0,1,13.23,13.23Z"/><path class="cls-2" d="M96.74,177a9.36,9.36,0,0,1-13.23-13.23l6.62-6.62a9.36,9.36,0,1,1,13.23,13.23Z"/></g></svg>