<svg xmlns="http://www.w3.org/2000/svg" width="88" height="74" viewBox="0 0 88 74">
    <g fill="#000" fill-rule="evenodd">
        <path d="M77.86 25.76c-.325 0-.649.123-.897.369a1.27 1.27 0 0 0 0 1.793 1.27 1.27 0 0 0 1.793 0 1.27 1.27 0 0 0 0-1.793 1.268 1.268 0 0 0-.896-.37m0 4.424c-.81 0-1.618-.308-2.234-.924a3.16 3.16 0 1 1 4.467 0 3.146 3.146 0 0 1-2.233.924M10.846 25.76c-.325 0-.65.123-.897.369a1.27 1.27 0 0 0 0 1.793 1.27 1.27 0 0 0 1.793 0c.24-.24.371-.558.371-.897a1.26 1.26 0 0 0-.371-.895v-.001a1.268 1.268 0 0 0-.896-.37m0 4.424c-.81 0-1.619-.308-2.234-.924a3.16 3.16 0 0 1 0-4.467 3.161 3.161 0 0 1 5.393 2.233c0 .845-.328 1.638-.926 2.235a3.152 3.152 0 0 1-2.233.923"/>
        <path d="M71.926 33.607c0 3.448-1.048 6.728-2.97 9.503l-18.57-18.572-.163.163-.004-.003-11.31 11.31c-1.316 1.315-3.353 2.07-5.59 2.07-1.861 0-3.584-.523-4.869-1.455l15.087-15.078a16.644 16.644 0 0 1 11.63-4.697c.237 0 .47.013.706.025l16.03 16.029c.01.234.023.468.023.705zm-3.385 16.684a3.487 3.487 0 0 1-4.922 0L45.46 32.133l4.923-4.923L68.541 45.37a3.485 3.485 0 0 1 0 4.922zm-3.754 8.766a3.458 3.458 0 0 1-2.46 1.02 3.46 3.46 0 0 1-2.462-1.02l-1.914-1.915-18.86-18.859a7.957 7.957 0 0 0 1.156-.938l3.875-3.875 18.16 18.16 2.505 2.505a3.46 3.46 0 0 1 1.02 2.461c0 .93-.362 1.804-1.02 2.46zM56.613 63.4a3.485 3.485 0 0 1-4.923 0L30.283 41.996l-1.337 1.338.01.011L48.39 62.777a3.455 3.455 0 0 1 1.019 2.46 3.46 3.46 0 0 1-3 3.439 5.329 5.329 0 0 0 1.12-3.276c0-1.435-.56-2.785-1.576-3.799a5.365 5.365 0 0 0-4.777-1.48 5.333 5.333 0 0 0-1.483-4.78 5.367 5.367 0 0 0-4.776-1.48 5.334 5.334 0 0 0-1.483-4.78 5.369 5.369 0 0 0-4.78-1.48 5.368 5.368 0 0 0-1.48-4.78 5.376 5.376 0 0 0-7.598 0l-.346.347a16.732 16.732 0 0 1-3.188-10.61L31.498 17.1c3.67-.61 7.785-.276 11.496 2.381-.347.3-.687.61-1.015.938L25.72 36.676l.669.67c1.748 1.748 4.338 2.623 6.929 2.623 1.385 0 2.766-.259 4.023-.76l19.27 19.27a3.485 3.485 0 0 1 0 4.922zm-15.128 7.59a3.487 3.487 0 0 1-4.922 0 3.486 3.486 0 0 1-.004-4.919l3.134-3.132a3.471 3.471 0 0 1 2.461-1.018c.891 0 1.783.34 2.461 1.018a3.46 3.46 0 0 1 1.02 2.46c0 .93-.363 1.804-1.02 2.462l-3.13 3.13zm-13.328-4.113a3.46 3.46 0 0 1-1.019-2.461c0-.93.362-1.804 1.02-2.462l5.275-5.275a3.471 3.471 0 0 1 2.46-1.018c.892 0 1.783.34 2.462 1.018a3.457 3.457 0 0 1 1.02 2.46c0 .93-.363 1.804-1.02 2.461l-2.639 2.639-.49.491-.002.001-2.144 2.146a3.488 3.488 0 0 1-4.923 0zm-6.26-6.26a3.486 3.486 0 0 1 0-4.923l2.146-2.145 3.13-3.13a3.472 3.472 0 0 1 2.461-1.018c.891 0 1.783.34 2.461 1.018a3.458 3.458 0 0 1 1.02 2.46c0 .93-.363 1.804-1.02 2.462l-5.276 5.276a3.485 3.485 0 0 1-4.922 0zM17.783 47.29l3.13-3.13a3.472 3.472 0 0 1 2.461-1.017c.892 0 1.783.34 2.462 1.017a3.486 3.486 0 0 1 0 4.923l-3.13 3.13a3.487 3.487 0 0 1-4.923 0 3.486 3.486 0 0 1 0-4.923zM2.794 27.026L26.496 3.323l8.051 8.052-23.701 23.702-8.052-8.051zm58.633-23.38l23.701 23.702-8.051 8.05-23.702-23.7 8.052-8.052zm15.65 34.43l10.728-10.728L61.427.97 50.699 11.698l3.297 3.297a18.466 18.466 0 0 0-9.446 3.278c-3.511-2.703-7.345-3.48-10.93-3.294l3.604-3.604L26.496.647.117 27.026l10.729 10.728 3.315-3.316a18.577 18.577 0 0 0 3.726 10.071l-1.442 1.443a5.377 5.377 0 0 0 0 7.598 5.34 5.34 0 0 0 3.496 1.556 5.377 5.377 0 0 0 .619 6.85 5.351 5.351 0 0 0 4.777 1.48 5.338 5.338 0 0 0 1.483 4.78 5.355 5.355 0 0 0 3.798 1.571 5.36 5.36 0 0 0 3.05-.952 5.347 5.347 0 0 0 5.356 5.065 5.355 5.355 0 0 0 3.799-1.57l1.868-1.87a5.334 5.334 0 0 0 5.035-1.424 5.332 5.332 0 0 0 1.563-3.553c.871.55 1.865.828 2.863.828a5.357 5.357 0 0 0 5.359-5.146 5.371 5.371 0 0 0 6.614-.77 5.377 5.377 0 0 0 .346-7.214 5.343 5.343 0 0 0 3.408-1.552 5.335 5.335 0 0 0 1.574-3.799c0-1.226-.411-2.386-1.163-3.331a18.458 18.458 0 0 0 3.48-9.73l3.307 3.307z"/>
    </g>
</svg>
