<svg xmlns="http://www.w3.org/2000/svg" width="36" height="31" viewBox="0 0 36 31">
    <g fill="none" fill-rule="evenodd">
        <path fill="#EFEFEF" d="M12.856 17.909l7.844 7.844a1.787 1.787 0 0 1-2.527 2.526l-7.844-7.843-1.263-1.264a7.147 7.147 0 0 1 0-10.107s5.993-4.375 10.255-.113"/>
        <path stroke="#000" d="M12.856 17.909l7.844 7.844a1.787 1.787 0 0 1-2.527 2.526l-7.844-7.843-1.263-1.264a7.147 7.147 0 0 1 0-10.107s5.993-4.375 10.255-.113"/>
        <path fill="#EFEFEF" d="M28.219 19.303A7.147 7.147 0 0 0 18.112 9.196"/>
        <path stroke="#000" d="M28.219 19.303A7.147 7.147 0 0 0 18.112 9.196"/>
        <path fill="#EFEFEF" d="M35.8 11.723L25.691 1.615l-3.79 3.79L32.01 15.512z"/>
        <path stroke="#000" d="M35.8 11.723L25.691 1.615l-3.79 3.79L32.01 15.512z"/>
        <path fill="#EFEFEF" d="M32.957 12.224a.893.893 0 1 1-1.264-1.261.893.893 0 0 1 1.264 1.26"/>
        <path stroke="#000" d="M32.957 12.224a.893.893 0 1 1-1.264-1.261.893.893 0 0 1 1.264 1.26z"/>
        <path fill="#EFEFEF" d="M15.378 15.378l8.64 8.64a1.786 1.786 0 1 1-2.526 2.527l-8.64-8.64"/>
        <path stroke="#000" d="M15.378 15.378l8.64 8.64a1.786 1.786 0 1 1-2.526 2.527l-8.64-8.64"/>
        <path fill="#EFEFEF" d="M18.673 13.62l8.645 8.645a1.786 1.786 0 1 1-2.526 2.527l-8.645-8.645"/>
        <path stroke="#000" d="M18.673 13.62l8.645 8.645a1.786 1.786 0 1 1-2.526 2.527l-8.645-8.645"/>
        <path fill="#EFEFEF" d="M21.15 11.044l7.683 7.682a1.786 1.786 0 1 1-2.526 2.527l-6.986-6.985"/>
        <path stroke="#000" d="M21.15 11.044l7.683 7.682a1.786 1.786 0 1 1-2.526 2.527l-6.986-6.985"/>
        <path fill="#EFEFEF" d="M11.592 1.485L1.485 11.593l3.79 3.79L15.383 5.274z"/>
        <path stroke="#000" d="M11.592 1.485L1.485 11.593l3.79 3.79L15.383 5.274z"/>
        <path fill="#EFEFEF" d="M5.907 10.96a.894.894 0 1 1-1.265 1.264.894.894 0 0 1 1.265-1.263"/>
        <path stroke="#000" d="M5.907 10.96a.894.894 0 1 1-1.265 1.264.894.894 0 0 1 1.265-1.263z"/>
        <path fill="#EFEFEF" d="M7.806 19.502a1.786 1.786 0 1 0 2.527 2.527l1.263-1.263a1.787 1.787 0 0 0-2.527-2.528l-1.263 1.264z"/>
        <path stroke="#000" d="M7.806 19.502a1.786 1.786 0 1 0 2.527 2.527l1.263-1.263a1.787 1.787 0 0 0-2.527-2.528l-1.263 1.264z"/>
        <path fill="#EFEFEF" d="M18.112 9.196l-6.293 6.292c1.264 1.264 3.79 1.264 5.054 0l4.565-4.565"/>
        <path stroke="#000" d="M18.112 9.196l-6.293 6.292c1.264 1.264 3.79 1.264 5.054 0l4.565-4.565"/>
        <path fill="#EFEFEF" d="M11.993 25.422a1.786 1.786 0 1 1-2.527-2.528l2.13-2.128a1.786 1.786 0 1 1 2.527 2.526l-2.13 2.13z"/>
        <path stroke="#000" d="M11.993 25.422a1.786 1.786 0 1 1-2.527-2.528l2.13-2.128a1.786 1.786 0 1 1 2.527 2.526l-2.13 2.13z"/>
        <path fill="#EFEFEF" d="M14.52 27.948a1.786 1.786 0 1 1-2.527-2.526l2.13-2.13a1.787 1.787 0 0 1 2.527 2.526l-2.13 2.13z"/>
        <path stroke="#000" d="M14.52 27.948a1.786 1.786 0 1 1-2.527-2.526l2.13-2.13a1.787 1.787 0 0 1 2.527 2.526l-2.13 2.13z"/>
        <path fill="#EFEFEF" d="M17.913 29.609a1.786 1.786 0 1 1-2.527-2.527l1.263-1.263a1.786 1.786 0 1 1 2.527 2.526l-1.263 1.264z"/>
        <path stroke="#000" d="M17.913 29.609a1.786 1.786 0 1 1-2.527-2.527l1.263-1.263a1.786 1.786 0 1 1 2.527 2.526l-1.263 1.264z"/>
    </g>
</svg>
