<svg xmlns="http://www.w3.org/2000/svg" viewBox="0 0 150 150"><defs><style>.cls-1{fill:#efefef;}.cls-2{fill:#d8d8d8;}</style></defs><title>portland_icon</title><g id="Layer_1" data-name="Layer 1"><path class="cls-1" d="M71,126.1v-7.75l-1.05,0-1,0v7.75H56.76V115.3c-8.84-4.39-14.29-12.66-14.29-21.78V92.19H54.65v1.33a10.93,10.93,0,0,0,2.11,6.38V77.8C47.92,73.41,42.47,65.14,42.47,56s5.45-17.38,14.29-21.76V23.44H68.94V31.2l1,0,1.05,0V23.44H83.23V34.26C92.06,38.64,97.51,46.91,97.51,56v1.33H85.33V56a10.92,10.92,0,0,0-2.1-6.37V71.76c8.83,4.38,14.28,12.65,14.28,21.76s-5.45,17.39-14.28,21.78v10.8Zm-2.1-19.95,1,0,1.05,0V80.9l-1.05,0-1,0ZM83.23,99.9a10.73,10.73,0,0,0,0-12.75ZM68.94,68.65l1,0,1.05,0V43.4l-1.05,0-1,0Zm-12.18-19a10.69,10.69,0,0,0,0,12.75Z"/><path class="cls-2" d="M81.9,24.78V35.09C90.37,39,96.18,46.91,96.18,56H86.66a12.91,12.91,0,0,0-4.76-9.78V72.59c8.47,3.9,14.28,11.82,14.28,20.94s-5.81,17-14.28,20.93v10.32H72.37v-7.84c-.78.06-1.58.1-2.38.1s-1.6,0-2.38-.1v7.84H58.09V114.46c-8.48-3.9-14.29-11.82-14.29-20.93h9.52a12.88,12.88,0,0,0,4.77,9.77V77C49.61,73.06,43.8,65.14,43.8,56s5.81-17,14.29-20.94V24.78h9.52v7.83c.78-.06,1.58-.1,2.38-.1s1.6,0,2.38.1V24.78H81.9M72.37,70.11V42.2a17.78,17.78,0,0,0-4.76,0V69.85A18.65,18.65,0,0,0,70,70c.8,0,1.6,0,2.38.1M58.09,65.8V46.25a12.4,12.4,0,0,0,0,19.55M70,107.51a18.65,18.65,0,0,0,2.38-.16V79.7A18.65,18.65,0,0,0,70,79.54c-.8,0-1.6,0-2.38-.1v27.91a18.65,18.65,0,0,0,2.38.16M81.9,103.3a12.42,12.42,0,0,0,0-19.55V103.3m2.66-81.18H55.43V33.44C46.57,38.14,41.14,46.65,41.14,56s5.43,17.88,14.29,22.58V90.87H41.14v2.66c0,9.37,5.43,17.88,14.29,22.58v11.33H84.56V116.11c8.85-4.7,14.28-13.21,14.28-22.58S93.41,75.64,84.56,70.94V58.69H98.84V56c0-9.38-5.43-17.89-14.28-22.59V22.12Z"/></g></svg>