<svg xmlns="http://www.w3.org/2000/svg" viewBox="0 0 275 275"><defs><style>.cls-1{fill:#e0e1e0;}.cls-2,.cls-6{fill:#f15822;}.cls-2,.cls-3,.cls-4,.cls-5,.cls-7{stroke:#010101;}.cls-2,.cls-3,.cls-4,.cls-5,.cls-9{stroke-miterlimit:10;}.cls-2,.cls-3,.cls-4,.cls-5{stroke-width:4px;}.cls-10,.cls-3{fill:#f0b0cf;}.cls-11,.cls-4{fill:#a3d4a0;}.cls-5,.cls-8{fill:#dca927;}.cls-7,.cls-9{fill:none;stroke-width:1.62px;}.cls-7{stroke-linejoin:round;}.cls-9{stroke:#231f20;}</style></defs><title>portland_icon</title><g id="Layer_1" data-name="Layer 1"><circle class="cls-1" cx="138.5" cy="137.5" r="125"/><polygon class="cls-2" points="71 62.5 71 136.74 96.72 136.74 122.43 161.76 122.43 136.74 191 136.74 191 62.5 71 62.5"/><polygon class="cls-3" points="206 152.5 206 196.14 190.09 196.14 174.18 212.5 174.18 196.14 138.5 196.14 138.5 152.5 206 152.5"/><circle class="cls-3" cx="101" cy="100" r="7.5"/><circle class="cls-4" cx="131" cy="100" r="7.5"/><circle class="cls-5" cx="161" cy="100" r="7.5"/><path class="cls-6" d="M59.66,182.92c0,3.13-4.86,6.13-5,9.08-.12,3.17,4.49,6.39,4.25,9.28-.27,3.26-5.4,6-5.8,8.8-.5,3.46,3.66,7,3,9.56-1.33,5.09-5.31,6-7.06,6s-5.73-.87-7.06-6c-.66-2.53,3.5-6.1,3-9.56-.4-2.79-5.53-5.54-5.8-8.8-.24-2.89,4.38-6.1,4.25-9.28-.11-2.95-5-5.95-5-9.08s4.86-6.14,5-9.08c.13-3.18-4.49-6.4-4.25-9.29.27-3.26,5.4-6,5.8-8.8.5-3.46-3.66-7-3-9.56,1.33-5.09,5.31-5.95,7.06-5.95s5.73.86,7.06,5.95c.66,2.53-3.5,6.1-3,9.56.4,2.79,5.53,5.54,5.8,8.8.24,2.89-4.37,6.11-4.25,9.28C54.8,176.78,59.66,179.79,59.66,182.92Z"/><line class="cls-7" x1="49.08" y1="244.8" x2="49.08" y2="158.91"/><polyline class="cls-7" points="53.15 217.37 49.08 221.44 45.01 217.37"/><polyline class="cls-7" points="53.15 204.29 49.08 208.37 45.01 204.29"/><polyline class="cls-7" points="53.15 178.15 49.08 182.22 45.01 178.15"/><polyline class="cls-7" points="53.15 191.22 49.08 195.29 45.01 191.22"/><polyline class="cls-7" points="53.15 165.07 49.08 169.14 45.01 165.07"/><path class="cls-8" d="M129.82,221.47c0,4.77-6.86,9.07-8.53,12.83-3.06,6.89-5.57,12.58-11.76,12.58s-8.69-5.69-11.75-12.58c-1.67-3.76-8.53-8.06-8.53-12.83s6.86-9.07,8.53-12.83c3.06-6.88,5.57-12.58,11.75-12.58s8.7,5.7,11.76,12.58C123,212.4,129.82,216.71,129.82,221.47Z"/><line class="cls-7" x1="109.53" y1="203.21" x2="109.53" y2="259.42"/><path class="cls-9" d="M116.24,209.91a6.71,6.71,0,0,1-6.71-6.7v-.31a6.7,6.7,0,0,1-6.7,6.7"/><path class="cls-9" d="M116.24,219a6.71,6.71,0,0,1-6.71-6.7V212a6.7,6.7,0,0,1-6.7,6.7"/><path class="cls-9" d="M116.24,228.12a6.71,6.71,0,0,1-6.71-6.7v-.31a6.7,6.7,0,0,1-6.7,6.71"/><path class="cls-9" d="M116.24,237.23a6.71,6.71,0,0,1-6.71-6.7v-.31a6.7,6.7,0,0,1-6.7,6.7"/><line class="cls-7" x1="230.15" y1="34.46" x2="230.15" y2="93.88"/><path class="cls-6" d="M230.16,38.61a2.92,2.92,0,0,1-2.92-2.92V30.23a2.92,2.92,0,0,1,5.84,0v5.46A2.92,2.92,0,0,1,230.16,38.61Z"/><path class="cls-6" d="M238.37,41.62a12.62,12.62,0,0,1-5.36-1,16.73,16.73,0,0,1-2.09-1.21l-.77-.48-.77.48a16.73,16.73,0,0,1-2.09,1.21,12.65,12.65,0,0,1-5.36,1,2.65,2.65,0,0,1,0-5.3,7.8,7.8,0,0,0,3.15-.51A10.94,10.94,0,0,0,226.5,35a5.32,5.32,0,0,1,7.3,0,10.94,10.94,0,0,0,1.42.84,7.8,7.8,0,0,0,3.15.51,2.65,2.65,0,1,1,0,5.3Z"/><path class="cls-6" d="M240.46,50.41A15.35,15.35,0,0,1,234,49.23a20.53,20.53,0,0,1-2.54-1.47c-.41-.26-1-.64-1.33-.81-.35.17-.92.55-1.33.81a22.11,22.11,0,0,1-2.54,1.47,15.35,15.35,0,0,1-6.44,1.18,2.65,2.65,0,0,1,0-5.3,10.37,10.37,0,0,0,4.23-.7,14.88,14.88,0,0,0,1.87-1.1,6,6,0,0,1,8.42,0,14.2,14.2,0,0,0,1.87,1.1,10.37,10.37,0,0,0,4.23.7,2.65,2.65,0,1,1,0,5.3Z"/><path class="cls-6" d="M242.55,59.2A17.92,17.92,0,0,1,235,57.83a23.8,23.8,0,0,1-3-1.73,13.54,13.54,0,0,0-1.89-1.1,13,13,0,0,0-1.89,1.1,25.32,25.32,0,0,1-3,1.73,17.92,17.92,0,0,1-7.52,1.37,2.65,2.65,0,0,1,0-5.3,12.93,12.93,0,0,0,5.31-.89,18.86,18.86,0,0,0,2.32-1.36c1.57-1,3.05-2,4.77-2s3.2,1,4.77,2A18.76,18.76,0,0,0,237.23,53a13,13,0,0,0,5.32.89,2.65,2.65,0,0,1,0,5.3Z"/><path class="cls-6" d="M244.64,68A20.53,20.53,0,0,1,236,66.43a28.4,28.4,0,0,1-3.43-2,12.69,12.69,0,0,0-2.45-1.38,12.69,12.69,0,0,0-2.45,1.38,27.8,27.8,0,0,1-3.44,2,20.49,20.49,0,0,1-8.6,1.56,2.65,2.65,0,0,1,0-5.3,15.48,15.48,0,0,0,6.39-1.08A22.85,22.85,0,0,0,224.82,60c1.77-1.15,3.45-2.24,5.33-2.24s3.55,1.09,5.33,2.24a22.75,22.75,0,0,0,2.76,1.62,15.55,15.55,0,0,0,6.4,1.08,2.65,2.65,0,1,1,0,5.3Z"/><path class="cls-6" d="M246.73,76.78A23.11,23.11,0,0,1,237,75a31.66,31.66,0,0,1-3.88-2.25,12.31,12.31,0,0,0-3-1.65,12.85,12.85,0,0,0-3,1.65A30.23,30.23,0,0,1,223.25,75a23,23,0,0,1-9.68,1.75,2.65,2.65,0,0,1,0-5.3,18.12,18.12,0,0,0,7.48-1.27,25.89,25.89,0,0,0,3.2-1.88c2-1.28,3.86-2.5,5.9-2.5s3.91,1.22,5.89,2.5a26.75,26.75,0,0,0,3.21,1.88,18.12,18.12,0,0,0,7.48,1.27,2.65,2.65,0,1,1,0,5.3Z"/><path class="cls-6" d="M248.82,85.57a25.68,25.68,0,0,1-10.77-1.94,34.92,34.92,0,0,1-4.33-2.51c-1.17-.76-2.95-1.91-3.57-1.91s-2.4,1.15-3.58,1.91a34.06,34.06,0,0,1-4.32,2.51,25.68,25.68,0,0,1-10.77,1.94,2.65,2.65,0,1,1,0-5.3A20.69,20.69,0,0,0,220,78.81a29.15,29.15,0,0,0,3.65-2.14c2.19-1.42,4.27-2.76,6.46-2.76s4.26,1.34,6.45,2.76a30,30,0,0,0,3.66,2.14,20.66,20.66,0,0,0,8.56,1.46,2.65,2.65,0,1,1,0,5.3Z"/><line class="cls-7" x1="36.09" y1="22.38" x2="36.09" y2="102.73"/><path class="cls-10" d="M38.27,28.63a5.47,5.47,0,0,1-2.18-.5,5.38,5.38,0,0,1-2.18.5,7.2,7.2,0,0,1-7.19-7.19,2.84,2.84,0,0,1,5.67,0A1.52,1.52,0,0,0,33.77,23l.19-.08a5.32,5.32,0,0,1,2.13-.5,5.38,5.38,0,0,1,2.14.5l.19.08a1.53,1.53,0,0,0,1.38-1.52,2.84,2.84,0,0,1,5.67,0A7.2,7.2,0,0,1,38.27,28.63Z"/><path class="cls-10" d="M39.22,39.12a6.87,6.87,0,0,1-2.71-.64l-.42-.17-.42.17a6.86,6.86,0,0,1-2.7.64,9,9,0,0,1-8.87-7.7,2.84,2.84,0,1,1,5.62-.76,3.25,3.25,0,0,0,3.21,2.79,3.79,3.79,0,0,0,.57-.21,6.65,6.65,0,0,1,2.59-.62,6.56,6.56,0,0,1,2.59.62,4.81,4.81,0,0,0,.57.21,3.27,3.27,0,0,0,3.22-2.79,2.83,2.83,0,1,1,5.61.76A9,9,0,0,1,39.22,39.12Z"/><path class="cls-10" d="M40.16,49.61A8.06,8.06,0,0,1,37,48.83a5,5,0,0,0-.89-.31,6,6,0,0,0-.87.31,8,8,0,0,1-3.18.78A10.85,10.85,0,0,1,21.5,41.26,2.84,2.84,0,0,1,27,40a5.13,5.13,0,0,0,5,3.94,4.43,4.43,0,0,0,1-.34,7.7,7.7,0,0,1,3-.75,7.8,7.8,0,0,1,3,.75,4.43,4.43,0,0,0,1,.34,5.14,5.14,0,0,0,5-3.94,2.83,2.83,0,0,1,5.52,1.26A10.84,10.84,0,0,1,40.16,49.61Z"/><path class="cls-10" d="M41.1,60.1a9.25,9.25,0,0,1-3.68-.91,5.2,5.2,0,0,0-1.33-.44,5.46,5.46,0,0,0-1.33.44,9.16,9.16,0,0,1-3.68.91A12.76,12.76,0,0,1,18.9,51a2.84,2.84,0,0,1,5.44-1.6,7.05,7.05,0,0,0,6.74,5A5,5,0,0,0,32.59,54a8.9,8.9,0,0,1,3.5-.87,8.86,8.86,0,0,1,3.5.87,5.12,5.12,0,0,0,1.51.47,7,7,0,0,0,6.74-5A2.84,2.84,0,1,1,53.28,51,12.75,12.75,0,0,1,41.1,60.1Z"/><path class="cls-10" d="M42,70.59a10.63,10.63,0,0,1-4.16-1A5.9,5.9,0,0,0,36.09,69a5.78,5.78,0,0,0-1.78.56,10.68,10.68,0,0,1-4.17,1A14.65,14.65,0,0,1,16.3,60.76a2.84,2.84,0,0,1,5.36-1.86,9,9,0,0,0,8.48,6,6.15,6.15,0,0,0,2-.6,10,10,0,0,1,4-1,10.06,10.06,0,0,1,4,1,6,6,0,0,0,2,.6,9,9,0,0,0,8.49-6,2.83,2.83,0,1,1,5.35,1.86A14.64,14.64,0,0,1,42,70.59Z"/><path class="cls-10" d="M43,81.07a12,12,0,0,1-4.66-1.16,7.06,7.06,0,0,0-2.24-.69,7.06,7.06,0,0,0-2.24.69,11.89,11.89,0,0,1-4.65,1.16A16.74,16.74,0,0,1,13.69,70.45a2.84,2.84,0,1,1,5.29-2,11,11,0,0,0,10.22,7,7.08,7.08,0,0,0,2.48-.74,11.31,11.31,0,0,1,4.41-1.11,11.27,11.27,0,0,1,4.41,1.11,7.07,7.07,0,0,0,2.49.74,11,11,0,0,0,10.22-7,2.83,2.83,0,1,1,5.28,2A16.73,16.73,0,0,1,43,81.07Z"/><path class="cls-10" d="M36.09,28.4a2.23,2.23,0,0,1-2.23-2.23V14.73a2.23,2.23,0,1,1,4.46,0V26.17A2.23,2.23,0,0,1,36.09,28.4Z"/><path class="cls-11" d="M258,157.76c0-3.93-5.25-5.92-5.25-9.57,0-4.1,5.74-6.51,5.16-11-.69-5.41-5.43-9.74-11.28-10.34-7.75-.79-14.3,4.79-14.3,11.79,0,3.93,5.25,5.93,5.25,9.58s-5.25,5.64-5.25,9.57,5.25,5.92,5.25,9.57c0,4.1-5.74,6.51-5.16,11,.7,5.41,5.43,9.75,11.28,10.34,7.75.79,14.3-4.79,14.3-11.79,0-3.93-5.25-5.92-5.25-9.58S258,161.69,258,157.76Z"/><line class="cls-7" x1="245.2" y1="132.89" x2="245.2" y2="203.4"/><path class="cls-7" d="M237.83,177.65c3.68,0,3.68,2.95,7.37,2.95s3.68-2.95,7.36-2.95"/><path class="cls-7" d="M237.83,167.58c3.68,0,3.68,2.95,7.37,2.95s3.68-2.95,7.36-2.95"/><path class="cls-7" d="M237.83,157.52c3.68,0,3.68,2.94,7.37,2.94s3.68-2.94,7.36-2.94"/><path class="cls-7" d="M237.83,147.45c3.68,0,3.68,3,7.37,3s3.68-3,7.36-3"/><path class="cls-7" d="M237.83,137.39c3.68,0,3.68,2.94,7.37,2.94s3.68-2.94,7.36-2.94"/><path class="cls-10" d="M137.69,41a7.62,7.62,0,0,0-15.24,0Z"/><path class="cls-6" d="M209.85,228.94a7.62,7.62,0,0,0-15.24,0Z"/></g></svg>