<svg xmlns="http://www.w3.org/2000/svg" viewBox="0 0 150 150"><defs><style>.cls-1{fill-rule:evenodd;}.cls-2{fill:none;}.cls-2,.cls-3{stroke:#fff;stroke-miterlimit:10;stroke-width:1.6px;}</style></defs><title>portland_icon</title><g id="Layer_1" data-name="Layer 1"><polygon class="cls-1" points="93.55 15 75 25.44 56.46 15 47.29 34.9 26.46 37.92 30.15 59.68 15 75 30.15 90.32 26.46 112.08 47.29 115.1 56.45 135 75 124.56 93.54 135 102.7 115.1 123.54 112.08 119.85 90.32 135 75 119.85 59.68 123.54 37.92 102.71 34.9 93.55 15"/><polygon points="48 45 48 74.69 58.29 74.69 68.57 84.71 68.57 74.69 96 74.69 96 45 48 45"/><polygon class="cls-2" points="48 45 48 74.69 58.29 74.69 68.57 84.71 68.57 74.69 96 74.69 96 45 48 45"/><polygon points="102 81 102 98.45 95.64 98.45 89.27 105 89.27 98.45 75 98.45 75 81 102 81"/><polygon class="cls-2" points="102 81 102 98.45 95.64 98.45 89.27 105 89.27 98.45 75 98.45 75 81 102 81"/><circle cx="60" cy="60" r="3"/><circle class="cls-2" cx="60" cy="60" r="3"/><circle class="cls-3" cx="72" cy="60" r="3"/><circle cx="84" cy="60" r="3"/><circle class="cls-2" cx="84" cy="60" r="3"/></g></svg>