<svg xmlns="http://www.w3.org/2000/svg" width="29" height="31" viewBox="0 0 29 31">
    <g fill="none" fill-rule="evenodd">
        <path fill="#FFF" d="M1.294 1.294v14.557h5.042l5.042 4.907v-4.907h13.446V1.294z"/>
        <path stroke="#000" d="M1.294 1.294V15.85h5.042l5.042 4.908V15.85h13.446V1.294z"/>
        <path fill="#FFF" d="M14.53 18.94v8.557h6.996v3.209l3.119-3.209h3.12v-8.556z"/>
        <path stroke="#000" d="M27.765 18.941v8.557h-3.12l-3.12 3.208v-3.208H14.53V18.94z"/>
        <path fill="#FFF" d="M8.647 8.647a1.47 1.47 0 1 1-2.94 0 1.47 1.47 0 0 1 2.94 0"/>
        <path stroke="#000" d="M8.647 8.647a1.47 1.47 0 1 1-2.94 0 1.47 1.47 0 0 1 2.94 0z"/>
        <path fill="#FFF" d="M14.53 8.647a1.47 1.47 0 1 1-2.941 0 1.47 1.47 0 0 1 2.94 0"/>
        <path stroke="#000" d="M14.53 8.647a1.47 1.47 0 1 1-2.941 0 1.47 1.47 0 0 1 2.94 0z"/>
        <path fill="#FFF" d="M20.412 8.647a1.47 1.47 0 1 1-2.941 0 1.47 1.47 0 0 1 2.94 0"/>
        <path stroke="#000" d="M20.412 8.647a1.47 1.47 0 1 1-2.941 0 1.47 1.47 0 0 1 2.94 0z"/>
    </g>
</svg>
