<svg xmlns="http://www.w3.org/2000/svg" viewBox="0 0 150 150"><defs><style>.cls-1{fill-rule:evenodd;}.cls-2{fill:#f15822;}.cls-2,.cls-3,.cls-4,.cls-5{stroke:#010101;stroke-miterlimit:10;stroke-width:1.6px;}.cls-3{fill:#f0b0cf;}.cls-4{fill:#a3d4a0;}.cls-5{fill:#dca927;}</style></defs><title>portland_icon</title><g id="Layer_1" data-name="Layer 1"><polygon class="cls-1" points="94.32 9.94 75 20.29 55.69 9.94 46.14 29.66 24.44 32.65 28.28 54.21 12.5 69.39 28.28 84.58 24.43 106.14 46.14 109.13 55.68 128.85 75 118.5 94.32 128.85 103.86 109.13 125.56 106.14 121.72 84.58 137.5 69.39 121.72 54.21 125.56 32.65 103.86 29.66 94.32 9.94"/><polygon class="cls-2" points="48.8 41.53 48.8 71.23 59.08 71.23 69.37 81.24 69.37 71.23 96.8 71.23 96.8 41.53 48.8 41.53"/><polygon class="cls-3" points="102.8 77.53 102.8 94.99 96.43 94.99 90.07 101.53 90.07 94.99 75.8 94.99 75.8 77.53 102.8 77.53"/><circle class="cls-3" cx="60.8" cy="56.53" r="3"/><circle class="cls-4" cx="72.8" cy="56.53" r="3"/><circle class="cls-5" cx="84.8" cy="56.53" r="3"/></g></svg>