<?xml version="1.0" encoding="utf-8"?>
<svg width="138" height="155" viewBox="0 0 138 155" xmlns="http://www.w3.org/2000/svg" xmlns:bx="https://boxy-svg.com">
  <defs>
    <bx:grid x="0" y="0" width="69.156" height="76.466"/>
  </defs>
  <g fill="none" fill-rule="evenodd" style="visibility: hidden;">
    <path fill="#F05822" d="M2.165 2.166v73.503h25.46l25.46 24.778V75.669h67.892V2.166z"/>
    <path stroke="#020303" stroke-width="3" d="M2.165 2.166v73.503h25.46l25.46 24.778V75.669h67.892V2.166z"/>
    <path fill="#A3D39F" d="M135.828 91.275v43.204h-15.753l-15.753 16.202v-16.202H68.997V91.275z"/>
    <path stroke="#020303" stroke-width="3" d="M135.828 91.275v43.204h-15.753l-15.753 16.202v-16.202H68.997V91.275z"/>
    <path fill="#EFAFCE" d="M39.294 39.294a7.427 7.427 0 1 1-14.853-.001 7.427 7.427 0 0 1 14.853.001"/>
    <path stroke="#020303" stroke-width="3" d="M39.294 39.294a7.427 7.427 0 1 1-14.853-.001 7.427 7.427 0 0 1 14.853.001z"/>
    <path fill="#A3D39F" d="M68.997 39.294a7.427 7.427 0 1 1-14.853-.001 7.427 7.427 0 0 1 14.853.001"/>
    <path stroke="#020303" stroke-width="3" d="M68.997 39.294a7.427 7.427 0 1 1-14.853-.001 7.427 7.427 0 0 1 14.853.001z"/>
    <path fill="#DBA826" d="M98.7 39.294a7.427 7.427 0 1 1-14.853-.001 7.427 7.427 0 0 1 14.853.001"/>
    <path stroke="#020303" stroke-width="3" d="M98.7 39.294a7.427 7.427 0 1 1-14.853-.001 7.427 7.427 0 0 1 14.853.001z"/>
  </g>
  <g fill="none" fill-rule="evenodd" transform="matrix(0.885444, 0, 0, 0.885444, 2.001646, 20.870609)" style="visibility: hidden;">
    <path fill="#DBA826" d="M51.828 73.7l33.949 33.948a7.735 7.735 0 0 1 0 10.936 7.732 7.732 0 0 1-10.937 0L40.891 84.635l-5.467-5.466c-12.08-12.08-12.08-31.665 0-43.745 0 0 25.942-18.938 44.389-.49l17.93 19.064"/>
    <path stroke="#020303" stroke-width="3" d="M51.828 73.7l33.949 33.948a7.735 7.735 0 0 1 0 10.936 7.732 7.732 0 0 1-10.937 0L40.891 84.635l-5.467-5.466c-12.08-12.08-12.08-31.665 0-43.745 0 0 25.942-18.938 44.389-.49l17.93 19.064"/>
    <path fill="#EFAFCE" d="M118.322 79.731c12.08-12.08 12.08-31.664 0-43.745-12.08-12.078-31.665-12.078-43.745 0"/>
    <path stroke="#020303" stroke-width="3" d="M118.322 79.731c12.08-12.08 12.08-31.664 0-43.745-12.08-12.078-31.665-12.078-43.745 0"/>
    <path fill="#A3D39F" d="M151.13 46.923L107.386 3.178 90.981 19.583l43.745 43.744z"/>
    <path stroke="#020303" stroke-width="3" d="M151.13 46.923L107.386 3.178 90.981 19.583l43.745 43.744z"/>
    <path fill="#F05822" d="M138.828 49.094a3.866 3.866 0 1 1-5.468-5.469 3.866 3.866 0 1 1 5.468 5.469"/>
    <path stroke="#020303" stroke-width="3" d="M138.828 49.094a3.866 3.866 0 1 1-5.468-5.469 3.866 3.866 0 1 1 5.468 5.469z"/>
    <path fill="#DBA826" d="M62.745 62.745l37.398 37.398a7.735 7.735 0 0 1 0 10.936 7.735 7.735 0 0 1-10.937 0L51.81 73.682"/>
    <path stroke="#020303" stroke-width="3" d="M62.745 62.745l37.398 37.398a7.735 7.735 0 0 1 0 10.936 7.735 7.735 0 0 1-10.937 0L51.81 73.682"/>
    <path fill="#DBA826" d="M77.009 55.137l37.415 37.415a7.733 7.733 0 0 1-10.935 10.937L66.072 66.072"/>
    <path stroke="#020303" stroke-width="3" d="M77.009 55.137l37.415 37.415a7.733 7.733 0 0 1-10.935 10.937L66.072 66.072"/>
    <path fill="#DBA826" d="M87.728 43.984l33.256 33.255a7.733 7.733 0 1 1-10.939 10.935L77.008 55.137"/>
    <path stroke="#020303" stroke-width="3" d="M87.728 43.984l33.256 33.255a7.733 7.733 0 1 1-10.939 10.935L77.008 55.137"/>
    <path fill="#F05822" d="M46.36 2.615L2.613 46.36 19.02 62.764l43.745-43.745z"/>
    <path stroke="#020303" stroke-width="3" d="M46.36 2.615L2.613 46.36 19.02 62.764l43.745-43.745z"/>
    <path fill="#A3D39F" d="M21.754 43.625a3.866 3.866 0 1 1-5.469 5.469 3.866 3.866 0 1 1 5.469-5.469"/>
    <path stroke="#020303" stroke-width="3" d="M21.754 43.625a3.866 3.866 0 1 1-5.469 5.469 3.866 3.866 0 1 1 5.469-5.469z"/>
    <path fill="#EFAFCE" d="M29.971 80.593A7.733 7.733 0 0 0 40.906 91.53l5.469-5.469A7.733 7.733 0 0 0 35.44 75.124l-5.469 5.469z"/>
    <path stroke="#020303" stroke-width="3" d="M29.971 80.593A7.733 7.733 0 0 0 40.906 91.53l5.469-5.469A7.733 7.733 0 0 0 35.44 75.124l-5.469 5.469z"/>
    <path fill="#EFAFCE" d="M74.577 35.987L47.344 63.22c5.468 5.469 16.403 5.469 21.872 0l19.757-19.757"/>
    <path stroke="#020303" stroke-width="3" d="M74.577 35.987L47.344 63.22c5.468 5.469 16.403 5.469 21.872 0l19.757-19.757"/>
    <path fill="#EFAFCE" d="M48.094 106.215A7.733 7.733 0 0 1 37.157 95.28l9.219-9.219a7.733 7.733 0 0 1 10.937 10.935l-9.219 9.219z"/>
    <path stroke="#020303" stroke-width="3" d="M48.094 106.215A7.733 7.733 0 0 1 37.157 95.28l9.219-9.219a7.733 7.733 0 0 1 10.937 10.935l-9.219 9.219z"/>
    <path fill="#EFAFCE" d="M59.03 117.151a7.73 7.73 0 0 1-10.936 0 7.732 7.732 0 0 1 0-10.937l9.217-9.216a7.733 7.733 0 0 1 10.937 10.935l-9.218 9.218z"/>
    <path stroke="#020303" stroke-width="3" d="M59.03 117.151a7.73 7.73 0 0 1-10.936 0 7.732 7.732 0 0 1 0-10.937l9.217-9.216a7.733 7.733 0 0 1 10.937 10.935l-9.218 9.218z"/>
    <path fill="#EFAFCE" d="M73.716 124.337a7.733 7.733 0 0 1-10.937-10.935l5.468-5.468a7.733 7.733 0 0 1 10.937 10.935l-5.468 5.468z"/>
    <path stroke="#020303" stroke-width="3" d="M73.716 124.337a7.733 7.733 0 0 1-10.937-10.935l5.468-5.468a7.733 7.733 0 0 1 10.937 10.935l-5.468 5.468z"/>
  </g>
  <g fill="none" fill-rule="evenodd" transform="matrix(0.891026, 0, 0, 0.891026, 0.382847, 6.775931)">
    <path fill="#A3D39F" d="M152 77c0 41.42-33.579 75-75 75-41.42 0-75-33.58-75-75"/>
    <path stroke="#020303" stroke-width="3" d="M152 77c0 41.42-33.579 75-75 75-41.42 0-75-33.58-75-75"/>
    <path fill="#DBA826" d="M152 77c0-41.421-33.579-75-75-75C35.58 2 2 35.579 2 77"/>
    <path stroke="#020303" stroke-width="3" d="M152 77c0-41.421-33.579-75-75-75C35.58 2 2 35.579 2 77"/>
    <path fill="#EFAFCE" d="M122 77v18.75H95.75V122h-37.5V95.75H32V77"/>
    <path stroke="#020303" stroke-width="3" d="M122 77v18.75H95.75V122h-37.5V95.75H32V77"/>
    <path fill="#F05822" d="M122 77V58.25H95.75V32h-37.5v26.25H32V77"/>
    <path stroke="#020303" stroke-width="3" d="M122 77V58.25H95.75V32h-37.5v26.25H32V77M2 77h150"/>
  </g>
</svg>