<svg xmlns="http://www.w3.org/2000/svg" xmlns:xlink="http://www.w3.org/1999/xlink" width="251" height="250" viewBox="0 0 251 250">
    <defs>
        <path id="a" d="M.019.073h7.926v18.414H.019z"/>
        <path id="c" d="M0 .638h40.565V51.46H0z"/>
        <path id="e" d="M0 .803h42.266V43.07H0z"/>
        <path id="g" d="M0 .027h42.636v11.66H0z"/>
        <path id="i" d="M0 .432h21.159v85.36H0z"/>
        <path id="k" d="M0 0h15.235v7.618H0z"/>
    </defs>
    <g fill="none" fill-rule="evenodd">
        <circle cx="125" cy="125" r="125" fill="#E0E0E0"/>
        <path fill="#A3D39F" d="M200 125c0 41.42-33.579 75-75 75-41.42 0-75-33.58-75-75"/>
        <path stroke="#020303" stroke-width="3" d="M200 125c0 41.42-33.579 75-75 75-41.42 0-75-33.58-75-75"/>
        <path fill="#DBA826" d="M200 125c0-41.421-33.579-75-75-75-41.42 0-75 33.579-75 75"/>
        <path stroke="#020303" stroke-width="3" d="M200 125c0-41.421-33.579-75-75-75-41.42 0-75 33.579-75 75"/>
        <path fill="#EFAFCE" d="M170 125v18.75h-26.25V170h-37.5v-26.25H80V125"/>
        <path stroke="#020303" stroke-width="3" d="M170 125v18.75h-26.25V170h-37.5v-26.25H80V125"/>
        <path fill="#F05822" d="M170 125v-18.75h-26.25V80h-37.5v26.25H80V125"/>
        <path stroke="#020303" stroke-width="3" d="M170 125v-18.75h-26.25V80h-37.5v26.25H80V125M50 125h150"/>
        <g>
            <path stroke="#000" stroke-linejoin="round" stroke-width="1.623" d="M28.982 105.927V33.651"/>
            <path fill="#DDA812" d="M28.44 96.171c-1.451 0-6.302-.039-7.833-.539-2.94-.96-5.246-3.12-6.928-4.892-.804-.849-1.546-1.566-2.48-1.748a2.389 2.389 0 0 0-.457-.041c-.398 0-.841.076-1.31.158-.561.096-1.142.196-1.774.196-.366 0-.705-.035-1.037-.104-2.034-.424-6.733-3.592-6.618-6.563.032-.853.549-2.84 4.627-2.84 1.185 0 2.51.172 3.298.428 1.63.528 2.656 1.663 3.56 2.665 1.014 1.123 1.693 1.818 2.819 1.955a15.09 15.09 0 0 0 1.872.096c.335 0 .666-.005.997-.01.343-.006.684-.012 1.026-.012 1.387 0 2.9.085 4.563.708 1.153.431 2.005.901 2.758 1.316 1.156.64 1.992 1.1 3.542 1.25.037.004.075.005.115.005.789 0 2.239-.54 3.773-1.113 2.659-.992 5.97-2.228 9.509-2.228.112 0 .458.005.458.005 1.518 0 2.122-.667 3.123-1.773.572-.632 1.22-1.348 2.124-1.987 1.207-.855 2.808-1.325 4.509-1.325 1.523 0 3.042.372 4.277 1.05a1.913 1.913 0 0 1 1.01 1.747c-.051 2.436-4.914 5.908-5.238 6.068a5.403 5.403 0 0 1-2.484.574c-.513 0-1.008-.058-1.486-.115-.29-.034-.591-.07-.913-.094a6.089 6.089 0 0 0-.44-.017c-.997 0-1.668.281-2.566 1.075-.513.452-.998.918-1.478 1.378-1.542 1.482-3.137 3.014-5.43 3.945-1.787.725-7.714.782-9.488.782"/>
            <path fill="#DDA812" d="M28.512 85.413c-1.634 0-5.578-.054-6.92-.559-2.602-.979-4.627-3.157-6.1-4.945-.654-.793-1.301-1.518-2.034-1.684a2.978 2.978 0 0 0-.663-.063c-.303 0-.607.025-.91.05-.376.03-.753.057-1.127.057a5.62 5.62 0 0 1-1.33-.144c-1.771-.425-5.904-3.297-5.806-6.238.023-.667.392-2.847 4.202-2.847 1.064 0 2.26.18 2.977.447 1.475.55 2.379 1.702 3.177 2.718.854 1.09 1.422 1.763 2.3 1.886.459.065.946.093 1.579.093.288 0 .574-.005.86-.01.299-.007.598-.012.897-.012 1.182 0 2.592.087 4.09.732 1.02.44 1.77.915 2.432 1.335.974.62 1.679 1.067 2.955 1.21h.005c.684 0 1.968-.553 3.21-1.086 2.338-1.004 5.246-2.253 8.388-2.253.1 0 .398.005.398.005 1.133 0 1.59-.52 2.518-1.7.5-.636 1.067-1.357 1.862-2.005 1.094-.89 2.548-1.38 4.096-1.38 1.382 0 2.759.388 3.875 1.092.598.376.93 1.008.915 1.732-.05 2.188-3.8 5.341-4.288 5.62-1.014.577-2.114.846-3.46.846-.373 0-.765-.019-1.27-.06a4.388 4.388 0 0 0-.353-.017c-.681 0-1.208.161-2.042 1.008-.444.451-.864.916-1.281 1.377-1.35 1.492-2.747 3.035-4.776 3.984-1.565.732-6.38.811-8.376.811"/>
            <path fill="#DDA812" d="M28.614 74.655c-1.752 0-4.865-.076-6.021-.59-2.263-1.001-4-3.198-5.26-5-.515-.737-1.064-1.47-1.597-1.61-.407-.11-.892-.13-1.404-.15-.634-.026-1.351-.056-2.08-.261-1.526-.432-5.062-2.962-4.978-5.908.039-1.38 1.05-2.854 3.774-2.854.95 0 2.025.192 2.673.477 1.313.576 2.092 1.744 2.778 2.775.703 1.055 1.174 1.703 1.789 1.804.369.06.763.088 1.28.088.242 0 .482-.005.72-.011.259-.006.515-.011.772-.011 1.046 0 2.296.09 3.633.769.886.45 1.53.933 2.1 1.358.823.615 1.366 1.022 2.362 1.153.44-.001 1.595-.584 2.52-1.052 2.017-1.02 4.527-2.29 7.282-2.29.089 0 .338.005.338.005.77 0 1.098-.394 1.912-1.614.427-.638.909-1.361 1.593-2.016.977-.938 2.289-1.455 3.69-1.455 1.25 0 2.489.409 3.489 1.15.537.4.824 1.01.807 1.72-.046 1.96-2.776 4.769-3.326 5.138-1.163.78-2.674 1.246-4.04 1.246-.19 0-.376-.01-.556-.027a2.664 2.664 0 0 0-.262-.014c-.404 0-.796.07-1.511.925-.376.45-.732.914-1.085 1.374-1.155 1.504-2.35 3.058-4.112 4.029-1.346.742-5.14.852-7.28.852"/>
            <path fill="#DDA812" d="M28.697 63.897c-1.81 0-4.17-.11-5.145-.635-1.91-1.03-3.354-3.243-4.396-5.057-.242-.421-.81-1.41-1.18-1.528-.371-.12-.799-.208-1.25-.3-.552-.112-1.121-.23-1.687-.423-1.518-.521-4.197-2.828-4.133-5.568.04-1.738 1.354-2.861 3.348-2.861.859 0 1.796.205 2.39.522 1.139.608 1.786 1.789 2.357 2.83.397.728.892 1.632 1.293 1.712.273.056.57.08.965.08.194 0 .387-.005.58-.011.216-.006.431-.011.646-.011.92 0 2.02.097 3.198.824.75.464 1.29.954 1.765 1.386.694.632 1.066.949 1.707 1.065.336-.062 1.208-.598 1.85-.992 1.698-1.045 3.811-2.346 6.195-2.346.08 0 .238.005.24.005.454 0 .704-.341 1.346-1.512.35-.638.747-1.361 1.313-2.021.859-1 2.029-1.552 3.297-1.552 1.127 0 2.233.439 3.114 1.235.329.296.714.836.692 1.728-.044 1.726-1.802 4.136-2.353 4.585-1.034.844-2.782 1.698-4.122 1.698-.127 0-.25-.008-.367-.022a1.304 1.304 0 0 0-.163-.01c-.172 0-.41 0-.977.822-.309.45-.602.914-.892 1.373-.955 1.513-1.943 3.077-3.427 4.07-1.187.796-4.397.914-6.205.914"/>
            <path fill="#DDA812" d="M28.77 53.139c-2.165 0-3.611-.24-4.3-.712-1.528-1.052-2.625-3.17-3.496-5.1-.143-.32-.58-1.287-.835-1.464-.56-.228-1.28-.544-1.922-.827l-.433-.19c-1.34-.588-3.301-2.651-3.254-5.212.03-1.715 1.205-2.868 2.92-2.868.768 0 1.608.235 2.142.599.939.64 1.426 1.775 1.897 2.873.236.549.63 1.467.88 1.63.115.022.309.042.572.042.146 0 .29-.005.436-.01.176-.006.35-.012.525-.012.759 0 1.76.104 2.79.915.608.478 1.037.976 1.416 1.416.46.533.705.795.993.91.283-.153.8-.56 1.194-.868 1.309-1.028 3.102-2.435 5.14-2.435.07 0 .142.002.212.005.164-.117.508-.917.713-1.394.274-.634.583-1.354 1.025-2.011.727-1.083 1.76-1.681 2.906-1.681 1.02 0 2 .48 2.758 1.354 1.474 1.699-.291 5.169-.801 5.7-.71.739-2.705 2.189-4.095 2.189a2.156 2.156 0 0 1-.322-.026c-.021 0-.186.13-.49.693-.242.45-.472.916-.7 1.377-.75 1.515-1.526 3.082-2.714 4.096-.977.835-3.344 1.01-5.157 1.01"/>
            <path fill="#DDA812" d="M28.796 42.38c-1.727 0-2.903-.286-3.496-.849-.897-.85-1.66-2.377-2.548-5.102-.097-.296-.382-1.167-.573-1.438-.34-.205-.691-.486-1.033-.757-.255-.203-.544-.434-.721-.54-1.138-.689-2.351-2.489-2.32-4.812.028-2.122 1.36-2.875 2.494-2.875.7 0 1.458.288 1.93.733.705.663 1.039 1.737 1.392 2.872.146.47.378 1.217.56 1.537.027.002.059.002.093.002.096 0 .19-.005.284-.009.138-.007.275-.013.413-.013.616 0 1.538.11 2.416 1.064.45.49.765.993 1.042 1.436.086.138.209.335.325.502.149-.154.312-.33.45-.48.973-1.054 2.292-2.484 3.946-2.579.145-.299.32-.86.444-1.26.195-.626.417-1.335.73-1.98.81-1.665 2.028-1.845 2.515-1.845.935 0 1.79.54 2.408 1.523.815 1.296.629 4.171.066 4.98-.466.67-2.596 2.674-3.977 2.736a5.213 5.213 0 0 0-.23.517c-.176.454-.344.921-.51 1.384-.565 1.576-1.1 3.065-1.964 4.086-.818.964-2.7 1.167-4.136 1.167"/>
            <g transform="translate(25 17.927)">
                <mask id="b" fill="#fff">
                    <use xlink:href="#a"/>
                </mask>
                <path fill="#DDA812" d="M2.128 18.487C3.555 14.298.48 12.471.03 8.667-.129 7.321 1.422.071 4.432.071c3.065 0 4.272 6.76 3.031 10.312-.538 1.54-1.748 2.778-2.05 4.42l.064 3.683H2.128z" mask="url(#b)"/>
            </g>
        </g>
        <g>
            <g transform="translate(172 178.362)">
                <mask id="d" fill="#fff">
                    <use xlink:href="#c"/>
                </mask>
                <path fill="#FFAEE4" d="M40.565 26.049c0 4.767-6.854 9.073-8.527 12.832-3.065 6.883-5.568 12.579-11.755 12.579-6.189 0-8.69-5.696-11.755-12.58C6.854 35.123 0 30.817 0 26.05c0-4.767 6.854-9.073 8.528-12.833C11.592 6.334 14.094.638 20.283.638c6.187 0 8.69 5.696 11.755 12.578 1.673 3.76 8.527 8.066 8.527 12.833" mask="url(#d)"/>
            </g>
            <path stroke="#000" stroke-linejoin="round" stroke-width="1.623" d="M192.283 186.149v56.213"/>
            <path stroke="#231F20" stroke-width="1.623" d="M198.984 192.85a6.7 6.7 0 0 1-6.7-6.701v-.307a6.702 6.702 0 0 1-6.703 6.7M198.984 201.956a6.7 6.7 0 0 1-6.7-6.701v-.307a6.702 6.702 0 0 1-6.703 6.7M198.984 211.062a6.7 6.7 0 0 1-6.7-6.701v-.307a6.702 6.702 0 0 1-6.703 6.7M198.984 220.167a6.7 6.7 0 0 1-6.7-6.7v-.308a6.702 6.702 0 0 1-6.703 6.701"/>
        </g>
        <g>
            <g transform="translate(14 168.197)">
                <mask id="f" fill="#fff">
                    <use xlink:href="#e"/>
                </mask>
                <path fill="#F50" d="M42.266 21.936c0 11.672-9.461 21.133-21.133 21.133C9.462 43.07 0 33.61 0 21.936 0 10.266 9.462.803 21.133.803c11.672 0 21.133 9.462 21.133 21.133" mask="url(#f)"/>
            </g>
            <path stroke="#000" stroke-width="1.623" d="M35.133 178.675v52.521"/>
            <path stroke="#000" stroke-linejoin="round" stroke-width="1.623" d="M45.302 187.551v4.642c0 5.615-4.553 10.168-10.168 10.168-5.616 0-10.17-4.553-10.17-10.168v-4.642M38.287 180.587a3.154 3.154 0 1 1-6.309 0M30.126 188.925a5.161 5.161 0 0 1-10.322 0M50.462 188.925a5.161 5.161 0 0 1-10.322 0"/>
        </g>
        <g>
            <path stroke="#000" stroke-linejoin="round" stroke-width="1.623" d="M202.318 12.144v59.428"/>
            <path fill="#9FE2A2" d="M202.33 16.3a2.917 2.917 0 0 1-2.917-2.918V7.917a2.916 2.916 0 1 1 5.834 0v5.465a2.917 2.917 0 0 1-2.917 2.917"/>
            <path fill="#9FE2A2" d="M210.537 19.306c-1.489 0-3.443-.113-5.358-.992-.789-.362-1.482-.81-2.094-1.207-.227-.147-.528-.343-.767-.482-.239.14-.54.335-.767.482-.612.397-1.305.845-2.094 1.208-1.915.878-3.869.991-5.358.991a2.648 2.648 0 0 1 0-5.297c.95 0 2.167-.058 3.15-.509.44-.202.938-.526 1.42-.838 1.104-.715 2.245-1.455 3.65-1.455 1.403 0 2.544.74 3.647 1.455.483.312.982.636 1.422.838.982.451 2.2.51 3.15.51a2.648 2.648 0 1 1 0 5.296"/>
            <path fill="#9FE2A2" d="M212.627 28.097c-1.799 0-4.156-.134-6.44-1.182-.945-.434-1.792-.983-2.539-1.467-.407-.264-.983-.637-1.33-.806-.346.169-.923.542-1.329.806-.748.484-1.595 1.033-2.54 1.467-2.283 1.048-4.641 1.182-6.44 1.182a2.649 2.649 0 1 1 0-5.297c1.26 0 2.88-.08 4.231-.7.595-.273 1.242-.692 1.868-1.098 1.302-.843 2.648-1.717 4.21-1.717 1.562 0 2.908.874 4.21 1.717.626.406 1.273.825 1.869 1.098 1.351.62 2.97.7 4.23.7a2.649 2.649 0 0 1 0 5.297"/>
            <path fill="#9FE2A2" d="M214.717 36.887c-2.109 0-4.87-.156-7.522-1.373-1.1-.505-2.103-1.154-2.987-1.727-.596-.386-1.47-.954-1.89-1.104-.419.15-1.294.718-1.89 1.104-.885.573-1.886 1.222-2.987 1.727-2.652 1.217-5.413 1.373-7.522 1.373a2.649 2.649 0 1 1 0-5.297c1.57 0 3.593-.1 5.312-.89.752-.346 1.547-.86 2.315-1.358 1.57-1.018 3.052-1.978 4.772-1.978 1.72 0 3.202.96 4.772 1.978.768.498 1.563 1.012 2.315 1.358 1.72.79 3.742.89 5.312.89a2.648 2.648 0 0 1 0 5.297"/>
            <path fill="#9FE2A2" d="M216.807 45.678c-2.419 0-5.583-.178-8.604-1.563-1.257-.577-2.413-1.327-3.433-1.988-.79-.512-1.975-1.28-2.452-1.382-.477.102-1.66.87-2.452 1.382-1.02.66-2.176 1.41-3.434 1.988-3.02 1.385-6.184 1.563-8.603 1.563a2.649 2.649 0 1 1 0-5.297c1.88 0 4.306-.123 6.394-1.081.908-.417 1.851-1.028 2.762-1.618 1.777-1.152 3.456-2.24 5.333-2.24 1.877 0 3.556 1.088 5.333 2.24.911.59 1.854 1.2 2.762 1.618 2.088.958 4.514 1.08 6.394 1.08a2.649 2.649 0 0 1 0 5.298"/>
            <path fill="#9FE2A2" d="M218.898 54.469c-2.73 0-6.296-.2-9.686-1.755-1.413-.648-2.723-1.497-3.88-2.247-.992-.643-2.491-1.614-3.022-1.65-.514.036-2.013 1.007-3.005 1.65-1.156.75-2.467 1.599-3.88 2.248-3.39 1.554-6.956 1.754-9.686 1.754a2.648 2.648 0 0 1 0-5.298c2.19 0 5.02-.144 7.476-1.271 1.065-.49 2.155-1.195 3.209-1.878 1.985-1.287 3.86-2.502 5.894-2.502 2.036 0 3.91 1.215 5.895 2.502 1.055.683 2.145 1.389 3.209 1.878 2.456 1.127 5.286 1.27 7.476 1.27a2.649 2.649 0 0 1 0 5.299"/>
            <g transform="translate(181 51.572)">
                <mask id="h" fill="#fff">
                    <use xlink:href="#g"/>
                </mask>
                <path fill="#9FE2A2" d="M39.987 11.688c-3.039 0-7.01-.221-10.767-1.945-1.569-.721-3.035-1.67-4.327-2.508-1.175-.76-2.949-1.911-3.575-1.911-.626 0-2.4 1.15-3.575 1.91-1.293.839-2.758 1.788-4.327 2.509-3.758 1.724-7.728 1.945-10.767 1.945a2.649 2.649 0 0 1 0-5.298c2.5 0 5.733-.166 8.557-1.462 1.22-.56 2.46-1.362 3.656-2.138C17.054 1.369 19.125.027 21.318.027c2.192 0 4.263 1.342 6.456 2.763 1.197.776 2.435 1.578 3.655 2.138 2.825 1.296 6.058 1.462 8.558 1.462a2.649 2.649 0 0 1 0 5.298" mask="url(#h)"/>
            </g>
        </g>
        <g>
            <g transform="translate(229 85.568)">
                <mask id="j" fill="#fff">
                    <use xlink:href="#i"/>
                </mask>
                <path fill="#DDA812" d="M21.159 43.112c0 3.13-4.86 6.133-4.973 9.081-.122 3.178 4.488 6.392 4.248 9.281-.27 3.263-5.393 6.017-5.794 8.804-.497 3.46 3.657 7.034 2.995 9.563-1.33 5.083-5.307 5.951-7.056 5.951-1.75 0-5.727-.868-7.057-5.952-.66-2.529 3.494-6.104 2.996-9.563-.4-2.786-5.524-5.54-5.795-8.802-.24-2.89 4.372-6.103 4.25-9.28C4.859 49.245 0 46.241 0 43.111s4.86-6.133 4.973-9.08c.122-3.179-4.49-6.393-4.25-9.282.27-3.263 5.394-6.017 5.795-8.804.498-3.459-3.656-7.034-2.994-9.563C4.853 1.3 8.83.433 10.579.433c1.75 0 5.726.867 7.056 5.951.662 2.53-3.492 6.104-2.995 9.563.401 2.786 5.524 5.54 5.794 8.802.24 2.89-4.37 6.103-4.248 9.281.113 2.948 4.973 5.952 4.973 9.082" mask="url(#j)"/>
            </g>
            <path stroke="#000" stroke-linejoin="round" stroke-width="1.623" d="M239.58 190.568v-85.891M243.65 163.133l-4.07 4.07-4.072-4.07M243.65 150.059l-4.07 4.07-4.072-4.07M243.65 123.91l-4.07 4.07-4.072-4.07M243.65 136.984l-4.07 4.071-4.072-4.071M243.65 110.835l-4.07 4.072-4.072-4.072"/>
        </g>
        <path fill="#9FE2A2" d="M132.082 238.043c1.252-.453 4.294-1.59 4.294-2.854 0-1.265-3.838-1.756-4.294-2.855-.473-1.14 1.876-4.198 1.018-5.057-.859-.859-3.917 1.49-5.057 1.018-1.099-.456-1.59-4.295-2.855-4.295-1.264 0-1.755 3.839-2.855 4.295-1.139.472-4.197-1.877-5.056-1.018s1.49 3.917 1.018 5.057c-.456 1.099-4.295 1.59-4.295 2.855 0 1.264 3.042 2.401 4.295 2.854h13.787z"/>
        <g transform="translate(99 23)">
            <mask id="l" fill="#fff">
                <use xlink:href="#k"/>
            </mask>
            <path fill="#F50" d="M15.235 7.618A7.618 7.618 0 1 0 0 7.618h15.235z" mask="url(#l)"/>
        </g>
    </g>
</svg>
