<svg xmlns="http://www.w3.org/2000/svg" viewBox="0 0 275 275"><defs><style>.cls-1{fill:#e0e1e0;}.cls-2,.cls-9{fill:#f0b0cf;}.cls-11,.cls-3,.cls-4,.cls-6{fill:none;}.cls-10,.cls-12,.cls-13,.cls-3,.cls-4,.cls-9{stroke:#010101;}.cls-10,.cls-11,.cls-12,.cls-13,.cls-3,.cls-6,.cls-9{stroke-miterlimit:10;}.cls-3,.cls-4,.cls-6{stroke-width:1.62px;}.cls-4{stroke-linejoin:round;}.cls-10,.cls-5{fill:#f15822;}.cls-11,.cls-6{stroke:#231f20;}.cls-12,.cls-7{fill:#a3d4a0;}.cls-13,.cls-8{fill:#dca927;}.cls-10,.cls-11,.cls-12,.cls-13,.cls-9{stroke-width:4px;}</style></defs><title>portland_icon</title><g id="Layer_1" data-name="Layer 1"><circle class="cls-1" cx="137.5" cy="137.5" r="125"/><circle class="cls-2" cx="88.63" cy="37.69" r="21.13"/><line class="cls-3" x1="88.63" y1="26.23" x2="88.63" y2="78.75"/><path class="cls-4" d="M98.8,35.1v4.64a10.17,10.17,0,0,1-20.34,0V35.1"/><path class="cls-4" d="M91.79,28.14a3.16,3.16,0,0,1-6.31,0"/><path class="cls-4" d="M83.63,36.48a5.17,5.17,0,0,1-10.33,0"/><path class="cls-4" d="M104,36.48a5.16,5.16,0,1,1-10.32,0"/><path class="cls-5" d="M65.86,219.08c0,4.76-6.85,9.07-8.52,12.83-3.07,6.88-5.57,12.58-11.76,12.58s-8.69-5.7-11.75-12.58c-1.68-3.76-8.53-8.07-8.53-12.83s6.85-9.08,8.53-12.84c3.06-6.88,5.56-12.58,11.75-12.58s8.69,5.7,11.76,12.58C59,210,65.86,214.31,65.86,219.08Z"/><line class="cls-4" x1="45.58" y1="200.81" x2="45.58" y2="257.03"/><path class="cls-6" d="M52.28,207.51a6.7,6.7,0,0,1-6.7-6.7v-.3a6.7,6.7,0,0,1-6.7,6.7"/><path class="cls-6" d="M52.28,216.62a6.7,6.7,0,0,1-6.7-6.7v-.31a6.7,6.7,0,0,1-6.7,6.7"/><path class="cls-6" d="M52.28,225.73a6.7,6.7,0,0,1-6.7-6.71v-.3a6.7,6.7,0,0,1-6.7,6.7"/><path class="cls-6" d="M52.28,234.83a6.7,6.7,0,0,1-6.7-6.7v-.31a6.71,6.71,0,0,1-6.7,6.71"/><line class="cls-4" x1="36.09" y1="62.32" x2="36.09" y2="142.67"/><path class="cls-7" d="M38.27,68.58a5.45,5.45,0,0,1-2.18-.51,5.37,5.37,0,0,1-2.18.51,7.21,7.21,0,0,1-7.19-7.2,2.84,2.84,0,0,1,5.67,0,1.52,1.52,0,0,0,1.38,1.52l.19-.08a5.32,5.32,0,0,1,2.13-.5,5.38,5.38,0,0,1,2.14.5l.19.08a1.53,1.53,0,0,0,1.38-1.52,2.84,2.84,0,0,1,5.67,0A7.21,7.21,0,0,1,38.27,68.58Z"/><path class="cls-7" d="M39.22,79.06a6.87,6.87,0,0,1-2.71-.64l-.42-.17-.42.17a6.86,6.86,0,0,1-2.7.64,9,9,0,0,1-8.87-7.7,2.84,2.84,0,0,1,5.62-.76,3.27,3.27,0,0,0,3.21,2.8,5.75,5.75,0,0,0,.57-.22,6.65,6.65,0,0,1,2.59-.62,6.56,6.56,0,0,1,2.59.62c.2.08.46.19.57.22a3.29,3.29,0,0,0,3.22-2.8,2.83,2.83,0,1,1,5.61.76A9,9,0,0,1,39.22,79.06Z"/><path class="cls-7" d="M40.16,89.55A8.24,8.24,0,0,1,37,88.78a4.48,4.48,0,0,0-.89-.32,5.18,5.18,0,0,0-.87.32,8.19,8.19,0,0,1-3.18.77A10.85,10.85,0,0,1,21.5,81.2,2.83,2.83,0,1,1,27,80a5.13,5.13,0,0,0,5,3.93,4.43,4.43,0,0,0,1-.34,7.7,7.7,0,0,1,3-.75,7.8,7.8,0,0,1,3,.75,4.43,4.43,0,0,0,1,.34,5.14,5.14,0,0,0,5-3.93,2.83,2.83,0,1,1,5.52,1.25A10.84,10.84,0,0,1,40.16,89.55Z"/><path class="cls-7" d="M41.1,100a9.25,9.25,0,0,1-3.68-.91,5.1,5.1,0,0,0-1.33-.43,5.35,5.35,0,0,0-1.33.43,9.16,9.16,0,0,1-3.68.91A12.76,12.76,0,0,1,18.9,91a2.84,2.84,0,0,1,5.44-1.6,7.05,7.05,0,0,0,6.74,5,5,5,0,0,0,1.51-.47,8.9,8.9,0,0,1,3.5-.87,8.86,8.86,0,0,1,3.5.87,5.12,5.12,0,0,0,1.51.47,7,7,0,0,0,6.74-5A2.84,2.84,0,0,1,53.28,91,12.75,12.75,0,0,1,41.1,100Z"/><path class="cls-7" d="M42,110.53a10.63,10.63,0,0,1-4.16-1,5.9,5.9,0,0,0-1.79-.56,5.78,5.78,0,0,0-1.78.56,10.68,10.68,0,0,1-4.17,1A14.65,14.65,0,0,1,16.3,100.7a2.84,2.84,0,1,1,5.36-1.86,9,9,0,0,0,8.48,6,6.15,6.15,0,0,0,2-.6,10,10,0,0,1,4-1,10.06,10.06,0,0,1,4,1,6,6,0,0,0,2,.6,9,9,0,0,0,8.49-6,2.83,2.83,0,1,1,5.35,1.86A14.64,14.64,0,0,1,42,110.53Z"/><path class="cls-7" d="M43,121a12,12,0,0,1-4.66-1.16,7,7,0,0,0-2.24-.68,7,7,0,0,0-2.24.68A11.89,11.89,0,0,1,29.2,121a16.74,16.74,0,0,1-15.51-10.62,2.84,2.84,0,1,1,5.29-2,11,11,0,0,0,10.22,7,7.08,7.08,0,0,0,2.48-.74,11.31,11.31,0,0,1,4.41-1.11,11.27,11.27,0,0,1,4.41,1.11,7.07,7.07,0,0,0,2.49.74,11,11,0,0,0,10.22-7,2.83,2.83,0,1,1,5.28,2A16.73,16.73,0,0,1,43,121Z"/><path class="cls-7" d="M36.09,68.34a2.23,2.23,0,0,1-2.23-2.23V54.67a2.23,2.23,0,1,1,4.46,0V66.11A2.23,2.23,0,0,1,36.09,68.34Z"/><line class="cls-4" x1="231.6" y1="241.98" x2="231.6" y2="169.71"/><path class="cls-2" d="M231.06,232.23c-1.45,0-6.3,0-7.83-.54a17.49,17.49,0,0,1-6.93-4.89,5.07,5.07,0,0,0-2.48-1.75,2.19,2.19,0,0,0-.46,0,8.1,8.1,0,0,0-1.31.15,9.88,9.88,0,0,1-1.77.2,5,5,0,0,1-1-.1c-2-.43-6.73-3.6-6.62-6.57,0-.85.55-2.84,4.63-2.84a12.35,12.35,0,0,1,3.3.43,8.3,8.3,0,0,1,3.56,2.67c1,1.12,1.69,1.82,2.82,2a14.33,14.33,0,0,0,1.87.1h2a12.47,12.47,0,0,1,4.56.7,20.67,20.67,0,0,1,2.76,1.32,8,8,0,0,0,3.54,1.25h.12a14.59,14.59,0,0,0,3.77-1.12c2.66-1,6-2.23,9.51-2.23h.46c1.52,0,2.12-.67,3.12-1.77a12.2,12.2,0,0,1,2.13-2,7.77,7.77,0,0,1,4.5-1.33,9.1,9.1,0,0,1,4.28,1,1.91,1.91,0,0,1,1,1.75c-.05,2.44-4.91,5.91-5.24,6.07a5.41,5.41,0,0,1-2.48.57h0a12,12,0,0,1-1.49-.11l-.91-.1H250a3.5,3.5,0,0,0-2.57,1.07c-.51.45-1,.92-1.47,1.38a17.38,17.38,0,0,1-5.43,3.95C238.76,232.17,232.83,232.23,231.06,232.23Z"/><path class="cls-2" d="M231.13,221.47c-1.63,0-5.58-.06-6.92-.56-2.6-1-4.63-3.16-6.1-4.94a4.41,4.41,0,0,0-2-1.69,3.2,3.2,0,0,0-.67-.06c-.3,0-.6,0-.91.05s-.75.06-1.12.06a5.47,5.47,0,0,1-1.33-.15c-1.77-.42-5.91-3.3-5.81-6.24,0-.66.39-2.84,4.2-2.84a9.81,9.81,0,0,1,3,.44,7.51,7.51,0,0,1,3.18,2.72c.85,1.09,1.42,1.76,2.3,1.89a11.83,11.83,0,0,0,1.58.09h1.75a10.08,10.08,0,0,1,4.09.73,16.32,16.32,0,0,1,2.43,1.34,6.3,6.3,0,0,0,3,1.2h0a11.7,11.7,0,0,0,3.21-1.08c2.33-1,5.24-2.25,8.38-2.25h.4c1.13,0,1.59-.52,2.52-1.7a12.1,12.1,0,0,1,1.86-2,6.48,6.48,0,0,1,4.1-1.38,7.26,7.26,0,0,1,3.87,1.09,2,2,0,0,1,.92,1.73c-.05,2.19-3.8,5.34-4.29,5.62a6.73,6.73,0,0,1-3.46.85h0c-.37,0-.77,0-1.27-.06a2.11,2.11,0,0,0-.35,0,2.57,2.57,0,0,0-2.05,1c-.44.45-.86.91-1.28,1.37a15.18,15.18,0,0,1-4.77,4C237.94,221.39,233.13,221.47,231.13,221.47Z"/><path class="cls-2" d="M231.23,210.71c-1.75,0-4.86-.08-6-.59-2.26-1-4-3.2-5.26-5-.51-.74-1.06-1.47-1.6-1.61a6.53,6.53,0,0,0-1.4-.15,8.83,8.83,0,0,1-2.08-.26c-1.53-.43-5.06-3-5-5.91,0-1.38,1.05-2.85,3.78-2.85a7.5,7.5,0,0,1,2.67.47,7,7,0,0,1,2.78,2.78c.7,1,1.17,1.7,1.79,1.8a6.8,6.8,0,0,0,1.28.09h1.49a7.65,7.65,0,0,1,3.63.77,13.21,13.21,0,0,1,2.1,1.36,4.63,4.63,0,0,0,2.36,1.15,9.59,9.59,0,0,0,2.52-1.05c2-1,4.53-2.29,7.29-2.29h.33c.77,0,1.1-.39,1.92-1.61a11.48,11.48,0,0,1,1.59-2,5.29,5.29,0,0,1,3.69-1.45,5.91,5.91,0,0,1,3.49,1.15,2,2,0,0,1,.81,1.72c0,2-2.78,4.77-3.33,5.14a7.53,7.53,0,0,1-4,1.24h0a5.12,5.12,0,0,1-.56,0h-.26c-.4,0-.8.07-1.51.93-.38.45-.73.91-1.09,1.37a13.74,13.74,0,0,1-4.11,4C237.17,210.6,233.37,210.71,231.23,210.71Z"/><path class="cls-2" d="M231.32,200c-1.81,0-4.17-.11-5.15-.63-1.91-1-3.35-3.25-4.4-5.06-.24-.42-.81-1.41-1.18-1.53a11.3,11.3,0,0,0-1.24-.3,13,13,0,0,1-1.69-.42c-1.52-.52-4.2-2.83-4.14-5.57,0-1.74,1.36-2.86,3.35-2.86a5.58,5.58,0,0,1,2.39.52,6.48,6.48,0,0,1,2.36,2.83c.4.73.89,1.63,1.29,1.71a4.51,4.51,0,0,0,1,.08h1.22a5.75,5.75,0,0,1,3.2.83,11.75,11.75,0,0,1,1.77,1.38,3.35,3.35,0,0,0,1.7,1.07,9.63,9.63,0,0,0,1.85-1c1.7-1.05,3.81-2.35,6.2-2.35h.24c.45,0,.7-.34,1.35-1.51a11.14,11.14,0,0,1,1.31-2,4.3,4.3,0,0,1,3.29-1.55,4.69,4.69,0,0,1,3.12,1.23,2.17,2.17,0,0,1,.69,1.73c0,1.73-1.8,4.14-2.35,4.59a7.6,7.6,0,0,1-4.12,1.7h0a2.22,2.22,0,0,1-.37,0h-.16c-.18,0-.42,0-1,.83-.31.45-.6.91-.89,1.37a13,13,0,0,1-3.43,4.07C236.33,199.83,233.12,200,231.32,200Z"/><path class="cls-2" d="M231.39,189.19c-2.17,0-3.61-.24-4.3-.71-1.53-1-2.63-3.17-3.5-5.1a5.73,5.73,0,0,0-.83-1.46c-.56-.23-1.28-.55-1.92-.83l-.44-.19a6,6,0,0,1-3.25-5.21,2.77,2.77,0,0,1,2.92-2.87,4.07,4.07,0,0,1,2.14.6,6.28,6.28,0,0,1,1.9,2.87,5.57,5.57,0,0,0,.88,1.63,2.45,2.45,0,0,0,.57.05H226l.52,0a4.26,4.26,0,0,1,2.79.92,10,10,0,0,1,1.42,1.41,3,3,0,0,0,1,.92c.28-.16.8-.57,1.19-.87,1.31-1,3.11-2.44,5.14-2.44h.22a6.78,6.78,0,0,0,.71-1.4,12.28,12.28,0,0,1,1-2,3.5,3.5,0,0,1,2.91-1.68,3.68,3.68,0,0,1,2.76,1.35c1.47,1.7-.29,5.17-.8,5.7-.71.74-2.71,2.19-4.1,2.19h0l-.32,0h0s-.19.13-.49.69-.47.92-.7,1.38a12.75,12.75,0,0,1-2.71,4.09C235.57,189,233.2,189.19,231.39,189.19Z"/><path class="cls-2" d="M231.41,178.44c-1.72,0-2.9-.29-3.49-.85-.9-.85-1.66-2.38-2.55-5.1a8.46,8.46,0,0,0-.57-1.44c-.34-.21-.69-.49-1-.76a8.93,8.93,0,0,0-.72-.54,5.64,5.64,0,0,1-2.32-4.81c0-2.12,1.36-2.88,2.5-2.88a2.93,2.93,0,0,1,1.93.74,6.54,6.54,0,0,1,1.39,2.87,11.24,11.24,0,0,0,.56,1.54h.79a3.1,3.1,0,0,1,2.42,1.06,9.19,9.19,0,0,1,1,1.44l.32.5.45-.48c1-1.06,2.29-2.49,3.95-2.58a11.43,11.43,0,0,0,.44-1.26,14.9,14.9,0,0,1,.73-2,2.82,2.82,0,0,1,2.52-1.85,2.89,2.89,0,0,1,2.41,1.53,6.29,6.29,0,0,1,.06,5c-.46.67-2.59,2.67-4,2.73-.05.11-.13.27-.22.52-.18.45-.35.92-.52,1.38a13.2,13.2,0,0,1-2,4.09C234.73,178.23,232.85,178.44,231.41,178.44Z"/><path class="cls-2" d="M229.75,172.47c1.42-4.19-1.65-6-2.1-9.82-.16-1.34,1.39-8.59,4.4-8.59s4.27,6.75,3,10.31c-.54,1.54-1.75,2.78-2.05,4.42l.07,3.68Z"/><path class="cls-8" d="M243.17,69.7c0-3.93-5.25-5.93-5.25-9.58,0-4.09,5.74-6.51,5.16-11-.69-5.41-5.43-9.75-11.28-10.35-7.75-.79-14.3,4.8-14.3,11.8,0,3.93,5.25,5.92,5.25,9.57s-5.25,5.65-5.25,9.58,5.25,5.92,5.25,9.57c0,4.1-5.74,6.51-5.16,11,.7,5.41,5.43,9.74,11.29,10.34,7.74.79,14.29-4.79,14.29-11.79,0-3.94-5.25-5.93-5.25-9.58S243.17,73.63,243.17,69.7Z"/><line class="cls-4" x1="230.34" y1="44.83" x2="230.34" y2="115.34"/><path class="cls-4" d="M223,89.59c3.68,0,3.68,2.94,7.37,2.94s3.68-2.94,7.36-2.94"/><path class="cls-4" d="M223,79.52c3.68,0,3.68,3,7.37,3s3.68-3,7.36-3"/><path class="cls-4" d="M223,69.46c3.68,0,3.68,2.94,7.37,2.94s3.68-2.94,7.36-2.94"/><path class="cls-4" d="M223,59.39c3.68,0,3.68,3,7.37,3s3.68-3,7.36-3"/><path class="cls-4" d="M223,49.32c3.68,0,3.68,3,7.37,3s3.68-3,7.36-3"/><path class="cls-5" d="M168.25,42.46a7.62,7.62,0,1,0-15.23,0Z"/><path class="cls-7" d="M153,244.51c1.25-.46,4.3-1.59,4.3-2.86s-3.84-1.75-4.3-2.85,1.88-4.2,1-5.06-3.92,1.49-5.06,1-1.59-4.3-2.85-4.3-1.76,3.84-2.86,4.3-4.19-1.88-5-1,1.49,3.92,1,5.06-4.29,1.59-4.29,2.85,3,2.4,4.29,2.86Z"/><path class="cls-9" d="M183,62.5H93a15,15,0,0,0-15,15v120h75a15,15,0,0,0,30,0V77.5h15v-15Z"/><path class="cls-10" d="M183,77.5a15,15,0,0,1,30,0H183"/><path class="cls-10" d="M153,197.5V190H63v7.5a15,15,0,0,0,15,15h90A15,15,0,0,1,153,197.5Z"/><line class="cls-11" x1="100.5" y1="100" x2="160.5" y2="100"/><line class="cls-11" x1="100.5" y1="122.5" x2="160.5" y2="122.5"/><line class="cls-11" x1="100.5" y1="145" x2="160.5" y2="145"/><line class="cls-11" x1="100.5" y1="167.5" x2="160.5" y2="167.5"/><polygon class="cls-12" points="108 175 89.25 158.13 70.5 175 70.5 107.5 108 107.5 108 175"/><polygon class="cls-13" points="113.1 103.75 116.51 94.89 108.55 89.73 106.09 80.57 96.63 81.06 89.25 75.1 81.88 81.06 72.41 80.57 69.95 89.73 62 94.89 65.4 103.75 62 112.61 69.95 117.77 72.41 126.93 81.88 126.44 89.25 132.4 96.63 126.44 106.09 126.93 108.55 117.77 116.51 112.61 113.1 103.75"/><polygon class="cls-13" points="113.1 103.75 116.51 94.89 108.55 89.73 106.09 80.57 96.63 81.06 89.25 75.1 81.88 81.06 72.41 80.57 69.95 89.73 62 94.89 65.4 103.75 62 112.61 69.95 117.77 72.41 126.93 81.88 126.44 89.25 132.4 96.63 126.44 106.09 126.93 108.55 117.77 116.51 112.61 113.1 103.75"/><circle class="cls-10" cx="89.25" cy="103.75" r="11.25"/></g></svg>