<svg xmlns="http://www.w3.org/2000/svg" xmlns:xlink="http://www.w3.org/1999/xlink" width="250" height="250" viewBox="0 0 250 250">
    <defs>
        <path id="a" d="M0 .432h21.159v85.36H0z"/>
        <path id="c" d="M0 .86h45.182v14.484H.001z"/>
        <path id="e" d="M.362.771H4.82V16.67H.362z"/>
        <path id="g" d="M0 .803h42.266V43.07H0z"/>
        <path id="i" d="M0 0h15.235v7.617H0z"/>
        <path id="k" d="M0 0h22.376v14.043H0z"/>
    </defs>
    <g fill="none" fill-rule="evenodd" transform="translate(0 -1)">
        <circle cx="125" cy="126" r="125" fill="#E0E0E0"/>
        <g transform="translate(29 .568)">
            <mask id="b" fill="#fff">
                <use xlink:href="#a"/>
            </mask>
            <path fill="#FFAEE4" d="M21.159 43.112c0 3.13-4.86 6.134-4.973 9.08-.122 3.18 4.488 6.393 4.248 9.282-.27 3.262-5.393 6.018-5.794 8.804-.497 3.46 3.657 7.034 2.995 9.563-1.33 5.084-5.307 5.951-7.056 5.951-1.75 0-5.727-.868-7.057-5.95-.66-2.53 3.494-6.106 2.996-9.565-.4-2.786-5.524-5.54-5.795-8.802-.24-2.889 4.372-6.103 4.25-9.282C4.859 49.246 0 46.243 0 43.113s4.86-6.135 4.973-9.08c.122-3.18-4.49-6.394-4.25-9.283.27-3.262 5.394-6.018 5.795-8.804.498-3.459-3.656-7.034-2.994-9.563C4.853 1.3 8.83.433 10.579.433c1.75 0 5.726.867 7.056 5.951.662 2.53-3.492 6.104-2.995 9.563.401 2.786 5.524 5.541 5.794 8.802.24 2.89-4.37 6.103-4.248 9.282.113 2.947 4.973 5.951 4.973 9.081" mask="url(#b)"/>
        </g>
        <path stroke="#000" stroke-linejoin="round" stroke-width="1.623" d="M39.58 105.568V19.677M43.65 78.132l-4.07 4.071-4.072-4.07M43.65 65.058l-4.07 4.071-4.072-4.07M43.65 38.91l-4.07 4.07-4.072-4.07M43.65 51.984l-4.07 4.071-4.072-4.071M43.65 25.835l-4.07 4.072-4.072-4.072"/>
        <path fill="#DBA826" d="M99.828 135.7l33.949 33.948a7.735 7.735 0 0 1 0 10.936 7.732 7.732 0 0 1-10.937 0l-33.949-33.949-5.467-5.466c-12.08-12.08-12.08-31.665 0-43.745 0 0 25.942-18.938 44.389-.49l17.93 19.064"/>
        <path stroke="#020303" stroke-width="3" d="M99.828 135.7l33.949 33.948a7.735 7.735 0 0 1 0 10.936 7.732 7.732 0 0 1-10.937 0l-33.949-33.949-5.467-5.466c-12.08-12.08-12.08-31.665 0-43.745 0 0 25.942-18.938 44.389-.49l17.93 19.064"/>
        <path fill="#EFAFCE" d="M166.322 141.731c12.08-12.08 12.08-31.664 0-43.745-12.08-12.078-31.665-12.078-43.745 0"/>
        <path stroke="#020303" stroke-width="3" d="M166.322 141.731c12.08-12.08 12.08-31.664 0-43.745-12.08-12.078-31.665-12.078-43.745 0"/>
        <path fill="#A3D39F" d="M199.13 108.923l-43.744-43.745-16.405 16.405 43.745 43.744z"/>
        <path stroke="#020303" stroke-width="3" d="M199.13 108.923l-43.744-43.745-16.405 16.405 43.745 43.744z"/>
        <path fill="#F05822" d="M186.828 111.094a3.866 3.866 0 1 1-5.468-5.469 3.866 3.866 0 1 1 5.468 5.469"/>
        <path stroke="#020303" stroke-width="3" d="M186.828 111.094a3.866 3.866 0 1 1-5.468-5.469 3.866 3.866 0 1 1 5.468 5.469z"/>
        <path fill="#DBA826" d="M110.745 124.745l37.398 37.398a7.735 7.735 0 0 1 0 10.936 7.735 7.735 0 0 1-10.937 0L99.81 135.682"/>
        <path stroke="#020303" stroke-width="3" d="M110.745 124.745l37.398 37.398a7.735 7.735 0 0 1 0 10.936 7.735 7.735 0 0 1-10.937 0L99.81 135.682"/>
        <path fill="#DBA826" d="M125.009 117.137l37.415 37.415a7.733 7.733 0 0 1-10.935 10.937l-37.417-37.417"/>
        <path stroke="#020303" stroke-width="3" d="M125.009 117.137l37.415 37.415a7.733 7.733 0 0 1-10.935 10.937l-37.417-37.417"/>
        <path fill="#DBA826" d="M135.728 105.984l33.256 33.255a7.733 7.733 0 1 1-10.939 10.935l-33.037-33.037"/>
        <path stroke="#020303" stroke-width="3" d="M135.728 105.984l33.256 33.255a7.733 7.733 0 1 1-10.939 10.935l-33.037-33.037"/>
        <path fill="#F05822" d="M94.36 64.615L50.613 108.36l16.405 16.404 43.745-43.745z"/>
        <path stroke="#020303" stroke-width="3" d="M94.36 64.615L50.613 108.36l16.405 16.404 43.745-43.745z"/>
        <path fill="#A3D39F" d="M69.754 105.625a3.866 3.866 0 1 1-5.469 5.469 3.866 3.866 0 1 1 5.469-5.469"/>
        <path stroke="#020303" stroke-width="3" d="M69.754 105.625a3.866 3.866 0 1 1-5.469 5.469 3.866 3.866 0 1 1 5.469-5.469z"/>
        <path fill="#EFAFCE" d="M77.971 142.593a7.733 7.733 0 0 0 10.935 10.937l5.469-5.469a7.733 7.733 0 0 0-10.935-10.937l-5.469 5.469z"/>
        <path stroke="#020303" stroke-width="3" d="M77.971 142.593a7.733 7.733 0 0 0 10.935 10.937l5.469-5.469a7.733 7.733 0 0 0-10.935-10.937l-5.469 5.469z"/>
        <path fill="#EFAFCE" d="M122.577 97.987L95.344 125.22c5.468 5.469 16.403 5.469 21.872 0l19.757-19.757"/>
        <path stroke="#020303" stroke-width="3" d="M122.577 97.987L95.344 125.22c5.468 5.469 16.403 5.469 21.872 0l19.757-19.757"/>
        <path fill="#EFAFCE" d="M96.094 168.215a7.733 7.733 0 0 1-10.937-10.935l9.219-9.219a7.733 7.733 0 0 1 10.937 10.935l-9.219 9.219z"/>
        <path stroke="#020303" stroke-width="3" d="M96.094 168.215a7.733 7.733 0 0 1-10.937-10.935l9.219-9.219a7.733 7.733 0 0 1 10.937 10.935l-9.219 9.219z"/>
        <path fill="#EFAFCE" d="M107.03 179.151a7.73 7.73 0 0 1-10.936 0 7.732 7.732 0 0 1 0-10.937l9.217-9.216a7.733 7.733 0 0 1 10.937 10.935l-9.218 9.218z"/>
        <path stroke="#020303" stroke-width="3" d="M107.03 179.151a7.73 7.73 0 0 1-10.936 0 7.732 7.732 0 0 1 0-10.937l9.217-9.216a7.733 7.733 0 0 1 10.937 10.935l-9.218 9.218z"/>
        <path fill="#EFAFCE" d="M121.716 186.337a7.733 7.733 0 0 1-10.937-10.935l5.468-5.468a7.733 7.733 0 0 1 10.937 10.935l-5.468 5.468z"/>
        <path stroke="#020303" stroke-width="3" d="M121.716 186.337a7.733 7.733 0 0 1-10.937-10.935l5.468-5.468a7.733 7.733 0 0 1 10.937 10.935l-5.468 5.468z"/>
        <g>
            <path stroke="#000" stroke-linejoin="round" stroke-width="1.623" d="M222.592 124.882l-.002 80.347"/>
            <path fill="#F50" d="M224.771 131.134c-.947 0-1.684-.297-2.18-.502-.496.205-1.234.502-2.18.502-3.967 0-7.194-3.228-7.194-7.194a2.833 2.833 0 0 1 5.667 0c0 .793.607 1.446 1.381 1.52.06-.023.131-.054.19-.078.481-.199 1.208-.5 2.136-.5.928 0 1.655.301 2.136.5.06.024.131.055.19.077a1.528 1.528 0 0 0 1.381-1.519 2.833 2.833 0 1 1 5.667 0c0 3.966-3.227 7.194-7.194 7.194"/>
            <path fill="#F50" d="M225.714 141.622c-1.143 0-2.043-.373-2.7-.646-.135-.054-.305-.125-.424-.166-.118.04-.288.112-.42.166-.658.273-1.56.646-2.702.646-4.462 0-8.275-3.313-8.868-7.705a2.834 2.834 0 1 1 5.616-.76c.214 1.584 1.593 2.78 3.217 2.798.113-.025.374-.134.568-.214.635-.264 1.506-.624 2.59-.624 1.086 0 1.956.36 2.592.624.193.08.454.189.567.214 1.624-.018 3.004-1.214 3.217-2.797a2.834 2.834 0 0 1 5.617.759c-.594 4.392-4.406 7.705-8.87 7.705"/>
            <path fill="#F50" d="M226.657 152.11c-1.317 0-2.399-.448-3.189-.775-.293-.121-.735-.305-.886-.316-.133.01-.576.195-.868.316-.79.327-1.872.775-3.189.775-4.997 0-9.423-3.511-10.524-8.347a2.834 2.834 0 0 1 5.526-1.258c.52 2.282 2.621 3.938 4.998 3.938.19 0 .65-.191 1.02-.344.803-.333 1.803-.747 3.046-.747 1.243 0 2.242.414 3.045.747.371.154.831.344 1.021.344 2.376 0 4.48-1.656 4.998-3.938a2.834 2.834 0 1 1 5.525 1.258c-1.1 4.836-5.526 8.347-10.523 8.347"/>
            <path fill="#F50" d="M227.6 162.598c-1.492 0-2.704-.502-3.677-.905-.496-.206-1.059-.439-1.332-.439-.273 0-.836.233-1.332.44-.973.402-2.185.904-3.677.904-5.595 0-10.604-3.729-12.179-9.065a2.834 2.834 0 0 1 5.435-1.605c.87 2.945 3.643 5.002 6.744 5.002.365 0 .92-.229 1.508-.474.936-.386 2.101-.869 3.501-.869s2.565.483 3.501.87c.588.244 1.143.473 1.508.473 3.101 0 5.874-2.057 6.744-5.002a2.832 2.832 0 1 1 5.435 1.605c-1.575 5.336-6.584 9.065-12.179 9.065"/>
            <path fill="#F50" d="M228.543 173.085c-1.667 0-3.052-.573-4.165-1.034-.697-.289-1.356-.563-1.787-.563-.43 0-1.09.274-1.787.563-1.113.461-2.498 1.034-4.165 1.034-6.24 0-11.8-3.95-13.839-9.83a2.835 2.835 0 0 1 5.355-1.857 8.975 8.975 0 0 0 8.484 6.02c.54 0 1.215-.279 1.996-.604 1.07-.442 2.398-.993 3.956-.993 1.558 0 2.888.551 3.956.993.781.325 1.456.604 1.996.604a8.975 8.975 0 0 0 8.484-6.02 2.834 2.834 0 0 1 5.355 1.857c-2.038 5.88-7.599 9.83-13.839 9.83"/>
            <g transform="translate(200 168.23)">
                <mask id="d" fill="#fff">
                    <use xlink:href="#c"/>
                </mask>
                <path fill="#F50" d="M29.486 15.344c-1.841 0-3.4-.646-4.652-1.165-.851-.353-1.654-.685-2.244-.685-.587 0-1.39.332-2.24.685-1.254.52-2.813 1.165-4.655 1.165-6.813 0-13.043-4.27-15.502-10.627a2.834 2.834 0 1 1 5.285-2.046c1.62 4.191 5.728 7.005 10.218 7.005.714 0 1.534-.34 2.484-.732 1.265-.524 2.695-1.118 4.41-1.118 1.716 0 3.148.594 4.412 1.118.95.392 1.77.732 2.485.732 4.49 0 8.597-2.814 10.219-7.005a2.835 2.835 0 0 1 5.284 2.046c-2.46 6.356-8.69 10.627-15.504 10.627" mask="url(#d)"/>
            </g>
            <g transform="translate(220 114.23)">
                <mask id="f" fill="#fff">
                    <use xlink:href="#e"/>
                </mask>
                <path fill="#F50" d="M2.591 16.67a2.23 2.23 0 0 1-2.229-2.23V3A2.23 2.23 0 0 1 4.82 3v11.44a2.23 2.23 0 0 1-2.229 2.23" mask="url(#f)"/>
            </g>
        </g>
        <g>
            <g transform="translate(0 142.197)">
                <mask id="h" fill="#fff">
                    <use xlink:href="#g"/>
                </mask>
                <path fill="#9FE2A2" d="M42.266 21.936c0 11.672-9.461 21.133-21.133 21.133C9.462 43.07 0 33.61 0 21.936 0 10.266 9.462.803 21.133.803c11.672 0 21.133 9.462 21.133 21.133" mask="url(#h)"/>
            </g>
            <path stroke="#000" stroke-width="1.623" d="M21.133 152.675v52.521"/>
            <path stroke="#000" stroke-linejoin="round" stroke-width="1.623" d="M31.302 161.551v4.642c0 5.615-4.553 10.168-10.168 10.168-5.617 0-10.17-4.553-10.17-10.168v-4.642M24.287 154.587a3.154 3.154 0 1 1-6.309 0M16.126 162.925a5.161 5.161 0 0 1-10.322 0M36.462 162.925a5.161 5.161 0 0 1-10.322 0"/>
        </g>
        <g>
            <path stroke="#000" stroke-linejoin="round" stroke-width="1.623" d="M136.318 191.144v59.428"/>
            <path fill="#DDA812" d="M136.33 195.3a2.917 2.917 0 0 1-2.917-2.918v-5.465a2.916 2.916 0 1 1 5.834 0v5.465a2.917 2.917 0 0 1-2.917 2.917"/>
            <path fill="#DDA812" d="M144.537 198.306c-1.489 0-3.443-.113-5.358-.992-.789-.362-1.482-.81-2.093-1.207-.228-.147-.529-.343-.768-.482-.239.14-.54.335-.767.482-.612.397-1.305.845-2.094 1.208-1.914.878-3.869.991-5.357.991a2.65 2.65 0 0 1 0-5.297c.95 0 2.166-.058 3.148-.509.44-.202.938-.526 1.422-.838 1.103-.715 2.244-1.455 3.648-1.455s2.545.74 3.65 1.455c.481.312.98.636 1.42.838.983.451 2.2.51 3.15.51a2.648 2.648 0 1 1 0 5.296"/>
            <path fill="#DDA812" d="M146.627 207.097c-1.799 0-4.156-.134-6.44-1.182-.945-.434-1.792-.983-2.539-1.467-.407-.264-.983-.637-1.33-.806-.346.169-.922.542-1.329.806-.748.484-1.594 1.033-2.54 1.467-2.283 1.048-4.641 1.182-6.44 1.182a2.649 2.649 0 1 1 0-5.297c1.261 0 2.88-.08 4.231-.7.596-.273 1.242-.692 1.868-1.098 1.302-.843 2.649-1.717 4.21-1.717 1.562 0 2.909.874 4.21 1.717.625.406 1.273.825 1.869 1.098 1.35.62 2.97.7 4.23.7a2.649 2.649 0 0 1 0 5.297"/>
            <path fill="#DDA812" d="M148.717 215.887c-2.108 0-4.87-.156-7.521-1.373-1.101-.505-2.103-1.154-2.987-1.727-.596-.386-1.471-.954-1.89-1.104-.42.15-1.295.718-1.891 1.104-.884.573-1.886 1.222-2.987 1.727-2.652 1.217-5.412 1.373-7.522 1.373a2.648 2.648 0 1 1 0-5.297c1.57 0 3.593-.1 5.313-.89.752-.346 1.547-.86 2.315-1.358 1.569-1.018 3.052-1.978 4.772-1.978 1.718 0 3.2.96 4.77 1.978.77.498 1.564 1.012 2.316 1.358 1.719.79 3.743.89 5.312.89a2.649 2.649 0 0 1 0 5.297"/>
            <path fill="#DDA812" d="M150.808 224.678c-2.42 0-5.584-.178-8.604-1.563-1.257-.577-2.414-1.327-3.433-1.988-.792-.512-1.976-1.28-2.452-1.382-.478.102-1.661.87-2.452 1.382-1.021.66-2.177 1.41-3.434 1.988-3.021 1.385-6.185 1.563-8.604 1.563a2.649 2.649 0 0 1 0-5.297c1.88 0 4.306-.123 6.395-1.081.907-.417 1.85-1.028 2.762-1.618 1.776-1.152 3.455-2.24 5.333-2.24 1.877 0 3.555 1.088 5.333 2.24.91.59 1.853 1.2 2.76 1.618 2.089.958 4.515 1.08 6.396 1.08a2.648 2.648 0 0 1 0 5.298"/>
            <path fill="#DDA812" d="M152.898 233.469c-2.73 0-6.297-.2-9.686-1.755-1.413-.648-2.723-1.497-3.88-2.247-.992-.643-2.491-1.614-3.022-1.65-.515.036-2.014 1.007-3.005 1.65-1.156.75-2.467 1.599-3.881 2.248-3.388 1.554-6.956 1.754-9.684 1.754a2.65 2.65 0 1 1 0-5.298c2.19 0 5.019-.144 7.475-1.271 1.065-.49 2.155-1.195 3.209-1.878 1.985-1.287 3.86-2.502 5.895-2.502 2.035 0 3.909 1.215 5.894 2.502 1.055.683 2.145 1.389 3.208 1.878 2.457 1.127 5.287 1.27 7.477 1.27a2.648 2.648 0 0 1 0 5.299"/>
            <path fill="#DDA812" d="M154.987 242.26c-3.039 0-7.01-.222-10.767-1.946-1.57-.72-3.035-1.67-4.327-2.508-1.175-.76-2.949-1.91-3.575-1.91-.626 0-2.4 1.15-3.575 1.91-1.293.838-2.758 1.787-4.327 2.508-3.758 1.724-7.728 1.945-10.768 1.945a2.648 2.648 0 0 1 0-5.298c2.501 0 5.734-.166 8.56-1.462 1.218-.56 2.457-1.362 3.654-2.138 2.192-1.42 4.263-2.763 6.456-2.763 2.192 0 4.264 1.342 6.456 2.763 1.197.776 2.435 1.578 3.655 2.138 2.826 1.296 6.058 1.462 8.558 1.462a2.648 2.648 0 0 1 0 5.298"/>
        </g>
        <g transform="translate(78 215)">
            <mask id="j" fill="#fff">
                <use xlink:href="#i"/>
            </mask>
            <path fill="#FFAEE4" d="M15.235 7.617A7.618 7.618 0 0 0 0 7.617h15.235z" mask="url(#j)"/>
        </g>
        <g transform="translate(118 29)">
            <mask id="l" fill="#fff">
                <use xlink:href="#k"/>
            </mask>
            <path fill="#DDA812" d="M18.082 14.043c1.252-.453 4.294-1.59 4.294-2.854 0-1.265-3.838-1.756-4.294-2.856-.473-1.139 1.876-4.197 1.018-5.056-.859-.859-3.917 1.49-5.057 1.018C12.944 3.84 12.453 0 11.188 0 9.924 0 9.433 3.84 8.333 4.295c-1.139.472-4.197-1.877-5.056-1.019-.859.86 1.49 3.918 1.018 5.057C3.839 9.433 0 9.924 0 11.19c0 1.263 3.042 2.401 4.295 2.854h13.787z" mask="url(#l)"/>
        </g>
        <g>
            <path fill="#9FE2A2" d="M221 30.5c0 4.784-6.927 9.104-8.62 12.878C209.285 50.285 206.755 56 200.5 56c-6.255 0-8.785-5.715-11.882-12.622-1.69-3.774-8.618-8.094-8.618-12.879 0-4.783 6.927-9.103 8.618-12.877C191.715 10.715 194.245 5 200.5 5c6.255 0 8.785 5.715 11.882 12.622C214.073 21.396 221 25.716 221 30.5"/>
            <path stroke="#000" stroke-linejoin="round" stroke-width="1.623" d="M200.283 11.786V68"/>
            <path stroke="#231F20" stroke-width="1.623" d="M207 19c-3.59 0-6.5-2.996-6.5-6.692V12c0 3.696-2.91 6.693-6.5 6.693M207 28c-3.59 0-6.5-2.997-6.5-6.693V21c0 3.696-2.91 6.692-6.5 6.692M207 37c-3.59 0-6.5-2.996-6.5-6.692V30c0 3.696-2.91 6.693-6.5 6.693M207 46c-3.59 0-6.5-2.997-6.5-6.693V39c0 3.696-2.91 6.692-6.5 6.692"/>
        </g>
    </g>
</svg>
