<svg xmlns="http://www.w3.org/2000/svg" xmlns:xlink="http://www.w3.org/1999/xlink" width="250" height="250" viewBox="0 0 250 250">
    <defs>
        <path id="a" d="M0 .344h25.672v62.035H0z"/>
        <path id="c" d="M0 .638h40.566V51.46H0z"/>
        <path id="e" d="M0 .86h45.182v14.484H.001z"/>
        <path id="g" d="M.362.771H4.82V16.67H.362z"/>
        <path id="i" d="M0 .803h42.266V43.07H0z"/>
        <path id="k" d="M0 0h15.235v7.618H0z"/>
        <path id="m" d="M.019.073h7.926v18.414H.019z"/>
    </defs>
    <g fill="none" fill-rule="evenodd">
        <circle cx="125" cy="125" r="125" fill="#E0E0E0"/>
        <path fill="#DBA826" d="M152.792 93.865c0 9.88-10.886 17.89-24.316 17.89-13.428 0-24.315-8.01-24.315-17.89s10.887-17.891 24.315-17.891c13.43 0 24.316 8.01 24.316 17.89"/>
        <path fill="#EFAFCE" d="M60.275 199.725h128.1v-71.167h-128.1z"/>
        <path stroke="#020303" stroke-width="3" d="M60.275 199.725h128.1v-71.167h-128.1z"/>
        <path fill="#DBA826" d="M67.392 128.558h14.233v-7.116H67.392z"/>
        <path stroke="#020303" stroke-width="3" d="M67.392 128.558h14.233v-7.116H67.392z"/>
        <path fill="#F05822" d="M67.392 199.725h14.233v-71.167H67.392z"/>
        <path stroke="#020303" stroke-width="3" d="M67.392 199.725h14.233v-71.167H67.392z"/>
        <path fill="#DBA826" d="M167.026 128.558h14.233v-7.116h-14.233z"/>
        <path stroke="#020303" stroke-width="3" d="M167.026 128.558h14.233v-7.116h-14.233z"/>
        <path fill="#F05822" d="M167.026 199.725h14.233v-71.167h-14.233z"/>
        <path stroke="#020303" stroke-width="3" d="M167.026 199.725h14.233v-71.167h-14.233z"/>
        <path fill="#F05822" d="M88.742 92.975V128.56h7.117v-28.467h56.933v28.467h7.117V92.975z"/>
        <path stroke="#020303" stroke-width="3" d="M88.742 92.975V128.56h7.117v-28.467h56.933v28.467h7.117V92.975z"/>
        <path fill="#DBA826" d="M95.858 114.325a7.117 7.117 0 1 0 14.234 0V100.09a7.117 7.117 0 1 0-14.234 0v14.234z"/>
        <path stroke="#020303" stroke-width="3" d="M95.858 114.325a7.117 7.117 0 1 0 14.234 0V100.09a7.117 7.117 0 1 0-14.234 0v14.234z"/>
        <path fill="#DBA826" d="M124.325 114.325a7.117 7.117 0 1 1-14.233 0V100.09a7.117 7.117 0 1 1 14.233 0v14.234z"/>
        <path stroke="#020303" stroke-width="3" d="M124.325 114.325a7.117 7.117 0 1 1-14.233 0V100.09a7.117 7.117 0 1 1 14.233 0v14.234z"/>
        <path fill="#DBA826" d="M138.558 114.325a7.117 7.117 0 1 1-14.232 0V100.09a7.115 7.115 0 1 1 14.232 0v14.234z"/>
        <path stroke="#020303" stroke-width="3" d="M138.558 114.325a7.117 7.117 0 1 1-14.232 0V100.09a7.115 7.115 0 1 1 14.232 0v14.234z"/>
        <path fill="#DBA826" d="M152.792 114.325a7.117 7.117 0 1 1-14.234 0V100.09a7.117 7.117 0 1 1 14.234 0v14.234z"/>
        <path stroke="#020303" stroke-width="3" d="M152.792 114.325a7.117 7.117 0 1 1-14.234 0V100.09a7.117 7.117 0 1 1 14.234 0v14.234z"/>
        <path fill="#DBA826" d="M124.325 78.742c0 7.116-5.586 14.233-14.233 14.233h7.117c7.116 0 14.233 7.117 14.233 14.234h-28.467s-7.117 0-7.117-7.117v-7.117c0-15.722 12.745-28.467 28.467-28.467 15.723 0 28.466 12.745 28.466 28.467"/>
        <path stroke="#020303" stroke-width="3" d="M124.325 78.742c0 7.116-5.586 14.233-14.233 14.233h7.117c7.116 0 14.233 7.117 14.233 14.234h-28.467s-7.117 0-7.117-7.117v-7.117c0-15.722 12.745-28.467 28.467-28.467 15.723 0 28.466 12.745 28.466 28.467"/>
        <path fill="#A3D39F" d="M95.859 71.625h56.933v-21.35H95.859z"/>
        <path stroke="#020303" stroke-width="3" d="M95.859 71.625h56.933v-21.35H95.859z"/>
        <path fill="#DBA826" d="M110.092 60.95a3.558 3.558 0 1 1-7.117 0 3.558 3.558 0 0 1 7.117 0"/>
        <path stroke="#020303" stroke-width="3" d="M110.092 60.95a3.558 3.558 0 1 1-7.117 0 3.558 3.558 0 0 1 7.117 0z"/>
        <g>
            <g transform="translate(195 23.656)">
                <mask id="b" fill="#fff">
                    <use xlink:href="#a"/>
                </mask>
                <path fill="#DDA812" d="M25.672 31.362c0-3.931-5.25-5.923-5.25-9.574 0-4.094 5.736-6.51 5.157-11.025-.694-5.41-5.425-9.746-11.282-10.344C6.553-.372.002 5.214.002 12.214c0 3.93 5.25 5.923 5.25 9.574 0 3.65-5.25 5.643-5.25 9.574 0 3.93 5.25 5.923 5.25 9.574 0 4.094-5.738 6.509-5.158 11.025.695 5.41 5.426 9.746 11.282 10.344 7.744.79 14.297-4.795 14.297-11.795 0-3.931-5.25-5.923-5.25-9.574s5.25-5.643 5.25-9.574" mask="url(#b)"/>
            </g>
            <path stroke="#000" stroke-linejoin="round" stroke-width="1.623" d="M207.837 30.15v70.506M200.471 74.908c3.683 0 3.683 2.946 7.365 2.946 3.682 0 3.682-2.946 7.365-2.946M200.471 64.842c3.683 0 3.683 2.946 7.365 2.946 3.682 0 3.682-2.946 7.365-2.946M200.471 54.776c3.683 0 3.683 2.945 7.365 2.945 3.682 0 3.682-2.945 7.365-2.945M200.471 44.71c3.683 0 3.683 2.945 7.365 2.945 3.682 0 3.682-2.946 7.365-2.946M200.471 34.643c3.683 0 3.683 2.946 7.365 2.946 3.682 0 3.682-2.946 7.365-2.946"/>
        </g>
        <g>
            <g transform="translate(18 175.362)">
                <mask id="d" fill="#fff">
                    <use xlink:href="#c"/>
                </mask>
                <path fill="#F50" d="M40.566 26.049c0 4.767-6.854 9.073-8.528 12.832-3.064 6.883-5.567 12.579-11.755 12.579-6.188 0-8.691-5.696-11.755-12.58C6.855 35.123 0 30.817 0 26.05c0-4.767 6.854-9.073 8.527-12.833C11.592 6.334 14.095.638 20.283.638c6.188 0 8.69 5.696 11.755 12.578 1.674 3.76 8.528 8.066 8.528 12.833" mask="url(#d)"/>
            </g>
            <path stroke="#000" stroke-linejoin="round" stroke-width="1.623" d="M38.283 183.149v56.213"/>
            <path stroke="#231F20" stroke-width="1.623" d="M44.985 189.85c-3.701 0-6.702-3-6.702-6.701v-.307a6.7 6.7 0 0 1-6.701 6.7M44.985 198.956c-3.701 0-6.702-3-6.702-6.701v-.307a6.7 6.7 0 0 1-6.701 6.7M44.985 208.062c-3.701 0-6.702-3-6.702-6.701v-.307a6.7 6.7 0 0 1-6.701 6.7M44.985 217.167c-3.701 0-6.702-3-6.702-6.7v-.308a6.7 6.7 0 0 1-6.701 6.701"/>
        </g>
        <g>
            <path stroke="#000" stroke-linejoin="round" stroke-width="1.623" d="M22.592 44.882l-.002 80.347"/>
            <path fill="#9FE2A2" d="M24.771 51.134c-.947 0-1.684-.297-2.18-.502-.496.205-1.234.502-2.18.502-3.967 0-7.194-3.228-7.194-7.194a2.833 2.833 0 0 1 5.667 0c0 .793.607 1.446 1.381 1.52.06-.023.131-.054.19-.078.481-.199 1.208-.5 2.136-.5.928 0 1.655.301 2.136.5.06.024.131.055.19.077a1.528 1.528 0 0 0 1.381-1.519 2.833 2.833 0 1 1 5.667 0c0 3.966-3.227 7.194-7.194 7.194"/>
            <path fill="#9FE2A2" d="M25.715 61.622c-1.143 0-2.043-.373-2.701-.646-.134-.054-.305-.125-.424-.166-.117.04-.288.112-.42.166-.659.273-1.56.646-2.703.646-4.461 0-8.274-3.313-8.867-7.705a2.834 2.834 0 1 1 5.615-.76c.215 1.584 1.593 2.78 3.218 2.798.113-.025.373-.134.567-.214.636-.264 1.506-.624 2.59-.624 1.087 0 1.957.36 2.593.624.192.08.454.189.567.214 1.623-.018 3.003-1.214 3.216-2.797a2.834 2.834 0 0 1 5.617.759c-.594 4.392-4.406 7.705-8.869 7.705"/>
            <path fill="#9FE2A2" d="M26.657 72.11c-1.317 0-2.399-.448-3.189-.775-.293-.121-.735-.305-.886-.316-.133.01-.576.195-.868.316-.79.327-1.872.775-3.189.775-4.997 0-9.423-3.511-10.524-8.347a2.834 2.834 0 0 1 5.526-1.258c.52 2.282 2.621 3.938 4.998 3.938.19 0 .65-.191 1.02-.344.803-.333 1.803-.747 3.046-.747 1.243 0 2.242.414 3.045.747.371.154.831.344 1.021.344 2.376 0 4.48-1.656 4.998-3.938a2.834 2.834 0 1 1 5.525 1.258c-1.1 4.836-5.526 8.347-10.523 8.347"/>
            <path fill="#9FE2A2" d="M27.6 82.598c-1.492 0-2.704-.502-3.677-.905-.496-.206-1.059-.439-1.332-.439-.273 0-.836.233-1.332.44-.973.402-2.185.904-3.677.904-5.595 0-10.604-3.729-12.179-9.065a2.834 2.834 0 0 1 5.435-1.605c.87 2.945 3.643 5.002 6.744 5.002.365 0 .92-.229 1.508-.474.936-.386 2.101-.869 3.501-.869s2.565.483 3.501.87c.588.244 1.143.473 1.508.473 3.101 0 5.874-2.057 6.744-5.002a2.832 2.832 0 1 1 5.435 1.605c-1.575 5.336-6.584 9.065-12.179 9.065"/>
            <path fill="#9FE2A2" d="M28.543 93.085c-1.667 0-3.052-.572-4.165-1.034-.697-.289-1.356-.563-1.787-.563-.43 0-1.09.274-1.787.563-1.113.461-2.498 1.034-4.165 1.034-6.24 0-11.8-3.95-13.839-9.83a2.835 2.835 0 0 1 5.355-1.857 8.975 8.975 0 0 0 8.484 6.02c.54 0 1.215-.279 1.996-.604 1.07-.441 2.398-.992 3.956-.992 1.558 0 2.888.55 3.956.992.781.325 1.456.604 1.996.604a8.975 8.975 0 0 0 8.484-6.02 2.834 2.834 0 0 1 5.355 1.857c-2.038 5.88-7.599 9.83-13.839 9.83"/>
            <g transform="translate(0 88.23)">
                <mask id="f" fill="#fff">
                    <use xlink:href="#e"/>
                </mask>
                <path fill="#9FE2A2" d="M29.486 15.344c-1.841 0-3.4-.646-4.652-1.165-.851-.353-1.654-.685-2.244-.685-.587 0-1.39.332-2.24.685-1.254.52-2.813 1.165-4.655 1.165-6.813 0-13.043-4.27-15.502-10.627a2.834 2.834 0 1 1 5.285-2.046c1.62 4.191 5.728 7.005 10.218 7.005.714 0 1.534-.34 2.484-.732 1.265-.524 2.695-1.118 4.41-1.118 1.716 0 3.148.594 4.412 1.118.95.392 1.77.732 2.485.732 4.49 0 8.597-2.814 10.219-7.005a2.835 2.835 0 0 1 5.284 2.046c-2.46 6.356-8.69 10.627-15.504 10.627" mask="url(#f)"/>
            </g>
            <g transform="translate(20 34.23)">
                <mask id="h" fill="#fff">
                    <use xlink:href="#g"/>
                </mask>
                <path fill="#9FE2A2" d="M2.591 16.67a2.23 2.23 0 0 1-2.229-2.23V3A2.23 2.23 0 0 1 4.82 3v11.44a2.23 2.23 0 0 1-2.229 2.23" mask="url(#h)"/>
            </g>
        </g>
        <g>
            <g transform="translate(59 -.803)">
                <mask id="j" fill="#fff">
                    <use xlink:href="#i"/>
                </mask>
                <path fill="#FFAEE4" d="M42.266 21.936c0 11.671-9.462 21.133-21.133 21.133C9.46 43.07 0 33.607 0 21.936 0 10.266 9.46.803 21.133.803c11.67 0 21.133 9.462 21.133 21.133" mask="url(#j)"/>
            </g>
            <path stroke="#000" stroke-width="1.623" d="M80.133 9.675v52.521"/>
            <path stroke="#000" stroke-linejoin="round" stroke-width="1.623" d="M90.301 18.551v4.642c0 5.615-4.553 10.168-10.168 10.168-5.616 0-10.169-4.553-10.169-10.168v-4.642M83.287 11.587a3.154 3.154 0 1 1-6.309 0M75.125 19.925a5.161 5.161 0 0 1-10.32 0M95.462 19.925a5.161 5.161 0 0 1-10.322 0"/>
        </g>
        <g transform="translate(142 31)">
            <mask id="l" fill="#fff">
                <use xlink:href="#k"/>
            </mask>
            <path fill="#F50" d="M15.235 7.618A7.618 7.618 0 1 0 0 7.618h15.235z" mask="url(#l)"/>
        </g>
        <g>
            <path stroke="#000" stroke-linejoin="round" stroke-width="1.623" d="M220.982 220.927v-72.276"/>
            <path fill="#FFAEE4" d="M220.44 211.171c-1.451 0-6.302-.039-7.833-.539-2.94-.96-5.246-3.12-6.928-4.892-.804-.849-1.546-1.566-2.48-1.748a2.389 2.389 0 0 0-.457-.041c-.398 0-.841.076-1.31.158-.561.096-1.142.196-1.774.196-.366 0-.705-.034-1.037-.103-2.034-.425-6.733-3.593-6.618-6.563.032-.853.549-2.84 4.627-2.84 1.185 0 2.51.172 3.298.428 1.63.528 2.656 1.663 3.56 2.665 1.014 1.123 1.693 1.818 2.819 1.955a15.09 15.09 0 0 0 1.872.096c.335 0 .666-.006.997-.012.343-.005.684-.01 1.026-.01 1.387 0 2.9.085 4.563.708 1.153.43 2.005.9 2.758 1.316 1.156.639 1.992 1.1 3.542 1.25.037.004.075.005.115.005.789 0 2.239-.54 3.773-1.113 2.659-.992 5.97-2.228 9.509-2.228l.458.004c1.518 0 2.122-.667 3.123-1.773.572-.632 1.22-1.348 2.124-1.987 1.207-.855 2.808-1.325 4.509-1.325 1.523 0 3.042.373 4.277 1.05a1.913 1.913 0 0 1 1.01 1.748c-.051 2.436-4.914 5.908-5.238 6.068a5.403 5.403 0 0 1-2.484.574c-.513 0-1.008-.058-1.486-.115-.29-.034-.591-.072-.913-.094a6.089 6.089 0 0 0-.44-.017c-.997 0-1.668.28-2.566 1.075-.513.452-.998.918-1.478 1.378-1.542 1.482-3.137 3.014-5.43 3.945-1.787.725-7.714.782-9.488.782"/>
            <path fill="#FFAEE4" d="M220.512 200.413c-1.634 0-5.578-.054-6.92-.559-2.602-.979-4.627-3.157-6.1-4.945-.654-.793-1.301-1.518-2.034-1.684a2.978 2.978 0 0 0-.663-.063c-.303 0-.607.025-.91.05-.376.03-.753.057-1.127.057a5.62 5.62 0 0 1-1.33-.144c-1.771-.425-5.904-3.297-5.806-6.238.023-.667.392-2.847 4.202-2.847 1.064 0 2.26.18 2.977.447 1.475.55 2.379 1.702 3.177 2.718.854 1.09 1.422 1.763 2.3 1.886.459.065.946.093 1.579.093.288 0 .574-.005.86-.01.299-.007.598-.012.897-.012 1.182 0 2.592.087 4.09.732 1.02.44 1.77.915 2.432 1.335.974.62 1.679 1.067 2.955 1.21h.005c.684 0 1.968-.553 3.21-1.086 2.338-1.004 5.246-2.253 8.388-2.253.1 0 .398.005.398.005 1.133 0 1.59-.52 2.518-1.7.5-.636 1.067-1.357 1.862-2.005 1.094-.89 2.548-1.38 4.096-1.38 1.382 0 2.759.388 3.875 1.092.598.376.93 1.008.915 1.732-.05 2.188-3.8 5.341-4.288 5.62-1.014.577-2.114.846-3.46.846-.373 0-.765-.019-1.27-.06a4.388 4.388 0 0 0-.353-.017c-.681 0-1.208.161-2.042 1.008-.444.451-.864.916-1.281 1.377-1.35 1.492-2.747 3.035-4.777 3.984-1.564.732-6.378.811-8.375.811"/>
            <path fill="#FFAEE4" d="M220.614 189.655c-1.752 0-4.865-.076-6.021-.59-2.263-1.001-4-3.198-5.26-5-.515-.737-1.064-1.47-1.597-1.61-.407-.11-.892-.13-1.404-.15-.634-.026-1.351-.056-2.08-.261-1.526-.432-5.062-2.962-4.978-5.908.039-1.38 1.05-2.854 3.774-2.854.95 0 2.025.192 2.673.477 1.313.576 2.092 1.744 2.778 2.775.703 1.055 1.174 1.703 1.789 1.804.369.06.763.088 1.28.088.242 0 .482-.005.72-.011.259-.006.515-.011.772-.011 1.046 0 2.296.09 3.633.769.886.45 1.53.933 2.1 1.358.823.615 1.366 1.022 2.362 1.153.44-.001 1.595-.584 2.52-1.052 2.017-1.02 4.527-2.29 7.282-2.29.089 0 .338.005.338.005.77 0 1.098-.394 1.912-1.614.427-.638.909-1.361 1.593-2.016.977-.938 2.289-1.455 3.69-1.455 1.25 0 2.489.409 3.489 1.15.537.4.824 1.01.807 1.72-.047 1.96-2.776 4.769-3.326 5.138-1.163.78-2.674 1.246-4.04 1.246-.19 0-.376-.01-.556-.027a2.664 2.664 0 0 0-.262-.014c-.404 0-.796.07-1.511.925-.376.45-.732.914-1.085 1.374-1.155 1.504-2.35 3.058-4.112 4.029-1.346.742-5.14.852-7.28.852"/>
            <path fill="#FFAEE4" d="M220.697 178.897c-1.81 0-4.17-.11-5.145-.635-1.91-1.03-3.353-3.243-4.396-5.057-.242-.421-.81-1.41-1.18-1.528-.371-.12-.798-.208-1.25-.3-.551-.112-1.121-.23-1.687-.423-1.518-.521-4.197-2.828-4.133-5.568.04-1.738 1.355-2.861 3.348-2.861.859 0 1.797.205 2.39.522 1.139.608 1.786 1.789 2.357 2.83.398.728.893 1.632 1.293 1.712.274.056.57.08.966.08.194 0 .387-.005.58-.011.216-.006.43-.011.646-.011.919 0 2.019.097 3.197.824.75.464 1.29.954 1.765 1.386.694.632 1.066.949 1.708 1.065.336-.062 1.208-.598 1.849-.992 1.698-1.045 3.812-2.346 6.196-2.346.079 0 .238.005.239.005.454 0 .704-.341 1.347-1.512.35-.638.747-1.361 1.312-2.021.859-1 2.029-1.552 3.297-1.552 1.128 0 2.234.439 3.115 1.235.328.296.713.836.69 1.728-.042 1.726-1.801 4.136-2.352 4.585-1.034.844-2.782 1.698-4.122 1.698-.127 0-.25-.008-.367-.022a1.304 1.304 0 0 0-.162-.01c-.173 0-.411 0-.977.822-.31.45-.602.914-.892 1.373-.955 1.513-1.943 3.077-3.427 4.07-1.187.796-4.397.914-6.205.914"/>
            <path fill="#FFAEE4" d="M220.77 168.139c-2.165 0-3.611-.24-4.3-.712-1.528-1.052-2.625-3.17-3.496-5.1-.143-.32-.58-1.287-.835-1.464-.56-.228-1.28-.544-1.922-.827l-.433-.19c-1.34-.588-3.301-2.651-3.254-5.212.03-1.715 1.205-2.868 2.92-2.868.768 0 1.608.235 2.142.599.939.64 1.426 1.775 1.897 2.873.236.549.63 1.467.88 1.63.115.022.309.042.572.042.146 0 .29-.005.436-.01.176-.006.35-.012.525-.012.759 0 1.76.104 2.79.915.608.478 1.037.976 1.416 1.416.46.533.705.795.993.91.283-.153.8-.56 1.194-.868 1.309-1.028 3.102-2.435 5.14-2.435.07 0 .142.002.212.005.164-.117.508-.917.713-1.394.274-.634.583-1.354 1.025-2.011.727-1.083 1.76-1.681 2.906-1.681 1.02 0 2 .48 2.758 1.354 1.474 1.699-.291 5.169-.801 5.7-.71.739-2.705 2.189-4.095 2.189a2.156 2.156 0 0 1-.322-.026c-.021 0-.186.13-.49.693-.242.45-.472.916-.7 1.377-.75 1.515-1.526 3.082-2.714 4.096-.977.835-3.344 1.01-5.157 1.01"/>
            <path fill="#FFAEE4" d="M220.796 157.38c-1.727 0-2.903-.285-3.496-.848-.897-.851-1.66-2.377-2.548-5.102-.097-.296-.382-1.167-.573-1.438-.34-.205-.691-.486-1.033-.757-.255-.203-.544-.434-.721-.54-1.138-.69-2.351-2.49-2.32-4.812.028-2.122 1.36-2.875 2.494-2.875.7 0 1.458.288 1.93.733.705.663 1.039 1.737 1.392 2.872.146.47.378 1.217.56 1.537l.093.002c.096 0 .19-.005.284-.01.138-.006.275-.012.413-.012.616 0 1.538.11 2.416 1.064.45.49.765.993 1.042 1.436.086.138.209.335.325.502.149-.154.312-.331.45-.481.973-1.053 2.292-2.483 3.946-2.578.145-.3.32-.861.444-1.26.195-.626.417-1.335.73-1.98.81-1.665 2.028-1.845 2.515-1.845.935 0 1.79.54 2.408 1.523.815 1.296.629 4.17.066 4.979-.466.67-2.596 2.675-3.977 2.737a5.213 5.213 0 0 0-.23.517c-.176.454-.344.92-.51 1.384-.565 1.576-1.1 3.065-1.964 4.086-.818.964-2.7 1.167-4.136 1.167"/>
            <g transform="translate(217 132.927)">
                <mask id="n" fill="#fff">
                    <use xlink:href="#m"/>
                </mask>
                <path fill="#FFAEE4" d="M2.128 18.487C3.555 14.298.48 12.471.03 8.667-.129 7.321 1.422.071 4.432.071c3.065 0 4.272 6.76 3.031 10.312-.538 1.54-1.748 2.778-2.05 4.42l.064 3.683H2.128z" mask="url(#n)"/>
            </g>
        </g>
        <path fill="#9FE2A2" d="M143.082 228.043c1.252-.453 4.294-1.59 4.294-2.854 0-1.265-3.838-1.756-4.294-2.855-.473-1.14 1.876-4.198 1.018-5.057-.859-.859-3.917 1.49-5.057 1.018-1.099-.456-1.59-4.295-2.855-4.295-1.264 0-1.755 3.839-2.855 4.295-1.139.472-4.197-1.877-5.056-1.018s1.49 3.917 1.018 5.057c-.456 1.099-4.295 1.59-4.295 2.855 0 1.264 3.042 2.401 4.295 2.854h13.787z"/>
    </g>
</svg>
