<svg xmlns="http://www.w3.org/2000/svg" xmlns:xlink="http://www.w3.org/1999/xlink" width="250" height="251" viewBox="0 0 250 251">
    <defs>
        <path id="a" d="M0 .638h40.566V51.46H0z"/>
        <path id="c" d="M0 .344h25.672v62.035H0z"/>
        <path id="e" d="M0 0h15.235v7.618H0z"/>
        <path id="g" d="M0 .432h21.159v85.36H0z"/>
        <path id="i" d="M0 .027h42.636v11.66H0z"/>
        <path id="k" d="M0 .86h45.182v14.484H.001z"/>
        <path id="m" d="M0 0h15.235v7.617H0z"/>
    </defs>
    <g fill="none" fill-rule="evenodd">
        <circle cx="125" cy="125" r="125" fill="#E0E0E0"/>
        <path fill="#F05822" d="M57.165 50.166v73.503h25.46l25.46 24.778v-24.778h67.892V50.166z"/>
        <path stroke="#020303" stroke-width="3" d="M57.165 50.166v73.503h25.46l25.46 24.778v-24.778h67.892V50.166z"/>
        <path fill="#A3D39F" d="M190.828 139.275v43.204h-15.753l-15.753 16.202v-16.202h-35.325v-43.204z"/>
        <path stroke="#020303" stroke-width="3" d="M190.828 139.275v43.204h-15.753l-15.753 16.202v-16.202h-35.325v-43.204z"/>
        <path fill="#EFAFCE" d="M94.294 87.294a7.427 7.427 0 1 1-14.853-.001 7.427 7.427 0 0 1 14.853.001"/>
        <path stroke="#020303" stroke-width="3" d="M94.294 87.294a7.427 7.427 0 1 1-14.853-.001 7.427 7.427 0 0 1 14.853.001z"/>
        <path fill="#A3D39F" d="M123.997 87.294a7.427 7.427 0 1 1-14.853-.001 7.427 7.427 0 0 1 14.853.001"/>
        <path stroke="#020303" stroke-width="3" d="M123.997 87.294a7.427 7.427 0 1 1-14.853-.001 7.427 7.427 0 0 1 14.853.001z"/>
        <path fill="#DBA826" d="M153.7 87.294a7.427 7.427 0 1 1-14.853-.001 7.427 7.427 0 0 1 14.853.001"/>
        <path stroke="#020303" stroke-width="3" d="M153.7 87.294a7.427 7.427 0 1 1-14.853-.001 7.427 7.427 0 0 1 14.853.001z"/>
        <g>
            <g transform="translate(74 186.362)">
                <mask id="b" fill="#fff">
                    <use xlink:href="#a"/>
                </mask>
                <path fill="#DDA812" d="M40.566 26.049c0 4.767-6.854 9.073-8.528 12.832-3.064 6.883-5.567 12.579-11.755 12.579-6.188 0-8.691-5.696-11.755-12.58C6.855 35.123 0 30.817 0 26.05c0-4.767 6.854-9.073 8.527-12.833C11.592 6.334 14.095.638 20.283.638c6.188 0 8.69 5.696 11.755 12.578 1.674 3.76 8.528 8.066 8.528 12.833" mask="url(#b)"/>
            </g>
            <path stroke="#000" stroke-linejoin="round" stroke-width="1.623" d="M94.283 194.149v56.213"/>
            <path stroke="#231F20" stroke-width="1.623" d="M100.985 200.85c-3.701 0-6.702-3-6.702-6.701v-.307a6.7 6.7 0 0 1-6.701 6.7M100.985 209.956c-3.701 0-6.702-3-6.702-6.701v-.307a6.7 6.7 0 0 1-6.701 6.7M100.985 219.062c-3.701 0-6.702-3-6.702-6.701v-.307a6.7 6.7 0 0 1-6.701 6.7M100.985 228.167c-3.701 0-6.702-3-6.702-6.7v-.308a6.7 6.7 0 0 1-6.701 6.701"/>
        </g>
        <g>
            <g transform="translate(214 138.656)">
                <mask id="d" fill="#fff">
                    <use xlink:href="#c"/>
                </mask>
                <path fill="#9FE2A2" d="M25.672 31.362c0-3.931-5.25-5.923-5.25-9.574 0-4.094 5.736-6.51 5.157-11.025-.694-5.41-5.425-9.746-11.282-10.344C6.553-.372.002 5.214.002 12.214c0 3.93 5.25 5.923 5.25 9.574 0 3.65-5.25 5.643-5.25 9.574 0 3.93 5.25 5.923 5.25 9.574 0 4.094-5.738 6.509-5.158 11.025.695 5.41 5.426 9.746 11.282 10.344 7.744.79 14.297-4.795 14.297-11.795 0-3.931-5.25-5.923-5.25-9.574s5.25-5.643 5.25-9.574" mask="url(#d)"/>
            </g>
            <path stroke="#000" stroke-linejoin="round" stroke-width="1.623" d="M226.837 145.15v70.507M219.471 189.908c3.683 0 3.683 2.946 7.365 2.946 3.682 0 3.682-2.946 7.365-2.946M219.471 179.842c3.683 0 3.683 2.946 7.365 2.946 3.682 0 3.682-2.946 7.365-2.946M219.471 169.775c3.683 0 3.683 2.946 7.365 2.946 3.682 0 3.682-2.946 7.365-2.946M219.471 159.71c3.683 0 3.683 2.945 7.365 2.945 3.682 0 3.682-2.946 7.365-2.946M219.471 149.643c3.683 0 3.683 2.946 7.365 2.946 3.682 0 3.682-2.946 7.365-2.946"/>
        </g>
        <g transform="translate(150 222)">
            <mask id="f" fill="#fff">
                <use xlink:href="#e"/>
            </mask>
            <path fill="#F50" d="M15.235 7.618A7.618 7.618 0 1 0 0 7.618h15.235z" mask="url(#f)"/>
        </g>
        <g>
            <g transform="translate(29 116.568)">
                <mask id="h" fill="#fff">
                    <use xlink:href="#g"/>
                </mask>
                <path fill="#9FE2A2" d="M21.159 43.112c0 3.13-4.86 6.134-4.973 9.08-.122 3.18 4.488 6.393 4.248 9.282-.27 3.262-5.393 6.018-5.794 8.804-.497 3.46 3.657 7.034 2.995 9.563-1.33 5.084-5.307 5.951-7.056 5.951-1.75 0-5.727-.868-7.057-5.95-.66-2.53 3.494-6.106 2.996-9.565-.4-2.786-5.524-5.54-5.795-8.802-.24-2.889 4.372-6.103 4.25-9.282C4.859 49.246 0 46.243 0 43.113s4.86-6.135 4.973-9.08c.122-3.18-4.49-6.394-4.25-9.283.27-3.262 5.394-6.018 5.795-8.804.498-3.459-3.656-7.034-2.994-9.563C4.853 1.3 8.83.433 10.579.433c1.75 0 5.726.867 7.056 5.95.662 2.53-3.492 6.105-2.995 9.564.401 2.786 5.524 5.541 5.794 8.802.24 2.89-4.37 6.103-4.248 9.282.113 2.947 4.973 5.951 4.973 9.081" mask="url(#h)"/>
            </g>
            <path stroke="#000" stroke-linejoin="round" stroke-width="1.623" d="M39.58 221.568v-85.891M43.65 194.132l-4.07 4.071-4.072-4.07M43.65 181.058l-4.07 4.071-4.072-4.07M43.65 154.91l-4.07 4.07-4.072-4.07M43.65 167.984l-4.07 4.071-4.072-4.071M43.65 141.835l-4.07 4.071-4.072-4.07"/>
        </g>
        <g>
            <path stroke="#000" stroke-linejoin="round" stroke-width="1.623" d="M213.318 26.144v59.428"/>
            <path fill="#F50" d="M213.33 30.3a2.917 2.917 0 0 1-2.917-2.918v-5.465a2.916 2.916 0 1 1 5.834 0v5.465a2.917 2.917 0 0 1-2.917 2.917"/>
            <path fill="#F50" d="M221.537 33.306c-1.489 0-3.443-.113-5.358-.992-.789-.362-1.482-.81-2.094-1.207-.227-.147-.528-.343-.767-.482-.239.14-.54.335-.767.482-.612.397-1.305.845-2.094 1.208-1.915.878-3.869.991-5.358.991a2.648 2.648 0 0 1 0-5.297c.95 0 2.167-.058 3.15-.509.44-.202.938-.526 1.42-.838 1.104-.715 2.245-1.455 3.65-1.455 1.403 0 2.544.74 3.647 1.455.483.312.982.636 1.422.838.982.451 2.2.51 3.15.51a2.648 2.648 0 1 1 0 5.296"/>
            <path fill="#F50" d="M223.627 42.097c-1.799 0-4.156-.134-6.44-1.182-.945-.434-1.792-.983-2.54-1.467-.406-.264-.982-.637-1.329-.806-.346.169-.923.542-1.329.806-.748.484-1.595 1.033-2.54 1.467-2.283 1.048-4.641 1.182-6.44 1.182a2.649 2.649 0 1 1 0-5.297c1.26 0 2.88-.08 4.231-.7.595-.273 1.242-.692 1.868-1.098 1.302-.843 2.648-1.717 4.21-1.717 1.562 0 2.908.874 4.21 1.717.626.406 1.273.825 1.869 1.098 1.351.62 2.97.7 4.23.7a2.649 2.649 0 0 1 0 5.297"/>
            <path fill="#F50" d="M225.717 50.887c-2.109 0-4.87-.156-7.522-1.373-1.1-.505-2.103-1.154-2.987-1.727-.596-.386-1.47-.954-1.89-1.104-.419.15-1.294.718-1.89 1.104-.885.573-1.886 1.222-2.987 1.727-2.652 1.217-5.413 1.373-7.522 1.373a2.649 2.649 0 1 1 0-5.297c1.57 0 3.593-.1 5.312-.89.752-.346 1.547-.86 2.315-1.358 1.57-1.018 3.052-1.978 4.772-1.978 1.72 0 3.202.96 4.772 1.978.768.498 1.563 1.012 2.315 1.358 1.72.79 3.742.89 5.312.89a2.648 2.648 0 0 1 0 5.297"/>
            <path fill="#F50" d="M227.807 59.678c-2.419 0-5.583-.178-8.604-1.563-1.257-.577-2.413-1.327-3.433-1.988-.79-.512-1.975-1.28-2.452-1.382-.477.102-1.66.87-2.452 1.382-1.02.66-2.176 1.41-3.434 1.988-3.02 1.385-6.184 1.563-8.603 1.563a2.649 2.649 0 1 1 0-5.297c1.88 0 4.306-.123 6.394-1.081.908-.417 1.851-1.028 2.762-1.618 1.777-1.152 3.456-2.24 5.333-2.24 1.877 0 3.556 1.088 5.333 2.24.911.59 1.854 1.2 2.762 1.618 2.088.958 4.514 1.08 6.394 1.08a2.649 2.649 0 0 1 0 5.298"/>
            <path fill="#F50" d="M229.898 68.469c-2.73 0-6.296-.2-9.686-1.755-1.413-.648-2.723-1.497-3.88-2.247-.992-.643-2.491-1.614-3.022-1.65-.514.036-2.013 1.007-3.005 1.65-1.157.75-2.467 1.599-3.88 2.248-3.39 1.554-6.956 1.754-9.686 1.754a2.648 2.648 0 0 1 0-5.298c2.19 0 5.02-.144 7.476-1.271 1.065-.49 2.155-1.195 3.209-1.878 1.985-1.287 3.86-2.502 5.894-2.502 2.036 0 3.91 1.215 5.895 2.502 1.055.683 2.145 1.389 3.209 1.878 2.456 1.127 5.286 1.27 7.476 1.27a2.649 2.649 0 0 1 0 5.299"/>
            <g transform="translate(192 65.572)">
                <mask id="j" fill="#fff">
                    <use xlink:href="#i"/>
                </mask>
                <path fill="#F50" d="M39.987 11.688c-3.039 0-7.01-.221-10.767-1.945-1.569-.721-3.035-1.67-4.327-2.508-1.175-.76-2.949-1.911-3.575-1.911-.626 0-2.4 1.15-3.575 1.91-1.293.839-2.758 1.788-4.327 2.509-3.758 1.724-7.728 1.945-10.767 1.945a2.649 2.649 0 0 1 0-5.298c2.5 0 5.733-.166 8.557-1.462 1.22-.56 2.46-1.362 3.656-2.138C17.054 1.369 19.125.027 21.318.027c2.192 0 4.263 1.342 6.456 2.763 1.197.776 2.435 1.578 3.655 2.138 2.825 1.296 6.058 1.462 8.558 1.462a2.649 2.649 0 0 1 0 5.298" mask="url(#j)"/>
            </g>
        </g>
        <g>
            <path stroke="#000" stroke-linejoin="round" stroke-width="1.623" d="M28.592 10.882L28.59 91.23"/>
            <path fill="#FFAEE4" d="M30.771 17.134c-.947 0-1.684-.297-2.18-.502-.496.205-1.234.502-2.18.502-3.967 0-7.194-3.228-7.194-7.194a2.834 2.834 0 0 1 5.667 0c0 .793.607 1.446 1.381 1.52.06-.023.131-.054.19-.078.481-.199 1.208-.5 2.136-.5.928 0 1.655.301 2.136.5.06.024.131.055.19.078a1.53 1.53 0 0 0 1.381-1.52 2.833 2.833 0 1 1 5.667 0c0 3.966-3.227 7.194-7.194 7.194"/>
            <path fill="#FFAEE4" d="M31.715 27.622c-1.143 0-2.043-.373-2.701-.646-.134-.055-.305-.125-.424-.167-.117.042-.288.112-.42.167-.659.273-1.56.646-2.703.646-4.461 0-8.274-3.313-8.867-7.706a2.833 2.833 0 1 1 5.615-.758c.215 1.583 1.593 2.78 3.218 2.797.113-.026.373-.134.567-.214.636-.264 1.506-.624 2.59-.624 1.087 0 1.957.36 2.593.624.192.08.454.188.567.214 1.623-.018 3.003-1.214 3.216-2.797a2.834 2.834 0 0 1 5.617.758c-.594 4.393-4.406 7.706-8.869 7.706"/>
            <path fill="#FFAEE4" d="M32.657 38.11c-1.317 0-2.399-.448-3.189-.775-.293-.121-.735-.305-.886-.316-.133.01-.576.195-.868.316-.79.327-1.872.775-3.189.775-4.997 0-9.423-3.51-10.524-8.347a2.834 2.834 0 0 1 5.526-1.258c.52 2.282 2.621 3.938 4.998 3.938.19 0 .65-.191 1.02-.344.803-.333 1.803-.747 3.046-.747 1.243 0 2.242.414 3.045.747.371.153.831.344 1.021.344 2.376 0 4.48-1.656 4.998-3.938a2.832 2.832 0 1 1 5.525 1.258c-1.1 4.837-5.526 8.347-10.523 8.347"/>
            <path fill="#FFAEE4" d="M33.6 48.598c-1.492 0-2.704-.501-3.677-.905-.496-.205-1.059-.438-1.332-.438-.273 0-.836.233-1.332.438-.973.404-2.185.905-3.677.905-5.595 0-10.604-3.728-12.179-9.065a2.834 2.834 0 0 1 5.435-1.604c.87 2.945 3.643 5.002 6.744 5.002.365 0 .92-.23 1.508-.474.936-.387 2.101-.87 3.501-.87s2.565.483 3.501.87c.588.244 1.143.474 1.508.474 3.101 0 5.874-2.057 6.744-5.002a2.833 2.833 0 1 1 5.435 1.604c-1.575 5.337-6.584 9.065-12.179 9.065"/>
            <path fill="#FFAEE4" d="M34.543 59.086c-1.667 0-3.052-.575-4.165-1.035-.697-.29-1.356-.562-1.787-.562-.43 0-1.09.273-1.787.562-1.113.46-2.498 1.035-4.165 1.035-6.24 0-11.8-3.95-13.839-9.83a2.835 2.835 0 0 1 5.355-1.858 8.975 8.975 0 0 0 8.484 6.02c.54 0 1.215-.28 1.996-.603 1.07-.442 2.398-.993 3.956-.993 1.558 0 2.888.55 3.956.992.781.325 1.456.605 1.996.605a8.975 8.975 0 0 0 8.484-6.02 2.834 2.834 0 0 1 5.355 1.855c-2.038 5.882-7.599 9.832-13.839 9.832"/>
            <g transform="translate(6 54.23)">
                <mask id="l" fill="#fff">
                    <use xlink:href="#k"/>
                </mask>
                <path fill="#FFAEE4" d="M29.486 15.344c-1.841 0-3.4-.646-4.652-1.165-.851-.352-1.654-.685-2.244-.685-.587 0-1.39.333-2.24.685-1.254.519-2.813 1.165-4.655 1.165-6.813 0-13.043-4.271-15.502-10.626a2.834 2.834 0 1 1 5.285-2.046c1.62 4.19 5.728 7.005 10.218 7.005.714 0 1.534-.34 2.484-.733 1.265-.524 2.695-1.117 4.41-1.117 1.716 0 3.148.593 4.412 1.117.95.393 1.77.733 2.485.733 4.49 0 8.597-2.815 10.219-7.005a2.833 2.833 0 1 1 5.284 2.046c-2.46 6.355-8.69 10.626-15.504 10.626" mask="url(#l)"/>
            </g>
            <path fill="#FFAEE4" d="M28.591 16.898a2.23 2.23 0 0 1-2.229-2.229V3.23a2.23 2.23 0 0 1 4.458 0v11.44a2.23 2.23 0 0 1-2.229 2.23"/>
        </g>
        <g transform="translate(108 20)">
            <mask id="n" fill="#fff">
                <use xlink:href="#m"/>
            </mask>
            <path fill="#FFAEE4" d="M15.235 7.617A7.618 7.618 0 0 0 0 7.617h15.235z" mask="url(#n)"/>
        </g>
    </g>
</svg>
