<?xml version="1.0" encoding="UTF-8"?>
<svg width="64px" height="73px" viewBox="0 0 64 73" version="1.1" xmlns="http://www.w3.org/2000/svg" xmlns:xlink="http://www.w3.org/1999/xlink">
    <!-- Generator: sketchtool 50.2 (55047) - http://www.bohemiancoding.com/sketch -->
    <title>A2C9ABE6-EA69-4EFC-85DE-4BEE88858F7B</title>
    <desc>Created with sketchtool.</desc>
    <defs></defs>
    <g id="Symbols" stroke="none" stroke-width="1" fill="none" fill-rule="evenodd">
        <g id="job_white" fill="#000000">
            <path d="M23.4941942,5.31140463 C22.5268605,5.31140463 22.545313,6.80534253 23.4941942,6.79895515 C24.4395269,6.79256777 24.4664958,5.31140463 23.4941942,5.31140463 M23.4941942,8.69103992 C22.0598719,8.69103992 20.8583342,7.4880828 20.8583342,6.05517989 C20.8583342,4.62156727 22.0598719,3.41931986 23.4941942,3.41931986 C24.9285165,3.41931986 26.1300542,4.62085757 26.1300542,6.05517989 C26.1300542,7.4880828 24.9285165,8.69103992 23.4941942,8.69103992" id="Fill-35"></path>
            <path d="M59.9260522,71.0102514 L61.4128931,71.0102514 L61.4128931,39.1074027 L59.9260522,39.1074027 L59.9260522,71.0102514 Z M53.1667817,37.2153179 L58.0332578,37.2153179 L58.0332578,35.7270577 L53.1667817,35.7270577 L53.1667817,37.2153179 Z M53.1667817,71.0102514 L58.0332578,71.0102514 L58.0332578,39.1074027 L53.1667817,39.1074027 L53.1667817,71.0102514 Z M12.6118679,71.0102514 L51.2739872,71.0102514 L51.2739872,39.1074027 L12.6118679,39.1074027 L12.6118679,71.0102514 Z M15.9915032,22.2092262 L17.478344,22.2092262 L17.478344,23.6967767 L17.478344,24.6428191 L17.478344,31.40138 L17.478344,37.2153179 L15.9915032,37.2153179 L15.9915032,22.2092262 Z M21.8047314,35.7270577 C23.1716313,35.7270577 24.3902021,35.0876097 25.183657,34.0940168 C26.8933465,36.2352095 30.2339478,36.2352095 31.9429276,34.0940168 C33.6526171,36.2352095 36.9932183,36.2352095 38.7021981,34.0940168 C40.096067,35.8391917 42.6652144,36.238758 44.5147166,34.9747659 L44.5147166,37.2153179 L19.3711385,37.2153179 L19.3711385,34.9747659 C20.0645244,35.4488517 20.902691,35.7270577 21.8047314,35.7270577 Z M19.3711385,28.2616264 C20.1574963,28.7541646 21.058827,28.9677871 21.8047314,28.9677871 L24.2376146,28.9677871 L24.2376146,31.40138 C24.2376146,32.724278 23.1276294,33.8349729 21.8047314,33.8349729 C20.4811237,33.8349729 19.3711385,32.724278 19.3711385,31.40138 L19.3711385,28.2616264 Z M30.9968852,28.9677871 L30.9968852,31.40138 C30.9968852,32.724278 29.8869,33.8349729 28.564002,33.8349729 C27.2403943,33.8349729 26.1304091,32.724278 26.1304091,31.40138 L26.1304091,28.9677871 L30.9968852,28.9677871 Z M33.862691,22.705313 C35.4346969,21.5037753 37.7561557,22.6826023 37.7561557,24.6428191 L37.7561557,31.40138 C37.7561557,32.724278 36.6454608,33.8349729 35.3225628,33.8349729 C33.9989552,33.8349729 32.8896796,32.724278 32.8896796,31.40138 L32.8896796,28.9677871 L36.2686052,28.9677871 L36.2686052,28.0217447 C36.2686052,26.0735929 35.3083687,24.1467324 33.862691,22.705313 Z M19.3711385,21.2631838 C19.3711385,17.6330212 20.9254017,14.36552 23.3958995,12.0703204 L40.4899556,12.0703204 C42.7439921,14.1639625 44.2308329,17.0673829 44.4749729,20.3171414 L30.2282701,20.3171414 C31.9273139,18.8097191 32.8896796,16.6117496 32.8896796,14.5039133 L30.9968852,14.5039133 C30.9968852,17.2994579 28.7740759,20.3171414 25.183657,20.3171414 L25.183657,22.2092262 L28.564002,22.2092262 C31.126762,22.2092262 33.7328142,24.5342336 34.2743223,27.0757023 L21.8104091,27.0757023 C21.403036,27.0707344 19.3711385,26.9280828 19.3711385,24.6428191 L19.3711385,21.2631838 Z M19.3711385,10.1782356 L44.5147166,10.1782356 L44.5147166,1.93141449 L19.3711385,1.93141449 L19.3711385,10.1782356 Z M44.5147166,31.40138 C44.5147166,32.724278 43.4047314,33.8349729 42.0818334,33.8349729 C40.7582257,33.8349729 39.6489502,32.724278 39.6489502,31.40138 L39.6489502,24.6428191 C39.6489502,23.3192114 40.7582257,22.2092262 42.0818334,22.2092262 C43.4047314,22.2092262 44.5147166,23.3192114 44.5147166,24.6428191 L44.5147166,31.40138 Z M47.8943519,22.2092262 L47.8943519,37.2153179 L46.4075111,37.2153179 L46.4075111,31.40138 L46.4075111,24.6428191 L46.4075111,23.6967767 L46.2996353,23.6967767 C46.1789847,23.1559783 45.9582652,22.6527945 45.6552193,22.2092262 L47.8943519,22.2092262 Z M5.85259734,37.2153179 L10.7190734,37.2153179 L10.7190734,35.7270577 L5.85259734,35.7270577 L5.85259734,37.2153179 Z M5.85259734,71.0102514 L10.7190734,71.0102514 L10.7190734,39.1074027 L5.85259734,39.1074027 L5.85259734,71.0102514 Z M2.47367176,71.0102514 L3.96051257,71.0102514 L3.96051257,39.1074027 L2.47367176,39.1074027 L2.47367176,71.0102514 Z M59.9260522,37.2153179 L59.9260522,33.8349729 L51.2739872,33.8349729 L51.2739872,37.2153179 L49.7871464,37.2153179 L49.7871464,20.3171414 L46.3599606,20.3171414 C46.156274,17.19655 44.9689305,14.3428093 43.0903302,12.0703204 L46.4075111,12.0703204 L46.4075111,0.0393297191 L17.478344,0.0393297191 L17.478344,12.0703204 L20.7955249,12.0703204 C18.9169246,14.3428093 17.7295811,17.19655 17.5258945,20.3171414 L14.0987087,20.3171414 L14.0987087,37.2153179 L12.6118679,37.2153179 L12.6118679,33.8349729 L3.96051257,33.8349729 L3.96051257,37.2153179 L0.58016757,37.2153179 L0.58016757,72.9023361 L3.96051257,72.9023361 L12.6118679,72.9023361 L51.2739872,72.9023361 L59.9260522,72.9023361 L63.3056875,72.9023361 L63.3056875,37.2153179 L59.9260522,37.2153179 Z" id="Fill-36"></path>
        </g>
    </g>
</svg>