<svg xmlns="http://www.w3.org/2000/svg" width="36" height="35" viewBox="0 0 36 35">
    <g fill="none" fill-rule="evenodd">
        <path fill="#EFEFEF" d="M28.38 1.01H8.322a3.343 3.343 0 0 0-3.343 3.343v26.744h16.715a3.343 3.343 0 0 0 6.686 0V4.353h3.343V1.009H28.38z"/>
        <path stroke="#000" d="M28.38 1.01H8.322a3.343 3.343 0 0 0-3.343 3.343v26.744h16.715a3.343 3.343 0 0 0 6.686 0V4.353h3.343V1.009H28.38z"/>
        <path fill="#EFEFEF" d="M28.38 4.352a3.343 3.343 0 0 1 6.686 0H28.38"/>
        <path stroke="#000" d="M28.38 4.352a3.343 3.343 0 0 1 6.686 0H28.38"/>
        <path fill="#EFEFEF" d="M21.694 31.097v-1.671H1.636v1.67A3.343 3.343 0 0 0 4.98 34.44h20.058a3.343 3.343 0 0 1-3.343-3.343"/>
        <path stroke="#000" d="M21.694 31.097v-1.671H1.636v1.67A3.343 3.343 0 0 0 4.98 34.44h20.058a3.343 3.343 0 0 1-3.343-3.343z"/>
        <path fill="#EFEFEF" d="M9.993 9.367h13.372"/>
        <path stroke="#000" d="M9.993 9.367h13.372"/>
        <path fill="#EFEFEF" d="M9.993 14.382h13.372"/>
        <path stroke="#000" d="M9.993 14.382h13.372"/>
        <path fill="#EFEFEF" d="M9.993 19.396h13.372"/>
        <path stroke="#000" d="M9.993 19.396h13.372"/>
        <path fill="#EFEFEF" d="M9.993 24.41h13.372"/>
        <path stroke="#000" d="M9.993 24.41h13.372"/>
        <path fill="#EFEFEF" d="M11.665 26.082l-4.179-3.761-4.179 3.761V11.038h8.358z"/>
        <path stroke="#000" d="M11.665 26.082l-4.179-3.761-4.179 3.761V11.038h8.358z"/>
        <path fill="#EFEFEF" d="M12.802 10.203l.758-1.974-1.773-1.15-.547-2.042-2.11.11-1.644-1.33-1.643 1.33-2.11-.11-.548 2.042-1.773 1.15.759 1.974-.76 1.974 1.774 1.15.548 2.042 2.11-.11 1.643 1.329L9.13 15.26l2.111.109.547-2.041 1.773-1.151z"/>
        <path stroke="#000" d="M12.802 10.203l.758-1.974-1.773-1.15-.547-2.042-2.11.11-1.644-1.33-1.643 1.33-2.11-.11-.548 2.042-1.773 1.15.759 1.974-.76 1.974 1.774 1.15.548 2.042 2.11-.11 1.643 1.329L9.13 15.26l2.111.109.547-2.041 1.773-1.151z"/>
        <path fill="#EFEFEF" d="M12.802 10.203l.758-1.974-1.773-1.15-.547-2.042-2.11.11-1.644-1.33-1.643 1.33-2.11-.11-.548 2.042-1.773 1.15.759 1.974-.76 1.974 1.774 1.15.548 2.042 2.11-.11 1.643 1.329L9.13 15.26l2.111.109.547-2.041 1.773-1.151z"/>
        <path stroke="#000" d="M12.802 10.203l.758-1.974-1.773-1.15-.547-2.042-2.11.11-1.644-1.33-1.643 1.33-2.11-.11-.548 2.042-1.773 1.15.759 1.974-.76 1.974 1.774 1.15.548 2.042 2.11-.11 1.643 1.329L9.13 15.26l2.111.109.547-2.041 1.773-1.151z"/>
        <path fill="#EFEFEF" d="M9.993 10.203a2.507 2.507 0 1 0-5.014-.001 2.507 2.507 0 0 0 5.014.001"/>
        <path stroke="#000" d="M9.993 10.203a2.507 2.507 0 1 0-5.014-.001 2.507 2.507 0 0 0 5.014.001z"/>
    </g>
</svg>
