<svg xmlns="http://www.w3.org/2000/svg" viewBox="0 0 150 150"><defs><style>.cls-1,.cls-2,.cls-4{fill:#dca927;}.cls-1{fill-rule:evenodd;}.cls-3{fill:#f0b0cf;}.cls-3,.cls-4,.cls-5,.cls-6{stroke:#010101;stroke-miterlimit:10;stroke-width:1.6px;}.cls-5{fill:#f15822;}.cls-6{fill:#a3d4a0;}</style></defs><title>portland_icon</title><g id="Layer_1" data-name="Layer 1"><polygon class="cls-1" points="93.55 15 75 25.44 56.46 15 47.29 34.9 26.46 37.92 30.15 59.68 15 75 30.15 90.32 26.46 112.08 47.29 115.1 56.45 135 75 124.56 93.54 135 102.7 115.1 123.54 112.08 119.85 90.32 135 75 119.85 59.68 123.54 37.92 102.71 34.9 93.55 15"/><ellipse class="cls-2" cx="76.67" cy="62.5" rx="9.76" ry="7.18"/><rect class="cls-3" x="49.29" y="76.43" width="51.43" height="28.57"/><rect class="cls-4" x="52.14" y="73.57" width="5.71" height="2.86"/><rect class="cls-5" x="52.14" y="76.43" width="5.71" height="28.57"/><rect class="cls-4" x="92.14" y="73.57" width="5.71" height="2.86"/><rect class="cls-5" x="92.14" y="76.43" width="5.71" height="28.57"/><polygon class="cls-5" points="60.71 62.14 60.71 65 60.71 76.43 63.57 76.43 63.57 65 86.43 65 86.43 76.43 89.29 76.43 89.29 65 89.29 62.14 60.71 62.14"/><path class="cls-4" d="M63.57,70.71a2.86,2.86,0,1,0,5.72,0V65a2.86,2.86,0,0,0-5.72,0Z"/><path class="cls-4" d="M75,70.71a2.86,2.86,0,1,1-5.71,0V65A2.86,2.86,0,1,1,75,65Z"/><path class="cls-4" d="M80.71,70.71a2.86,2.86,0,1,1-5.71,0V65a2.86,2.86,0,1,1,5.71,0Z"/><path class="cls-4" d="M86.43,70.71a2.86,2.86,0,0,1-5.72,0V65a2.86,2.86,0,0,1,5.72,0Z"/><path class="cls-4" d="M75,56.43a5.69,5.69,0,0,1-5.71,5.71h2.85a6.15,6.15,0,0,1,5.72,5.72H66.43A2.8,2.8,0,0,1,63.57,65V62.14a11.43,11.43,0,0,1,22.86,0"/><rect class="cls-6" x="63.57" y="45" width="22.86" height="8.57"/><circle class="cls-4" cx="67.86" cy="49.29" r="1.43"/></g></svg>