<svg xmlns="http://www.w3.org/2000/svg" viewBox="0 0 150 150"><defs><style>.cls-1{fill-rule:evenodd;}.cls-2,.cls-4{fill:#dca927;}.cls-3{fill:#f0b0cf;}.cls-3,.cls-4,.cls-5,.cls-6{stroke:#010101;stroke-miterlimit:10;stroke-width:1.6px;}.cls-5{fill:#f15822;}.cls-6{fill:#a3d4a0;}</style></defs><title>portland_icon</title><g id="Layer_1" data-name="Layer 1"><polygon class="cls-1" points="91.52 9.94 72.2 20.29 52.88 9.94 43.34 29.66 21.64 32.65 25.48 54.21 9.7 69.39 25.48 84.58 21.63 106.14 43.33 109.13 52.88 128.85 72.2 118.5 91.52 128.85 101.06 109.13 122.76 106.14 118.91 84.58 134.7 69.39 118.91 54.21 122.76 32.65 101.06 29.66 91.52 9.94"/><ellipse class="cls-2" cx="73.86" cy="56.9" rx="9.76" ry="7.18"/><rect class="cls-3" x="46.48" y="70.83" width="51.43" height="28.57"/><rect class="cls-4" x="49.34" y="67.97" width="5.71" height="2.86"/><rect class="cls-5" x="49.34" y="70.83" width="5.71" height="28.57"/><rect class="cls-4" x="89.34" y="67.97" width="5.71" height="2.86"/><rect class="cls-5" x="89.34" y="70.83" width="5.71" height="28.57"/><polygon class="cls-5" points="57.91 56.54 57.91 59.4 57.91 70.83 60.77 70.83 60.77 59.4 83.63 59.4 83.63 70.83 86.48 70.83 86.48 59.4 86.48 56.54 57.91 56.54"/><path class="cls-4" d="M60.77,65.11a2.86,2.86,0,1,0,5.71,0V59.4a2.86,2.86,0,1,0-5.71,0Z"/><path class="cls-4" d="M72.2,65.11a2.86,2.86,0,0,1-5.72,0V59.4a2.86,2.86,0,0,1,5.72,0Z"/><path class="cls-4" d="M77.91,65.11a2.86,2.86,0,1,1-5.71,0V59.4a2.86,2.86,0,1,1,5.71,0Z"/><path class="cls-4" d="M83.63,65.11a2.86,2.86,0,0,1-5.72,0V59.4a2.86,2.86,0,1,1,5.72,0Z"/><path class="cls-4" d="M72.2,50.83a5.7,5.7,0,0,1-5.72,5.71h2.86a6.14,6.14,0,0,1,5.71,5.71H63.63a2.8,2.8,0,0,1-2.86-2.85V56.54a11.43,11.43,0,1,1,22.86,0"/><rect class="cls-6" x="60.77" y="39.4" width="22.86" height="8.57"/><circle class="cls-4" cx="65.05" cy="43.68" r="1.43"/></g></svg>