<svg xmlns="http://www.w3.org/2000/svg" viewBox="0 0 150 150"><defs><style>.cls-1,.cls-2{fill:#fff;stroke:#000;stroke-miterlimit:10;}.cls-1{stroke-width:1.67px;}.cls-2{stroke-width:2.67px;}</style></defs><title>portland_icon</title><g id="Layer_1" data-name="Layer 1"><ellipse class="cls-1" cx="74.98" cy="48.56" rx="16.27" ry="11.97"/><rect class="cls-2" x="29.34" y="71.78" width="85.71" height="47.62"/><rect class="cls-2" x="34.1" y="67.02" width="9.52" height="4.76"/><rect class="cls-2" x="34.1" y="71.78" width="9.52" height="47.62"/><rect class="cls-2" x="100.77" y="67.02" width="9.52" height="4.76"/><rect class="cls-2" x="100.77" y="71.78" width="9.52" height="47.62"/><polygon class="cls-2" points="48.39 47.97 48.39 52.73 48.39 71.78 53.15 71.78 53.15 52.73 91.25 52.73 91.25 71.78 96.01 71.78 96.01 52.73 96.01 47.97 48.39 47.97"/><path class="cls-2" d="M53.15,62.25a4.76,4.76,0,1,0,9.52,0V52.73a4.76,4.76,0,0,0-9.52,0Z"/><path class="cls-2" d="M72.2,62.25a4.77,4.77,0,1,1-9.53,0V52.73a4.77,4.77,0,0,1,9.53,0Z"/><path class="cls-2" d="M81.72,62.25a4.76,4.76,0,1,1-9.52,0V52.73a4.76,4.76,0,0,1,9.52,0Z"/><path class="cls-2" d="M91.25,62.25a4.77,4.77,0,1,1-9.53,0V52.73a4.77,4.77,0,0,1,9.53,0Z"/><path class="cls-2" d="M72.2,38.44A9.5,9.5,0,0,1,62.67,48h4.77C72.2,48,77,52.73,77,57.49h-19s-4.76,0-4.76-4.76V48a19.05,19.05,0,1,1,38.1,0"/><rect class="cls-2" x="53.15" y="19.4" width="38.1" height="14.29"/><circle class="cls-2" cx="60.29" cy="26.54" r="2.38"/></g></svg>