<svg xmlns="http://www.w3.org/2000/svg" xmlns:xlink="http://www.w3.org/1999/xlink" width="129" height="150" viewBox="0 0 129 150">
    <defs>
        <path id="a" d="M0 150h128.991V0H0z"/>
    </defs>
    <g fill="none" fill-rule="evenodd">
        <path fill="#DBA826" d="M92.507 44.363c0 9.722-10.712 17.604-23.927 17.604-13.213 0-23.926-7.882-23.926-17.604S55.367 26.758 68.58 26.758c13.215 0 23.927 7.883 23.927 17.605"/>
        <mask id="b" fill="#fff">
            <use xlink:href="#a"/>
        </mask>
        <path fill="#EFAFCE" d="M1.47 148.53h126.05V78.5H1.47z" mask="url(#b)"/>
        <path stroke="#020303" stroke-width="3" d="M1.47 148.53h126.05V78.5H1.47z" mask="url(#b)"/>
        <path fill="#DBA826" d="M8.474 78.501h14.005V71.5H8.474z" mask="url(#b)"/>
        <path stroke="#020303" stroke-width="3" d="M8.474 78.501h14.005V71.5H8.474z" mask="url(#b)"/>
        <path fill="#F05822" d="M8.474 148.53h14.005V78.5H8.474z" mask="url(#b)"/>
        <path stroke="#020303" stroke-width="3" d="M8.474 148.53h14.005V78.5H8.474z" mask="url(#b)"/>
        <path fill="#DBA826" d="M106.513 78.501h14.006V71.5h-14.006z" mask="url(#b)"/>
        <path stroke="#020303" stroke-width="3" d="M106.513 78.501h14.006V71.5h-14.006z" mask="url(#b)"/>
        <path fill="#F05822" d="M106.513 148.53h14.006V78.5h-14.006z" mask="url(#b)"/>
        <path stroke="#020303" stroke-width="3" d="M106.513 148.53h14.006V78.5h-14.006z" mask="url(#b)"/>
        <path fill="#F05822" d="M29.482 43.487v35.015h7.003V50.49h56.022v28.012h7.003V43.487z" mask="url(#b)"/>
        <path stroke="#020303" stroke-width="3" d="M29.482 43.487v35.015h7.003V50.49h56.022v28.012h7.003V43.487z" mask="url(#b)"/>
        <path fill="#DBA826" d="M36.485 64.496a7.003 7.003 0 1 0 14.005 0V50.49a7.003 7.003 0 1 0-14.005 0v14.006z" mask="url(#b)"/>
        <path stroke="#020303" stroke-width="3" d="M36.485 64.496a7.003 7.003 0 1 0 14.005 0V50.49a7.003 7.003 0 1 0-14.005 0v14.006z" mask="url(#b)"/>
        <path fill="#DBA826" d="M64.496 64.496a7.003 7.003 0 1 1-14.006 0V50.49a7.003 7.003 0 1 1 14.006 0v14.006z" mask="url(#b)"/>
        <path stroke="#020303" stroke-width="3" d="M64.496 64.496a7.003 7.003 0 1 1-14.006 0V50.49a7.003 7.003 0 1 1 14.006 0v14.006z" mask="url(#b)"/>
        <path fill="#DBA826" d="M78.501 64.496a7.003 7.003 0 1 1-14.004 0V50.49a7.002 7.002 0 1 1 14.004 0v14.006z" mask="url(#b)"/>
        <path stroke="#020303" stroke-width="3" d="M78.501 64.496a7.003 7.003 0 1 1-14.004 0V50.49a7.002 7.002 0 1 1 14.004 0v14.006z" mask="url(#b)"/>
        <path fill="#DBA826" d="M92.507 64.496a7.003 7.003 0 1 1-14.006 0V50.49a7.003 7.003 0 1 1 14.006 0v14.006z" mask="url(#b)"/>
        <path stroke="#020303" stroke-width="3" d="M92.507 64.496a7.003 7.003 0 1 1-14.006 0V50.49a7.003 7.003 0 1 1 14.006 0v14.006z" mask="url(#b)"/>
        <path fill="#DBA826" d="M64.496 29.482c0 7.003-5.497 14.006-14.006 14.006h7.003c7.003 0 14.006 7.003 14.006 14.006H43.487s-7.003 0-7.003-7.003v-7.003c0-15.47 12.542-28.012 28.012-28.012s28.01 12.541 28.01 28.012" mask="url(#b)"/>
        <path stroke="#020303" stroke-width="3" d="M64.496 29.482c0 7.003-5.497 14.006-14.006 14.006h7.003c7.003 0 14.006 7.003 14.006 14.006H43.487s-7.003 0-7.003-7.003v-7.003c0-15.47 12.542-28.012 28.012-28.012s28.01 12.541 28.01 28.012" mask="url(#b)"/>
        <path fill="#A3D39F" d="M36.485 22.48h56.022V1.47H36.485z" mask="url(#b)"/>
        <path stroke="#020303" stroke-width="3" d="M36.485 22.48h56.022V1.47H36.485z" mask="url(#b)"/>
        <path fill="#DBA826" d="M50.49 11.975a3.501 3.501 0 1 1-7.002 0 3.501 3.501 0 0 1 7.002 0" mask="url(#b)"/>
        <path stroke="#020303" stroke-width="3" d="M50.49 11.975a3.501 3.501 0 1 1-7.002 0 3.501 3.501 0 0 1 7.002 0z" mask="url(#b)"/>
    </g>
</svg>
