<?xml version="1.0" encoding="utf-8"?>
<svg width="138" height="155" viewBox="0 0 138 155" xmlns="http://www.w3.org/2000/svg" xmlns:bx="https://boxy-svg.com">
  <defs>
    <bx:grid x="0" y="0" width="69.156" height="76.466"/>
    <path id="a" d="M0 150h128.991V0H0z"/>
  </defs>
  <g fill="none" fill-rule="evenodd" style="visibility: hidden;">
    <path fill="#F05822" d="M2.165 2.166v73.503h25.46l25.46 24.778V75.669h67.892V2.166z"/>
    <path stroke="#020303" stroke-width="3" d="M2.165 2.166v73.503h25.46l25.46 24.778V75.669h67.892V2.166z"/>
    <path fill="#A3D39F" d="M135.828 91.275v43.204h-15.753l-15.753 16.202v-16.202H68.997V91.275z"/>
    <path stroke="#020303" stroke-width="3" d="M135.828 91.275v43.204h-15.753l-15.753 16.202v-16.202H68.997V91.275z"/>
    <path fill="#EFAFCE" d="M39.294 39.294a7.427 7.427 0 1 1-14.853-.001 7.427 7.427 0 0 1 14.853.001"/>
    <path stroke="#020303" stroke-width="3" d="M39.294 39.294a7.427 7.427 0 1 1-14.853-.001 7.427 7.427 0 0 1 14.853.001z"/>
    <path fill="#A3D39F" d="M68.997 39.294a7.427 7.427 0 1 1-14.853-.001 7.427 7.427 0 0 1 14.853.001"/>
    <path stroke="#020303" stroke-width="3" d="M68.997 39.294a7.427 7.427 0 1 1-14.853-.001 7.427 7.427 0 0 1 14.853.001z"/>
    <path fill="#DBA826" d="M98.7 39.294a7.427 7.427 0 1 1-14.853-.001 7.427 7.427 0 0 1 14.853.001"/>
    <path stroke="#020303" stroke-width="3" d="M98.7 39.294a7.427 7.427 0 1 1-14.853-.001 7.427 7.427 0 0 1 14.853.001z"/>
  </g>
  <g fill="none" fill-rule="evenodd" transform="matrix(0.885444, 0, 0, 0.885444, 2.001646, 20.870609)" style="visibility: hidden;">
    <path fill="#DBA826" d="M51.828 73.7l33.949 33.948a7.735 7.735 0 0 1 0 10.936 7.732 7.732 0 0 1-10.937 0L40.891 84.635l-5.467-5.466c-12.08-12.08-12.08-31.665 0-43.745 0 0 25.942-18.938 44.389-.49l17.93 19.064"/>
    <path stroke="#020303" stroke-width="3" d="M51.828 73.7l33.949 33.948a7.735 7.735 0 0 1 0 10.936 7.732 7.732 0 0 1-10.937 0L40.891 84.635l-5.467-5.466c-12.08-12.08-12.08-31.665 0-43.745 0 0 25.942-18.938 44.389-.49l17.93 19.064"/>
    <path fill="#EFAFCE" d="M118.322 79.731c12.08-12.08 12.08-31.664 0-43.745-12.08-12.078-31.665-12.078-43.745 0"/>
    <path stroke="#020303" stroke-width="3" d="M118.322 79.731c12.08-12.08 12.08-31.664 0-43.745-12.08-12.078-31.665-12.078-43.745 0"/>
    <path fill="#A3D39F" d="M151.13 46.923L107.386 3.178 90.981 19.583l43.745 43.744z"/>
    <path stroke="#020303" stroke-width="3" d="M151.13 46.923L107.386 3.178 90.981 19.583l43.745 43.744z"/>
    <path fill="#F05822" d="M138.828 49.094a3.866 3.866 0 1 1-5.468-5.469 3.866 3.866 0 1 1 5.468 5.469"/>
    <path stroke="#020303" stroke-width="3" d="M138.828 49.094a3.866 3.866 0 1 1-5.468-5.469 3.866 3.866 0 1 1 5.468 5.469z"/>
    <path fill="#DBA826" d="M62.745 62.745l37.398 37.398a7.735 7.735 0 0 1 0 10.936 7.735 7.735 0 0 1-10.937 0L51.81 73.682"/>
    <path stroke="#020303" stroke-width="3" d="M62.745 62.745l37.398 37.398a7.735 7.735 0 0 1 0 10.936 7.735 7.735 0 0 1-10.937 0L51.81 73.682"/>
    <path fill="#DBA826" d="M77.009 55.137l37.415 37.415a7.733 7.733 0 0 1-10.935 10.937L66.072 66.072"/>
    <path stroke="#020303" stroke-width="3" d="M77.009 55.137l37.415 37.415a7.733 7.733 0 0 1-10.935 10.937L66.072 66.072"/>
    <path fill="#DBA826" d="M87.728 43.984l33.256 33.255a7.733 7.733 0 1 1-10.939 10.935L77.008 55.137"/>
    <path stroke="#020303" stroke-width="3" d="M87.728 43.984l33.256 33.255a7.733 7.733 0 1 1-10.939 10.935L77.008 55.137"/>
    <path fill="#F05822" d="M46.36 2.615L2.613 46.36 19.02 62.764l43.745-43.745z"/>
    <path stroke="#020303" stroke-width="3" d="M46.36 2.615L2.613 46.36 19.02 62.764l43.745-43.745z"/>
    <path fill="#A3D39F" d="M21.754 43.625a3.866 3.866 0 1 1-5.469 5.469 3.866 3.866 0 1 1 5.469-5.469"/>
    <path stroke="#020303" stroke-width="3" d="M21.754 43.625a3.866 3.866 0 1 1-5.469 5.469 3.866 3.866 0 1 1 5.469-5.469z"/>
    <path fill="#EFAFCE" d="M29.971 80.593A7.733 7.733 0 0 0 40.906 91.53l5.469-5.469A7.733 7.733 0 0 0 35.44 75.124l-5.469 5.469z"/>
    <path stroke="#020303" stroke-width="3" d="M29.971 80.593A7.733 7.733 0 0 0 40.906 91.53l5.469-5.469A7.733 7.733 0 0 0 35.44 75.124l-5.469 5.469z"/>
    <path fill="#EFAFCE" d="M74.577 35.987L47.344 63.22c5.468 5.469 16.403 5.469 21.872 0l19.757-19.757"/>
    <path stroke="#020303" stroke-width="3" d="M74.577 35.987L47.344 63.22c5.468 5.469 16.403 5.469 21.872 0l19.757-19.757"/>
    <path fill="#EFAFCE" d="M48.094 106.215A7.733 7.733 0 0 1 37.157 95.28l9.219-9.219a7.733 7.733 0 0 1 10.937 10.935l-9.219 9.219z"/>
    <path stroke="#020303" stroke-width="3" d="M48.094 106.215A7.733 7.733 0 0 1 37.157 95.28l9.219-9.219a7.733 7.733 0 0 1 10.937 10.935l-9.219 9.219z"/>
    <path fill="#EFAFCE" d="M59.03 117.151a7.73 7.73 0 0 1-10.936 0 7.732 7.732 0 0 1 0-10.937l9.217-9.216a7.733 7.733 0 0 1 10.937 10.935l-9.218 9.218z"/>
    <path stroke="#020303" stroke-width="3" d="M59.03 117.151a7.73 7.73 0 0 1-10.936 0 7.732 7.732 0 0 1 0-10.937l9.217-9.216a7.733 7.733 0 0 1 10.937 10.935l-9.218 9.218z"/>
    <path fill="#EFAFCE" d="M73.716 124.337a7.733 7.733 0 0 1-10.937-10.935l5.468-5.468a7.733 7.733 0 0 1 10.937 10.935l-5.468 5.468z"/>
    <path stroke="#020303" stroke-width="3" d="M73.716 124.337a7.733 7.733 0 0 1-10.937-10.935l5.468-5.468a7.733 7.733 0 0 1 10.937 10.935l-5.468 5.468z"/>
  </g>
  <g fill="none" fill-rule="evenodd" transform="matrix(0.891026, 0, 0, 0.891026, 0.382847, 6.775931)" style="visibility: hidden;">
    <path fill="#A3D39F" d="M152 77c0 41.42-33.579 75-75 75-41.42 0-75-33.58-75-75"/>
    <path stroke="#020303" stroke-width="3" d="M152 77c0 41.42-33.579 75-75 75-41.42 0-75-33.58-75-75"/>
    <path fill="#DBA826" d="M152 77c0-41.421-33.579-75-75-75C35.58 2 2 35.579 2 77"/>
    <path stroke="#020303" stroke-width="3" d="M152 77c0-41.421-33.579-75-75-75C35.58 2 2 35.579 2 77"/>
    <path fill="#EFAFCE" d="M122 77v18.75H95.75V122h-37.5V95.75H32V77"/>
    <path stroke="#020303" stroke-width="3" d="M122 77v18.75H95.75V122h-37.5V95.75H32V77"/>
    <path fill="#F05822" d="M122 77V58.25H95.75V32h-37.5v26.25H32V77"/>
    <path stroke="#020303" stroke-width="3" d="M122 77V58.25H95.75V32h-37.5v26.25H32V77M2 77h150"/>
  </g>
  <g fill="none" fill-rule="evenodd" transform="matrix(1, 0, 0, 1, 2.845312, 0.696)">
    <path fill="#DBA826" d="M92.507 44.363c0 9.722-10.712 17.604-23.927 17.604-13.213 0-23.926-7.882-23.926-17.604S55.367 26.758 68.58 26.758c13.215 0 23.927 7.883 23.927 17.605"/>
    <mask id="b" fill="#fff">
      <path id="" d="M0 150h128.991V0H0z" transform="matrix(1, 0, 0, 1, 0, 0)"/>
    </mask>
    <path fill="#EFAFCE" d="M1.47 148.53h126.05V78.5H1.47z" mask="url(#b)"/>
    <path stroke="#020303" stroke-width="3" d="M1.47 148.53h126.05V78.5H1.47z" mask="url(#b)"/>
    <path fill="#DBA826" d="M8.474 78.501h14.005V71.5H8.474z" mask="url(#b)"/>
    <path stroke="#020303" stroke-width="3" d="M8.474 78.501h14.005V71.5H8.474z" mask="url(#b)"/>
    <path fill="#F05822" d="M8.474 148.53h14.005V78.5H8.474z" mask="url(#b)"/>
    <path stroke="#020303" stroke-width="3" d="M8.474 148.53h14.005V78.5H8.474z" mask="url(#b)"/>
    <path fill="#DBA826" d="M106.513 78.501h14.006V71.5h-14.006z" mask="url(#b)"/>
    <path stroke="#020303" stroke-width="3" d="M106.513 78.501h14.006V71.5h-14.006z" mask="url(#b)"/>
    <path fill="#F05822" d="M106.513 148.53h14.006V78.5h-14.006z" mask="url(#b)"/>
    <path stroke="#020303" stroke-width="3" d="M106.513 148.53h14.006V78.5h-14.006z" mask="url(#b)"/>
    <path fill="#F05822" d="M29.482 43.487v35.015h7.003V50.49h56.022v28.012h7.003V43.487z" mask="url(#b)"/>
    <path stroke="#020303" stroke-width="3" d="M29.482 43.487v35.015h7.003V50.49h56.022v28.012h7.003V43.487z" mask="url(#b)"/>
    <path fill="#DBA826" d="M36.485 64.496a7.003 7.003 0 1 0 14.005 0V50.49a7.003 7.003 0 1 0-14.005 0v14.006z" mask="url(#b)"/>
    <path stroke="#020303" stroke-width="3" d="M36.485 64.496a7.003 7.003 0 1 0 14.005 0V50.49a7.003 7.003 0 1 0-14.005 0v14.006z" mask="url(#b)"/>
    <path fill="#DBA826" d="M64.496 64.496a7.003 7.003 0 1 1-14.006 0V50.49a7.003 7.003 0 1 1 14.006 0v14.006z" mask="url(#b)"/>
    <path stroke="#020303" stroke-width="3" d="M64.496 64.496a7.003 7.003 0 1 1-14.006 0V50.49a7.003 7.003 0 1 1 14.006 0v14.006z" mask="url(#b)"/>
    <path fill="#DBA826" d="M78.501 64.496a7.003 7.003 0 1 1-14.004 0V50.49a7.002 7.002 0 1 1 14.004 0v14.006z" mask="url(#b)"/>
    <path stroke="#020303" stroke-width="3" d="M78.501 64.496a7.003 7.003 0 1 1-14.004 0V50.49a7.002 7.002 0 1 1 14.004 0v14.006z" mask="url(#b)"/>
    <path fill="#DBA826" d="M92.507 64.496a7.003 7.003 0 1 1-14.006 0V50.49a7.003 7.003 0 1 1 14.006 0v14.006z" mask="url(#b)"/>
    <path stroke="#020303" stroke-width="3" d="M92.507 64.496a7.003 7.003 0 1 1-14.006 0V50.49a7.003 7.003 0 1 1 14.006 0v14.006z" mask="url(#b)"/>
    <path fill="#DBA826" d="M64.496 29.482c0 7.003-5.497 14.006-14.006 14.006h7.003c7.003 0 14.006 7.003 14.006 14.006H43.487s-7.003 0-7.003-7.003v-7.003c0-15.47 12.542-28.012 28.012-28.012s28.01 12.541 28.01 28.012" mask="url(#b)"/>
    <path stroke="#020303" stroke-width="3" d="M64.496 29.482c0 7.003-5.497 14.006-14.006 14.006h7.003c7.003 0 14.006 7.003 14.006 14.006H43.487s-7.003 0-7.003-7.003v-7.003c0-15.47 12.542-28.012 28.012-28.012s28.01 12.541 28.01 28.012" mask="url(#b)"/>
    <path fill="#A3D39F" d="M36.485 22.48h56.022V1.47H36.485z" mask="url(#b)"/>
    <path stroke="#020303" stroke-width="3" d="M36.485 22.48h56.022V1.47H36.485z" mask="url(#b)"/>
    <path fill="#DBA826" d="M50.49 11.975a3.501 3.501 0 1 1-7.002 0 3.501 3.501 0 0 1 7.002 0" mask="url(#b)"/>
    <path stroke="#020303" stroke-width="3" d="M50.49 11.975a3.501 3.501 0 1 1-7.002 0 3.501 3.501 0 0 1 7.002 0z" mask="url(#b)"/>
  </g>
</svg>