<svg xmlns="http://www.w3.org/2000/svg" width="138" height="155" viewBox="0 0 138 155">
    <g fill="none" fill-rule="evenodd">
        <path fill="#F05822" d="M2.165 2.166v73.503h25.46l25.46 24.778V75.669h67.892V2.166z"/>
        <path stroke="#020303" stroke-width="3" d="M2.165 2.166v73.503h25.46l25.46 24.778V75.669h67.892V2.166z"/>
        <path fill="#A3D39F" d="M135.828 91.275v43.204h-15.753l-15.753 16.202v-16.202H68.997V91.275z"/>
        <path stroke="#020303" stroke-width="3" d="M135.828 91.275v43.204h-15.753l-15.753 16.202v-16.202H68.997V91.275z"/>
        <path fill="#EFAFCE" d="M39.294 39.294a7.427 7.427 0 1 1-14.853-.001 7.427 7.427 0 0 1 14.853.001"/>
        <path stroke="#020303" stroke-width="3" d="M39.294 39.294a7.427 7.427 0 1 1-14.853-.001 7.427 7.427 0 0 1 14.853.001z"/>
        <path fill="#A3D39F" d="M68.997 39.294a7.427 7.427 0 1 1-14.853-.001 7.427 7.427 0 0 1 14.853.001"/>
        <path stroke="#020303" stroke-width="3" d="M68.997 39.294a7.427 7.427 0 1 1-14.853-.001 7.427 7.427 0 0 1 14.853.001z"/>
        <path fill="#DBA826" d="M98.7 39.294a7.427 7.427 0 1 1-14.853-.001 7.427 7.427 0 0 1 14.853.001"/>
        <path stroke="#020303" stroke-width="3" d="M98.7 39.294a7.427 7.427 0 1 1-14.853-.001 7.427 7.427 0 0 1 14.853.001z"/>
    </g>
</svg>
