<svg xmlns="http://www.w3.org/2000/svg" viewBox="0 0 150 150"><defs><style>.cls-1{fill-rule:evenodd;}.cls-2{fill:#dca927;}.cls-2,.cls-3,.cls-4,.cls-5,.cls-6{stroke:#010101;stroke-miterlimit:10;stroke-width:1.6px;}.cls-3{fill:#f15822;}.cls-4{fill:#f0b0cf;}.cls-5{fill:none;}.cls-6{fill:#a3d4a0;}</style></defs><title>portland_icon</title><g id="Layer_1" data-name="Layer 1"><polygon class="cls-1" points="94.32 9.94 75 20.29 55.69 9.94 46.14 29.66 24.44 32.65 28.28 54.21 12.5 69.39 28.28 84.58 24.43 106.14 46.14 109.13 55.68 128.85 75 118.5 94.32 128.85 103.86 109.13 125.56 106.14 121.72 84.58 137.5 69.39 121.72 54.21 125.56 32.65 103.86 29.66 94.32 9.94"/><polygon class="cls-2" points="64.97 99.4 44.92 91.38 44.92 51.27 64.97 59.29 64.97 99.4"/><polygon class="cls-3" points="85.03 51.27 105.08 59.29 105.08 99.4 85.03 91.38 85.03 51.27"/><polygon class="cls-4" points="64.97 99.4 85.03 91.38 85.03 51.27 64.97 59.29 64.97 99.4"/><line class="cls-5" x1="44.92" y1="71.91" x2="64.97" y2="79.93"/><line class="cls-5" x1="64.97" y1="87.93" x2="85.03" y2="79.91"/><line class="cls-5" x1="85.03" y1="68.45" x2="105.08" y2="76.47"/><line class="cls-5" x1="95.05" y1="55.28" x2="95.05" y2="73.26"/><line class="cls-5" x1="54.95" y1="75.34" x2="54.95" y2="95.39"/><line class="cls-5" x1="75" y1="83.92" x2="75" y2="57.7"/><path class="cls-6" d="M75,39.4a12,12,0,0,0-12,12c0,6.64,12,20.05,12,20.05S87,58.07,87,51.43A12,12,0,0,0,75,39.4ZM75,55a3.6,3.6,0,1,1,3.6-3.59A3.6,3.6,0,0,1,75,55Z"/></g></svg>