<svg xmlns="http://www.w3.org/2000/svg" viewBox="0 0 150 150"><defs><style>.cls-1,.cls-3{fill:#fff;}.cls-2{fill:none;}.cls-2,.cls-3{stroke:#000;stroke-miterlimit:10;stroke-width:2.67px;}</style></defs><title>portland_icon</title><g id="Layer_1" data-name="Layer 1"><polygon class="cls-1" points="57.85 125 24.43 111.63 24.43 44.8 57.85 58.16 57.85 125"/><polygon class="cls-2" points="57.85 125 24.43 111.63 24.43 44.8 57.85 58.16 57.85 125"/><polygon class="cls-1" points="91.27 44.8 124.69 58.16 124.69 125 91.27 111.63 91.27 44.8"/><polygon class="cls-2" points="91.27 44.8 124.69 58.16 124.69 125 91.27 111.63 91.27 44.8"/><polygon class="cls-1" points="57.85 125 91.27 111.63 91.27 44.8 57.85 58.16 57.85 125"/><polygon class="cls-2" points="57.85 125 91.27 111.63 91.27 44.8 57.85 58.16 57.85 125"/><line class="cls-3" x1="24.43" y1="79.19" x2="57.85" y2="92.56"/><line class="cls-3" x1="57.85" y1="105.9" x2="91.27" y2="92.52"/><line class="cls-3" x1="91.27" y1="73.42" x2="124.69" y2="86.78"/><line class="cls-3" x1="107.98" y1="51.48" x2="107.98" y2="81.44"/><line class="cls-3" x1="41.14" y1="84.9" x2="41.14" y2="118.32"/><line class="cls-3" x1="74.56" y1="99.21" x2="74.56" y2="55.5"/><path class="cls-3" d="M74.56,25a20.05,20.05,0,0,0-20.05,20c0,11.08,20.05,33.42,20.05,33.42s20-22.34,20-33.42A20.05,20.05,0,0,0,74.56,25Zm0,26a6,6,0,1,1,6-6A6,6,0,0,1,74.56,51Z"/></g></svg>