<svg xmlns="http://www.w3.org/2000/svg" viewBox="0 0 150 150"><defs><style>.cls-1,.cls-3{fill:#efefef;}.cls-2{fill:none;}.cls-2,.cls-3{stroke:#d8d8d8;stroke-miterlimit:10;stroke-width:2.67px;}</style></defs><title>portland_icon</title><g id="Layer_1" data-name="Layer 1"><polygon class="cls-1" points="57.85 124.4 24.43 111.03 24.43 44.19 57.85 57.56 57.85 124.4"/><polygon class="cls-2" points="57.85 124.4 24.43 111.03 24.43 44.19 57.85 57.56 57.85 124.4"/><polygon class="cls-1" points="91.27 44.19 124.69 57.56 124.69 124.4 91.27 111.03 91.27 44.19"/><polygon class="cls-2" points="91.27 44.19 124.69 57.56 124.69 124.4 91.27 111.03 91.27 44.19"/><polygon class="cls-1" points="57.85 124.4 91.27 111.03 91.27 44.19 57.85 57.56 57.85 124.4"/><polygon class="cls-2" points="57.85 124.4 91.27 111.03 91.27 44.19 57.85 57.56 57.85 124.4"/><line class="cls-3" x1="24.43" y1="78.59" x2="57.85" y2="91.95"/><line class="cls-3" x1="57.85" y1="105.29" x2="91.27" y2="91.92"/><line class="cls-3" x1="91.27" y1="72.81" x2="124.69" y2="86.18"/><line class="cls-3" x1="107.98" y1="50.88" x2="107.98" y2="80.84"/><line class="cls-3" x1="41.14" y1="84.29" x2="41.14" y2="117.71"/><line class="cls-3" x1="74.56" y1="98.6" x2="74.56" y2="54.9"/><path class="cls-3" d="M74.56,24.4A20,20,0,0,0,54.51,44.45c0,11.07,20.05,33.42,20.05,33.42s20-22.35,20-33.42A20,20,0,0,0,74.56,24.4Zm0,26a6,6,0,1,1,6-6A6,6,0,0,1,74.56,50.44Z"/></g></svg>