<?xml version="1.0" encoding="UTF-8"?>
<svg width="74px" height="74px" viewBox="0 0 74 74" version="1.1" xmlns="http://www.w3.org/2000/svg" xmlns:xlink="http://www.w3.org/1999/xlink">
    <!-- Generator: sketchtool 50.2 (55047) - http://www.bohemiancoding.com/sketch -->
    <title>ADE1B291-195E-4695-8120-5362D6E1E82B</title>
    <desc>Created with sketchtool.</desc>
    <defs></defs>
    <g id="Symbols" stroke="none" stroke-width="1" fill="none" fill-rule="evenodd">
        <g id="location_white" fill="#000000">
            <path d="M33.7891099,15.1923233 C33.7891099,13.3690803 35.2724022,11.8857881 37.0956451,11.8857881 C38.9195978,11.8857881 40.4021804,13.3690803 40.4021804,15.1923233 C40.4021804,17.0155663 38.9195978,18.4995683 37.0956451,18.4995683 C35.2724022,18.4995683 33.7891099,17.0155663 33.7891099,15.1923233 M42.2942652,15.1923233 C42.2942652,12.3258078 39.9621607,9.9937033 37.0956451,9.9937033 C34.2291296,9.9937033 31.8970251,12.3258078 31.8970251,15.1923233 C31.8970251,18.0595485 34.2291296,20.391653 37.0956451,20.391653 C39.9621607,20.391653 42.2942652,18.0595485 42.2942652,15.1923233" id="Fill-28"></path>
            <path d="M71.7259773,43.412207 L61.7595308,39.4257703 L61.7595308,21.1514677 L71.7259773,25.1379044 L71.7259773,43.412207 Z M71.7259773,70.5351641 L49.9009995,61.8057408 L49.9009995,36.7210685 L71.7259773,45.4512016 L71.7259773,70.5351641 Z M38.0417585,52.230344 L38.0417585,39.2696343 C39.2283923,37.925445 44.2609404,32.1058295 48.0089147,26.0342671 L48.0089147,48.2410685 L38.0417585,52.230344 Z M48.0089147,61.8057408 L26.1832272,70.5351641 L26.1832272,59.0151641 L48.0089147,50.2800631 L48.0089147,61.8057408 Z M24.2911424,47.510068 L14.3239862,43.5236313 L14.3239862,43.4718226 L14.1948191,43.4718226 L2.4654549,38.7799349 L2.4654549,16.408481 L24.2911424,25.1379044 L24.2911424,47.510068 Z M24.2911424,70.5351641 L14.3239862,66.5487275 L14.3239862,45.5619162 L24.2911424,49.5490626 L24.2911424,70.5351641 Z M12.4319014,65.7914677 L2.4654549,61.8057408 L2.4654549,40.8189295 L12.4319014,44.8053662 L12.4319014,65.7914677 Z M36.1496737,39.2696343 L36.1496737,52.986894 L26.1832272,56.9761695 L26.1832272,26.0342671 C29.9297822,32.1058295 34.9623302,37.925445 36.1496737,39.2696343 Z M37.0957161,1.90841203 C44.4206249,1.90841203 50.3807629,7.86713061 50.3807629,15.1920394 C50.3807629,21.6262632 39.9352627,34.1788901 37.0957161,37.4719409 C34.2554598,34.1781804 23.811379,21.6283923 23.811379,15.1920394 C23.811379,7.86713061 29.7708073,1.90841203 37.0957161,1.90841203 Z M59.867446,20.394208 L59.867446,38.6685106 L49.9009995,34.6820739 L49.9009995,22.7057309 C50.8889147,20.789516 51.6461745,18.9293682 52.0166427,17.2551641 L59.867446,20.394208 Z M52.2664603,15.3155288 C52.26717,15.2750754 52.2728477,15.2324929 52.2728477,15.1920394 C52.2728477,6.82385806 45.4646072,0.0163272548 37.0957161,0.0163272548 C28.7275347,0.0163272548 21.9192942,6.82385806 21.9192942,15.1920394 C21.9192942,17.4489147 22.9909552,20.2785254 24.5494766,23.2032371 L0.573370133,13.6129364 L0.573370133,63.0867659 L24.2911424,72.5741587 L25.2371848,72.9524337 L26.1832272,72.5741587 L48.9549571,63.4650409 L73.6180621,73.3307087 L73.6180621,23.8568793 L52.2664603,15.3155288 Z" id="Fill-29"></path>
        </g>
    </g>
</svg>