<svg xmlns="http://www.w3.org/2000/svg" viewBox="0 0 201 201"><defs><style>.cls-1{fill:#dca927;}.cls-1,.cls-2,.cls-3,.cls-4,.cls-5{stroke:#010101;stroke-miterlimit:10;stroke-width:4px;}.cls-2{fill:#f15822;}.cls-3{fill:#f0b0cf;}.cls-4{fill:none;}.cls-5{fill:#a3d4a0;}</style></defs><title>portland_icon</title><g id="Layer_1" data-name="Layer 1"><polygon class="cls-1" points="75.06 173.09 25.06 153.09 25.06 53.09 75.06 73.09 75.06 173.09"/><polygon class="cls-2" points="125.06 53.09 175.06 73.09 175.06 173.09 125.06 153.09 125.06 53.09"/><polygon class="cls-3" points="75.06 173.09 125.06 153.09 125.06 53.09 75.06 73.09 75.06 173.09"/><line class="cls-4" x1="25.06" y1="104.55" x2="75.06" y2="124.55"/><line class="cls-4" x1="75.06" y1="144.51" x2="125.06" y2="124.49"/><line class="cls-4" x1="125.06" y1="95.91" x2="175.06" y2="115.91"/><line class="cls-4" x1="150.06" y1="63.09" x2="150.06" y2="107.92"/><line class="cls-4" x1="50.06" y1="113.09" x2="50.06" y2="163.09"/><line class="cls-4" x1="100.06" y1="134.5" x2="100.06" y2="69.11"/><path class="cls-5" d="M100.06,23.47a30,30,0,0,0-30,30c0,16.57,30,50,30,50s30-33.43,30-50A30,30,0,0,0,100.06,23.47Zm0,39a9,9,0,1,1,9-9A9,9,0,0,1,100.06,62.44Z"/></g></svg>