<svg xmlns="http://www.w3.org/2000/svg" viewBox="0 0 150 150"><defs><style>.cls-1,.cls-4{fill:#dca927;}.cls-1{fill-rule:evenodd;}.cls-2{fill:#f0b0cf;}.cls-2,.cls-3,.cls-4,.cls-5{stroke:#010101;stroke-miterlimit:10;stroke-width:1.6px;}.cls-3{fill:#f15822;}.cls-5{fill:#a3d4a0;}</style></defs><title>portland_icon</title><g id="Layer_1" data-name="Layer 1"><polygon class="cls-1" points="93.55 15 75 25.44 56.46 15 47.29 34.9 26.46 37.92 30.15 59.68 15 75 30.15 90.32 26.46 112.08 47.29 115.1 56.45 135 75 124.56 93.54 135 102.7 115.1 123.54 112.08 119.85 90.32 135 75 119.85 59.68 123.54 37.92 102.71 34.9 93.55 15"/><path class="cls-2" d="M78.3,93.76a11.41,11.41,0,0,1-6.6,0h0c-3.84-1.19-6.42-4.3-6.42-7.76H59.79c0,5.89,4.13,11.11,10.29,13a16.69,16.69,0,0,0,9.83,0Z"/><polygon class="cls-3" points="76.36 75.61 76.36 96.38 76.36 105 81.86 105 81.86 96.38 81.86 75.61 76.36 75.61"/><polygon class="cls-4" points="68.14 74.39 68.14 96.38 68.14 105 73.64 105 73.64 96.38 73.64 74.39 68.14 74.39"/><polygon class="cls-3" points="68.14 45 68.14 53.62 68.14 74.39 73.64 74.39 73.64 53.62 73.64 45 68.14 45"/><path class="cls-4" d="M79.91,51h0A16.55,16.55,0,0,0,75,50.25c-.45,0-.91,0-1.36.06v5.53a11.45,11.45,0,0,1,4.66.4h0c3.84,1.19,6.42,4.3,6.42,7.76h5.49C90.21,58.11,86.08,52.89,79.91,51Z"/><polygon class="cls-2" points="76.36 45 76.36 53.62 76.36 75.61 81.86 75.61 81.86 53.62 81.86 45 76.36 45"/><path class="cls-5" d="M79.91,73h0A16.55,16.55,0,0,0,75,72.25a11.41,11.41,0,0,1-3.3-.49c-3.84-1.18-6.42-4.3-6.42-7.76a7.71,7.71,0,0,1,2.86-5.83V51.73A13.66,13.66,0,0,0,59.79,64c0,5.89,4.13,11.12,10.29,13a16.66,16.66,0,0,0,4.92.74,11.41,11.41,0,0,1,3.3.49h0c3.84,1.18,6.42,4.3,6.42,7.76a7.71,7.71,0,0,1-2.86,5.83v6.44A13.66,13.66,0,0,0,90.21,86C90.21,80.11,86.08,74.88,79.91,73Z"/></g></svg>