<svg xmlns="http://www.w3.org/2000/svg" width="11" height="20" viewBox="0 0 11 20">
    <path fill="#000" fill-rule="evenodd" d="M7.666 15.592V11.76c.577.495.933 1.171.933 1.917 0 .745-.356 1.42-.933 1.915m-2.334.827c-.16 0-.315-.013-.468-.031v-5.474c.155.012.31.02.468.02.158 0 .313.012.466.03v5.424a3.885 3.885 0 0 1-.466.031M2.063 6.324c0-.746.358-1.422.934-1.917V8.24c-.576-.495-.934-1.17-.934-1.915M5.332 3.58c.158 0 .313.012.466.03v5.475a5.734 5.734 0 0 0-.466-.02c-.16 0-.315-.013-.468-.031V3.612c.153-.019.309-.031.468-.031m2.334 5.99V4.408c.577.495.933 1.171.933 1.917h1.868c0-1.788-1.14-3.34-2.801-4.105V.196H5.798v1.537a5.734 5.734 0 0 0-.934 0V.196H2.997V2.22c-1.66.765-2.8 2.317-2.8 4.105 0 1.787 1.14 3.34 2.8 4.104v5.164c-.576-.495-.934-1.17-.934-1.915H.196c0 1.787 1.14 3.34 2.801 4.104v2.023h1.867v-1.537a5.744 5.744 0 0 0 .934 0v1.537h1.868v-2.023c1.66-.764 2.8-2.317 2.8-4.104 0-1.788-1.14-3.34-2.8-4.105"/>
</svg>
