<svg xmlns="http://www.w3.org/2000/svg" viewBox="0 0 201 201"><defs><style>.cls-1{fill:#f0b0cf;}.cls-1,.cls-2,.cls-3,.cls-4{stroke:#010101;stroke-miterlimit:10;stroke-width:4px;}.cls-2{fill:#f15822;}.cls-3{fill:#dca927;}.cls-4{fill:#a3d4a0;}</style></defs><title>portland_icon</title><g id="Layer_1" data-name="Layer 1"><path class="cls-1" d="M108.74,147.39a28.38,28.38,0,0,1-16.48,0h0c-9.6-3-16.05-10.75-16.05-19.39H62.46c0,14.71,10.35,27.79,25.75,32.53a42,42,0,0,0,24.58,0Z"/><polygon class="cls-2" points="103.89 102.03 103.89 153.96 103.89 175.5 117.64 175.5 117.64 153.96 117.64 102.03 103.89 102.03"/><polygon class="cls-3" points="83.36 98.97 83.36 153.96 83.36 175.5 97.11 175.5 97.11 153.96 97.11 98.97 83.36 98.97"/><polygon class="cls-2" points="83.36 25.5 83.36 47.04 83.36 98.97 97.11 98.97 97.11 47.04 97.11 25.5 83.36 25.5"/><path class="cls-3" d="M112.79,40.47h0a41.77,41.77,0,0,0-12.29-1.84c-1.14,0-2.27,0-3.39.14V52.59a28.37,28.37,0,0,1,11.63,1h0c9.6,3,16.05,10.75,16.05,19.39h13.75C138.54,58.29,128.19,45.21,112.79,40.47Z"/><polygon class="cls-1" points="103.89 25.5 103.89 47.04 103.89 102.03 117.64 102.03 117.64 47.04 117.64 25.5 103.89 25.5"/><path class="cls-4" d="M112.79,95.46h0a41.77,41.77,0,0,0-12.29-1.83,28.16,28.16,0,0,1-8.24-1.23c-9.6-3-16.05-10.75-16.05-19.4a19.2,19.2,0,0,1,7.15-14.57V42.32C70.68,48.09,62.46,59.89,62.46,73c0,14.72,10.35,27.79,25.75,32.54a41.77,41.77,0,0,0,12.29,1.83,28.16,28.16,0,0,1,8.24,1.23h0c9.6,3,16.05,10.75,16.05,19.4a19.2,19.2,0,0,1-7.15,14.57v16.11c12.68-5.77,20.9-17.57,20.9-30.68C138.54,113.28,128.19,100.21,112.79,95.46Z"/></g></svg>