<svg xmlns="http://www.w3.org/2000/svg" width="85" height="158" viewBox="0 0 85 158">
    <g fill="none" fill-rule="evenodd">
        <path fill="#9FE2A2" d="M60.667 122.922V92.828C65.196 96.715 68 102.023 68 107.875c0 5.853-2.804 11.16-7.333 15.047m-18.333 6.495c-1.25 0-2.466-.1-3.667-.246V86.177c1.208.099 2.43.156 3.667.156 1.248 0 2.465.1 3.666.246v42.592a30.264 30.264 0 0 1-3.666.246M16.667 50.125c0-5.852 2.804-11.16 7.333-15.047v30.094c-4.53-3.887-7.333-9.194-7.333-15.047m25.667-21.542c1.248 0 2.465.1 3.666.246v42.994a45.304 45.304 0 0 0-3.666-.156c-1.25 0-2.466-.1-3.667-.246V28.829a30.471 30.471 0 0 1 3.667-.246M60.667 75.64V35.078C65.196 38.965 68 44.273 68 50.125h14.667c0-14.041-8.954-26.231-22-32.235V2H46v12.073a45.304 45.304 0 0 0-3.666-.156 45.31 45.31 0 0 0-3.667.156V2H24v15.89C10.955 23.894 2 36.084 2 50.125c0 14.04 8.955 26.232 22 32.235v40.562c-4.53-3.887-7.333-9.194-7.333-15.047H2c0 14.04 8.955 26.232 22 32.235V156h14.667v-12.073c1.208.099 2.43.156 3.667.156 1.236 0 2.458-.057 3.666-.156V156h14.667v-15.89c13.046-6.003 22-18.194 22-32.235s-8.954-26.231-22-32.235"/>
        <path stroke="#000" stroke-width="4" d="M60.667 122.922V92.828C65.196 96.715 68 102.023 68 107.875c0 5.853-2.804 11.16-7.333 15.047zm-18.333 6.495c-1.25 0-2.466-.1-3.667-.246V86.177c1.208.099 2.43.156 3.667.156 1.248 0 2.465.1 3.666.246v42.592a30.264 30.264 0 0 1-3.666.246zM16.667 50.125c0-5.852 2.804-11.16 7.333-15.047v30.094c-4.53-3.887-7.333-9.194-7.333-15.047zm25.667-21.542c1.248 0 2.465.1 3.666.246v42.994a45.304 45.304 0 0 0-3.666-.156c-1.25 0-2.466-.1-3.667-.246V28.829a30.471 30.471 0 0 1 3.667-.246zM60.667 75.64V35.078C65.196 38.965 68 44.273 68 50.125h14.667c0-14.041-8.954-26.231-22-32.235V2H46v12.073a45.304 45.304 0 0 0-3.666-.156 45.31 45.31 0 0 0-3.667.156V2H24v15.89C10.955 23.894 2 36.084 2 50.125c0 14.04 8.955 26.232 22 32.235v40.562c-4.53-3.887-7.333-9.194-7.333-15.047H2c0 14.04 8.955 26.232 22 32.235V156h14.667v-12.073c1.208.099 2.43.156 3.667.156 1.236 0 2.458-.057 3.666-.156V156h14.667v-15.89c13.046-6.003 22-18.194 22-32.235s-8.954-26.231-22-32.235z"/>
    </g>
</svg>
