<?xml version="1.0" encoding="UTF-8"?>
<svg width="40px" height="74px" viewBox="0 0 40 74" version="1.1" xmlns="http://www.w3.org/2000/svg" xmlns:xlink="http://www.w3.org/1999/xlink">
    <!-- Generator: sketchtool 50.2 (55047) - http://www.bohemiancoding.com/sketch -->
    <title>6A86A70F-169E-4642-87F8-0A629389DC9D</title>
    <desc>Created with sketchtool.</desc>
    <defs></defs>
    <g id="Symbols" stroke="none" stroke-width="1" fill="none" fill-rule="evenodd">
        <g id="cost_white" fill="#000000">
            <path d="M10.138622,19.4567018 C9.16632035,20.8207629 8.64681321,22.3736067 8.64681321,23.9810981 C8.64681321,25.5885895 9.16632035,27.1421429 10.138622,28.5054943 L10.138622,19.4567018 Z M12.0264485,32.9688556 L10.4679271,31.6317634 C8.076207,29.5792844 6.75898669,26.8625175 6.75898669,23.9810981 C6.75898669,21.0996787 8.076207,18.3829118 10.4679271,16.3304327 L12.0264485,14.9919211 L12.0264485,32.9688556 Z M18.7857191,32.9383381 C19.3165816,32.975243 19.7821508,32.9603391 20.2775278,32.9787915 L20.2775278,15.0238581 C19.7530527,14.9876629 19.3094845,14.9876629 18.7857191,15.0238581 L18.7857191,32.9383381 Z M22.1653544,35.0050113 L21.1440828,34.9212656 C19.97945,34.8254549 19.0419241,34.8921676 17.7282523,34.7317733 L16.8978926,34.6309946 L16.8978926,13.3290724 L17.7289621,13.2297132 C19.0873455,13.0657703 19.9751917,13.0657703 21.3335752,13.2297132 L22.1653544,13.3290724 L22.1653544,35.0050113 Z M28.9246249,46.0707974 L28.9246249,55.1195899 C29.8969266,53.7555288 30.415724,52.2033948 30.415724,50.5951937 C30.415724,48.9877023 29.8969266,47.4348586 28.9246249,46.0707974 Z M27.0367984,59.5829512 L27.0367984,41.6060168 L28.5953199,42.9445283 C30.9863302,44.9962977 32.3035505,47.7137743 32.3035505,50.5951937 C32.3035505,53.4773228 30.9863302,56.1940897 28.5953199,58.245859 L27.0367984,59.5829512 Z M18.7857191,59.5524337 C19.3080651,59.5886289 19.7544722,59.5886289 20.2775278,59.5524337 L20.2775278,41.6379537 C19.7466654,41.6017585 19.2853544,41.6159527 18.7857191,41.5975002 L18.7857191,59.5524337 Z M19.5316235,61.4665195 C18.9780503,61.4665195 18.4046052,61.4289049 17.7282523,61.3458689 L16.8978926,61.2450902 L16.8978926,39.5719901 L17.9177447,39.6550261 C19.1093465,39.7522563 20.0234519,39.6855436 21.3335752,39.8438088 L22.1653544,39.9431681 L22.1653544,61.2450902 L21.3349946,61.3458689 C20.657932,61.4289049 20.0851966,61.4665195 19.5316235,61.4665195 Z M22.1653544,71.8296934 L27.0367984,71.8296934 L27.0367984,64.8461548 L27.5854036,64.5934983 C33.50083,61.8710537 37.1749946,56.5070715 37.1749946,50.5951937 C37.1749946,44.6833159 33.50083,39.3193337 27.5854036,36.5961794 L27.0367984,36.3435229 L27.0367984,14.9919211 L28.5953199,16.3304327 C30.7237378,18.1572242 32.0012144,20.5099103 32.2567097,23.0371848 L37.1437674,23.0371848 C36.7754283,17.5028724 33.1842997,12.5590379 27.5854036,9.98208379 L27.0367984,9.7294273 L27.0367984,2.74659832 L22.1653544,2.74659832 L22.1653544,8.39091572 L21.1440828,8.30717003 C20.0149354,8.21419813 19.0483115,8.21419813 17.9191641,8.30717003 L16.8978926,8.39091572 L16.8978926,2.74659832 L12.0264485,2.74659832 L12.0264485,9.7294273 L11.4771336,9.98208379 C5.56241695,12.705238 1.88825234,18.0692203 1.88825234,23.9810981 C1.88825234,29.8929759 5.56241695,35.2569581 11.4771336,37.9794027 L12.0264485,38.2320591 L12.0264485,59.5829512 L10.4679271,58.245859 C8.33879941,56.4190675 7.06203253,54.0663815 6.80653721,51.5391069 L1.91876984,51.5391069 C2.28710892,57.0734194 5.87894726,62.0172538 11.4771336,64.5934983 L12.0264485,64.8461548 L12.0264485,71.8296934 L16.8978926,71.8296934 L16.8978926,66.1860858 L17.9177447,66.2691217 C19.0660542,66.3620936 19.9971927,66.3620936 21.1447925,66.2691217 L22.1653544,66.1860858 L22.1653544,71.8296934 Z M28.9246249,73.71752 L20.2775278,73.71752 L20.2775278,68.2115959 C19.7715052,68.2300483 19.2917417,68.2300483 18.7857191,68.2115959 L18.7857191,73.71752 L10.138622,73.71752 L10.138622,66.0455633 C3.86905076,62.9356175 -0.000283883687,57.0663223 -0.000283883687,50.5951937 L-0.000283883687,49.6512804 L8.64681321,49.6512804 L8.64681321,50.5951937 C8.64681321,52.2026851 9.16632035,53.7562385 10.138622,55.1195899 L10.138622,39.4314677 C3.86905076,36.3215219 -0.000283883687,30.4522267 -0.000283883687,23.9810981 C-0.000283883687,17.5106792 3.86905076,11.6406742 10.138622,8.53001873 L10.138622,0.858771809 L18.7857191,0.858771809 L18.7857191,6.36469591 C19.2881932,6.34624347 19.7750537,6.34624347 20.2775278,6.36469591 L20.2775278,0.858771809 L28.9246249,0.858771809 L28.9246249,8.53001873 C35.1941962,11.6406742 39.0628211,17.5106792 39.0628211,23.9810981 L39.0628211,24.9250113 L30.415724,24.9250113 L30.415724,23.9810981 C30.415724,22.3736067 29.8969266,20.8207629 28.9246249,19.4567018 L28.9246249,35.1441143 C35.1941962,38.2547698 39.0628211,44.1247748 39.0628211,50.5951937 C39.0628211,57.0663223 35.1941962,62.9356175 28.9246249,66.0455633 L28.9246249,73.71752 Z" id="Fill-1"></path>
        </g>
    </g>
</svg>