<svg xmlns="http://www.w3.org/2000/svg" viewBox="0 0 150 150"><defs><style>.cls-1{fill-rule:evenodd;}.cls-2{stroke:#fff;stroke-miterlimit:10;stroke-width:1.6px;}</style></defs><title>portland_icon</title><g id="Layer_1" data-name="Layer 1"><polygon class="cls-1" points="93.55 15 75 25.44 56.46 15 47.29 34.9 26.46 37.92 30.15 59.68 15 75 30.15 90.32 26.46 112.08 47.29 115.1 56.45 135 75 124.56 93.54 135 102.7 115.1 123.54 112.08 119.85 90.32 135 75 119.85 59.68 123.54 37.92 102.71 34.9 93.55 15"/><path class="cls-2" d="M93.2,45h-36a6,6,0,0,0-6,6V99h30a6,6,0,0,0,12,0V51h6V45Z"/><path class="cls-2" d="M93.2,51a6,6,0,1,1,12,0h-12"/><path class="cls-2" d="M81.2,99V96h-36v3a6,6,0,0,0,6,6h36A6,6,0,0,1,81.2,99Z"/><line class="cls-2" x1="60.2" y1="60" x2="84.2" y2="60"/><line class="cls-2" x1="60.2" y1="69" x2="84.2" y2="69"/><line class="cls-2" x1="60.2" y1="78" x2="84.2" y2="78"/><line class="cls-2" x1="60.2" y1="87" x2="84.2" y2="87"/><polygon class="cls-2" points="63.2 90 55.7 83.25 48.2 90 48.2 63 63.2 63 63.2 90"/><polygon class="cls-2" points="65.24 61.5 66.6 57.96 63.42 55.89 62.44 52.23 58.65 52.42 55.7 50.04 52.75 52.42 48.96 52.23 47.98 55.89 44.8 57.96 46.16 61.5 44.8 65.04 47.98 67.11 48.96 70.77 52.75 70.58 55.7 72.96 58.65 70.58 62.44 70.77 63.42 67.11 66.6 65.04 65.24 61.5"/><polygon class="cls-2" points="65.24 61.5 66.6 57.96 63.42 55.89 62.44 52.23 58.65 52.42 55.7 50.04 52.75 52.42 48.96 52.23 47.98 55.89 44.8 57.96 46.16 61.5 44.8 65.04 47.98 67.11 48.96 70.77 52.75 70.58 55.7 72.96 58.65 70.58 62.44 70.77 63.42 67.11 66.6 65.04 65.24 61.5"/><circle class="cls-2" cx="55.7" cy="61.5" r="4.5"/></g></svg>