<svg xmlns="http://www.w3.org/2000/svg" viewBox="0 0 201 201"><defs><style>.cls-1{fill:#f0b0cf;}.cls-1,.cls-2,.cls-4,.cls-5{stroke:#010101;}.cls-1,.cls-2,.cls-3,.cls-4,.cls-5{stroke-miterlimit:10;stroke-width:4px;}.cls-2{fill:#f15822;}.cls-3{fill:none;stroke:#231f20;}.cls-4{fill:#a3d4a0;}.cls-5{fill:#dca927;}</style></defs><title>portland_icon</title><g id="Layer_1" data-name="Layer 1"><path class="cls-1" d="M148.64,25.26h-90a15,15,0,0,0-15,15v120h75a15,15,0,0,0,30,0v-120h15v-15Z"/><path class="cls-2" d="M148.64,40.26a15,15,0,1,1,30,0h-30"/><path class="cls-2" d="M118.64,160.26v-7.5h-90v7.5a15,15,0,0,0,15,15h90A15,15,0,0,1,118.64,160.26Z"/><line class="cls-3" x1="66.14" y1="62.76" x2="126.14" y2="62.76"/><line class="cls-3" x1="66.14" y1="85.26" x2="126.14" y2="85.26"/><line class="cls-3" x1="66.14" y1="107.76" x2="126.14" y2="107.76"/><line class="cls-3" x1="66.14" y1="130.26" x2="126.14" y2="130.26"/><polygon class="cls-4" points="73.64 137.76 54.89 120.88 36.14 137.76 36.14 70.26 73.64 70.26 73.64 137.76"/><polygon class="cls-5" points="78.74 66.51 82.15 57.65 74.19 52.49 71.74 43.33 62.27 43.82 54.89 37.86 47.52 43.82 38.05 43.33 35.6 52.49 27.64 57.65 31.04 66.51 27.64 75.36 35.6 80.52 38.05 89.69 47.52 89.2 54.89 95.16 62.27 89.2 71.74 89.69 74.19 80.52 82.15 75.36 78.74 66.51"/><polygon class="cls-5" points="78.74 66.51 82.15 57.65 74.19 52.49 71.74 43.33 62.27 43.82 54.89 37.86 47.52 43.82 38.05 43.33 35.6 52.49 27.64 57.65 31.04 66.51 27.64 75.36 35.6 80.52 38.05 89.69 47.52 89.2 54.89 95.16 62.27 89.2 71.74 89.69 74.19 80.52 82.15 75.36 78.74 66.51"/><circle class="cls-2" cx="54.89" cy="66.51" r="11.25"/></g></svg>