<svg xmlns="http://www.w3.org/2000/svg" viewBox="0 0 150 150"><defs><style>.cls-1{fill-rule:evenodd;}.cls-2{fill:#f0b0cf;}.cls-2,.cls-3,.cls-5,.cls-6{stroke:#010101;}.cls-2,.cls-3,.cls-4,.cls-5,.cls-6{stroke-miterlimit:10;stroke-width:1.6px;}.cls-3{fill:#f15822;}.cls-4{fill:none;stroke:#231f20;}.cls-5{fill:#a3d4a0;}.cls-6{fill:#dca927;}</style></defs><title>portland_icon</title><g id="Layer_1" data-name="Layer 1"><polygon class="cls-1" points="97.46 9.94 78.14 20.29 58.83 9.94 49.28 29.66 27.58 32.65 31.43 54.21 15.64 69.39 31.43 84.58 27.58 106.14 49.28 109.13 58.83 128.85 78.14 118.5 97.46 128.85 107 109.13 128.71 106.14 124.86 84.58 140.64 69.39 124.86 54.21 128.71 32.65 107.01 29.66 97.46 9.94"/><path class="cls-2" d="M96.35,39.4h-36a6,6,0,0,0-6,6v48h30a6,6,0,0,0,12,0v-48h6v-6Z"/><path class="cls-3" d="M96.35,45.4a6,6,0,0,1,12,0h-12"/><path class="cls-3" d="M84.35,93.4v-3h-36v3a6,6,0,0,0,6,6h36A6,6,0,0,1,84.35,93.4Z"/><line class="cls-4" x1="63.35" y1="54.4" x2="87.35" y2="54.4"/><line class="cls-4" x1="63.35" y1="63.4" x2="87.35" y2="63.4"/><line class="cls-4" x1="63.35" y1="72.4" x2="87.35" y2="72.4"/><line class="cls-4" x1="63.35" y1="81.4" x2="87.35" y2="81.4"/><polygon class="cls-5" points="66.34 84.4 58.84 77.65 51.34 84.4 51.34 57.4 66.34 57.4 66.34 84.4"/><polygon class="cls-6" points="68.39 55.9 69.75 52.35 66.56 50.29 65.58 46.63 61.79 46.82 58.84 44.44 55.9 46.82 52.11 46.63 51.13 50.29 47.94 52.35 49.3 55.9 47.94 59.44 51.13 61.5 52.11 65.17 55.9 64.97 58.84 67.36 61.79 64.97 65.58 65.17 66.56 61.5 69.75 59.44 68.39 55.9"/><polygon class="cls-6" points="68.39 55.9 69.75 52.35 66.56 50.29 65.58 46.63 61.79 46.82 58.84 44.44 55.9 46.82 52.11 46.63 51.13 50.29 47.94 52.35 49.3 55.9 47.94 59.44 51.13 61.5 52.11 65.17 55.9 64.97 58.84 67.36 61.79 64.97 65.58 65.17 66.56 61.5 69.75 59.44 68.39 55.9"/><circle class="cls-3" cx="58.85" cy="55.9" r="4.5"/></g></svg>