<svg xmlns="http://www.w3.org/2000/svg" viewBox="0 0 150 150"><defs><style>.cls-1{fill:#fff;stroke:#000;stroke-miterlimit:10;stroke-width:2.67px;}</style></defs><title>portland_icon</title><g id="Layer_1" data-name="Layer 1"><path class="cls-1" d="M108.48,19.4h-60a10,10,0,0,0-10,10v80h50a10,10,0,0,0,20,0v-80h10v-10Z"/><path class="cls-1" d="M108.48,29.4a10,10,0,1,1,20,0h-20"/><path class="cls-1" d="M88.48,109.4v-5h-60v5a10,10,0,0,0,10,10h60A10,10,0,0,1,88.48,109.4Z"/><line class="cls-1" x1="53.48" y1="44.4" x2="93.48" y2="44.4"/><line class="cls-1" x1="53.48" y1="59.4" x2="93.48" y2="59.4"/><line class="cls-1" x1="53.48" y1="74.4" x2="93.48" y2="74.4"/><line class="cls-1" x1="53.48" y1="89.4" x2="93.48" y2="89.4"/><polygon class="cls-1" points="58.48 94.4 45.98 83.15 33.48 94.4 33.48 49.4 58.48 49.4 58.48 94.4"/><polygon class="cls-1" points="61.88 46.9 64.15 40.99 58.84 37.55 57.21 31.44 50.89 31.77 45.98 27.8 41.06 31.77 34.75 31.44 33.11 37.55 27.81 40.99 30.08 46.9 27.81 52.8 33.11 56.24 34.75 62.35 41.06 62.02 45.98 66 50.89 62.02 57.21 62.35 58.84 56.24 64.15 52.8 61.88 46.9"/><polygon class="cls-1" points="61.88 46.9 64.15 40.99 58.84 37.55 57.21 31.44 50.89 31.77 45.98 27.8 41.06 31.77 34.75 31.44 33.11 37.55 27.81 40.99 30.08 46.9 27.81 52.8 33.11 56.24 34.75 62.35 41.06 62.02 45.98 66 50.89 62.02 57.21 62.35 58.84 56.24 64.15 52.8 61.88 46.9"/><circle class="cls-1" cx="45.98" cy="46.9" r="7.5"/></g></svg>