<svg xmlns="http://www.w3.org/2000/svg" viewBox="0 0 150 150"><defs><style>.cls-1{fill:#fff;stroke:#000;stroke-miterlimit:10;stroke-width:2.67px;}</style></defs><title>portland_icon</title><g id="Layer_1" data-name="Layer 1"><path class="cls-1" d="M115.35,61.79c13.33,0,13.33,13.33,13.33,13.33v33.34H15.35V35.12A13.33,13.33,0,0,1,28.68,21.79H102a13.33,13.33,0,0,1,13.34,13.33Z"/><rect class="cls-1" x="108.68" y="95.12" width="26.67" height="13.33"/><circle class="cls-1" cx="42.01" cy="108.46" r="13.33"/><circle class="cls-1" cx="42.01" cy="108.46" r="6.67"/><circle class="cls-1" cx="108.68" cy="108.46" r="13.33"/><circle class="cls-1" cx="108.68" cy="108.46" r="6.67"/><line class="cls-1" x1="15.35" y1="35.12" x2="115.35" y2="35.12"/><line class="cls-1" x1="22.01" y1="67.79" x2="75.35" y2="67.79"/><line class="cls-1" x1="22.01" y1="81.79" x2="75.35" y2="81.79"/><rect class="cls-1" x="102.01" y="41.79" width="13.33" height="20"/><rect class="cls-1" x="62.01" y="41.79" width="13.33" height="20"/><rect class="cls-1" x="42.01" y="41.79" width="13.33" height="20"/><rect class="cls-1" x="22.01" y="41.79" width="13.33" height="20"/><rect class="cls-1" x="88.68" y="41.79" width="6.67" height="53.33"/><rect class="cls-1" x="82.01" y="41.79" width="6.67" height="53.33"/><path class="cls-1" d="M128.68,88.46a6.67,6.67,0,0,0,0-13.34Z"/><rect class="cls-1" x="15.35" y="95.12" width="6.67" height="13.33"/></g></svg>