<svg xmlns="http://www.w3.org/2000/svg" viewBox="0 0 150 150"><defs><style>.cls-1,.cls-2{fill:#dca927;}.cls-1{fill-rule:evenodd;}.cls-2,.cls-3,.cls-4,.cls-6{stroke:#010101;}.cls-2,.cls-3,.cls-4,.cls-5,.cls-6{stroke-miterlimit:10;stroke-width:1.6px;}.cls-3{fill:#f15822;}.cls-4{fill:#f0b0cf;}.cls-5{fill:none;stroke:#231f20;}.cls-6{fill:#a3d4a0;}</style></defs><title>portland_icon</title><g id="Layer_1" data-name="Layer 1"><polygon class="cls-1" points="93.55 15 75 25.44 56.46 15 47.29 34.9 26.46 37.92 30.15 59.68 15 75 30.15 90.32 26.46 112.08 47.29 115.1 56.45 135 75 124.56 93.54 135 102.7 115.1 123.54 112.08 119.85 90.32 135 75 119.85 59.68 123.54 37.92 102.71 34.9 93.55 15"/><path class="cls-2" d="M99,69c8,0,8,8,8,8V97H39V53a8,8,0,0,1,8-8H91a8,8,0,0,1,8,8Z"/><rect class="cls-3" x="95" y="89" width="16" height="8"/><circle class="cls-4" cx="55" cy="97" r="8"/><circle class="cls-3" cx="55" cy="97" r="4"/><circle class="cls-4" cx="95" cy="97" r="8"/><circle class="cls-3" cx="95" cy="97" r="4"/><line class="cls-5" x1="39" y1="53" x2="99" y2="53"/><line class="cls-5" x1="43" y1="72.6" x2="75" y2="72.6"/><line class="cls-5" x1="43" y1="81" x2="75" y2="81"/><rect class="cls-6" x="91" y="57" width="8" height="12"/><rect class="cls-6" x="67" y="57" width="8" height="12"/><rect class="cls-6" x="55" y="57" width="8" height="12"/><rect class="cls-6" x="43" y="57" width="8" height="12"/><rect class="cls-6" x="83" y="57" width="4" height="32"/><rect class="cls-6" x="79" y="57" width="4" height="32"/><path class="cls-4" d="M107,85a4,4,0,0,0,0-8Z"/><rect class="cls-3" x="39" y="89" width="4" height="8"/></g></svg>