<svg xmlns="http://www.w3.org/2000/svg" viewBox="0 0 201 201"><defs><style>.cls-1{fill:#dca927;}.cls-1,.cls-2,.cls-3,.cls-5{stroke:#010101;}.cls-1,.cls-2,.cls-3,.cls-4,.cls-5{stroke-miterlimit:10;stroke-width:4px;}.cls-2{fill:#f15822;}.cls-3{fill:#f0b0cf;}.cls-4{fill:none;stroke:#231f20;}.cls-5{fill:#a3d4a0;}</style></defs><title>portland_icon</title><g id="Layer_1" data-name="Layer 1"><path class="cls-1" d="M160.85,89.76c20,0,20,20,20,20v50h-170v-110a20,20,0,0,1,20-20h110a20,20,0,0,1,20,20Z"/><rect class="cls-2" x="150.85" y="139.76" width="40" height="20"/><circle class="cls-3" cx="50.85" cy="159.76" r="20"/><circle class="cls-2" cx="50.85" cy="159.76" r="10"/><circle class="cls-3" cx="150.85" cy="159.76" r="20"/><circle class="cls-2" cx="150.85" cy="159.76" r="10"/><line class="cls-4" x1="10.85" y1="49.76" x2="160.85" y2="49.76"/><line class="cls-4" x1="20.85" y1="98.76" x2="100.85" y2="98.76"/><line class="cls-4" x1="20.85" y1="119.76" x2="100.85" y2="119.76"/><rect class="cls-5" x="140.85" y="59.76" width="20" height="30"/><rect class="cls-5" x="80.85" y="59.76" width="20" height="30"/><rect class="cls-5" x="50.85" y="59.76" width="20" height="30"/><rect class="cls-5" x="20.85" y="59.76" width="20" height="30"/><rect class="cls-5" x="120.85" y="59.76" width="10" height="80"/><rect class="cls-5" x="110.85" y="59.76" width="10" height="80"/><path class="cls-3" d="M180.85,129.76a10,10,0,1,0,0-20Z"/><rect class="cls-2" x="10.85" y="139.76" width="10" height="20"/></g></svg>