<?xml version="1.0" encoding="UTF-8"?>
<svg width="88px" height="74px" viewBox="0 0 88 74" version="1.1" xmlns="http://www.w3.org/2000/svg" xmlns:xlink="http://www.w3.org/1999/xlink">
    <!-- Generator: sketchtool 50.2 (55047) - http://www.bohemiancoding.com/sketch -->
    <title>EBF2F6F6-8F28-42CC-A342-8AC38B74C516</title>
    <desc>Created with sketchtool.</desc>
    <defs></defs>
    <g id="Symbols" stroke="none" stroke-width="1" fill="none" fill-rule="evenodd">
        <g id="transport_white" fill="#000000">
            <path d="M20.0312706,59.4066989 C17.9440158,59.4066989 16.2456816,61.105033 16.2456816,63.1922878 C16.2456816,65.2788329 17.9440158,66.9771671 20.0312706,66.9771671 C22.1178157,66.9771671 23.8161498,65.2788329 23.8161498,63.1922878 C23.8161498,61.105033 22.1178157,59.4066989 20.0312706,59.4066989 M20.0312706,68.8692518 C16.9007432,68.8692518 14.3535968,66.3228152 14.3535968,63.1922878 C14.3535968,60.0617605 16.9007432,57.5146141 20.0312706,57.5146141 C23.1617979,57.5146141 25.7082346,60.0617605 25.7082346,63.1922878 C25.7082346,66.3228152 23.1617979,68.8692518 20.0312706,68.8692518" id="Fill-16"></path>
            <path d="M67.3447452,59.4066989 C65.2582001,59.4066989 63.5598659,61.105033 63.5598659,63.1922878 C63.5598659,65.2788329 65.2582001,66.9771671 67.3447452,66.9771671 C69.432,66.9771671 71.1303342,65.2788329 71.1303342,63.1922878 C71.1303342,61.105033 69.432,59.4066989 67.3447452,59.4066989 M67.3447452,68.8692518 C64.2142178,68.8692518 61.6677812,66.3228152 61.6677812,63.1922878 C61.6677812,60.0617605 64.2142178,57.5146141 67.3447452,57.5146141 C70.4752725,57.5146141 73.0224189,60.0617605 73.0224189,63.1922878 C73.0224189,66.3228152 70.4752725,68.8692518 67.3447452,68.8692518" id="Fill-18"></path>
            <polygon id="Fill-20" points="5.83694431 35.2763726 43.6878659 35.2763726 43.6878659 33.3842878 5.83694431 33.3842878"></polygon>
            <polygon id="Fill-22" points="5.83694431 45.2123016 43.6878659 45.2123016 43.6878659 43.3202169 5.83694431 43.3202169"></polygon>
            <path d="M35.1713553,29.1260325 L42.7418236,29.1260325 L42.7418236,16.823933 L35.1713553,16.823933 L35.1713553,29.1260325 Z M33.2792706,31.0181173 L44.6339083,31.0181173 L44.6339083,14.9318482 L33.2792706,14.9318482 L33.2792706,31.0181173 Z" id="Fill-23"></path>
            <path d="M20.977171,29.1260325 L28.5476392,29.1260325 L28.5476392,16.823933 L20.977171,16.823933 L20.977171,29.1260325 Z M19.0850862,31.0181173 L30.439724,31.0181173 L30.439724,14.9318482 L19.0850862,14.9318482 L19.0850862,31.0181173 Z" id="Fill-24"></path>
            <path d="M6.78298669,29.1260325 L14.3534549,29.1260325 L14.3534549,16.823933 L6.78298669,16.823933 L6.78298669,29.1260325 Z M4.89090192,31.0181173 L16.2455397,31.0181173 L16.2455397,14.9318482 L4.89090192,14.9318482 L4.89090192,31.0181173 Z" id="Fill-25"></path>
            <path d="M54.0964613,52.7827698 L56.9360079,52.7827698 L56.9360079,16.823933 L54.0964613,16.823933 L54.0964613,52.7827698 Z M49.3655397,52.7827698 L52.2043765,52.7827698 L52.2043765,16.823933 L49.3655397,16.823933 L49.3655397,52.7827698 Z M54.0964613,14.9318482 L52.2043765,14.9318482 L47.4734549,14.9318482 L47.4734549,54.6748546 L52.2043765,54.6748546 L54.0964613,54.6748546 L58.8280927,54.6748546 L58.8280927,14.9318482 L54.0964613,14.9318482 Z" id="Fill-26"></path>
            <path d="M82.48483,62.2460325 L85.3243765,62.2460325 L85.3243765,54.6748546 L82.48483,54.6748546 L82.48483,62.2460325 Z M63.559724,29.1260325 L71.1301922,29.1260325 L71.1301922,16.823933 L63.559724,16.823933 L63.559724,29.1260325 Z M80.5927452,49.943933 L80.5927452,52.7827698 L66.3985609,52.7827698 L66.3985609,52.8310301 C61.4135633,53.2824051 57.4328043,57.261035 56.9814293,62.2460325 L30.3921735,62.2460325 C29.9117003,56.9480532 25.4511779,52.7827698 20.0311286,52.7827698 C14.6103696,52.7827698 10.1498472,56.9480532 9.67008379,62.2460325 L6.78298669,62.2460325 L6.78298669,52.7827698 L2.05135535,52.7827698 L2.05135535,12.0923016 L71.1301922,12.0923016 L71.1301922,14.9318482 L61.6676392,14.9318482 L61.6676392,31.0181173 L71.1301922,31.0181173 L72.0762346,31.0181173 C80.4600296,31.0181173 80.5913258,39.1889995 80.5927452,39.5346279 L80.5927452,49.943933 Z M80.5927452,62.2460325 L77.7063578,62.2460325 C77.4224741,59.1176343 75.7496895,56.3888024 73.3104189,54.6748546 L80.5927452,54.6748546 L80.5927452,62.2460325 Z M67.3446033,71.7085855 C62.6491671,71.7085855 58.8280927,67.8882208 58.8280927,63.1920749 C58.8280927,58.495929 62.6491671,54.6748546 67.3446033,54.6748546 C72.0407491,54.6748546 75.8618236,58.495929 75.8618236,63.1920749 C75.8618236,67.8882208 72.0407491,71.7085855 67.3446033,71.7085855 Z M20.0311286,71.7085855 C15.3349828,71.7085855 11.5139083,67.8882208 11.5139083,63.1920749 C11.5139083,58.495929 15.3349828,54.6748546 20.0311286,54.6748546 C24.7265648,54.6748546 28.5476392,58.495929 28.5476392,63.1920749 C28.5476392,67.8882208 24.7265648,71.7085855 20.0311286,71.7085855 Z M2.05135535,62.2460325 L4.89090192,62.2460325 L4.89090192,54.6748546 L2.05135535,54.6748546 L2.05135535,62.2460325 Z M10.5678659,2.62974864 L62.6136816,2.62974864 C66.9890389,2.62974864 70.6014588,5.94834894 71.0741252,10.2002169 L2.10671267,10.2002169 C2.579379,5.94834894 6.19250862,2.62974864 10.5678659,2.62974864 Z M82.48483,40.6006111 C84.1157417,41.0221784 85.3243765,42.5061804 85.3243765,44.2662592 C85.3243765,46.0270478 84.1157417,47.5110498 82.48483,47.9319073 L82.48483,40.6006111 Z M82.48483,49.8587679 C85.1661114,49.4059734 87.2164613,47.0738689 87.2164613,44.2662592 C87.2164613,41.4366486 85.1334648,39.0903499 82.4202464,38.6645244 C82.1484278,36.2600296 80.700621,29.6576047 73.022277,29.1558403 L73.022277,14.9318482 L73.022277,11.1462592 C73.022277,5.40684081 68.3531,0.737663874 62.6136816,0.737663874 L10.5678659,0.737663874 C4.82844751,0.737663874 0.159270577,5.40684081 0.159270577,11.1462592 L0.159270577,52.7827698 L0.159270577,64.1381173 L6.78298669,64.1381173 L9.67008379,64.1381173 C10.1498472,69.4353869 14.6103696,73.6006703 20.0311286,73.6006703 C25.4511779,73.6006703 29.9117003,69.4353869 30.3921735,64.1381173 L56.9842681,64.1381173 C57.4640315,69.4353869 61.924554,73.6006703 67.3446033,73.6006703 C72.7653622,73.6006703 77.2258847,69.4353869 77.7063578,64.1381173 L82.48483,64.1381173 L87.2164613,64.1381173 L87.2164613,52.7827698 L82.48483,52.7827698 L82.48483,49.8587679 Z" id="Fill-27"></path>
        </g>
    </g>
</svg>