<?xml version="1.0" encoding="UTF-8"?>
<svg width="100px" height="81px" viewBox="0 0 100 81" version="1.1" xmlns="http://www.w3.org/2000/svg" xmlns:xlink="http://www.w3.org/1999/xlink">
    <!-- Generator: sketchtool 50.2 (55047) - http://www.bohemiancoding.com/sketch -->
    <title>659D3834-4CE8-422C-BFA8-EDEA63B8236B</title>
    <desc>Created with sketchtool.</desc>
    <defs></defs>
    <g id="game_end_lose" stroke="none" stroke-width="1" fill="none" fill-rule="evenodd">
        <g id="game_end_lose_mobile" transform="translate(-20.000000, -348.000000)">
            <g id="Group" transform="translate(20.000000, 348.000000)">
                <path d="M97.8299225,29.4910853 C97.7965891,14.922093 86.2981395,1.55077519 72.0733333,1.55077519 C62.7593798,1.55077519 54.6012403,6.91356589 50.0779845,14.9484496 C45.5539535,6.91356589 37.395814,1.55077519 28.0818605,1.55077519 C13.8570543,1.55077519 2.35627907,14.922093 2.32527132,29.4910853 C2.26015504,60.4422481 50.0779845,79.070155 50.0779845,79.070155 C50.0779845,79.070155 97.8950388,57.7034884 97.8299225,29.4910853" id="Fill-1" fill="#EFAECE"></path>
                <path d="M28.0817829,3.10077519 C15.2166667,3.10077519 3.90581395,15.4341085 3.8755814,29.4945736 C3.81744186,57.1968992 44.5631783,75.1007752 50.0375969,77.3790698 C55.4825581,74.8139535 96.3375969,54.7077519 96.2794574,29.4945736 C96.2468992,15.4341085 84.9352713,3.10077519 72.0732558,3.10077519 C63.5918605,3.10077519 55.874031,7.81472868 51.4282946,15.7093023 L50.077907,18.1085271 L48.7267442,15.7093023 C44.2817829,7.81472868 36.5639535,3.10077519 28.0817829,3.10077519 Z M50.1182171,80.7496124 L49.5143411,80.5147287 C49.0189922,80.3217054 37.2422481,75.6891473 25.2763566,67.1496124 C9.21976744,55.6899225 0.747674419,42.6666667 0.774806202,29.4875969 C0.808914729,13.503876 13.3135659,0 28.0817829,0 C36.8833333,0 44.9406977,4.44263566 50.077907,12.0062016 C55.2151163,4.44263566 63.2717054,0 72.0732558,0 C86.8383721,0 99.3430233,13.5031008 99.3802326,29.4875969 C99.4081395,41.7069767 91.1732558,54.0263566 74.901938,66.1046512 C62.9577519,74.9713178 50.8313953,80.4310078 50.7096899,80.4852713 L50.1182171,80.7496124 Z" id="Fill-3" fill="#000000"></path>
                <path d="M20.9763566,20.2012403 L24.0771318,20.2012403 C24.0771318,22.8624806 26.2422481,25.0275969 28.9034884,25.0275969 C31.5647287,25.0275969 33.729845,22.8624806 33.729845,20.2012403 L36.8306202,20.2012403 C36.8306202,24.5717829 33.274031,28.1283721 28.9034884,28.1283721 C24.5321705,28.1283721 20.9763566,24.5717829 20.9763566,20.2012403" id="Fill-6" fill="#000000"></path>
                <path d="M63.3247287,20.2012403 L66.4255039,20.2012403 C66.4255039,22.8624806 68.5906202,25.0275969 71.2518605,25.0275969 C73.9131008,25.0275969 76.0782171,22.8624806 76.0782171,20.2012403 L79.1789922,20.2012403 C79.1789922,24.5717829 75.6231783,28.1283721 71.2518605,28.1283721 C66.8805426,28.1283721 63.3247287,24.5717829 63.3247287,20.2012403" id="Fill-8" fill="#000000"></path>
                <path d="M39.6752713,58.8685271 C39.6752713,53.1227907 44.3326357,48.4654264 50.0775969,48.4654264 C55.8233333,48.4654264 60.4806977,53.1227907 60.4806977,58.8685271 L39.6752713,58.8685271 Z" id="Fill-10" fill="#F05822"></path>
                <path d="M58.7943411,57.3181395 C58.0594574,53.1731783 54.4307752,50.015814 50.078062,50.015814 C45.7253488,50.015814 42.0958915,53.1731783 41.3610078,57.3181395 L58.7943411,57.3181395 Z M50.078062,46.9150388 C56.6687597,46.9150388 62.0307752,52.2778295 62.0307752,58.8685271 L62.0307752,60.4189147 L38.1245736,60.4189147 L38.1245736,58.8685271 C38.1245736,52.2778295 43.4865891,46.9150388 50.078062,46.9150388 Z" id="Fill-12" fill="#000000"></path>
                <path d="M33.9536434,42.178062 C33.9536434,44.9672093 31.6924031,47.2284496 28.9032558,47.2284496 C26.1141085,47.2284496 23.8528682,44.9672093 23.8528682,42.178062 C23.8528682,39.3889147 28.9032558,33.2517054 28.9032558,33.2517054 C28.9032558,33.2517054 33.9536434,39.3889147 33.9536434,42.178062" id="Fill-14" fill="#A2D39F"></path>
                <path d="M28.9039535,35.1282171 C27.0667442,37.5460465 25.0155814,40.7793798 25.0155814,42.1778295 C25.0155814,44.3212403 26.7597674,46.0654264 28.9039535,46.0654264 C31.0473643,46.0654264 32.7907752,44.3212403 32.7907752,42.1778295 C32.7907752,40.7770543 30.7403876,37.5444961 28.9039535,35.1282171 M28.9039535,48.3910078 C25.4775969,48.3910078 22.69,45.604186 22.69,42.1778295 C22.69,39.1266667 27.117907,33.5917829 28.0055039,32.5127132 L28.9039535,31.4220155 L29.8016279,32.5127132 C30.6892248,33.5917829 35.1163566,39.1266667 35.1163566,42.1778295 C35.1163566,45.604186 32.3295349,48.3910078 28.9039535,48.3910078" id="Fill-16" fill="#000000"></path>
                <path d="M76.3024031,42.178062 C76.3024031,44.9672093 74.0411628,47.2284496 71.2520155,47.2284496 C68.4628682,47.2284496 66.2016279,44.9672093 66.2016279,42.178062 C66.2016279,39.3889147 71.2520155,33.2517054 71.2520155,33.2517054 C71.2520155,33.2517054 76.3024031,39.3889147 76.3024031,42.178062" id="Fill-18" fill="#A2D39F"></path>
                <path d="M71.2523256,35.1282171 C69.4151163,37.5460465 67.3647287,40.7793798 67.3647287,42.1778295 C67.3647287,44.3212403 69.1081395,46.0654264 71.2523256,46.0654264 C73.3957364,46.0654264 75.1399225,44.3212403 75.1399225,42.1778295 C75.1399225,40.7770543 73.0895349,37.5444961 71.2523256,35.1282171 M71.2523256,48.3910078 C67.825969,48.3910078 65.0391473,45.604186 65.0391473,42.1778295 C65.0391473,39.1266667 69.4662791,33.5917829 70.353876,32.5127132 L71.2523256,31.4220155 L72.15,32.5127132 C73.0375969,33.5917829 77.4655039,39.1266667 77.4655039,42.1778295 C77.4655039,45.604186 74.677907,48.3910078 71.2523256,48.3910078" id="Fill-20" fill="#000000"></path>
            </g>
        </g>
    </g>
</svg>