<svg xmlns="http://www.w3.org/2000/svg" xmlns:xlink="http://www.w3.org/1999/xlink" width="175" height="120" viewBox="0 0 175 120">
    <defs>
        <path id="a" d="M0 .442h94.33v79.616H0z"/>
        <path id="c" d="M0 .615h174.754v101.9H0z"/>
    </defs>
    <g fill="none" fill-rule="evenodd">
        <path fill="#F05822" d="M132.024 28.757c-.033-14.362-10.97-27.544-24.5-27.544-8.86 0-16.62 5.287-20.922 13.208C82.299 6.501 74.539 1.213 65.68 1.213c-13.531 0-24.471 13.182-24.5 27.544-.062 30.512 45.422 48.875 45.422 48.875s45.484-21.064 45.422-48.875"/>
        <g transform="translate(40)">
            <mask id="b" fill="#fff">
                <use xlink:href="#a"/>
            </mask>
            <path fill="#000" d="M26.123 3.5C13.815 3.5 2.995 15.66 2.966 29.522 2.91 56.835 41.89 74.488 47.126 76.734c5.21-2.529 44.294-22.353 44.238-47.212C91.334 15.66 80.512 3.5 68.208 3.5c-8.115 0-15.497 4.646-19.75 12.431l-1.293 2.366-1.292-2.367C41.621 8.146 34.237 3.5 26.123 3.5zm21.082 76.558l-.578-.232c-.475-.19-11.74-4.757-23.188-13.178C8.08 55.349-.026 42.509 0 29.516.032 13.756 11.995.442 26.123.442c8.42 0 16.128 4.38 21.042 11.838C52.08 4.823 59.788.442 68.208.442c14.124 0 26.087 13.314 26.123 29.074.026 12.047-7.852 24.194-23.417 36.102-11.427 8.743-23.028 14.126-23.144 14.18l-.565.26z" mask="url(#b)"/>
        </g>
        <path fill="#000" d="M74.214 27.899h-3c0-2.85-2.094-5.17-4.669-5.17-2.574 0-4.668 2.32-4.668 5.17h-3c0-4.682 3.44-8.491 7.668-8.491 4.229 0 7.669 3.81 7.669 8.49M115.507 27.899h-3c0-2.85-2.094-5.17-4.669-5.17-2.574 0-4.669 2.32-4.669 5.17h-3c0-4.682 3.441-8.491 7.67-8.491 4.228 0 7.668 3.81 7.668 8.49"/>
        <path fill="#EFAECE" d="M96.63 47.307c0 5.36-4.49 9.704-10.028 9.704s-10.028-4.344-10.028-9.704H96.63z"/>
        <path fill="#000" d="M79.768 49.157c.726 4.096 4.307 7.216 8.603 7.216 4.296 0 7.878-3.12 8.604-7.216H79.768zm8.603 10.28c-6.505 0-11.797-5.3-11.797-11.812v-1.531h23.595v1.531c0 6.513-5.293 11.812-11.798 11.812z"/>
        <path fill="#DBA827" d="M61.236 38.816c0 2.68-2.376 4.852-5.309 4.852-2.932 0-5.309-2.173-5.309-4.852 0-2.68 2.377-4.852 5.31-4.852 2.932 0 5.308 2.172 5.308 4.852M123.765 38.816c0 2.68-2.376 4.852-5.309 4.852-2.933 0-5.309-2.173-5.309-4.852 0-2.68 2.376-4.852 5.31-4.852 2.932 0 5.308 2.172 5.308 4.852"/>
        <g transform="translate(0 17.385)">
            <mask id="d" fill="#fff">
                <use xlink:href="#c"/>
            </mask>
            <path fill="#000" d="M174.754.615c-6.993 0-12.94 4.533-15.261 10.89-2.32-6.357-8.268-10.89-15.262-10.89v12.064c0 32.232-25.504 58.454-56.854 58.454-31.35 0-56.853-26.222-56.853-58.454V.615c-6.994 0-12.942 4.533-15.262 10.89C12.942 5.148 6.993.615 0 .615v13.013h.024c.498 49.098 39.483 88.887 87.353 88.887s86.854-39.79 87.354-88.887h.023V.615z" mask="url(#d)"/>
        </g>
        <path fill="#FFF" d="M22.906 39.943l.868 2.783-9.199 6.26 11.129-.068.58 1.86-8.79 6.636 10.721-.444.868 2.783-15.58.406-.737-2.364 8.485-6.395-10.514-.11-.788-2.531zM30.607 61.302l5.154 8.293-2.232 1.468-3.647-5.869-2.683 1.763 2.83 4.553-2.232 1.467-2.83-4.554-3.223 2.119 3.761 6.052-2.232 1.467-5.27-8.479zM37.913 72.16l1.863 2.059-9.169 8.766 4.19 4.633-1.783 1.705-6.053-6.69zM45.782 80.306l2.186 1.688-7.517 10.295 4.922 3.798-1.463 2.003-7.108-5.487zM54.81 93.689l2.253 1.113c.604.298 1.114.391 1.529.28.415-.112.75-.438 1.003-.979.264-.568.31-1.05.13-1.447-.178-.396-.569-.745-1.172-1.043L56.3 90.501l-1.49 3.188zm1.77 7.906c.517-.11.942-.522 1.276-1.235.326-.7.363-1.294.11-1.785-.252-.49-.725-.907-1.418-1.25l-2.793-1.379-1.823 3.901 2.793 1.38c.719.353 1.336.477 1.855.368zm3.688.298c-.58 1.24-1.423 2.015-2.53 2.32-1.107.307-2.342.123-3.702-.549l-5.624-2.778 6.478-13.86 5.084 2.51c2.567 1.27 3.33 3.02 2.288 5.251-.641 1.373-1.593 2.106-2.852 2.198 1.441 1.411 1.728 3.047.858 4.908zM67.55 92.764l9.293 2.359-.636 2.645-6.576-1.67-.763 3.177 5.104 1.297-.636 2.644-5.104-1.296-.915 3.818 6.782 1.722-.636 2.644-9.499-2.412zM80.178 95.397l2.723.253-1.345 15.316-2.723-.254zM86.823 96.068l2.684-.226 7.159 9.356-.792-9.896 2.725-.231 1.227 15.326-2.235.19-7.657-9.933.842 10.509-2.726.23zM109.055 107.435c-1.275-.266-2.379-.88-3.31-1.839-.933-.959-1.64-2.205-2.125-3.737-.475-1.505-.579-2.937-.311-4.296a7.137 7.137 0 0 1 1.79-3.543c.925-1.002 2.114-1.744 3.563-2.229a10.459 10.459 0 0 1 2.206-.483c.74-.076 1.402-.067 1.986.03l.521 2.644a8.827 8.827 0 0 0-3.9.378c-1.519.508-2.519 1.347-3.003 2.516-.484 1.17-.49 2.5-.02 3.991.489 1.546 1.258 2.656 2.31 3.329 1.051.672 2.295.77 3.731.29a9.98 9.98 0 0 0 1.878-.882l-.825-2.611-1.95.651-.7-2.214 4.552-1.52 2.06 6.518c-.427.497-1.018.986-1.772 1.469-.754.483-1.598.88-2.533 1.192-1.49.498-2.873.613-4.148.346M131.572 96.62a6.248 6.248 0 0 1-3.705-.68c-1.177-.61-2.23-1.565-3.155-2.865-.91-1.276-1.445-2.601-1.606-3.979a7.238 7.238 0 0 1 .622-3.94c.574-1.25 1.475-2.34 2.704-3.266.621-.467 1.27-.856 1.949-1.168.678-.312 1.31-.515 1.895-.612l1.3 2.343a8.954 8.954 0 0 0-3.589 1.616c-1.287.97-1.982 2.089-2.086 3.356-.102 1.267.297 2.533 1.198 3.796.934 1.311 2.004 2.117 3.207 2.417 1.203.301 2.414-.007 3.632-.926.494-.37 1-.852 1.515-1.441l-1.579-2.215-1.654 1.247-1.34-1.877 3.86-2.91 3.942 5.528c-.254.609-.666 1.264-1.235 1.964a11.64 11.64 0 0 1-2.04 1.95c-1.265.951-2.543 1.506-3.835 1.663M147.423 76.99c-.218-1.232-.914-2.36-2.09-3.379-1.175-1.021-2.374-1.538-3.592-1.551-1.218-.014-2.297.55-3.234 1.691-.937 1.142-1.298 2.329-1.08 3.563.217 1.233.914 2.36 2.09 3.38 1.175 1.02 2.373 1.538 3.592 1.55 1.219.015 2.297-.549 3.234-1.691.937-1.142 1.298-2.328 1.08-3.562m-2.245 7.654c-1.215.449-2.478.533-3.783.251-1.308-.281-2.55-.932-3.725-1.953-1.175-1.02-2.008-2.169-2.497-3.446-.489-1.277-.62-2.57-.395-3.879.226-1.308.795-2.516 1.704-3.623.91-1.108 1.973-1.886 3.189-2.336 1.217-.448 2.477-.533 3.785-.251 1.307.282 2.549.933 3.724 1.953 1.176 1.02 2.007 2.17 2.498 3.447.487 1.277.62 2.57.394 3.879-.227 1.308-.795 2.515-1.704 3.623-.91 1.108-1.973 1.887-3.19 2.335M153.793 61.959l-5.605-.779 3.914 4.208 1.69-3.43zm2.521.328l-2.464 4.996 2.604 2.786-1.198 2.43-10.936-11.831 1.168-2.372 15.747 2.074-1.197 2.43-3.724-.513zM148.45 51.141l.738-2.707 12.055 3.475 1.662-6.091 2.345.677-2.4 8.798z"/>
    </g>
</svg>
