<svg xmlns="http://www.w3.org/2000/svg" viewBox="0 0 150 150"><defs><style>.cls-1{fill:#f15822;}.cls-1,.cls-2{stroke:#231f20;}.cls-1,.cls-2,.cls-3{stroke-miterlimit:10;stroke-width:4px;}.cls-2{fill:none;}.cls-3{fill:#f0b0cf;stroke:#010101;}.cls-4{fill:#dca927;}</style></defs><title>portland_icon</title><g id="Layer_1" data-name="Layer 1"><path class="cls-1" d="M136.6,58.92c0-18.79-14.88-36-33.23-36-12,0-22.53,6.92-28.37,17.28C69.16,29.8,58.64,22.88,46.63,22.88c-18.35,0-33.19,17.25-33.23,36-.08,39.93,61.6,64,61.6,64S136.68,95.31,136.6,58.92Z"/><path class="cls-2" d="M39.46,57.16a8.23,8.23,0,0,1,16.45,0"/><path class="cls-2" d="M94.09,57.16a8.23,8.23,0,0,1,16.45,0"/><path class="cls-3" d="M88.42,83.4a13.42,13.42,0,1,1-26.84,0Z"/><circle class="cls-4" cx="32.94" cy="71.24" r="6.51"/><circle class="cls-4" cx="117.06" cy="71.24" r="6.51"/></g></svg>