<svg xmlns="http://www.w3.org/2000/svg" width="160" height="157" viewBox="0 0 160 157">
    <g fill="none" fill-rule="evenodd">
        <path fill="#DBA825" d="M17.331 155.07h123.94V52.917H17.33z"/>
        <path stroke="#000" stroke-width="3" d="M17.331 155.07h123.94V52.917H17.33z"/>
        <path fill="#EFAECE" d="M5.46 57.627h149.42L80.17 2.69z"/>
        <path stroke="#000" stroke-width="3" d="M5.46 57.627h149.42L80.17 2.69z"/>
        <path fill="#F05722" d="M17.331 149.196h53.525v-8.548H17.33z"/>
        <path stroke="#000" stroke-width="3" d="M17.331 149.196h53.525v-8.548H17.33z"/>
        <path fill="#F05722" d="M17.331 134.172h53.525v-8.548H17.33z"/>
        <path stroke="#000" stroke-width="3" d="M17.331 134.172h53.525v-8.548H17.33z"/>
        <path fill="#F05722" d="M28.214 124.754l-5.441-8.22-5.441 8.22v30.344h10.882z"/>
        <path stroke="#000" stroke-width="3" d="M28.214 124.754l-5.441-8.22-5.441 8.22v30.344h10.882z"/>
        <path fill="#F05722" d="M49.534 124.754l-5.44-8.22-5.441 8.22v30.344h10.881z"/>
        <path stroke="#000" stroke-width="3" d="M49.534 124.754l-5.44-8.22-5.441 8.22v30.344h10.881z"/>
        <path fill="#F05722" d="M70.855 124.754l-5.44-8.22-5.441 8.22v30.344h10.881z"/>
        <path stroke="#000" stroke-width="3" d="M70.855 124.754l-5.44-8.22-5.441 8.22v30.344h10.881z"/>
        <path fill="#A2D39E" d="M90.785 154.775h39.745V99.133H90.785z"/>
        <path stroke="#000" stroke-width="3" d="M90.785 154.775h39.745V99.133H90.785z"/>
        <path fill="#DBA825" d="M122.58 134.903a3.975 3.975 0 1 1-7.949 0 3.975 3.975 0 0 1 7.95 0"/>
        <path stroke="#000" stroke-width="3" d="M122.58 134.903a3.975 3.975 0 1 1-7.949 0 3.975 3.975 0 0 1 7.95 0z"/>
        <path fill="#EFAECE" d="M98.734 122.98h23.847v-15.897H98.734z"/>
        <path stroke="#000" stroke-width="3" d="M98.734 122.98h23.847v-15.897H98.734z"/>
        <path fill="#F05722" d="M28.213 107.075h39.744v-7.949H28.213z"/>
        <path stroke="#000" stroke-width="3" d="M28.213 107.075h39.744v-7.949H28.213z"/>
        <path fill="#EFAECE" d="M36.162 99.126H60.01V75.28H36.162z"/>
        <path stroke="#000" stroke-width="3" d="M36.162 99.126H60.01V75.28H36.162z"/>
    </g>
</svg>
