<svg xmlns="http://www.w3.org/2000/svg" viewBox="0 0 200 200"><defs><style>.cls-1{fill:#97cc8b;}.cls-1,.cls-2,.cls-3,.cls-4,.cls-5{stroke:#000;stroke-miterlimit:10;stroke-width:3px;}.cls-2{fill:#e39bc4;}.cls-3{fill:none;}.cls-4{fill:#dd3d12;}.cls-5{fill:#ca970c;}</style></defs><title>portland_location_icons</title><g id="hospital"><rect class="cls-1" x="22.37" y="22.85" width="157.82" height="172.06"/><rect class="cls-2" x="76.89" y="136.12" width="47.6" height="49.69"/><line class="cls-3" x1="100.69" y1="136.12" x2="100.69" y2="185.81"/><rect class="cls-4" x="71.7" y="185.81" width="57.65" height="9.27"/><rect class="cls-2" x="32.32" y="32.35" width="28.18" height="28.18"/><rect class="cls-2" x="142.05" y="32.35" width="28.18" height="28.18"/><rect class="cls-2" x="87.18" y="32.35" width="28.18" height="28.18"/><rect class="cls-2" x="32.32" y="70.19" width="28.18" height="28.18"/><rect class="cls-2" x="142.05" y="70.19" width="28.18" height="28.18"/><rect class="cls-2" x="86.6" y="70.19" width="28.18" height="28.18"/><rect class="cls-2" x="32.32" y="108.04" width="28.18" height="28.18"/><rect class="cls-2" x="142.05" y="108.04" width="28.18" height="28.18"/><rect class="cls-5" x="11.76" y="5.08" width="179.04" height="17.77"/><path class="cls-5" d="M129.36,136.12c0-15.51-12.91-28.08-28.83-28.08S71.7,120.61,71.7,136.12Z"/><path class="cls-4" d="M100.53,108c-15.92,0-10.72,28.08-10.72,28.08h21.44S116.45,108,100.53,108Z"/></g></svg>