<svg xmlns="http://www.w3.org/2000/svg" width="154" height="159" viewBox="0 0 154 159">
    <g fill="none" fill-rule="evenodd">
        <path fill="#EFAECE" d="M24.072 156.667h122.335V8.316H24.072z"/>
        <path stroke="#000" stroke-width="3" d="M24.072 156.667h122.335V8.316H24.072z"/>
        <path fill="#DBA825" d="M87.437 141.802h38.003V98.474H87.437z"/>
        <path stroke="#000" stroke-width="3" d="M87.437 141.802h38.003V98.474H87.437zM106.439 98.474V141.8"/>
        <path fill="#A2D39E" d="M82.114 149.205h49.583v-7.403H82.114z"/>
        <path stroke="#000" stroke-width="3" d="M82.114 149.205h49.583v-7.403H82.114z"/>
        <path fill="#A2D39E" d="M74.138 156.528h65.535v-7.404H74.138z"/>
        <path stroke="#000" stroke-width="3" d="M74.138 156.528h65.535v-7.404H74.138z"/>
        <path fill="#F05722" d="M97.98 100.447c0-3.784-3.152-6.851-7.04-6.851-3.89 0-7.042 3.067-7.042 6.85 0 3.785 3.152 6.852 7.041 6.852 3.89 0 7.042-3.067 7.042-6.851"/>
        <path stroke="#000" stroke-width="3" d="M97.98 100.447c0-3.784-3.152-6.851-7.04-6.851-3.89 0-7.042 3.067-7.042 6.85 0 3.785 3.152 6.852 7.041 6.852 3.89 0 7.042-3.067 7.042-6.851z"/>
        <path fill="#F05722" d="M128.73 100.447c0-3.784-3.153-6.851-7.041-6.851-3.89 0-7.042 3.067-7.042 6.85 0 3.785 3.153 6.852 7.042 6.852 3.888 0 7.04-3.067 7.04-6.851"/>
        <path stroke="#000" stroke-width="3" d="M128.73 100.447c0-3.784-3.153-6.851-7.041-6.851-3.89 0-7.042 3.067-7.042 6.85 0 3.785 3.153 6.852 7.042 6.852 3.888 0 7.04-3.067 7.04-6.851z"/>
        <path fill="#F05722" d="M128.73 100.296c0-12.38-10.036-22.416-22.416-22.416s-22.417 10.037-22.417 22.416"/>
        <path stroke="#000" stroke-width="3" d="M128.73 100.296c0-12.38-10.036-22.416-22.416-22.416s-22.417 10.037-22.417 22.416"/>
        <path fill="#A2D39E" d="M106.313 77.88c-12.379 0-8.318 22.795-8.318 22.795.148 3.677 3.81 6.623 8.318 6.623 4.509 0 8.172-2.946 8.319-6.623 0 0 4.061-22.795-8.319-22.795"/>
        <path stroke="#000" stroke-width="3" d="M106.313 77.88c-12.379 0-8.318 22.795-8.318 22.795.148 3.677 3.81 6.623 8.318 6.623 4.509 0 8.172-2.946 8.319-6.623 0 0 4.061-22.795-8.319-22.795z"/>
        <path fill="#A2D39E" d="M35.566 54.676h16.906V24.27H35.566z"/>
        <path stroke="#000" stroke-width="3" d="M35.566 54.676h16.906V24.27H35.566z"/>
        <path fill="#A2D39E" d="M118.007 54.676h16.906V24.27h-16.906z"/>
        <path stroke="#000" stroke-width="3" d="M118.007 54.676h16.906V24.27h-16.906z"/>
        <path fill="#A2D39E" d="M62.676 54.676h16.906V24.27H62.676z"/>
        <path stroke="#000" stroke-width="3" d="M62.676 54.676h16.906V24.27H62.676z"/>
        <path fill="#A2D39E" d="M91.356 54.676h16.907V24.27H91.356z"/>
        <path stroke="#000" stroke-width="3" d="M91.356 54.676h16.907V24.27H91.356z"/>
        <path fill="#A2D39E" d="M118.467 54.676h16.906V24.27h-16.906z"/>
        <path stroke="#000" stroke-width="3" d="M118.467 54.676h16.906V24.27h-16.906z"/>
        <path fill="#EFAECE" d="M5.123 156.528h63.183V65.856H5.123z"/>
        <path stroke="#000" stroke-width="3" d="M5.123 156.528h63.183V65.856H5.123z"/>
        <path stroke="#211E20" stroke-width="3" d="M27.424 141.352h15v-7.5h-15zM34.924 133.852h15v-7.5h-15zM34.924 148.852h15v-7.5h-15zM27.424 133.852h-7.5M34.924 126.352h-7.5M49.924 126.352h7.5M49.924 141.352h7.5M34.924 148.852h-7.5M27.424 141.352h-7.5M49.924 133.852h7.5M49.924 148.852h7.5"/>
        <path fill="#F05722" d="M2.417 76.515H71.01V64.717H2.417z"/>
        <path stroke="#000" stroke-width="3" d="M2.417 76.515H71.01V64.717H2.417z"/>
        <path fill="#F05722" d="M18.712 14.215h133.054V2.417H18.713z"/>
        <path stroke="#000" stroke-width="3" d="M18.712 14.215h133.054V2.417H18.713z"/>
        <path fill="#A2D39E" d="M13.554 118.162h16.907V87.757H13.554z"/>
        <path stroke="#000" stroke-width="3" d="M13.554 118.162h16.907V87.757H13.554z"/>
        <path fill="#A2D39E" d="M43.185 118.162h16.907V87.757H43.185z"/>
        <path stroke="#000" stroke-width="3" d="M43.185 118.162h16.907V87.757H43.185z"/>
    </g>
</svg>
