<svg xmlns="http://www.w3.org/2000/svg" viewBox="0 0 200 200"><defs><style>.cls-1{fill:#97cc8b;}.cls-1,.cls-2,.cls-3,.cls-4{stroke:#000;stroke-miterlimit:10;stroke-width:3px;}.cls-2{fill:#dd3d12;}.cls-3{fill:#ca970c;}.cls-4{fill:#e39bc4;}</style></defs><title>portland_location_icons</title><g id="hospital"><rect class="cls-1" x="22.94" y="67.7" width="154.51" height="127.35"/><polygon class="cls-2" points="8.14 73.57 194.42 73.57 101.28 5.08 8.14 73.57"/><rect class="cls-3" x="22.94" y="177.07" width="66.73" height="10.66"/><rect class="cls-3" x="22.94" y="158.34" width="66.73" height="10.66"/><polygon class="cls-3" points="36.5 157.25 29.72 147.01 22.94 157.25 22.94 195.08 36.5 195.08 36.5 157.25"/><polygon class="cls-3" points="63.08 157.25 56.3 147.01 49.52 157.25 49.52 195.08 63.08 195.08 63.08 157.25"/><polygon class="cls-3" points="89.66 157.25 82.88 147.01 76.1 157.25 76.1 195.08 89.66 195.08 89.66 157.25"/><rect class="cls-4" x="114.51" y="125.31" width="49.55" height="69.37"/><circle class="cls-1" cx="149.19" cy="169.91" r="4.95"/><rect class="cls-2" x="124.42" y="135.22" width="29.73" height="19.82"/><rect class="cls-3" x="36.5" y="125.3" width="49.55" height="9.91"/><rect class="cls-2" x="46.41" y="95.57" width="29.73" height="29.73"/></g></svg>