<svg xmlns="http://www.w3.org/2000/svg" viewBox="0 0 200 200"><defs><style>.cls-1{fill:#ca970c;}.cls-1,.cls-2,.cls-3,.cls-4,.cls-5{stroke:#000;}.cls-1,.cls-2,.cls-3,.cls-4,.cls-5,.cls-6{stroke-miterlimit:10;stroke-width:3px;}.cls-2{fill:#97cc8b;}.cls-3,.cls-6{fill:none;}.cls-4{fill:#dd3d12;}.cls-5{fill:#e39bc4;}.cls-6{stroke:#191718;}</style></defs><title>portland_location_icons</title><g id="cultural_organization" data-name="cultural organization"><rect class="cls-1" x="36.38" y="14.53" width="146.8" height="178.02"/><rect class="cls-2" x="112.42" y="122.72" width="45.6" height="51.99"/><line class="cls-3" x1="135.22" y1="122.72" x2="135.22" y2="174.71"/><rect class="cls-4" x="106.03" y="174.71" width="59.5" height="8.88"/><rect class="cls-4" x="96.46" y="183.5" width="78.64" height="8.88"/><path class="cls-5" d="M162,124.91a26.9,26.9,0,0,0-53.8,0h0c0,.06,0,.12,0,.18a8.45,8.45,0,0,0,16.9,0c0-.06,0-.12,0-.18h20a1.09,1.09,0,0,0,0,.18,8.45,8.45,0,0,0,16.9,0c0-.06,0-.12,0-.18Z"/><path class="cls-4" d="M135.07,98c-14.86,0-10,27.35-10,27.35.18,4.41,4.58,8,10,8s9.8-3.54,10-8C145.05,125.36,149.92,98,135.07,98Z"/><rect class="cls-4" x="50.17" y="33.67" width="20.29" height="36.49"/><rect class="cls-2" x="149.1" y="33.67" width="20.29" height="36.49"/><rect class="cls-4" x="82.7" y="33.67" width="20.29" height="36.49"/><rect class="cls-4" x="117.12" y="33.67" width="20.29" height="36.49"/><rect class="cls-4" x="149.65" y="33.67" width="20.29" height="36.49"/><rect class="cls-1" x="13.64" y="83.58" width="75.82" height="108.81"/><rect class="cls-6" x="40.4" y="165.17" width="18" height="9"/><rect class="cls-6" x="49.4" y="156.17" width="18" height="9"/><rect class="cls-6" x="49.4" y="174.17" width="18" height="9"/><line class="cls-6" x1="40.4" y1="165.17" x2="31.4" y2="165.17"/><line class="cls-6" x1="49.4" y1="156.17" x2="40.4" y2="156.17"/><line class="cls-6" x1="67.4" y1="156.17" x2="76.4" y2="156.17"/><line class="cls-6" x1="67.4" y1="174.17" x2="76.4" y2="174.17"/><line class="cls-6" x1="49.4" y1="183.17" x2="40.4" y2="183.17"/><line class="cls-6" x1="40.4" y1="174.17" x2="31.4" y2="174.17"/><line class="cls-6" x1="67.4" y1="165.17" x2="76.4" y2="165.17"/><line class="cls-6" x1="67.4" y1="183.17" x2="76.4" y2="183.17"/><rect class="cls-5" x="10.39" y="82.21" width="82.31" height="14.16"/><rect class="cls-5" x="29.95" y="7.45" width="159.66" height="14.16"/><rect class="cls-4" x="23.76" y="109.86" width="20.29" height="36.49"/><rect class="cls-4" x="59.31" y="109.86" width="20.29" height="36.49"/></g></svg>