<?xml version="1.0" encoding="UTF-8"?>
<svg width="320px" height="150px" viewBox="0 0 320 150" version="1.1" xmlns="http://www.w3.org/2000/svg" xmlns:xlink="http://www.w3.org/1999/xlink">
    <!-- Generator: sketchtool 50.2 (55047) - http://www.bohemiancoding.com/sketch -->
    <title>4F6B237D-D6D1-4BE6-9B79-981A6EAA6B0A</title>
    <desc>Created with sketchtool.</desc>
    <defs></defs>
    <g id="discover" stroke="none" stroke-width="1" fill="none" fill-rule="evenodd">
        <g id="discover_mobile" transform="translate(0.000000, -37.000000)">
            <g id="busstation" transform="translate(0.000000, 37.000000)">
                <polygon id="Fill-1" fill="#E0E0E0" points="0 150 320 150 320 0 0 0"></polygon>
                <polygon id="Fill-2" fill="#000000" points="198.408 104.227 199.907 104.227 199.907 37.459 198.408 37.459"></polygon>
                <path d="M224.9971,81.0396 C223.8561,80.4146 222.4531,80.0706 221.0461,80.0706 C219.4751,80.0706 217.9951,80.5046 216.8811,81.2936 C216.0471,81.8846 215.4471,82.5466 214.9191,83.1306 C213.9941,84.1516 213.4351,84.7686 212.0341,84.7686 C212.0341,84.7686 211.7141,84.7636 211.6101,84.7636 C208.3411,84.7636 205.2831,85.9046 202.8261,86.8216 C201.4081,87.3506 200.0701,87.8506 199.3411,87.8506 C199.3041,87.8506 199.2681,87.8486 199.2341,87.8456 C197.8031,87.7066 197.0301,87.2806 195.9621,86.6906 C195.2671,86.3076 194.4791,85.8726 193.4141,85.4746 C191.8791,84.8996 190.4811,84.8206 189.1991,84.8206 C188.8841,84.8206 188.5681,84.8256 188.2511,84.8316 C187.9461,84.8356 187.6401,84.8416 187.3311,84.8416 C186.6401,84.8416 186.1061,84.8136 185.6011,84.7516 C184.5611,84.6256 183.9341,83.9836 182.9981,82.9466 C182.1621,82.0206 181.2151,80.9716 179.7091,80.4836 C178.9811,80.2476 177.7561,80.0896 176.6611,80.0896 C172.8941,80.0896 172.4171,81.9246 172.3871,82.7126 C172.2801,85.4566 176.6221,88.3836 178.5011,88.7756 C178.8081,88.8396 179.1201,88.8706 179.4591,88.8706 C180.0431,88.8706 180.5791,88.7786 181.0981,88.6886 C181.5311,88.6146 181.9401,88.5436 182.3081,88.5436 C182.4631,88.5436 182.6011,88.5566 182.7291,88.5816 C183.5931,88.7506 184.2781,89.4136 185.0211,90.1966 C186.5741,91.8346 188.7061,93.8286 191.4211,94.7166 C192.8351,95.1786 197.3171,95.2136 198.6571,95.2136 C200.2961,95.2136 205.7711,95.1626 207.4221,94.4916 C209.5401,93.6316 211.0141,92.2166 212.4381,90.8486 C212.8821,90.4216 213.3301,89.9916 213.8031,89.5736 C214.6331,88.8406 215.2541,88.5816 216.1751,88.5816 C216.3061,88.5816 216.4401,88.5866 216.5811,88.5976 C216.8781,88.6186 217.1561,88.6526 217.4241,88.6846 C217.8661,88.7366 218.3231,88.7906 218.7961,88.7906 C219.6301,88.7906 220.3591,88.6216 221.0911,88.2596 C221.3911,88.1116 225.8841,84.9046 225.9311,82.6546 C225.9451,81.9716 225.5961,81.3676 224.9971,81.0396" id="Fill-3" fill="#A2D39F"></path>
                <path d="M181.0937,78.543 C181.4697,78.633 181.8707,78.677 182.3227,78.677 C182.6687,78.677 183.0167,78.651 183.3637,78.623 C183.6447,78.601 183.9247,78.577 184.2047,78.577 C184.4467,78.577 184.6417,78.596 184.8177,78.636 C185.4937,78.788 186.0917,79.459 186.6967,80.191 C188.0567,81.843 189.9267,83.855 192.3307,84.759 C193.5707,85.226 197.2147,85.276 198.7237,85.276 C200.5687,85.276 205.0157,85.203 206.4607,84.527 C208.3357,83.65 209.6257,82.225 210.8737,80.846 C211.2587,80.421 211.6467,79.991 212.0567,79.574 C212.8267,78.792 213.3147,78.644 213.9437,78.644 C214.0477,78.644 214.1567,78.648 214.2697,78.658 C214.7367,78.697 215.0977,78.714 215.4437,78.714 C216.6867,78.714 217.7017,78.466 218.6387,77.933 C219.0897,77.675 222.5547,74.762 222.6007,72.741 C222.6147,72.072 222.3077,71.488 221.7547,71.141 C220.7237,70.49 219.4517,70.132 218.1757,70.132 C216.7447,70.132 215.4017,70.585 214.3917,71.407 C213.6567,72.006 213.1327,72.671 212.6717,73.259 C211.8147,74.349 211.3917,74.83 210.3447,74.83 C210.3447,74.83 210.0707,74.825 209.9777,74.825 C207.0747,74.825 204.3887,75.979 202.2297,76.906 C201.0817,77.399 199.8947,77.909 199.2637,77.909 L199.2587,77.909 C198.0787,77.777 197.4287,77.364 196.5287,76.793 C195.9177,76.404 195.2257,75.965 194.2827,75.559 C192.8987,74.962 191.5957,74.882 190.5037,74.882 C190.2287,74.882 189.9517,74.887 189.6747,74.893 C189.4117,74.898 189.1477,74.903 188.8807,74.903 C188.2957,74.903 187.8457,74.876 187.4217,74.817 C186.6117,74.703 186.0857,74.081 185.2967,73.075 C184.5607,72.136 183.7257,71.072 182.3627,70.564 C181.7007,70.316 180.5957,70.151 179.6127,70.151 C176.0927,70.151 175.7517,72.164 175.7317,72.781 C175.6407,75.498 179.4577,78.15 181.0937,78.543" id="Fill-5" fill="#A2D39F"></path>
                <path d="M183.7031,68.3062 C184.3761,68.4962 185.0391,68.5232 185.6241,68.5472 C186.0981,68.5672 186.5451,68.5852 186.9221,68.6852 C187.4141,68.8162 187.9211,69.4932 188.3971,70.1732 C189.5611,71.8382 191.1651,73.8672 193.2561,74.7932 C194.3241,75.2662 197.1991,75.3372 198.8181,75.3372 C200.7961,75.3372 204.3001,75.2352 205.5431,74.5512 C207.1721,73.6542 208.2751,72.2172 209.3421,70.8282 C209.6681,70.4042 209.9971,69.9752 210.3451,69.5592 C211.0051,68.7682 211.3671,68.7042 211.7401,68.7042 C211.8171,68.7042 211.8981,68.7092 211.9821,68.7172 C212.1481,68.7342 212.3201,68.7422 212.4961,68.7422 C213.7581,68.7422 215.1531,68.3122 216.2271,67.5912 C216.7361,67.2502 219.2581,64.6572 219.3011,62.8452 C219.3161,62.1892 219.0521,61.6262 218.5551,61.2572 C217.6311,60.5712 216.4871,60.1932 215.3331,60.1932 C214.0371,60.1932 212.8261,60.6712 211.9231,61.5372 C211.2911,62.1422 210.8451,62.8112 210.4511,63.4002 C209.6991,64.5272 209.3961,64.8912 208.6841,64.8912 C208.6841,64.8912 208.4551,64.8872 208.3731,64.8872 C205.8281,64.8872 203.5101,66.0592 201.6461,67.0012 C200.7911,67.4342 199.7251,67.9732 199.3181,67.9732 C198.3981,67.8522 197.8961,67.4772 197.1371,66.9092 C196.6101,66.5152 196.0151,66.0702 195.1951,65.6542 C193.9611,65.0282 192.8071,64.9442 191.8401,64.9442 C191.6021,64.9442 191.3651,64.9492 191.1271,64.9542 C190.9061,64.9592 190.6841,64.9642 190.4621,64.9642 C189.9841,64.9642 189.6201,64.9392 189.2791,64.8832 C188.7111,64.7892 188.2751,64.1902 187.6271,63.2162 C186.9921,62.2642 186.2731,61.1842 185.0601,60.6522 C184.4621,60.3892 183.4691,60.2122 182.5911,60.2122 C180.0751,60.2122 179.1411,61.5742 179.1041,62.8482 C179.0261,65.5702 182.2931,67.9072 183.7031,68.3062" id="Fill-7" fill="#A2D39F"></path>
                <path d="M186.2773,58.061 C186.7993,58.241 187.3263,58.348 187.8363,58.453 C188.2533,58.537 188.6473,58.618 188.9903,58.729 C189.3333,58.839 189.8563,59.751 190.0813,60.141 C191.0453,61.816 192.3773,63.862 194.1413,64.812 C195.0433,65.297 197.2233,65.399 198.8943,65.399 C200.5643,65.399 203.5303,65.29 204.6263,64.555 C205.9973,63.637 206.9103,62.192 207.7933,60.795 C208.0603,60.371 208.3313,59.942 208.6173,59.526 C209.1383,58.767 209.3583,58.767 209.5183,58.767 C209.5673,58.767 209.6173,58.77 209.6693,58.776 C209.7763,58.79 209.8893,58.796 210.0073,58.796 C211.2453,58.796 212.8603,58.007 213.8153,57.228 C214.3243,56.813 215.9493,54.587 215.9893,52.992 C216.0093,52.168 215.6533,51.669 215.3503,51.396 C214.5363,50.661 213.5143,50.255 212.4733,50.255 C211.3013,50.255 210.2203,50.765 209.4273,51.689 C208.9053,52.298 208.5393,52.966 208.2143,53.556 C207.6213,54.638 207.3903,54.953 206.9703,54.953 C206.9703,54.953 206.8233,54.949 206.7513,54.949 C204.5483,54.949 202.5943,56.149 201.0263,57.115 C200.4333,57.479 199.6293,57.975 199.3193,58.032 C198.7253,57.924 198.3813,57.631 197.7413,57.048 C197.3013,56.648 196.8033,56.196 196.1103,55.768 C195.0213,55.096 194.0063,55.006 193.1573,55.006 C192.9583,55.006 192.7593,55.011 192.5593,55.017 C192.3813,55.021 192.2033,55.026 192.0233,55.026 C191.6593,55.026 191.3843,55.004 191.1313,54.953 C190.7623,54.878 190.3043,54.043 189.9373,53.372 C189.4103,52.409 188.8123,51.318 187.7603,50.757 C187.2133,50.464 186.3453,50.274 185.5513,50.274 C183.7113,50.274 182.4973,51.312 182.4603,52.917 C182.4003,55.448 184.8753,57.58 186.2773,58.061" id="Fill-9" fill="#A2D39F"></path>
                <path d="M188.8135,47.7993 L189.2125,47.9753 C189.8065,48.2363 190.4715,48.5283 190.9895,48.7393 C191.2245,48.9033 191.6275,49.7973 191.7605,50.0913 C192.5655,51.8763 193.5785,53.8313 194.9905,54.8023 C195.6255,55.2393 196.9625,55.4613 198.9615,55.4613 C200.6365,55.4613 202.8235,55.2993 203.7255,54.5273 C204.8235,53.5903 205.5405,52.1423 206.2335,50.7423 C206.4435,50.3173 206.6565,49.8873 206.8795,49.4703 C207.1605,48.9513 207.3135,48.8303 207.3325,48.8303 C207.3335,48.8303 207.3345,48.8313 207.3345,48.8323 C207.4265,48.8463 207.5255,48.8543 207.6295,48.8543 C208.9145,48.8543 210.7565,47.5153 211.4135,46.8323 C211.8835,46.3413 213.5145,43.1363 212.1525,41.5673 C211.4525,40.7603 210.5475,40.3173 209.6055,40.3173 C208.5455,40.3173 207.5925,40.8683 206.9195,41.8693 C206.5125,42.4763 206.2265,43.1403 205.9735,43.7273 C205.7845,44.1683 205.4665,44.9063 205.3145,45.0153 C205.2505,45.0113 205.1845,45.0103 205.1205,45.0103 C203.2365,45.0103 201.5805,46.3103 200.3715,47.2593 C200.0075,47.5443 199.5295,47.9203 199.2675,48.0623 C199.0015,47.9543 198.7755,47.7133 198.3505,47.2203 C198.0015,46.8143 197.6045,46.3543 197.0425,45.9123 C196.0915,45.1633 195.1665,45.0673 194.4645,45.0673 C194.3035,45.0673 194.1425,45.0723 193.9795,45.0783 C193.8465,45.0823 193.7115,45.0883 193.5775,45.0883 C193.3345,45.0883 193.1555,45.0703 193.0485,45.0493 C192.8185,44.8993 192.4545,44.0493 192.2365,43.5433 C191.8005,42.5283 191.3505,41.4813 190.4835,40.8893 C189.9905,40.5533 189.2135,40.3363 188.5045,40.3363 C186.9205,40.3363 185.8355,41.4003 185.8065,42.9853 C185.7635,45.3513 187.5755,47.2563 188.8135,47.7993" id="Fill-11" fill="#A2D39F"></path>
                <path d="M191.2539,37.4985 C191.4159,37.5975 191.6839,37.8095 191.9189,37.9975 C192.2339,38.2485 192.5609,38.5065 192.8729,38.6965 C193.0499,38.9475 193.3139,39.7515 193.4019,40.0245 C194.2239,42.5425 194.9289,43.9525 195.7559,44.7385 C196.3049,45.2585 197.3909,45.5225 198.9849,45.5225 C200.3129,45.5225 202.0519,45.3355 202.8069,44.4445 C203.6069,43.5005 204.0999,42.1255 204.6209,40.6695 C204.7749,40.2425 204.9289,39.8115 205.0929,39.3915 C205.1819,39.1635 205.2529,39.0125 205.3049,38.9135 C206.5809,38.8565 208.5479,37.0045 208.9789,36.3855 C209.4989,35.6385 209.6699,32.9835 208.9179,31.7855 C208.3479,30.8775 207.5579,30.3785 206.6929,30.3785 C206.2429,30.3785 205.1179,30.5445 204.3689,32.0825 C204.0799,32.6785 203.8759,33.3345 203.6949,33.9125 C203.5809,34.2805 203.4189,34.7995 203.2849,35.0765 C202.1919,35.1385 201.2589,35.8355 200.4859,36.5825 C200.7749,35.0795 201.8799,33.9395 202.3739,32.5265 C203.5209,29.2435 202.4049,22.9995 199.5739,22.9995 C196.7929,22.9995 195.3599,29.6975 195.5069,30.9385 C195.7229,32.7625 196.5889,34.0945 197.1909,35.4945 C196.6409,35.1835 196.1189,35.1285 195.7299,35.1285 C195.6029,35.1285 195.4759,35.1345 195.3489,35.1405 C195.2619,35.1445 195.1739,35.1495 195.0859,35.1495 C195.0539,35.1495 195.0249,35.1485 194.9989,35.1465 C194.8319,34.8525 194.6169,34.1625 194.4829,33.7275 C194.1559,32.6785 193.8489,31.6875 193.1969,31.0745 C192.7599,30.6635 192.0599,30.3975 191.4139,30.3975 C190.3669,30.3975 189.1359,31.0935 189.1089,33.0535 C189.0809,35.1985 190.2009,36.8615 191.2539,37.4985" id="Fill-13" fill="#A2D39F"></path>
                <polygon id="Fill-15" fill="#000000" points="46.3911 79 45.0791 79 45.0811 14.045 46.3931 14.045"></polygon>
                <path d="M43.9741,19.0986 C44.5081,19.0986 44.9541,18.9806 45.3141,18.8536 C45.4511,18.8866 45.5901,18.9086 45.7361,18.9086 C45.8821,18.9086 46.0221,18.8866 46.1581,18.8536 C46.5181,18.9806 46.9651,19.0986 47.4991,19.0986 C50.7051,19.0986 53.3151,16.4896 53.3151,13.2836 C53.3151,12.0176 52.2891,10.9926 51.0241,10.9926 C49.7591,10.9926 48.7331,12.0176 48.7331,13.2836 C48.7331,13.9236 48.2421,14.4526 47.6171,14.5116 C47.5931,14.5016 47.5651,14.4906 47.5381,14.4796 L47.5381,7.8576 C47.5381,6.8626 46.7311,6.0556 45.7361,6.0556 C44.7411,6.0556 43.9341,6.8626 43.9341,7.8576 L43.9341,14.4796 C43.9071,14.4906 43.8801,14.5016 43.8561,14.5116 C43.2301,14.4526 42.7401,13.9236 42.7401,13.2836 C42.7401,12.0176 41.7141,10.9926 40.4491,10.9926 C39.1831,10.9926 38.1581,12.0176 38.1581,13.2836 C38.1581,16.4896 40.7671,19.0986 43.9741,19.0986" id="Fill-17" fill="#F05822"></path>
                <path d="M43.2114,27.5776 C44.1354,27.5776 44.8634,27.2756 45.3954,27.0556 C45.5034,27.0106 45.6404,26.9536 45.7364,26.9196 C45.8324,26.9536 45.9694,27.0116 46.0784,27.0556 C46.6094,27.2756 47.3374,27.5776 48.2614,27.5776 C51.8694,27.5776 54.9514,24.8996 55.4314,21.3476 C55.6004,20.0946 54.7214,18.9406 53.4674,18.7716 C52.2124,18.6016 51.0604,19.4806 50.8904,20.7346 C50.7174,22.0146 49.6024,22.9816 48.2904,22.9956 C48.1984,22.9746 47.9874,22.8876 47.8314,22.8226 C47.3174,22.6106 46.6134,22.3186 45.7364,22.3186 C44.8584,22.3186 44.1554,22.6106 43.6424,22.8226 C43.4854,22.8876 43.2744,22.9746 43.1834,22.9956 C41.8704,22.9816 40.7544,22.0146 40.5824,20.7346 C40.4134,19.4816 39.2604,18.6016 38.0054,18.7716 C36.7524,18.9406 35.8724,20.0936 36.0424,21.3476 C36.5214,24.8996 39.6034,27.5776 43.2114,27.5776" id="Fill-19" fill="#F05822"></path>
                <path d="M42.4492,36.0562 C43.5142,36.0562 44.3882,35.6942 45.0272,35.4302 C45.2642,35.3312 45.6212,35.1832 45.7292,35.1742 C45.8512,35.1832 46.2092,35.3312 46.4462,35.4302 C47.0842,35.6942 47.9582,36.0562 49.0232,36.0562 C53.0632,36.0562 56.6412,33.2182 57.5312,29.3082 C57.8122,28.0752 57.0402,26.8472 55.8062,26.5662 C54.5732,26.2862 53.3452,27.0572 53.0642,28.2912 C52.6442,30.1362 50.9452,31.4742 49.0232,31.4742 C48.8702,31.4742 48.4982,31.3212 48.1992,31.1972 C47.5492,30.9282 46.7412,30.5932 45.7362,30.5932 C44.7322,30.5932 43.9232,30.9282 43.2742,31.1972 C42.9752,31.3212 42.6032,31.4742 42.4492,31.4742 C40.5282,31.4742 38.8282,30.1362 38.4082,28.2912 C38.1282,27.0572 36.9002,26.2852 35.6662,26.5662 C34.4332,26.8472 33.6602,28.0752 33.9412,29.3082 C34.8312,33.2182 38.4092,36.0562 42.4492,36.0562" id="Fill-21" fill="#F05822"></path>
                <path d="M41.687,44.5352 C42.893,44.5352 43.873,44.1292 44.66,43.8042 C45.061,43.6372 45.516,43.4492 45.736,43.4492 C45.957,43.4492 46.412,43.6372 46.813,43.8042 C47.6,44.1292 48.58,44.5352 49.786,44.5352 C54.31,44.5352 58.358,41.5212 59.632,37.2062 C59.99,35.9932 59.297,34.7192 58.083,34.3612 C56.87,34.0032 55.596,34.6962 55.238,35.9102 C54.535,38.2902 52.293,39.9532 49.786,39.9532 C49.491,39.9532 49.042,39.7672 48.566,39.5712 C47.81,39.2572 46.869,38.8682 45.736,38.8682 C44.604,38.8682 43.663,39.2572 42.906,39.5712 C42.431,39.7672 41.982,39.9532 41.687,39.9532 C39.18,39.9532 36.938,38.2902 36.235,35.9102 C35.877,34.6962 34.603,34.0022 33.39,34.3612 C32.176,34.7192 31.483,35.9932 31.841,37.2062 C33.115,41.5212 37.164,44.5352 41.687,44.5352" id="Fill-23" fill="#F05822"></path>
                <path d="M40.9243,53.0142 C42.2723,53.0142 43.3923,52.5502 44.2923,52.1772 C44.8563,51.9442 45.3883,51.7232 45.7363,51.7232 C46.0843,51.7232 46.6173,51.9442 47.1813,52.1772 C48.0813,52.5502 49.2003,53.0142 50.5483,53.0142 C55.5923,53.0142 60.0893,49.8202 61.7363,45.0662 C62.1503,43.8712 61.5173,42.5662 60.3213,42.1522 C59.1263,41.7372 57.8213,42.3702 57.4073,43.5662 C56.3983,46.4772 53.6423,48.4322 50.5483,48.4322 C50.1123,48.4322 49.5663,48.2062 48.9343,47.9452 C48.0703,47.5872 46.9953,47.1412 45.7363,47.1412 C44.4773,47.1412 43.4023,47.5872 42.5383,47.9452 C41.9063,48.2062 41.3613,48.4322 40.9243,48.4322 C37.8313,48.4322 35.0743,46.4762 34.0653,43.5662 C33.6513,42.3702 32.3463,41.7372 31.1513,42.1522 C29.9553,42.5662 29.3223,43.8712 29.7363,45.0672 C31.3843,49.8202 35.8803,53.0142 40.9243,53.0142" id="Fill-25" fill="#F05822"></path>
                <path d="M62.5356,49.9385 C61.3556,49.4815 60.0286,50.0675 59.5726,51.2485 C58.2616,54.6355 54.9406,56.9115 51.3106,56.9115 C50.7326,56.9115 50.0696,56.6365 49.3026,56.3185 C48.2806,55.8955 47.1226,55.4165 45.7366,55.4165 C44.3496,55.4165 43.1916,55.8955 42.1706,56.3185 C41.4026,56.6365 40.7396,56.9115 40.1616,56.9115 C36.5316,56.9115 33.2116,54.6355 31.9006,51.2485 C31.4436,50.0675 30.1176,49.4815 28.9376,49.9385 C27.7576,50.3955 27.1716,51.7215 27.6276,52.9015 C29.6166,58.0405 34.6536,61.4925 40.1616,61.4925 C41.6516,61.4925 42.9116,60.9705 43.9246,60.5515 C44.6116,60.2665 45.2606,59.9975 45.7366,59.9975 C46.2116,59.9975 46.8616,60.2665 47.5486,60.5515 C48.5616,60.9705 49.8216,61.4925 51.3106,61.4925 C56.8186,61.4925 61.8556,58.0405 63.8446,52.9015 C64.3016,51.7215 63.7156,50.3955 62.5356,49.9385" id="Fill-27" fill="#F05822"></path>
                <path d="M305,50.2559 C305,54.3689 299.086,58.0839 297.643,61.3269 C294.998,67.2659 292.839,72.1799 287.5,72.1799 C282.161,72.1799 280.002,67.2659 277.357,61.3269 C275.914,58.0839 270,54.3689 270,50.2559 C270,46.1429 275.914,42.4279 277.357,39.1839 C280.002,33.2449 282.161,28.3319 287.5,28.3319 C292.839,28.3319 294.998,33.2449 297.643,39.1839 C299.086,42.4279 305,46.1429 305,50.2559" id="Fill-29" fill="#EFAECE"></path>
                <path d="M288.2002,38.4946 C289.3882,40.0026 291.2182,40.9806 293.2822,40.9806 L293.2822,39.5806 C290.4792,39.5806 288.2002,37.3016 288.2002,34.4986 L288.2002,34.2336 L286.8002,34.2336 C286.8002,37.0366 284.5202,39.3156 281.7182,39.3156 L281.7182,40.7156 C283.7802,40.7156 285.6112,39.7396 286.8002,38.2336 L286.8002,42.0906 C286.8002,44.8926 284.5202,47.1726 281.7182,47.1726 L281.7182,48.5726 C283.7802,48.5726 285.6112,47.5966 286.8002,46.0906 L286.8002,49.9476 C286.8002,52.7496 284.5202,55.0286 281.7182,55.0286 L281.7182,56.4296 C283.7802,56.4296 285.6112,55.4526 286.8002,53.9476 L286.8002,57.8036 C286.8002,60.6056 284.5202,62.8856 281.7182,62.8856 L281.7182,64.2866 C283.7802,64.2866 285.6112,63.3096 286.8002,61.8036 L286.8002,82.9996 L288.2002,82.9996 L288.2002,62.0646 C289.3882,63.5726 291.2182,64.5506 293.2822,64.5506 L293.2822,63.1506 C290.4792,63.1506 288.2002,60.8706 288.2002,58.0686 L288.2002,57.8036 L288.2002,54.2076 C289.3882,55.7156 291.2182,56.6946 293.2822,56.6946 L293.2822,55.2936 C290.4792,55.2936 288.2002,53.0146 288.2002,50.2126 L288.2002,49.9476 L288.2002,46.3506 C289.3882,47.8586 291.2182,48.8376 293.2822,48.8376 L293.2822,47.4376 C290.4792,47.4376 288.2002,45.1576 288.2002,42.3556 L288.2002,42.0906 L288.2002,38.4946 Z" id="Fill-31" fill="#221F1F"></path>
                <polygon id="Fill-33" fill="#EF5722" points="22.058 114 180.749 114 180.749 55.721 22.058 55.721"></polygon>
                <polygon id="Stroke-35" stroke="#000000" stroke-width="1.5" points="22.058 114 180.749 114 180.749 55.721 22.058 55.721"></polygon>
                <polygon id="Fill-36" fill="#DAA725" points="185 46.0078 18.065 46.0078 18 55.7278 184.807 55.7278"></polygon>
                <polygon id="Stroke-37" stroke="#000000" stroke-width="1.5" points="185 46.0078 18.065 46.0078 18 55.7278 184.807 55.7278"></polygon>
                <polygon id="Fill-38" fill="#A1D29D" points="185 15 18.065 15 18 36 184.807 36"></polygon>
                <polygon id="Stroke-39" stroke="#000000" stroke-width="1.5" points="185 15 18.065 15 18 36 184.807 36"></polygon>
                <polygon id="Fill-40" fill="#EEADCD" points="33.852 82.084 50.657 82.084 50.657 65.279 33.852 65.279"></polygon>
                <polygon id="Stroke-41" stroke="#000000" stroke-width="1.5" points="33.852 82.084 50.657 82.084 50.657 65.279 33.852 65.279"></polygon>
                <polygon id="Fill-42" fill="#EEADCD" points="33.852 106.2 50.657 106.2 50.657 89.395 33.852 89.395"></polygon>
                <polygon id="Stroke-43" stroke="#000000" stroke-width="1.5" points="33.852 106.2 50.657 106.2 50.657 89.395 33.852 89.395"></polygon>
                <polygon id="Fill-44" fill="#EEADCD" points="152.994 106.2 169.798 106.2 169.798 89.395 152.994 89.395"></polygon>
                <polygon id="Stroke-45" stroke="#000000" stroke-width="1.5" points="152.994 106.2 169.798 106.2 169.798 89.395 152.994 89.395"></polygon>
                <polygon id="Fill-46" fill="#EEADCD" points="152.835 82.084 169.64 82.084 169.64 65.279 152.835 65.279"></polygon>
                <polygon id="Stroke-47" stroke="#000000" stroke-width="1.5" points="152.835 82.084 169.64 82.084 169.64 65.279 152.835 65.279"></polygon>
                <polygon id="Fill-48" fill="#EF5722" points="60.544 113.887 142.97 113.887 142.97 66.439 60.544 66.439"></polygon>
                <polygon id="Stroke-49" stroke="#000000" stroke-width="1.5" points="60.544 113.887 142.97 113.887 142.97 66.439 60.544 66.439"></polygon>
                <polygon id="Fill-50" fill="#DAA725" points="52.0703 67.7788 151.4443 67.7788 101.7573 36.1828"></polygon>
                <polygon id="Stroke-51" stroke="#000000" stroke-width="1.5" points="52.0703 67.7788 151.4443 67.7788 101.7573 36.1828"></polygon>
                <polygon id="Fill-52" fill="#EEADCD" points="86.392 101 118.281 101 118.281 67.712 86.392 67.712"></polygon>
                <polygon id="Stroke-53" stroke="#000000" stroke-width="1.5" points="86.392 101 118.281 101 118.281 67.712 86.392 67.712"></polygon>
                <path d="M298.9697,96.9697 L298.4997,97.4397 L292.9777,91.9167 L298.9997,85.8937 L298.9997,96.9997 L298.9697,96.9697 Z M292.6437,105.4167 L298.9997,99.0607 L298.9997,111.7727 L292.6437,105.4167 Z M286.1437,111.9167 L291.5827,106.4777 L297.4397,112.3337 L286.4997,112.3337 L286.5307,112.3027 L286.1437,111.9167 Z M273.0607,111.8337 L278.4997,106.3937 L284.4397,112.3337 L273.4997,112.3337 L273.5307,112.3027 L273.0607,111.8337 Z M260.0607,111.8337 L265.4997,106.3937 L270.9397,111.8337 L270.4697,112.3027 L270.4997,112.3337 L260.4997,112.3337 L260.5307,112.3027 L260.0607,111.8337 Z M247.0607,111.8337 L252.4997,106.3937 L257.9397,111.8337 L257.4697,112.3027 L257.4997,112.3337 L247.4997,112.3337 L247.5307,112.3027 L247.0607,111.8337 Z M234.0607,111.8337 L239.4997,106.3937 L244.9397,111.8337 L244.4697,112.3027 L244.4997,112.3337 L234.4997,112.3337 L234.5307,112.3027 L234.0607,111.8337 Z M221.0607,111.8337 L226.4997,106.3937 L231.9397,111.8337 L231.4697,112.3027 L231.4997,112.3337 L221.4997,112.3337 L221.5307,112.3027 L221.0607,111.8337 Z M208.0607,111.8337 L213.4997,106.3937 L218.9397,111.8337 L218.4697,112.3027 L218.4997,112.3337 L208.4997,112.3337 L208.5307,112.3027 L208.0607,111.8337 Z M200.4997,106.3937 L205.9397,111.8337 L205.4697,112.3027 L205.4997,112.3337 L194.5607,112.3337 L200.4997,106.3937 Z M187.4167,106.4777 L192.8567,111.9167 L192.4697,112.3027 L192.4997,112.3337 L181.5607,112.3337 L187.4167,106.4777 Z M179.9997,99.0607 L186.3567,105.4167 L179.9997,111.7727 L179.9997,99.0607 Z M180.4997,98.4997 L179.9997,98.9997 L179.9997,97.9997 L180.4997,98.4997 Z M185.5227,91.4167 L179.9997,96.9397 L179.9997,85.8937 L185.5227,91.4167 Z M186.5827,90.3567 L181.5607,85.3337 L191.6067,85.3337 L186.5827,90.3567 Z M199.4397,92.3337 L193.9997,97.7727 L187.6437,91.4167 L193.0307,86.0307 L192.3327,85.3337 L192.4997,85.3337 L192.4697,85.3637 L199.4397,92.3337 Z M205.9397,85.8337 L200.4997,91.2727 L194.5607,85.3337 L205.4997,85.3337 L205.4697,85.3637 L205.9397,85.8337 Z M218.9397,85.8337 L213.4997,91.2727 L208.0607,85.8337 L208.5307,85.3637 L208.4997,85.3337 L218.4997,85.3337 L218.4697,85.3637 L218.9397,85.8337 Z M231.9397,85.8337 L226.4997,91.2727 L221.0607,85.8337 L221.5307,85.3637 L221.4997,85.3337 L231.4997,85.3337 L231.4697,85.3637 L231.9397,85.8337 Z M244.9397,85.8337 L239.4997,91.2727 L234.0607,85.8337 L234.5307,85.3637 L234.4997,85.3337 L244.4997,85.3337 L244.4697,85.3637 L244.9397,85.8337 Z M257.9397,85.8337 L252.4997,91.2727 L247.0607,85.8337 L247.5307,85.3637 L247.4997,85.3337 L257.4997,85.3337 L257.4697,85.3637 L257.9397,85.8337 Z M270.9397,85.8337 L265.4997,91.2727 L260.0607,85.8337 L260.5307,85.3637 L260.4997,85.3337 L270.4997,85.3337 L270.4697,85.3637 L270.9397,85.8337 Z M278.4997,91.2727 L273.0607,85.8337 L273.5307,85.3637 L273.4997,85.3337 L284.4397,85.3337 L278.4997,91.2727 Z M286.4777,85.4167 L286.5307,85.3637 L286.4997,85.3337 L297.4397,85.3337 L291.9167,90.8567 L286.4777,85.4167 Z M284.9997,97.7727 L279.5607,92.3337 L285.4167,86.4777 L290.8567,91.9167 L284.9997,97.7727 Z M286.0607,98.8337 L291.9167,92.9777 L297.4397,98.4997 L291.5827,104.3567 L286.0607,98.8337 Z M273.0607,98.8337 L278.4997,93.3937 L283.9397,98.8337 L278.4997,104.2727 L273.0607,98.8337 Z M271.9997,99.8937 L277.4397,105.3337 L271.9997,110.7727 L266.5607,105.3337 L271.9997,99.8937 Z M266.5607,92.3337 L271.9997,86.8937 L277.4397,92.3337 L271.9997,97.7727 L266.5607,92.3337 Z M260.0607,98.8337 L265.4997,93.3937 L270.9397,98.8337 L265.4997,104.2727 L260.0607,98.8337 Z M258.9997,99.8937 L264.4397,105.3337 L258.9997,110.7727 L253.5607,105.3337 L258.9997,99.8937 Z M253.5607,92.3337 L258.9997,86.8937 L264.4397,92.3337 L258.9997,97.7727 L253.5607,92.3337 Z M247.0607,98.8337 L252.4997,93.3937 L257.9397,98.8337 L252.4997,104.2727 L247.0607,98.8337 Z M245.9997,99.8937 L251.4397,105.3337 L245.9997,110.7727 L240.5607,105.3337 L245.9997,99.8937 Z M240.5607,92.3337 L245.9997,86.8937 L251.4397,92.3337 L245.9997,97.7727 L240.5607,92.3337 Z M234.0607,98.8337 L239.4997,93.3937 L244.9397,98.8337 L239.4997,104.2727 L234.0607,98.8337 Z M232.9997,99.8937 L238.4397,105.3337 L232.9997,110.7727 L227.5607,105.3337 L232.9997,99.8937 Z M227.5607,92.3337 L232.9997,86.8937 L238.4397,92.3337 L232.9997,97.7727 L227.5607,92.3337 Z M221.0607,98.8337 L226.4997,93.3937 L231.9397,98.8337 L226.4997,104.2727 L221.0607,98.8337 Z M219.9997,99.8937 L225.4397,105.3337 L219.9997,110.7727 L214.5607,105.3337 L219.9997,99.8937 Z M214.5607,92.3337 L219.9997,86.8937 L225.4397,92.3337 L219.9997,97.7727 L214.5607,92.3337 Z M208.0607,98.8337 L213.4997,93.3937 L218.9397,98.8337 L213.4997,104.2727 L208.0607,98.8337 Z M206.9997,99.8937 L212.4397,105.3337 L206.9997,110.7727 L201.5607,105.3337 L206.9997,99.8937 Z M201.5607,92.3337 L206.9997,86.8937 L212.4397,92.3337 L206.9997,97.7727 L201.5607,92.3337 Z M195.0607,98.8337 L200.4997,93.3937 L205.9397,98.8337 L200.4997,104.2727 L195.0607,98.8337 Z M187.4167,104.3567 L181.0607,97.9997 L186.5827,92.4777 L192.9397,98.8337 L187.4167,104.3567 Z M193.9167,110.8567 L188.4777,105.4167 L193.9997,99.8937 L199.4397,105.3337 L193.9167,110.8567 Z M279.5607,105.3337 L284.9997,99.8937 L290.5227,105.4167 L285.0827,110.8567 L279.5607,105.3337 Z M298.9997,83.8337 L179.9997,83.8337 L178.4997,83.8337 L178.4997,85.3337 L178.4997,112.3337 L178.4997,113.8337 L179.9997,113.8337 L298.9997,113.8337 L300.4997,113.8337 L300.4997,112.3337 L300.4997,85.3337 L300.4997,83.8337 L298.9997,83.8337 Z" id="Fill-54" fill="#000000"></path>
                <path d="M102.3364,67.7119 L102.3364,100.9999" id="Fill-55" fill="#A1D29D"></path>
                <path d="M102.3364,67.7119 L102.3364,100.9999" id="Stroke-56" stroke="#000000" stroke-width="1.5"></path>
                <polygon id="Fill-58" fill="#DAA725" points="69.049 114 75.748 114 75.748 67.779 69.049 67.779"></polygon>
                <polygon id="Stroke-59" stroke="#000000" stroke-width="1.5" points="69.049 114 75.748 114 75.748 67.779 69.049 67.779"></polygon>
                <polygon id="Fill-60" fill="#DAA725" points="128.668 114 135.367 114 135.367 67.779 128.668 67.779"></polygon>
                <polygon id="Stroke-61" stroke="#000000" stroke-width="1.5" points="128.668 114 135.367 114 135.367 67.779 128.668 67.779"></polygon>
                <polygon id="Fill-62" fill="#A1D29D" points="69.049 113.91 135.702 113.91 135.702 107.301 69.049 107.301"></polygon>
                <polygon id="Stroke-63" stroke="#000000" stroke-width="1.5" points="69.049 113.91 135.702 113.91 135.702 107.301 69.049 107.301"></polygon>
                <polygon id="Fill-64" fill="#A1D29D" points="81.107 107.302 123.309 107.302 123.309 100.603 81.107 100.603"></polygon>
                <polygon id="Stroke-65" stroke="#000000" stroke-width="1.5" points="81.107 107.302 123.309 107.302 123.309 100.603 81.107 100.603"></polygon>
                <path d="M293.6729,108.8208 L293.6729,95.9118 C293.6729,92.3478 290.7829,89.4578 287.2189,89.4578 L251.7209,89.4578 C248.1559,89.4578 245.2669,92.3478 245.2669,95.9118 L245.2669,124.9558 L248.4939,124.9558 L248.4939,131.4108 L251.7209,131.4108 C251.7209,127.8458 254.6099,124.9558 258.1749,124.9558 C261.7389,124.9558 264.6289,127.8458 264.6289,131.4108 L283.9919,131.4108 C283.9919,127.8458 286.8819,124.9558 290.4459,124.9558 L300.1269,124.9558 L300.1269,115.2748 C300.1269,115.2748 300.1269,108.8208 293.6729,108.8208" id="Fill-66" fill="#A2D39F"></path>
                <path d="M243,80.3862 C243,83.3882 238.339,86.2702 238.229,89.0972 C238.113,92.1472 242.536,95.2302 242.306,98.0022 C242.047,101.1312 237.132,103.7742 236.747,106.4472 C236.27,109.7652 240.255,113.1952 239.62,115.6212 C238.345,120.4982 234.529,121.3302 232.852,121.3302 C231.173,121.3302 227.357,120.4972 226.082,115.6202 C225.447,113.1942 229.432,109.7642 228.955,106.4462 C228.57,103.7742 223.655,101.1312 223.396,98.0022 C223.166,95.2302 227.59,92.1472 227.473,89.0982 C227.363,86.2712 222.702,83.3892 222.702,80.3862 C222.702,77.3842 227.363,74.5022 227.473,71.6752 C227.59,68.6262 223.166,65.5432 223.396,62.7712 C223.655,59.6412 228.57,56.9982 228.955,54.3252 C229.433,51.0072 225.447,47.5772 226.082,45.1512 C227.357,40.2752 231.173,39.4422 232.852,39.4422 C234.529,39.4422 238.345,40.2752 239.62,45.1522 C240.255,47.5782 236.271,51.0082 236.747,54.3262 C237.132,56.9992 242.047,59.6412 242.306,62.7702 C242.536,65.5422 238.112,68.6252 238.229,71.6742 C238.339,74.5022 243,77.3842 243,80.3862" id="Fill-67" fill="#F05822"></path>
                <polygon id="Fill-68" fill="#000000" points="237.3066 76.3608 236.2056 75.2598 233.6286 77.8368 233.6286 67.4958 237.3066 63.8178 236.2056 62.7168 233.6286 65.2938 233.6286 57.3608 232.0726 57.3608 232.0726 65.2938 229.4956 62.7168 228.3956 63.8178 232.0726 67.4958 232.0726 77.8368 229.4956 75.2598 228.3956 76.3608 232.0726 80.0378 232.0726 90.3788 229.4956 87.8018 228.3956 88.9028 232.0726 92.5798 232.0726 102.9218 229.4956 100.3448 228.3956 101.4448 232.0726 105.1228 232.0726 115.4638 229.4956 112.8868 228.3956 113.9878 232.0726 117.6658 232.0726 139.7568 233.6286 139.7568 233.6286 117.6658 237.3066 113.9878 236.2056 112.8868 233.6286 115.4638 233.6286 105.1228 237.3066 101.4448 236.2056 100.3448 233.6286 102.9218 233.6286 92.5798 237.3066 88.9028 236.2056 87.8018 233.6286 90.3788 233.6286 80.0378"></polygon>
                <path d="M264.6289,131.4106 C264.6289,134.9746 261.7389,137.8646 258.1749,137.8646 C254.6099,137.8646 251.7209,134.9746 251.7209,131.4106 C251.7209,127.8456 254.6099,124.9556 258.1749,124.9556 C261.7389,124.9556 264.6289,127.8456 264.6289,131.4106" id="Fill-69" fill="#F05822"></path>
                <path d="M261.4023,131.4106 C261.4023,133.1926 259.9573,134.6376 258.1743,134.6376 C256.3923,134.6376 254.9483,133.1926 254.9483,131.4106 C254.9483,129.6276 256.3923,128.1826 258.1743,128.1826 C259.9573,128.1826 261.4023,129.6276 261.4023,131.4106" id="Fill-70" fill="#DBA827"></path>
                <path d="M258.1748,128.8286 C256.7518,128.8286 255.5938,129.9866 255.5938,131.4106 C255.5938,132.8336 256.7518,133.9926 258.1748,133.9926 C259.5988,133.9926 260.7568,132.8336 260.7568,131.4106 C260.7568,129.9866 259.5988,128.8286 258.1748,128.8286 M258.1748,135.2826 C256.0398,135.2826 254.3028,133.5456 254.3028,131.4106 C254.3028,129.2746 256.0398,127.5376 258.1748,127.5376 C260.3108,127.5376 262.0478,129.2746 262.0478,131.4106 C262.0478,133.5456 260.3108,135.2826 258.1748,135.2826" id="Fill-71" fill="#000000"></path>
                <path d="M296.9004,131.4106 C296.9004,134.9746 294.0104,137.8646 290.4464,137.8646 C286.8814,137.8646 283.9924,134.9746 283.9924,131.4106 C283.9924,127.8456 286.8814,124.9556 290.4464,124.9556 C294.0104,124.9556 296.9004,127.8456 296.9004,131.4106" id="Fill-72" fill="#F05822"></path>
                <path d="M293.6729,131.4106 C293.6729,133.1926 292.2289,134.6376 290.4459,134.6376 C288.6639,134.6376 287.2189,133.1926 287.2189,131.4106 C287.2189,129.6276 288.6639,128.1826 290.4459,128.1826 C292.2289,128.1826 293.6729,129.6276 293.6729,131.4106" id="Fill-73" fill="#DBA827"></path>
                <path d="M290.4463,128.8286 C289.0223,128.8286 287.8643,129.9866 287.8643,131.4106 C287.8643,132.8336 289.0223,133.9926 290.4463,133.9926 C291.8703,133.9926 293.0283,132.8336 293.0283,131.4106 C293.0283,129.9866 291.8703,128.8286 290.4463,128.8286 M290.4463,135.2826 C288.3103,135.2826 286.5733,133.5456 286.5733,131.4106 C286.5733,129.2746 288.3103,127.5376 290.4463,127.5376 C292.5823,127.5376 294.3183,129.2746 294.3183,131.4106 C294.3183,133.5456 292.5823,135.2826 290.4463,135.2826" id="Fill-74" fill="#000000"></path>
                <polygon id="Fill-75" fill="#221F1F" points="248.495 112.371 274.311 112.371 274.311 111.08 248.495 111.08"></polygon>
                <polygon id="Fill-76" fill="#221F1F" points="248.495 119.147 274.311 119.147 274.311 117.856 248.495 117.856"></polygon>
                <polygon id="Fill-77" fill="#EEADCD" points="287.219 108.821 293.673 108.821 293.673 99.139 287.219 99.139"></polygon>
                <polygon id="Fill-78" fill="#EEADCD" points="267.856 108.821 274.31 108.821 274.31 99.139 267.856 99.139"></polygon>
                <path d="M268.502,108.175 L273.665,108.175 L273.665,99.784 L268.502,99.784 L268.502,108.175 Z M267.211,109.466 L274.956,109.466 L274.956,98.494 L267.211,98.494 L267.211,109.466 Z" id="Fill-79" fill="#000000"></path>
                <polygon id="Fill-80" fill="#EEADCD" points="258.175 108.821 264.629 108.821 264.629 99.139 258.175 99.139"></polygon>
                <path d="M258.82,108.175 L263.984,108.175 L263.984,99.784 L258.82,99.784 L258.82,108.175 Z M257.529,109.466 L265.274,109.466 L265.274,98.494 L257.529,98.494 L257.529,109.466 Z" id="Fill-81" fill="#000000"></path>
                <polygon id="Fill-82" fill="#EEADCD" points="248.494 108.821 254.948 108.821 254.948 99.139 248.494 99.139"></polygon>
                <path d="M249.14,108.175 L254.303,108.175 L254.303,99.784 L249.14,99.784 L249.14,108.175 Z M247.849,109.466 L255.594,109.466 L255.594,98.494 L247.849,98.494 L247.849,109.466 Z" id="Fill-83" fill="#000000"></path>
                <polygon id="Fill-84" fill="#EEADCD" points="280.7646 99.1392 277.5376 99.1392 277.5376 124.9562 280.7646 124.9562 283.9926 124.9562 283.9926 99.1392"></polygon>
                <path d="M281.41,124.311 L283.347,124.311 L283.347,99.785 L281.41,99.785 L281.41,124.311 Z M278.183,124.311 L280.119,124.311 L280.119,99.785 L278.183,99.785 L278.183,124.311 Z M281.41,98.494 L280.119,98.494 L276.893,98.494 L276.893,125.602 L280.119,125.602 L281.41,125.602 L284.638,125.602 L284.638,98.494 L281.41,98.494 Z" id="Fill-85" fill="#000000"></path>
                <path d="M300.127,121.729 C301.91,121.729 303.355,120.284 303.355,118.502 C303.355,116.72 301.91,115.275 300.127,115.275 L300.127,121.729 Z" id="Fill-86" fill="#F05822"></path>
                <polygon id="Fill-87" fill="#DBA827" points="245.266 131.411 248.494 131.411 248.494 124.956 245.266 124.956"></polygon>
                <path d="M290.4463,124.9561 C294.0103,124.9561 296.9003,127.8461 296.9003,131.4111 L303.3543,131.4111 L303.3543,124.9561 L290.4463,124.9561 Z" id="Fill-88" fill="#DBA827"></path>
                <path d="M302.709,130.7651 L297.516,130.7651 C297.322,128.6331 296.183,126.7701 294.521,125.6011 L302.709,125.6011 L302.709,130.7651 Z M290.446,137.2191 C287.243,137.2191 284.638,134.6131 284.638,131.4101 C284.638,128.2071 287.243,125.6011 290.446,125.6011 C293.649,125.6011 296.255,128.2071 296.255,131.4101 C296.255,134.6131 293.649,137.2191 290.446,137.2191 Z M258.175,137.2191 C254.973,137.2191 252.366,134.6131 252.366,131.4101 C252.366,128.2071 254.973,125.6011 258.175,125.6011 C261.378,125.6011 263.984,128.2071 263.984,131.4101 C263.984,134.6131 261.378,137.2191 258.175,137.2191 Z M287.864,108.1751 L293.028,108.1751 L293.028,99.7841 L287.864,99.7841 L287.864,108.1751 Z M245.912,124.3101 L245.912,96.5571 L293.028,96.5571 L293.028,98.4941 L286.573,98.4941 L286.573,109.4661 L293.028,109.4661 L293.673,109.4661 C299.392,109.4661 299.481,115.0391 299.482,115.2751 L299.482,122.3741 L299.482,124.3101 L289.801,124.3101 L289.801,124.3411 C286.4,124.6491 283.686,127.3651 283.377,130.7651 L265.244,130.7651 C264.917,127.1521 261.872,124.3101 258.175,124.3101 C254.479,124.3101 251.434,127.1521 251.106,130.7651 L249.14,130.7651 L249.14,124.3101 L245.912,124.3101 Z M245.912,130.7651 L247.849,130.7651 L247.849,125.6011 L245.912,125.6011 L245.912,130.7651 Z M251.721,90.1031 L287.219,90.1031 C290.203,90.1031 292.667,92.3671 292.99,95.2661 L245.95,95.2661 C246.272,92.3671 248.736,90.1031 251.721,90.1031 Z M300.772,116.0021 C301.885,116.2891 302.709,117.3011 302.709,118.5021 C302.709,119.7021 301.885,120.7141 300.772,121.0021 L300.772,116.0021 Z M300.772,122.3161 C302.602,122.0071 304,120.4171 304,118.5021 C304,116.5721 302.579,114.9721 300.73,114.6811 C300.543,113.0411 299.555,108.5381 294.318,108.1961 L294.318,98.4941 L294.318,95.9121 C294.318,91.9971 291.134,88.8121 287.219,88.8121 L251.721,88.8121 C247.807,88.8121 244.621,91.9971 244.621,95.9121 L244.621,124.3101 L244.621,132.0561 L249.14,132.0561 L251.106,132.0561 C251.434,135.6691 254.479,138.5101 258.175,138.5101 C261.872,138.5101 264.917,135.6691 265.244,132.0561 L283.377,132.0561 C283.704,135.6691 286.749,138.5101 290.446,138.5101 C294.144,138.5101 297.188,135.6691 297.516,132.0561 L304,132.0561 L304,124.3101 L300.772,124.3101 L300.772,122.3161 Z" id="Fill-89" fill="#000000"></path>
                <path d="M209.6729,95.8208 L209.6729,82.9118 C209.6729,79.3478 206.7829,76.4578 203.2189,76.4578 L167.7209,76.4578 C164.1559,76.4578 161.2669,79.3478 161.2669,82.9118 L161.2669,111.9558 L164.4939,111.9558 L164.4939,118.4108 L167.7209,118.4108 C167.7209,114.8458 170.6099,111.9558 174.1749,111.9558 C177.7389,111.9558 180.6289,114.8458 180.6289,118.4108 L199.9919,118.4108 C199.9919,114.8458 202.8819,111.9558 206.4459,111.9558 L216.1269,111.9558 L216.1269,102.2748 C216.1269,102.2748 216.1269,95.8208 209.6729,95.8208" id="Fill-90" fill="#DBA827"></path>
                <path d="M180.6289,118.4106 C180.6289,121.9746 177.7389,124.8646 174.1749,124.8646 C170.6099,124.8646 167.7209,121.9746 167.7209,118.4106 C167.7209,114.8456 170.6099,111.9556 174.1749,111.9556 C177.7389,111.9556 180.6289,114.8456 180.6289,118.4106" id="Fill-91" fill="#EFAECE"></path>
                <path d="M177.4023,118.4106 C177.4023,120.1926 175.9573,121.6376 174.1743,121.6376 C172.3923,121.6376 170.9483,120.1926 170.9483,118.4106 C170.9483,116.6276 172.3923,115.1826 174.1743,115.1826 C175.9573,115.1826 177.4023,116.6276 177.4023,118.4106" id="Fill-92" fill="#F05822"></path>
                <path d="M174.1748,115.8286 C172.7518,115.8286 171.5938,116.9866 171.5938,118.4106 C171.5938,119.8336 172.7518,120.9926 174.1748,120.9926 C175.5988,120.9926 176.7568,119.8336 176.7568,118.4106 C176.7568,116.9866 175.5988,115.8286 174.1748,115.8286 M174.1748,122.2826 C172.0398,122.2826 170.3028,120.5456 170.3028,118.4106 C170.3028,116.2746 172.0398,114.5376 174.1748,114.5376 C176.3108,114.5376 178.0478,116.2746 178.0478,118.4106 C178.0478,120.5456 176.3108,122.2826 174.1748,122.2826" id="Fill-93" fill="#000000"></path>
                <path d="M212.9004,118.4106 C212.9004,121.9746 210.0104,124.8646 206.4464,124.8646 C202.8814,124.8646 199.9924,121.9746 199.9924,118.4106 C199.9924,114.8456 202.8814,111.9556 206.4464,111.9556 C210.0104,111.9556 212.9004,114.8456 212.9004,118.4106" id="Fill-94" fill="#EFAECE"></path>
                <path d="M209.6729,118.4106 C209.6729,120.1926 208.2289,121.6376 206.4459,121.6376 C204.6639,121.6376 203.2189,120.1926 203.2189,118.4106 C203.2189,116.6276 204.6639,115.1826 206.4459,115.1826 C208.2289,115.1826 209.6729,116.6276 209.6729,118.4106" id="Fill-95" fill="#F05822"></path>
                <path d="M206.4463,115.8286 C205.0223,115.8286 203.8643,116.9866 203.8643,118.4106 C203.8643,119.8336 205.0223,120.9926 206.4463,120.9926 C207.8703,120.9926 209.0283,119.8336 209.0283,118.4106 C209.0283,116.9866 207.8703,115.8286 206.4463,115.8286 M206.4463,122.2826 C204.3103,122.2826 202.5733,120.5456 202.5733,118.4106 C202.5733,116.2746 204.3103,114.5376 206.4463,114.5376 C208.5823,114.5376 210.3183,116.2746 210.3183,118.4106 C210.3183,120.5456 208.5823,122.2826 206.4463,122.2826" id="Fill-96" fill="#000000"></path>
                <polygon id="Fill-97" fill="#221F1F" points="164.495 99.371 190.311 99.371 190.311 98.08 164.495 98.08"></polygon>
                <polygon id="Fill-98" fill="#221F1F" points="164.495 106.147 190.311 106.147 190.311 104.856 164.495 104.856"></polygon>
                <polygon id="Fill-99" fill="#A2D39F" points="203.219 95.821 209.673 95.821 209.673 86.139 203.219 86.139"></polygon>
                <polygon id="Fill-100" fill="#A2D39F" points="183.856 95.821 190.31 95.821 190.31 86.139 183.856 86.139"></polygon>
                <path d="M184.502,95.175 L189.665,95.175 L189.665,86.784 L184.502,86.784 L184.502,95.175 Z M183.211,96.466 L190.956,96.466 L190.956,85.494 L183.211,85.494 L183.211,96.466 Z" id="Fill-101" fill="#000000"></path>
                <polygon id="Fill-102" fill="#A2D39F" points="174.175 95.821 180.629 95.821 180.629 86.139 174.175 86.139"></polygon>
                <path d="M174.82,95.175 L179.984,95.175 L179.984,86.784 L174.82,86.784 L174.82,95.175 Z M173.529,96.466 L181.274,96.466 L181.274,85.494 L173.529,85.494 L173.529,96.466 Z" id="Fill-103" fill="#000000"></path>
                <polygon id="Fill-104" fill="#A2D39F" points="164.494 95.821 170.948 95.821 170.948 86.139 164.494 86.139"></polygon>
                <path d="M165.14,95.175 L170.303,95.175 L170.303,86.784 L165.14,86.784 L165.14,95.175 Z M163.849,96.466 L171.594,96.466 L171.594,85.494 L163.849,85.494 L163.849,96.466 Z" id="Fill-105" fill="#000000"></path>
                <polygon id="Fill-106" fill="#A2D39F" points="196.7646 86.1392 193.5376 86.1392 193.5376 111.9562 196.7646 111.9562 199.9926 111.9562 199.9926 86.1392"></polygon>
                <path d="M197.41,111.311 L199.347,111.311 L199.347,86.785 L197.41,86.785 L197.41,111.311 Z M194.183,111.311 L196.119,111.311 L196.119,86.785 L194.183,86.785 L194.183,111.311 Z M197.41,85.494 L196.119,85.494 L192.893,85.494 L192.893,112.602 L196.119,112.602 L197.41,112.602 L200.638,112.602 L200.638,85.494 L197.41,85.494 Z" id="Fill-107" fill="#000000"></path>
                <path d="M216.127,108.729 C217.91,108.729 219.355,107.284 219.355,105.502 C219.355,103.72 217.91,102.275 216.127,102.275 L216.127,108.729 Z" id="Fill-108" fill="#EFAECE"></path>
                <polygon id="Fill-109" fill="#F05822" points="161.266 118.411 164.494 118.411 164.494 111.956 161.266 111.956"></polygon>
                <path d="M206.4463,111.9561 C210.0103,111.9561 212.9003,114.8461 212.9003,118.4111 L219.3543,118.4111 L219.3543,111.9561 L206.4463,111.9561 Z" id="Fill-110" fill="#F05822"></path>
                <path d="M218.709,117.7651 L213.516,117.7651 C213.322,115.6331 212.183,113.7701 210.521,112.6011 L218.709,112.6011 L218.709,117.7651 Z M206.446,124.2191 C203.243,124.2191 200.638,121.6131 200.638,118.4101 C200.638,115.2071 203.243,112.6011 206.446,112.6011 C209.649,112.6011 212.255,115.2071 212.255,118.4101 C212.255,121.6131 209.649,124.2191 206.446,124.2191 Z M174.175,124.2191 C170.973,124.2191 168.366,121.6131 168.366,118.4101 C168.366,115.2071 170.973,112.6011 174.175,112.6011 C177.378,112.6011 179.984,115.2071 179.984,118.4101 C179.984,121.6131 177.378,124.2191 174.175,124.2191 Z M203.864,95.1751 L209.028,95.1751 L209.028,86.7841 L203.864,86.7841 L203.864,95.1751 Z M161.912,111.3101 L161.912,83.5571 L209.028,83.5571 L209.028,85.4941 L202.573,85.4941 L202.573,96.4661 L209.028,96.4661 L209.673,96.4661 C215.392,96.4661 215.481,102.0391 215.482,102.2751 L215.482,109.3741 L215.482,111.3101 L205.801,111.3101 L205.801,111.3411 C202.4,111.6491 199.686,114.3651 199.377,117.7651 L181.244,117.7651 C180.917,114.1521 177.872,111.3101 174.175,111.3101 C170.479,111.3101 167.434,114.1521 167.106,117.7651 L165.14,117.7651 L165.14,111.3101 L161.912,111.3101 Z M161.912,117.7651 L163.849,117.7651 L163.849,112.6011 L161.912,112.6011 L161.912,117.7651 Z M167.721,77.1031 L203.219,77.1031 C206.203,77.1031 208.667,79.3671 208.99,82.2661 L161.95,82.2661 C162.272,79.3671 164.736,77.1031 167.721,77.1031 Z M216.772,103.0021 C217.885,103.2891 218.709,104.3011 218.709,105.5021 C218.709,106.7021 217.885,107.7141 216.772,108.0021 L216.772,103.0021 Z M216.772,109.3161 C218.602,109.0071 220,107.4171 220,105.5021 C220,103.5721 218.579,101.9721 216.73,101.6811 C216.543,100.0411 215.555,95.5381 210.318,95.1961 L210.318,85.4941 L210.318,82.9121 C210.318,78.9971 207.134,75.8121 203.219,75.8121 L167.721,75.8121 C163.807,75.8121 160.621,78.9971 160.621,82.9121 L160.621,111.3101 L160.621,119.0561 L165.14,119.0561 L167.106,119.0561 C167.434,122.6691 170.479,125.5101 174.175,125.5101 C177.872,125.5101 180.917,122.6691 181.244,119.0561 L199.377,119.0561 C199.704,122.6691 202.749,125.5101 206.446,125.5101 C210.144,125.5101 213.188,122.6691 213.516,119.0561 L220,119.0561 L220,111.3101 L216.772,111.3101 L216.772,109.3161 Z" id="Fill-111" fill="#000000"></path>
                <path d="M33.5,36.5 L33.5,46.5" id="Fill-112" fill="#A1D29D"></path>
                <path d="M33.5,36.5 L33.5,46.5" id="Stroke-113" stroke="#000000" stroke-width="1.5"></path>
                <path d="M169.5,35.5 L169.5,46.5" id="Fill-115" fill="#A1D29D"></path>
                <path d="M169.5,35.5 L169.5,46.5" id="Stroke-116" stroke="#000000" stroke-width="1.5"></path>
                <path d="M51.6279,29.3159 C51.9429,29.0759 52.1009,28.6679 52.1009,28.0919 C52.1009,27.5269 51.9379,27.1239 51.6119,26.8839 C51.2869,26.6439 50.8359,26.5239 50.2609,26.5239 L47.9399,26.5239 L47.9399,29.6759 L50.2609,29.6759 C50.8569,29.6759 51.3139,29.5559 51.6279,29.3159 Z M47.9399,24.6999 L49.8129,24.6999 C50.3139,24.6999 50.6869,24.5959 50.9329,24.3879 C51.1779,24.1799 51.3009,23.8579 51.3009,23.4199 C51.3009,22.9619 51.1779,22.6309 50.9329,22.4279 C50.6869,22.2259 50.3139,22.1239 49.8129,22.1239 L47.9399,22.1239 L47.9399,24.6999 Z M54.2119,28.3159 C54.2119,29.3189 53.8869,30.0999 53.2359,30.6599 C52.5859,31.2199 51.6949,31.4999 50.5649,31.4999 L45.8929,31.4999 L45.8929,20.2999 L50.1159,20.2999 C52.2499,20.2999 53.3159,21.2019 53.3159,23.0039 C53.3159,24.1129 52.9049,24.9029 52.0839,25.3719 C53.5029,25.8309 54.2119,26.8119 54.2119,28.3159 Z" id="Fill-118" fill="#000000"></path>
                <path d="M58.5479,30.3882 C57.7699,29.4972 57.3799,28.2682 57.3799,26.7002 L57.3799,20.3002 L59.4279,20.3002 L59.4279,26.1722 C59.4279,26.9502 59.4969,27.5982 59.6359,28.1162 C59.7749,28.6332 60.0329,29.0362 60.4119,29.3242 C60.7909,29.6122 61.3259,29.7562 62.0209,29.7562 C62.7129,29.7562 63.2489,29.6122 63.6279,29.3242 C64.0069,29.0362 64.2659,28.6332 64.4039,28.1162 C64.5429,27.5982 64.6119,26.9502 64.6119,26.1722 L64.6119,20.3002 L66.6599,20.3002 L66.6599,26.7002 C66.6599,28.2682 66.2709,29.4972 65.4919,30.3882 C64.7129,31.2792 63.5559,31.7242 62.0209,31.7242 C60.4849,31.7242 59.3259,31.2792 58.5479,30.3882" id="Fill-119" fill="#000000"></path>
                <path d="M71.8203,31.4678 C71.0993,31.2978 70.5373,31.1108 70.1323,30.9078 L70.3723,28.7318 C71.7803,29.4148 73.0173,29.7558 74.0843,29.7558 C74.6493,29.7558 75.0913,29.6468 75.4123,29.4278 C75.7323,29.2098 75.8913,28.8868 75.8913,28.4598 C75.8913,28.1398 75.8033,27.8758 75.6283,27.6678 C75.4523,27.4598 75.1983,27.2838 74.8683,27.1398 C74.5373,26.9958 74.0083,26.7958 73.2843,26.5398 C72.6013,26.3058 72.0363,26.0578 71.5883,25.7958 C71.1393,25.5348 70.7853,25.1988 70.5243,24.7878 C70.2623,24.3778 70.1323,23.8738 70.1323,23.2758 C70.1323,22.3158 70.4843,21.5428 71.1883,20.9558 C71.8913,20.3698 72.9003,20.0758 74.2123,20.0758 C74.8303,20.0758 75.4463,20.1458 76.0593,20.2838 C76.6733,20.4228 77.2363,20.5928 77.7483,20.7958 L77.5403,22.8918 C76.8793,22.6038 76.2733,22.3878 75.7233,22.2438 C75.1743,22.0998 74.6283,22.0278 74.0843,22.0278 C73.4753,22.0278 73.0113,22.1298 72.6923,22.3318 C72.3723,22.5348 72.2123,22.8278 72.2123,23.2118 C72.2123,23.5108 72.2973,23.7558 72.4673,23.9478 C72.6383,24.1398 72.8703,24.2998 73.1643,24.4278 C73.4573,24.5558 73.8913,24.7108 74.4673,24.8918 C75.7583,25.2978 76.7003,25.7638 77.2923,26.2918 C77.8833,26.8198 78.1793,27.5428 78.1793,28.4598 C78.1793,29.3348 77.8763,30.0978 77.2673,30.7478 C76.6603,31.3988 75.5183,31.7238 73.8433,31.7238 C73.2153,31.7238 72.5403,31.6388 71.8203,31.4678" id="Fill-120" fill="#000000"></path>
                <path d="M87.8994,31.4678 C87.1794,31.2978 86.6174,31.1108 86.2124,30.9078 L86.4514,28.7318 C87.8594,29.4148 89.0964,29.7558 90.1644,29.7558 C90.7284,29.7558 91.1714,29.6468 91.4914,29.4278 C91.8114,29.2098 91.9714,28.8868 91.9714,28.4598 C91.9714,28.1398 91.8834,27.8758 91.7084,27.6678 C91.5314,27.4598 91.2784,27.2838 90.9474,27.1398 C90.6174,26.9958 90.0884,26.7958 89.3634,26.5398 C88.6804,26.3058 88.1154,26.0578 87.6684,25.7958 C87.2194,25.5348 86.8654,25.1988 86.6034,24.7878 C86.3414,24.3778 86.2124,23.8738 86.2124,23.2758 C86.2124,22.3158 86.5634,21.5428 87.2674,20.9558 C87.9714,20.3698 88.9794,20.0758 90.2924,20.0758 C90.9104,20.0758 91.5264,20.1458 92.1394,20.2838 C92.7534,20.4228 93.3154,20.5928 93.8274,20.7958 L93.6194,22.8918 C92.9584,22.6038 92.3524,22.3878 91.8034,22.2438 C91.2534,22.0998 90.7084,22.0278 90.1644,22.0278 C89.5554,22.0278 89.0914,22.1298 88.7714,22.3318 C88.4514,22.5348 88.2924,22.8278 88.2924,23.2118 C88.2924,23.5108 88.3774,23.7558 88.5474,23.9478 C88.7174,24.1398 88.9504,24.2998 89.2434,24.4278 C89.5374,24.5558 89.9714,24.7108 90.5474,24.8918 C91.8374,25.2978 92.7794,25.7638 93.3724,26.2918 C93.9634,26.8198 94.2594,27.5428 94.2594,28.4598 C94.2594,29.3348 93.9564,30.0978 93.3474,30.7478 C92.7394,31.3988 91.5974,31.7238 89.9234,31.7238 C89.2944,31.7238 88.6194,31.6388 87.8994,31.4678" id="Fill-121" fill="#000000"></path>
                <polygon id="Fill-122" fill="#000000" points="99.7314 22.2842 96.5634 22.2842 96.5634 20.3002 104.9474 20.3002 104.9474 22.2842 101.7794 22.2842 101.7794 31.5002 99.7314 31.5002"></polygon>
                <path d="M112.3389,27.0518 L110.9469,23.0518 L109.5389,27.0518 L112.3389,27.0518 Z M112.9799,28.8438 L108.8999,28.8438 L107.9719,31.4998 L105.9869,31.4998 L109.9719,20.2998 L111.9069,20.2998 L115.8919,31.4998 L113.9069,31.4998 L112.9799,28.8438 Z" id="Fill-123" fill="#000000"></path>
                <polygon id="Fill-124" fill="#000000" points="120.0996 22.2842 116.9316 22.2842 116.9316 20.3002 125.3156 20.3002 125.3156 22.2842 122.1476 22.2842 122.1476 31.5002 120.0996 31.5002"></polygon>
                <polygon id="Fill-125" fill="#000000" points="128.387 31.5 130.435 31.5 130.435 20.3 128.387 20.3"></polygon>
                <path d="M141.8516,28.6841 C142.4326,27.9801 142.7236,27.0521 142.7236,25.9001 C142.7236,24.7481 142.4326,23.8201 141.8516,23.1161 C141.2696,22.4121 140.4356,22.0601 139.3476,22.0601 C138.2596,22.0601 137.4246,22.4121 136.8436,23.1161 C136.2616,23.8201 135.9716,24.7481 135.9716,25.9001 C135.9716,27.0521 136.2616,27.9801 136.8436,28.6841 C137.4246,29.3881 138.2596,29.7401 139.3476,29.7401 C140.4356,29.7401 141.2696,29.3881 141.8516,28.6841 M136.5076,30.9961 C135.6696,30.5111 135.0136,29.8281 134.5396,28.9481 C134.0646,28.0681 133.8276,27.0521 133.8276,25.9001 C133.8276,24.7481 134.0646,23.7321 134.5396,22.8521 C135.0136,21.9721 135.6696,21.2891 136.5076,20.8041 C137.3446,20.3191 138.2906,20.0761 139.3476,20.0761 C140.4036,20.0761 141.3496,20.3191 142.1876,20.8041 C143.0246,21.2891 143.6806,21.9721 144.1556,22.8521 C144.6296,23.7321 144.8676,24.7481 144.8676,25.9001 C144.8676,27.0521 144.6296,28.0681 144.1556,28.9481 C143.6806,29.8281 143.0246,30.5111 142.1876,30.9961 C141.3496,31.4811 140.4036,31.7241 139.3476,31.7241 C138.2906,31.7241 137.3446,31.4811 136.5076,30.9961" id="Fill-126" fill="#000000"></path>
                <polygon id="Fill-127" fill="#000000" points="148.2588 20.2998 150.2758 20.2998 155.0598 27.5318 155.0598 20.2998 157.1078 20.2998 157.1078 31.4998 155.4268 31.4998 150.3068 23.8198 150.3068 31.4998 148.2588 31.4998"></polygon>
                <polygon id="Fill-128" fill="#000000" points="23.603 135.611 25.237 135.611 25.237 75.792 23.603 75.792"></polygon>
                <path d="M16.1475,83.002 C17.6465,83.002 19.6135,82.888 21.5415,82.004 C22.3345,81.64 23.0325,81.188 23.6475,80.789 C23.8765,80.641 24.1805,80.444 24.4205,80.304 C24.6605,80.444 24.9645,80.641 25.1925,80.789 C25.8085,81.188 26.5055,81.64 27.2995,82.004 C29.2275,82.888 31.1945,83.002 32.6935,83.002 C34.1665,83.002 35.3595,81.808 35.3595,80.335 C35.3595,78.863 34.1665,77.669 32.6935,77.669 C31.7375,77.669 30.5125,77.611 29.5235,77.157 C29.0815,76.954 28.5785,76.629 28.0925,76.314 C27.8545,76.159 27.6125,76.004 27.3685,75.855 L27.3685,71.538 C27.3685,69.916 26.0535,68.601 24.4325,68.601 C22.8105,68.601 21.4965,69.916 21.4965,71.538 L21.4965,75.84 C21.2435,75.994 20.9945,76.154 20.7485,76.314 C20.2625,76.629 19.7595,76.954 19.3165,77.157 C18.3285,77.611 17.1035,77.669 16.1475,77.669 C14.6745,77.669 13.4805,78.863 13.4805,80.335 C13.4805,81.808 14.6745,83.002 16.1475,83.002" id="Fill-129" fill="#DBA827"></path>
                <path d="M14.0435,91.8501 C15.8545,91.8501 18.2275,91.7151 20.5255,90.6601 C21.4775,90.2241 22.3305,89.6711 23.0825,89.1831 C23.4915,88.9181 24.0715,88.5421 24.4205,88.3721 C24.7695,88.5421 25.3495,88.9181 25.7585,89.1831 C26.5105,89.6711 27.3635,90.2241 28.3145,90.6601 C30.6135,91.7151 32.9865,91.8501 34.7975,91.8501 C36.2695,91.8501 37.4635,90.6561 37.4635,89.1841 C37.4635,87.7111 36.2695,86.5181 34.7975,86.5181 C33.5285,86.5181 31.8985,86.4381 30.5385,85.8141 C29.9395,85.5381 29.2885,85.1171 28.6585,84.7081 C27.3475,83.8591 25.9925,82.9811 24.4205,82.9811 C22.8485,82.9811 21.4935,83.8591 20.1825,84.7081 C19.5525,85.1171 18.9015,85.5381 18.3025,85.8141 C16.9415,86.4381 15.3125,86.5181 14.0435,86.5181 C12.5705,86.5181 11.3775,87.7111 11.3775,89.1841 C11.3775,90.6561 12.5705,91.8501 14.0435,91.8501" id="Fill-130" fill="#DBA827"></path>
                <path d="M11.9395,100.6987 C14.0625,100.6987 16.8415,100.5417 19.5115,99.3167 C20.6195,98.8077 21.6275,98.1547 22.5175,97.5777 C23.1175,97.1897 23.9985,96.6177 24.4205,96.4677 C24.8415,96.6177 25.7235,97.1897 26.3235,97.5777 C27.2125,98.1547 28.2215,98.8077 29.3295,99.3167 C31.9995,100.5417 34.7775,100.6987 36.9005,100.6987 C38.3735,100.6987 39.5675,99.5047 39.5675,98.0327 C39.5675,96.5597 38.3735,95.3657 36.9005,95.3657 C35.3205,95.3657 33.2845,95.2647 31.5535,94.4697 C30.7965,94.1227 29.9975,93.6047 29.2235,93.1037 C27.6435,92.0787 26.1505,91.1127 24.4205,91.1127 C22.6895,91.1127 21.1975,92.0797 19.6175,93.1037 C18.8435,93.6047 18.0435,94.1227 17.2875,94.4697 C15.5565,95.2647 13.5205,95.3657 11.9395,95.3657 C10.4675,95.3657 9.2735,96.5597 9.2735,98.0327 C9.2735,99.5047 10.4675,100.6987 11.9395,100.6987" id="Fill-131" fill="#DBA827"></path>
                <path d="M9.8359,109.5474 C12.2709,109.5474 15.4559,109.3684 18.4959,107.9734 C19.7619,107.3924 20.9249,106.6384 21.9519,105.9734 C22.7489,105.4564 23.9399,104.6844 24.4199,104.5814 C24.9009,104.6844 26.0919,105.4564 26.8889,105.9724 C27.9159,106.6384 29.0789,107.3924 30.3449,107.9734 C33.3849,109.3684 36.5699,109.5474 39.0049,109.5474 C40.4779,109.5474 41.6709,108.3534 41.6709,106.8804 C41.6709,105.4084 40.4779,104.2144 39.0049,104.2144 C37.1119,104.2144 34.6699,104.0914 32.5679,103.1264 C31.6549,102.7074 30.7059,102.0924 29.7889,101.4984 C27.9999,100.3394 26.3099,99.2434 24.4199,99.2434 C22.5309,99.2434 20.8409,100.3394 19.0519,101.4984 C18.1349,102.0924 17.1859,102.7074 16.2729,103.1264 C14.1699,104.0914 11.7289,104.2144 9.8359,104.2144 C8.3629,104.2144 7.1689,105.4084 7.1689,106.8804 C7.1689,108.3534 8.3629,109.5474 9.8359,109.5474" id="Fill-132" fill="#DBA827"></path>
                <path d="M7.7319,118.3955 C10.4789,118.3955 14.0699,118.1945 17.4809,116.6295 C18.9039,115.9775 20.2229,115.1225 21.3869,114.3675 C22.3849,113.7205 23.8939,112.7425 24.4109,112.7075 C24.9469,112.7425 26.4559,113.7205 27.4539,114.3675 C28.6179,115.1225 29.9369,115.9775 31.3589,116.6295 C34.7709,118.1945 38.3619,118.3955 41.1089,118.3955 C42.5809,118.3955 43.7749,117.2025 43.7749,115.7295 C43.7749,114.2565 42.5809,113.0635 41.1089,113.0635 C38.9039,113.0635 36.0559,112.9175 33.5839,111.7835 C32.5129,111.2915 31.4149,110.5805 30.3539,109.8925 C28.3559,108.5985 26.4689,107.3745 24.4199,107.3745 C22.3719,107.3745 20.4849,108.5985 18.4869,109.8925 C17.4259,110.5805 16.3289,111.2915 15.2569,111.7835 C12.7849,112.9175 9.9369,113.0635 7.7319,113.0635 C6.2589,113.0635 5.0659,114.2565 5.0659,115.7295 C5.0659,117.2025 6.2589,118.3955 7.7319,118.3955" id="Fill-133" fill="#DBA827"></path>
                <path d="M43.2124,121.9116 C40.6954,121.9116 37.4414,121.7446 34.5984,120.4396 C33.3704,119.8756 32.1244,119.0686 30.9194,118.2876 C28.7124,116.8576 26.6274,115.5066 24.4204,115.5066 C22.2134,115.5066 20.1294,116.8576 17.9214,118.2876 C16.7164,119.0686 15.4704,119.8756 14.2424,120.4396 C11.3994,121.7446 8.1454,121.9116 5.6284,121.9116 C4.1554,121.9116 2.9624,123.1056 2.9624,124.5786 C2.9624,126.0506 4.1554,127.2446 5.6284,127.2446 C8.6874,127.2446 12.6844,127.0216 16.4664,125.2866 C18.0454,124.5606 19.5204,123.6056 20.8214,122.7626 C22.0044,121.9956 23.7904,120.8386 24.4204,120.8386 C25.0504,120.8386 26.8374,121.9956 28.0194,122.7626 C29.3194,123.6056 30.7954,124.5606 32.3744,125.2866 C36.1564,127.0216 40.1534,127.2446 43.2124,127.2446 C44.6854,127.2446 45.8794,126.0506 45.8794,124.5786 C45.8794,123.1056 44.6854,121.9116 43.2124,121.9116" id="Fill-134" fill="#DBA827"></path>
                <path d="M163,106.2202 C163,116.2832 154.843,124.4402 144.78,124.4402 C134.717,124.4402 126.56,116.2832 126.56,106.2202 C126.56,96.1572 134.717,88.0002 144.78,88.0002 C154.843,88.0002 163,96.1572 163,106.2202" id="Fill-135" fill="#EFAECE"></path>
                <path d="M158.6963,105.1787 L157.2973,105.1787 C157.2973,107.0217 155.9573,108.5497 154.2023,108.8617 C154.2283,108.5757 154.2463,108.2877 154.2463,107.9957 L154.2463,103.9937 L152.8473,103.9937 L152.8473,107.9957 C152.8473,108.2857 152.8303,108.5707 152.8003,108.8527 C151.0893,108.5057 149.7973,106.9907 149.7973,105.1787 L148.3973,105.1787 C148.3973,107.6687 150.1743,109.7507 152.5273,110.2247 C151.6183,113.3747 148.8433,115.7367 145.4793,116.0277 L145.4793,101.3357 C147.0303,101.0117 148.1993,99.6347 148.1993,97.9897 L146.8003,97.9897 C146.8003,98.8567 146.2483,99.5917 145.4793,99.8777 L145.4793,96.3417 L144.0803,96.3417 L144.0803,99.8777 C143.3113,99.5917 142.7603,98.8567 142.7603,97.9897 L141.3613,97.9897 C141.3613,99.6347 142.5293,101.0117 144.0803,101.3357 L144.0803,116.0277 C140.7163,115.7367 137.9413,113.3747 137.0333,110.2247 C139.3853,109.7507 141.1623,107.6687 141.1623,105.1787 L139.7633,105.1787 C139.7633,106.9907 138.4703,108.5057 136.7593,108.8527 C136.7293,108.5707 136.7133,108.2857 136.7133,107.9957 L136.7133,103.9937 L135.3133,103.9937 L135.3133,107.9957 C135.3133,108.2877 135.3313,108.5757 135.3573,108.8617 C133.6023,108.5497 132.2633,107.0217 132.2633,105.1787 L130.8643,105.1787 C130.8643,107.8817 132.9593,110.1007 135.6113,110.3067 C136.5913,114.1917 139.9713,117.1237 144.0803,117.4267 L144.0803,141.6237 L145.4793,141.6237 L145.4793,117.4267 C149.5883,117.1237 152.9683,114.1917 153.9493,110.3067 C156.6003,110.1007 158.6963,107.8817 158.6963,105.1787" id="Fill-136" fill="#000000"></path>
            </g>
        </g>
    </g>
</svg>