<?xml version="1.0" encoding="UTF-8"?>
<svg width="320px" height="150px" viewBox="0 0 320 150" version="1.1" xmlns="http://www.w3.org/2000/svg" xmlns:xlink="http://www.w3.org/1999/xlink">
    <!-- Generator: sketchtool 50.2 (55047) - http://www.bohemiancoding.com/sketch -->
    <title>ABD5528E-A0CF-4FBD-A8F8-18CBAE1DE79C</title>
    <desc>Created with sketchtool.</desc>
    <defs>
        <polygon id="path-1" points="0 150 320 150 320 0 0 0"></polygon>
        <polygon id="path-3" points="0 150 320 150 320 0 0 0"></polygon>
    </defs>
    <g id="discover" stroke="none" stroke-width="1" fill="none" fill-rule="evenodd">
        <g id="discover_mobile" transform="translate(0.000000, -283.000000)">
            <g id="movein" transform="translate(0.000000, 283.000000)">
                <polygon id="Fill-1" fill="#E0E0E0" points="0 150 320 150 320 0 0 0"></polygon>
                <polygon id="Fill-2" fill="#000000" points="72.539 93 74.219 93 74.219 18.198 72.539 18.198"></polygon>
                <g id="Group-152">
                    <path d="M102.3276,67.0229 C101.0496,66.3229 99.4776,65.9369 97.9016,65.9369 C96.1406,65.9369 94.4836,66.4239 93.2346,67.3079 C92.2996,67.9699 91.6286,68.7109 91.0356,69.3649 C89.9996,70.5099 89.3746,71.1999 87.8046,71.1999 C87.8046,71.1999 87.4466,71.1949 87.3306,71.1949 C83.6676,71.1949 80.2416,72.4739 77.4886,73.5009 C75.9006,74.0929 74.4016,74.6529 73.5846,74.6529 C73.5426,74.6529 73.5036,74.6519 73.4646,74.6479 C71.8616,74.4919 70.9956,74.0149 69.7986,73.3549 C69.0196,72.9249 68.1376,72.4379 66.9446,71.9919 C65.2236,71.3479 63.6586,71.2589 62.2226,71.2589 C61.8686,71.2589 61.5146,71.2649 61.1606,71.2709 C60.8186,71.2759 60.4746,71.2819 60.1286,71.2819 C59.3546,71.2819 58.7576,71.2519 58.1906,71.1829 C57.0266,71.0409 56.3246,70.3209 55.2746,69.1589 C54.3386,68.1229 53.2776,66.9469 51.5896,66.3999 C50.7746,66.1359 49.4026,65.9589 48.1756,65.9589 C43.9556,65.9589 43.4206,68.0139 43.3866,68.8979 C43.2676,71.9709 48.1326,75.2509 50.2366,75.6899 C50.5796,75.7609 50.9306,75.7959 51.3096,75.7959 C51.9636,75.7959 52.5646,75.6929 53.1456,75.5929 C53.6316,75.5089 54.0906,75.4299 54.5016,75.4299 C54.6756,75.4299 54.8296,75.4439 54.9746,75.4729 C55.9416,75.6619 56.7096,76.4039 57.5416,77.2819 C59.2826,79.1169 61.6696,81.3509 64.7116,82.3459 C66.2956,82.8629 71.3166,82.9029 72.8186,82.9029 C74.6546,82.9029 80.7886,82.8449 82.6376,82.0939 C85.0106,81.1299 86.6606,79.5439 88.2576,78.0119 C88.7546,77.5339 89.2566,77.0519 89.7866,76.5839 C90.7166,75.7629 91.4116,75.4729 92.4436,75.4729 C92.5896,75.4729 92.7416,75.4789 92.8986,75.4899 C93.2306,75.5139 93.5426,75.5519 93.8426,75.5869 C94.3386,75.6459 94.8506,75.7069 95.3806,75.7069 C96.3146,75.7069 97.1326,75.5179 97.9516,75.1119 C98.2876,74.9459 103.3206,71.3529 103.3736,68.8329 C103.3896,68.0669 102.9986,67.3909 102.3276,67.0229" id="Fill-3" fill="#A2D39F"></path>
                    <path d="M53.1416,64.2261 C53.5626,64.3271 54.0126,64.3761 54.5176,64.3761 C54.9056,64.3761 55.2956,64.3471 55.6846,64.3161 C55.9986,64.2911 56.3136,64.2651 56.6266,64.2651 C56.8976,64.2651 57.1156,64.2851 57.3126,64.3301 C58.0716,64.5011 58.7416,65.2521 59.4176,66.0731 C60.9426,67.9231 63.0376,70.1771 65.7316,71.1901 C67.1206,71.7131 71.2026,71.7691 72.8926,71.7691 C74.9596,71.7691 79.9416,71.6871 81.5606,70.9301 C83.6626,69.9481 85.1076,68.3511 86.5046,66.8061 C86.9356,66.3301 87.3706,65.8491 87.8306,65.3811 C88.6936,64.5041 89.2386,64.3381 89.9436,64.3381 C90.0606,64.3381 90.1826,64.3441 90.3096,64.3551 C90.8316,64.3981 91.2376,64.4181 91.6236,64.4181 C93.0166,64.4181 94.1546,64.1401 95.2036,63.5421 C95.7096,63.2541 99.5916,59.9901 99.6416,57.7261 C99.6596,56.9761 99.3136,56.3231 98.6956,55.9331 C97.5396,55.2041 96.1156,54.8031 94.6846,54.8031 C93.0826,54.8031 91.5776,55.3101 90.4456,56.2321 C89.6226,56.9021 89.0366,57.6481 88.5186,58.3061 C87.5586,59.5271 87.0846,60.0661 85.9126,60.0661 C85.9126,60.0661 85.6046,60.0611 85.5006,60.0611 C82.2486,60.0611 79.2396,61.3531 76.8206,62.3931 C75.5346,62.9441 74.2046,63.5161 73.4976,63.5161 L73.4926,63.5161 C72.1716,63.3681 71.4426,62.9051 70.4336,62.2651 C69.7486,61.8301 68.9736,61.3381 67.9176,60.8831 C66.3666,60.2151 64.9076,60.1241 63.6846,60.1241 C63.3746,60.1241 63.0656,60.1301 62.7546,60.1361 C62.4606,60.1421 62.1636,60.1481 61.8666,60.1481 C61.2106,60.1481 60.7056,60.1181 60.2306,60.0521 C59.3226,59.9241 58.7346,59.2271 57.8506,58.1001 C57.0256,57.0481 56.0896,55.8561 54.5636,55.2861 C53.8226,55.0101 52.5836,54.8241 51.4816,54.8241 C47.5386,54.8241 47.1566,57.0801 47.1336,57.7701 C47.0316,60.8141 51.3086,63.7861 53.1416,64.2261" id="Fill-5" fill="#A2D39F"></path>
                    <path d="M56.0654,52.7578 C56.8184,52.9698 57.5624,53.0008 58.2174,53.0278 C58.7474,53.0498 59.2494,53.0708 59.6704,53.1828 C60.2224,53.3288 60.7904,54.0868 61.3234,54.8498 C62.6274,56.7148 64.4254,58.9878 66.7674,60.0258 C67.9634,60.5558 71.1854,60.6348 72.9984,60.6348 C75.2144,60.6348 79.1404,60.5198 80.5324,59.7538 C82.3574,58.7488 83.5934,57.1388 84.7894,55.5828 C85.1544,55.1078 85.5224,54.6278 85.9124,54.1608 C86.6514,53.2758 87.0574,53.2038 87.4754,53.2038 C87.5624,53.2038 87.6524,53.2088 87.7464,53.2178 C87.9334,53.2368 88.1264,53.2458 88.3224,53.2458 C89.7364,53.2458 91.2994,52.7638 92.5034,51.9568 C93.0724,51.5748 95.8974,48.6698 95.9454,46.6388 C95.9634,45.9048 95.6664,45.2738 95.1094,44.8598 C94.0754,44.0918 92.7934,43.6688 91.5014,43.6688 C90.0484,43.6688 88.6914,44.2038 87.6804,45.1738 C86.9724,45.8528 86.4724,46.6008 86.0314,47.2608 C85.1894,48.5238 84.8494,48.9318 84.0524,48.9318 C84.0524,48.9318 83.7954,48.9268 83.7034,48.9268 C80.8514,48.9268 78.2544,50.2398 76.1684,51.2958 C75.2094,51.7808 74.0154,52.3838 73.5584,52.3848 C72.5274,52.2498 71.9654,51.8288 71.1144,51.1918 C70.5254,50.7518 69.8574,50.2518 68.9404,49.7868 C67.5574,49.0848 66.2634,48.9898 65.1804,48.9898 C64.9154,48.9898 64.6494,48.9958 64.3824,49.0028 C64.1354,49.0078 63.8864,49.0138 63.6364,49.0138 C63.1024,49.0138 62.6934,48.9858 62.3124,48.9228 C61.6754,48.8178 61.1884,48.1468 60.4604,47.0548 C59.7504,45.9878 58.9444,44.7788 57.5854,44.1828 C56.9144,43.8878 55.8024,43.6898 54.8184,43.6898 C52.0014,43.6898 50.9534,45.2158 50.9134,46.6438 C50.8254,49.6918 54.4854,52.3108 56.0654,52.7578" id="Fill-7" fill="#A2D39F"></path>
                    <path d="M58.9487,41.2798 C59.5337,41.4808 60.1247,41.6018 60.6957,41.7178 C61.1627,41.8138 61.6037,41.9038 61.9887,42.0278 C62.3717,42.1518 62.9587,43.1738 63.2097,43.6098 C64.2897,45.4868 65.7817,47.7788 67.7597,48.8428 C68.7687,49.3868 71.2117,49.5008 73.0837,49.5008 C74.9547,49.5008 78.2777,49.3778 79.5057,48.5548 C81.0417,47.5268 82.0647,45.9078 83.0527,44.3428 C83.3527,43.8668 83.6567,43.3868 83.9757,42.9208 C84.5607,42.0708 84.8067,42.0708 84.9867,42.0708 C85.0407,42.0708 85.0967,42.0738 85.1547,42.0808 C85.2757,42.0958 85.4027,42.1028 85.5337,42.1028 C86.9217,42.1028 88.7307,41.2198 89.8007,40.3468 C90.3707,39.8818 92.1907,37.3868 92.2357,35.6008 C92.2587,34.6778 91.8597,34.1188 91.5207,33.8128 C90.6087,32.9888 89.4637,32.5348 88.2967,32.5348 C86.9847,32.5348 85.7727,33.1058 84.8857,34.1408 C84.2997,34.8238 83.8887,35.5718 83.5267,36.2328 C82.8617,37.4448 82.6027,37.7978 82.1327,37.7978 C82.1317,37.7978 81.9677,37.7928 81.8857,37.7928 C79.4177,37.7928 77.2297,39.1378 75.4727,40.2198 C74.8087,40.6288 73.9067,41.1828 73.5597,41.2468 C72.8947,41.1268 72.5097,40.7988 71.7917,40.1448 C71.2997,39.6968 70.7417,39.1898 69.9657,38.7108 C68.7447,37.9578 67.6077,37.8568 66.6567,37.8568 C66.4327,37.8568 66.2107,37.8628 65.9877,37.8688 C65.7877,37.8748 65.5877,37.8798 65.3857,37.8798 C64.9787,37.8798 64.6707,37.8548 64.3867,37.7978 C63.9737,37.7148 63.4607,36.7788 63.0497,36.0268 C62.4587,34.9478 61.7887,33.7258 60.6117,33.0958 C59.9967,32.7688 59.0257,32.5558 58.1367,32.5558 C56.0737,32.5558 54.7137,33.7178 54.6717,35.5168 C54.6057,38.3528 57.3777,40.7398 58.9487,41.2798" id="Fill-9" fill="#A2D39F"></path>
                    <path d="M61.7896,29.7832 L62.2376,29.9802 C62.9026,30.2732 63.6476,30.6002 64.2276,30.8362 C64.4916,31.0192 64.9426,32.0212 65.0916,32.3512 C65.9936,34.3502 67.1276,36.5412 68.7106,37.6292 C69.4226,38.1182 70.9196,38.3662 73.1596,38.3662 C75.0366,38.3662 77.4856,38.1852 78.4976,37.3212 C79.7266,36.2712 80.5296,34.6492 81.3056,33.0802 C81.5416,32.6042 81.7796,32.1232 82.0306,31.6562 C82.3446,31.0742 82.5156,30.9392 82.5376,30.9392 C82.5386,30.9392 82.5396,30.9392 82.5396,30.9402 C82.6436,30.9562 82.7536,30.9662 82.8706,30.9662 C84.3106,30.9662 86.3736,29.4652 87.1086,28.7002 C87.6366,28.1502 89.4636,24.5602 87.9376,22.8012 C87.1536,21.8982 86.1406,21.4002 85.0836,21.4002 C83.8966,21.4002 82.8286,22.0182 82.0756,23.1392 C81.6186,23.8202 81.2986,24.5642 81.0156,25.2212 C80.8036,25.7152 80.4466,26.5422 80.2776,26.6642 C80.2046,26.6602 80.1316,26.6582 80.0586,26.6582 C77.9486,26.6582 76.0936,28.1152 74.7386,29.1782 C74.3316,29.4972 73.7956,29.9182 73.5016,30.0782 C73.2056,29.9572 72.9506,29.6862 72.4756,29.1342 C72.0826,28.6792 71.6386,28.1642 71.0106,27.6692 C69.9436,26.8292 68.9066,26.7222 68.1216,26.7222 C67.9406,26.7222 67.7606,26.7282 67.5786,26.7352 C67.4286,26.7402 67.2786,26.7452 67.1266,26.7452 C66.8546,26.7452 66.6546,26.7252 66.5346,26.7022 C66.2766,26.5332 65.8686,25.5832 65.6246,25.0142 C65.1376,23.8792 64.6326,22.7042 63.6606,22.0412 C63.1086,21.6652 62.2386,21.4222 61.4446,21.4222 C59.6696,21.4222 58.4546,22.6142 58.4216,24.3892 C58.3736,27.0402 60.4026,29.1752 61.7896,29.7832" id="Fill-11" fill="#A2D39F"></path>
                    <path d="M64.5239,18.2427 C64.7059,18.3537 65.0049,18.5917 65.2699,18.8017 C65.6229,19.0827 65.9879,19.3727 66.3379,19.5857 C66.5369,19.8667 66.8309,20.7677 66.9309,21.0737 C67.8519,23.8947 68.6409,25.4737 69.5679,26.3537 C70.1829,26.9367 71.3989,27.2327 73.1869,27.2327 C74.6719,27.2327 76.6209,27.0227 77.4669,26.0247 C78.3629,24.9677 78.9159,23.4277 79.5009,21.7967 C79.6719,21.3177 79.8449,20.8337 80.0279,20.3637 C80.1279,20.1087 80.2079,19.9387 80.2659,19.8277 C81.6949,19.7647 83.8989,17.6907 84.3819,16.9957 C84.9639,16.1597 85.1569,13.1847 84.3139,11.8427 C83.6749,10.8257 82.7899,10.2667 81.8209,10.2667 C81.3169,10.2667 80.0569,10.4527 79.2179,12.1757 C78.8939,12.8437 78.6649,13.5777 78.4629,14.2257 C78.3349,14.6377 78.1529,15.2197 78.0029,15.5297 C76.7779,15.5997 75.7329,16.3797 74.8669,17.2167 C75.1909,15.5327 76.4289,14.2557 76.9819,12.6727 C78.2669,8.9947 77.0179,1.9997 73.8449,1.9997 C70.7299,1.9997 69.1249,9.5027 69.2899,10.8937 C69.5309,12.9367 70.5009,14.4297 71.1749,15.9977 C70.5589,15.6487 69.9749,15.5877 69.5379,15.5877 C69.3959,15.5877 69.2539,15.5947 69.1109,15.6017 C69.0139,15.6057 68.9169,15.6117 68.8169,15.6117 C68.7819,15.6117 68.7499,15.6107 68.7199,15.6087 C68.5329,15.2777 68.2929,14.5047 68.1419,14.0187 C67.7759,12.8437 67.4309,11.7327 66.7019,11.0457 C66.2119,10.5857 65.4269,10.2877 64.7029,10.2877 C63.5309,10.2877 62.1509,11.0667 62.1219,13.2627 C62.0899,15.6667 63.3449,17.5297 64.5239,18.2427" id="Fill-13" fill="#A2D39F"></path>
                    <path d="M94.0713,23.4941 L94.0713,54.0371 L122.4593,54.0371 L122.4593,61.1721 L120.8223,61.1721 L82.6113,61.1721 L82.6113,109.5621 L94.0713,109.5621 L94.0713,109.6461 L124.3503,109.6461 L124.3503,109.5621 L124.3503,106.5971 L124.3503,105.0841 L129.1743,105.0841 L129.1743,100.6561 L132.3933,100.6561 L132.3933,79.2371 C131.1153,78.5221 130.2533,77.1831 130.2533,75.6451 C130.2533,75.6151 130.2573,75.5851 130.2573,75.5551 L130.2533,75.5551 C130.2533,68.0681 136.3213,61.9981 143.8083,61.9971 L143.8093,61.9971 L143.8103,61.9971 C151.2973,61.9981 157.3663,68.0681 157.3663,75.5551 L157.3623,75.5551 C157.3623,75.5851 157.3663,75.6151 157.3663,75.6451 C157.3663,77.1211 156.5713,78.4131 155.3773,79.1471 L155.3773,100.6561 L159.1613,100.6561 L159.1613,105.0841 L163.9853,105.0841 L163.9853,106.5971 L163.9853,109.5621 L163.9853,109.6461 L168.0573,109.6461 L168.0573,23.4941 L94.0713,23.4941 Z" id="Fill-15" fill="#A1D29D"></path>
                    <path d="M143.8096,61.9976 C136.3226,61.9976 138.7786,75.7836 138.7786,75.7836 C138.8676,78.0076 141.0826,79.7896 143.8096,79.7896 C146.5366,79.7896 148.7516,78.0076 148.8406,75.7836 C148.8406,75.7836 151.2966,61.9976 143.8096,61.9976" id="Fill-17" fill="#EF5722"></path>
                    <path d="M143.8086,61.9976 C136.3216,61.9976 130.2526,68.0676 130.2526,75.5546 L130.2576,75.5546 C130.2566,75.5846 130.2526,75.6146 130.2526,75.6456 C130.2526,77.9346 132.1596,79.7896 134.5116,79.7896 C136.8396,79.7896 138.7286,77.9696 138.7666,75.7126 C138.5976,74.7026 136.6206,61.9986 143.8086,61.9976" id="Fill-19" fill="#DAA725"></path>
                    <path d="M157.3662,75.5547 C157.3662,68.0677 151.2972,61.9977 143.8102,61.9977 C150.9992,61.9987 149.0212,74.7017 148.8522,75.7127 C148.8892,77.9697 150.7792,79.7887 153.1082,79.7887 C155.4602,79.7887 157.3662,77.9337 157.3662,75.6457 C157.3662,75.6147 157.3622,75.5847 157.3622,75.5547 L157.3662,75.5547 Z" id="Fill-21" fill="#DAA725"></path>
                    <path d="M138.6973,75.2593 C138.7053,75.3163 138.7133,75.3723 138.7203,75.4213 C138.7133,75.3723 138.7053,75.3163 138.6973,75.2593" id="Fill-23" fill="#EEADCD"></path>
                    <path d="M138.6499,74.9116 C138.6629,75.0076 138.6739,75.0976 138.6859,75.1786 C138.6739,75.0976 138.6629,75.0066 138.6499,74.9116" id="Fill-25" fill="#EEADCD"></path>
                    <path d="M138.7358,75.522 C138.7408,75.551 138.7448,75.58 138.7488,75.604 C138.7448,75.58 138.7398,75.55 138.7358,75.522" id="Fill-27" fill="#EEADCD"></path>
                    <path d="M138.645,74.8745 C138.629,74.7465 138.612,74.6035 138.595,74.4525 L138.594,74.4525 C138.611,74.6045 138.628,74.7445 138.645,74.8745" id="Fill-29" fill="#EEADCD"></path>
                    <path d="M149.0244,74.4521 C149.0074,74.6021 148.9904,74.7441 148.9744,74.8711 C148.9904,74.7431 149.0074,74.6031 149.0244,74.4521 Z" id="Fill-31" fill="#EEADCD"></path>
                    <path d="M148.8711,75.5996 C148.8741,75.5796 148.8781,75.5556 148.8811,75.5326 C148.8781,75.5546 148.8741,75.5796 148.8711,75.5996" id="Fill-33" fill="#EEADCD"></path>
                    <path d="M153.1079,79.7891 C150.7789,79.7891 148.8899,77.9701 148.8529,75.7131 C148.8459,75.7551 148.8409,75.7841 148.8409,75.7841 C148.7519,78.0071 146.5359,79.7891 143.8099,79.7891 C141.0829,79.7891 138.8679,78.0071 138.7779,75.7841 C138.7779,75.7841 138.7739,75.7551 138.7669,75.7131 C138.7289,77.9701 136.8399,79.7891 134.5109,79.7891 C133.7399,79.7891 133.0179,79.5861 132.3939,79.2371 L132.3939,100.6561 L155.3769,100.6561 L155.3769,79.1471 C154.7199,79.5521 153.9429,79.7891 153.1079,79.7891" id="Fill-35" fill="#EEADCD"></path>
                    <path d="M148.9336,75.1753 C148.9436,75.1013 148.9546,75.0183 148.9666,74.9313 C148.9546,75.0173 148.9436,75.1013 148.9336,75.1753" id="Fill-37" fill="#EEADCD"></path>
                    <path d="M148.8984,75.4199 C148.9054,75.3759 148.9124,75.3239 148.9194,75.2719 C148.9124,75.3229 148.9054,75.3759 148.8984,75.4199" id="Fill-39" fill="#EEADCD"></path>
                    <polygon id="Fill-41" fill="#EF5722" points="159.1611 105.0845 159.1611 100.6565 129.1741 100.6565 129.1741 105.0845 124.3501 105.0845 124.3501 109.5625 163.9851 109.5625 163.9851 105.0845"></polygon>
                    <mask id="mask-2" fill="white">
                        <use xlink:href="#path-1"></use>
                    </mask>
                    <g id="Clip-44"></g>
                    <polygon id="Fill-43" fill="#EF5722" mask="url(#mask-2)" points="101.022 47.964 111.247 47.964 111.247 29.576 101.022 29.576"></polygon>
                    <path d="M101.778,47.208 L110.491,47.208 L110.491,30.332 L101.778,30.332 L101.778,47.208 Z M100.266,48.72 L112.003,48.72 L112.003,28.82 L100.266,28.82 L100.266,48.72 Z" id="Fill-45" fill="#000000" mask="url(#mask-2)"></path>
                    <polygon id="Fill-46" fill="#EF5722" mask="url(#mask-2)" points="117.418 47.964 127.643 47.964 127.643 29.576 117.418 29.576"></polygon>
                    <path d="M118.174,47.208 L126.887,47.208 L126.887,30.332 L118.174,30.332 L118.174,47.208 Z M116.662,48.72 L128.399,48.72 L128.399,28.82 L116.662,28.82 L116.662,48.72 Z" id="Fill-47" fill="#000000" mask="url(#mask-2)"></path>
                    <polygon id="Fill-48" fill="#EF5722" mask="url(#mask-2)" points="134.763 47.964 144.988 47.964 144.988 29.576 134.763 29.576"></polygon>
                    <path d="M135.52,47.208 L144.233,47.208 L144.233,30.332 L135.52,30.332 L135.52,47.208 Z M134.007,48.72 L145.744,48.72 L145.744,28.82 L134.007,28.82 L134.007,48.72 Z" id="Fill-49" fill="#000000" mask="url(#mask-2)"></path>
                    <polygon id="Fill-50" fill="#EF5722" mask="url(#mask-2)" points="151.159 47.964 161.384 47.964 161.384 29.576 151.159 29.576"></polygon>
                    <path d="M151.916,47.208 L160.629,47.208 L160.629,30.332 L151.916,30.332 L151.916,47.208 Z M150.404,48.72 L162.141,48.72 L162.141,28.82 L150.404,28.82 L150.404,48.72 Z" id="Fill-51" fill="#000000" mask="url(#mask-2)"></path>
                    <path d="M108.9507,95.0923 L105.9267,95.0923 L101.3907,95.0923 L101.3907,92.0683 L108.9507,92.0683 L108.9507,95.0923 Z M104.4147,99.6283 L99.8787,99.6283 L96.8547,99.6283 L96.8547,96.6043 L99.8787,96.6043 L104.4147,96.6043 L104.4147,99.6283 Z M108.9507,101.1403 L108.9507,104.1643 L101.3907,104.1643 L101.3907,101.1403 L105.9267,101.1403 L108.9507,101.1403 Z M114.2427,92.0683 L114.2427,90.5563 L110.4627,90.5563 L109.7067,90.5563 L100.6347,90.5563 L99.8787,90.5563 L96.0987,90.5563 L96.0987,92.0683 L99.8787,92.0683 L99.8787,95.0923 L96.0987,95.0923 L95.3427,95.0923 L91.5627,95.0923 L91.5627,96.6043 L95.3427,96.6043 L95.3427,99.6283 L91.5627,99.6283 L91.5627,101.1403 L95.3427,101.1403 L96.0987,101.1403 L99.8787,101.1403 L99.8787,104.1643 L96.0987,104.1643 L96.0987,105.6753 L99.8787,105.6753 L100.6347,105.6753 L109.7067,105.6753 L110.4627,105.6753 L114.2427,105.6753 L114.2427,104.1643 L110.4627,104.1643 L110.4627,101.1403 L114.2427,101.1403 L114.2427,99.6283 L110.4627,99.6283 L109.7067,99.6283 L105.9267,99.6283 L105.9267,96.6043 L109.7067,96.6043 L110.4627,96.6043 L114.2427,96.6043 L114.2427,95.0923 L110.4627,95.0923 L110.4627,92.0683 L114.2427,92.0683 Z" id="Fill-52" fill="#000000" mask="url(#mask-2)"></path>
                    <polygon id="Fill-53" fill="#DAA725" mask="url(#mask-2)" points="80.975 61.172 122.459 61.172 122.459 54.037 80.975 54.037"></polygon>
                    <polygon id="Fill-54" fill="#DAA725" mask="url(#mask-2)" points="90.83 23.494 171.298 23.494 171.298 16.359 90.83 16.359"></polygon>
                    <polygon id="Fill-55" fill="#EF5722" mask="url(#mask-2)" points="87.711 86.359 97.936 86.359 97.936 67.971 87.711 67.971"></polygon>
                    <path d="M88.466,85.604 L97.179,85.604 L97.179,68.728 L88.466,68.728 L88.466,85.604 Z M86.955,87.116 L98.691,87.116 L98.691,67.216 L86.955,67.216 L86.955,87.116 Z" id="Fill-56" fill="#000000" mask="url(#mask-2)"></path>
                    <polygon id="Fill-57" fill="#EF5722" mask="url(#mask-2)" points="105.631 86.359 115.856 86.359 115.856 67.971 105.631 67.971"></polygon>
                    <path d="M106.387,85.604 L115.1,85.604 L115.1,68.728 L106.387,68.728 L106.387,85.604 Z M104.875,87.116 L116.612,87.116 L116.612,67.216 L104.875,67.216 L104.875,87.116 Z" id="Fill-58" fill="#000000" mask="url(#mask-2)"></path>
                    <path d="M91.586,22.738 L170.542,22.738 L170.542,17.115 L91.586,17.115 L91.586,22.738 Z M167.301,108.89 L164.741,108.89 L164.741,104.329 L159.917,104.329 L159.917,99.9 L156.133,99.9 L156.133,79.547 C157.168,78.778 157.893,77.628 158.077,76.311 L158.122,76.311 L158.122,75.555 C158.122,67.663 151.701,61.242 143.81,61.242 C135.917,61.242 129.497,67.663 129.497,75.555 L129.497,75.616 C129.497,75.626 129.497,75.636 129.497,75.646 C129.497,75.684 129.497,75.722 129.498,75.76 L129.501,76.311 L129.542,76.311 C129.735,77.691 130.521,78.888 131.638,79.654 L131.638,99.9 L128.418,99.9 L128.418,104.329 L123.595,104.329 L123.595,108.89 L121.579,108.89 L121.579,61.928 L123.215,61.928 L123.215,53.281 L94.828,53.281 L94.828,24.25 L167.301,24.25 L167.301,108.89 Z M156.133,101.412 L158.405,101.412 L158.405,104.329 L129.93,104.329 L129.93,101.412 L131.638,101.412 L156.133,101.412 Z M143.129,80.508 L143.129,99.9 L133.149,99.9 L133.149,80.361 C133.583,80.48 134.04,80.545 134.511,80.545 C136.344,80.545 137.943,79.576 138.818,78.139 C139.714,79.429 141.288,80.328 143.129,80.508 Z M148.096,75.651 L148.085,75.753 C148.013,77.562 146.095,79.033 143.81,79.033 C141.525,79.033 139.607,77.562 139.534,75.753 L139.522,75.651 C139.508,75.569 138.092,67.37 140.863,64.063 C141.602,63.182 142.565,62.754 143.81,62.754 C145.054,62.754 146.017,63.182 146.756,64.063 C149.527,67.37 148.11,75.569 148.096,75.651 Z M154.621,80.312 L154.621,99.9 L144.641,99.9 L144.641,80.49 C146.417,80.276 147.93,79.393 148.802,78.139 C149.675,79.577 151.275,80.545 153.107,80.545 C153.635,80.545 154.143,80.46 154.621,80.312 Z M153.107,79.033 C151.214,79.033 149.671,77.572 149.611,75.759 C149.806,74.568 150.848,67.344 148.269,63.566 C152.951,65.313 156.35,69.719 156.596,74.944 L156.61,75.646 C156.61,77.514 155.039,79.033 153.107,79.033 Z M131.031,74.799 C131.333,69.637 134.711,65.296 139.351,63.565 C136.769,67.347 137.815,74.58 138.008,75.762 C137.944,77.576 136.402,79.033 134.511,79.033 C132.58,79.033 131.009,77.514 131.009,75.65 L131.033,74.799 L131.031,74.799 Z M125.106,108.806 L163.229,108.806 L163.229,105.841 L125.106,105.841 L125.106,108.806 Z M83.367,108.805 L120.067,108.805 L120.067,61.928 L83.367,61.928 L83.367,108.805 Z M81.731,60.416 L121.703,60.416 L121.703,54.793 L81.731,54.793 L81.731,60.416 Z M90.074,15.603 L90.074,24.25 L93.315,24.25 L93.315,53.281 L80.219,53.281 L80.219,61.928 L81.855,61.928 L81.855,110.318 L93.315,110.318 L93.315,110.402 L168.813,110.402 L168.813,24.25 L172.054,24.25 L172.054,15.603 L90.074,15.603 Z" id="Fill-59" fill="#000000" mask="url(#mask-2)"></path>
                    <polygon id="Fill-60" fill="#DAA725" mask="url(#mask-2)" points="238.428 109.62 309.623 109.62 309.623 49.145 238.428 49.145"></polygon>
                    <polygon id="Fill-61" fill="#DAA725" mask="url(#mask-2)" points="238.428 44.453 309.623 44.453 309.623 20.383 238.428 20.383"></polygon>
                    <polygon id="Fill-62" fill="#EF5722" mask="url(#mask-2)" points="272.843 109.619 309.623 109.619 309.623 105.182 272.843 105.182"></polygon>
                    <polygon id="Fill-63" fill="#EF5722" mask="url(#mask-2)" points="305.4375 100.6641 302.4675 100.6641 302.4675 72.0231 279.9985 72.0231 279.9985 100.6641 277.0285 100.6641 277.0285 105.1011 305.4375 105.1011"></polygon>
                    <polygon id="Fill-64" fill="#EEADCD" mask="url(#mask-2)" points="283.159 100.664 299.307 100.664 299.307 75.376 283.159 75.376"></polygon>
                    <polygon id="Fill-65" fill="#A1D29D" mask="url(#mask-2)" points="243.899 38.556 256.159 38.556 256.159 26.296 243.899 26.296"></polygon>
                    <path d="M244.642,37.813 L255.417,37.813 L255.417,27.038 L244.642,27.038 L244.642,37.813 Z M243.157,39.298 L256.901,39.298 L256.901,25.553 L243.157,25.553 L243.157,39.298 Z" id="Fill-66" fill="#000000" mask="url(#mask-2)"></path>
                    <polygon id="Fill-67" fill="#A1D29D" mask="url(#mask-2)" points="260.325 38.556 272.585 38.556 272.585 26.296 260.325 26.296"></polygon>
                    <path d="M261.067,37.813 L271.842,37.813 L271.842,27.038 L261.067,27.038 L261.067,37.813 Z M259.583,39.298 L273.327,39.298 L273.327,25.553 L259.583,25.553 L259.583,39.298 Z" id="Fill-68" fill="#000000" mask="url(#mask-2)"></path>
                    <polygon id="Fill-69" fill="#A1D29D" mask="url(#mask-2)" points="276.751 38.556 289.011 38.556 289.011 26.296 276.751 26.296"></polygon>
                    <path d="M277.493,37.813 L288.268,37.813 L288.268,27.038 L277.493,27.038 L277.493,37.813 Z M276.009,39.298 L289.753,39.298 L289.753,25.553 L276.009,25.553 L276.009,39.298 Z" id="Fill-70" fill="#000000" mask="url(#mask-2)"></path>
                    <polygon id="Fill-71" fill="#A1D29D" mask="url(#mask-2)" points="293.177 38.556 305.437 38.556 305.437 26.296 293.177 26.296"></polygon>
                    <path d="M293.919,37.813 L304.695,37.813 L304.695,27.038 L293.919,27.038 L293.919,37.813 Z M292.435,39.298 L306.18,39.298 L306.18,25.553 L292.435,25.553 L292.435,39.298 Z" id="Fill-72" fill="#000000" mask="url(#mask-2)"></path>
                    <polygon id="Fill-73" fill="#A1D29D" mask="url(#mask-2)" points="243.899 67.116 256.159 67.116 256.159 54.856 243.899 54.856"></polygon>
                    <path d="M244.642,66.374 L255.417,66.374 L255.417,55.598 L244.642,55.598 L244.642,66.374 Z M243.157,67.858 L256.901,67.858 L256.901,54.113 L243.157,54.113 L243.157,67.858 Z" id="Fill-74" fill="#000000" mask="url(#mask-2)"></path>
                    <polygon id="Fill-75" fill="#A1D29D" mask="url(#mask-2)" points="260.325 67.116 272.585 67.116 272.585 54.856 260.325 54.856"></polygon>
                    <path d="M261.067,66.374 L271.842,66.374 L271.842,55.598 L261.067,55.598 L261.067,66.374 Z M259.583,67.858 L273.327,67.858 L273.327,54.113 L259.583,54.113 L259.583,67.858 Z" id="Fill-76" fill="#000000" mask="url(#mask-2)"></path>
                    <polygon id="Fill-77" fill="#A1D29D" mask="url(#mask-2)" points="243.899 84.283 256.159 84.283 256.159 72.023 243.899 72.023"></polygon>
                    <path d="M244.642,83.541 L255.417,83.541 L255.417,72.765 L244.642,72.765 L244.642,83.541 Z M243.157,85.025 L256.901,85.025 L256.901,71.28 L243.157,71.28 L243.157,85.025 Z" id="Fill-78" fill="#000000" mask="url(#mask-2)"></path>
                    <polygon id="Fill-79" fill="#A1D29D" mask="url(#mask-2)" points="260.325 84.283 272.585 84.283 272.585 72.023 260.325 72.023"></polygon>
                    <path d="M261.067,83.541 L271.842,83.541 L271.842,72.765 L261.067,72.765 L261.067,83.541 Z M259.583,85.025 L273.327,85.025 L273.327,71.28 L259.583,71.28 L259.583,85.025 Z" id="Fill-80" fill="#000000" mask="url(#mask-2)"></path>
                    <polygon id="Fill-81" fill="#A1D29D" mask="url(#mask-2)" points="276.751 67.116 289.011 67.116 289.011 54.856 276.751 54.856"></polygon>
                    <path d="M277.493,66.374 L288.268,66.374 L288.268,55.598 L277.493,55.598 L277.493,66.374 Z M276.009,67.858 L289.753,67.858 L289.753,54.113 L276.009,54.113 L276.009,67.858 Z" id="Fill-82" fill="#000000" mask="url(#mask-2)"></path>
                    <polygon id="Fill-83" fill="#A1D29D" mask="url(#mask-2)" points="293.177 67.116 305.437 67.116 305.437 54.856 293.177 54.856"></polygon>
                    <path d="M293.919,66.374 L304.695,66.374 L304.695,55.598 L293.919,55.598 L293.919,66.374 Z M292.435,67.858 L306.18,67.858 L306.18,54.113 L292.435,54.113 L292.435,67.858 Z" id="Fill-84" fill="#000000" mask="url(#mask-2)"></path>
                    <polygon id="Fill-85" fill="#EEADCD" mask="url(#mask-2)" points="235.151 49.145 312.258 49.145 312.258 44.454 235.151 44.454"></polygon>
                    <polygon id="Fill-86" fill="#EEADCD" mask="url(#mask-2)" points="235.151 20.383 312.258 20.383 312.258 15.692 235.151 15.692"></polygon>
                    <path d="M235.894,19.641 L311.516,19.641 L311.516,16.435 L235.894,16.435 L235.894,19.641 Z M239.196,43.686 L308.854,43.686 L308.854,21.151 L239.196,21.151 L239.196,43.686 Z M235.894,48.402 L311.516,48.402 L311.516,45.196 L235.894,45.196 L235.894,48.402 Z M273.611,108.836 L308.84,108.836 L308.84,105.952 L273.611,105.952 L273.611,108.836 Z M277.704,104.414 L304.762,104.414 L304.762,101.34 L277.704,101.34 L277.704,104.414 Z M283.9,99.922 L298.564,99.922 L298.564,76.118 L283.9,76.118 L283.9,99.922 Z M301.762,99.958 L300.049,99.958 L300.049,74.634 L282.416,74.634 L282.416,99.958 L280.704,99.958 L280.704,72.729 L301.762,72.729 L301.762,99.958 Z M239.211,49.928 L308.84,49.928 L308.84,104.414 L306.112,104.414 L306.112,99.989 L303.175,99.989 L303.175,71.316 L279.291,71.316 L279.291,99.989 L276.353,99.989 L276.353,104.414 L272.073,104.414 L272.073,108.836 L239.211,108.836 L239.211,49.928 Z M313,21.125 L313,14.95 L234.408,14.95 L234.408,21.125 L237.66,21.125 L237.66,43.711 L234.408,43.711 L234.408,49.887 L237.646,49.887 L237.646,110.402 L310.405,110.402 L310.405,49.887 L313,49.887 L313,43.711 L310.391,43.711 L310.391,21.125 L313,21.125 Z" id="Fill-87" fill="#000000" mask="url(#mask-2)"></path>
                    <path d="M262.5596,94.3188 L259.5666,94.3188 L255.0886,94.3188 L255.0886,91.3258 L262.5596,91.3258 L262.5596,94.3188 Z M258.0816,98.7968 L253.6046,98.7968 L250.6116,98.7968 L250.6116,95.8038 L253.6046,95.8038 L258.0816,95.8038 L258.0816,98.7968 Z M262.5596,100.2808 L262.5596,103.2738 L255.0886,103.2738 L255.0886,100.2808 L259.5666,100.2808 L262.5596,100.2808 Z M267.7796,91.3258 L267.7796,89.8418 L264.0436,89.8418 L263.3016,89.8418 L254.3466,89.8418 L253.6046,89.8418 L249.8696,89.8418 L249.8696,91.3258 L253.6046,91.3258 L253.6046,94.3188 L249.8696,94.3188 L249.1266,94.3188 L245.3916,94.3188 L245.3916,95.8038 L249.1266,95.8038 L249.1266,98.7968 L245.3916,98.7968 L245.3916,100.2808 L249.1266,100.2808 L249.8696,100.2808 L253.6046,100.2808 L253.6046,103.2738 L249.8696,103.2738 L249.8696,104.7588 L253.6046,104.7588 L254.3466,104.7588 L263.3016,104.7588 L264.0436,104.7588 L267.7796,104.7588 L267.7796,103.2738 L264.0436,103.2738 L264.0436,100.2808 L267.7796,100.2808 L267.7796,98.7968 L264.0436,98.7968 L263.3016,98.7968 L259.5666,98.7968 L259.5666,95.8038 L263.3016,95.8038 L264.0436,95.8038 L267.7796,95.8038 L267.7796,94.3188 L264.0436,94.3188 L264.0436,91.3258 L267.7796,91.3258 Z" id="Fill-88" fill="#000000" mask="url(#mask-2)"></path>
                    <polygon id="Fill-89" fill="#EEADCD" mask="url(#mask-2)" points="43.3921 43.3599 43.3921 34.3159 12.3651 34.3159 12.3651 109.5679 43.3921 109.5679 43.3921 105.1359 47.8251 105.1359 47.8251 100.7029 52.2571 100.7029 52.2571 69.6759 74.4191 69.6759 74.4191 100.7029 78.8511 100.7029 78.8511 105.1359 83.2841 105.1359 83.2841 43.3599"></polygon>
                    <polygon id="Fill-90" fill="#DAA725" mask="url(#mask-2)" points="87.7163 43.1807 65.5543 21.0187 32.8643 21.0187 27.8783 16.5867 7.9323 34.3157 36.3003 34.3157 43.3923 34.3157 43.3923 43.1807"></polygon>
                    <polygon id="Fill-91" fill="#A1D29D" mask="url(#mask-2)" points="16.797 91.838 38.959 91.838 38.959 87.406 16.797 87.406"></polygon>
                    <polygon id="Fill-92" fill="#A1D29D" mask="url(#mask-2)" points="16.797 60.911 38.959 60.911 38.959 56.478 16.797 56.478"></polygon>
                    <polygon id="Fill-93" fill="#EF5722" mask="url(#mask-2)" points="21.23 87.406 34.527 87.406 34.527 74.109 21.23 74.109"></polygon>
                    <path d="M38.2246,91.1035 L17.5326,91.1035 L17.5326,88.1405 L20.4956,88.1405 L35.2616,88.1405 L38.2246,88.1405 L38.2246,91.1035 Z M21.9646,86.6705 L33.7926,86.6705 L33.7926,74.8435 L21.9646,74.8435 L21.9646,86.6705 Z M35.2616,86.6705 L35.2616,73.3745 L20.4956,73.3745 L20.4956,86.6705 L16.0626,86.6705 L16.0626,92.5735 L39.6946,92.5735 L39.6946,86.6705 L35.2616,86.6705 Z" id="Fill-94" fill="#000000" mask="url(#mask-2)"></path>
                    <polygon id="Fill-95" fill="#DAA725" mask="url(#mask-2)" points="52.257 100.703 74.419 100.703 74.419 69.676 52.257 69.676"></polygon>
                    <path d="M52.992,99.969 L73.684,99.969 L73.684,70.411 L52.992,70.411 L52.992,99.969 Z M51.522,101.438 L75.154,101.438 L75.154,68.941 L51.522,68.941 L51.522,101.438 Z" id="Fill-96" fill="#000000" mask="url(#mask-2)"></path>
                    <polygon id="Fill-97" fill="#EF5722" mask="url(#mask-2)" points="21.23 56.478 34.527 56.478 34.527 43.181 21.23 43.181"></polygon>
                    <path d="M38.2246,60.1758 L17.5326,60.1758 L17.5326,57.2128 L20.4956,57.2128 L35.2616,57.2128 L38.2246,57.2128 L38.2246,60.1758 Z M21.9646,55.7438 L33.7926,55.7438 L33.7926,43.9158 L21.9646,43.9158 L21.9646,55.7438 Z M35.2616,55.7428 L35.2616,42.4458 L20.4956,42.4458 L20.4956,55.7428 L16.0626,55.7428 L16.0626,61.6458 L39.6946,61.6458 L39.6946,55.7428 L35.2616,55.7428 Z" id="Fill-98" fill="#000000" mask="url(#mask-2)"></path>
                    <path d="M69.9868,89.6221 C69.9868,90.8461 68.9938,91.8381 67.7708,91.8381 C66.5468,91.8381 65.5538,90.8461 65.5538,89.6221 C65.5538,88.3981 66.5468,87.4061 67.7708,87.4061 C68.9938,87.4061 69.9868,88.3981 69.9868,89.6221" id="Fill-99" fill="#A1D29D" mask="url(#mask-2)"></path>
                    <path d="M67.7705,88.1406 C66.9535,88.1406 66.2885,88.8056 66.2885,89.6216 C66.2885,90.4386 66.9535,91.1036 67.7705,91.1036 C68.5865,91.1036 69.2515,90.4386 69.2515,89.6216 C69.2515,88.8056 68.5865,88.1406 67.7705,88.1406 M67.7705,92.5736 C66.1435,92.5736 64.8195,91.2496 64.8195,89.6216 C64.8195,87.9946 66.1435,86.6706 67.7705,86.6706 C69.3975,86.6706 70.7215,87.9946 70.7215,89.6216 C70.7215,91.2496 69.3975,92.5736 67.7705,92.5736" id="Fill-100" fill="#000000" mask="url(#mask-2)"></path>
                    <path d="M73.6841,51.3105 L70.7211,51.3105 L66.2881,51.3105 L66.2881,48.3485 L73.6841,48.3485 L73.6841,51.3105 Z M69.2511,55.7435 L64.8191,55.7435 L61.8571,55.7435 L61.8571,52.7805 L64.8191,52.7805 L69.2511,52.7805 L69.2511,55.7435 Z M73.6841,57.2125 L73.6841,60.1755 L66.2881,60.1755 L66.2881,57.2125 L70.7211,57.2125 L73.6841,57.2125 Z M78.8511,48.3485 L78.8511,46.8785 L75.1541,46.8785 L74.4191,46.8785 L65.5541,46.8785 L64.8191,46.8785 L61.1221,46.8785 L61.1221,48.3485 L64.8191,48.3485 L64.8191,51.3105 L61.1221,51.3105 L60.3871,51.3105 L56.6891,51.3105 L56.6891,52.7805 L60.3871,52.7805 L60.3871,55.7435 L56.6891,55.7435 L56.6891,57.2125 L60.3871,57.2125 L61.1221,57.2125 L64.8191,57.2125 L64.8191,60.1755 L61.1221,60.1755 L61.1221,61.6455 L64.8191,61.6455 L65.5541,61.6455 L74.4191,61.6455 L75.1541,61.6455 L78.8511,61.6455 L78.8511,60.1755 L75.1541,60.1755 L75.1541,57.2125 L78.8511,57.2125 L78.8511,55.7435 L75.1541,55.7435 L74.4191,55.7435 L70.7211,55.7435 L70.7211,52.7805 L74.4191,52.7805 L75.1541,52.7805 L78.8511,52.7805 L78.8511,51.3105 L75.1541,51.3105 L75.1541,48.3485 L78.8511,48.3485 Z" id="Fill-101" fill="#000000" mask="url(#mask-2)"></path>
                    <polygon id="Fill-102" fill="#A1D29D" mask="url(#mask-2)" points="78.8516 105.1357 78.8516 100.7027 47.8246 100.7027 47.8246 105.1357 43.3926 105.1357 43.3926 109.5687 83.2836 109.5687 83.2836 105.1357"></polygon>
                    <polygon id="Fill-103" fill="#EF5722" mask="url(#mask-2)" points="56.69 82.974 69.987 82.974 69.987 74.109 56.69 74.109"></polygon>
                    <path d="M57.424,82.239 L69.251,82.239 L69.251,74.844 L57.424,74.844 L57.424,82.239 Z M55.954,83.708 L70.721,83.708 L70.721,73.374 L55.954,73.374 L55.954,83.708 Z" id="Fill-104" fill="#000000" mask="url(#mask-2)"></path>
                    <path d="M44.127,42.4458 L44.127,35.0508 L49.757,35.0508 L34.798,21.7538 L65.25,21.7538 L85.942,42.4458 L44.127,42.4458 Z M82.549,104.4008 L79.586,104.4008 L79.586,99.9688 L47.089,99.9688 L47.089,104.4008 L44.127,104.4008 L44.127,44.0948 L82.549,44.0948 L82.549,104.4008 Z M48.559,104.4008 L78.117,104.4008 L78.117,101.4378 L48.559,101.4378 L48.559,104.4008 Z M82.549,108.8338 L44.127,108.8338 L44.127,105.8708 L47.089,105.8708 L79.586,105.8708 L82.549,105.8708 L82.549,108.8338 Z M42.657,42.6248 L42.657,104.4008 L42.657,108.8338 L13.1,108.8338 L13.1,35.0508 L42.657,35.0508 L42.657,42.6248 Z M9.866,33.5808 L27.878,17.5698 L45.892,33.5808 L9.866,33.5808 Z M65.858,20.2838 L33.145,20.2838 L27.878,15.6028 L6,35.0508 L11.63,35.0508 L11.63,110.3028 L84.019,110.4018 L84.019,110.3028 L84.019,43.9158 L89.49,43.9158 L65.858,20.2838 Z" id="Fill-105" fill="#000000" mask="url(#mask-2)"></path>
                    <polygon id="Fill-106" fill="#000000" mask="url(#mask-2)" points="238.0967 103 236.3887 103 236.3917 18.454 238.0997 18.454"></polygon>
                    <path d="M234.9502,25.0327 C235.6452,25.0327 236.2262,24.8787 236.6952,24.7137 C236.8722,24.7567 237.0542,24.7847 237.2442,24.7847 C237.4342,24.7847 237.6172,24.7567 237.7942,24.7137 C238.2632,24.8787 238.8442,25.0327 239.5392,25.0327 C243.7132,25.0327 247.1082,21.6367 247.1082,17.4627 C247.1082,15.8157 245.7732,14.4807 244.1272,14.4807 C242.4802,14.4807 241.1452,15.8157 241.1452,17.4627 C241.1452,18.2967 240.5062,18.9847 239.6922,19.0617 C239.6602,19.0497 239.6252,19.0347 239.5902,19.0207 L239.5902,10.4007 C239.5902,9.1057 238.5402,8.0557 237.2442,8.0557 C235.9492,8.0557 234.8992,9.1057 234.8992,10.4007 L234.8992,19.0207 C234.8642,19.0347 234.8292,19.0497 234.7972,19.0617 C233.9832,18.9847 233.3452,18.2967 233.3452,17.4627 C233.3452,15.8157 232.0092,14.4807 230.3622,14.4807 C228.7162,14.4807 227.3812,15.8157 227.3812,17.4627 C227.3812,21.6367 230.7762,25.0327 234.9502,25.0327" id="Fill-107" fill="#F05822" mask="url(#mask-2)"></path>
                    <path d="M233.958,36.0688 C235.16,36.0688 236.108,35.6758 236.801,35.3898 C236.941,35.3308 237.12,35.2568 237.245,35.2128 C237.369,35.2568 237.548,35.3308 237.689,35.3898 C238.381,35.6758 239.329,36.0688 240.531,36.0688 C245.228,36.0688 249.239,32.5828 249.863,27.9598 C250.084,26.3278 248.939,24.8268 247.308,24.6068 C245.675,24.3858 244.174,25.5298 243.953,27.1628 C243.729,28.8278 242.276,30.0868 240.568,30.1048 C240.449,30.0778 240.175,29.9648 239.971,29.8798 C239.303,29.6028 238.387,29.2238 237.245,29.2238 C236.103,29.2238 235.187,29.6028 234.519,29.8798 C234.314,29.9648 234.04,30.0778 233.921,30.1048 C232.213,30.0868 230.761,28.8278 230.536,27.1628 C230.315,25.5298 228.815,24.3858 227.183,24.6068 C225.551,24.8268 224.406,26.3278 224.626,27.9598 C225.25,32.5828 229.262,36.0688 233.958,36.0688" id="Fill-108" fill="#F05822" mask="url(#mask-2)"></path>
                    <path d="M232.9658,47.1045 C234.3528,47.1045 235.4898,46.6335 236.3208,46.2895 C236.6298,46.1615 237.0958,45.9685 237.2368,45.9575 C237.3948,45.9685 237.8598,46.1615 238.1678,46.2895 C238.9988,46.6335 240.1368,47.1045 241.5238,47.1045 C246.7808,47.1045 251.4388,43.4105 252.5968,38.3215 C252.9628,36.7155 251.9568,35.1175 250.3518,34.7515 C248.7458,34.3875 247.1478,35.3925 246.7818,36.9975 C246.2358,39.3985 244.0248,41.1415 241.5238,41.1415 C241.3228,41.1415 240.8388,40.9405 240.4488,40.7795 C239.6048,40.4295 238.5528,39.9935 237.2448,39.9935 C235.9378,39.9935 234.8848,40.4295 234.0398,40.7795 C233.6508,40.9405 233.1658,41.1415 232.9658,41.1415 C230.4648,41.1415 228.2538,39.3985 227.7068,36.9975 C227.3418,35.3925 225.7428,34.3865 224.1378,34.7515 C222.5318,35.1175 221.5278,36.7155 221.8928,38.3215 C223.0508,43.4105 227.7078,47.1045 232.9658,47.1045" id="Fill-109" fill="#F05822" mask="url(#mask-2)"></path>
                    <path d="M231.9736,58.1406 C233.5436,58.1406 234.8186,57.6126 235.8426,57.1886 C236.3656,56.9726 236.9566,56.7266 237.2446,56.7266 C237.5326,56.7266 238.1236,56.9726 238.6466,57.1886 C239.6706,57.6126 240.9456,58.1406 242.5156,58.1406 C248.4036,58.1406 253.6726,54.2186 255.3306,48.6016 C255.7966,47.0226 254.8946,45.3646 253.3156,44.8976 C251.7356,44.4316 250.0776,45.3346 249.6116,46.9136 C248.6966,50.0126 245.7786,52.1776 242.5156,52.1776 C242.1316,52.1776 241.5466,51.9346 240.9286,51.6796 C239.9436,51.2706 238.7176,50.7636 237.2446,50.7636 C235.7716,50.7636 234.5456,51.2706 233.5606,51.6796 C232.9426,51.9346 232.3576,52.1776 231.9736,52.1776 C228.7106,52.1776 225.7926,50.0126 224.8776,46.9136 C224.4116,45.3336 222.7526,44.4316 221.1736,44.8976 C219.5946,45.3646 218.6926,47.0226 219.1586,48.6016 C220.8166,54.2186 226.0856,58.1406 231.9736,58.1406" id="Fill-110" fill="#F05822" mask="url(#mask-2)"></path>
                    <path d="M230.9814,69.1768 C232.7354,69.1768 234.1934,68.5728 235.3644,68.0878 C236.0984,67.7838 236.7924,67.4968 237.2454,67.4968 C237.6974,67.4968 238.3914,67.7838 239.1254,68.0878 C240.2954,68.5728 241.7534,69.1768 243.5074,69.1768 C250.0734,69.1768 255.9254,65.0198 258.0704,58.8328 C258.6094,57.2768 257.7854,55.5778 256.2284,55.0388 C254.6724,54.4988 252.9744,55.3228 252.4354,56.8798 C251.1224,60.6678 247.5354,63.2138 243.5074,63.2138 C242.9404,63.2138 242.2294,62.9188 241.4074,62.5778 C240.2834,62.1128 238.8834,61.5328 237.2454,61.5328 C235.6054,61.5328 234.2064,62.1128 233.0824,62.5778 C232.2594,62.9188 231.5494,63.2138 230.9814,63.2138 C226.9554,63.2138 223.3674,60.6678 222.0534,56.8798 C221.5144,55.3228 219.8164,54.4988 218.2604,55.0388 C216.7044,55.5778 215.8794,57.2768 216.4194,58.8328 C218.5644,65.0198 224.4164,69.1768 230.9814,69.1768" id="Fill-111" fill="#F05822" mask="url(#mask-2)"></path>
                    <path d="M259.1104,65.1733 C257.5754,64.5793 255.8474,65.3423 255.2534,66.8783 C253.5474,71.2863 249.2254,74.2493 244.5004,74.2493 C243.7484,74.2493 242.8854,73.8913 241.8854,73.4773 C240.5564,72.9263 239.0494,72.3023 237.2454,72.3023 C235.4394,72.3023 233.9324,72.9263 232.6034,73.4773 C231.6044,73.8913 230.7414,74.2493 229.9894,74.2493 C225.2634,74.2493 220.9424,71.2863 219.2364,66.8783 C218.6414,65.3423 216.9154,64.5783 215.3794,65.1733 C213.8434,65.7673 213.0804,67.4943 213.6744,69.0303 C216.2634,75.7183 222.8204,80.2123 229.9894,80.2123 C231.9274,80.2123 233.5674,79.5333 234.8854,78.9863 C235.7804,78.6163 236.6264,78.2663 237.2454,78.2663 C237.8634,78.2663 238.7094,78.6163 239.6034,78.9863 C240.9224,79.5333 242.5624,80.2123 244.5004,80.2123 C251.6704,80.2123 258.2254,75.7183 260.8144,69.0303 C261.4094,67.4943 260.6464,65.7673 259.1104,65.1733" id="Fill-112" fill="#F05822" mask="url(#mask-2)"></path>
                    <polygon id="Fill-113" fill="#EF5722" mask="url(#mask-2)" points="199.2637 43.3599 199.2637 34.3159 168.2367 34.3159 168.2367 109.5679 199.2637 109.5679 199.2637 105.1359 203.6967 105.1359 203.6967 100.7029 208.1277 100.7029 208.1277 69.6759 230.2897 69.6759 230.2897 100.7029 234.7227 100.7029 234.7227 105.1359 239.1557 105.1359 239.1557 43.3599"></polygon>
                    <polygon id="Fill-114" fill="#EEADCD" mask="url(#mask-2)" points="243.5879 43.1807 221.4259 21.0187 188.7359 21.0187 183.7499 16.5867 163.8039 34.3157 192.1719 34.3157 199.2639 34.3157 199.2639 43.1807"></polygon>
                    <polygon id="Fill-115" fill="#DAA725" mask="url(#mask-2)" points="172.669 91.838 194.831 91.838 194.831 87.406 172.669 87.406"></polygon>
                    <polygon id="Fill-116" fill="#DAA725" mask="url(#mask-2)" points="172.669 60.911 194.831 60.911 194.831 56.478 172.669 56.478"></polygon>
                    <polygon id="Fill-117" fill="#A1D29D" mask="url(#mask-2)" points="177.101 87.406 190.398 87.406 190.398 74.109 177.101 74.109"></polygon>
                    <path d="M194.0967,91.1035 L173.4037,91.1035 L173.4037,88.1405 L176.3667,88.1405 L191.1337,88.1405 L194.0967,88.1405 L194.0967,91.1035 Z M177.8357,86.6705 L189.6637,86.6705 L189.6637,74.8435 L177.8357,74.8435 L177.8357,86.6705 Z M191.1337,86.6705 L191.1337,73.3745 L176.3667,73.3745 L176.3667,86.6705 L171.9337,86.6705 L171.9337,92.5735 L195.5667,92.5735 L195.5667,86.6705 L191.1337,86.6705 Z" id="Fill-118" fill="#000000" mask="url(#mask-2)"></path>
                    <polygon id="Fill-119" fill="#EEADCD" mask="url(#mask-2)" points="208.128 100.703 230.29 100.703 230.29 69.676 208.128 69.676"></polygon>
                    <path d="M208.863,99.969 L229.555,99.969 L229.555,70.411 L208.863,70.411 L208.863,99.969 Z M207.393,101.438 L231.025,101.438 L231.025,68.941 L207.393,68.941 L207.393,101.438 Z" id="Fill-120" fill="#000000" mask="url(#mask-2)"></path>
                    <polygon id="Fill-121" fill="#A1D29D" mask="url(#mask-2)" points="177.101 56.478 190.398 56.478 190.398 43.181 177.101 43.181"></polygon>
                    <path d="M194.0967,60.1758 L173.4037,60.1758 L173.4037,57.2128 L176.3667,57.2128 L191.1337,57.2128 L194.0967,57.2128 L194.0967,60.1758 Z M177.8357,55.7438 L189.6637,55.7438 L189.6637,43.9158 L177.8357,43.9158 L177.8357,55.7438 Z M191.1337,55.7428 L191.1337,42.4458 L176.3667,42.4458 L176.3667,55.7428 L171.9337,55.7428 L171.9337,61.6458 L195.5667,61.6458 L195.5667,55.7428 L191.1337,55.7428 Z" id="Fill-122" fill="#000000" mask="url(#mask-2)"></path>
                    <path d="M225.8584,89.6221 C225.8584,90.8461 224.8664,91.8381 223.6414,91.8381 C222.4184,91.8381 221.4254,90.8461 221.4254,89.6221 C221.4254,88.3981 222.4184,87.4061 223.6414,87.4061 C224.8664,87.4061 225.8584,88.3981 225.8584,89.6221" id="Fill-123" fill="#DAA725" mask="url(#mask-2)"></path>
                    <path d="M223.6416,88.1406 C222.8256,88.1406 222.1606,88.8056 222.1606,89.6216 C222.1606,90.4386 222.8256,91.1036 223.6416,91.1036 C224.4586,91.1036 225.1226,90.4386 225.1226,89.6216 C225.1226,88.8056 224.4586,88.1406 223.6416,88.1406 M223.6416,92.5736 C222.0146,92.5736 220.6906,91.2496 220.6906,89.6216 C220.6906,87.9946 222.0146,86.6706 223.6416,86.6706 C225.2686,86.6706 226.5926,87.9946 226.5926,89.6216 C226.5926,91.2496 225.2686,92.5736 223.6416,92.5736" id="Fill-124" fill="#000000" mask="url(#mask-2)"></path>
                    <path d="M229.5557,51.3105 L226.5927,51.3105 L222.1597,51.3105 L222.1597,48.3485 L229.5557,48.3485 L229.5557,51.3105 Z M225.1227,55.7435 L220.6907,55.7435 L217.7287,55.7435 L217.7287,52.7805 L220.6907,52.7805 L225.1227,52.7805 L225.1227,55.7435 Z M229.5557,57.2125 L229.5557,60.1755 L222.1597,60.1755 L222.1597,57.2125 L226.5927,57.2125 L229.5557,57.2125 Z M234.7227,48.3485 L234.7227,46.8785 L231.0257,46.8785 L230.2897,46.8785 L221.4257,46.8785 L220.6907,46.8785 L216.9927,46.8785 L216.9927,48.3485 L220.6907,48.3485 L220.6907,51.3105 L216.9927,51.3105 L216.2587,51.3105 L212.5607,51.3105 L212.5607,52.7805 L216.2587,52.7805 L216.2587,55.7435 L212.5607,55.7435 L212.5607,57.2125 L216.2587,57.2125 L216.9927,57.2125 L220.6907,57.2125 L220.6907,60.1755 L216.9927,60.1755 L216.9927,61.6455 L220.6907,61.6455 L221.4257,61.6455 L230.2897,61.6455 L231.0257,61.6455 L234.7227,61.6455 L234.7227,60.1755 L231.0257,60.1755 L231.0257,57.2125 L234.7227,57.2125 L234.7227,55.7435 L231.0257,55.7435 L230.2897,55.7435 L226.5927,55.7435 L226.5927,52.7805 L230.2897,52.7805 L231.0257,52.7805 L234.7227,52.7805 L234.7227,51.3105 L231.0257,51.3105 L231.0257,48.3485 L234.7227,48.3485 Z" id="Fill-125" fill="#000000" mask="url(#mask-2)"></path>
                    <polygon id="Fill-126" fill="#DAA725" mask="url(#mask-2)" points="234.7227 105.1357 234.7227 100.7027 203.6967 100.7027 203.6967 105.1357 199.2637 105.1357 199.2637 109.5687 239.1557 109.5687 239.1557 105.1357"></polygon>
                    <polygon id="Fill-127" fill="#A1D29D" mask="url(#mask-2)" points="212.56 82.974 225.858 82.974 225.858 74.109 212.56 74.109"></polygon>
                    <path d="M213.296,82.239 L225.123,82.239 L225.123,74.844 L213.296,74.844 L213.296,82.239 Z M211.826,83.708 L226.593,83.708 L226.593,73.374 L211.826,73.374 L211.826,83.708 Z" id="Fill-128" fill="#000000" mask="url(#mask-2)"></path>
                    <path d="M199.998,42.4458 L199.998,35.0508 L205.629,35.0508 L190.669,21.7538 L221.121,21.7538 L241.813,42.4458 L199.998,42.4458 Z M238.421,104.4008 L235.458,104.4008 L235.458,99.9688 L202.961,99.9688 L202.961,104.4008 L199.998,104.4008 L199.998,44.0948 L238.421,44.0948 L238.421,104.4008 Z M204.43,104.4008 L233.988,104.4008 L233.988,101.4378 L204.43,101.4378 L204.43,104.4008 Z M238.421,108.8338 L199.998,108.8338 L199.998,105.8708 L202.961,105.8708 L235.458,105.8708 L238.421,105.8708 L238.421,108.8338 Z M198.528,42.6248 L198.528,104.4008 L198.528,108.8338 L168.971,108.8338 L168.971,35.0508 L198.528,35.0508 L198.528,42.6248 Z M165.737,33.5808 L183.75,17.5698 L201.763,33.5808 L165.737,33.5808 Z M221.729,20.2838 L189.016,20.2838 L183.75,15.6028 L161.871,35.0508 L167.502,35.0508 L167.502,110.3028 L239.891,110.4018 L239.891,110.3028 L239.891,43.9158 L245.361,43.9158 L221.729,20.2838 Z" id="Fill-129" fill="#000000" mask="url(#mask-2)"></path>
                    <path d="M281.6279,110.1436 C289.8759,110.1436 289.8759,118.3916 289.8759,118.3916 L289.8759,130.7636 L261.4959,130.7586 L261.4959,89.5186 L273.3799,89.5236 C277.9359,89.5236 281.6279,93.2166 281.6279,97.7716 L281.6279,110.1436 Z" id="Fill-130" fill="#F05822" mask="url(#mask-2)"></path>
                    <path d="M281.6279,110.1436 C289.8759,110.1436 289.8759,118.3916 289.8759,118.3916 L289.8759,130.7636 L261.4959,130.7586 L261.4959,89.5186 L273.3799,89.5236 C277.9359,89.5236 281.6279,93.2166 281.6279,97.7716 L281.6279,110.1436 Z" id="Stroke-131" stroke="#000000" stroke-width="1.5" mask="url(#mask-2)"></path>
                    <polygon id="Fill-132" fill="#DBA827" mask="url(#mask-2)" points="277.504 130.764 294 130.764 294 124.573 277.504 124.573"></polygon>
                    <polygon id="Stroke-133" stroke="#000000" stroke-width="1.5" mask="url(#mask-2)" points="277.504 130.764 294 130.764 294 124.573 277.504 124.573"></polygon>
                    <path d="M285.752,130.7637 C285.752,135.3197 282.06,139.0117 277.504,139.0117 C272.948,139.0117 269.256,135.3197 269.256,130.7637 C269.256,126.2077 272.948,122.5157 277.504,122.5157 C282.06,122.5157 285.752,126.2077 285.752,130.7637" id="Fill-134" fill="#A2D39F" mask="url(#mask-2)"></path>
                    <path d="M285.752,130.7637 C285.752,135.3197 282.06,139.0117 277.504,139.0117 C272.948,139.0117 269.256,135.3197 269.256,130.7637 C269.256,126.2077 272.948,122.5157 277.504,122.5157 C282.06,122.5157 285.752,126.2077 285.752,130.7637 Z" id="Stroke-135" stroke="#000000" stroke-width="1.5" mask="url(#mask-2)"></path>
                    <path d="M281.6279,130.7637 C281.6279,133.0407 279.7809,134.8877 277.5039,134.8877 C275.2269,134.8877 273.3799,133.0407 273.3799,130.7637 C273.3799,128.4867 275.2269,126.6397 277.5039,126.6397 C279.7809,126.6397 281.6279,128.4867 281.6279,130.7637" id="Fill-136" fill="#DBA827" mask="url(#mask-2)"></path>
                    <path d="M281.6279,130.7637 C281.6279,133.0407 279.7809,134.8877 277.5039,134.8877 C275.2269,134.8877 273.3799,133.0407 273.3799,130.7637 C273.3799,128.4867 275.2269,126.6397 277.5039,126.6397 C279.7809,126.6397 281.6279,128.4867 281.6279,130.7637 Z" id="Stroke-137" stroke="#000000" stroke-width="1.5" mask="url(#mask-2)"></path>
                    <polygon id="Fill-138" fill="#A2D39F" mask="url(#mask-2)" points="272.968 109.932 281.216 109.932 281.216 98.591 272.968 98.591"></polygon>
                    <polygon id="Stroke-139" stroke="#000000" stroke-width="1.5" mask="url(#mask-2)" points="272.968 109.932 281.216 109.932 281.216 98.591 272.968 98.591"></polygon>
                    <path d="M289.7461,123.7529 C291.6831,123.7529 293.2541,122.1819 293.2541,120.2449 C293.2541,118.3079 291.6831,116.7369 289.7461,116.7369 L289.7461,123.7529 Z" id="Fill-140" fill="#EFAECE" mask="url(#mask-2)"></path>
                    <path d="M289.7461,123.7529 C291.6831,123.7529 293.2541,122.1819 293.2541,120.2449 C293.2541,118.3079 291.6831,116.7369 289.7461,116.7369 L289.7461,123.7529 Z" id="Stroke-141" stroke="#000000" stroke-width="1.5" mask="url(#mask-2)"></path>
                    <polygon id="Fill-142" fill="#EFAECE" mask="url(#mask-2)" points="183.552 130.759 261.496 130.759 261.496 69.311 183.552 69.311"></polygon>
                    <polygon id="Stroke-143" stroke="#000000" stroke-width="1.5" mask="url(#mask-2)" points="183.552 130.759 261.496 130.759 261.496 69.311 183.552 69.311"></polygon>
                    <polygon id="Fill-144" fill="#DBA827" mask="url(#mask-2)" points="183.552 130.764 187.676 130.764 187.676 122.516 183.552 122.516"></polygon>
                    <polygon id="Stroke-145" stroke="#000000" stroke-width="1.5" mask="url(#mask-2)" points="183.552 130.764 187.676 130.764 187.676 122.516 183.552 122.516"></polygon>
                    <path d="M211.5957,130.7588 C211.5957,135.3148 207.9027,139.0068 203.3477,139.0068 C198.7917,139.0068 195.0997,135.3148 195.0997,130.7588 C195.0997,126.2028 198.7917,122.5108 203.3477,122.5108 C207.9027,122.5108 211.5957,126.2028 211.5957,130.7588" id="Fill-146" fill="#A2D39F" mask="url(#mask-2)"></path>
                    <path d="M211.5957,130.7588 C211.5957,135.3148 207.9027,139.0068 203.3477,139.0068 C198.7917,139.0068 195.0997,135.3148 195.0997,130.7588 C195.0997,126.2028 198.7917,122.5108 203.3477,122.5108 C207.9027,122.5108 211.5957,126.2028 211.5957,130.7588 Z" id="Stroke-147" stroke="#000000" stroke-width="1.5" mask="url(#mask-2)"></path>
                    <path d="M207.4717,130.7588 C207.4717,133.0358 205.6247,134.8828 203.3477,134.8828 C201.0707,134.8828 199.2237,133.0358 199.2237,130.7588 C199.2237,128.4818 201.0707,126.6348 203.3477,126.6348 C205.6247,126.6348 207.4717,128.4818 207.4717,130.7588" id="Fill-148" fill="#DBA827" mask="url(#mask-2)"></path>
                    <path d="M207.4717,130.7588 C207.4717,133.0358 205.6247,134.8828 203.3477,134.8828 C201.0707,134.8828 199.2237,133.0358 199.2237,130.7588 C199.2237,128.4818 201.0707,126.6348 203.3477,126.6348 C205.6247,126.6348 207.4717,128.4818 207.4717,130.7588 Z" id="Stroke-149" stroke="#000000" stroke-width="1.5" mask="url(#mask-2)"></path>
                    <polygon id="Fill-150" fill="#EFAECE" mask="url(#mask-2)" points="108 104.6665 88 104.6665 93 91.3335 103 91.3335"></polygon>
                    <polygon id="Stroke-151" stroke="#000000" stroke-width="1.5" mask="url(#mask-2)" points="108 104.6665 88 104.6665 93 91.3335 103 91.3335"></polygon>
                </g>
                <path d="M209.9843,92.2954586 L209.0243,84.7914586 L206.1603,89.9434586 L203.2803,84.8074586 L202.3203,92.2954586 L200.1923,92.2954586 L201.7443,81.0954586 L203.4243,81.0954586 L206.1603,86.1994586 L208.8803,81.0954586 L210.5603,81.0954586 L212.1123,92.2954586 L209.9843,92.2954586 Z M216.1143,91.7914586 C215.276962,91.3061228 214.620969,90.623463 214.1463,89.7434586 C213.671631,88.8634542 213.4343,87.8474644 213.4343,86.6954586 C213.4343,85.5434528 213.671631,84.527463 214.1463,83.6474586 C214.620969,82.7674542 215.276962,82.0847944 216.1143,81.5994586 C216.951638,81.1141228 217.898295,80.8714586 218.9543,80.8714586 C220.010305,80.8714586 220.956962,81.1141228 221.7943,81.5994586 C222.631638,82.0847944 223.287631,82.7674542 223.7623,83.6474586 C224.236969,84.527463 224.4743,85.5434528 224.4743,86.6954586 C224.4743,87.8474644 224.236969,88.8634542 223.7623,89.7434586 C223.287631,90.623463 222.631638,91.3061228 221.7943,91.7914586 C220.956962,92.2767944 220.010305,92.5194586 218.9543,92.5194586 C217.898295,92.5194586 216.951638,92.2767944 216.1143,91.7914586 Z M221.4583,89.4794586 C222.039636,88.7754551 222.3303,87.8474644 222.3303,86.6954586 C222.3303,85.5434528 222.039636,84.6154621 221.4583,83.9114586 C220.876964,83.2074551 220.042305,82.8554586 218.9543,82.8554586 C217.866295,82.8554586 217.031636,83.2074551 216.4503,83.9114586 C215.868964,84.6154621 215.5783,85.5434528 215.5783,86.6954586 C215.5783,87.8474644 215.868964,88.7754551 216.4503,89.4794586 C217.031636,90.1834621 217.866295,90.5354586 218.9543,90.5354586 C220.042305,90.5354586 220.876964,90.1834621 221.4583,89.4794586 Z M234.8683,81.0954586 L230.8843,92.2954586 L228.9483,92.2954586 L224.9643,81.0954586 L227.0283,81.0954586 L229.9083,89.3354586 L232.8043,81.0954586 L234.8683,81.0954586 Z M236.3503,81.0954586 L243.5183,81.0954586 L243.5183,83.0794586 L238.4463,83.0794586 L238.4463,85.4634586 L242.3823,85.4634586 L242.3823,87.4474586 L238.4463,87.4474586 L238.4463,90.3114586 L243.6783,90.3114586 L243.6783,92.2954586 L236.3503,92.2954586 L236.3503,81.0954586 Z" id="MOVE" fill="#000000"></path>
                <path d="M216.5123,100.295459 L218.5603,100.295459 L218.5603,111.495459 L216.5123,111.495459 L216.5123,100.295459 Z M221.1243,100.295459 L223.1403,100.295459 L227.9243,107.527459 L227.9243,100.295459 L229.9723,100.295459 L229.9723,111.495459 L228.2923,111.495459 L223.1723,103.815459 L223.1723,111.495459 L221.1243,111.495459 L221.1243,100.295459 Z" id="IN" fill="#000000"></path>
                <g id="Group-200">
                    <path d="M184,131 L158,139" id="Stroke-153" stroke="#000000" stroke-width="1.5"></path>
                    <mask id="mask-4" fill="white">
                        <use xlink:href="#path-3"></use>
                    </mask>
                    <g id="Clip-156"></g>
                    <polygon id="Fill-155" fill="#DBA827" mask="url(#mask-4)" points="123 140 138 140 138 125 123 125"></polygon>
                    <polygon id="Stroke-157" stroke="#000000" stroke-width="1.5" mask="url(#mask-4)" points="123 140 138 140 138 125 123 125"></polygon>
                    <polygon id="Fill-158" fill="#DBA827" mask="url(#mask-4)" points="148 118 163 118 163 103 148 103"></polygon>
                    <polygon id="Stroke-159" stroke="#000000" stroke-width="1.5" mask="url(#mask-4)" points="148 118 163 118 163 103 148 103"></polygon>
                    <polygon id="Fill-160" fill="#DBA827" mask="url(#mask-4)" points="108 140 123 140 123 125 108 125"></polygon>
                    <polygon id="Stroke-161" stroke="#000000" stroke-width="1.5" mask="url(#mask-4)" points="108 140 123 140 123 125 108 125"></polygon>
                    <polygon id="Fill-162" fill="#A2D39F" mask="url(#mask-4)" points="84 140 87.5 140 87.5 134 84 134"></polygon>
                    <polygon id="Stroke-163" stroke="#000000" stroke-width="1.5" mask="url(#mask-4)" points="84 140 87.5 140 87.5 134 84 134"></polygon>
                    <polygon id="Fill-164" fill="#A2D39F" mask="url(#mask-4)" points="142.5 139 146 139 146 127 142.5 127"></polygon>
                    <polygon id="Stroke-165" stroke="#000000" stroke-width="1.441" mask="url(#mask-4)" points="142.5 139 146 139 146 127 142.5 127"></polygon>
                    <polygon id="Fill-166" fill="#A2D39F" mask="url(#mask-4)" points="165 139 168.5 139 168.5 127 165 127"></polygon>
                    <polygon id="Stroke-167" stroke="#000000" stroke-width="1.441" mask="url(#mask-4)" points="165 139 168.5 139 168.5 127 165 127"></polygon>
                    <polygon id="Fill-168" fill="#A2D39F" mask="url(#mask-4)" points="26 140 29.5 140 29.5 134 26 134"></polygon>
                    <polygon id="Stroke-169" stroke="#000000" stroke-width="1.5" mask="url(#mask-4)" points="26 140 29.5 140 29.5 134 26 134"></polygon>
                    <polygon id="Fill-170" fill="#DBA827" mask="url(#mask-4)" points="233 139 248 139 248 124 233 124"></polygon>
                    <polygon id="Stroke-171" stroke="#000000" stroke-width="1.5" mask="url(#mask-4)" points="233 139 248 139 248 124 233 124"></polygon>
                    <polygon id="Fill-172" fill="#DBA827" mask="url(#mask-4)" points="115 125 130 125 130 110 115 110"></polygon>
                    <polygon id="Stroke-173" stroke="#000000" stroke-width="1.5" mask="url(#mask-4)" points="115 125 130 125 130 110 115 110"></polygon>
                    <polygon id="Fill-174" fill="#DBA827" mask="url(#mask-4)" points="248 139 263 139 263 124 248 124"></polygon>
                    <polygon id="Stroke-175" stroke="#000000" stroke-width="1.5" mask="url(#mask-4)" points="248 139 263 139 263 124 248 124"></polygon>
                    <polygon id="Fill-176" fill="#DBA827" mask="url(#mask-4)" points="240 124 255 124 255 109 240 109"></polygon>
                    <polygon id="Stroke-177" stroke="#000000" stroke-width="1.5" mask="url(#mask-4)" points="240 124 255 124 255 109 240 109"></polygon>
                    <path d="M87.5,134 L26.5,134 C24.291,134 22.5,132.209 22.5,130 C22.5,127.791 24.291,126 26.5,126 L87.5,126 C89.709,126 91.5,127.791 91.5,130 C91.5,132.209 89.709,134 87.5,134" id="Fill-178" fill="#F05822" mask="url(#mask-4)"></path>
                    <path d="M87.5,134 L26.5,134 C24.291,134 22.5,132.209 22.5,130 C22.5,127.791 24.291,126 26.5,126 L87.5,126 C89.709,126 91.5,127.791 91.5,130 C91.5,132.209 89.709,134 87.5,134 Z" id="Stroke-179" stroke="#000000" stroke-width="1.5" mask="url(#mask-4)"></path>
                    <path d="M85.9956,126 L28.0046,126 C28.0026,125.998 28.0016,125.997 27.9996,125.996 L27.9996,111 C27.9996,108.791 29.7906,107 31.9996,107 L81.9996,107 C84.2086,107 85.9996,108.791 85.9996,111 L85.9996,125.996 C85.9976,125.997 85.9976,125.998 85.9956,126" id="Fill-180" fill="#F05822" mask="url(#mask-4)"></path>
                    <path d="M85.9956,126 L28.0046,126 C28.0026,125.998 28.0016,125.997 27.9996,125.996 L27.9996,111 C27.9996,108.791 29.7906,107 31.9996,107 L81.9996,107 C84.2086,107 85.9996,108.791 85.9996,111 L85.9996,125.996 C85.9976,125.997 85.9976,125.998 85.9956,126 Z" id="Stroke-181" stroke="#000000" stroke-width="1.5" mask="url(#mask-4)"></path>
                    <path d="M57,107 L57,134" id="Stroke-182" stroke="#000000" stroke-width="1.5" mask="url(#mask-4)"></path>
                    <path d="M33.5,120 C33.5,123.038 31.038,125.5 28,125.5 C24.962,125.5 22.5,123.038 22.5,120 C22.5,116.962 24.962,114.5 28,114.5 C31.038,114.5 33.5,116.962 33.5,120" id="Fill-183" fill="#F05822" mask="url(#mask-4)"></path>
                    <path d="M33.5,120 C33.5,123.038 31.038,125.5 28,125.5 C24.962,125.5 22.5,123.038 22.5,120 C22.5,116.962 24.962,114.5 28,114.5 C31.038,114.5 33.5,116.962 33.5,120 Z" id="Stroke-184" stroke="#000000" stroke-width="1.5" mask="url(#mask-4)"></path>
                    <path d="M91.5,120 C91.5,123.038 89.038,125.5 86,125.5 C82.962,125.5 80.5,123.038 80.5,120 C80.5,116.962 82.962,114.5 86,114.5 C89.038,114.5 91.5,116.962 91.5,120" id="Fill-185" fill="#F05822" mask="url(#mask-4)"></path>
                    <path d="M91.5,120 C91.5,123.038 89.038,125.5 86,125.5 C82.962,125.5 80.5,123.038 80.5,120 C80.5,116.962 82.962,114.5 86,114.5 C89.038,114.5 91.5,116.962 91.5,120 Z" id="Stroke-186" stroke="#000000" stroke-width="1.5" mask="url(#mask-4)"></path>
                    <polygon id="Fill-187" fill="#DBA827" mask="url(#mask-4)" points="61 126 76 126 76 111 61 111"></polygon>
                    <polygon id="Stroke-188" stroke="#000000" stroke-width="1.5" mask="url(#mask-4)" points="61 126 76 126 76 111 61 111"></polygon>
                    <path d="M98,139 L98,105" id="Stroke-189" stroke="#000000" stroke-width="1.5" mask="url(#mask-4)"></path>
                    <polygon id="Fill-190" fill="#EFAECE" mask="url(#mask-4)" points="91.5 139.5 103.5 139.5 103.5 135 91.5 135"></polygon>
                    <polygon id="Stroke-191" stroke="#000000" stroke-width="1.5" mask="url(#mask-4)" points="91.5 139.5 103.5 139.5 103.5 135 91.5 135"></polygon>
                    <polygon id="Fill-192" fill="#A2D39F" mask="url(#mask-4)" points="142.5 127.5 168.5 127.5 168.5 118.14 142.5 118.14"></polygon>
                    <polygon id="Stroke-193" stroke="#000000" stroke-width="1.53" mask="url(#mask-4)" points="142.5 127.5 168.5 127.5 168.5 118.14 142.5 118.14"></polygon>
                    <path d="M157.5,122.5 C157.5,123.604 156.604,124.5 155.5,124.5 C154.396,124.5 153.5,123.604 153.5,122.5 C153.5,121.396 154.396,120.5 155.5,120.5 C156.604,120.5 157.5,121.396 157.5,122.5" id="Fill-194" fill="#DBA827" mask="url(#mask-4)"></path>
                    <path d="M157.5,122.5 C157.5,123.604 156.604,124.5 155.5,124.5 C154.396,124.5 153.5,123.604 153.5,122.5 C153.5,121.396 154.396,120.5 155.5,120.5 C156.604,120.5 157.5,121.396 157.5,122.5 Z" id="Stroke-195" stroke="#000000" stroke-width="1.5" mask="url(#mask-4)"></path>
                    <path d="M39,86.2559 C39,90.3689 33.086,94.0839 31.642,97.3269 C28.999,103.2659 26.839,108.1799 21.5,108.1799 C16.161,108.1799 14.001,103.2659 11.358,97.3269 C9.914,94.0839 4,90.3689 4,86.2559 C4,82.1429 9.914,78.4279 11.358,75.1839 C14.001,69.2449 16.161,64.3319 21.5,64.3319 C26.839,64.3319 28.999,69.2449 31.642,75.1839 C33.086,78.4279 39,82.1429 39,86.2559" id="Fill-196" fill="#DBA827" mask="url(#mask-4)"></path>
                    <path d="M22.2002,74.4946 C23.3882,76.0026 25.2182,76.9806 27.2822,76.9806 L27.2822,75.5806 C24.4802,75.5806 22.2002,73.3016 22.2002,70.4986 L22.2002,70.2336 L20.8002,70.2336 C20.8002,73.0366 18.5202,75.3156 15.7182,75.3156 L15.7182,76.7156 C17.7812,76.7156 19.6122,75.7396 20.8002,74.2336 L20.8002,78.0906 C20.8002,80.8926 18.5202,83.1726 15.7182,83.1726 L15.7182,84.5726 C17.7812,84.5726 19.6122,83.5966 20.8002,82.0906 L20.8002,85.9476 C20.8002,88.7496 18.5202,91.0286 15.7182,91.0286 L15.7182,92.4296 C17.7812,92.4296 19.6122,91.4526 20.8002,89.9476 L20.8002,93.8036 C20.8002,96.6056 18.5202,98.8856 15.7182,98.8856 L15.7182,100.2866 C17.7812,100.2866 19.6122,99.3096 20.8002,97.8036 L20.8002,118.9996 L22.2002,118.9996 L22.2002,98.0646 C23.3882,99.5726 25.2182,100.5506 27.2822,100.5506 L27.2822,99.1506 C24.4802,99.1506 22.2002,96.8706 22.2002,94.0686 L22.2002,93.8036 L22.2002,90.2076 C23.3882,91.7156 25.2182,92.6946 27.2822,92.6946 L27.2822,91.2936 C24.4802,91.2936 22.2002,89.0146 22.2002,86.2126 L22.2002,85.9476 L22.2002,82.3506 C23.3882,83.8586 25.2182,84.8376 27.2822,84.8376 L27.2822,83.4376 C24.4802,83.4376 22.2002,81.1576 22.2002,78.3556 L22.2002,78.0906 L22.2002,74.4946 Z" id="Fill-197" fill="#221F1F" mask="url(#mask-4)"></path>
                    <path d="M318.8916,90.3184 C318.8916,86.3874 313.6406,84.3954 313.6406,80.7444 C313.6406,76.6504 319.3766,74.2354 318.7976,69.7194 C318.1036,64.3094 313.3716,59.9734 307.5166,59.3754 C299.7726,58.5844 293.2186,64.1704 293.2186,71.1704 C293.2186,75.1014 298.4686,77.0934 298.4686,80.7444 C298.4686,84.3954 293.2186,86.3874 293.2186,90.3184 C293.2186,94.2494 298.4686,96.2414 298.4686,99.8924 C298.4686,103.9864 292.7326,106.4014 293.3116,110.9174 C294.0056,116.3274 298.7386,120.6634 304.5936,121.2614 C312.3366,122.0514 318.8916,116.4664 318.8916,109.4664 C318.8916,105.5354 313.6406,103.5434 313.6406,99.8924 C313.6406,96.2414 318.8916,94.2494 318.8916,90.3184" id="Fill-198" fill="#EFAECE" mask="url(#mask-4)"></path>
                    <path d="M310.2441,72.0498 C311.1131,71.3548 311.8631,70.7548 313.4201,70.7548 L313.4201,69.1318 C311.2941,69.1318 310.1971,70.0088 309.2301,70.7828 C308.5291,71.3428 307.8981,71.8368 306.8661,72.0078 L306.8661,65.4508 L305.2431,65.4508 L305.2431,72.0078 C304.2111,71.8368 303.5801,71.3428 302.8791,70.7818 C301.9121,70.0088 300.8151,69.1318 298.6901,69.1318 L298.6901,70.7548 C300.2461,70.7548 300.9961,71.3548 301.8651,72.0498 C302.7001,72.7178 303.6361,73.4608 305.2431,73.6518 L305.2431,82.0748 C304.2111,81.9028 303.5801,81.4098 302.8791,80.8488 C301.9121,80.0748 300.8151,79.1978 298.6901,79.1978 L298.6901,80.8208 C300.2461,80.8208 300.9961,81.4218 301.8651,82.1158 C302.7001,82.7848 303.6361,83.5268 305.2431,83.7178 L305.2431,92.1408 C304.2111,91.9688 303.5801,91.4758 302.8791,90.9148 C301.9121,90.1418 300.8151,89.2648 298.6901,89.2648 L298.6901,90.8878 C300.2461,90.8878 300.9961,91.4878 301.8651,92.1828 C302.7001,92.8508 303.6361,93.5928 305.2431,93.7838 L305.2431,102.2078 C304.2111,102.0358 303.5801,101.5428 302.8791,100.9818 C301.9121,100.2078 300.8151,99.3308 298.6901,99.3308 L298.6901,100.9538 C300.2461,100.9538 300.9961,101.5538 301.8651,102.2488 C302.7001,102.9178 303.6361,103.6598 305.2431,103.8508 L305.2431,112.2738 C304.2111,112.1018 303.5801,111.6088 302.8791,111.0478 C301.9121,110.2748 300.8151,109.3978 298.6901,109.3978 L298.6901,111.0208 C300.2461,111.0208 300.9961,111.6208 301.8651,112.3158 C302.7001,112.9838 303.6361,113.7258 305.2431,113.9168 L305.2431,135.9568 L306.8661,135.9568 L306.8661,113.9168 C308.4731,113.7258 309.4091,112.9838 310.2441,112.3158 C311.1131,111.6208 311.8631,111.0208 313.4201,111.0208 L313.4201,109.3978 C311.2941,109.3978 310.1971,110.2748 309.2301,111.0488 C308.5291,111.6088 307.8981,112.1018 306.8661,112.2738 L306.8661,103.8508 C308.4731,103.6598 309.4091,102.9178 310.2441,102.2488 C311.1131,101.5538 311.8631,100.9538 313.4201,100.9538 L313.4201,99.3308 C311.2941,99.3308 310.1971,100.2078 309.2301,100.9818 C308.5291,101.5428 307.8981,102.0358 306.8661,102.2078 L306.8661,93.7838 C308.4731,93.5928 309.4091,92.8508 310.2441,92.1828 C311.1131,91.4878 311.8631,90.8878 313.4201,90.8878 L313.4201,89.2648 C311.2941,89.2648 310.1971,90.1418 309.2301,90.9158 C308.5291,91.4758 307.8981,91.9688 306.8661,92.1408 L306.8661,83.7178 C308.4731,83.5268 309.4091,82.7848 310.2441,82.1158 C311.1131,81.4218 311.8631,80.8208 313.4201,80.8208 L313.4201,79.1978 C311.2941,79.1978 310.1971,80.0748 309.2301,80.8488 C308.5291,81.4098 307.8981,81.9028 306.8661,82.0748 L306.8661,73.6518 C308.4731,73.4608 309.4091,72.7178 310.2441,72.0498" id="Fill-199" fill="#000000" mask="url(#mask-4)"></path>
                </g>
            </g>
        </g>
    </g>
</svg>