<svg xmlns="http://www.w3.org/2000/svg" viewBox="0 0 200 200"><defs><style>.cls-1{fill:#e39bc4;}.cls-1,.cls-2,.cls-3,.cls-4{stroke:#000;stroke-miterlimit:10;stroke-width:3px;}.cls-2{fill:#97cc8b;}.cls-3{fill:#ca970c;}.cls-4{fill:#dd3d12;}</style></defs><title>portland_location_icons</title><g id="hospital"><rect class="cls-1" x="13.97" y="92.76" width="174.61" height="94.63"/><rect class="cls-2" x="6.28" y="92.76" width="190" height="11.98"/><rect class="cls-1" x="51.92" y="18.32" width="98.71" height="169.06"/><polygon class="cls-3" points="86.53 45.48 96.01 45.48 96.01 36.01 106.55 36.01 106.55 45.48 116.02 45.48 116.02 56.02 106.55 56.02 106.55 65.5 96.01 65.5 96.01 56.02 86.53 56.02 86.53 45.48"/><rect class="cls-2" x="44.25" y="13.61" width="114.05" height="11.98"/><rect class="cls-2" x="101.28" y="138.2" width="20.84" height="49.18"/><rect class="cls-2" x="80.44" y="138.2" width="20.84" height="49.18"/><rect class="cls-4" x="22.29" y="111.82" width="21.19" height="21.19"/><rect class="cls-4" x="22.29" y="141.6" width="21.19" height="21.19"/><rect class="cls-4" x="111.85" y="74.45" width="21.19" height="21.19"/><rect class="cls-4" x="111.85" y="104.23" width="21.19" height="21.19"/><rect class="cls-4" x="69.33" y="74.45" width="21.19" height="21.19"/><rect class="cls-4" x="69.33" y="104.23" width="21.19" height="21.19"/><rect class="cls-4" x="158.68" y="111.82" width="21.19" height="21.19"/><rect class="cls-4" x="158.68" y="141.6" width="21.19" height="21.19"/><rect class="cls-3" x="76.2" y="134.43" width="50.16" height="8.47"/></g></svg>