<svg xmlns="http://www.w3.org/2000/svg" xmlns:xlink="http://www.w3.org/1999/xlink" width="89" height="100" viewBox="0 0 89 100">
    <defs>
        <path id="a" d="M0 99.604h87.734V.637H0z"/>
    </defs>
    <g fill="none" fill-rule="evenodd" transform="translate(1 .206)">
        <path fill="#9FE2A2" d="M39.364 98.649H80.82v-68.91H39.364z"/>
        <path stroke="#000" stroke-width="2" d="M39.364 98.649H80.82v-68.91H39.364z"/>
        <path fill="#F50" d="M39.364 29.554h46.064L62.396 6.522H20.938"/>
        <path stroke="#000" stroke-width="2" d="M39.364 29.554h46.064L62.396 6.522H20.938"/>
        <path fill="#9FE2A2" d="M7.12 20.341v78.205h32.244V20.341"/>
        <path stroke="#000" stroke-width="2" d="M7.12 20.341v78.205h32.244V20.341"/>
        <path fill="#DDA812" d="M11.725 80.12h23.032v-4.605H11.725z"/>
        <path stroke="#000" stroke-width="2" d="M11.725 80.12h23.032v-4.605H11.725z"/>
        <path fill="#DDA812" d="M11.725 47.979h23.032v-4.606H11.725z"/>
        <path stroke="#000" stroke-width="2" d="M11.725 47.979h23.032v-4.606H11.725z"/>
        <path fill="#FFAEE4" d="M16.332 75.514h13.82v-13.82h-13.82z"/>
        <path stroke="#000" stroke-width="2" d="M16.332 75.514h13.82v-13.82h-13.82z"/>
        <path fill="#F50" d="M43.97 20.341L23.242 1.915 2.513 20.34z"/>
        <path stroke="#000" stroke-width="2" d="M43.97 20.341L23.242 1.915 2.513 20.34z"/>
        <path fill="#F50" d="M48.576 89.334h23.032V57.089H48.576z"/>
        <path stroke="#000" stroke-width="2" d="M48.576 89.334h23.032V57.089H48.576z"/>
        <path fill="#FFAEE4" d="M16.332 43.373h13.82V29.554h-13.82z"/>
        <path stroke="#000" stroke-width="2" d="M16.332 43.373h13.82V29.554h-13.82z"/>
        <path fill="#DDA812" d="M67.002 77.818a2.303 2.303 0 1 1-4.605 0 2.303 2.303 0 0 1 4.605 0"/>
        <path stroke="#000" stroke-width="2" d="M67.002 77.818a2.303 2.303 0 1 1-4.605 0 2.303 2.303 0 0 1 4.605 0z"/>
        <mask id="b" fill="#fff">
            <use xlink:href="#a"/>
        </mask>
        <path stroke="#231F20" stroke-width="2" d="M57.79 43.373h9.213v-4.606H57.79zM62.396 38.766h9.212V34.16h-9.212zM62.396 47.979h9.212v-4.606h-9.212zM57.79 38.766h-4.607M62.396 34.16h-4.607M71.609 34.16h4.606M71.609 43.372h4.606M62.396 47.979h-4.607M57.79 43.372h-4.607M71.609 38.766h4.606M71.609 47.979h4.606" mask="url(#b)"/>
        <path fill="#DDA812" d="M43.97 93.94h32.245v-4.606H43.97z" mask="url(#b)"/>
        <path stroke="#000" stroke-width="2" d="M43.97 93.94h32.245v-4.606H43.97z" mask="url(#b)"/>
        <path fill="#DDA812" d="M39.364 98.546H80.82V93.94H39.364z" mask="url(#b)"/>
        <path stroke="#000" stroke-width="2" d="M39.364 98.546H80.82V93.94H39.364z" mask="url(#b)"/>
        <path fill="#FFAEE4" d="M53.183 70.908h13.82v-9.213h-13.82z" mask="url(#b)"/>
        <path stroke="#000" stroke-width="2" d="M53.183 70.908h13.82v-9.213h-13.82z" mask="url(#b)"/>
    </g>
</svg>
