<svg xmlns="http://www.w3.org/2000/svg" viewBox="0 0 200 200"><defs><style>.cls-1{fill:#ca970c;}.cls-1,.cls-2,.cls-3,.cls-4{stroke:#000;stroke-miterlimit:10;stroke-width:3px;}.cls-2{fill:#e39bc4;}.cls-3{fill:#97cc8b;}.cls-4{fill:#dd3d12;}</style></defs><title>portland_location_icons</title><g id="hospital"><rect class="cls-1" x="13.97" y="91.74" width="174.61" height="94.63"/><rect class="cls-2" x="6.28" y="91.74" width="190" height="11.98"/><rect class="cls-1" x="51.92" y="17.31" width="98.71" height="169.06"/><polygon class="cls-3" points="86.53 44.47 96.01 44.47 96.01 35 106.55 35 106.55 44.47 116.02 44.47 116.02 55.01 106.55 55.01 106.55 64.49 96.01 64.49 96.01 55.01 86.53 55.01 86.53 44.47"/><rect class="cls-2" x="44.25" y="12.6" width="114.05" height="11.98"/><rect class="cls-2" x="101.28" y="137.19" width="20.84" height="49.18"/><rect class="cls-2" x="80.44" y="137.19" width="20.84" height="49.18"/><rect class="cls-4" x="22.29" y="110.81" width="21.19" height="21.19"/><rect class="cls-4" x="22.29" y="140.59" width="21.19" height="21.19"/><rect class="cls-4" x="111.85" y="73.44" width="21.19" height="21.19"/><rect class="cls-4" x="111.85" y="103.22" width="21.19" height="21.19"/><rect class="cls-4" x="69.33" y="73.44" width="21.19" height="21.19"/><rect class="cls-4" x="69.33" y="103.22" width="21.19" height="21.19"/><rect class="cls-4" x="158.68" y="110.81" width="21.19" height="21.19"/><rect class="cls-4" x="158.68" y="140.59" width="21.19" height="21.19"/><rect class="cls-3" x="76.2" y="133.42" width="50.16" height="8.47"/></g></svg>