<svg xmlns="http://www.w3.org/2000/svg" viewBox="0 0 200 200"><defs><style>.cls-1{fill:#e0e0e0;stroke:#fff;stroke-miterlimit:10;stroke-width:3px;}</style></defs><title>portland_location_icons</title><g id="hospital"><rect class="cls-1" x="13.97" y="92.34" width="174.61" height="94.63"/><rect class="cls-1" x="6.28" y="92.34" width="190" height="11.98"/><rect class="cls-1" x="51.92" y="17.91" width="98.71" height="169.06"/><polygon class="cls-1" points="86.53 45.07 96.01 45.07 96.01 35.59 106.55 35.59 106.55 45.07 116.02 45.07 116.02 55.61 106.55 55.61 106.55 65.08 96.01 65.08 96.01 55.61 86.53 55.61 86.53 45.07"/><rect class="cls-1" x="44.25" y="13.2" width="114.05" height="11.98"/><rect class="cls-1" x="101.28" y="137.79" width="20.84" height="49.18"/><rect class="cls-1" x="80.44" y="137.79" width="20.84" height="49.18"/><rect class="cls-1" x="22.29" y="111.4" width="21.19" height="21.19"/><rect class="cls-1" x="22.29" y="141.19" width="21.19" height="21.19"/><rect class="cls-1" x="111.85" y="74.04" width="21.19" height="21.19"/><rect class="cls-1" x="111.85" y="103.82" width="21.19" height="21.19"/><rect class="cls-1" x="69.33" y="74.04" width="21.19" height="21.19"/><rect class="cls-1" x="69.33" y="103.82" width="21.19" height="21.19"/><rect class="cls-1" x="158.68" y="111.4" width="21.19" height="21.19"/><rect class="cls-1" x="158.68" y="141.19" width="21.19" height="21.19"/><rect class="cls-1" x="76.2" y="134.01" width="50.16" height="8.47"/></g></svg>