<svg xmlns="http://www.w3.org/2000/svg" width="154" height="141" viewBox="0 0 154 141">
    <g fill="none" fill-rule="evenodd">
        <path fill="#A2D39E" d="M8.438 138.86h137.125V64.547H8.438z"/>
        <path stroke="#000" stroke-width="3" d="M8.438 138.86h137.125V64.547H8.438z"/>
        <path fill="#EFAECE" d="M2.393 73.957h149.214v-9.41H2.393z"/>
        <path stroke="#000" stroke-width="3" d="M2.393 73.957h149.214v-9.41H2.393z"/>
        <path fill="#A2D39E" d="M38.241 138.861h77.519V6.093H38.24z"/>
        <path stroke="#000" stroke-width="3" d="M38.241 138.861h77.519V6.093H38.24z"/>
        <path fill="#F05722" d="M65.42 27.424h7.444v-7.442h8.273v7.442h7.442v8.274h-7.442v7.442h-8.273v-7.442H65.42z"/>
        <path stroke="#000" stroke-width="3" d="M65.42 27.424h7.444v-7.442h8.273v7.442h7.442v8.274h-7.442v7.442h-8.273v-7.442H65.42z"/>
        <path fill="#EFAECE" d="M32.217 11.803h89.565v-9.41H32.217z"/>
        <path stroke="#000" stroke-width="3" d="M32.217 11.803h89.565v-9.41H32.217z"/>
        <path fill="#EFAECE" d="M77 138.861h16.366V100.24H77z"/>
        <path stroke="#000" stroke-width="3" d="M77 138.861h16.366V100.24H77z"/>
        <path fill="#EFAECE" d="M60.634 138.861H77V100.24H60.634z"/>
        <path stroke="#000" stroke-width="3" d="M60.634 138.861H77V100.24H60.634z"/>
        <path fill="#DBA825" d="M14.968 96.16H31.61V79.517H14.968z"/>
        <path stroke="#000" stroke-width="3" d="M14.968 96.16H31.61V79.517H14.968z"/>
        <path fill="#DBA825" d="M14.968 119.55H31.61v-16.642H14.968z"/>
        <path stroke="#000" stroke-width="3" d="M14.968 119.55H31.61v-16.642H14.968z"/>
        <path fill="#DBA825" d="M85.307 66.814h16.642V50.171H85.307z"/>
        <path stroke="#000" stroke-width="3" d="M85.307 66.814h16.642V50.171H85.307z"/>
        <path fill="#DBA825" d="M85.307 90.205h16.642V73.563H85.307z"/>
        <path stroke="#000" stroke-width="3" d="M85.307 90.205h16.642V73.563H85.307z"/>
        <path fill="#DBA825" d="M51.912 66.814h16.643V50.171H51.912z"/>
        <path stroke="#000" stroke-width="3" d="M51.912 66.814h16.643V50.171H51.912z"/>
        <path fill="#DBA825" d="M51.912 90.205h16.643V73.563H51.912z"/>
        <path stroke="#000" stroke-width="3" d="M51.912 90.205h16.643V73.563H51.912z"/>
        <path fill="#DBA825" d="M122.079 96.16h16.642V79.517H122.08z"/>
        <path stroke="#000" stroke-width="3" d="M122.079 96.16h16.642V79.517H122.08z"/>
        <path fill="#DBA825" d="M122.079 119.55h16.642v-16.642H122.08z"/>
        <path stroke="#000" stroke-width="3" d="M122.079 119.55h16.642v-16.642H122.08z"/>
        <path fill="#F05722" d="M57.305 103.926h39.39v-6.653h-39.39z"/>
        <path stroke="#000" stroke-width="3" d="M57.305 103.926h39.39v-6.653h-39.39z"/>
    </g>
</svg>
