<svg xmlns="http://www.w3.org/2000/svg" viewBox="0 0 200 200"><defs><style>.cls-1{fill:#dd3d12;}.cls-1,.cls-2,.cls-3,.cls-4{stroke:#000;stroke-miterlimit:10;stroke-width:3px;}.cls-2{fill:#ca970c;}.cls-3{fill:#e39bc4;}.cls-4{fill:#97cc8b;}</style></defs><title>portland_location_icons</title><g id="hospital"><rect class="cls-1" x="13.97" y="90.81" width="174.61" height="94.63"/><rect class="cls-2" x="6.28" y="90.81" width="190" height="11.98"/><rect class="cls-1" x="51.92" y="16.38" width="98.71" height="169.06"/><polygon class="cls-3" points="86.53 43.54 96.01 43.54 96.01 34.06 106.55 34.06 106.55 43.54 116.02 43.54 116.02 54.07 106.55 54.07 106.55 63.55 96.01 63.55 96.01 54.07 86.53 54.07 86.53 43.54"/><rect class="cls-2" x="44.25" y="11.67" width="114.05" height="11.98"/><rect class="cls-2" x="101.28" y="136.26" width="20.84" height="49.18"/><rect class="cls-2" x="80.44" y="136.26" width="20.84" height="49.18"/><rect class="cls-4" x="22.29" y="109.87" width="21.19" height="21.19"/><rect class="cls-4" x="22.29" y="139.65" width="21.19" height="21.19"/><rect class="cls-4" x="111.85" y="72.5" width="21.19" height="21.19"/><rect class="cls-4" x="111.85" y="102.29" width="21.19" height="21.19"/><rect class="cls-4" x="69.33" y="72.5" width="21.19" height="21.19"/><rect class="cls-4" x="69.33" y="102.29" width="21.19" height="21.19"/><rect class="cls-4" x="158.68" y="109.87" width="21.19" height="21.19"/><rect class="cls-4" x="158.68" y="139.65" width="21.19" height="21.19"/><rect class="cls-3" x="76.2" y="132.48" width="50.16" height="8.47"/></g></svg>