<svg xmlns="http://www.w3.org/2000/svg" width="154" height="163" viewBox="0 0 154 163">
    <g fill="none" fill-rule="evenodd">
        <path fill="#DBA825" d="M11.258 160.61h131.519V17.226H11.258z"/>
        <path stroke="#000" stroke-width="3" d="M11.258 160.61h131.519V17.226H11.258z"/>
        <path fill="#A2D39E" d="M56.694 153.022h39.67v-41.41h-39.67z"/>
        <path stroke="#000" stroke-width="3" d="M56.694 153.022h39.67v-41.41h-39.67zM76.53 111.612v41.41"/>
        <path fill="#EFAECE" d="M52.372 160.75h48.045v-7.727H52.372z"/>
        <path stroke="#000" stroke-width="3" d="M52.372 160.75h48.045v-7.727H52.372z"/>
        <path fill="#A2D39E" d="M19.55 48.627h23.487V25.14H19.549z"/>
        <path stroke="#000" stroke-width="3" d="M19.55 48.627h23.487V25.14H19.549z"/>
        <path fill="#A2D39E" d="M110.997 48.627h23.487V25.14h-23.487z"/>
        <path stroke="#000" stroke-width="3" d="M110.997 48.627h23.487V25.14h-23.487z"/>
        <path fill="#A2D39E" d="M65.273 48.627H88.76V25.14H65.273z"/>
        <path stroke="#000" stroke-width="3" d="M65.273 48.627H88.76V25.14H65.273z"/>
        <path fill="#A2D39E" d="M19.55 80.163h23.487V56.676H19.549z"/>
        <path stroke="#000" stroke-width="3" d="M19.55 80.163h23.487V56.676H19.549z"/>
        <path fill="#A2D39E" d="M110.997 80.163h23.487V56.676h-23.487z"/>
        <path stroke="#000" stroke-width="3" d="M110.997 80.163h23.487V56.676h-23.487z"/>
        <path fill="#A2D39E" d="M64.786 80.163h23.486V56.676H64.787z"/>
        <path stroke="#000" stroke-width="3" d="M64.786 80.163h23.486V56.676H64.787z"/>
        <path fill="#A2D39E" d="M19.55 111.7h23.487V88.213H19.549z"/>
        <path stroke="#000" stroke-width="3" d="M19.55 111.7h23.487V88.213H19.549z"/>
        <path fill="#A2D39E" d="M110.997 111.7h23.487V88.213h-23.487z"/>
        <path stroke="#000" stroke-width="3" d="M110.997 111.7h23.487V88.213h-23.487z"/>
        <path fill="#F05722" d="M2.417 17.226h149.2V2.416H2.418z"/>
        <path stroke="#000" stroke-width="3" d="M2.417 17.226h149.2V2.416H2.418z"/>
        <path fill="#F05722" d="M100.416 111.612c0-12.923-10.755-23.4-24.022-23.4-13.268 0-24.023 10.477-24.023 23.4h48.045z"/>
        <path stroke="#000" stroke-width="3" d="M100.416 111.612c0-12.923-10.755-23.4-24.022-23.4-13.268 0-24.023 10.477-24.023 23.4h48.045z"/>
        <path fill="#EFAECE" d="M76.394 88.213c-13.268 0-8.93 23.399-8.93 23.399h17.86s4.337-23.4-8.93-23.4"/>
        <path stroke="#000" stroke-width="3" d="M76.394 88.213c-13.268 0-8.93 23.399-8.93 23.399h17.86s4.337-23.4-8.93-23.4z"/>
    </g>
</svg>
