<svg xmlns="http://www.w3.org/2000/svg" viewBox="0 0 200 200"><defs><style>.cls-1{fill:#97cc8b;}.cls-1,.cls-2,.cls-3,.cls-4{stroke:#000;}.cls-1,.cls-2,.cls-3,.cls-4,.cls-5{stroke-miterlimit:10;stroke-width:3px;}.cls-2{fill:#dd3d12;}.cls-3{fill:#e39bc4;}.cls-4{fill:#ca970c;}.cls-5{fill:none;stroke:#191718;}</style></defs><title>portland_location_icons</title><g id="hospital"><rect class="cls-1" x="9.39" y="101.5" width="183.78" height="93.59"/><rect class="cls-2" x="9.39" y="92.45" width="183.78" height="29.78"/><rect class="cls-1" x="61.39" y="83.16" width="79.77" height="111.92"/><polygon class="cls-2" points="53.01 82.69 149.54 82.69 101.28 39.35 53.01 82.69"/><rect class="cls-3" x="61.39" y="185.87" width="79.77" height="9.21"/><rect class="cls-3" x="70.44" y="176.67" width="61.67" height="9.21"/><path class="cls-2" d="M115.49,141.31c0-3.07-1.59-9.82-14.21-9.82s-14.22,5.58-14.22,9.82v34.37h28.43Z"/><circle class="cls-4" cx="101.28" cy="105.11" r="15.93"/><line class="cls-4" x1="101.28" y1="89.18" x2="101.28" y2="105.11"/><line class="cls-4" x1="103.35" y1="105.11" x2="91.58" y2="105.11"/><rect class="cls-4" x="22.39" y="136.49" width="25.09" height="25.09"/><rect class="cls-4" x="154.15" y="136.49" width="25.09" height="25.09"/><rect class="cls-3" x="16.8" y="161.57" width="36.21" height="9.05"/><rect class="cls-3" x="148.59" y="161.57" width="36.21" height="9.05"/><line class="cls-5" x1="101.28" y1="40.38" x2="101.28" y2="5.08"/><polygon class="cls-4" points="101.28 5.08 101.28 23.28 128.22 14.18 101.28 5.08"/></g></svg>