<svg id="Layer_1" data-name="Layer 1" xmlns="http://www.w3.org/2000/svg" viewBox="0 0 300 300"><defs><style>.cls-1{fill:#dda812;}.cls-1,.cls-2,.cls-3,.cls-4,.cls-5,.cls-6,.cls-7{stroke:#000;stroke-miterlimit:10;stroke-width:3px;}.cls-2{fill:none;}.cls-3{fill:#ffaee4;}.cls-4{fill:#bf7c25;}.cls-6{fill:#fff;}.cls-7{fill:#f50;}</style></defs><title>portland_characters</title><rect class="cls-1" x="123.24" y="165.96" width="50.51" height="109.04"/><path class="cls-1" d="M119.35,155.88h61.3a28.8,28.8,0,0,1,28.8,28.8v90.1a0,0,0,0,1,0,0H90.55a0,0,0,0,1,0,0v-90.1A28.8,28.8,0,0,1,119.35,155.88Z"/><line class="cls-2" x1="114.51" y1="199.2" x2="114.51" y2="274.78"/><line class="cls-2" x1="185.48" y1="199.2" x2="185.48" y2="274.78"/><path class="cls-3" d="M132.95,142.05h35a0,0,0,0,1,0,0V156.8a17.51,17.51,0,0,1-17.51,17.51h0a17.51,17.51,0,0,1-17.51-17.51V142.05A0,0,0,0,1,132.95,142.05Z"/><circle class="cls-4" cx="102.29" cy="96.24" r="11.93"/><circle class="cls-4" cx="197.71" cy="96.24" r="11.93"/><path class="cls-4" d="M197.71,108.17a47.71,47.71,0,0,1-95.42,0V84.32a47.71,47.71,0,0,1,95.42,0Z"/><path class="cls-2" d="M161.93,114.13a11.93,11.93,0,0,1-23.86,0"/><rect class="cls-5" x="102.29" y="60.46" width="11.93" height="35.78"/><circle class="cls-5" cx="133.71" cy="90.28" r="5.96"/><circle class="cls-5" cx="166.29" cy="90.28" r="5.96"/><circle class="cls-6" cx="166.29" cy="89.13" r="4.01"/><circle class="cls-6" cx="133.71" cy="89.13" r="4.01"/><path class="cls-6" d="M160.92,275H140.07V190.81l-12.33-34.93,46-.34-12.83,35.27Z"/><polygon class="cls-7" points="156.22 188.43 144.1 188.43 138.94 171.15 144.1 166 156.22 166 161.37 171.15 156.22 188.43"/><polygon class="cls-7" points="162.59 254.51 150.16 260.57 137.73 254.51 143.79 188.43 156.52 188.43 162.59 254.51"/><polygon class="cls-4" points="131.58 166.77 127.74 155.88 173.75 155.54 169.94 166 131.58 166.77"/><polyline class="cls-1" points="126.02 152.88 113.19 156.57 120.64 161.86 112.09 169.13 140 223.83"/><polyline class="cls-1" points="174.98 152.88 187.81 156.57 180.36 161.86 188.91 169.13 161 223.83"/><polygon class="cls-6" points="140.75 177.32 122.98 157.43 126.81 151.39 148.48 165.13 140.75 177.32"/><polygon class="cls-6" points="159.57 177.32 177.34 157.43 173.51 151.39 151.84 165.13 159.57 177.32"/><path class="cls-5" d="M185.91,36.61c-14.9-10.3-39.19-15-57.7-8.85A59.53,59.53,0,0,0,90.49,65.47,59.55,59.55,0,0,0,143.3,73c11.51-3.84,23-10.35,31.37-18.86a23.87,23.87,0,0,0,11.24,15V96.24h11.93V48.54A11.93,11.93,0,0,0,185.91,36.61Z"/><line class="cls-2" x1="123.87" y1="87.86" x2="118.58" y2="86"/><line class="cls-2" x1="123.75" y1="92.12" x2="118.7" y2="94.56"/><line class="cls-2" x1="176.3" y1="87.86" x2="181.6" y2="86"/><line class="cls-2" x1="176.42" y1="92.12" x2="181.48" y2="94.56"/><path class="cls-5" d="M136.16,110A6.94,6.94,0,0,1,150,110Z"/><path class="cls-5" d="M150,110a6.94,6.94,0,0,1,13.87,0Z"/></svg>