<svg xmlns="http://www.w3.org/2000/svg" width="154" height="318" viewBox="0 0 154 318">
    <g fill="none" fill-rule="evenodd">
        <path fill="#DDA812" d="M43.492 315.908h63.422V178.996H43.492z"/>
        <path stroke="#000" stroke-width="4" d="M43.492 315.908h63.422V178.996H43.492z"/>
        <path fill="#F50" d="M151.74 315.63H2.45V202.503c0-19.972 16.192-36.163 36.163-36.163h76.964c19.972 0 36.163 16.191 36.163 36.163V315.63z"/>
        <path stroke="#000" stroke-width="4" d="M151.74 315.63H2.45V202.503c0-19.972 16.192-36.163 36.163-36.163h76.964c19.972 0 36.163 16.191 36.163 36.163V315.63zM32.54 220.733v94.897M121.65 220.733v94.897"/>
        <path fill="#FFAEE4" d="M77.674 189.486c-12.144 0-21.989-9.845-21.989-21.988v-18.516h43.977v18.516c0 12.143-9.844 21.988-21.988 21.988"/>
        <path stroke="#000" stroke-width="4" d="M77.674 189.486c-12.144 0-21.989-9.845-21.989-21.988v-18.516h43.977v18.516c0 12.143-9.844 21.988-21.988 21.988z"/>
        <path fill="#FFAEE4" d="M32.168 91.46c0 8.272-6.705 14.977-14.976 14.977S2.216 99.732 2.216 91.46 8.92 76.485 17.192 76.485c8.27 0 14.976 6.705 14.976 14.976"/>
        <path stroke="#000" stroke-width="4" d="M32.168 91.46c0 8.272-6.705 14.977-14.976 14.977S2.216 99.732 2.216 91.46 8.92 76.485 17.192 76.485c8.27 0 14.976 6.705 14.976 14.976z"/>
        <path fill="#FFAEE4" d="M151.974 91.46c0 8.272-6.705 14.977-14.976 14.977-8.27 0-14.976-6.705-14.976-14.976s6.705-14.976 14.976-14.976 14.976 6.705 14.976 14.976"/>
        <path stroke="#000" stroke-width="4" d="M151.974 91.46c0 8.272-6.705 14.977-14.976 14.977-8.27 0-14.976-6.705-14.976-14.976s6.705-14.976 14.976-14.976 14.976 6.705 14.976 14.976z"/>
        <path fill="#FFAEE4" d="M136.998 106.437c0 33.083-26.82 59.903-59.903 59.903-33.084 0-59.903-26.82-59.903-59.903V76.485c0-33.084 26.82-59.903 59.903-59.903 33.084 0 59.903 26.82 59.903 59.903v29.952z"/>
        <path stroke="#000" stroke-width="4" d="M136.998 106.437c0 33.083-26.82 59.903-59.903 59.903-33.084 0-59.903-26.82-59.903-59.903V76.485c0-33.084 26.82-59.903 59.903-59.903 33.084 0 59.903 26.82 59.903 59.903v29.952z"/>
        <path stroke="#000" stroke-width="4" d="M92.07 113.925c0 8.27-6.704 14.975-14.975 14.975s-14.976-6.704-14.976-14.975"/>
        <path fill="#9FE2A2" d="M62.12 83.973a7.488 7.488 0 1 1-14.976 0 7.488 7.488 0 0 1 14.975 0"/>
        <path stroke="#000" stroke-width="4" d="M62.12 83.973a7.488 7.488 0 1 1-14.976 0 7.488 7.488 0 0 1 14.975 0z"/>
        <path fill="#DDA812" d="M17.192 91.461h14.976V46.534H17.192z"/>
        <path stroke="#000" stroke-width="4" d="M17.192 91.461h14.976V46.534H17.192z"/>
        <path fill="#9FE2A2" d="M107.047 83.973a7.488 7.488 0 1 1-14.976 0 7.488 7.488 0 0 1 14.976 0"/>
        <path stroke="#000" stroke-width="4" d="M107.047 83.973a7.488 7.488 0 1 1-14.976 0 7.488 7.488 0 0 1 14.976 0z"/>
        <path fill="#FFF" d="M90.807 315.908H64.632V210.204L49.145 166.34l57.769-.432-16.107 44.296z"/>
        <path stroke="#000" stroke-width="4" d="M90.807 315.908H64.632V210.204L49.145 166.34l57.769-.432-16.107 44.296z"/>
        <path fill="#DDA812" d="M84.907 207.208H69.683l-6.47-21.694 6.47-6.47h15.224l6.47 6.47z"/>
        <path stroke="#000" stroke-width="4" d="M84.907 207.208H69.683l-6.47-21.694 6.47-6.47h15.224l6.47 6.47z"/>
        <path fill="#DDA812" d="M92.9 290.176l-15.605 7.612-15.604-7.612 7.612-82.968h15.984z"/>
        <path stroke="#000" stroke-width="4" d="M92.9 290.176l-15.605 7.612-15.604-7.612 7.612-82.968h15.984z"/>
        <path fill="#FFAEE4" d="M53.97 180.009l-4.824-13.668 57.768-.432-4.777 13.135z"/>
        <path stroke="#000" stroke-width="4" d="M53.97 180.009l-4.824-13.668 57.768-.432-4.777 13.135z"/>
        <path fill="#F50" d="M46.991 162.578l-16.112 4.627 9.349 6.639-10.728 9.138 35.038 68.673"/>
        <path stroke="#000" stroke-width="4" d="M46.991 162.578l-16.112 4.627 9.349 6.639-10.728 9.138 35.038 68.673"/>
        <path fill="#F50" d="M108.457 162.578l16.112 4.627-9.35 6.639 10.728 9.138-35.037 68.673"/>
        <path stroke="#000" stroke-width="4" d="M108.457 162.578l16.112 4.627-9.35 6.639 10.728 9.138-35.037 68.673"/>
        <path fill="#FFF" d="M65.484 193.257L43.165 168.29l4.806-7.583 27.212 17.242z"/>
        <path stroke="#000" stroke-width="4" d="M65.484 193.257L43.165 168.29l4.806-7.583 27.212 17.242z"/>
        <path fill="#FFF" d="M89.106 193.257l22.319-24.966-4.806-7.583-27.212 17.242z"/>
        <path stroke="#000" stroke-width="4" d="M89.106 193.257l22.319-24.966-4.806-7.583-27.212 17.242z"/>
        <path fill="#DDA812" d="M73.375 110.102c-3.207 3.208-18.661-4.453-18.661-4.453l9.33-4.294c2.926-3.751 5.996-3.972 9.33 0 0 0 3.208 5.54 0 8.747"/>
        <path stroke="#000" stroke-width="4" d="M73.375 110.102c-3.207 3.208-18.661-4.453-18.661-4.453l9.33-4.294c2.926-3.751 5.996-3.972 9.33 0 0 0 3.208 5.54 0 8.747z"/>
        <path fill="#DDA812" d="M81.215 110.102c3.208 3.208 18.66-4.453 18.66-4.453l-9.33-4.294c-2.925-3.751-5.994-3.972-9.33 0 0 0-3.207 5.54 0 8.747"/>
        <path stroke="#000" stroke-width="4" d="M81.215 110.102c3.208 3.208 18.66-4.453 18.66-4.453l-9.33-4.294c-2.925-3.751-5.994-3.972-9.33 0 0 0-3.207 5.54 0 8.747z"/>
        <path fill="#DDA812" d="M122.182 16.582C103.472 3.649 72.974-2.278 49.735 5.468c-23.24 7.746-40.15 25.786-47.359 47.357 18.71 12.934 43.062 17.218 66.301 9.473 14.46-4.82 28.843-12.992 39.389-23.672 1.952 8.036 7.14 14.802 14.116 18.843v33.992h14.976V31.558c0-8.272-6.705-14.976-14.976-14.976"/>
        <path stroke="#000" stroke-width="4" d="M122.182 16.582C103.472 3.649 72.974-2.278 49.735 5.468c-23.24 7.746-40.15 25.786-47.359 47.357 18.71 12.934 43.062 17.218 66.301 9.473 14.46-4.82 28.843-12.992 39.389-23.672 1.952 8.036 7.14 14.802 14.116 18.843v33.992h14.976V31.558c0-8.272-6.705-14.976-14.976-14.976z"/>
    </g>
</svg>
