<?xml version="1.0" encoding="UTF-8"?>
<svg width="124px" height="253px" viewBox="0 0 124 253" version="1.1" xmlns="http://www.w3.org/2000/svg" xmlns:xlink="http://www.w3.org/1999/xlink">
    <!-- Generator: sketchtool 50.2 (55047) - http://www.bohemiancoding.com/sketch -->
    <title>253041A5-29AA-402B-A5F7-30C0E47D84D7</title>
    <desc>Created with sketchtool.</desc>
    <defs></defs>
    <g id="Symbols" stroke="none" stroke-width="1" fill="none" fill-rule="evenodd">
        <g id="mateo">
            <path d="M100.1914,133.3406 L92.5134,138.1946 L101.1804,145.6236 L72.1894,202.0886 L74.8424,231.0176 L73.1764,231.8306 L73.1764,251.2896 L121.7054,251.2896 L121.7054,237.5136 L121.7054,210.2356 L121.7054,181.5106 L121.7054,163.3556 C121.7054,158.6626 121.0604,154.0916 119.1954,149.7466 C116.5544,143.5936 111.8264,138.4836 105.8364,135.4706 C104.0364,134.5666 102.1414,133.8496 100.1914,133.3406" id="Fill-141" fill="#DDA812"></path>
            <path d="M92.5137,138.1946 L100.1917,133.3406 C100.0737,133.3096 99.9607,133.2676 99.8427,133.2386 L100.0657,133.0806 L87.2327,129.3946 L87.1057,130.0136 L89.5967,133.9456 L71.8217,153.8286 L71.8017,153.7956 L68.4777,164.9396 L68.7807,164.9396 L72.1887,202.0886 L101.1807,145.6236 L92.5137,138.1946 Z" id="Fill-142" fill="#A1D29D"></path>
            <path d="M32.6113,138.1946 L26.0313,132.9126 L25.8163,132.9746 C12.5053,135.6926 2.9423,147.8966 2.8073,161.3616 C2.7573,166.2796 2.7983,171.2006 2.7973,176.1186 C2.7953,185.5836 2.7963,195.0476 2.7983,204.5116 C2.7993,214.1726 2.8013,223.8326 2.8033,233.4936 C2.8043,239.1486 2.8063,244.8026 2.8073,250.4576 L2.8073,251.2896 L52.3303,251.2896 L52.3303,232.1596 L62.4153,237.0796 L49.9873,231.0176 L52.7423,200.9936 L24.1803,145.4566 L32.6113,138.1946 Z" id="Fill-143" fill="#DDA812"></path>
            <polygon id="Fill-144" fill="#A1D29D" points="56.353 164.9397 53.029 153.7957 53.009 153.8287 35.234 133.9457 38.081 129.4517 26.032 132.9127 32.611 138.1947 24.18 145.4567 52.742 200.9937 56.05 164.9397"></polygon>
            <path d="M109.9648,60.8279 L109.9648,72.7549 L98.1648,72.7549 L98.1648,45.6829 C92.6088,42.4649 88.4768,37.0769 86.9218,30.6759 C81.0788,36.5939 74.0878,41.2999 66.6468,44.9689 C58.9028,48.7869 50.5648,51.5979 41.9278,52.3609 C36.7778,52.8169 31.5668,52.5839 26.4748,51.6929 L26.4748,72.7549 L14.5478,72.7549 L14.5478,60.8279 C8.1108,60.8279 2.6208,66.3189 2.6208,72.7549 C2.6208,79.1909 8.1108,84.6819 14.5478,84.6819 C14.5478,105.0209 27.2798,122.3769 45.2048,129.2409 L45.2048,131.7989 L60.7338,141.6379 L60.1808,142.5099 L64.6498,142.5099 L64.0978,141.6379 L80.2288,131.4159 L80.2288,128.8769 C97.6668,121.7779 109.9648,104.6709 109.9648,84.6819 C116.4018,84.6819 121.8918,79.1909 121.8918,72.7549 C121.8918,66.3189 116.4018,60.8279 109.9648,60.8279" id="Fill-145" fill="#BF7C25"></path>
            <polygon id="Fill-146" fill="#DDA812" points="55.811 149.406 55.811 149.406 55.121 150.494"></polygon>
            <path d="M62.2563,104.073 C54.8523,104.073 48.8293,98.05 48.8293,90.646 L51.8293,90.646 C51.8293,96.267 56.6353,101.073 62.2563,101.073 C67.8773,101.073 72.6833,96.267 72.6833,90.646 L75.6833,90.646 C75.6833,98.05 69.6593,104.073 62.2563,104.073" id="Fill-147" fill="#000000"></path>
            <path d="M45.9687,59.3279 C41.9437,59.3279 38.5057,62.7699 38.5057,66.7919 C38.5057,70.8179 41.9447,74.2549 45.9687,74.2549 C49.9927,74.2549 53.4327,70.8179 53.4327,66.7919 C53.4327,62.7699 49.9937,59.3279 45.9687,59.3279" id="Fill-148" fill="#000000"></path>
            <path d="M78.5435,59.3279 C74.5185,59.3279 71.0795,62.7699 71.0795,66.7919 C71.0795,70.8189 74.5185,74.2549 78.5435,74.2549 C82.5675,74.2549 86.0065,70.8179 86.0065,66.7919 C86.0065,62.7699 82.5685,59.3279 78.5435,59.3279" id="Fill-149" fill="#000000"></path>
            <path d="M81.0522,65.6384 C81.0522,62.4094 76.0342,62.4094 76.0342,65.6384 C76.0342,68.8654 81.0522,68.8724 81.0522,65.6384" id="Fill-150" fill="#FFFFFF"></path>
            <path d="M45.9687,63.1296 C42.7397,63.1296 42.7397,68.1476 45.9687,68.1476 C49.1957,68.1476 49.2027,63.1296 45.9687,63.1296" id="Fill-151" fill="#FFFFFF"></path>
            <polygon id="Fill-152" fill="#EEADCD" points="53.0088 153.8284 35.2338 133.9454 39.0608 127.9054 60.7338 141.6374"></polygon>
            <path d="M37.1074,133.7903 L52.8044,151.3493 L58.6634,142.1023 L39.5244,129.9753 L37.1074,133.7903 Z M53.2134,156.3083 L33.3594,134.1003 L38.5964,125.8353 L62.8034,141.1733 L53.2134,156.3083 Z" id="Fill-153" fill="#000000"></path>
            <polygon id="Fill-154" fill="#EEADCD" points="71.8218 153.8284 89.5968 133.9454 85.7698 127.9054 64.0978 141.6374"></polygon>
            <path d="M66.1675,142.1018 L72.0265,151.3488 L87.7235,133.7898 L85.3055,129.9758 L66.1675,142.1018 Z M71.6175,156.3078 L62.0275,141.1728 L86.2345,125.8358 L91.4715,134.0998 L71.6175,156.3078 Z" id="Fill-155" fill="#000000"></path>
            <path d="M98.1646,13.1194 C85.5566,4.4054 69.5366,0.6444 54.3306,1.6504 C39.8666,2.6074 26.0656,9.2504 16.0996,19.7434 C10.0946,26.0634 5.5106,33.7184 2.7476,41.9854 C6.4326,44.5324 10.3936,46.6544 14.5476,48.3184 L14.5476,72.7554 L26.4746,72.7554 L26.4746,51.6934 C43.5506,54.6814 60.9806,49.3894 75.2806,40.0694 C79.4646,37.3424 83.4096,34.2334 86.9216,30.6764 C88.4766,37.0764 92.6086,42.4654 98.1646,45.6834 L98.1646,72.7554 L110.0916,72.7554 L110.0916,45.0074 L110.0916,30.7394 C110.0916,26.6054 110.5356,22.1614 108.1576,18.5334 C105.9786,15.2094 102.1416,13.1194 98.1646,13.1194" id="Fill-156" fill="#000000"></path>
            <polygon id="Fill-157" fill="#000000" points="35.6343 65.7825 30.3373 63.9285 31.3283 61.0965 36.6253 62.9505"></polygon>
            <polygon id="Fill-158" fill="#000000" points="31.604 72.4226 30.302 69.7196 35.359 67.2846 36.661 69.9876"></polygon>
            <polygon id="Fill-159" fill="#000000" points="89.0562 65.7825 88.0652 62.9505 93.3622 61.0965 94.3532 63.9285"></polygon>
            <polygon id="Fill-160" fill="#000000" points="93.0869 72.4226 88.0299 69.9876 89.3319 67.2846 94.3889 69.7196"></polygon>
            <path d="M69.1592,78.1013 C66.3052,78.1013 63.7832,79.5293 62.2562,81.7053 C60.0732,78.5943 55.8662,77.3183 52.3172,78.6723 C48.3472,80.1893 46.9212,84.0673 46.9212,88.0333 L77.5912,88.0333 C77.5912,85.4033 77.2212,82.8553 75.3752,80.8493 C73.7922,79.1283 71.5012,78.1013 69.1592,78.1013" id="Fill-161" fill="#000000"></path>
            <polygon id="Fill-162" fill="#FF5500" points="68.7808 164.9397 68.4778 164.9397 71.8018 153.7957 64.6498 142.5097 60.1808 142.5097 53.0298 153.7957 56.3528 164.9397 56.0508 164.9397 49.9878 231.0177 62.4158 237.0797 74.8428 231.0177"></polygon>
            <polygon id="Fill-163" fill="#EEADCD" points="52.3301 232.1599 52.3301 251.2899 73.1761 251.2899 73.1761 231.8299 62.4151 237.0789"></polygon>
            <path d="M120.2051,249.7898 L99.2411,249.7898 L99.2411,175.7108 L96.2411,175.7108 L96.2411,249.7898 L74.6761,249.7898 L74.6761,232.7678 L76.4311,231.9118 L73.7491,202.6778 L103.0381,145.2718 L95.0591,138.4748 L100.1351,134.8708 C106.3741,136.5868 111.8281,140.5828 115.4311,145.9488 C117.1921,148.5718 118.5051,151.4918 119.3001,154.5498 C120.2311,158.1308 120.2071,161.7188 120.2081,165.3928 C120.2151,183.4678 120.2051,201.5418 120.2051,219.6168 L120.2051,249.7898 Z M62.4151,235.4108 L51.5761,230.1228 L54.2261,201.2468 L54.3651,201.1748 L54.2521,200.9538 L57.4181,166.4398 L67.4121,166.4398 L73.2541,230.1228 L62.4151,235.4108 Z M71.6761,249.7898 L53.8301,249.7898 L53.8301,234.5608 L62.4151,238.7478 L71.6761,234.2308 L71.6761,249.7898 Z M50.8301,233.0968 L50.8301,249.7898 L28.2711,249.7898 L28.2711,175.7108 L25.2711,175.7108 L25.2711,249.7898 L4.30702882,249.7898 L4.3071,195.8548 L4.3071,168.7978 C4.3071,161.6948 4.2471,154.9008 7.6111,148.4318 C11.1771,141.5738 17.5961,136.5218 25.1091,134.6798 L30.4551,138.4748 L22.4761,145.2718 L51.1851,201.5428 L48.3991,231.9118 L50.8301,233.0968 Z M31.6081,133.8918 L33.4921,133.8918 L33.3591,134.0998 L51.7121,154.6288 L54.6011,164.3128 L51.6991,195.9488 L26.2251,146.0188 L35.3331,138.2598 L29.3261,133.9938 C30.0801,133.9318 30.8391,133.8918 31.6081,133.8918 Z M39.5251,129.9758 L58.6631,142.1018 L52.8041,151.3488 L37.1071,133.7898 L39.5251,129.9758 Z M62.2561,133.8908 C67.4671,133.8908 72.4861,133.0668 77.2021,131.5588 L62.4151,140.9278 L47.9671,131.7728 C52.4901,133.1488 57.2881,133.8908 62.2561,133.8908 Z M16.0471,84.6828 L16.0471,74.2548 L27.9751,74.2548 L27.9751,53.4518 C44.3161,55.8178 60.8471,50.8608 74.6741,42.2368 C78.7731,39.6798 82.6631,36.7788 86.1931,33.4768 C88.0971,38.8448 91.8031,43.4838 96.6641,46.5308 L96.6641,74.2548 L108.4651,74.2548 C108.4651,80.4428 108.7441,86.6838 107.7211,92.8148 C106.8461,98.0628 104.9421,103.1358 102.2781,107.7358 C97.3111,116.3108 89.6161,123.2348 80.4811,127.1068 C63.0781,134.4848 42.0441,130.3338 28.9331,116.6618 C20.7571,108.1358 16.0471,96.4998 16.0471,84.6828 Z M4.5401,41.3868 C9.0731,28.6258 18.1061,17.5988 29.7931,10.7378 C43.0551,2.9528 58.9501,1.4508 73.8331,4.6038 C82.3211,6.4018 90.5461,9.6668 97.6971,14.6198 C103.4901,14.5778 108.4291,19.0458 108.5811,24.8878 C108.6611,27.9588 108.6071,31.0388 108.6031,34.1098 C108.5911,43.9878 108.5471,53.8648 108.5011,63.7428 C108.4901,66.2468 108.4771,68.7508 108.4651,71.2548 L99.6641,71.2548 L99.6641,44.8188 C96.6621,43.0808 93.9431,40.8258 91.9091,37.9978 C89.6931,34.9168 88.6291,31.3518 87.7441,27.7068 C75.5941,40.0178 59.4391,49.2448 42.0051,50.8368 C36.3031,51.3578 30.6021,50.8928 24.9751,49.9078 L24.9751,71.2548 L16.0471,71.2548 L16.0471,47.3038 C12.0231,45.6908 8.1601,43.7858 4.5401,41.3868 Z M70.1681,154.0218 L67.3601,163.4398 L57.4711,163.4398 L54.6621,154.0218 C56.7771,150.6848 58.8911,147.3468 61.0061,144.0098 L63.8251,144.0098 L70.1681,154.0218 Z M87.7231,133.7898 L72.0271,151.3488 C70.0741,148.2668 68.1211,145.1848 66.1671,142.1018 L85.3061,129.9758 L87.7231,133.7898 Z M92.9041,133.8918 C93.9741,133.8918 95.0281,133.9598 96.0661,134.0808 L90.1801,138.2598 L99.2881,146.0188 L73.2361,197.0828 L70.2291,164.3138 L73.1181,154.6288 L91.4711,134.0998 L91.3391,133.8918 L92.9041,133.8918 Z M13.0471,71.2548 L13.0471,83.0748 C8.0351,82.3498 4.1201,77.8188 4.1201,72.7548 C4.1201,67.6918 8.0351,63.1608 13.0471,62.4358 L13.0471,71.2548 Z M111.5921,62.4598 C116.5471,63.2408 120.3921,67.7388 120.3921,72.7548 C120.3921,77.8188 116.4781,82.3498 111.4651,83.0748 L111.5921,62.4598 Z M103.1991,132.6948 L87.6471,127.9528 L87.6251,128.0298 L87.0701,127.1538 C101.2601,118.8268 110.9311,103.5928 111.4291,86.0988 C118.0161,85.3808 123.2901,79.5708 123.3891,72.9498 C123.4891,66.2438 118.2481,60.2458 111.5921,59.4368 L111.5921,43.4748 C111.5921,38.1648 111.8131,32.8528 111.6971,27.5438 C111.6051,23.3688 111.1301,19.5668 108.2891,16.2978 C105.8681,13.5108 102.3431,11.7578 98.6411,11.6278 C85.6691,2.8238 69.3501,-0.9422 53.7951,0.1998 C38.8361,1.2978 24.6481,8.2448 14.4591,19.2358 C8.2721,25.9088 3.8421,33.9728 0.9681,42.5788 C4.7821,45.2148 8.7661,47.5268 13.0471,49.3248 L13.0471,59.4168 C6.3351,60.1678 1.0221,66.1968 1.1231,72.9498 C1.2221,79.5708 6.4971,85.3808 13.0831,86.0988 C13.5841,103.6878 23.3601,118.9888 37.6771,127.2858 L37.1191,128.1668 L25.4051,131.5328 C11.6051,134.4148 1.5201,147.0748 1.3091,161.0848 C1.0141,180.7358 1.3071,200.4148 1.3071,220.0678 L1.3071,252.7898 L96.2751,252.7898 L123.2051,252.7898 L123.2051,199.5488 L123.2051,172.9778 C123.2051,164.7038 123.9831,156.1108 120.3711,148.4108 C116.9751,141.1708 110.7221,135.4208 103.1991,132.6948 Z" id="Fill-164" fill="#000000"></path>
        </g>
    </g>
</svg>