<?xml version="1.0" encoding="UTF-8"?>
<svg width="121px" height="235px" viewBox="0 0 121 235" version="1.1" xmlns="http://www.w3.org/2000/svg" xmlns:xlink="http://www.w3.org/1999/xlink">
    <!-- Generator: sketchtool 50.2 (55047) - http://www.bohemiancoding.com/sketch -->
    <title>17AC2B0B-8472-4E48-B6FE-21DEEB7AA776</title>
    <desc>Created with sketchtool.</desc>
    <defs></defs>
    <g id="Symbols" stroke="none" stroke-width="1" fill="none" fill-rule="evenodd">
        <g id="mateo_lose">
            <path d="M93.5149,116.942 C92.0639,118.331 90.5719,119.658 88.9719,120.874 L98.8169,129.793 L70.4829,185.788 L73.0219,213.461 L70.4409,214.719 L71.3889,233.328 L118.9489,233.328 L118.9489,220.463 L118.9489,191.692 L118.9489,161.758 C118.9489,156.306 118.9569,150.854 118.9489,145.402 C118.9289,132.909 110.8819,121.58 98.7979,117.978 C97.0759,117.464 95.3039,117.118 93.5149,116.942" id="Fill-1" fill="#DDA812"></path>
            <path d="M88.9719,120.8737 C86.3339,122.8787 83.4889,124.6107 80.4879,126.0167 L70.0609,137.8117 L67.0799,148.7017 L70.4829,185.7877 L98.8169,129.7927 L88.9719,120.8737 Z" id="Fill-3" fill="#A2D39F"></path>
            <path d="M33.2883,121.5319 C31.3713,120.1419 29.5323,118.6169 27.8573,116.9419 C13.5213,118.3499 2.5143,130.7249 2.4243,145.0489 C2.3953,149.6059 2.4243,154.1639 2.4243,158.7209 L2.4243,187.7819 L2.4243,217.4889 L2.4243,233.1009 L2.4243,233.3279 L50.9583,233.3279 C50.9583,229.5619 51.1613,222.8649 51.4713,214.8309 L48.6633,213.4609 L51.3493,184.1749 L23.5373,129.7929 L33.2883,121.5319 Z" id="Fill-5" fill="#DDA812"></path>
            <path d="M51.6233,137.8121 L42.3583,126.6821 C39.1293,125.3051 36.0943,123.5671 33.2883,121.5321 L23.5373,129.7921 L51.3493,184.1741 L54.6033,148.7021 L51.6233,137.8121 Z" id="Fill-7" fill="#A2D39F"></path>
            <path d="M95.8781,13.5241 C83.6681,5.0851 67.7261,1.3401 53.0081,2.2781 C38.2101,3.2191 24.2581,10.1741 14.3621,21.1931 C9.0081,27.1541 4.9041,34.2141 2.3651,41.8131 C11.8571,48.3751 23.2481,52.0471 34.7891,52.2141 C46.8501,52.3891 58.5251,48.5011 68.9641,42.6451 C74.7501,39.4001 80.1911,35.4581 84.8591,30.7301 C86.3831,37.0031 90.4331,42.2841 95.8781,45.4381 L95.8781,71.9691 L107.5671,71.9691 L107.5671,48.8971 L107.5671,26.3751 C107.5671,23.9931 107.2981,21.7161 106.1221,19.5811 C104.0831,15.8791 100.1051,13.5241 95.8781,13.5241" id="Fill-9" fill="#000000"></path>
            <path d="M13.9299,48.0202 L13.9299,71.9692 L25.6189,71.9692 L25.6189,51.3282 C21.6039,50.6242 17.6839,49.5252 13.9299,48.0202" id="Fill-11" fill="#000000"></path>
            <path d="M95.8781,71.9694 L95.8781,45.4384 C90.4331,42.2834 86.3831,37.0024 84.8591,30.7304 C79.1201,36.5414 72.2261,41.1784 64.9131,44.7744 C57.2221,48.5554 48.9821,51.3154 40.4041,52.0124 C35.3861,52.4204 30.3181,52.1694 25.3641,51.2764 C25.4501,51.2914 25.5331,51.3134 25.6191,51.3274 L25.6191,71.9694 L13.9301,71.9694 C13.9301,80.7414 13.4431,89.5344 16.1731,98.0094 C19.9981,109.8794 28.6421,119.9184 39.7921,125.4974 C51.3271,131.2694 65.0861,131.9754 77.1561,127.4314 C88.8781,123.0184 98.5311,113.8454 103.5471,102.3694 C106.1271,96.4704 107.4171,90.0914 107.4421,83.6574 C107.4561,80.1614 107.4421,76.6644 107.4421,73.1684 L107.4421,71.9694 L95.8781,71.9694 Z" id="Fill-13" fill="#BF7C25"></path>
            <path d="M15.3996,73.4381 C15.3996,82.1321 15.0686,90.6871 18.0806,99.0161 C22.0826,110.0861 30.4526,119.3421 41.0486,124.4621 C52.0186,129.7621 64.9716,130.3741 76.3946,126.1361 C87.4286,122.0421 96.6166,113.5981 101.6496,102.9611 C104.5046,96.9241 105.9446,90.3201 105.9716,83.6481 C105.9856,80.2451 105.9716,76.8411 105.9716,73.4381 L94.4076,73.4381 L94.4076,46.2681 C89.6436,43.2821 86.0116,38.7361 84.1456,33.4741 C76.9056,40.2481 68.1646,45.3941 58.9616,49.0101 C48.7926,53.0061 37.9496,54.6241 27.0886,53.0461 L27.0886,73.4381 L15.3996,73.4381 Z M60.6856,131.8841 C47.2756,131.8841 34.2816,126.1511 25.2046,116.2881 C16.7626,107.1161 12.4596,95.2081 12.4596,82.8081 L12.4596,70.4991 L24.1486,70.4991 L24.1486,51.3281 L25.3556,51.3281 L25.6256,49.8301 L25.6286,49.8301 C44.2196,53.1841 63.4866,46.3511 78.0656,34.8251 C80.7816,32.6781 83.2376,30.2801 85.6656,27.8211 C86.4126,30.8931 87.1956,33.8461 88.8646,36.5801 C90.9586,40.0101 93.8946,42.5901 97.3476,44.5901 L97.3476,70.4991 L108.9126,70.4991 C108.9126,79.4031 109.5186,88.4781 106.9986,97.1281 C103.3126,109.7801 94.3516,120.5821 82.6326,126.5951 C75.8626,130.0701 68.2946,131.8841 60.6856,131.8841 Z" id="Fill-15" fill="#000000"></path>
            <path d="M107.4426,60.2799 L107.4426,71.9689 L95.8786,71.9689 L95.8786,45.4379 C90.4326,42.2839 86.3826,37.0029 84.8596,30.7299 C79.1206,36.5419 72.2256,41.1779 64.9136,44.7739 C57.2226,48.5549 48.9816,51.3149 40.4036,52.0119 C35.3866,52.4209 30.3186,52.1699 25.3646,51.2759 C25.4496,51.2919 25.5336,51.3129 25.6186,51.3279 L25.6186,71.9689 L13.9296,71.9689 L13.9296,60.2799 C7.5596,60.2799 2.2406,65.5999 2.2406,71.9689 C2.2406,78.3389 7.5596,83.6579 13.9296,83.6579 C13.9296,103.0509 26.3556,120.8729 44.5666,127.5609 C62.9836,134.3259 84.2026,128.5629 96.7076,113.4699 C103.6196,105.1269 107.4426,94.4919 107.4426,83.6579 C113.8126,83.6579 119.1316,78.3389 119.1316,71.9689 C119.1316,65.5989 113.8126,60.2799 107.4426,60.2799" id="Fill-17" fill="#BF7C25"></path>
            <path d="M73.7566,96.3864 C69.8186,92.4484 63.2436,92.4484 59.3046,96.3864 L57.2256,94.3084 C62.2976,89.2354 70.7646,89.2354 75.8356,94.3084 L73.7566,96.3864 Z" id="Fill-19" fill="#000000"></path>
            <path d="M44.7238,67.5944 C40.6908,67.5944 37.4088,64.3134 37.4088,60.2804 L40.3488,60.2804 C40.3488,65.9164 49.0988,65.9204 49.0988,60.2804 L52.0388,60.2804 C52.0388,64.3134 48.7568,67.5944 44.7238,67.5944" id="Fill-21" fill="#000000"></path>
            <path d="M76.6482,67.5944 C72.6152,67.5944 69.3332,64.3134 69.3332,60.2804 L72.2732,60.2804 C72.2732,65.9164 81.0222,65.9204 81.0222,60.2804 L83.9622,60.2804 C83.9622,64.3134 80.6812,67.5944 76.6482,67.5944" id="Fill-23" fill="#000000"></path>
            <polygon id="Fill-25" fill="#000000" points="34.5954 65.1354 29.4044 63.3184 30.3754 60.5424 35.5674 62.3604"></polygon>
            <polygon id="Fill-27" fill="#000000" points="30.6452 71.6422 29.3702 68.9942 34.3262 66.6082 35.6012 69.2562"></polygon>
            <polygon id="Fill-29" fill="#000000" points="86.9509 65.1354 85.9789 62.3604 91.1709 60.5424 92.1429 63.3184"></polygon>
            <polygon id="Fill-31" fill="#000000" points="90.9011 71.6422 85.9451 69.2562 87.2211 66.6082 92.1761 68.9942"></polygon>
            <path d="M67.4509,77.2086 C64.6549,77.2086 62.1819,78.6086 60.6859,80.7406 C58.2199,77.2266 53.3219,76.1746 49.6489,78.4006 C46.4939,80.3126 45.6569,83.4816 45.6569,86.9416 L69.0889,86.9416 L75.7149,86.9416 C75.7149,84.7066 75.5509,82.6456 74.2229,80.7436 C72.6909,78.5506 70.1289,77.2086 67.4509,77.2086" id="Fill-33" fill="#000000"></path>
            <path d="M65.2317,130.191 L70.0607,137.812 L80.6877,125.925 C75.9217,128.184 70.7167,129.662 65.2317,130.191" id="Fill-35" fill="#FFAEE4"></path>
            <path d="M41.2087,126.1627 L51.6237,137.8117 L56.4377,130.2137 C51.0437,129.7267 45.9177,128.3237 41.2087,126.1627" id="Fill-37" fill="#FFAEE4"></path>
            <path d="M65.2448,130.1891 C65.9758,130.1191 66.7018,130.0281 67.4218,129.9241 C66.7018,130.0291 65.9758,130.1181 65.2448,130.1891" id="Fill-39" fill="#FF5500"></path>
            <path d="M65.3855,131.652 L65.1005,128.726 C65.8065,128.656 66.5105,128.571 67.2135,128.469 L67.6335,131.38 L67.6315,131.38 L67.6305,131.38 C66.8855,131.489 66.1355,131.582 65.3855,131.652" id="Fill-41" fill="#000000"></path>
            <path d="M67.4914,129.9127 C68.1904,129.8107 68.8834,129.6927 69.5724,129.5597 C68.8834,129.6927 68.1894,129.8097 67.4914,129.9127" id="Fill-43" fill="#FF5500"></path>
            <path d="M67.7024,131.3678 L67.2774,128.4588 C67.9554,128.3588 68.6274,128.2438 69.2954,128.1168 L69.8484,131.0038 C69.1394,131.1398 68.4254,131.2628 67.7054,131.3668 C67.7044,131.3668 67.7034,131.3678 67.7024,131.3678" id="Fill-45" fill="#000000"></path>
            <path d="M54.2824,129.9655 C54.5994,130.0095 54.9204,130.0425 55.2404,130.0795 C54.9204,130.0415 54.5994,130.0105 54.2824,129.9655" id="Fill-47" fill="#FF5500"></path>
            <path d="M55.0695,131.5397 C54.7605,131.5067 54.4515,131.4727 54.1435,131.4307 C54.1425,131.4317 54.1395,131.4297 54.1375,131.4297 C54.1185,131.4267 54.0995,131.4247 54.0805,131.4217 L54.4845,128.5097 C54.4965,128.5087 54.5105,128.5137 54.5245,128.5157 C54.5275,128.5157 54.5285,128.5147 54.5315,128.5167 C54.8245,128.5557 55.1195,128.5867 55.4135,128.6197 L55.0695,131.5397 Z" id="Fill-49" fill="#000000"></path>
            <path d="M52.1721,129.6246 C52.6291,129.7086 53.0891,129.7806 53.5511,129.8526 C53.0891,129.7806 52.6291,129.7086 52.1721,129.6246" id="Fill-51" fill="#FF5500"></path>
            <path d="M53.3288,131.3043 C52.8528,131.2323 52.3768,131.1573 51.9058,131.0713 L52.4378,128.1793 C52.8788,128.2603 53.3248,128.3283 53.7698,128.3983 L53.7748,128.3983 L53.3288,131.3043 Z" id="Fill-53" fill="#000000"></path>
            <path d="M67.0803,148.7018 L66.7833,148.7018 L70.0403,137.7798 L65.2313,130.1908 C62.3083,130.4778 59.3623,130.4848 56.4373,130.2148 L51.6433,137.7798 L54.9013,148.7018 L54.6033,148.7018 L48.6633,213.4608 L60.8423,219.4018 L73.0213,213.4608 L67.0803,148.7018 Z" id="Fill-55" fill="#FF5500"></path>
            <path d="M55.9963,147.2321 L65.6873,147.2321 L68.4403,138.0021 L64.4693,131.7341 C62.0583,131.9261 59.6853,131.9361 57.2023,131.7531 L53.2433,138.0021 L55.9963,147.2321 Z M67.8793,150.1711 L53.8053,150.1711 L50.0433,137.5581 L55.6773,128.6691 C59.1343,128.9861 62.5343,128.9801 65.9893,128.6391 L71.6403,137.5581 L67.8793,150.1711 Z" id="Fill-57" fill="#000000"></path>
            <polygon id="Fill-59" fill="#FFAEE4" points="60.842 219.402 50.958 214.581 50.958 233.328 71.388 233.328 71.388 214.257"></polygon>
            <path d="M117.4782,231.8581 L96.9332,231.8581 L96.9332,159.2571 L93.9922,159.2571 L93.9922,231.8581 L72.8582,231.8581 L72.8582,215.1751 L74.5782,214.3371 L71.9492,185.6861 L100.6532,129.4251 L92.8332,122.7651 L97.8232,119.2221 C109.6092,122.4201 117.4572,133.3091 117.4782,145.3871 C117.4872,150.5081 117.4782,155.6291 117.4782,160.7511 L117.4782,189.0031 L117.4782,217.1211 L117.4782,231.6431 L117.4782,231.8581 Z M52.4372,231.8581 C52.4722,228.6071 52.6112,223.6781 52.8542,217.1411 L60.8422,221.0371 L69.0852,217.0161 L69.8422,231.8581 L52.4372,231.8581 Z M27.3792,231.8581 L27.3792,159.2571 L24.4382,159.2571 L24.4382,231.8581 L3.8942,231.8581 L3.8942,219.8291 L3.8942,192.6301 L3.8942,163.5961 L3.8942,146.0291 C3.8942,135.2941 9.3922,125.3541 19.3422,120.7581 C20.9252,120.0281 22.5792,119.4511 24.2752,119.0421 L29.5192,122.7651 L21.6992,129.4251 L49.8362,184.5751 C49.0462,193.1821 48.2572,201.7901 47.4672,210.3971 C47.3472,211.7111 47.2262,213.0241 47.1052,214.3371 L49.4882,215.4991 L49.4882,231.8581 L27.3792,231.8581 Z M68.5682,148.8331 L71.3872,138.5341 L81.5962,127.1141 C84.0292,125.9351 86.3632,124.5571 88.5662,122.9921 L96.9782,130.1581 L71.4462,180.2031 L68.5682,148.8331 Z M50.2962,138.5341 L53.1152,148.8331 L50.3392,179.0911 L25.3742,130.1581 L33.3402,123.3731 C35.5402,124.8911 37.8902,126.2371 40.3132,127.3671 L50.2962,138.5341 Z M51.4622,135.3211 L46.9282,129.8751 C49.2212,130.5581 51.5722,131.0741 53.9422,131.4061 L51.4622,135.3211 Z M67.7192,131.3701 C70.3002,130.9921 72.8672,130.3991 75.3522,129.6061 L70.2552,135.3731 L67.7192,131.3701 Z M68.4712,138.0501 L65.9582,147.2321 L55.7262,147.2321 L53.2122,138.0501 L57.2072,131.7461 C59.6302,131.9201 62.0402,131.9121 64.4612,131.7231 L68.4712,138.0501 Z M60.8422,217.7651 L52.9772,213.9291 L52.9772,213.9281 L50.2192,212.5841 C50.9672,204.4301 51.7152,196.2761 52.4632,188.1231 C52.5812,186.8421 52.6982,185.5631 52.8152,184.2841 L52.9532,184.2131 L52.8422,183.9961 L55.9452,150.1711 L65.7392,150.1711 L71.4642,212.5851 L60.8422,217.7651 Z M15.3992,83.6581 L15.3992,73.4381 L27.0892,73.4381 L27.0892,53.1161 C37.8172,54.6631 48.5332,53.0561 58.5932,49.1541 C67.9342,45.5321 76.8102,40.3371 84.1452,33.4751 C86.0122,38.7361 89.6772,43.3031 94.4072,46.2681 L94.4072,73.4381 L105.9722,73.4381 C105.9722,76.8321 105.9852,80.2251 105.9722,83.6191 C105.9422,91.2711 104.0432,98.8231 100.3312,105.5241 C98.2272,109.3211 95.5762,112.8111 92.4882,115.8621 L92.4852,115.8631 L92.4842,115.8661 C81.6812,126.5331 65.9122,131.1371 51.0642,127.9071 C38.1152,125.0881 26.8272,116.4701 20.6302,104.7661 C17.1982,98.2831 15.3992,90.9931 15.3992,83.6581 Z M24.1482,52.6091 L24.1482,70.4991 L15.3992,70.4991 L15.3992,50.1651 C18.2632,51.2011 21.1832,52.0271 24.1482,52.6091 Z M13.4792,46.2561 C10.2522,44.8831 7.1172,43.2161 4.1222,41.2281 C8.8672,27.8681 18.5102,16.5911 31.0612,9.9681 C44.0972,3.0901 59.1272,2.1861 73.3512,5.4691 C81.2112,7.2841 88.7752,10.3921 95.4192,14.9941 C100.8582,14.9541 105.6452,18.8671 106.0672,24.4341 C106.2032,26.2231 106.0962,28.0541 106.0962,29.8461 L106.0962,52.4731 L106.0962,58.8101 L105.9722,58.8101 L105.9722,70.4991 L97.3482,70.4991 L97.3482,44.5901 C93.8932,42.5891 90.9592,40.0111 88.8652,36.5801 C87.1962,33.8471 86.4122,30.8931 85.6652,27.8211 C74.1892,39.4441 58.9822,48.2931 42.5612,50.3001 C36.9362,50.9881 31.2072,50.8371 25.6292,49.8301 L25.6252,49.8301 C21.4422,49.0801 17.4192,47.8351 13.4792,46.2561 Z M12.4592,70.4991 L12.4592,82.0831 C7.5052,81.3661 3.7102,76.9711 3.7102,71.9681 C3.7102,66.9651 7.5052,62.5721 12.4592,61.8551 L12.4592,70.4991 Z M108.9122,73.4381 L109.0372,73.4381 L109.0372,61.8791 C114.0092,62.6631 117.7532,67.1361 117.6582,72.1661 C117.5632,77.0941 113.7962,81.3771 108.9122,82.0831 L108.9122,73.4381 Z M99.6822,116.7071 L96.8572,115.5041 C104.0652,107.3271 108.5452,96.7001 108.8772,85.0461 C115.4562,84.3291 120.6022,78.5841 120.6022,71.9681 C120.6022,65.4141 115.5452,59.7081 109.0372,58.9171 L109.0372,41.6461 C109.0372,35.9371 109.3512,30.1311 109.0142,24.4291 C108.6202,17.7541 103.0282,12.2961 96.3452,12.0621 C83.4012,3.2781 66.5942,-0.4559 51.0982,0.9681 C36.0582,2.3501 21.9192,9.9191 12.1592,21.4151 C6.9092,27.5991 3.1842,34.7261 0.6212,42.3951 C4.3612,44.9811 8.2652,47.2371 12.4592,49.0111 L12.4592,58.8971 C5.8962,59.6311 0.7702,65.3671 0.7702,71.9681 C0.7702,78.5841 5.9152,84.3291 12.4942,85.0461 C12.8292,96.7971 17.3792,107.5071 24.6942,115.7121 L24.1172,116.0601 C10.5562,119.0721 1.0172,131.3371 0.9532,145.1331 C0.9312,150.0391 0.9532,154.9451 0.9532,159.8511 L0.9532,189.2131 L0.9532,219.0011 L0.9532,234.5741 L0.9532,234.7971 L23.8272,234.7971 L49.2802,234.7971 L70.5482,234.7971 L92.8762,234.7971 L119.9132,234.7971 L120.4182,234.7971 L120.4182,222.2621 L120.4182,194.1071 L120.4182,163.9981 L120.4182,146.0331 C120.4182,134.7201 114.8792,124.1951 104.7082,118.8031 C103.1022,117.9521 101.4162,117.2501 99.6822,116.7071 Z" id="Fill-61" fill="#000000"></path>
        </g>
    </g>
</svg>