<svg id="Layer_1" data-name="Layer 1" xmlns="http://www.w3.org/2000/svg" viewBox="0 0 300 300"><defs><style>.cls-1{fill:#dda812;}.cls-2{fill:#bf7c25;}.cls-3{fill:#fff;}.cls-4{fill:#f50;}</style></defs><title>portland_characters</title><path class="cls-1" d="M175.93,158.32h0a46.41,46.41,0,0,1-6,5l-.17.12c-.49.34-1,.67-1.5,1l-.2.13c-.51.32-1,.63-1.55.94l-.18.1c-.54.31-1.09.61-1.64.9l-.09,0c-.55.29-1.11.57-1.68.83h0l-10.43,11.8-3,10.89,5.94,64.76-2.58,1.26,1,18.61h47.56v-88.3A28.23,28.23,0,0,0,175.93,158.32Z"/><path class="cls-1" d="M131.07,254.84,137,190.08l-3-10.89-9.26-11.13a46.71,46.71,0,0,1-14.5-9.74h0a28.23,28.23,0,0,0-25.44,28.09v88.3h48.54c0-3.77.2-10.47.51-18.5Z"/><path d="M178.29,54.9c-14.61-10.09-38.41-14.72-56.55-8.67a58.3,58.3,0,0,0-37,37,58.32,58.32,0,0,0,51.75,7.39c11.28-3.76,22.51-10.14,30.74-18.47a23.42,23.42,0,0,0,11,14.71v26.53H190V66.59A11.7,11.7,0,0,0,178.29,54.9Z"/><path d="M96.34,89.4v23.95H108V92.71A59.56,59.56,0,0,1,96.34,89.4Z"/><path class="cls-2" d="M178.29,113.35V86.82a23.42,23.42,0,0,1-11-14.71c-8.23,8.33-19.46,14.71-30.74,18.47a57.94,57.94,0,0,1-28.75,2.07l.25.06v20.64H96.34V125a46.76,46.76,0,0,0,93.51,0V113.35Z"/><path d="M143.1,173.26A48.27,48.27,0,0,1,94.87,125V111.88h11.69V92.71h1.21l.27-1.5h0a57,57,0,0,0,28-2c11.8-3.93,22.51-10.37,30.16-18.12l1.86-1.87.62,2.56A22,22,0,0,0,179,85.54l.73.43v25.91h11.56V125A48.27,48.27,0,0,1,143.1,173.26ZM97.81,114.82V125a45.29,45.29,0,0,0,90.57,0V114.82H176.82V87.65a25,25,0,0,1-10.26-12.8A81.51,81.51,0,0,1,137,92a59.92,59.92,0,0,1-27.49,2.44v20.4Z"/><path class="cls-2" d="M189.85,101.66v11.69H178.29V86.82a23.42,23.42,0,0,1-11-14.71c-8.23,8.33-19.46,14.71-30.74,18.47a57.94,57.94,0,0,1-28.75,2.07l.25.06v20.64H96.34V101.66a11.69,11.69,0,1,0,0,23.38,46.76,46.76,0,0,0,93.51,0,11.69,11.69,0,0,0,0-23.38Z"/><polyline class="cls-1" points="109.39 157.43 107.02 158.86 114.32 164.04 105.95 171.17 134.06 226.26"/><polyline class="cls-1" points="176.8 157.43 180.15 158.86 172.85 164.04 181.23 171.17 152.86 226.78"/><path d="M156.17,137.76a10.22,10.22,0,0,0-14.45,0l-2.08-2.07a13.15,13.15,0,0,1,18.61,0Z"/><path d="M127.13,109a7.32,7.32,0,0,1-7.31-7.31h2.94a4.38,4.38,0,0,0,8.75,0h2.94A7.32,7.32,0,0,1,127.13,109Z"/><path d="M159.06,109a7.33,7.33,0,0,1-7.32-7.31h2.94a4.38,4.38,0,0,0,8.75,0h2.94A7.32,7.32,0,0,1,159.06,109Z"/><rect x="113.43" y="101.47" width="2.94" height="5.5" transform="translate(-21.43 178.23) rotate(-70.71)"/><rect x="112.15" y="109.03" width="5.5" height="2.94" transform="translate(-36.57 60.79) rotate(-25.71)"/><rect x="168.72" y="102.75" width="5.5" height="2.94" transform="translate(-24.81 62.52) rotate(-19.3)"/><rect x="170" y="107.75" width="2.94" height="5.5" transform="translate(-2.47 217.07) rotate(-64.29)"/><path d="M149.86,118.59a8.25,8.25,0,0,0-6.76,3.53,8.26,8.26,0,0,0-15,4.73v1.47h30.06v-1.47A8.27,8.27,0,0,0,149.86,118.59Z"/><path class="cls-3" d="M147.64,171.57l4.83,7.62L163.1,167.3A46.46,46.46,0,0,1,147.64,171.57Z"/><path class="cls-3" d="M123.62,167.54,134,179.19l4.82-7.6A46.37,46.37,0,0,1,123.62,167.54Z"/><path class="cls-4" d="M147.66,171.57c.73-.07,1.45-.16,2.17-.27C149.11,171.41,148.39,171.5,147.66,171.57Z"/><path d="M147.8,173l-.29-2.93c.47,0,.94-.09,1.4-.15l.71-.1.42,2.91h0l-.76.1C148.79,172.93,148.29,173,147.8,173Z"/><path class="cls-4" d="M149.9,171.29c.7-.1,1.39-.22,2.08-.35C151.29,171.07,150.6,171.19,149.9,171.29Z"/><path d="M150.11,172.75l-.42-2.91c.68-.1,1.35-.22,2-.34l.55,2.88c-.71.14-1.42.26-2.14.37Z"/><path class="cls-4" d="M136.69,171.34l1,.12Z"/><path d="M137.48,172.92l-.25,0-.68-.08h-.06l.41-2.91h0l.56.07.32,0Z"/><path class="cls-4" d="M134.58,171c.46.09.92.16,1.38.23C135.5,171.16,135,171.09,134.58,171Z"/><path d="M135.74,172.68c-.48-.07-1-.14-1.42-.23l.53-2.89,1.33.22h0Z"/><path class="cls-4" d="M149.49,190.08h-.3l3.26-10.92-4.81-7.59a45.41,45.41,0,0,1-4.54.22c-1.44,0-2.85-.07-4.25-.2l-4.8,7.57,3.26,10.92H137l-5.94,64.76,12.18,5.94,12.18-5.94Z"/><path d="M150.29,191.55H136.22l-3.77-12.61,5.64-8.89.89.08a44.89,44.89,0,0,0,8.52,0l.9-.09,5.65,8.92Zm-11.88-2.94h9.69l2.75-9.23-4-6.27a47.65,47.65,0,0,1-7.27,0l-4,6.25Z"/><path class="cls-3" d="M143.25,260.78,133.37,256v18.75H153.8V255.64Z"/><path d="M182.09,158.09l-2.82-1.21a48,48,0,0,0,12-30.46,13.15,13.15,0,0,0,.16-26.13V66.59a13.17,13.17,0,0,0-12.69-13.15c-15.93-10.8-40-14.43-57.48-8.61a59.48,59.48,0,0,0-37.9,37.9l-.35,1,.91.63a60.42,60.42,0,0,0,10.93,6v9.89a13.15,13.15,0,0,0,0,26.14,48,48,0,0,0,12.2,30.67l-.58.35a29.56,29.56,0,0,0-23.17,29v89.77H202.83V186.41A29.57,29.57,0,0,0,182.09,158.09Zm9.23-43.27h.13V103.26a10.22,10.22,0,0,1-.13,20.2Zm-96.45-2.94v11.58a10.22,10.22,0,0,1,0-20.23Zm1-24.25a58.3,58.3,0,0,1-9.36-5,56.52,56.52,0,0,1,35.68-35c16.79-5.6,40-2,55.24,8.49l.38.26h.46a10.24,10.24,0,0,1,10.22,10.22v33.6h-.13v11.69h-8.62V86l-.73-.43A22,22,0,0,1,168.7,71.76l-.62-2.56h0l-1.86,1.88-.25.24c-7.63,7.64-18.23,14-29.91,17.87-1.11.37-2.23.7-3.36,1l-.28.06a56.83,56.83,0,0,1-24.38.95h0A56.89,56.89,0,0,1,96.89,88ZM106.56,94v17.89H97.81V91.54A59.53,59.53,0,0,0,106.56,94ZM97.81,125V114.82H109.5V94.49A59.82,59.82,0,0,0,137,92,84.36,84.36,0,0,0,161.9,78.82c1.64-1.27,3.19-2.6,4.66-4a25,25,0,0,0,8.53,11.61c.56.42,1.13.81,1.73,1.19v27.17h11.56V125a45.15,45.15,0,0,1-13.48,32.2h0a45.56,45.56,0,0,1-4.7,4.07l-.05,0c-.56.42-1.13.83-1.71,1.22l-.09.05c-.53.37-1.08.71-1.63,1l-.33.2c-1.09.66-2.22,1.27-3.37,1.84l-.42.21c-.54.26-1.09.5-1.64.74l-.29.13c-.66.28-1.32.54-2,.79l-.15.05c-.6.21-1.21.42-1.82.61l-.67.2-1.32.38-.84.21-1.18.27-.93.19-1.1.2c-.34.06-.68.12-1,.16l-1,.14c-.37,0-.73.09-1.1.12a43.17,43.17,0,0,1-4.42.22c-1.39,0-2.77-.07-4.13-.19l-1.6-.18-.46-.06c-.49-.07-1-.14-1.46-.23l-.56-.09c-.47-.09-.94-.18-1.41-.29-.18,0-.35-.08-.53-.12a41.68,41.68,0,0,1-4.61-1.32l-.51-.17-1.16-.44-.77-.31c-.35-.14-.7-.29-1-.45A45.34,45.34,0,0,1,97.81,125Zm45.44,134.1-7.86-3.83h0L132.63,254l2.43-26.44.17-1.86.13-.07-.11-.22,3.11-33.82h9.79L153.88,254Zm7.63-79.71-2.51,9.18H138.14l-2.52-9.18,4-6.31c1.15.09,2.31.14,3.48.14s2.53-.06,3.77-.16Zm-.75-6.68.09,0,.9-.15,1.32-.23.88-.19c.45-.09.89-.2,1.34-.31l.8-.2c.51-.14,1-.28,1.54-.44l.54-.16.22-.07-5.09,5.77Zm-16.26,3.95-4.53-5.45c1.11.33,2.24.63,3.39.88l.1,0c.48.11.95.2,1.43.29l.65.11c.45.08.9.16,1.35.22h.09Zm-1.16,3.21,2.82,10.3-2.78,30.26-25-48.93,8-6.79.38.25.07.05c.59.39,1.18.77,1.78,1.14l.34.2c.5.31,1,.6,1.53.88l.54.3q.67.36,1.35.69l.71.35.27.14ZM151,190.21l2.82-10.3L164,168.49l1.34-.67.51-.28.46-.25.72-.4.18-.1c.54-.32,1.08-.64,1.68-1l.13-.09,1-.64.05,0,.52-.34.17-.12.23-.17,8.41,7.17-25.53,50Zm-41.19,83v-72.6h-2.94v72.6H86.3V186.41a26.64,26.64,0,0,1,20.39-26l5.24,3.72-7.82,6.66L132.25,226l-.18,1.93-2.55,27.84h0l2.38,1.16v16.36Zm25.06,0c0-3.25.17-8.18.42-14.72l8,3.9,8.25-4,.75,14.85Zm65,0H179.34v-72.6H176.4v72.6H155.27V256.55l1.72-.83-2.63-28.66,28.7-56.26-7.82-6.66,5-3.54a26.64,26.64,0,0,1,19.66,25.81Z"/></svg>