<?xml version="1.0" encoding="UTF-8"?>
<svg width="175px" height="175px" viewBox="0 0 175 175" version="1.1" xmlns="http://www.w3.org/2000/svg" xmlns:xlink="http://www.w3.org/1999/xlink">
    <!-- Generator: sketchtool 50.2 (55047) - http://www.bohemiancoding.com/sketch -->
    <title>127CAB1D-766A-47D2-B3F9-0C65AD756A4B</title>
    <desc>Created with sketchtool.</desc>
    <defs>
        <circle id="path-1" cx="87.5" cy="87.5" r="87.5"></circle>
    </defs>
    <g id="Symbols" stroke="none" stroke-width="1" fill="none" fill-rule="evenodd">
        <g id="characters" transform="translate(-278.000000, -550.000000)">
            <g id="PLAYER-/-mateo_lose" transform="translate(278.000000, 550.000000)">
                <mask id="mask-2" fill="white">
                    <use xlink:href="#path-1"></use>
                </mask>
                <use id="Mask" fill="#FFFFFF" xlink:href="#path-1"></use>
                <g id="mateo_lose" mask="url(#mask-2)">
                    <g transform="translate(44.000000, 10.000000)">
                        <path d="M68.0108364,84.5963404 C66.9555636,85.6011489 65.8704727,86.5611064 64.7068364,87.440766 L71.8668364,93.8928085 L51.2602909,134.39983 L53.1068364,154.418596 L51.2297455,155.328638 L51.9192,168.790468 L86.5082909,168.790468 L86.5082909,159.483872 L86.5082909,138.670809 L86.5082909,117.016426 C86.5082909,113.072426 86.5141091,109.128426 86.5082909,105.184426 C86.4937455,96.1469362 80.6413818,87.9514894 71.8530182,85.3457872 C70.6006545,84.9739574 69.3119273,84.7236596 68.0108364,84.5963404" id="Fill-1" fill="#DDA812"></path>
                        <path d="M64.7068364,87.4405489 C62.7882909,88.8909745 60.7192,90.1439106 58.5366545,91.161017 L50.9533818,99.6935702 L48.7853818,107.571443 L51.2602909,134.399613 L71.8668364,93.8925915 L64.7068364,87.4405489 Z" id="Fill-3" fill="#A2D39F"></path>
                        <path d="M24.2096727,87.9166936 C22.8154909,86.9111617 21.4780364,85.8079702 20.2598545,84.5962681 C9.83367273,85.6148213 1.82858182,94.5669489 1.76312727,104.928991 C1.74203636,108.225545 1.76312727,111.522821 1.76312727,114.819374 L1.76312727,135.842226 L1.76312727,157.332396 L1.76312727,168.626183 L1.76312727,168.790396 L37.0605818,168.790396 C37.0605818,166.066055 37.2082182,161.221417 37.4336727,155.409587 L35.3914909,154.418523 L37.3449455,133.232906 L17.1180364,93.8927362 L24.2096727,87.9166936 Z" id="Fill-5" fill="#DDA812"></path>
                        <path d="M37.5442182,99.6938596 L30.8060364,91.6423702 C28.4576727,90.6462426 26.2504,89.388966 24.2096727,87.9168383 L17.1180364,93.8921574 L37.3449455,133.232328 L39.7114909,107.571732 L37.5442182,99.6938596 Z" id="Fill-7" fill="#A2D39F"></path>
                        <path d="M69.7295273,9.78339149 C60.8495273,3.67858298 49.2553455,0.969434043 38.5513455,1.64798723 C27.7891636,2.32871064 17.6422545,7.35998723 10.4451636,15.3311787 C6.55134545,19.6433915 3.56661818,24.7506255 1.72007273,30.2477745 C8.62334545,34.9947532 16.9077091,37.6510936 25.3011636,37.7719021 C34.0728,37.8984979 42.5637091,35.0859021 50.1557091,30.8496468 C54.3637091,28.5022 58.3208,25.6505404 61.7157091,22.2302851 C62.8240727,26.7682 65.7695273,30.5884979 69.7295273,32.8701149 L69.7295273,52.0627532 L78.2306182,52.0627532 L78.2306182,35.3723702 L78.2306182,19.0798596 C78.2306182,17.3567106 78.0349818,15.7095191 77.1797091,14.1650511 C75.6968,11.4870085 72.8037091,9.78339149 69.7295273,9.78339149" id="Fill-9" fill="#000000"></path>
                        <path d="M10.1308364,34.738017 L10.1308364,52.0628255 L18.6319273,52.0628255 L18.6319273,37.1310383 C15.7119273,36.6217617 12.8610182,35.8267404 10.1308364,34.738017" id="Fill-11" fill="#000000"></path>
                        <path d="M69.7295273,52.0629702 L69.7295273,32.8703319 C65.7695273,30.5879915 62.8240727,26.7676936 61.7157091,22.2305021 C57.5418909,26.4342043 52.5280727,29.7886298 47.2095273,32.3899915 C41.6160727,35.125183 35.6233455,37.1217787 29.3848,37.6259915 C25.7353455,37.9211404 22.0495273,37.739566 18.4466182,37.093566 C18.5091636,37.104417 18.5695273,37.1203319 18.6320727,37.1304596 L18.6320727,52.0629702 L10.1309818,52.0629702 C10.1309818,58.4086723 9.7768,64.769566 11.7622545,70.900417 C14.5440727,79.4872255 20.8306182,86.7494809 28.9397091,90.7853532 C37.3288,94.9608426 47.3353455,95.471566 56.1135273,92.184417 C64.6386182,88.992034 71.6589818,82.3562468 75.3069818,74.0544596 C77.1833455,69.7870979 78.1215273,65.1725021 78.1397091,60.5181191 C78.1498909,57.9890979 78.1397091,55.4593532 78.1397091,52.9303319 L78.1397091,52.0629702 L69.7295273,52.0629702 Z" id="Fill-13" fill="#BF7C25"></path>
                        <path d="M11.1997091,53.125434 C11.1997091,59.4147106 10.9589818,65.603434 13.1495273,71.6286681 C16.0600727,79.6367532 22.1473455,86.332583 29.8535273,90.0364128 C37.8317091,93.8704553 47.2520727,94.3131787 55.5597091,91.2473915 C63.5844364,88.2857745 70.2666182,82.1773489 73.9269818,74.4824979 C76.0033455,70.1153064 77.0506182,65.3379447 77.0702545,60.5113915 C77.0804364,58.0496468 77.0702545,55.5871787 77.0702545,53.125434 L68.6600727,53.125434 L68.6600727,33.4705404 C65.1953455,31.3104553 62.5538909,28.0218596 61.1968,24.2153064 C55.9313455,29.1156468 49.5742545,32.8382851 42.8811636,35.4541149 C35.4855273,38.3448383 27.5997091,39.5153064 19.7008,38.3737745 L19.7008,53.125434 L11.1997091,53.125434 Z M44.1349818,95.4055191 C34.3822545,95.4055191 24.9320727,91.2582426 18.3306182,84.1233064 C12.1909818,77.4882426 9.06152727,68.8739447 9.06152727,59.9037319 L9.06152727,50.9993489 L17.5626182,50.9993489 L17.5626182,37.130966 L18.4404364,37.130966 L18.6368,36.0473064 L18.6389818,36.0473064 C32.1597091,38.4736043 46.1720727,33.530583 56.7749818,25.1926255 C58.7502545,23.6394766 60.5364364,21.9047532 62.3022545,20.1259021 C62.8455273,22.3482 63.4149818,24.4844128 64.6288,26.4622 C66.1517091,28.9434766 68.2869818,30.8098596 70.7982545,32.2566681 L70.7982545,50.9993489 L79.2091636,50.9993489 C79.2091636,57.4405404 79.6498909,64.005434 77.8171636,70.2628809 C75.1364364,79.4153915 68.6193455,87.2296043 60.0964364,91.579434 C55.1728,94.0932638 49.6688,95.4055191 44.1349818,95.4055191 Z" id="Fill-15" fill="#000000"></path>
                        <path d="M78.1400727,43.6067362 L78.1400727,52.0626085 L69.7298909,52.0626085 L69.7298909,32.8699702 C65.7691636,30.5883532 62.8237091,26.7680553 61.7160727,22.2301404 C57.5422545,26.434566 52.5277091,29.7882681 47.2098909,32.3896298 C41.6164364,35.1248213 35.6229818,37.121417 29.3844364,37.6256298 C25.7357091,37.9215021 22.0498909,37.7399277 18.4469818,37.0932043 C18.5088,37.1047787 18.5698909,37.1199702 18.6317091,37.1308213 L18.6317091,52.0626085 L10.1306182,52.0626085 L10.1306182,43.6067362 C5.49789091,43.6067362 1.62952727,47.4552468 1.62952727,52.0626085 C1.62952727,56.6706936 5.49789091,60.5184809 10.1306182,60.5184809 C10.1306182,74.5474596 19.1677091,87.4399702 32.4120727,92.2780979 C45.8062545,97.1719277 61.2382545,93.0029489 70.3328,82.0846085 C75.3597091,76.0492468 78.1400727,68.3558426 78.1400727,60.5184809 C82.7728,60.5184809 86.6411636,56.6706936 86.6411636,52.0626085 C86.6411636,47.4545234 82.7728,43.6067362 78.1400727,43.6067362" id="Fill-17" fill="#BF7C25"></path>
                        <path d="M53.6411636,69.7263319 C50.7771636,66.877566 45.9953455,66.877566 43.1306182,69.7263319 L41.6186182,68.2230979 C45.3073455,64.5532681 51.4651636,64.5532681 55.1531636,68.2230979 L53.6411636,69.7263319 Z" id="Fill-19" fill="#000000"></path>
                        <path d="M32.5264,48.8980766 C29.5933091,48.8980766 27.2064,46.5245872 27.2064,43.6070979 L29.3445818,43.6070979 C29.3445818,47.6842043 35.7082182,47.6870979 35.7082182,43.6070979 L37.8464,43.6070979 C37.8464,46.5245872 35.4594909,48.8980766 32.5264,48.8980766" id="Fill-21" fill="#000000"></path>
                        <path d="M55.7441455,48.8980766 C52.8110545,48.8980766 50.4241455,46.5245872 50.4241455,43.6070979 L52.5623273,43.6070979 C52.5623273,47.6842043 58.9252364,47.6870979 58.9252364,43.6070979 L61.0634182,43.6070979 C61.0634182,46.5245872 58.6772364,48.8980766 55.7441455,48.8980766" id="Fill-23" fill="#000000"></path>
                        <polygon id="Fill-25" fill="#000000" points="25.1602909 47.1192255 21.3850182 45.8048 22.0912 43.7966298 25.8672 45.1117787"></polygon>
                        <polygon id="Fill-27" fill="#000000" points="22.2874182 51.8262723 21.3601455 49.9106979 24.9645091 48.1846553 25.8917818 50.1002298"></polygon>
                        <polygon id="Fill-29" fill="#000000" points="63.2370182 47.1192255 62.5301091 45.1117787 66.3061091 43.7966298 67.0130182 45.8048"></polygon>
                        <polygon id="Fill-31" fill="#000000" points="66.1098909 51.8262723 62.5055273 50.1002298 63.4335273 48.1846553 67.0371636 49.9106979"></polygon>
                        <path d="M49.0552,55.8530298 C47.0217455,55.8530298 45.2232,56.8657957 44.1352,58.4080936 C42.3417455,55.8660511 38.7795636,55.1050298 36.1082909,56.7153277 C33.8137455,58.0984766 33.2050182,60.3909447 33.2050182,62.8939234 L50.2464727,62.8939234 L55.0653818,62.8939234 C55.0653818,61.2771149 54.9461091,59.7861787 53.9802909,58.4102638 C52.8661091,56.8238383 51.0028364,55.8530298 49.0552,55.8530298" id="Fill-33" fill="#000000"></path>
                        <path d="M47.4412364,94.1807234 L50.9532364,99.6937872 L58.6819636,91.0946809 C55.2157818,92.7288511 51.4303273,93.7980426 47.4412364,94.1807234" id="Fill-35" fill="#FFAEE4"></path>
                        <path d="M29.9699636,91.266634 L37.5445091,99.6935702 L41.0456,94.1971447 C37.1226909,93.8448468 33.3946909,92.8299106 29.9699636,91.266634" id="Fill-37" fill="#FFAEE4"></path>
                        <path d="M47.4507636,94.1793489 C47.9824,94.1287106 48.5104,94.0628809 49.0340364,93.9876468 C48.5104,94.0636043 47.9824,94.1279872 47.4507636,94.1793489" id="Fill-39" fill="#FF5500"></path>
                        <path d="M47.5530909,95.237617 L47.3458182,93.1209362 C47.8592727,93.0702979 48.3712727,93.0088085 48.8825455,92.9350213 L49.188,95.0408511 L49.1865455,95.0408511 L49.1858182,95.0408511 C48.644,95.1197021 48.0985455,95.1869787 47.5530909,95.237617" id="Fill-41" fill="#000000"></path>
                        <path d="M49.0846545,93.9794 C49.5930182,93.9056128 50.0970182,93.8202511 50.5981091,93.7240383 C50.0970182,93.8202511 49.5922909,93.9048894 49.0846545,93.9794" id="Fill-43" fill="#FF5500"></path>
                        <path d="M49.2381091,95.0320255 L48.9290182,92.9276426 C49.4221091,92.8553021 49.9108364,92.7721106 50.3966545,92.6802383 L50.7988364,94.7687064 C50.2832,94.8670894 49.7639273,94.9560681 49.2402909,95.0313021 C49.2395636,95.0313021 49.2388364,95.0320255 49.2381091,95.0320255" id="Fill-45" fill="#000000"></path>
                        <path d="M39.4781091,94.0175957 C39.7086545,94.0494255 39.9421091,94.0732979 40.1748364,94.1000638 C39.9421091,94.0725745 39.7086545,94.0501489 39.4781091,94.0175957" id="Fill-47" fill="#FF5500"></path>
                        <path d="M40.0505455,95.1563787 C39.8258182,95.1325064 39.6010909,95.1079106 39.3770909,95.0775277 C39.3763636,95.0782511 39.3741818,95.0768043 39.3727273,95.0768043 C39.3589091,95.074634 39.3450909,95.0731872 39.3312727,95.071017 L39.6250909,92.9644638 C39.6338182,92.9637404 39.644,92.9673574 39.6541818,92.9688043 C39.6563636,92.9688043 39.6570909,92.9680809 39.6592727,92.9695277 C39.8723636,92.9977404 40.0869091,93.020166 40.3007273,93.0440383 L40.0505455,95.1563787 Z" id="Fill-49" fill="#000000"></path>
                        <path d="M37.9433455,93.7709872 C38.2757091,93.8317532 38.6102545,93.8838383 38.9462545,93.9359234 C38.6102545,93.8838383 38.2757091,93.8317532 37.9433455,93.7709872" id="Fill-51" fill="#FF5500"></path>
                        <path d="M38.7845818,94.9860894 C38.4384,94.9340043 38.0922182,94.8797489 37.7496727,94.8175362 L38.1365818,92.7254511 C38.4573091,92.7840468 38.7816727,92.8332383 39.1053091,92.8838766 L39.1089455,92.8838766 L38.7845818,94.9860894 Z" id="Fill-53" fill="#000000"></path>
                        <path d="M48.7856727,107.571515 L48.5696727,107.571515 L50.9384,99.6704936 L47.4409455,94.1805787 C45.3151273,94.3881957 43.1725818,94.3932596 41.0453091,94.1979404 L37.5587636,99.6704936 L39.9282182,107.571515 L39.7114909,107.571515 L35.3914909,154.418451 L44.2489455,158.716196 L53.1064,154.418451 L48.7856727,107.571515 Z" id="Fill-55" fill="#FF5500"></path>
                        <path d="M40.7245818,106.508328 L47.7725818,106.508328 L49.7747636,99.8313064 L46.8867636,95.2970085 C45.1333091,95.4359021 43.4074909,95.4431362 41.6016727,95.3107532 L38.7224,99.8313064 L40.7245818,106.508328 Z M49.3667636,108.634413 L39.1311273,108.634413 L36.3951273,99.5101149 L40.4925818,93.0797745 C43.0067636,93.3090936 45.4794909,93.3047532 47.9922182,93.0580723 L52.1020364,99.5101149 L49.3667636,108.634413 Z" id="Fill-57" fill="#000000"></path>
                        <polygon id="Fill-59" fill="#FFAEE4" points="44.2487273 158.71634 37.0603636 155.228809 37.0603636 168.790468 51.9185455 168.790468 51.9185455 154.994426"></polygon>
                        <path d="M85.4386909,167.727136 L70.4968727,167.727136 L70.4968727,115.207264 L68.3579636,115.207264 L68.3579636,167.727136 L52.9877818,167.727136 L52.9877818,155.658583 L54.2386909,155.05237 L52.3266909,134.326115 L73.2023273,93.6266681 L67.5150545,88.8087957 L71.1441455,86.2457745 C79.7157818,88.5592213 85.4234182,96.4363702 85.4386909,105.173647 C85.4452364,108.8782 85.4386909,112.582753 85.4386909,116.28803 L85.4386909,136.725647 L85.4386909,157.066328 L85.4386909,167.571604 L85.4386909,167.727136 Z M38.1361455,167.727136 C38.1616,165.375349 38.2626909,161.809689 38.4394182,157.080796 L44.2488727,159.899179 L50.2437818,156.99037 L50.7943273,167.727136 L38.1361455,167.727136 Z M19.9121455,167.727136 L19.9121455,115.207264 L17.7732364,115.207264 L17.7732364,167.727136 L2.83214545,167.727136 L2.83214545,159.025306 L2.83214545,139.349434 L2.83214545,118.346115 L2.83214545,105.638072 C2.83214545,97.8723277 6.83069091,90.6816894 14.0670545,87.3569234 C15.2183273,86.8288383 16.4212364,86.411434 17.6546909,86.1155617 L21.4685091,88.8087957 L15.7812364,93.6266681 L36.2445091,133.522413 C35.6699636,139.748753 35.0961455,145.975817 34.5216,152.202157 C34.4343273,153.152711 34.3463273,154.10254 34.2583273,155.05237 L35.9914182,155.892966 L35.9914182,167.727136 L19.9121455,167.727136 Z M49.8677818,107.666498 L51.9179636,100.216157 L59.3426909,91.9548809 C61.1121455,91.1019872 62.8096,90.1051362 64.4117818,88.9730085 L70.5296,94.1569234 L51.9608727,130.359689 L49.8677818,107.666498 Z M36.5790545,100.216157 L38.6292364,107.666498 L36.6103273,129.555264 L18.4539636,94.1569234 L24.2474182,89.2486255 C25.8474182,90.3467532 27.5565091,91.3204553 29.3186909,92.1379021 L36.5790545,100.216157 Z M37.4270545,97.8918596 L34.1296,93.9522 C35.7972364,94.4462851 37.5070545,94.8195617 39.2306909,95.0597319 L37.4270545,97.8918596 Z M49.2503273,95.0336894 C51.1274182,94.7602426 52.9943273,94.3312638 54.8016,93.7576043 L51.0946909,97.9294766 L49.2503273,95.0336894 Z M49.7972364,99.8660298 L47.9696,106.508328 L40.5281455,106.508328 L38.6997818,99.8660298 L41.6052364,95.3056894 C43.3674182,95.4315617 45.1201455,95.4257745 46.8808727,95.2890511 L49.7972364,99.8660298 Z M44.2488727,157.5322 L38.5288727,154.757221 L38.5288727,154.756498 L36.5230545,153.784243 C37.0670545,147.885604 37.6110545,141.986966 38.1550545,136.089051 C38.2408727,135.16237 38.3259636,134.237136 38.4110545,133.311902 L38.5114182,133.26054 L38.4306909,133.103562 L40.6874182,108.634413 L47.8103273,108.634413 L51.9739636,153.784966 L44.2488727,157.5322 Z M11.1994182,60.5186255 L11.1994182,53.125434 L19.7012364,53.125434 L19.7012364,38.4244128 C27.5034182,39.5435191 35.2968727,38.3810085 42.6132364,35.5582851 C49.4066909,32.9381149 55.8619636,29.1800298 61.1965091,24.2160298 C62.5543273,28.0218596 65.2197818,31.3256468 68.6597818,33.4705404 L68.6597818,53.125434 L77.0706909,53.125434 C77.0706909,55.5806681 77.0801455,58.0351787 77.0706909,60.4904128 C77.0488727,66.0259021 75.6677818,71.4890511 72.9681455,76.336583 C71.4379636,79.0833489 69.5099636,81.6080298 67.2641455,83.8151362 L67.2619636,83.8158596 L67.2612364,83.8180298 C59.4045091,91.534583 47.9361455,94.8651362 37.1376,92.5285404 C27.7201455,90.4892638 19.5106909,84.254966 15.0037818,75.7882426 C12.5077818,71.0984128 11.1994182,65.8247957 11.1994182,60.5186255 Z M17.5623273,38.0576468 L17.5623273,50.9993489 L11.1994182,50.9993489 L11.1994182,36.2896468 C13.2823273,37.0390936 15.4059636,37.6366255 17.5623273,38.0576468 Z M9.80305455,33.4618596 C7.45614545,32.4686255 5.17614545,31.2627106 2.99796364,29.824583 C6.44887273,20.1599021 13.4619636,12.0020723 22.5899636,7.21096596 C32.0706909,2.23539149 43.0016,1.58143404 53.3463273,3.95637021 C59.0626909,5.26934894 64.5637818,7.51768936 69.3957818,10.8467957 C73.3514182,10.8178596 76.8328727,13.6485404 77.1397818,17.6757319 C77.2386909,18.9699021 77.1608727,20.2944553 77.1608727,21.5907957 L77.1608727,37.9592638 L77.1608727,42.5434766 L77.0706909,42.5434766 L77.0706909,50.9993489 L70.7986909,50.9993489 L70.7986909,32.2566681 C68.2859636,30.8091362 66.1521455,28.9442 64.6292364,26.4622 C63.4154182,24.4851362 62.8452364,22.3482 62.3019636,20.1259021 C53.9557818,28.5340298 42.8961455,34.935434 30.9536,36.3873064 C26.8626909,36.8850085 22.6961455,36.7757745 18.6394182,36.0473064 L18.6365091,36.0473064 C15.5943273,35.5047532 12.6685091,34.6041149 9.80305455,33.4618596 Z M9.06123636,50.9993489 L9.06123636,59.3792638 C5.45832727,58.860583 2.69832727,55.6812213 2.69832727,52.0620298 C2.69832727,48.4428383 5.45832727,45.2649234 9.06123636,44.7462426 L9.06123636,50.9993489 Z M79.2088727,53.125434 L79.2997818,53.125434 L79.2997818,44.7636043 C82.9157818,45.3307532 85.6386909,48.5665404 85.5696,52.2052638 C85.5005091,55.7702 82.7608727,58.8685404 79.2088727,59.3792638 L79.2088727,53.125434 Z M72.4961455,84.4264128 L70.4416,83.5561574 C75.6837818,77.6408809 78.9419636,69.9532638 79.1834182,61.5227106 C83.9681455,61.0040298 87.7106909,56.8480723 87.7106909,52.0620298 C87.7106909,47.3208383 84.0328727,43.1930936 79.2997818,42.6208809 L79.2997818,30.126966 C79.2997818,25.9970511 79.5281455,21.796966 79.2830545,17.6721149 C78.9965091,12.8433915 74.9296,8.89505106 70.0692364,8.72577447 C60.6554182,2.37139149 48.4321455,-0.3298 37.1623273,0.70032766 C26.2241455,1.70007234 15.9412364,7.17551915 8.84305455,15.4917745 C5.02487273,19.9653064 2.31578182,25.1210085 0.451781818,30.6687957 C3.17178182,32.5395191 6.01105455,34.1715191 9.06123636,35.4548383 L9.06123636,42.6064128 C4.28814545,43.1373915 0.560145455,47.2868383 0.560145455,52.0620298 C0.560145455,56.8480723 4.30196364,61.0040298 9.08669091,61.5227106 C9.33032727,70.023434 12.6394182,77.7710936 17.9594182,83.7066255 L17.5397818,83.9583702 C7.67723636,86.1372638 0.739781818,95.009817 0.693236364,104.989902 C0.677236364,108.538923 0.693236364,112.087945 0.693236364,115.636966 L0.693236364,136.877562 L0.693236364,158.426328 L0.693236364,169.691902 L0.693236364,169.853221 L17.3288727,169.853221 L35.8401455,169.853221 L51.3077818,169.853221 L67.5463273,169.853221 L87.2096,169.853221 L87.5768727,169.853221 L87.5768727,160.785349 L87.5768727,140.417902 L87.5768727,118.636923 L87.5768727,105.640966 C87.5768727,97.4570936 83.5485091,89.8432638 76.1514182,85.9426681 C74.9834182,85.3270511 73.7572364,84.8192213 72.4961455,84.4264128 Z" id="Fill-61" fill="#000000"></path>
                    </g>
                </g>
            </g>
        </g>
    </g>
</svg>