<svg id="Layer_1" data-name="Layer 1" xmlns="http://www.w3.org/2000/svg" viewBox="0 0 300 300"><defs><style>.cls-1{fill:#bf7c25;}.cls-2{fill:#dda812;}.cls-3{fill:#fff;}.cls-4{fill:#f50;}.cls-5{fill:#ffaee4;}.cls-6{fill:#a2d39f;}</style></defs><title>portland_characters</title><path class="cls-1" d="M192,77.9V89.83h-11.8V62.76a23.92,23.92,0,0,1-11.25-15c-8.39,8.5-19.85,15-31.37,18.85a59.35,59.35,0,0,1-29.07,2.17V89.83H96.56V77.9a11.93,11.93,0,1,0,0,23.86,47.71,47.71,0,0,0,30.66,44.55v2.56l15.53,9.84-.56.87h4.47l-.55-.87,16.13-10.22V146A47.72,47.72,0,0,0,192,101.76a11.93,11.93,0,1,0,0-23.86Z"/><path class="cls-2" d="M181.86,150.31l.22-.16-12.83-3.68-.13.62,2.49,3.93L153.83,170.9l0,0L150.49,182h.3l6.07,66.08-1.67.81v19.46h48.53V178.27A28.82,28.82,0,0,0,181.86,150.31Z"/><path class="cls-2" d="M138.06,182h.31L135,170.87l0,0L117.25,151l2.84-4.5-12.26,3.53a28.81,28.81,0,0,0-23,28.22v90.09h49.52V249.23l10.09,4.92L132,248.09Z"/><polygon class="cls-2" points="137.82 166.48 137.82 166.48 137.13 167.57 137.82 166.48"/><path d="M144.73,169.4a19,19,0,0,1-19-19v-6.26l2,.78a46.27,46.27,0,0,0,33.93-.35l2.06-.84v6.67A19,19,0,0,1,144.73,169.4Zm-16-21v1.95a16,16,0,0,0,32,0v-2.26a49.29,49.29,0,0,1-32,.31Z"/><polygon class="cls-3" points="135.02 170.9 117.25 151.02 121.07 144.98 142.75 158.71 135.02 170.9"/><path d="M135.23,173.38l-19.86-22.21,5.24-8.26,24.21,15.34Zm-16.11-22.52,15.7,17.56,5.86-9.25-19.14-12.12Z"/><polygon class="cls-3" points="153.84 170.9 171.61 151.02 167.78 144.98 146.11 158.71 153.84 170.9"/><path d="M153.63,173.38,144,158.25l24.21-15.34,5.23,8.26Zm-5.45-14.21,5.86,9.25,15.7-17.56-2.42-3.81Z"/><path d="M180.18,30.19c-14.9-10.3-39.19-15-57.7-8.85A59.55,59.55,0,0,0,84.76,59.06a59.85,59.85,0,0,0,11.8,6.33V89.83h11.93V68.77a59.35,59.35,0,0,0,29.07-2.17c11.52-3.84,23-10.35,31.37-18.85a23.92,23.92,0,0,0,11.25,15V89.83H192.1V42.12A11.93,11.93,0,0,0,180.18,30.19Z"/><rect x="113.99" y="77.71" width="3" height="5.61" transform="translate(1.35 162.92) rotate(-70.71)"/><rect x="112.69" y="85.43" width="5.61" height="3" transform="translate(-26.28 58.72) rotate(-25.71)"/><rect x="170.42" y="79.01" width="5.61" height="3" transform="translate(-16.87 61.74) rotate(-19.29)"/><rect x="171.72" y="84.12" width="3" height="5.61" transform="translate(19.76 205.3) rotate(-64.29)"/><polygon class="cls-4" points="150.79 182.01 150.49 182.01 153.81 170.87 146.66 159.58 142.19 159.58 135.04 170.87 138.37 182.01 138.06 182.01 132 248.09 144.43 254.15 156.86 248.09 150.79 182.01"/><path class="cls-3" d="M134.34,249.23v19.13h20.85V248.9l-10.76,5.25Z"/><path d="M185.21,149.77,169.66,145l0,.07-.56-.87a49.26,49.26,0,0,0,24.36-41.06,13.42,13.42,0,0,0,.16-26.66V42.12A13.44,13.44,0,0,0,180.65,28.7C164.41,17.67,139.83,14,122,19.92A60.67,60.67,0,0,0,83.34,58.58L83,59.65l.93.64A61.54,61.54,0,0,0,95.06,66.4V76.49a13.42,13.42,0,0,0,0,26.68,49.24,49.24,0,0,0,24.59,41.19l-.56.88-11.71,3.37a30.35,30.35,0,0,0-24.1,29.66v91.59h121.9V178.27A30.34,30.34,0,0,0,185.21,149.77Zm8.27-58.44h.12V79.53a10.43,10.43,0,0,1-.12,20.62Zm-98.42-3v11.82a10.43,10.43,0,0,1,0-20.64ZM174.92,151a27.5,27.5,0,0,1,3.16.19l-5.89,4.18,9.11,7.76-26.05,51.07-3-32.77,2.89-9.69,18.35-20.53-.13-.21Zm-5.18-.1L154,168.42,150,162l-1.81-2.87,19.14-12.12Zm-17.56,20.23-2.81,9.42h-9.89l-2.8-9.42,3.71-5.87,2.63-4.14h2.82ZM86.55,58.46A57.7,57.7,0,0,1,123,22.76c17.14-5.71,40.85-2.07,56.37,8.67l.39.26h.47A10.43,10.43,0,0,1,190.6,42.12V76.4h-.12V88.33h-8.8V61.89l-.75-.43a22.47,22.47,0,0,1-10.54-14.07l-.63-2.61-1.89,1.91c-7.81,7.91-18.74,14.47-30.78,18.49a58.25,58.25,0,0,1-28.34,2.11L107,67V88.33H98.06v-24L97.12,64A59.07,59.07,0,0,1,86.55,58.46Zm11.51,43.3V91.33H110V70.52A61.1,61.1,0,0,0,138,68a83.19,83.19,0,0,0,30.17-17.47A25.48,25.48,0,0,0,178.68,63.6V91.33h11.8v10.43a46.21,46.21,0,0,1-92.42,0ZM144.27,151a48.86,48.86,0,0,0,14.94-2.33L144.43,158,130,148.85A49.2,49.2,0,0,0,144.27,151Zm-22.73-3.91,19.14,12.12-5.86,9.25-15.7-17.56ZM113.62,151h1.88l-.13.21,18.36,20.53,2.88,9.69L133.71,213l-25.47-49.93,9.11-7.76-6-4.26C112.09,151,112.85,151,113.62,151Zm19.22,99.21v16.69H110.28V192.78h-3v74.08h-21V178.27a27.36,27.36,0,0,1,20.8-26.52l5.35,3.8-8,6.79,28.71,56.28L130.41,249Zm20.85,16.69H135.84V251.63l8.59,4.19,9.26-4.52Zm-9.26-14.38-10.84-5.28,2.65-28.88.14-.07-.11-.22,3.16-34.52h10l5.84,63.69Zm57.79,14.38h-21V192.78h-3v74.08H156.69v-17l1.75-.86-2.68-29.23,29.29-57.41-8-6.79,5.08-3.61a27.35,27.35,0,0,1,20.07,26.33Z"/><path class="cls-3" d="M156.12,108.12a12,12,0,0,1-23.92,0Z"/><path d="M144.16,121.58a13.48,13.48,0,0,1-13.46-13.46v-1.5h26.93v1.5A13.48,13.48,0,0,1,144.16,121.58Zm-10.34-12a10.45,10.45,0,0,0,20.69,0Z"/><path d="M135.32,84.2h-3a4.48,4.48,0,1,0-9,0h-3a7.49,7.49,0,0,1,15,0Z"/><path d="M168,84.2h-3a4.48,4.48,0,1,0-8.95,0h-3a7.49,7.49,0,0,1,15,0Z"/><path d="M151.09,95.54a8.43,8.43,0,0,0-6.93,3.62A8.44,8.44,0,0,0,128.79,104v1.5h30.75V104A8.46,8.46,0,0,0,151.09,95.54Z"/><path class="cls-5" d="M198.72,182.25l-5.54-3.6-1.71-6.38-6.59.34-5.13-4.15-5.14,4.15-6.59-.34-1.71,6.38-5.54,3.6,2.37,6.16-2.37,6.17,5.54,3.6,1.71,6.37,6.59-.34,5.14,4.15,5.13-4.15,6.59.34,1.71-6.38,5.54-3.59-2.37-6.17Zm-19,14a7.84,7.84,0,1,1,7.83-7.84A7.84,7.84,0,0,1,179.75,196.25Z"/><polygon class="cls-6" points="191.47 204.55 184.88 204.21 179.75 208.36 174.61 204.21 168.02 204.55 166.69 199.6 166.69 238.03 179.75 226.28 192.8 238.03 192.8 199.6 191.47 204.55"/><circle class="cls-4" cx="179.75" cy="188.41" r="7.83"/><path d="M179.75,197.75a9.34,9.34,0,1,1,9.33-9.34A9.35,9.35,0,0,1,179.75,197.75Zm0-15.67a6.33,6.33,0,1,0,6.33,6.33A6.34,6.34,0,0,0,179.75,182.08Z"/><path d="M200.57,181.65l-6.08-3.94-1.88-7-7.23.37-5.63-4.55-5.64,4.55-7.23-.37-1.88,7-6.07,3.94,2.6,6.76-2.6,6.77,6.07,3.94.19.68v41.61l14.56-13.11,14.56,13.11V199.8l.18-.68,6.08-3.94L198,188.41Zm-20.82,42.6-11.56,10.4v-28.6l5.92-.31,5.64,4.56,5.63-4.56,5.92.31v28.6ZM196.88,194l-5,3.25L190.34,203l-6-.31-4.63,3.75-4.64-3.75-6,.31-1.54-5.76-5-3.25,2.14-5.57-2.14-5.56,5-3.25,1.54-5.76,6,.31,4.64-3.75,4.63,3.75,6-.31,1.54,5.76,5,3.25-2.14,5.56Z"/></svg>