<?xml version="1.0" encoding="UTF-8"?>
<svg width="123px" height="253px" viewBox="0 0 123 253" version="1.1" xmlns="http://www.w3.org/2000/svg" xmlns:xlink="http://www.w3.org/1999/xlink">
    <!-- Generator: sketchtool 50.2 (55047) - http://www.bohemiancoding.com/sketch -->
    <title>14FBC9ED-AFEC-4D8B-8683-2857EF57CFF6</title>
    <desc>Created with sketchtool.</desc>
    <defs></defs>
    <g id="Symbols" stroke="none" stroke-width="1" fill="none" fill-rule="evenodd">
        <g id="mateo_win">
            <path d="M92.134,138.908 L99.877,133.994 C99.704,133.948 99.538,133.887 99.364,133.845 L86.755,130 L86.628,130.619 L89.119,134.551 L71.344,154.434 L71.323,154.401 L68,165.546 L68.302,165.546 L71.718,202.77 L100.384,146.033 L92.134,138.908 Z" id="Fill-1" fill="#A2D39F"></path>
            <path d="M99.159,134 L91.416,138.914 L99.666,146.039 L71,202.776 L73.647,231.629 L71.981,232.442 L71.981,251.901 L120.51,251.901 L120.51,239.313 L120.51,210.905 L120.51,180.82 L120.51,162.772 C120.51,151.4 114.622,140.898 104.212,135.876 C102.591,135.094 100.897,134.465 99.159,134" id="Fill-3" fill="#DDA812"></path>
            <path d="M24,145.976 L52.135,201.487 L55.438,165.489 L55.741,165.489 L52.417,154.344 L52.397,154.377 L34.622,134.494 L37.469,130 L25.204,133.523 C25.098,133.545 24.994,133.572 24.888,133.595 L31.999,138.851 L24,145.976 Z" id="Fill-5" fill="#A2D39F"></path>
            <path d="M51.9493333,200.892 L23.8143333,145.381 L31.8133333,138.256 L24.7013333,133 C11.4563333,135.862 2.06633333,147.856 2.00933333,161.311 C1.98833333,166.357 2.00933333,171.404 2.00933333,176.45 L2.00933333,205.915 L2.00933333,235.505 L2.00933333,251.021 L2.00933333,251.244 L51.5323333,251.244 L51.5323333,232.114 L61.6173333,237.034 L49.1903333,230.971 L51.9493333,200.892 Z" id="Fill-7" fill="#DDA812"></path>
            <path d="M109.345,61.151 L109.345,73.079 L97.545,73.079 L97.545,46.006 C91.989,42.789 87.857,37.4 86.302,31 C80.466,36.909 73.459,41.629 66.027,45.292 C58.114,49.192 49.63,52.029 40.799,52.727 C35.813,53.121 30.781,52.879 25.855,52.016 L25.855,73.079 L13.928,73.079 L13.928,61.151 C7.428,61.151 2,66.579 2,73.079 C2,79.578 7.428,85.005 13.928,85.005 C13.928,105.344 26.66,122.7 44.585,129.564 L44.585,132.122 L60.113,141.961 L59.561,142.833 L64.03,142.833 L63.477,141.961 L79.609,131.74 L79.609,129.201 C97.047,122.101 109.345,104.995 109.345,85.005 C115.845,85.005 121.272,79.578 121.272,73.079 C121.272,66.579 115.845,61.151 109.345,61.151" id="Fill-42" fill="#BF7C25"></path>
            <polygon id="Fill-43" fill="#DDA812" points="54.689 150 54.689 150 54 151.089"></polygon>
            <polygon id="Fill-44" fill="#FFAEE4" points="51.775 153.923 34 134.04 37.827 128 59.499 141.732"></polygon>
            <path d="M35.748,133.955 L51.445,151.514 L57.304,142.267 L38.165,130.14 L35.748,133.955 Z M51.854,156.473 L32,134.265 L37.237,126 L61.444,141.338 L51.854,156.473 Z" id="Fill-45" fill="#000000"></path>
            <polygon id="Fill-46" fill="#FFAEE4" points="70.725 153.923 88.5 134.04 84.673 128 63 141.732"></polygon>
            <path d="M65.14,142.267 L70.999,151.514 L86.696,133.955 L84.278,130.14 L65.14,142.267 Z M70.59,156.473 L61,141.338 L85.207,126 L90.444,134.265 L70.59,156.473 Z" id="Fill-47" fill="#000000"></path>
            <path d="M97.417,13.6194907 C84.936,4.99249071 68.627,1.16849071 53.583,2.15049071 C38.467,3.13749071 24.229,10.2704907 14.146,21.5514907 C8.729,27.6104907 4.576,34.7764907 2,42.4844907 C5.685,45.0324907 9.646,47.1544907 13.8,48.8184907 L13.8,73.2554907 L25.727,73.2554907 L25.727,52.1924907 C43.212,55.2524907 60.8,49.7424907 75.343,40.0344907 C79.227,37.4414907 82.891,34.5004907 86.174,31.1764907 C87.729,37.5764907 91.861,42.9654907 97.417,46.1824907 L97.417,73.2554907 L109.344,73.2554907 L109.344,49.7034907 L109.344,26.7634907 C109.344,24.2994907 109.068,21.9424907 107.838,19.7394907 C105.748,15.9964907 101.705,13.6194907 97.417,13.6194907" id="Fill-48" fill="#000000"></path>
            <polygon id="Fill-49" fill="#000000" points="34.297 65.687 29 63.833 29.991 61 35.288 62.855"></polygon>
            <polygon id="Fill-50" fill="#000000" points="30.302 73.138 29 70.435 34.057 68 35.359 70.703"></polygon>
            <polygon id="Fill-51" fill="#000000" points="87.991 65.687 87 62.855 92.297 61 93.288 63.833"></polygon>
            <polygon id="Fill-52" fill="#000000" points="92.057 73.138 87 70.703 88.302 68 93.359 70.435"></polygon>
            <polygon id="Fill-53" fill="#FF5500" points="67.792 165.431 67.489 165.431 70.813 154.286 63.662 143 59.192 143 52.041 154.286 55.365 165.431 55.062 165.431 49 231.508 61.427 237.571 73.854 231.508"></polygon>
            <polygon id="Fill-54" fill="#FFAEE4" points="51 232.329 51 251.459 71.846 251.459 71.846 232 61.085 237.249"></polygon>
            <path d="M119.237,249.784442 L98.273,249.784442 L98.273,175.705442 L95.273,175.705442 L95.273,249.784442 L73.708,249.784442 L73.708,232.762442 L75.463,231.906442 L72.781,202.672442 L102.07,145.266442 L94.091,138.469442 L99.167,134.865442 C111.146,138.160442 119.216,149.275442 119.237,161.580442 C119.245,166.838442 119.237,172.095442 119.237,177.352442 L119.237,206.185442 L119.237,234.715442 L119.237,249.557442 L119.237,249.784442 Z M61.447,235.405442 L50.608,230.118442 L53.257,201.241442 L53.397,201.170442 L53.284,200.948442 L56.45,166.434442 L66.444,166.434442 L72.286,230.118442 L61.447,235.405442 Z M70.708,249.784442 L52.862,249.784442 L52.862,234.555442 L61.447,238.743442 L70.708,234.225442 L70.708,249.784442 Z M49.862,233.092442 L49.862,249.784442 L27.303,249.784442 L27.303,175.705442 L24.303,175.705442 L24.303,249.784442 L3.339,249.784442 L3.339,237.531442 L3.339,209.816442 L3.339,180.207442 L3.339,162.270442 C3.339,151.330442 8.947,141.239442 19.034,136.483442 C20.671,135.712442 22.384,135.104442 24.141,134.674442 L29.487,138.469442 L21.508,145.266442 L50.217,201.537442 L47.431,231.906442 L49.862,233.092442 Z M30.64,133.886442 L32.523,133.886442 L32.391,134.095442 L50.744,154.624442 L53.633,164.307442 L50.731,195.943442 L25.257,146.013442 L34.365,138.254442 L28.358,133.988442 C29.112,133.926442 29.871,133.886442 30.64,133.886442 Z M38.557,129.970442 L57.695,142.096442 L51.836,151.343442 L36.139,133.785442 L38.557,129.970442 Z M61.288,133.886442 C66.499,133.886442 71.517,133.061442 76.234,131.554442 L61.447,140.922442 L46.998,131.767442 C51.522,133.143442 56.32,133.886442 61.288,133.886442 Z M15.079,84.6774418 L15.079,74.2504418 L27.007,74.2504418 L27.007,53.4464418 C43.915,55.8944418 60.779,50.6024418 74.938,41.4494418 C78.586,39.0914418 82.052,36.4394418 85.225,33.4724418 C87.129,38.8404418 90.835,43.4784418 95.696,46.5254418 L95.696,74.2504418 L107.497,74.2504418 C107.497,81.6944418 107.893,89.1914418 105.974,96.4624418 C103.252,106.776442 96.885,115.964442 88.234,122.195442 C70.133,135.231442 44.578,133.161442 28.758,117.465442 C20.066,108.840442 15.079,96.9274418 15.079,84.6774418 Z M3.572,41.3824418 C8.416,27.7434418 18.262,16.2354418 31.076,9.47844179 C44.403,2.45344179 59.771,1.54444179 74.305,4.91844179 C82.291,6.77244179 89.976,9.93744179 96.729,14.6144418 C102.284,14.5744418 107.173,18.5774418 107.595,24.2644418 C107.73,26.0904418 107.624,27.9554418 107.624,29.7834418 L107.624,52.8824418 L107.624,59.3224418 L107.497,59.3224418 L107.497,71.2504418 L98.696,71.2504418 L98.696,44.8134418 C95.187,42.7814418 92.204,40.1644418 90.067,36.6824418 C88.35,33.8844418 87.541,30.8514418 86.776,27.7024418 C74.16,40.4844418 56.994,50.0464418 38.764,50.9944418 C33.787,51.2534418 28.902,50.7594418 24.007,49.9024418 L24.007,71.2504418 L15.079,71.2504418 L15.079,52.2064418 L15.079,47.2984418 C11.055,45.6854418 7.191,43.7804418 3.572,41.3824418 Z M69.2,154.016442 L66.392,163.434442 L56.503,163.434442 L53.694,154.016442 C55.808,150.679442 57.923,147.342442 60.038,144.004442 L62.857,144.004442 L69.2,154.016442 Z M86.755,133.785442 L71.058,151.343442 C69.105,148.261442 67.152,145.179442 65.199,142.096442 L84.338,129.970442 L86.755,133.785442 Z M91.936,133.886442 C93.006,133.886442 94.059,133.955442 95.097,134.075442 L89.212,138.254442 L98.32,146.013442 L72.268,197.078442 L69.261,164.308442 L72.15,154.624442 L90.503,134.095442 L90.371,133.886442 L91.936,133.886442 Z M12.079,71.2504418 L12.079,83.0694418 C7.024,82.3384418 3.152,77.8544418 3.152,72.7504418 C3.152,67.6444418 7.024,63.1614418 12.079,62.4304418 L12.079,71.2504418 Z M110.497,74.2504418 L110.624,74.2504418 L110.624,62.4544418 C115.62,63.2414418 119.424,67.6924418 119.424,72.7504418 C119.424,77.8554418 115.552,82.3384418 110.497,83.0694418 L110.497,74.2504418 Z M102.231,132.689442 L86.679,127.947442 L86.656,128.024442 L86.101,127.148442 C100.292,118.821442 109.963,103.588442 110.461,86.0944418 C117.174,85.3614418 122.424,79.5004418 122.424,72.7504418 C122.424,66.0604418 117.265,60.2384418 110.624,59.4314418 L110.624,41.8184418 C110.624,35.9934418 110.938,30.0744418 110.601,24.2574418 C110.205,17.4394418 104.498,11.8614418 97.673,11.6224418 C84.395,2.61044179 67.124,-1.19955821 51.234,0.328441792 C35.891,1.80544179 21.484,9.61244179 11.582,21.3904418 C6.321,27.6494418 2.581,34.8434418 0,42.5734418 C3.814,45.2104418 7.797,47.5204418 12.079,49.3194418 L12.079,59.4124418 C5.382,60.1604418 0.152,66.0134418 0.152,72.7504418 C0.152,79.5004418 5.402,85.3614418 12.115,86.0944418 C12.616,103.682442 22.391,118.983442 36.709,127.280442 L36.151,128.162442 L24.436,131.527442 C10.467,134.445442 0.405,147.084442 0.339,161.278442 C0.316,166.248442 0.339,171.218442 0.339,176.187442 L0.339,206.286442 L0.339,236.594442 L0.339,252.549442 L0.339,252.784442 L23.705,252.784442 L49.636,252.784442 L73.21,252.784442 L94.206,252.784442 L121.708,252.784442 L122.237,252.784442 L122.237,240.263442 L122.237,211.735442 L122.237,181.255442 L122.237,162.480442 C122.237,158.918442 121.902,155.411442 120.811,151.993442 C118.547,144.900442 113.624,138.784442 107.202,135.023442 C105.62,134.096442 103.954,133.314442 102.231,132.689442 Z" id="Fill-55" fill="#000000"></path>
            <path d="M72.919,91 C72.919,97.517 67.477,102.96 60.96,102.96 C54.442,102.96 49,97.518 49,91 L72.919,91 Z" id="Fill-56" fill="#FFFFFF"></path>
            <path d="M51.116,93.008 C51.85,98.077 56.345,101.96 61.464,101.96 C66.583,101.96 71.078,98.077 71.812,93.008 L51.116,93.008 Z M61.464,104.968 C57.353,104.968 53.4,103.03 50.865,99.798 C48.59,96.897 48,93.59 48,90 L74.928,90 C74.928,93.59 74.339,96.896 72.063,99.798 C69.528,103.03 65.574,104.968 61.464,104.968 Z" id="Fill-57" fill="#000000"></path>
            <path d="M51.967,67.484 L48.959,67.484 C48.959,61.717 40.008,61.713 40.008,67.484 L37,67.484 C37,63.41 40.409,60 44.483,60 C48.557,60 51.967,63.41 51.967,67.484" id="Fill-58" fill="#000000"></path>
            <path d="M84.967,67.484 L81.959,67.484 C81.959,61.716 73.008,61.713 73.008,67.484 L70,67.484 C70,63.41 73.41,60 77.484,60 C81.558,60 84.967,63.41 84.967,67.484" id="Fill-59" fill="#000000"></path>
            <path d="M68.298,79 C65.437,79 62.907,80.432 61.377,82.614 C58.842,79.002 53.798,77.936 50.036,80.251 C46.838,82.22 46,85.443 46,88.959 L69.97,88.959 L76.753,88.959 C76.753,86.727 76.604,84.646 75.306,82.731 C73.74,80.424 71.092,79 68.298,79" id="Fill-60" fill="#000000"></path>
            <path d="M96.979,179.784 C89.8,179.784 86.462,170.501 91.98,165.921 C97.471,161.363 105.91,166.281 104.696,173.295 C104.054,176.999 100.739,179.784 96.979,179.784 Z M115.958,165.784 L110.417,162.188 L108.707,155.809 L102.113,156.15 L96.979,152 L91.845,156.15 L85.251,155.809 L83.541,162.188 L78,165.783 L80.372,171.95 L78,178.116 L83.541,181.711 L85.251,188.091 L91.845,187.749 L96.979,191.9 L102.113,187.749 L108.707,188.09 L110.417,181.711 L115.958,178.116 L113.587,171.95 L115.958,165.784 Z" id="Fill-61" fill="#FFAEE4"></path>
            <polygon id="Fill-62" fill="#A2D39F" points="108.784 187.955 102.19 187.614 97.056 191.766 91.922 187.614 85.328 187.956 84 183 84 221.43 97.056 209.679 110.113 221.43 110.113 183"></polygon>
            <path d="M104.627294,171.754488 C104.627294,164.574488 95.3452943,161.236488 90.7642943,166.755488 C86.2072943,172.245488 91.1252943,180.685488 98.1382943,179.470488 C101.842294,178.829488 104.627294,175.514488 104.627294,171.754488" id="Fill-63" fill="#FF5500"></path>
            <path d="M97.2356905,164.958982 C93.7916905,164.958982 90.9056905,167.843982 90.9056905,171.288982 C90.9056905,174.732982 93.7916905,177.618982 97.2356905,177.618982 C100.68069,177.618982 103.56569,174.732982 103.56569,171.288982 C103.56569,167.842982 100.68069,164.958982 97.2356905,164.958982 M97.2356905,180.626982 C88.6596905,180.626982 84.7096905,169.540982 91.3006905,164.086982 C97.8676905,158.652982 107.97069,164.611982 106.41769,172.983982 C105.60669,177.353982 101.68169,180.626982 97.2356905,180.626982" id="Fill-64" fill="#000000"></path>
            <path d="M113.957,177.453 L108.955,180.698 L107.41,186.46 L101.456,186.152 L96.82,189.9 L92.183,186.152 L86.229,186.46 L84.685,180.698 L79.683,177.453 L81.823,171.885 L79.683,166.316 L84.685,163.071 L86.229,157.309 L92.183,157.617 L96.82,153.868 L101.456,157.617 L107.41,157.309 L108.955,163.07 L113.957,166.316 L111.816,171.885 L113.957,177.453 Z M96.82,207.724 L85.268,218.121 L85.268,189.522 L91.188,189.216 L96.82,193.768 L102.451,189.216 L108.372,189.522 L108.372,218.121 L96.82,207.724 Z M117.64,165.12 L111.561,161.176 L109.686,154.18 L102.451,154.554 L96.82,150 L91.188,154.554 L83.954,154.18 L82.079,161.177 L76,165.12 L78.601,171.885 L76,178.649 L82.079,182.593 L82.26,183.268 L82.26,224.876 L96.82,211.771 L111.38,224.876 L111.38,183.268 L111.561,182.593 L117.64,178.649 L115.039,171.885 L117.64,165.12 Z" id="Fill-65" fill="#000000"></path>
        </g>
    </g>
</svg>