<?xml version="1.0" encoding="UTF-8"?>
<svg width="175px" height="175px" viewBox="0 0 175 175" version="1.1" xmlns="http://www.w3.org/2000/svg" xmlns:xlink="http://www.w3.org/1999/xlink">
    <!-- Generator: sketchtool 50.2 (55047) - http://www.bohemiancoding.com/sketch -->
    <title>CE198286-7160-463A-AD6A-CE6412739372</title>
    <desc>Created with sketchtool.</desc>
    <defs>
        <circle id="path-1" cx="87.5" cy="87.5" r="87.5"></circle>
    </defs>
    <g id="Symbols" stroke="none" stroke-width="1" fill="none" fill-rule="evenodd">
        <g id="characters" transform="translate(-278.000000, -330.000000)">
            <g id="PLAYER-/-mateo_win" transform="translate(278.000000, 330.000000)">
                <mask id="mask-2" fill="white">
                    <use xlink:href="#path-1"></use>
                </mask>
                <use id="Mask" fill="#FFFFFF" xlink:href="#path-1"></use>
                <g id="mateo_win" mask="url(#mask-2)">
                    <g transform="translate(46.000000, 10.000000)">
                        <path d="M62.1717236,93.3373913 L67.3966748,90.0354941 C67.279935,90.004585 67.1679187,89.9635968 67.0505041,89.9353755 L58.5419919,87.3517787 L58.4562927,87.7677075 L60.1372114,90.4097628 L48.1426992,103.769881 L48.1285285,103.747708 L45.8861789,111.236443 L46.0899675,111.236443 L48.3950732,136.248617 L67.7387967,98.1249407 L62.1717236,93.3373913 Z" id="Fill-1" fill="#A2D39F"></path>
                        <path d="M66.9121707,90.0395257 L61.6872195,93.3414229 L67.2542927,98.1289723 L47.9105691,136.252648 L49.6967561,155.64004 L48.5725447,156.186324 L48.5725447,169.261542 L81.3197561,169.261542 L81.3197561,160.803202 L81.3197561,141.714822 L81.3197561,121.499605 L81.3197561,109.37249 C81.3197561,101.731225 77.3465528,94.6745455 70.3219187,91.3000791 C69.2280732,90.7746245 68.0849675,90.3519763 66.9121707,90.0395257" id="Fill-3" fill="#DDA812"></path>
                        <path d="M16.195122,98.0866403 L35.1805285,135.386522 L37.4093821,111.198142 L37.6138455,111.198142 L35.3708211,103.709407 L35.3573252,103.731581 L23.362813,90.3714625 L25.2839593,87.3517787 L17.0075772,89.7190119 C16.9360488,89.7337945 16.8658699,89.7519368 16.7943415,89.7673913 L21.5928211,93.2990909 L16.195122,98.0866403 Z" id="Fill-5" fill="#A2D39F"></path>
                        <path d="M35.0552412,134.986719 L16.0698347,97.6868379 L21.4675339,92.8992885 L16.6683794,89.3675889 C7.73069648,91.2906719 1.39435501,99.3498814 1.3558916,108.390791 C1.34172087,111.781383 1.3558916,115.172648 1.3558916,118.563241 L1.3558916,138.361858 L1.3558916,158.244466 L1.3558916,168.670237 L1.3558916,168.820079 L34.7738509,168.820079 L34.7738509,155.965929 L41.5791762,159.271858 L33.193477,155.197905 L35.0552412,134.986719 Z" id="Fill-7" fill="#DDA812"></path>
                        <path d="M73.7856504,41.0896047 L73.7856504,49.1044664 L65.8230488,49.1044664 L65.8230488,30.9131225 C62.073878,28.751502 59.2856179,25.1304348 58.2363089,20.8300395 C54.2981951,24.8005138 49.5698943,27.9720553 44.5548049,30.4333597 C39.2151382,33.053913 33.4901626,34.9601976 27.5310325,35.4292095 C24.1664959,35.6939526 20.7709187,35.5313439 17.4468699,34.9514625 L17.4468699,49.1044664 L9.39856911,49.1044664 L9.39856911,41.0896047 C5.01239024,41.0896047 1.3495935,44.7368775 1.3495935,49.1044664 C1.3495935,53.4713834 5.01239024,57.1179842 9.39856911,57.1179842 C9.39856911,70.7845059 17.9900813,82.4466403 30.085813,87.0588142 L30.085813,88.7776285 L40.5640569,95.3888142 L40.1915691,95.9747431 L43.2072358,95.9747431 L42.8340732,95.3888142 L53.7198943,88.5209486 L53.7198943,86.8149012 C65.487,82.0441502 73.7856504,70.55 73.7856504,57.1179842 C78.1718293,57.1179842 81.8339512,53.4713834 81.8339512,49.1044664 C81.8339512,44.7368775 78.1718293,41.0896047 73.7856504,41.0896047" id="Fill-42" fill="#BF7C25"></path>
                        <polygon id="Fill-43" fill="#DDA812" points="36.9039593 100.790514 36.9039593 100.790514 36.4390244 101.522253"></polygon>
                        <polygon id="Fill-44" fill="#FFAEE4" points="34.9376016 103.426522 22.9430894 90.0664032 25.5255366 86.0079051 40.1497317 95.2349407"></polygon>
                        <path d="M24.1226341,90.0092885 L34.7149187,101.807826 L38.6685528,95.5944269 L25.7536179,87.4458498 L24.1226341,90.0092885 Z M34.9909106,105.13996 L21.5934959,90.2175889 L25.1274065,84.6640316 L41.4622114,94.9701976 L34.9909106,105.13996 Z" id="Fill-45" fill="#000000"></path>
                        <polygon id="Fill-46" fill="#FFAEE4" points="47.725 103.426522 59.7195122 90.0664032 57.137065 86.0079051 42.5121951 95.2349407"></polygon>
                        <path d="M43.9562602,95.5944269 L47.9098943,101.807826 L58.5021789,90.0092885 L56.8705203,87.4458498 L43.9562602,95.5944269 Z M47.6339024,105.13996 L41.1626016,94.9701976 L57.4974065,84.6640316 L61.0313171,90.2175889 L47.6339024,105.13996 Z" id="Fill-47" fill="#000000"></path>
                        <path d="M65.7366748,9.15143645 C57.3145366,3.35463803 46.3092764,0.785151864 36.1576341,1.44499376 C25.9574065,2.10819534 16.3496504,6.90112024 9.5456748,14.4812388 C5.89030081,18.5525036 3.08786992,23.3676025 1.3495935,28.546891 C3.83621951,30.2589859 6.50908943,31.6848357 9.31219512,32.8029384 L9.31219512,49.223057 L17.3604959,49.223057 L17.3604959,35.070053 C29.1593171,37.1261795 41.0276423,33.423808 50.8412114,26.9006459 C53.462122,25.1583139 55.9345772,23.1821479 58.149935,20.9486301 C59.1992439,25.2490254 61.9875041,28.8700926 65.7366748,31.0317131 L65.7366748,49.223057 L73.7849756,49.223057 L73.7849756,33.3976025 L73.7849756,17.9833732 C73.7849756,16.327721 73.5987317,14.7439661 72.7687317,13.2636894 C71.3584065,10.7486301 68.6302033,9.15143645 65.7366748,9.15143645" id="Fill-48" fill="#000000"></path>
                        <polygon id="Fill-49" fill="#000000" points="23.1435041 44.1375099 19.5691057 42.8917391 20.2378293 40.9881423 23.8122276 42.234585"></polygon>
                        <polygon id="Fill-50" fill="#000000" points="20.4476911 49.1441107 19.5691057 47.3278656 22.9815528 45.6916996 23.8601382 47.5079447"></polygon>
                        <polygon id="Fill-51" fill="#000000" points="59.3760407 44.1375099 58.7073171 42.234585 62.2817154 40.9881423 62.950439 42.8917391"></polygon>
                        <polygon id="Fill-52" fill="#000000" points="62.1197642 49.1441107 58.7073171 47.5079447 59.5859024 45.6916996 62.9983496 47.3278656"></polygon>
                        <polygon id="Fill-53" fill="#FF5500" points="45.7458211 111.15917 45.5413577 111.15917 47.7843821 103.670435 42.9589106 96.0869565 39.9425691 96.0869565 35.1170976 103.670435 37.360122 111.15917 37.1556585 111.15917 33.0650407 155.558735 41.4507398 159.632688 49.836439 155.558735"></polygon>
                        <polygon id="Fill-54" fill="#FFAEE4" points="34.4146341 156.110395 34.4146341 168.964545 48.4814472 168.964545 48.4814472 155.889328 41.2199593 159.416324"></polygon>
                        <path d="M80.4607398,167.839348 L66.3143008,167.839348 L66.3143008,118.062945 L64.2899106,118.062945 L64.2899106,167.839348 L49.7379187,167.839348 L49.7379187,156.401641 L50.922187,155.826463 L49.1123821,136.183064 L68.8765041,97.6098621 L63.4923008,93.0427079 L66.9175691,90.6210478 C75.0009593,92.8350795 80.4465691,100.303657 80.4607398,108.571838 C80.4661382,112.104882 80.4607398,115.637253 80.4607398,119.169625 L80.4607398,138.543577 L80.4607398,157.713933 L80.4607398,167.686819 L80.4607398,167.839348 Z M41.4642358,158.17757 L34.1501138,154.62504 L35.9376504,135.221522 L36.032122,135.173815 L35.9558699,135.024645 L38.0922764,111.833419 L44.8361951,111.833419 L48.7783577,154.62504 L41.4642358,158.17757 Z M47.7135285,167.839348 L35.6711057,167.839348 L35.6711057,157.606423 L41.4642358,160.420494 L47.7135285,157.384684 L47.7135285,167.839348 Z M33.6467154,156.62338 L33.6467154,167.839348 L18.4239756,167.839348 L18.4239756,118.062945 L16.3995854,118.062945 L16.3995854,167.839348 L2.25314634,167.839348 L2.25314634,159.606107 L2.25314634,140.98338 L2.25314634,121.088004 L2.25314634,109.035475 C2.25314634,101.684487 6.0374065,94.9039727 12.8440813,91.7082415 C13.9487236,91.1901783 15.1046504,90.7816407 16.2902683,90.4927079 L19.8977317,93.0427079 L14.5135285,97.6098621 L33.8862683,135.420415 L32.0062846,155.826463 L33.6467154,156.62338 Z M20.6757724,89.9632218 L21.9464146,89.9632218 L21.8573415,90.1036565 L34.2418862,103.897846 L36.191374,110.40421 L34.2331138,131.661601 L17.0433415,98.1117988 L23.1893902,92.8982415 L19.1358862,90.0317593 C19.6446829,89.9900992 20.1568537,89.9632218 20.6757724,89.9632218 Z M26.0181382,87.3319174 L38.9323984,95.4798225 L34.9787642,101.693222 L24.3864797,89.8953561 L26.0181382,87.3319174 Z M41.3569431,89.9632218 C44.8733089,89.9632218 48.259439,89.4088739 51.4424553,88.3962652 L41.4642358,94.6909688 L31.7140976,88.5393878 C34.766878,89.4639727 38.0045528,89.9632218 41.3569431,89.9632218 Z M10.1752602,56.8978858 L10.1752602,49.8916012 L18.2242358,49.8916012 L18.2242358,35.9126289 C29.6336992,37.5575301 41.0134715,34.0016407 50.5679187,27.8514036 C53.0295772,26.2669767 55.3684228,24.4850004 57.5095528,22.491364 C58.7943659,26.0983206 61.2951626,29.2147633 64.5753496,31.2621546 L64.5753496,49.8916012 L72.538626,49.8916012 C72.538626,54.8934984 72.8058455,59.9310083 71.5109106,64.8166605 C69.6741138,71.7470162 65.3776829,77.9207712 59.5400163,82.1076091 C47.3255203,90.8669767 30.0810894,89.4760676 19.4058049,78.9293482 C13.5404715,73.1338937 10.1752602,65.1291111 10.1752602,56.8978858 Z M2.41037398,27.8063838 C5.67908943,18.6418384 12.3231382,10.9091901 20.9699837,6.36891346 C29.963,1.64855773 40.3332764,1.03776721 50.1407724,3.30488184 C55.5296992,4.55065259 60.7155122,6.67733243 65.2724146,9.81998065 C69.0209106,9.79310318 72.3199919,12.482866 72.6047561,16.3041704 C72.6958537,17.5311269 72.6243252,18.784289 72.6243252,20.0125893 L72.6243252,35.5336565 L72.6243252,39.8609293 L72.538626,39.8609293 L72.538626,47.8757909 L66.5997398,47.8757909 L66.5997398,30.1117988 C64.231878,28.7464233 62.2189593,26.9879648 60.7769187,24.648281 C59.6182927,22.768202 59.0723821,20.7302178 58.5561626,18.614289 C50.0429268,27.2029846 38.4593659,33.6280439 26.1578211,34.2650399 C22.7993577,34.4390716 19.5029756,34.1071348 16.1998455,33.531285 L16.1998455,47.8757909 L10.1752602,47.8757909 L10.1752602,35.0794273 L10.1752602,31.7815617 C7.45987805,30.6977277 4.85246341,29.4176882 2.41037398,27.8063838 Z M46.695935,103.489309 L44.8011057,109.817609 L38.1280407,109.817609 L36.2325366,103.489309 C37.6590569,101.247056 39.086252,99.0048028 40.5134472,96.7618779 L42.4156992,96.7618779 L46.695935,103.489309 Z M58.5419919,89.8953561 L47.9497073,101.693222 C46.6318293,99.6223127 45.3139512,97.5514036 43.9960732,95.4798225 L56.9110081,87.3319174 L58.5419919,89.8953561 Z M62.0381138,89.9632218 C62.7601463,89.9632218 63.4707073,90.0095854 64.1711463,90.0902178 L60.1999675,92.8982415 L66.3460163,98.1117988 L48.7662114,132.424249 L46.7370976,110.404882 L48.6865854,103.897846 L61.0711301,90.1036565 L60.9820569,89.9632218 L62.0381138,89.9632218 Z M8.15086992,47.8757909 L8.15086992,55.8174115 C4.73977236,55.3262257 2.12695935,52.3132613 2.12695935,48.8836961 C2.12695935,45.452787 4.73977236,42.4404945 8.15086992,41.9493087 L8.15086992,47.8757909 Z M74.5630163,49.8916012 L74.6487154,49.8916012 L74.6487154,41.9654352 C78.02,42.4942494 80.5869268,45.4850399 80.5869268,48.8836961 C80.5869268,52.3139332 77.9741138,55.3262257 74.5630163,55.8174115 L74.5630163,49.8916012 Z M68.9851463,89.1589135 L58.4907073,85.9725893 L58.475187,86.0243285 L58.1006748,85.4357119 C67.6767154,79.8404945 74.2026748,69.6048818 74.5387236,57.8500202 C79.0686341,57.3574905 82.6113171,53.4192692 82.6113171,48.8836961 C82.6113171,44.3884391 79.1300407,40.4764233 74.6487154,39.9341704 L74.6487154,28.0993482 C74.6487154,24.1853166 74.8606016,20.2081229 74.6331951,16.2994668 C74.3659756,11.718202 70.5149106,7.97013875 65.9094228,7.80954587 C56.9494715,1.7540518 45.2950569,-0.806027255 34.5725366,0.220692113 C24.2191301,1.21314271 14.4973333,6.45895298 7.81549593,14.3730241 C4.26539024,18.5786763 1.74165041,23.4125893 0,28.6066605 C2.5736748,30.3785577 5.26139024,31.9307316 8.15086992,33.1395459 L8.15086992,39.9214036 C3.6317561,40.4240123 0.102569106,44.3568581 0.102569106,48.8836961 C0.102569106,53.4192692 3.64525203,57.3574905 8.1751626,57.8500202 C8.51323577,69.6680439 15.109374,79.9493482 24.7711138,85.5244075 L24.3945772,86.1170557 L16.4893333,88.3781229 C7.06309756,90.3388344 0.273292683,98.8314431 0.228756098,108.368913 C0.213235772,111.708439 0.228756098,115.047965 0.228756098,118.386819 L0.228756098,138.611443 L0.228756098,158.976502 L0.228756098,169.697253 L0.228756098,169.855159 L15.9960569,169.855159 L33.4942114,169.855159 L49.4018699,169.855159 L63.5699024,169.855159 L82.1281626,169.855159 L82.4851301,169.855159 L82.4851301,161.441838 L82.4851301,142.272827 L82.4851301,121.792194 L82.4851301,109.176581 C82.4851301,106.783143 82.2590732,104.42666 81.5228699,102.129981 C79.9951301,97.3639332 76.6731057,93.254368 72.339561,90.7272139 C71.2720325,90.1043285 70.1478211,89.5788739 68.9851463,89.1589135 Z" id="Fill-55" fill="#000000"></path>
                        <path d="M49.2055041,61.1462451 C49.2055041,65.5252569 45.5332602,69.1826087 41.1356098,69.1826087 C36.7372846,69.1826087 33.0650407,65.5259289 33.0650407,61.1462451 L49.2055041,61.1462451 Z" id="Fill-56" fill="#FFFFFF"></path>
                        <path d="M34.4929106,62.4954941 C34.9882114,65.9015415 38.0214228,68.5106719 41.4757073,68.5106719 C44.9299919,68.5106719 47.9632033,65.9015415 48.4585041,62.4954941 L34.4929106,62.4954941 Z M41.4757073,70.5318577 C38.7016179,70.5318577 36.0341463,69.2296443 34.3235366,67.0579447 C32.788374,65.1086561 32.3902439,62.8865613 32.3902439,60.4743083 L50.5611707,60.4743083 C50.5611707,62.8865613 50.1637154,65.1079842 48.627878,67.0579447 C46.9172683,69.2296443 44.249122,70.5318577 41.4757073,70.5318577 Z" id="Fill-57" fill="#000000"></path>
                        <path d="M35.0671626,45.3449802 L33.037374,45.3449802 C33.037374,41.4699209 26.9972683,41.4672332 26.9972683,45.3449802 L24.9674797,45.3449802 C24.9674797,42.6075099 27.2678618,40.3162055 30.0169837,40.3162055 C32.7661057,40.3162055 35.0671626,42.6075099 35.0671626,45.3449802" id="Fill-58" fill="#000000"></path>
                        <path d="M57.3354553,45.3449802 L55.3056667,45.3449802 C55.3056667,41.469249 49.265561,41.4672332 49.265561,45.3449802 L47.2357724,45.3449802 C47.2357724,42.6075099 49.5368293,40.3162055 52.2859512,40.3162055 C55.0350732,40.3162055 57.3354553,42.6075099 57.3354553,45.3449802" id="Fill-59" fill="#000000"></path>
                        <path d="M46.0872683,53.083004 C44.1566748,53.083004 42.449439,54.0452174 41.417,55.5113834 C39.7063902,53.0843478 36.3027154,52.3680632 33.7641301,53.9235968 C31.6061301,55.2466403 31.0406504,57.4122925 31.0406504,59.7748221 L47.2155285,59.7748221 L51.7926748,59.7748221 C51.7926748,58.2750593 51.6921301,56.8767589 50.8162439,55.59 C49.7595122,54.0398419 47.9726504,53.083004 46.0872683,53.083004" id="Fill-60" fill="#000000"></path>
                        <path d="M65.4411138,120.803478 C60.596748,120.803478 58.3442764,114.565889 62.0678049,111.488419 C65.7731138,108.425731 71.4677236,111.730316 70.6485203,116.443281 C70.2153008,118.932134 67.9783496,120.803478 65.4411138,120.803478 Z M78.2480813,111.396364 L74.5090325,108.980079 L73.3551301,104.693794 L68.9055203,104.922925 L65.4411138,102.134387 L61.9767073,104.922925 L57.5270976,104.693794 L56.3731951,108.980079 L52.6341463,111.395692 L54.2347642,115.539526 L52.6341463,119.682688 L56.3731951,122.0983 L57.5270976,126.385257 L61.9767073,126.155455 L65.4411138,128.944664 L68.9055203,126.155455 L73.3551301,126.384585 L74.5090325,122.0983 L78.2480813,119.682688 L76.6481382,115.539526 L78.2480813,111.396364 Z" id="Fill-61" fill="#FFAEE4"></path>
                        <polygon id="Fill-62" fill="#A2D39F" points="73.4070894 126.293874 68.9574797 126.064743 65.4930732 128.854625 62.0286667 126.064743 57.5790569 126.294545 56.6829268 122.964427 56.6829268 148.786957 65.4930732 140.891028 74.3038943 148.786957 74.3038943 122.964427"></polygon>
                        <path d="M70.602158,115.408154 C70.602158,110.583648 64.3386946,108.340723 61.2474507,112.049142 C58.1724019,115.738075 61.4910523,121.409221 66.2234019,120.592818 C68.722849,120.162107 70.602158,117.934636 70.602158,115.408154" id="Fill-63" fill="#FF5500"></path>
                        <path d="M65.6143277,110.842004 C63.2903277,110.842004 61.3428643,112.780541 61.3428643,115.095363 C61.3428643,117.409514 63.2903277,119.348723 65.6143277,119.348723 C67.9390025,119.348723 69.8857911,117.409514 69.8857911,115.095363 C69.8857911,112.779869 67.9390025,110.842004 65.6143277,110.842004 M65.6143277,121.369909 C59.8272708,121.369909 57.1618237,113.920818 61.609409,110.256075 C66.0407993,106.60477 72.8582708,110.608842 71.8103115,116.234296 C71.2630513,119.17066 68.6144741,121.369909 65.6143277,121.369909" id="Fill-64" fill="#000000"></path>
                        <path d="M76.897813,119.237194 L73.5224797,121.417628 L72.4799187,125.289328 L68.4621789,125.082372 L65.3338211,127.600791 L62.2047886,125.082372 L58.1870488,125.289328 L57.1451626,121.417628 L53.7698293,119.237194 L55.2138943,115.49585 L53.7698293,111.753834 L57.1451626,109.573399 L58.1870488,105.7017 L62.2047886,105.908656 L65.3338211,103.389565 L68.4621789,105.908656 L72.4799187,105.7017 L73.5224797,109.572727 L76.897813,111.753834 L75.4530732,115.49585 L76.897813,119.237194 Z M65.3338211,139.577391 L57.5385691,146.563518 L57.5385691,127.346798 L61.5333659,127.141186 L65.3338211,130.199842 L69.1336016,127.141186 L73.1290732,127.346798 L73.1290732,146.563518 L65.3338211,139.577391 Z M79.3830894,110.950198 L75.281,108.300079 L74.0157561,103.599209 L69.1336016,103.850514 L65.3338211,100.790514 L61.5333659,103.850514 L56.6518862,103.599209 L55.3866423,108.300751 L51.2845528,110.950198 L53.0396992,115.49585 L51.2845528,120.04083 L55.3866423,122.690949 L55.5087805,123.144506 L55.5087805,151.102451 L65.3338211,142.296719 L75.1588618,151.102451 L75.1588618,123.144506 L75.281,122.690949 L79.3830894,120.04083 L77.6279431,115.49585 L79.3830894,110.950198 Z" id="Fill-65" fill="#000000"></path>
                    </g>
                </g>
            </g>
        </g>
    </g>
</svg>