<svg id="Layer_1" data-name="Layer 1" xmlns="http://www.w3.org/2000/svg" viewBox="0 0 300 300"><defs><style>.cls-1{fill:#9fe2a2;}.cls-1,.cls-2,.cls-3,.cls-4,.cls-5,.cls-6,.cls-7{stroke:#000;stroke-miterlimit:10;stroke-width:3px;}.cls-2{fill:#dda812;}.cls-3{fill:none;}.cls-5{fill:#eaa859;}.cls-6{fill:#fff;}.cls-7{fill:#f50;}</style></defs><title>portland_characters</title><path class="cls-1" d="M121.42,163.75h57.35a26.95,26.95,0,0,1,26.95,26.95V275a0,0,0,0,1,0,0H94.47a0,0,0,0,1,0,0V190.7A26.95,26.95,0,0,1,121.42,163.75Z"/><path class="cls-2" d="M148.77,232.72s-18.58-25.42-18.58-44-.33-25-.33-25h40.47s-.47,6.41-.47,25S148.77,232.72,148.77,232.72Z"/><line class="cls-3" x1="117.32" y1="201.69" x2="117.32" y2="275"/><line class="cls-3" x1="183.73" y1="201.69" x2="183.73" y2="275"/><path class="cls-4" d="M202.71,81.64a52.71,52.71,0,1,1-105.42,0Z"/><path class="cls-5" d="M133.6,152.53h32.77a0,0,0,0,1,0,0v13.8A16.39,16.39,0,0,1,150,182.72h0a16.39,16.39,0,0,1-16.39-16.39v-13.8A0,0,0,0,1,133.6,152.53Z"/><circle class="cls-5" cx="105.77" cy="105.56" r="12.56"/><circle class="cls-5" cx="195.05" cy="105.56" r="12.56"/><path class="cls-5" d="M195.05,119.1a44.64,44.64,0,1,1-89.28,0V96.78a44.64,44.64,0,0,1,89.28,0Z"/><path class="cls-3" d="M161.57,124.68a11.16,11.16,0,1,1-22.32,0"/><path class="cls-4" d="M208.9,83.9a58.9,58.9,0,0,0-117.8,0h44.48l13.35-10.48L163.32,83.9Z"/><path class="cls-6" d="M141.5,194C131.37,186,125,176.21,124,163.75h9.57l15,18.42Z"/><path class="cls-6" d="M157.3,194c10.13-8,16.53-17.82,17.47-30.28h-9.56l-15,18.42Z"/><line class="cls-3" x1="148.77" y1="232.72" x2="148.77" y2="275"/><circle class="cls-7" cx="139.37" cy="242.27" r="4.76"/><circle class="cls-4" cx="133.27" cy="102.36" r="6.28"/><circle class="cls-4" cx="167.56" cy="102.36" r="6.28"/><circle class="cls-6" cx="167.56" cy="101.15" r="4.22"/><circle class="cls-6" cx="133.27" cy="101.15" r="4.22"/><circle class="cls-7" cx="139.37" cy="261.97" r="4.76"/></svg>