<svg xmlns="http://www.w3.org/2000/svg" width="156" height="294" viewBox="0 0 156 294">
    <g fill="none" fill-rule="evenodd">
        <path fill="#DDA812" d="M143.44 291.18H11.624v-99.886c0-17.635 14.295-31.931 31.93-31.931h67.955c17.635 0 31.931 14.296 31.931 31.931v99.886z"/>
        <path stroke="#000" stroke-width="4" d="M143.44 291.18H11.624v-99.886c0-17.635 14.295-31.931 31.93-31.931h67.955c17.635 0 31.931 14.296 31.931 31.931v99.886z"/>
        <path fill="#FFF" d="M75.966 241.081s-22.012-30.114-22.012-52.114c0-22-.4-29.604-.4-29.604h47.956s-.556 7.604-.556 29.604-24.988 52.114-24.988 52.114"/>
        <path stroke="#000" stroke-width="4" d="M75.966 241.081s-22.012-30.114-22.012-52.114c0-22-.4-29.604-.4-29.604h47.956s-.556 7.604-.556 29.604-24.988 52.114-24.988 52.114zM38.702 204.324v86.856M117.384 204.324v86.856"/>
        <path fill="#F50" d="M143.817 137.303c10.5-10.499 10-29.547 10-42.729 0-13.18-10-39.542-10-52.722v.04c0-22.03-17.86-39.892-39.893-39.892H51.892C29.86 2 12 19.861 12 41.892v-.04c0 13.18-10 39.542-10 52.722 0 13.182 1.003 33.731 10 42.73 8.998 8.996 121.318 10.498 131.817 0"/>
        <path stroke="#000" stroke-width="4" d="M143.817 137.303c10.5-10.499 10-29.547 10-42.729 0-13.18-10-39.542-10-52.722v.04c0-22.03-17.86-39.892-39.893-39.892H51.892C29.86 2 12 19.861 12 41.892v-.04c0 13.18-10 39.542-10 52.722 0 13.182 1.003 33.731 10 42.73 8.998 8.996 121.318 10.498 131.817 0z"/>
        <path fill="#FFAEE4" d="M77.397 181.844c-10.723 0-19.415-8.692-19.415-19.415v-16.35h38.83v16.35c0 10.723-8.692 19.415-19.415 19.415"/>
        <path stroke="#000" stroke-width="4" d="M77.397 181.844c-10.723 0-19.415-8.692-19.415-19.415v-16.35h38.83v16.35c0 10.723-8.692 19.415-19.415 19.415z"/>
        <path fill="#FFAEE4" d="M130.8 106.47c0 29.212-23.68 52.893-52.892 52.893-29.211 0-52.891-23.68-52.891-52.893V80.024c0-29.212 23.68-52.892 52.89-52.892 29.213 0 52.894 23.68 52.894 52.892v26.446z"/>
        <path stroke="#000" stroke-width="4" d="M130.8 106.47c0 29.212-23.68 52.893-52.892 52.893-29.211 0-52.891-23.68-52.891-52.893V80.024c0-29.212 23.68-52.892 52.89-52.892 29.213 0 52.894 23.68 52.894 52.892v26.446z"/>
        <path stroke="#000" stroke-width="4" d="M91.132 113.082c0 7.303-5.92 13.223-13.224 13.223-7.302 0-13.222-5.92-13.222-13.223"/>
        <path fill="#9FE2A2" d="M64.685 86.636a6.612 6.612 0 0 1-13.224 0 6.612 6.612 0 0 1 13.224 0"/>
        <path stroke="#000" stroke-width="4" d="M64.685 86.636a6.612 6.612 0 0 1-13.224 0 6.612 6.612 0 0 1 13.224 0z"/>
        <path fill="#9FE2A2" d="M104.354 86.636a6.611 6.611 0 1 1-13.222 0 6.611 6.611 0 0 1 13.222 0"/>
        <path stroke="#000" stroke-width="4" d="M104.354 86.636a6.611 6.611 0 1 1-13.222 0 6.611 6.611 0 0 1 13.222 0z"/>
        <path fill="#F50" d="M133.62 70.968c0-31.04-25.162-56.201-56.2-56.201-31.04 0-56.201 25.162-56.201 56.2h42.437l12.742-10 13.734 10h43.488z"/>
        <path stroke="#000" stroke-width="4" d="M133.62 70.968c0-31.04-25.162-56.201-56.2-56.201-31.04 0-56.201 25.162-56.201 56.2h42.437l12.742-10 13.734 10h43.488z"/>
        <path fill="#FFF" d="M67.352 195.25c-12.005-9.486-19.584-21.12-20.7-35.887h11.33l.221 6 17.508 15.832-8.359 14.055z"/>
        <path stroke="#000" stroke-width="4" d="M67.352 195.25c-12.005-9.486-19.584-21.12-20.7-35.887h11.33l.221 6 17.508 15.832-8.359 14.055z"/>
        <path fill="#FFF" d="M86.071 195.25c12.005-9.486 19.584-21.12 20.7-35.887h-11.33l-.22 6-17.509 15.832 8.36 14.055z"/>
        <path stroke="#000" stroke-width="4" d="M86.071 195.25c12.005-9.486 19.584-21.12 20.7-35.887h-11.33l-.22 6-17.509 15.832 8.36 14.055zM75.966 241.081v50.1"/>
        <path fill="#FFF" d="M70.469 252.395a5.643 5.643 0 1 1-11.288 0 5.643 5.643 0 0 1 11.288 0"/>
        <path stroke="#000" stroke-width="4" d="M70.469 252.395a5.643 5.643 0 1 1-11.288 0 5.643 5.643 0 0 1 11.288 0z"/>
        <path fill="#FFF" d="M70.469 275.743a5.643 5.643 0 1 1-11.287.001 5.643 5.643 0 0 1 11.287-.001"/>
        <path stroke="#000" stroke-width="4" d="M70.469 275.743a5.643 5.643 0 1 1-11.287.001 5.643 5.643 0 0 1 11.287-.001z"/>
    </g>
</svg>
