<?xml version="1.0" encoding="UTF-8"?>
<svg width="121px" height="254px" viewBox="0 0 121 254" version="1.1" xmlns="http://www.w3.org/2000/svg" xmlns:xlink="http://www.w3.org/1999/xlink">
    <!-- Generator: sketchtool 50.2 (55047) - http://www.bohemiancoding.com/sketch -->
    <title>E651FF9C-2112-4977-BE99-D9657CA413DB</title>
    <desc>Created with sketchtool.</desc>
    <defs></defs>
    <g id="Symbols" stroke="none" stroke-width="1" fill="none" fill-rule="evenodd">
        <g id="minh">
            <path d="M73.8823,61.2278 L59.4883,50.7468 L46.1343,61.2278 L18.2263,61.2278 C15.8733,69.0448 16.3303,77.3938 16.3303,85.4578 C16.3303,92.6278 15.9763,99.8218 17.6813,106.8468 C20.7113,119.3258 28.9823,130.1708 40.4383,136.0628 C52.3043,142.1658 66.7573,142.6528 78.9823,137.2858 C90.3433,132.2968 99.1983,122.4498 103.2063,110.7328 C105.7573,103.2768 105.6343,95.7308 105.6183,87.9508 C105.6003,78.9998 106.3333,69.9168 103.7183,61.2278 L73.8823,61.2278 Z" id="Fill-1" fill="#EAA859"></path>
            <path d="M89.3315,141.071 L84.2695,141.071 L85.3315,141.071 C84.8845,146.996 83.1905,152.317 80.4625,157.135 C80.4155,162.052 80.7385,167.021 79.8135,171.882 C78.8855,176.763 77.0105,181.442 74.8625,185.903 C70.7275,194.492 65.3895,202.684 59.3325,210.041 C53.9915,202.674 49.3165,194.559 45.7355,186.19 C44.0035,182.14 42.4885,177.916 41.6305,173.587 C40.6935,168.866 40.7615,164.032 40.7365,159.242 C37.2545,153.881 35.1045,147.873 34.5915,141.071 L35.6535,141.071 C27.7195,141.071 20.1645,142.446 14.0695,147.889 C8.3285,153.018 5.3675,160.069 5.0065,167.685 C4.8045,171.949 5.0265,176.238 5.0265,180.505 L5.0265,193.87 L5.0265,221.779 L5.0265,252.325 L116.2805,252.325 L116.2805,196.48 C116.2805,187.225 116.3295,177.969 116.2835,168.714 C116.2515,162.163 114.1455,155.852 109.9415,150.782 C104.8725,144.669 97.2805,141.071 89.3315,141.071" id="Fill-3" fill="#9FE2A2"></path>
            <path d="M75.769,141.071 L60.806,159.497 L75.769,141.071 Z" id="Fill-5" fill="#9FE2A2"></path>
            <polygon id="Fill-7" fill="#000000" points="61.9702 160.4431 59.6412 158.5511 74.6042 140.1251 76.9332 142.0171"></polygon>
            <path d="M44.1548,141.071 L59.1178,159.497 L44.1548,141.071 Z" id="Fill-9" fill="#9FE2A2"></path>
            <polygon id="Fill-11" fill="#000000" points="57.9536 160.4431 42.9906 142.0171 45.3196 140.1251 60.2826 158.5511"></polygon>
            <path d="M60.9722,114.6702 C53.9912,114.6702 48.3122,108.9902 48.3122,102.0092 L51.3122,102.0092 C51.3122,107.2162 55.7642,111.6702 60.9722,111.6702 C66.1792,111.6702 70.6322,107.2162 70.6322,102.0092 L73.6322,102.0092 C73.6322,108.9902 67.9522,114.6702 60.9722,114.6702" id="Fill-13" fill="#000000"></path>
            <path d="M119.4614,61.2278 C119.4614,37.9358 104.8874,16.0168 83.4474,6.9388 C61.2524,-2.4592 34.4994,3.2438 17.8764,20.6418 C7.5294,31.4718 1.6564,46.2568 1.6564,61.2278 L46.1344,61.2278 L59.4884,50.7468 L73.8824,61.2278 L119.4614,61.2278 Z" id="Fill-15" fill="#000000"></path>
            <path d="M52.062,171.3596 C41.93,163.3536 35.534,153.5356 34.591,141.0706 L44.155,141.0706 L59.118,159.4976 L52.062,171.3596 Z" id="Fill-17" fill="#EEADCD"></path>
            <path d="M67.8608,171.3596 C77.9938,163.3536 84.3898,153.5356 85.3328,141.0706 L75.7688,141.0706 L60.8058,159.4976 L67.8608,171.3596 Z" id="Fill-19" fill="#EEADCD"></path>
            <path d="M54.6929,219.5906 C54.6929,222.1566 52.4969,224.3536 49.9289,224.3536 C47.2839,224.3536 45.0739,222.0396 45.1739,219.4036 C45.2689,216.9016 47.4259,214.8376 49.9229,214.8356 C52.4929,214.8336 54.6929,217.0176 54.6929,219.5906" id="Fill-21" fill="#FF5500"></path>
            <path d="M49.9292,216.3274 C45.7202,216.3274 45.7312,222.8534 49.9292,222.8534 C54.1252,222.8534 54.1452,216.3274 49.9292,216.3274 M49.9292,225.8534 C46.5542,225.8534 43.6662,222.9654 43.6662,219.5904 C43.6662,216.2154 46.5542,213.3274 49.9292,213.3274 C53.3052,213.3274 56.1932,216.2154 56.1932,219.5904 C56.1932,222.9664 53.3052,225.8534 49.9292,225.8534" id="Fill-23" fill="#000000"></path>
            <path d="M43.8286,71.9114 C37.4406,71.9114 33.7586,79.8944 37.9306,84.7534 C42.3836,89.9404 51.4196,86.7694 51.6016,79.9084 C51.7166,75.6234 48.1256,71.9114 43.8286,71.9114" id="Fill-25" fill="#000000"></path>
            <path d="M78.1187,71.9114 C71.7307,71.9114 68.0487,79.8944 72.2207,84.7534 C76.6737,89.9404 85.7097,86.7694 85.8917,79.9084 C86.0067,75.6234 82.4157,71.9114 78.1187,71.9114" id="Fill-27" fill="#000000"></path>
            <path d="M78.1187,75.7551 C74.6167,75.7551 74.6117,81.1951 78.1187,81.1951 C81.6227,81.1951 81.6257,75.7551 78.1187,75.7551" id="Fill-29" fill="#FFFFFF"></path>
            <path d="M43.8286,75.7551 C40.3266,75.7551 40.3216,81.1951 43.8286,81.1951 C47.3326,81.1951 47.3356,75.7551 43.8286,75.7551" id="Fill-31" fill="#FFFFFF"></path>
            <path d="M54.6929,239.2961 C54.6929,241.8621 52.4969,244.0591 49.9289,244.0591 C47.2839,244.0591 45.0739,241.7461 45.1739,239.1091 C45.2689,236.6081 47.4259,234.5441 49.9229,234.5411 C52.4929,234.5391 54.6929,236.7231 54.6929,239.2961" id="Fill-33" fill="#FF5500"></path>
            <path d="M49.9292,236.033 C45.7192,236.033 45.7312,242.559 49.9292,242.559 C54.1252,242.559 54.1452,236.033 49.9292,236.033 M49.9292,245.559 C46.5542,245.559 43.6662,242.672 43.6662,239.296 C43.6662,235.921 46.5542,233.033 49.9292,233.033 C53.3052,233.033 56.1932,235.921 56.1932,239.296 C56.1932,242.672 53.3052,245.559 49.9292,245.559" id="Fill-35" fill="#000000"></path>
            <path d="M60.8062,159.4973 L75.7692,141.0703 L76.9272,141.0703 L76.9272,138.1233 C66.4292,142.1433 54.5662,142.0213 44.1552,137.7833 L44.1552,141.0703 L59.1182,159.4973 L58.8442,159.9563 C59.6042,160.0353 60.3532,160.0423 61.1142,160.0163 L60.8062,159.4973 Z" id="Fill-37" fill="#EAA859"></path>
            <path d="M75.769,141.071 L60.806,159.497 L75.769,141.071 Z" id="Fill-39" fill="#DDA812"></path>
            <polygon id="Fill-41" fill="#000000" points="61.9702 160.4431 59.6412 158.5511 74.6042 140.1251 76.9332 142.0171"></polygon>
            <path d="M67.8608,171.3596 L60.8058,159.4976 L61.1138,160.0156 C60.3518,160.0426 59.6048,160.0356 58.8438,159.9566 L59.1178,159.4976 L52.0618,171.3596 C47.4598,167.7226 43.6368,163.7056 40.7368,159.2426 C40.7608,163.8546 40.6258,168.5056 41.5088,173.0576 C42.3978,177.6396 44.0028,182.0786 45.8448,186.3556 C49.4278,194.6716 54.0158,202.7086 59.3328,210.0416 C65.4728,202.5826 70.9718,194.2156 75.1218,185.4826 C77.1388,181.2356 78.8948,176.7316 79.7558,172.0946 C80.6718,167.1616 80.4148,162.1246 80.4628,157.1356 C77.4518,162.4536 73.1768,167.1596 67.8608,171.3596" id="Fill-43" fill="#DDA812"></path>
            <path d="M113.2192,61.2278 L103.7182,61.2278 C106.1712,69.3798 105.6132,77.9388 105.6132,86.3458 C110.1052,78.9688 112.8322,70.4008 113.2192,61.2278" id="Fill-45" fill="#000000"></path>
            <path d="M16.3306,87.634 C16.3306,78.833 15.6586,69.756 18.2266,61.228 L7.8976,61.228 C8.3096,70.942 11.3536,79.972 16.3306,87.634" id="Fill-47" fill="#000000"></path>
            <path d="M3.7749,82.8845 C3.7749,89.8185 9.3959,95.4405 16.3309,95.4405 L16.3309,87.6345 C13.3099,82.9825 11.0059,77.8245 9.5659,72.3185 C6.0869,74.5505 3.7749,78.4445 3.7749,82.8845" id="Fill-49" fill="#EAA859"></path>
            <path d="M111.6587,71.8816 C110.3577,77.0466 108.3117,81.9146 105.6127,86.3456 L105.6127,95.4406 C111.2187,95.4406 116.3467,91.4856 117.7617,86.0616 C119.1837,80.6036 116.5967,74.6006 111.6587,71.8816" id="Fill-51" fill="#EAA859"></path>
            <path d="M104.8335,59.7278 L74.3705,59.7278 L59.4545,48.8668 L45.6155,59.7278 L3.1765,59.7278 C3.7525,37.3918 18.1065,16.6718 38.7325,8.1378 C60.0205,-0.6712 85.4915,4.7238 101.5955,21.1348 C111.6415,31.3728 117.5715,45.3918 117.9415,59.7278 L104.8335,59.7278 Z M116.6685,82.8848 C116.6685,88.4718 112.5025,93.1048 107.1125,93.8388 L107.1125,86.7638 C109.4405,82.8718 111.2855,78.6368 112.5585,74.2858 C115.1315,76.3648 116.6685,79.5138 116.6685,82.8848 Z M107.0315,71.5038 C106.8665,68.5468 106.4215,65.5988 105.6905,62.7278 L111.6305,62.7278 C111.1875,68.7928 109.6425,74.7878 107.1125,80.3168 C107.1125,77.3838 107.1965,74.4348 107.0315,71.5038 Z M104.1125,85.9248 C104.1125,92.6448 104.4955,99.4488 103.0055,106.0528 C101.7555,111.5938 99.3905,116.8478 96.0735,121.4588 C90.0695,129.8058 81.0965,135.9068 71.1035,138.3528 C48.7425,143.8238 25.2775,129.7998 19.3035,107.6118 C17.3795,100.4698 17.8305,92.9378 17.8305,85.6138 C17.8305,77.9508 17.3225,70.2018 19.3615,62.7278 L46.6525,62.7278 L59.5215,52.6268 L73.3945,62.7278 L102.5815,62.7278 C104.6395,70.2688 104.1125,78.1868 104.1125,85.9248 Z M83.6415,142.8668 C82.3225,153.4378 76.3075,162.3728 68.2625,169.1008 L63.7015,161.4318 L63.7025,161.4318 L62.6305,159.6298 L76.4835,142.5708 L83.6715,142.5708 C83.6595,142.6688 83.6525,142.7688 83.6415,142.8668 Z M86.1075,146.3168 C86.3585,145.0798 86.5625,143.8258 86.6995,142.5708 C94.1585,142.5708 101.3105,144.3018 106.8405,149.5748 C112.1685,154.6548 114.6495,161.4458 114.8785,168.7058 C115.0105,172.9078 114.7805,177.1258 114.7805,181.3308 L114.7805,194.7488 L114.7805,221.3178 L114.7805,250.8248 L95.7885,250.8248 L95.7885,179.0188 L92.7885,179.0188 L92.7885,250.8248 L60.8325,250.8248 L60.8325,210.5768 C66.9235,203.0618 72.3885,194.7688 76.5375,186.0188 C78.5335,181.8098 80.2105,177.3908 81.1555,172.8188 C82.1925,167.8098 81.9125,162.6658 81.9595,157.5848 C83.9135,154.0648 85.2985,150.2588 86.1075,146.3168 Z M59.4085,207.5348 C50.6155,194.6718 42.2755,179.9038 42.2525,163.9048 C45.2375,167.5718 48.7775,170.6758 52.4765,173.5988 L59.6585,161.5228 C59.8645,161.5328 60.0715,161.5398 60.2765,161.5428 L67.4475,173.5988 C71.6875,170.2468 75.6915,166.6378 78.9295,162.2788 C78.9145,166.3208 78.6555,170.3798 77.6805,174.3148 C76.6575,178.4388 74.9345,182.4068 73.0405,186.1978 C69.2665,193.7568 64.5905,200.8708 59.4085,207.5348 Z M57.8325,250.8248 L29.3815,250.8248 L29.3815,179.0188 L26.3815,179.0188 L26.3815,250.8248 L6.5275,250.8248 L6.5275,195.6158 C6.5275,186.4508 6.3985,177.2758 6.5275,168.1108 C6.6165,161.7548 8.9995,155.6098 13.2825,150.8978 C18.5065,145.1518 25.5715,142.5708 33.2245,142.5708 C33.8905,148.6618 35.9465,154.5668 39.2395,159.7328 C39.2615,164.5088 39.1645,169.2748 40.1605,173.9748 C41.1065,178.4348 42.6465,182.7518 44.4385,186.9368 C47.9935,195.2318 52.5865,203.1858 57.8325,210.5248 L57.8325,250.8248 Z M43.4395,142.5708 C48.0585,148.2568 52.6755,153.9438 57.2935,159.6298 L56.3545,161.2068 L56.3545,161.2078 L51.6605,169.1008 C43.5205,162.2908 37.5245,153.2658 36.2595,142.5708 L43.4395,142.5708 Z M47.0285,140.4098 C55.8005,143.1978 65.3675,143.2808 74.1865,140.6408 C69.4445,146.4798 64.7035,152.3178 59.9625,158.1568 C55.1925,152.2838 50.4235,146.4108 45.6545,140.5378 L45.6545,139.9568 C46.1075,140.1168 46.5705,140.2638 47.0285,140.4098 Z M16.1995,62.9698 C14.6405,69.2448 14.8305,75.6008 14.8305,82.0038 C11.8095,76.0178 9.9765,69.4158 9.4865,62.7278 L16.2535,62.7278 C16.2325,62.8078 16.2195,62.8898 16.1995,62.9698 Z M14.8305,93.8388 C5.8365,92.6138 2.1005,81.1238 8.7295,74.8668 C10.1545,79.5118 12.2185,83.9778 14.8305,88.0748 L14.8305,93.8388 Z M120.9615,62.7278 C120.9615,49.8038 117.3955,36.9978 109.8845,26.4008 C103.0315,16.7328 93.3245,9.1338 82.2685,4.8588 C58.1255,-4.4732 30.0445,3.1148 13.7245,23.1238 C4.5405,34.3848 0.1565,48.3018 0.1565,62.7278 L6.4845,62.7278 C6.6935,65.7548 7.1565,68.7498 7.8635,71.6828 C3.2875,75.1358 1.2415,81.3048 2.8345,86.8098 C4.3915,92.1868 9.2755,96.2698 14.8415,96.8588 C15.0145,115.6088 26.4305,131.7098 42.6545,138.7598 L42.6545,139.5708 C38.0035,139.5708 33.2705,139.2158 28.6405,139.7678 C24.7815,140.2278 21.0315,141.4998 17.6765,143.4558 C10.6305,147.5628 5.6345,154.5978 4.0735,162.6038 C3.2075,167.0488 3.5275,171.6678 3.5275,176.1718 L3.5275,191.1888 L3.5275,220.6498 L3.5275,253.8248 L117.7805,253.8248 L117.7805,194.4358 L117.7805,179.3368 C117.7805,174.6848 118.0855,169.9118 117.6095,165.2788 C116.7795,157.1828 112.6155,149.8128 106.0265,145.0178 C102.5055,142.4538 98.3965,140.6808 94.0915,139.9828 C88.9395,139.1478 83.6225,139.5708 78.4275,139.5708 L78.4275,139.1228 C95.1075,132.2748 106.9265,115.9398 107.1025,96.8588 C112.8685,96.2488 117.8725,91.8928 119.2585,86.2598 C120.6505,80.5978 118.2325,74.3958 113.3725,71.1738 C114.0115,68.4028 114.4145,65.5768 114.6115,62.7278 L120.9615,62.7278 Z" id="Fill-53" fill="#000000"></path>
        </g>
    </g>
</svg>