<?xml version="1.0" encoding="UTF-8"?>
<svg width="121px" height="244px" viewBox="0 0 121 244" version="1.1" xmlns="http://www.w3.org/2000/svg" xmlns:xlink="http://www.w3.org/1999/xlink">
    <!-- Generator: sketchtool 50.2 (55047) - http://www.bohemiancoding.com/sketch -->
    <title>146170E7-4B2A-4225-8D35-9822FA34F748</title>
    <desc>Created with sketchtool.</desc>
    <defs>
        <polygon id="path-1" points="0.185683819 0.0087612133 120.9915 0.0087612133 120.9915 243 0.185683819 243"></polygon>
    </defs>
    <g id="Symbols" stroke="none" stroke-width="1" fill="none" fill-rule="evenodd">
        <g id="minh_lose">
            <path d="M89.3616,130.3678 L89.1506,130.3678 C76.6256,140.5578 59.0766,143.1798 44.1236,137.0618 C40.0636,135.4008 36.2556,133.1358 32.8526,130.3678 C26.1326,130.3678 19.7336,132.3818 14.5666,136.7718 C9.2956,141.2518 5.8866,147.7008 5.1936,154.5858 C4.7246,159.2478 5.0566,164.0798 5.0566,168.7528 L5.0566,196.5338 L5.0566,225.8458 L5.0566,241.3848 L5.0566,241.6218 L116.3106,241.6218 L116.3106,228.9698 L116.3106,201.0088 L116.3106,172.2078 C116.3106,167.2938 116.3336,162.3788 116.3106,157.4648 C116.2526,144.7538 107.2966,133.4508 94.7466,130.9058 C92.9756,130.5468 91.1686,130.3678 89.3616,130.3678" id="Fill-120" fill="#9FE2A2"></path>
            <path d="M73.9124,60.5241 L59.5184,50.0441 L46.1644,60.5241 L18.2564,60.5241 C16.4044,66.6761 16.3604,72.8601 16.3604,79.1921 L16.3604,94.7671 C16.3604,109.5571 23.0124,123.5001 35.1744,132.1411 C48.7364,141.7791 67.0944,143.0001 81.8114,135.2301 C96.2954,127.5851 105.5314,112.2821 105.6414,95.9231 C105.6704,91.7671 105.6424,87.6091 105.6424,83.4521 C105.6424,78.5461 105.9094,73.5191 105.3894,68.6321 C105.0964,65.8871 104.5444,63.1691 103.7484,60.5241 L73.9124,60.5241 Z" id="Fill-122" fill="#EAA859"></path>
            <path d="M54.7229,208.8873 C54.7229,211.4813 52.5539,213.6503 49.9589,213.6503 C47.3669,213.6503 45.1969,211.4803 45.1969,208.8873 C45.1969,206.3673 47.2469,204.2293 49.7639,204.1323 C52.4309,204.0303 54.7229,206.2093 54.7229,208.8873" id="Fill-124" fill="#FF5500"></path>
            <path d="M49.9592,205.6237 C45.7502,205.6237 45.7612,212.1497 49.9592,212.1497 C54.1552,212.1497 54.1752,205.6237 49.9592,205.6237 M49.9592,215.1497 C46.5522,215.1497 43.6962,212.2967 43.6962,208.8877 C43.6962,205.4787 46.5512,202.6237 49.9592,202.6237 C53.3682,202.6237 56.2232,205.4787 56.2232,208.8877 C56.2232,212.2967 53.3672,215.1497 49.9592,215.1497" id="Fill-126" fill="#000000"></path>
            <path d="M54.7229,228.5934 C54.7229,231.1864 52.5539,233.3564 49.9589,233.3564 C47.3669,233.3564 45.1969,231.1864 45.1969,228.5934 C45.1969,226.0734 47.2469,223.9354 49.7639,223.8374 C52.4309,223.7354 54.7229,225.9144 54.7229,228.5934" id="Fill-128" fill="#FF5500"></path>
            <path d="M73.4133,107.9469 C69.6463,104.1809 63.5173,104.1809 59.7513,107.9469 L57.6303,105.8259 C62.5663,100.8899 70.5983,100.8899 75.5343,105.8259 L73.4133,107.9469 Z" id="Fill-130" fill="#000000"></path>
            <path d="M119.4915,60.5241 C119.4915,36.0681 103.8055,13.5991 80.8315,5.1921 C57.5955,-3.3099 30.8465,4.0051 15.1225,23.0751 C6.4685,33.5691 1.6865,46.9231 1.6865,60.5241 L46.1645,60.5241 L59.5185,50.0441 L73.9125,60.5241 L119.4915,60.5241 Z" id="Fill-132" fill="#000000"></path>
            <path d="M43.8586,86.7633 C39.5696,86.7633 36.0806,83.2743 36.0806,78.9853 L39.0806,78.9853 C39.0806,81.5833 41.2596,83.7633 43.8586,83.7633 C46.4576,83.7633 48.6356,81.5833 48.6356,78.9853 L51.6356,78.9853 C51.6356,83.2743 48.1466,86.7633 43.8586,86.7633" id="Fill-134" fill="#000000"></path>
            <path d="M78.1487,86.7633 C73.8597,86.7633 70.3717,83.2743 70.3717,78.9853 L73.3717,78.9853 C73.3717,81.5833 75.5497,83.7633 78.1487,83.7633 C80.7477,83.7633 82.9257,81.5833 82.9257,78.9853 L85.9257,78.9853 C85.9257,83.2743 82.4367,86.7633 78.1487,86.7633" id="Fill-136" fill="#000000"></path>
            <path d="M105.6428,85.6041 C110.1228,78.2341 112.8588,69.6851 113.2458,60.5241 L103.7478,60.5241 C106.1988,68.6661 105.6428,77.2081 105.6428,85.6041" id="Fill-138" fill="#000000"></path>
            <path d="M16.3606,73.4059 C16.3606,68.9269 17.0276,64.6039 18.2566,60.5239 L7.9326,60.5239 C8.3426,70.2409 11.3846,79.2739 16.3606,86.9369 L16.3606,73.4059 Z" id="Fill-140" fill="#000000"></path>
            <path d="M105.4788,69.6344 C105.5298,70.2334 105.5678,70.8354 105.5958,71.4404 C105.5698,70.8344 105.5298,70.2334 105.4788,69.6344" id="Fill-142" fill="#EAA859"></path>
            <path d="M104.0969,71.5094 C104.0709,70.9234 104.0339,70.3404 103.9839,69.7614 L106.9729,69.5074 C107.0259,70.1244 107.0669,70.7454 107.0939,71.3694 L107.0939,71.3704 L107.0939,71.3744 L104.0969,71.5094 Z" id="Fill-144" fill="#000000"></path>
            <path d="M111.679,71.1725 C110.378,76.3235 108.332,81.1795 105.643,85.6045 L105.643,94.7365 C111.067,94.7365 116.006,91.1155 117.627,85.9375 C119.394,80.2935 116.859,74.0185 111.679,71.1725" id="Fill-146" fill="#EAA859"></path>
            <path d="M105.6008,71.529 C105.6278,72.151 105.6428,72.776 105.6428,73.406 C105.6428,72.776 105.6268,72.151 105.6008,71.529" id="Fill-148" fill="#EAA859"></path>
            <path d="M107.1428,73.4049 L104.1428,73.4049 C104.1428,72.7979 104.1268,72.1929 104.1018,71.5929 L107.0988,71.4619 C107.1278,72.1059 107.1428,72.7539 107.1428,73.4049" id="Fill-150" fill="#000000"></path>
            <path d="M3.8049,82.1813 C3.8049,89.1163 9.4259,94.7373 16.3609,94.7373 L16.3609,86.9373 C13.3399,82.2843 11.0369,77.1233 9.5979,71.6143 C6.1179,73.8463 3.8049,77.7403 3.8049,82.1813" id="Fill-152" fill="#EAA859"></path>
            <path d="M16.4075,71.4469 C16.4355,70.8399 16.4745,70.2349 16.5255,69.6349 C16.4745,70.2349 16.4335,70.8399 16.4075,71.4469" id="Fill-154" fill="#EAA859"></path>
            <path d="M17.9065,71.5153 L14.9095,71.3813 C14.9365,70.7533 14.9775,70.1283 15.0305,69.5083 L18.0195,69.7603 C17.9705,70.3423 17.9325,70.9273 17.9065,71.5153" id="Fill-156" fill="#000000"></path>
            <path d="M16.3606,73.4059 C16.3606,72.7759 16.3756,72.1499 16.4036,71.5269 C16.3776,72.1499 16.3606,72.7759 16.3606,73.4059" id="Fill-158" fill="#EAA859"></path>
            <path d="M17.8606,73.4049 L14.8606,73.4049 C14.8606,72.7539 14.8766,72.1049 14.9046,71.4619 L17.9016,71.5909 L17.9016,71.5929 L17.9016,71.5949 C17.8766,72.1949 17.8606,72.7989 17.8606,73.4049" id="Fill-160" fill="#000000"></path>
            <path d="M60.8362,148.7936 L68.1492,139.7876 C62.6102,140.6806 56.9402,140.5266 51.4592,139.3256 L59.1482,148.7936 L58.8792,149.2456 C59.6382,149.3226 60.3862,149.3446 61.1482,149.3176 L60.8362,148.7936 Z" id="Fill-162" fill="#EAA859"></path>
            <path d="M67.8909,160.6569 L60.8359,148.7939 L61.1479,149.3179 C60.3859,149.3439 59.6389,149.3239 58.8789,149.2459 L52.0919,160.6569 C47.4899,157.0189 43.6669,153.0029 40.7679,148.5399 C40.7919,153.3719 40.6369,158.1299 41.6469,162.8829 C42.5619,167.1909 44.0419,171.3709 45.7729,175.4139 C48.7599,182.3939 52.5129,189.0569 56.6729,195.4029 C57.5429,196.7309 58.4299,198.0529 59.3629,199.3389 C62.4029,195.6459 65.1729,191.7089 67.7759,187.6999 C72.6699,180.1609 77.2059,171.9849 79.3939,163.2049 C80.7689,157.6879 80.4379,152.0709 80.4929,146.4319 C77.4819,151.7509 73.2069,156.4559 67.8909,160.6569" id="Fill-164" fill="#DDA812"></path>
            <path d="M68.1467,139.7916 L60.8357,148.7936 L67.8907,160.6566 C77.1987,153.3026 83.3407,144.4116 85.0117,133.3526 C79.9847,136.5666 74.2767,138.8056 68.1467,139.7916" id="Fill-166" fill="#FFAEE4"></path>
            <path d="M34.7747,131.8424 C36.0947,143.6074 42.3657,152.9704 52.0917,160.6564 L59.1477,148.7934 L51.4677,139.3364 C45.3377,138.0024 39.6797,135.4104 34.7747,131.8424" id="Fill-168" fill="#FFAEE4"></path>
            <g id="Group-172" transform="translate(0.000000, 0.122000)">
                <mask id="mask-2" fill="white">
                    <use xlink:href="#path-1"></use>
                </mask>
                <g id="Clip-171"></g>
                <path d="M104.8635,58.9021 L78.5145,58.9021 L74.4005,58.9021 L59.4845,48.0421 L45.6455,58.9021 L12.8615,58.9021 L3.2065,58.9021 C3.8085,35.5701 19.1035,14.4011 41.0335,6.4291 C63.2785,-1.6559 88.8045,5.1521 104.1825,23.0971 C112.7105,33.0481 117.6345,45.7981 117.9715,58.9021 L104.8635,58.9021 Z M116.6985,82.0591 C116.6985,87.6461 112.5325,92.2791 107.1425,93.0121 L107.1425,85.8991 C109.4635,82.0131 111.2995,77.7931 112.5785,73.4521 C115.1575,75.5311 116.6985,78.6831 116.6985,82.0591 Z M107.0615,70.6761 C106.8945,67.7191 106.4505,64.7731 105.7195,61.9021 L111.6565,61.9021 C111.2135,67.9521 109.6635,73.9301 107.1425,79.4461 C107.1425,76.5271 107.2265,73.5921 107.0615,70.6761 Z M104.1425,85.0621 L104.1425,94.7551 C104.1425,101.3191 102.9305,107.7321 100.1545,113.7081 C93.8855,127.1991 80.7455,136.7461 65.9505,138.4491 C51.1705,140.1511 36.2705,133.9071 27.0775,122.2191 C22.7705,116.7451 19.8185,110.2411 18.5645,103.3871 C17.7495,98.9351 17.8605,94.4421 17.8605,89.9401 L17.8605,80.6541 C17.8605,76.3041 17.6745,71.8941 18.2465,67.5721 C18.4995,65.6601 18.8835,63.7631 19.3915,61.9021 L46.6825,61.9021 L59.5515,51.8021 L73.4245,61.9021 L102.6115,61.9021 C104.6695,69.4291 104.1425,77.3381 104.1425,85.0621 Z M114.8105,157.1951 L114.8105,240.0001 L95.8185,240.0001 L95.8185,168.1931 L92.8185,168.1931 L92.8185,240.0001 L60.8625,240.0001 L60.8625,199.7511 C64.3675,195.4261 67.5735,190.8371 70.5115,186.1121 C75.0435,178.8271 79.1765,170.9371 81.0745,162.5121 C82.2425,157.3251 81.9405,152.0351 81.9895,146.7551 C84.1755,142.8061 85.6255,138.6091 86.3785,134.1311 C87.5095,133.3861 88.6105,132.5931 89.6755,131.7481 C103.5645,131.9161 114.8105,143.2661 114.8105,157.1951 Z M42.2845,155.2321 C42.2845,154.4911 42.2835,153.7691 42.2825,153.0661 C45.2675,156.7401 48.8025,159.8471 52.5065,162.7721 L59.6905,150.6941 C59.9015,150.7061 60.1065,150.7141 60.3065,150.7171 L67.4775,162.7721 C71.7245,159.4181 75.7225,155.8071 78.9595,151.4381 C78.9465,155.0941 78.9115,158.6041 78.0695,162.1821 C77.2325,165.7411 75.9345,169.1821 74.4305,172.5081 C71.5665,178.8411 67.9305,184.8231 63.9715,190.5271 C62.5145,192.6271 61.0075,194.6911 59.4385,196.7091 C55.4445,190.8661 42.2845,170.4571 42.2845,155.2321 Z M50.1575,140.4461 C50.3155,140.4861 50.4725,140.5291 50.6325,140.5651 C52.8625,143.3121 55.0925,146.0581 57.3235,148.8041 L56.3895,150.3731 L56.3905,150.3731 C54.8235,153.0071 53.2575,155.6411 51.6905,158.2751 C47.7615,154.9891 44.3755,151.2161 41.5855,146.9221 C39.2475,143.1531 37.6495,139.1511 36.7855,134.8771 C40.9015,137.4251 45.4545,139.3081 50.1575,140.4461 Z M63.7315,150.6041 L62.6605,148.8041 L68.9545,141.0541 C73.8185,140.2111 78.5605,138.5661 82.9015,136.2141 C82.1795,139.2031 81.0895,142.0541 79.6325,144.7861 C76.6945,149.9741 72.8645,154.4501 68.2925,158.2751 C66.7715,155.7181 65.2515,153.1621 63.7305,150.6041 L63.7315,150.6041 Z M57.9275,141.6311 C60.1535,141.8111 62.4235,141.7751 64.6475,141.5971 L59.9915,147.3321 L55.1495,141.3691 C56.0705,141.4871 57.0015,141.5681 57.9275,141.6311 Z M57.8625,240.0001 L29.4115,240.0001 L29.4115,168.1931 L26.4115,168.1931 L26.4115,240.0001 L6.5575,240.0001 L6.5575,227.6851 L6.5575,200.2761 L6.5575,172.0711 C6.5575,167.1771 6.5365,162.2831 6.5575,157.3881 C6.6115,145.1271 15.4055,134.2741 27.5845,132.1311 C29.1525,131.8551 30.7335,131.7431 32.3255,131.7461 C32.6705,132.0201 33.0235,132.2821 33.3765,132.5451 C34.1325,138.4441 36.0825,143.8661 39.2695,148.8821 C39.2905,153.3261 39.1485,157.7281 39.9825,162.1131 C40.7715,166.2651 42.1015,170.3061 43.6825,174.2191 C46.4955,181.1851 50.1235,187.8261 54.1485,194.1601 C55.3415,196.0361 56.5695,197.8911 57.8625,199.7001 L57.8625,240.0001 Z M16.2345,62.1251 C14.6715,68.4071 14.8605,74.7701 14.8605,81.1811 C11.8385,75.1921 10.0095,68.5941 9.5215,61.9021 L16.2835,61.9021 C16.2645,61.9761 16.2535,62.0511 16.2345,62.1251 Z M14.8605,93.0121 C5.8665,91.7891 2.1285,80.2971 8.7605,74.0401 C10.1825,78.6871 12.2475,83.1581 14.8605,87.2551 L14.8605,93.0121 Z M120.9915,61.9021 C120.9915,49.5371 117.8955,37.6121 111.0455,27.2281 C104.0995,16.7001 93.8755,8.4581 82.0905,3.9541 C69.8905,-0.7089 56.2425,-1.2539 43.7045,2.4011 C31.5595,5.9421 20.6915,13.3701 12.9205,23.3451 C5.0345,33.4651 0.5365,46.0011 0.2065,58.8271 C0.1795,59.8521 0.1865,60.8781 0.1865,61.9021 L6.5185,61.9021 C6.7275,64.9291 7.1895,67.9241 7.8955,70.8561 C3.1095,74.4651 1.1165,80.9031 3.0505,86.5811 C4.7965,91.7011 9.4915,95.4641 14.8715,96.0331 C14.9905,108.9351 20.4375,120.5821 29.1045,128.8931 C14.7215,130.3571 3.6505,142.8141 3.5575,157.1971 C3.5295,161.4911 3.5575,165.7871 3.5575,170.0821 L3.5575,198.2791 L3.5575,227.4351 L3.5575,242.7661 L3.5575,243.0001 L117.8105,243.0001 L117.8105,230.4221 L117.8105,202.3351 L117.8105,173.2051 C117.8105,167.9691 117.8205,162.7351 117.8105,157.5001 C117.7875,145.1591 109.9005,133.9291 98.0695,130.1181 C96.3635,129.5681 94.6035,129.1811 92.8235,128.9641 C101.5345,120.6481 107.0125,108.9721 107.1325,96.0331 C112.6445,95.4501 117.4235,91.5151 119.0685,86.2241 C120.9025,80.3271 118.5395,73.7501 113.3945,70.3431 C114.0365,67.5721 114.4395,64.7471 114.6365,61.9021 L120.9915,61.9021 Z" id="Fill-170" fill="#000000" mask="url(#mask-2)"></path>
            </g>
            <path d="M49.9592,225.3297 C54.1702,225.3297 54.1582,231.8557 49.9592,231.8557 C45.7642,231.8557 45.7442,225.3297 49.9592,225.3297 M49.9592,234.8557 C53.3672,234.8557 56.2232,232.0017 56.2232,228.5927 C56.2232,225.1837 53.3672,222.3297 49.9592,222.3297 C46.5512,222.3297 43.6962,225.1837 43.6962,228.5927 C43.6962,232.0017 46.5512,234.8557 49.9592,234.8557" id="Fill-173" fill="#000000"></path>
        </g>
    </g>
</svg>