<?xml version="1.0" encoding="UTF-8"?>
<svg width="175px" height="175px" viewBox="0 0 175 175" version="1.1" xmlns="http://www.w3.org/2000/svg" xmlns:xlink="http://www.w3.org/1999/xlink">
    <!-- Generator: sketchtool 50.2 (55047) - http://www.bohemiancoding.com/sketch -->
    <title>3A8AED6D-50D1-4988-846D-E39630B74F49</title>
    <desc>Created with sketchtool.</desc>
    <defs>
        <circle id="path-1" cx="87.5" cy="87.5" r="87.5"></circle>
        <polygon id="path-3" points="0.128904469 0.00610412402 83.9940992 0.00610412402 83.9940992 169.303279 0.128904469 169.303279"></polygon>
    </defs>
    <g id="Symbols" stroke="none" stroke-width="1" fill="none" fill-rule="evenodd">
        <g id="characters" transform="translate(-654.000000, -550.000000)">
            <g id="PLAYER-/-minh_lose" transform="translate(654.000000, 550.000000)">
                <mask id="mask-2" fill="white">
                    <use xlink:href="#path-1"></use>
                </mask>
                <use id="Mask" fill="#FFFFFF" xlink:href="#path-1"></use>
                <g id="minh_lose" mask="url(#mask-2)">
                    <g transform="translate(45.000000, 10.000000)">
                        <path d="M62.0361521,90.8300246 L61.8896727,90.8300246 C53.1946314,97.9296148 41.0118545,99.756418 30.6312595,95.493877 C27.8127471,94.336623 25.1691769,92.7585492 22.8067636,90.8300246 C18.1416397,90.8300246 13.6993587,92.2332213 10.1123504,95.2918279 C6.4531438,98.4131393 4.08656529,102.906295 3.60547438,107.703221 C3.2798876,110.951336 3.51036694,114.317893 3.51036694,117.573672 L3.51036694,136.929287 L3.51036694,157.351582 L3.51036694,168.177934 L3.51036694,168.343057 L80.7445488,168.343057 L80.7445488,159.528139 L80.7445488,140.047115 L80.7445488,119.980844 C80.7445488,116.557156 80.7605157,113.13277 80.7445488,109.709082 C80.7042843,100.853057 74.4868959,92.9780164 65.7744992,91.2048607 C64.5450446,90.9547377 63.2905983,90.8300246 62.0361521,90.8300246" id="Fill-120" fill="#9FE2A2"></path>
                        <path d="M51.3110876,42.1684303 L41.3185587,34.866791 L32.0480132,42.1684303 L12.6738645,42.1684303 C11.3881785,46.4546598 11.3576331,50.7631844 11.3576331,55.1748238 L11.3576331,66.0262582 C11.3576331,76.3307664 15.9755504,86.0451516 24.4185917,92.0655205 C33.8335339,98.7805205 46.5779306,99.6312172 56.7946909,94.2176926 C66.8496992,88.8912582 73.2614678,78.229332 73.3378314,66.831668 C73.3579636,63.9360943 73.3385256,61.039127 73.3385256,58.1428566 C73.3385256,54.7247418 73.523881,51.2223238 73.1628893,47.8174467 C72.9594843,45.9049467 72.5762777,44.0112582 72.0236826,42.1684303 L51.3110876,42.1684303 Z" id="Fill-122" fill="#EAA859"></path>
                        <path d="M37.9894512,145.536234 C37.9894512,147.343529 36.4836992,148.854717 34.6822116,148.854717 C32.8828066,148.854717 31.3763603,147.342832 31.3763603,145.536234 C31.3763603,143.780496 32.7995008,142.290906 34.5468397,142.223324 C36.3983107,142.152258 37.9894512,143.670414 37.9894512,145.536234" id="Fill-124" fill="#FF5500"></path>
                        <path d="M34.6824198,143.262414 C31.7604694,143.262414 31.7681058,147.809217 34.6824198,147.809217 C37.5953455,147.809217 37.6092298,143.262414 34.6824198,143.262414 M34.6824198,149.899381 C32.3172298,149.899381 30.3345521,147.911635 30.3345521,145.536512 C30.3345521,143.161389 32.3165355,141.17225 34.6824198,141.17225 C37.0489983,141.17225 39.0309818,143.161389 39.0309818,145.536512 C39.0309818,147.911635 37.0483041,149.899381 34.6824198,149.899381" id="Fill-126" fill="#000000"></path>
                        <path d="M37.9894512,159.265893 C37.9894512,161.072492 36.4836992,162.584377 34.6822116,162.584377 C32.8828066,162.584377 31.3763603,161.072492 31.3763603,159.265893 C31.3763603,157.510156 32.7995008,156.020566 34.5468397,155.952287 C36.3983107,155.881221 37.9894512,157.399377 37.9894512,159.265893" id="Fill-128" fill="#FF5500"></path>
                        <path d="M50.964605,75.2089057 C48.3494975,72.5850533 44.0946545,72.5850533 41.4802413,75.2089057 L40.0078116,73.7311598 C43.4344562,70.2921434 49.0103901,70.2921434 52.4370347,73.7311598 L50.964605,75.2089057 Z" id="Fill-130" fill="#000000"></path>
                        <path d="M82.9527769,42.1684303 C82.9527769,25.1294139 72.0633223,9.47478279 56.1144298,3.61744672 C39.9836529,-2.30607787 21.4140992,2.79043852 10.4982645,16.0769139 C4.49052893,23.3883074 1.17079339,32.6923238 1.17079339,42.1684303 L32.0480826,42.1684303 L41.3186281,34.866791 L51.311157,42.1684303 L82.9527769,42.1684303 Z" id="Fill-132" fill="#000000"></path>
                        <path d="M30.4472926,60.4498402 C27.469805,60.4498402 25.0476893,58.0189795 25.0476893,55.0307418 L27.1303339,55.0307418 C27.1303339,56.8408238 28.6430281,58.3596762 30.4472926,58.3596762 C32.251557,58.3596762 33.763557,56.8408238 33.763557,55.0307418 L35.8462017,55.0307418 C35.8462017,58.0189795 33.424086,60.4498402 30.4472926,60.4498402" id="Fill-134" fill="#000000"></path>
                        <path d="M54.2519901,60.4498402 C51.2745025,60.4498402 48.853081,58.0189795 48.853081,55.0307418 L50.9357256,55.0307418 C50.9357256,56.8408238 52.4477256,58.3596762 54.2519901,58.3596762 C56.0562545,58.3596762 57.5682545,56.8408238 57.5682545,55.0307418 L59.6508992,55.0307418 C59.6508992,58.0189795 57.2287835,60.4498402 54.2519901,60.4498402" id="Fill-136" fill="#000000"></path>
                        <path d="M73.3388033,59.6422008 C76.448886,54.5073648 78.3482579,48.5510943 78.616919,42.1684303 L72.0232661,42.1684303 C73.7247868,47.8411352 73.3388033,53.7925287 73.3388033,59.6422008" id="Fill-138" fill="#000000"></path>
                        <path d="M11.3577719,51.1434549 C11.3577719,48.0228402 11.8208132,45.0109139 12.6740033,42.168291 L5.50692893,42.168291 C5.79155702,48.938332 7.90335868,55.2318156 11.3577719,60.570791 L11.3577719,51.1434549 Z" id="Fill-140" fill="#000000"></path>
                        <path d="M73.2249521,48.5157705 C73.260357,48.9331066 73.2867372,49.3525328 73.3061752,49.7740492 C73.2881256,49.3518361 73.260357,48.9331066 73.2249521,48.5157705" id="Fill-142" fill="#EAA859"></path>
                        <path d="M72.2656165,49.822123 C72.2475669,49.4138443 72.221881,49.0076557 72.1871702,48.6042541 L74.2621785,48.4272869 C74.2989719,48.8571639 74.3274347,49.2898279 74.3461785,49.724582 L74.3461785,49.7252787 L74.3461785,49.7280656 L72.2656165,49.822123 Z" id="Fill-144" fill="#000000"></path>
                        <path d="M77.5292231,49.5873975 C76.6260496,53.176209 75.205686,56.5594877 73.3389421,59.6424795 L73.3389421,66.0049385 C77.1043636,66.0049385 80.5330909,63.4821107 81.6584132,59.8744877 C82.8850909,55.9421926 81.1252562,51.5702664 77.5292231,49.5873975" id="Fill-146" fill="#EAA859"></path>
                        <path d="M73.3096463,49.8357787 C73.3283901,50.2691393 73.3388033,50.7045902 73.3388033,51.1435246 C73.3388033,50.7045902 73.3276959,50.2691393 73.3096463,49.8357787" id="Fill-148" fill="#EAA859"></path>
                        <path d="M74.3801256,51.1427582 L72.297481,51.1427582 C72.297481,50.7198484 72.2863736,50.298332 72.2690182,49.8802992 L74.3495802,49.7890287 C74.3697124,50.2377172 74.3801256,50.6891926 74.3801256,51.1427582" id="Fill-150" fill="#000000"></path>
                        <path d="M2.64141818,57.2574631 C2.64141818,62.0892254 6.5436,66.0054959 11.3579802,66.0054959 L11.3579802,60.5710697 C9.26075702,57.3292254 7.66198017,53.7334467 6.66300496,49.895209 C4.24713719,51.450291 2.64141818,54.1633238 2.64141818,57.2574631" id="Fill-152" fill="#EAA859"></path>
                        <path d="M11.3903306,49.7785779 C11.4097686,49.355668 11.436843,48.9341516 11.4722479,48.5161189 C11.436843,48.9341516 11.4083802,49.355668 11.3903306,49.7785779" id="Fill-154" fill="#EAA859"></path>
                        <path d="M12.4309587,49.8262336 L10.3503967,49.732873 C10.3691405,49.295332 10.3976033,48.8598811 10.4343967,48.4279139 L12.509405,48.6034877 C12.4753884,49.0089795 12.4490083,49.4165615 12.4309587,49.8262336" id="Fill-156" fill="#000000"></path>
                        <path d="M11.3577719,51.1434549 C11.3577719,50.7045205 11.3681851,50.268373 11.3876231,49.8343156 C11.3695736,50.268373 11.3577719,50.7045205 11.3577719,51.1434549" id="Fill-158" fill="#EAA859"></path>
                        <path d="M12.3990942,51.1427582 L10.3164496,51.1427582 C10.3164496,50.6891926 10.327557,50.2370205 10.346995,49.7890287 L12.427557,49.8789057 L12.427557,49.8802992 L12.427557,49.8816926 C12.4102017,50.2997254 12.3990942,50.7205451 12.3990942,51.1427582" id="Fill-160" fill="#000000"></path>
                        <path d="M42.233395,103.667672 L47.3101884,97.393 C43.4649322,98.0151721 39.5287339,97.907877 35.7237421,97.0711148 L41.0615603,103.667672 L40.8748165,103.98259 C41.4017256,104.036238 41.9209983,104.051566 42.4499901,104.032754 L42.233395,103.667672 Z" id="Fill-162" fill="#EAA859"></path>
                        <path d="M47.1308727,111.933086 L42.2331868,103.667881 L42.4497818,104.032963 C41.9207901,104.051078 41.4022116,104.037143 40.8746083,103.982799 L36.1629719,111.933086 C32.968195,109.398414 30.3142116,106.600381 28.3016826,103.490914 C28.3183438,106.857471 28.2107405,110.172471 28.9118975,113.483988 C29.5471041,116.485463 30.5745421,119.397758 31.7762281,122.214602 C33.8498479,127.077717 36.4552364,131.719971 39.3431702,136.141365 C39.9471372,137.066611 40.5629058,137.987676 41.2106083,138.88366 C43.3210215,136.310668 45.2439967,133.567676 47.051038,130.77452 C50.4485256,125.521939 53.5974843,119.825545 55.1164264,113.708332 C56.0709719,109.86452 55.8411868,105.951037 55.8793686,102.022225 C53.7890876,105.728086 50.821319,109.00616 47.1308727,111.933086" id="Fill-164" fill="#DDA812"></path>
                        <path d="M47.3084529,97.3957869 L42.2330479,103.667672 L47.1307339,111.932877 C53.592486,106.809189 57.8563537,100.614639 59.0163868,92.9095984 C55.5265686,95.1488607 51.5639901,96.7088197 47.3084529,97.3957869" id="Fill-166" fill="#FFAEE4"></path>
                        <path d="M24.141114,91.8574098 C25.0574777,100.054336 29.4108992,106.577738 36.1628331,111.932738 L41.0612132,103.667533 L35.729643,97.0786393 C31.4741058,96.1492131 27.546238,94.3433115 24.141114,91.8574098" id="Fill-168" fill="#FFAEE4"></path>
                        <g id="Group-172" stroke-width="1" fill="none" transform="translate(0.000000, 0.085000)">
                            <mask id="mask-4" fill="white">
                                <use xlink:href="#path-3"></use>
                            </mask>
                            <g id="Clip-171"></g>
                            <path d="M72.7978017,41.0383484 L54.5059339,41.0383484 L51.6499339,41.0383484 L41.2950248,33.4719549 L31.6877851,41.0383484 L8.92864463,41.0383484 L2.226,41.0383484 C2.64391736,24.7824467 13.2619339,10.0335533 28.4860661,4.47929098 C43.928876,-1.15370082 61.649405,3.58957787 72.3250413,16.0922418 C78.2453058,23.0253156 81.6636198,31.9085123 81.8975702,41.0383484 L72.7978017,41.0383484 Z M81.0138347,57.1723238 C81.0138347,61.0649057 78.1217355,64.2928156 74.3799174,64.8035123 L74.3799174,59.8477336 C75.9911901,57.1402746 77.2657686,54.2001107 78.1536694,51.1756434 C79.9440496,52.624127 81.0138347,54.8201926 81.0138347,57.1723238 Z M74.323686,49.2415451 C74.2077521,47.1813402 73.8995207,45.1287992 73.3920496,43.1285123 L77.5136033,43.1285123 C77.2060661,47.3436762 76.1300331,51.5086762 74.3799174,55.351791 C74.3799174,53.3180615 74.4382314,51.2731844 74.323686,49.2415451 Z M72.2972727,59.2645779 L72.2972727,66.0178975 C72.2972727,70.5911762 71.4558843,75.05925 69.5287438,79.2228566 C65.1767107,88.6223238 56.0547273,95.2739221 45.7838182,96.4604385 C35.5233223,97.6462582 25.1795207,93.2959303 18.7976033,85.1526516 C15.8076198,81.3387992 13.7582975,76.8073238 12.8877521,72.0319959 C12.3219669,68.9301926 12.3990248,65.7998238 12.3990248,62.6631844 L12.3990248,56.1934303 C12.3990248,53.1626926 12.2699008,50.0901516 12.6669917,47.0789221 C12.8426281,45.746791 13.1092066,44.4251107 13.4618678,43.1285123 L32.407686,43.1285123 L41.3415372,36.091627 L50.9723802,43.1285123 L71.2344298,43.1285123 C72.663124,48.3727336 72.2972727,53.8831025 72.2972727,59.2645779 Z M79.703157,109.521176 L79.703157,167.213184 L66.5186281,167.213184 L66.5186281,117.183717 L64.4359835,117.183717 L64.4359835,167.213184 L42.2516529,167.213184 L42.2516529,139.170848 C44.684876,136.157529 46.9105289,132.960275 48.9501322,129.668266 C52.096314,124.592652 54.9655041,119.09552 56.283124,113.225643 C57.0939669,109.61175 56.884314,105.926094 56.9183306,102.247406 C58.4358843,99.4960533 59.4424959,96.5719139 59.9652397,93.4519959 C60.7503967,92.9329385 61.5147273,92.3804385 62.2540661,91.791709 C71.8960165,91.9087582 79.703157,99.8165451 79.703157,109.521176 Z M29.3545289,108.153512 C29.3545289,107.637242 29.3538347,107.134209 29.3531405,106.644414 C31.4253719,109.204168 33.8794215,111.368881 36.4507934,113.406791 L41.4380331,104.991791 C41.5845124,105.000152 41.7268264,105.005725 41.8656694,105.007816 L46.8438843,113.406791 C49.7922149,111.069988 52.567686,108.554127 54.8148595,105.510152 C54.8058347,108.057365 54.7815372,110.502857 54.1970083,112.995725 C53.6159504,115.475357 52.7148595,117.872775 51.6707603,120.19007 C49.6825289,124.602406 47.1583636,128.770193 44.4099669,132.744291 C43.3984959,134.207406 42.352314,135.645439 41.2630909,137.051422 C38.4903967,132.98048 29.3545289,118.761094 29.3545289,108.153512 Z M34.8200826,97.851791 C34.9297686,97.8796598 35.0387603,97.9096189 35.1498347,97.9347008 C36.6979339,99.8485943 38.2460331,101.761791 39.7948264,103.674988 L39.1464298,104.768143 L39.147124,104.768143 C38.0592893,106.603307 36.9721488,108.438471 35.884314,110.273635 C33.1567438,107.984209 30.8061322,105.35548 28.8692727,102.363758 C27.2461983,99.7378156 26.136843,96.9495369 25.5370413,93.97175 C28.3944298,95.7469959 31.5551901,97.0589221 34.8200826,97.851791 Z M44.2433554,104.929086 L43.4998512,103.674988 L47.8692397,98.2753975 C51.2459008,97.6880615 54.5378678,96.5419549 57.5514545,94.9032664 C57.0502314,96.9857664 56.2935372,98.9721189 55.2820661,100.875561 C53.2424628,104.490152 50.5836198,107.608676 47.4096694,110.273635 C46.3537686,108.492119 45.298562,106.711299 44.2426612,104.929086 L44.2433554,104.929086 Z M40.2141322,98.6774057 C41.7594545,98.8028156 43.3353223,98.7777336 44.8792562,98.6537172 L41.6469917,102.649414 L38.2856033,98.4948648 C38.9249752,98.5770779 39.5712893,98.6335123 40.2141322,98.6774057 Z M40.1690083,167.213184 L20.4179008,167.213184 L20.4179008,117.183717 L18.3352562,117.183717 L18.3352562,167.213184 L4.55231405,167.213184 L4.55231405,158.633061 L4.55231405,139.536627 L4.55231405,119.885602 C4.55231405,116.475848 4.53773554,113.066094 4.55231405,109.655643 C4.58980165,101.113143 10.6947273,93.551627 19.1495702,92.0585533 C20.2380992,91.8662582 21.3356529,91.7882254 22.440843,91.7903156 C22.6803471,91.9812172 22.925405,92.1637582 23.1704628,92.3469959 C23.6952893,96.4569549 25.0490083,100.234578 27.2614711,103.729332 C27.2760496,106.825561 27.1774711,109.892529 27.7564463,112.947652 C28.3041818,115.840439 29.2274876,118.655889 30.3250413,121.38216 C32.2778678,126.23552 34.7964793,130.862447 37.5906942,135.27548 C38.4188926,136.582529 39.2713884,137.874947 40.1690083,139.135316 L40.1690083,167.213184 Z M11.2702314,43.2838811 C10.1851736,47.6606844 10.3163802,52.0939221 10.3163802,56.5606025 C8.21846281,52.3879385 6.9487438,47.7909713 6.60996694,43.1285123 L11.3042479,43.1285123 C11.2910579,43.1800697 11.2834215,43.2323238 11.2702314,43.2838811 Z M10.3163802,64.8035123 C4.07261157,63.9514221 1.47763636,55.9447008 6.08166942,51.5853156 C7.06884298,54.8229795 8.50239669,57.9380205 10.3163802,60.7924877 L10.3163802,64.8035123 Z M83.9940992,43.1285123 C83.9940992,34.5135533 81.8448099,26.2051516 77.089438,18.9703975 C72.2674215,11.6353156 65.1697686,5.89293852 56.9884463,2.75490574 C48.5190248,-0.493905738 39.0443802,-0.873618852 30.340314,1.67289754 C21.9090744,4.1399877 14.3643471,9.31523361 8.96960331,16.2650287 C3.49502479,23.3158484 0.372446281,32.0499467 0.143355372,40.9860943 C0.12461157,41.7002336 0.129471074,42.4150697 0.129471074,43.1285123 L4.52523967,43.1285123 C4.67033058,45.2374877 4.99105785,47.324168 5.48117355,49.3669549 C2.15866116,51.8814221 0.775090909,56.3669139 2.11770248,60.3228975 C3.32980165,63.8901107 6.5891405,66.511873 10.3240165,66.9083074 C10.4066281,75.8974057 14.1880165,84.0121189 20.2047769,89.8025697 C10.2198843,90.8225697 2.5342314,99.501627 2.46966942,109.52257 C2.4502314,112.514291 2.46966942,115.507406 2.46966942,118.499824 L2.46966942,138.145275 L2.46966942,158.458881 L2.46966942,169.140316 L2.46966942,169.303348 L81.7858017,169.303348 L81.7858017,160.539988 L81.7858017,140.971176 L81.7858017,120.675684 C81.7858017,117.027652 81.7927438,113.381012 81.7858017,109.733676 C81.7698347,101.135439 76.294562,93.3112582 68.0813058,90.6560533 C66.8969752,90.2728566 65.675157,90.0032254 64.4394545,89.8520369 C70.4867603,84.0581025 74.2896694,75.9231844 74.3729752,66.9083074 C78.1994876,66.5021189 81.5171405,63.7605205 82.659124,60.074168 C83.932314,55.9656025 82.2918843,51.3832664 78.7201488,49.0095369 C79.1658347,47.0789221 79.4456033,45.1106844 79.5823636,43.1285123 L83.9940992,43.1285123 Z" id="Fill-170" fill="#000000" mask="url(#mask-4)"></path>
                        </g>
                        <path d="M34.6824198,156.992004 C37.6057587,156.992004 37.5974281,161.538807 34.6824198,161.538807 C31.7701884,161.538807 31.7563041,156.992004 34.6824198,156.992004 M34.6824198,163.628971 C37.0483041,163.628971 39.0309818,161.640529 39.0309818,159.265406 C39.0309818,156.890283 37.0483041,154.90184 34.6824198,154.90184 C32.3165355,154.90184 30.3345521,156.890283 30.3345521,159.265406 C30.3345521,161.640529 32.3165355,163.628971 34.6824198,163.628971" id="Fill-173" fill="#000000"></path>
                    </g>
                </g>
            </g>
        </g>
    </g>
</svg>