<svg id="Layer_1" data-name="Layer 1" xmlns="http://www.w3.org/2000/svg" viewBox="0 0 300 300"><defs><style>.cls-1{fill:#9fe2a2;}.cls-2{fill:#eaa859;}.cls-3{fill:#f50;}.cls-4{fill:#dda812;}.cls-5{fill:#fff;}</style></defs><title>portland_characters</title><path class="cls-1" d="M178.77,163.75h-.21a44.62,44.62,0,0,1-56.3,0h-.84A26.94,26.94,0,0,0,94.47,190.7V275H205.72V190.7A26.94,26.94,0,0,0,178.77,163.75Z"/><path class="cls-2" d="M163.32,93.9,148.93,83.42,135.58,93.9H107.67a44.54,44.54,0,0,0-1.9,12.88V129.1a44.64,44.64,0,1,0,89.28,0V106.78a44.54,44.54,0,0,0-1.89-12.88Z"/><circle class="cls-3" cx="139.37" cy="242.27" r="4.76"/><path d="M139.37,248.53a6.27,6.27,0,1,1,6.26-6.26A6.27,6.27,0,0,1,139.37,248.53Zm0-9.53a3.27,3.27,0,1,0,3.26,3.27A3.27,3.27,0,0,0,139.37,239Z"/><circle class="cls-3" cx="139.37" cy="261.97" r="4.76"/><path d="M162.82,141.33a9.66,9.66,0,0,0-13.66,0L147,139.2a12.69,12.69,0,0,1,17.91,0Z"/><path d="M208.9,93.9a58.9,58.9,0,0,0-117.8,0h44.48l13.35-10.48L163.32,93.9Z"/><path d="M133.27,120.14a7.79,7.79,0,0,1-7.78-7.78h3a4.78,4.78,0,0,0,9.56,0h3A7.79,7.79,0,0,1,133.27,120.14Z"/><path d="M167.56,120.14a7.79,7.79,0,0,1-7.78-7.78h3a4.78,4.78,0,1,0,9.56,0h3A7.79,7.79,0,0,1,167.56,120.14Z"/><path d="M195.05,119a52.47,52.47,0,0,0,7.61-25.08h-9.5a44.54,44.54,0,0,1,1.89,12.88Z"/><path d="M105.77,106.78a44.54,44.54,0,0,1,1.9-12.88H97.34a52.53,52.53,0,0,0,8.43,26.42Z"/><path class="cls-2" d="M194.89,103h0c.05.6.09,1.2.12,1.81C195,104.21,194.94,103.61,194.89,103Z"/><path d="M193.51,104.89c0-.59-.07-1.17-.12-1.75l3-.25c.06.61.1,1.23.13,1.86h0Z"/><path class="cls-2" d="M201.09,104.55a52.44,52.44,0,0,1-6,14.43v9.14a12.56,12.56,0,0,0,6-23.57Z"/><path class="cls-2" d="M195,104.91c0,.62,0,1.24,0,1.87C195.05,106.15,195,105.53,195,104.91Z"/><path d="M196.55,106.78h-3c0-.6,0-1.21,0-1.81l3-.13C196.54,105.48,196.55,106.13,196.55,106.78Z"/><path class="cls-2" d="M93.22,115.56a12.56,12.56,0,0,0,12.55,12.56v-7.8A52.65,52.65,0,0,1,99,105,12.54,12.54,0,0,0,93.22,115.56Z"/><path class="cls-2" d="M105.82,104.83c0-.61.07-1.22.12-1.82h0C105.89,103.61,105.85,104.22,105.82,104.83Z"/><path d="M107.32,104.89l-3-.13c0-.63.07-1.25.12-1.87l3,.25C107.38,103.72,107.34,104.31,107.32,104.89Z"/><path class="cls-2" d="M105.77,106.78c0-.63,0-1.25,0-1.87C105.79,105.53,105.77,106.15,105.77,106.78Z"/><path d="M107.27,106.78h-3c0-.65,0-1.3,0-1.94l3,.13h0C107.29,105.57,107.27,106.18,107.27,106.78Z"/><path class="cls-2" d="M150.25,182.17l7.31-9a45.48,45.48,0,0,1-7.15.58,44.13,44.13,0,0,1-9.54-1.05l7.69,9.47-.27.45a15.81,15.81,0,0,0,1.69.1l.58,0Z"/><path class="cls-4" d="M157.3,194l-7.05-11.86.31.53-.58,0a15.81,15.81,0,0,1-1.69-.1L141.5,194a51,51,0,0,1-11.32-12.11q0,3.09,0,6.81c0,18.57,18.58,44,18.58,44s21.09-25.42,21.09-44c0-3.36,0-6.32,0-8.92A49.11,49.11,0,0,1,157.3,194Z"/><path class="cls-5" d="M157.56,173.17l-7.31,9L157.3,194c9.31-7.35,15.45-16.24,17.12-27.3A44.42,44.42,0,0,1,157.56,173.17Z"/><path class="cls-5" d="M124.19,165.22c1.32,11.77,7.59,21.13,17.31,28.81l7.06-11.86-7.68-9.46A44.27,44.27,0,0,1,124.19,165.22Z"/><path d="M210.4,95.4V93.9a60.4,60.4,0,0,0-120.8,0v1.5h6.33a54,54,0,0,0,1.38,9,14,14,0,0,0,7,25.17,46,46,0,0,0,14.24,32.86A28.5,28.5,0,0,0,93,190.7v85.8H207.22V190.7a28.5,28.5,0,0,0-25-28.24,46,46,0,0,0,14.31-32.93,14,14,0,0,0,6.27-25.69,54.36,54.36,0,0,0,1.24-8.44ZM104.27,126.51a11.05,11.05,0,0,1-6.1-19c0,.11.07.22.11.33s.16.51.25.76.21.66.33,1l.24.68.39,1c.08.21.17.41.25.62s.29.71.44,1.06l.27.6c.15.35.3.7.47,1s.2.42.3.63l.48,1,.36.68.48.9.43.75c.15.27.31.54.47.8s.33.55.49.82.23.36.34.55Zm1.38-30.88c-.2.8-.38,1.6-.54,2.41a1.89,1.89,0,0,1,0,.23c-.15.83-.28,1.67-.39,2.51l-.06.48c-.1.82-.18,1.65-.23,2.48l0,.44c0,.86-.08,1.73-.08,2.6v7.9l-.09-.18c-.33-.67-.66-1.34-1-2l0-.07c-.32-.73-.63-1.46-.92-2.2-.06-.16-.11-.32-.17-.47-.21-.57-.42-1.14-.61-1.71-.08-.24-.16-.47-.23-.71-.17-.51-.32-1-.47-1.54-.07-.25-.15-.5-.21-.75a51.18,51.18,0,0,1-1.65-9.63h6.76C105.68,95.48,105.66,95.55,105.65,95.63ZM147.27,273.5H118.82V201.69h-3V273.5H96V190.7a25.47,25.47,0,0,1,25.45-25.45h.32c.34.27.69.53,1.05.8a39.21,39.21,0,0,0,5.89,16.33c0,1.94,0,4.05,0,6.35,0,17.8,16.14,41.06,18.57,44.47Zm.07-98.37.33,0h.46q.9,0,1.8.06l.48,0,.7,0,1,0h.32c.37,0,.74,0,1.11-.06h.15l.35,0-4.66,5.73-4.84-6,.25,0h.11C145.73,175,146.53,175.08,147.34,175.13Zm5.8,9-1.07-1.8,6.3-7.75.58-.11,1-.2c.49-.1,1-.21,1.46-.33l.5-.12c.69-.18,1.38-.38,2.06-.59l.21-.06c.63-.2,1.24-.41,1.86-.63l.29-.11c.6-.22,1.19-.45,1.78-.7l.23-.09c1.34-.57,2.66-1.2,3.95-1.89a36.24,36.24,0,0,1-3.27,8.57l-.44.78a45.4,45.4,0,0,1-9.16,11.19l-.05.05c-.55.49-1.11,1-1.69,1.47l-2.67-4.5-1.89-3.18ZM139.57,174l.47.12,4.54,5.58,2.15,2.65-.93,1.57h0l-1.63,2.75-3.07,5.16a48.58,48.58,0,0,1-9.66-10.68l-.44-.68a36.19,36.19,0,0,1-4.8-12l.24.14.28.17.3.16c.72.43,1.46.83,2.2,1.22l.76.39c.87.43,1.74.84,2.64,1.21l0,0c.93.39,1.89.74,2.86,1.07l.39.13C137.11,173.29,138.33,173.65,139.57,174Zm-7.87,14.78c0-.74,0-1.46,0-2.16a51.31,51.31,0,0,0,4,4.39l.11.11c.64.62,1.3,1.23,2,1.84l.41.36c.76.66,1.53,1.3,2.33,1.94l1.35,1.06,7.18-12.08.62,0,7.17,12.05,1.34-1.06c.57-.45,1.12-.9,1.66-1.35l.77-.68c.24-.2.47-.41.7-.62s.72-.65,1.07-1l.16-.15a50.88,50.88,0,0,0,5.78-6.49c0,1.2,0,2.47,0,3.79,0,15.25-15.05,35.74-19.51,41.48C144.86,224.37,131.7,204,131.7,188.73Zm72.52,2v82.8h-19V201.69h-3V273.5h-32V233.25c2.84-3.49,21.09-26.71,21.09-44.52,0-3.18,0-6,0-8.48a39,39,0,0,0,4.39-12.62c1.13-.74,2.23-1.54,3.3-2.38A25.48,25.48,0,0,1,204.22,190.7Zm-10.67-72.14V129.1a43.09,43.09,0,0,1-17,34.29l-.51.39-1.08.77-1.05.7-.85.55-.69.41-1.15.67-.54.29a43.85,43.85,0,0,1-4.05,1.9l-.23.09a43.4,43.4,0,0,1-8,2.32l-.84.16-1,.15-1,.14-.76.08c-.35,0-.7.07-1.06.09l-.39,0-.43,0-1.11.05-.89,0c-.34,0-.69,0-1,0-.53,0-1.06,0-1.58,0l-.77,0-.18,0c-.72-.05-1.43-.11-2.14-.2l-.21,0-.33,0c-.71-.1-1.4-.21-2.1-.34l-.6-.12c-.74-.15-1.48-.3-2.2-.49l-.32-.08c-.53-.14-1-.29-1.57-.45l-.24-.07c-.55-.17-1.09-.35-1.63-.54l-.07,0q-.75-.27-1.5-.57l-.17-.07-1.39-.59-.3-.14c-.44-.2-.89-.41-1.33-.63l-.29-.15c-.43-.22-.87-.44-1.29-.67l0,0c-.49-.26-1-.53-1.43-.82l-.41-.25c-.46-.29-.93-.58-1.38-.89l-.37-.25a43.12,43.12,0,0,1-18.79-35.59V106.78c0-.89,0-1.79.09-2.68,0-.1,0-.19,0-.29.06-.85.14-1.69.25-2.54,0-.13,0-.26.05-.4q.18-1.23.42-2.46c0-.14.05-.28.08-.43.17-.81.36-1.62.58-2.43,0,0,0-.1,0-.15h27.29L149,85.3l13.88,10.1H192a.83.83,0,0,1,0,.15c.22.81.41,1.62.58,2.43l.09.43c.16.82.3,1.64.41,2.46,0,.14,0,.27.05.4.11.85.2,1.69.26,2.54a2.81,2.81,0,0,1,0,.29c.06.89.09,1.79.09,2.68Zm2.92-14.38c0-.15,0-.29,0-.44-.06-.83-.13-1.66-.23-2.48l-.06-.48c-.11-.84-.24-1.68-.4-2.51a1.89,1.89,0,0,0,0-.23c-.15-.81-.33-1.61-.53-2.41,0-.08,0-.15-.05-.23h5.94a51.94,51.94,0,0,1-1.38,8.59l-.05.19c-.13.52-.28,1-.42,1.53l-.12.41c-.12.44-.26.87-.4,1.31l-.24.73c-.13.38-.27.75-.41,1.13s-.23.62-.35.92-.25.65-.38,1-.33.78-.51,1.17l-.26.59v-6.17C196.55,105.91,196.52,105,196.47,104.18Zm9.64,11.38a11.07,11.07,0,0,1-9.56,11V119.4c.26-.43.49-.88.74-1.32s.56-1,.82-1.48.47-1,.7-1.46.53-1.08.77-1.62.35-.86.53-1.28c.26-.64.53-1.27.76-1.92.12-.32.22-.65.33-1,.27-.76.53-1.52.76-2.3l0-.09A11.06,11.06,0,0,1,206.11,115.56ZM194.27,92.4H163.81L148.9,81.54,135.06,92.4H92.62a57.4,57.4,0,0,1,114.76,0H194.27Z"/><path d="M139.37,268.23a6.26,6.26,0,1,0-6.26-6.26A6.26,6.26,0,0,0,139.37,268.23Zm0-9.52a3.26,3.26,0,1,1-3.26,3.26A3.26,3.26,0,0,1,139.37,258.71Z"/></svg>