<svg id="Layer_1" data-name="Layer 1" xmlns="http://www.w3.org/2000/svg" viewBox="0 0 300 300"><defs><style>.cls-1{fill:#eaa859;}.cls-2{fill:#9fe2a2;}.cls-3{fill:#fff;}.cls-4{fill:#f50;}.cls-5{fill:#dda812;}.cls-6{fill:#ffaee4;}</style></defs><title>portland_characters</title><path class="cls-1" d="M163.32,76.81,148.93,66.33,135.58,76.81H107.67a44.54,44.54,0,0,0-1.9,12.88V112a44.64,44.64,0,0,0,89.28,0V89.69a44.54,44.54,0,0,0-1.89-12.88Z"/><path class="cls-2" d="M178.77,156.65h-4a37.85,37.85,0,0,1-4.87,16.07c0,2.6,0,5.56,0,8.92,0,18.57-21.09,44-21.09,44s-18.58-25.41-18.58-44c0-2.49,0-4.75,0-6.81A38.2,38.2,0,0,1,124,156.65h-2.61A27,27,0,0,0,94.47,183.6v84.31H205.72V183.6A27,27,0,0,0,178.77,156.65Z"/><polygon class="cls-2" points="165.21 156.66 150.25 175.08 165.21 156.66 165.21 156.66"/><rect x="145.86" y="164.37" width="23.74" height="3" transform="translate(-70.46 183.73) rotate(-50.92)"/><polygon class="cls-2" points="133.6 156.66 148.56 175.08 133.6 156.66 133.6 156.66"/><rect x="139.58" y="154" width="3" height="23.74" transform="translate(-73 126.04) rotate(-39.08)"/><path d="M208.9,76.81a58.9,58.9,0,0,0-117.8,0h44.48l13.35-10.48,14.39,10.48Z"/><path class="cls-3" d="M141.5,186.94c-10.13-8-16.53-17.82-17.47-30.29h9.57l15,18.43Z"/><path class="cls-3" d="M157.3,186.94c10.13-8,16.53-17.82,17.47-30.29h-9.56l-15,18.43Z"/><circle class="cls-4" cx="139.37" cy="235.17" r="4.76"/><path d="M139.37,241.44a6.27,6.27,0,1,1,6.26-6.27A6.27,6.27,0,0,1,139.37,241.44Zm0-9.53a3.27,3.27,0,1,0,3.26,3.26A3.26,3.26,0,0,0,139.37,231.91Z"/><circle class="cls-4" cx="139.37" cy="254.88" r="4.76"/><path d="M139.37,261.14a6.26,6.26,0,1,1,6.26-6.26A6.27,6.27,0,0,1,139.37,261.14Zm0-9.52a3.26,3.26,0,1,0,3.26,3.26A3.26,3.26,0,0,0,139.37,251.62Z"/><path class="cls-1" d="M150.25,175.08l15-18.43h1.16v-2.94a44.75,44.75,0,0,1-32.77-.34v3.28l15,18.43-.27.46a15.67,15.67,0,0,0,1.69.09c.2,0,.38,0,.58,0Z"/><polygon class="cls-5" points="165.21 156.66 150.25 175.08 165.21 156.66 165.21 156.66"/><rect x="145.86" y="164.37" width="23.74" height="3" transform="translate(-70.46 183.73) rotate(-50.92)"/><path class="cls-5" d="M157.3,186.94l-7.05-11.86.31.52c-.2,0-.38,0-.58,0a15.67,15.67,0,0,1-1.69-.09l.27-.46-7.06,11.86a51,51,0,0,1-11.32-12.11c0,2.06,0,4.32,0,6.81,0,18.57,18.58,44,18.58,44s21.09-25.41,21.09-44c0-3.36,0-6.32,0-8.92A49.11,49.11,0,0,1,157.3,186.94Z"/><path d="M202.66,76.81h-9.5a44.54,44.54,0,0,1,1.89,12.88v12.24A52.4,52.4,0,0,0,202.66,76.81Z"/><path d="M105.77,103.22V89.69a44.54,44.54,0,0,1,1.9-12.88H97.34A52.46,52.46,0,0,0,105.77,103.22Z"/><path class="cls-1" d="M93.22,98.47A12.55,12.55,0,0,0,105.77,111v-7.8A52.47,52.47,0,0,1,99,87.9,12.54,12.54,0,0,0,93.22,98.47Z"/><path class="cls-1" d="M201.1,87.46a52.28,52.28,0,0,1-6,14.47V111a12.56,12.56,0,0,0,6-23.56Z"/><path d="M210.4,78.31v-1.5a60.4,60.4,0,0,0-120.8,0v1.5h6.33a54,54,0,0,0,1.37,9,14,14,0,0,0,7,25.17,46.21,46.21,0,0,0,27.82,41.9v.81H121.42A28.49,28.49,0,0,0,93,183.6v85.81H207.22V183.6a28.49,28.49,0,0,0-28.45-28.45h-10.9v-.44a46.2,46.2,0,0,0,28.67-42.27,14,14,0,0,0,6.27-25.68,53.31,53.31,0,0,0,1.24-8.45ZM104.27,109.42a11.05,11.05,0,0,1-6.1-19c0,.11.07.22.11.33l.24.73c.11.34.22.68.34,1s.15.43.23.64.27.72.4,1.07l.24.59.45,1.09c.08.19.17.38.25.56.16.37.32.73.49,1.09.09.19.19.38.28.58l.51,1,.33.63.51,1c.13.23.26.46.4.69s.32.58.49.86l.46.75c.13.2.25.4.37.6Zm1.37-30.87c-.2.79-.37,1.59-.53,2.39a2,2,0,0,1,0,.24c-.15.83-.28,1.67-.39,2.51l-.06.48c-.1.82-.18,1.65-.23,2.48l0,.44c0,.86-.08,1.73-.08,2.6v7.9a51.27,51.27,0,0,1-2.12-4.81c-.1-.25-.18-.5-.27-.75-.2-.56-.4-1.11-.59-1.68-.11-.34-.21-.69-.31-1s-.29-1-.42-1.46a50.46,50.46,0,0,1-1.63-9.55h6.76C105.67,78.39,105.66,78.47,105.64,78.55ZM136.47,156c.48.16,1,.3,1.45.43l.46.14q.74.19,1.47.36l.48.12c.49.11,1,.21,1.48.3l.49.1,1.49.23.52.08c.49.06,1,.12,1.47.16l.55.06c.5.05,1,.08,1.51.11.18,0,.35,0,.53,0,.68,0,1.36,0,2,0l1.71,0h.18a45.22,45.22,0,0,0,11.33-1.89l-4.44,5.47-9.79,12.05-1.33-1.64-13-16v-.58c.3.11.61.2.92.3Zm-3.59,2.16,13.3,16.38.55.68-.93,1.58h0l-4.7,7.89c-.29-.24-.56-.48-.84-.73l-.63-.54c-.45-.41-.9-.82-1.33-1.23l-.05,0a46.21,46.21,0,0,1-6.81-8.13,36.87,36.87,0,0,1-5.23-12.66c0-.13,0-.25-.08-.38-.11-.57-.2-1.14-.29-1.71l-.09-.65c0-.15,0-.3,0-.46Zm14.39,108.26H118.82V194.6h-3v71.81H96V183.6a25.48,25.48,0,0,1,25.45-25.45h1.24c0,.18.06.36.08.54.05.43.11.85.17,1.27l.15.91c.1.55.21,1.09.33,1.64,0,.12,0,.25.08.38a39.28,39.28,0,0,0,5.21,12.43c0,1.93,0,4,0,6.32,0,17.8,16.14,41.06,18.57,44.47Zm1.58-43.29c-4-5.84-17.15-26.25-17.15-41.48,0-.65,0-1.28,0-1.89v-.26a54.28,54.28,0,0,0,4,4.37l.12.11c.64.62,1.3,1.24,2,1.85l.38.34c.77.66,1.55,1.31,2.36,2l1.35,1.06,7.18-12.07.62,0,7.17,12.05,1.34-1.06c.6-.48,1.19-1,1.76-1.44l.74-.64.8-.72a51.42,51.42,0,0,0,6.84-7.46v1.52c0,.73,0,1.48,0,2.26a31.1,31.1,0,0,1-1,7.46c-3.31,13.32-13.92,28-18.06,33.44Zm26.7-61.22c.1-.48.19-1,.27-1.45l.12-.8c.05-.37.11-.74.15-1.11,0-.13,0-.26,0-.39h2.63a25.48,25.48,0,0,1,25.45,25.45v82.81h-19V194.6h-3v71.81h-32V226.16c2.84-3.5,21.09-26.71,21.09-44.52,0-3.18,0-6,0-8.47a39.1,39.1,0,0,0,4.08-10.93C175.5,162.13,175.53,162,175.55,161.9Zm-2.47-3.45-.06.41c-.07.55-.16,1.1-.26,1.65l0,.19A36.58,36.58,0,0,1,168.6,172h0a46.9,46.9,0,0,1-10.9,12.7L153.14,177h0l-1.07-1.8,13.85-17.06h7.19Zm20.47-56.94V112a43.22,43.22,0,0,1-28,40.4l-1,.35-.92.31-1,.32-.92.26-1,.27-1,.23-1,.2-1.09.2-.93.15-1.19.15-.86.1-1.37.1-.71,0c-.7,0-1.4.05-2.11.05s-1.44,0-2.16-.05l-.66,0c-.5,0-1-.06-1.48-.11l-.78-.09-1.34-.18-.84-.14-1.24-.22-.91-.2-1.13-.26-1-.27-1-.29-1-.34-1-.32-1-.38A43.21,43.21,0,0,1,107.27,112V89.69c0-.9,0-1.79.09-2.69,0-.09,0-.19,0-.28.06-.85.14-1.7.25-2.54,0-.13,0-.27.05-.4q.18-1.23.42-2.46c0-.14.05-.28.08-.43.17-.81.36-1.62.58-2.43,0,0,0-.1,0-.15h27.29L149,68.21l13.88,10.1H192a.83.83,0,0,1,0,.15c.22.81.41,1.62.58,2.43l.09.43c.16.82.3,1.64.41,2.46,0,.13,0,.27.05.4.11.84.2,1.69.26,2.54a2.62,2.62,0,0,1,0,.28c.06.9.09,1.79.09,2.69Zm2.92-14.42c0-.15,0-.3,0-.44-.06-.83-.13-1.66-.23-2.48,0-.16,0-.32-.07-.48-.1-.84-.23-1.67-.39-2.5a2.38,2.38,0,0,0,0-.26c-.15-.79-.33-1.59-.52-2.38l-.06-.24h5.94a51.64,51.64,0,0,1-1.37,8.58l-.06.21a50.71,50.71,0,0,1-3.09,8.8V89.69C196.55,88.82,196.52,88,196.47,87.09Zm9.64,11.38a11.07,11.07,0,0,1-9.56,11v-7.07c.26-.42.48-.86.72-1.29s.57-1,.84-1.51.46-1,.69-1.42.54-1.11.79-1.67c.18-.41.34-.82.5-1.23.27-.66.55-1.31.79-2l.32-.93c.27-.78.53-1.56.77-2.36l0-.09A11.07,11.07,0,0,1,206.11,98.47ZM194.27,75.31H163.81L148.9,64.45,135.06,75.31H92.62a57.4,57.4,0,0,1,114.76,0H194.27Z"/><path class="cls-3" d="M161.57,117.59a11.16,11.16,0,0,1-22.32,0Z"/><path d="M150.41,130.25a12.68,12.68,0,0,1-12.66-12.66v-1.5h25.32v1.5A12.68,12.68,0,0,1,150.41,130.25Zm-9.54-11.16a9.66,9.66,0,0,0,19.09,0Z"/><path d="M141.05,95.27h-3a4.78,4.78,0,0,0-9.56,0h-3a7.78,7.78,0,0,1,15.56,0Z"/><path d="M175.34,95.27h-3a4.78,4.78,0,0,0-9.56,0h-3a7.78,7.78,0,0,1,15.56,0Z"/><path class="cls-4" d="M201.87,182.25l-5.54-3.6-1.71-6.38-6.59.34-5.14-4.15-5.13,4.15-6.6-.34-1.71,6.38-5.54,3.6,2.38,6.16-2.38,6.17,5.54,3.6,1.71,6.37,6.6-.34,5.13,4.15,5.14-4.15,6.59.34,1.71-6.38,5.54-3.59-2.37-6.17Zm-19,14a7.84,7.84,0,1,1,7.84-7.84A7.84,7.84,0,0,1,182.89,196.25Z"/><polygon class="cls-6" points="194.62 204.55 188.03 204.21 182.89 208.36 177.76 204.21 171.16 204.55 169.84 199.6 169.84 238.03 182.89 226.28 195.95 238.03 195.95 199.6 194.62 204.55"/><circle class="cls-5" cx="182.89" cy="188.41" r="7.83"/><path d="M182.89,197.75a9.34,9.34,0,1,1,9.34-9.34A9.35,9.35,0,0,1,182.89,197.75Zm0-15.67a6.33,6.33,0,1,0,6.33,6.33A6.34,6.34,0,0,0,182.89,182.08Z"/><path d="M203.71,181.65l-6.08-3.94-1.87-7-7.24.37-5.63-4.55-5.63,4.55-7.23-.37-1.88,7-6.08,3.94,2.6,6.76-2.6,6.77,6.08,3.94.18.68v41.61l14.56-13.11,14.56,13.11V199.8l.18-.68,6.08-3.94-2.6-6.77Zm-20.82,42.6-11.55,10.4v-28.6l5.92-.31,5.63,4.56,5.63-4.56,5.93.31v28.6ZM200,194l-5,3.25L193.48,203l-5.95-.31-4.64,3.75-4.63-3.75-6,.31-1.54-5.76-5-3.25,2.14-5.57-2.14-5.56,5-3.25,1.54-5.76,6,.31,4.63-3.75,4.64,3.75,5.95-.31L195,179.6l5,3.25-2.14,5.56Z"/></svg>