<?xml version="1.0" encoding="UTF-8"?>
<svg width="175px" height="175px" viewBox="0 0 175 175" version="1.1" xmlns="http://www.w3.org/2000/svg" xmlns:xlink="http://www.w3.org/1999/xlink">
    <!-- Generator: sketchtool 50.2 (55047) - http://www.bohemiancoding.com/sketch -->
    <title>A57C139D-D96B-431E-9E98-D111A41AB323</title>
    <desc>Created with sketchtool.</desc>
    <defs>
        <circle id="path-1" cx="87.5" cy="87.5" r="87.5"></circle>
    </defs>
    <g id="Symbols" stroke="none" stroke-width="1" fill="none" fill-rule="evenodd">
        <g id="characters" transform="translate(-654.000000, -330.000000)">
            <g id="PLAYER-/-minh_win" transform="translate(654.000000, 330.000000)">
                <mask id="mask-2" fill="white">
                    <use xlink:href="#path-1"></use>
                </mask>
                <use id="Mask" fill="#FFFFFF" xlink:href="#path-1"></use>
                <g id="minh_win" mask="url(#mask-2)">
                    <g transform="translate(47.000000, 10.000000)">
                        <path d="M49.2372893,40.6394071 L39.6016364,33.5968379 L30.6621818,40.6394071 L11.9799669,40.6394071 C10.7401983,44.7731621 10.7107438,48.928419 10.7107438,53.1831225 L10.7107438,63.6478656 C10.7107438,73.5858103 15.1637355,82.9552964 23.3052397,88.76083 C32.3839339,95.2369565 44.6731736,96.0573913 54.5250496,90.8371146 C64.2209504,85.7001581 70.4037273,75.4175099 70.4773636,64.4252964 C70.4967769,61.6320553 70.4780331,58.8381423 70.4780331,56.0449012 C70.4780331,52.7490514 70.6567686,49.3705534 70.3086694,46.0874704 C70.1125289,44.242332 69.7430083,42.4160079 69.2101488,40.6394071 L49.2372893,40.6394071 Z" id="Fill-66" fill="#EAA859"></path>
                        <path d="M59.1704332,94.0711462 L55.7818217,94.0711462 L56.4927473,94.0711462 C56.1935159,98.0530435 55.0595159,101.627747 53.2333341,104.865138 C53.2005324,108.285296 53.4341605,111.754506 52.7299291,115.122925 C52.1053589,118.107668 50.9974663,120.981542 49.704144,123.733794 C47.3832597,128.673874 44.4250861,133.32166 41.1830779,137.702688 C40.503615,138.620553 39.8127721,139.5317 39.088458,140.415296 C37.3479622,138.005731 35.7734828,135.463123 34.2933919,132.886245 C31.4302762,127.900474 28.8523341,122.596206 27.4733258,116.986206 C26.5997308,113.429644 26.6593093,109.920791 26.639896,106.281581 C24.3089704,102.679328 22.8697142,98.6416601 22.526301,94.0711462 L23.2372266,94.0711462 C19.1939208,94.0711462 15.4096812,94.3903162 11.8128795,96.4612253 C7.72539191,98.8143478 4.65207786,102.766008 3.39088778,107.325099 C2.39077207,110.942806 2.73485472,114.974427 2.73485472,118.697628 L2.73485472,137.407036 L2.73485472,157.695494 L2.73485472,168.667549 L2.73485472,168.826798 L77.2106729,168.826798 L77.2106729,160.326126 L77.2106729,141.537431 L77.2106729,122.18498 C77.2106729,118.883083 77.2260696,115.580514 77.2106729,112.279289 C77.1718465,103.737628 71.1765076,96.1427273 62.7752679,94.4326482 C61.5897225,94.1920949 60.3800779,94.0711462 59.1704332,94.0711462" id="Fill-67" fill="#9FE2A2"></path>
                        <path d="M50.181843,94.0711462 L40.1652893,106.452925 L50.181843,94.0711462 Z" id="Fill-68" fill="#9FE2A2"></path>
                        <polygon id="Fill-69" fill="#000000" points="41.0549504 107.050949 39.4958678 105.779644 49.5124215 93.3992095 51.0715041 94.6698419"></polygon>
                        <path d="M29.4545455,94.0711462 L39.4710992,106.452925 L29.4545455,94.0711462 Z" id="Fill-70" fill="#9FE2A2"></path>
                        <polygon id="Fill-71" fill="#000000" points="38.1322562 107.050949 28.1157025 94.6698419 29.6747851 93.3992095 39.6913388 105.779644"></polygon>
                        <path d="M79.5306198,40.2112227 C79.5306198,23.7776653 69.0300744,8.67991831 53.6507851,3.03094598 C38.0961074,-2.68186034 20.1897521,2.23335705 9.6637686,15.047191 C3.87059504,22.0991673 0.669421488,31.0715389 0.669421488,40.2112227 L30.4439504,40.2112227 L39.383405,33.1686535 L49.0190579,40.2112227 L79.5306198,40.2112227 Z" id="Fill-72" fill="#000000"></path>
                        <path d="M34.4557934,114.423439 C27.6732149,109.043913 23.391595,102.446838 22.7603306,94.0711462 L29.1626777,94.0711462 L39.1792314,106.452925 L34.4557934,114.423439 Z" id="Fill-73" fill="#FFAEE4"></path>
                        <path d="M44.8880579,114.423439 C51.6713058,109.043913 55.9529256,102.446838 56.5841901,94.0711462 L50.181843,94.0711462 L40.1652893,106.452925 L44.8880579,114.423439 Z" id="Fill-74" fill="#FFAEE4"></path>
                        <path d="M36.500876,146.991838 C36.500876,148.734842 35.0489008,150.192273 33.3117521,150.192273 C31.5766116,150.192273 30.1239669,148.734842 30.1239669,146.991838 C30.1239669,145.299229 31.496281,143.861956 33.1812149,143.796779 C34.966562,143.728241 36.500876,145.192391 36.500876,146.991838" id="Fill-75" fill="#FF5500"></path>
                        <path d="M32.9777107,144.466403 C30.1601157,144.466403 30.1674793,148.850791 32.9777107,148.850791 C35.7866033,148.850791 35.7999917,144.466403 32.9777107,144.466403 M32.9777107,150.866601 C30.6969917,150.866601 28.785124,148.949565 28.785124,146.658933 C28.785124,144.3683 30.6963223,142.450593 32.9777107,142.450593 C35.2590992,142.450593 37.1709669,144.3683 37.1709669,146.658933 C37.1709669,148.949565 35.2590992,150.866601 32.9777107,150.866601" id="Fill-76" fill="#000000"></path>
                        <path d="M36.500876,159.75868 C36.500876,161.501684 35.0489008,162.959115 33.3117521,162.959115 C31.5766116,162.959115 30.1239669,161.501012 30.1239669,159.75868 C30.1239669,158.065399 31.496281,156.628798 33.1812149,156.563621 C34.966562,156.494411 36.500876,157.959233 36.500876,159.75868" id="Fill-77" fill="#FF5500"></path>
                        <path d="M32.9777107,157.905138 C30.1594463,157.905138 30.1674793,162.290198 32.9777107,162.290198 C35.7866033,162.290198 35.7999917,157.905138 32.9777107,157.905138 M32.9777107,164.306008 C30.6963223,164.306008 28.785124,162.3883 28.785124,160.09834 C28.785124,157.807708 30.6963223,155.889328 32.9777107,155.889328 C35.2590992,155.889328 37.1709669,157.807036 37.1709669,160.09834 C37.1709669,162.388972 35.2597686,164.306008 32.9777107,164.306008" id="Fill-78" fill="#000000"></path>
                        <path d="M40.6010826,106.646443 L50.6176364,94.264664 L51.3928264,94.264664 L51.3928264,92.2844664 C44.3652397,94.9856522 36.4238926,94.9036759 29.4545455,92.055336 L29.4545455,94.264664 L39.4710992,106.646443 L39.2876777,106.954862 C39.796438,107.007273 40.2978347,107.012648 40.8072645,106.995178 L40.6010826,106.646443 Z" id="Fill-79" fill="#EAA859"></path>
                        <path d="M50.181843,94.0711462 L40.1652893,106.452925 L50.181843,94.0711462 Z" id="Fill-80" fill="#DDA812"></path>
                        <polygon id="Fill-81" fill="#000000" points="41.0549504 107.050949 39.4958678 105.779644 49.5124215 93.3992095 51.0715041 94.6698419"></polygon>
                        <path d="M44.9342479,114.380435 L40.2114793,106.409921 L40.4176612,106.757984 C39.907562,106.776126 39.4075041,106.771423 38.8980744,106.71834 L39.0814959,106.409921 L34.3580579,114.380435 C31.2773802,111.935929 28.7181818,109.237431 26.7768595,106.238577 C26.793595,109.485375 26.6898347,112.682451 27.3659504,115.876166 C27.9784711,118.77087 28.9692149,121.579565 30.1279835,124.296877 C32.1275455,128.986324 34.6398843,133.463439 37.4246777,137.727549 C38.0070744,138.619881 38.6008512,139.508182 39.2254215,140.372292 C41.2604628,137.89083 43.1147603,135.245415 44.8572645,132.551621 C48.1334132,127.485889 51.1699091,121.992134 52.6346033,116.09253 C53.5550579,112.386126 53.3334793,108.611186 53.3702975,104.822134 C51.3546694,108.396166 48.4928926,111.5583 44.9342479,114.380435" id="Fill-82" fill="#DDA812"></path>
                        <path d="M75.3105868,40.3162055 L68.9504132,40.3162055 C70.5925041,45.793834 70.2189669,51.5449407 70.2189669,57.193913 C73.2260083,52.2370356 75.0515207,46.4798814 75.3105868,40.3162055" id="Fill-83" fill="#000000"></path>
                        <path d="M10.3311818,58.0593676 C10.3311818,52.1449802 9.88133058,46.0464822 11.600405,40.3162055 L4.68595041,40.3162055 C4.96175207,46.8433992 6.99947107,52.9109881 10.3311818,58.0593676" id="Fill-84" fill="#000000"></path>
                        <path d="M2.00826446,54.8065217 C2.00826446,59.4664032 5.77108264,63.2433597 10.4135207,63.2433597 L10.4135207,57.9982213 C8.39119835,54.8730435 6.84885124,51.4065217 5.8848843,47.7075099 C3.55596694,49.2066008 2.00826446,51.8231225 2.00826446,54.8065217" id="Fill-85" fill="#EAA859"></path>
                        <path d="M74.3365785,47.7075099 C73.4656612,51.1780632 72.0960248,54.4490514 70.2892562,57.4270751 L70.2892562,63.537668 C73.9201983,63.537668 77.2264711,61.103913 78.3116033,57.6246245 C79.4938017,53.8349012 77.7994959,49.6218577 74.3365785,47.7075099" id="Fill-86" fill="#EAA859"></path>
                        <path d="M70.0735794,39.5730544 L52.4349926,39.5730544 L49.6809926,39.5730544 L39.6959017,32.2751493 L30.4317778,39.5730544 L8.48412488,39.5730544 L2.02219926,39.5730544 C2.425191,23.894754 12.6639926,9.67052477 27.3444059,4.31451686 C42.2356869,-1.11876377 59.3233398,3.45645362 69.6177034,15.5136868 C75.3265298,22.2008014 78.6227612,30.7679951 78.8483563,39.5730544 L70.0735794,39.5730544 Z M77.9961827,55.132422 C77.9961827,58.8872046 75.2073728,62.0002876 71.599191,62.4928173 L71.599191,57.7388647 C73.1576042,55.1243588 74.3926869,52.2787066 75.2448604,49.3551097 C76.9672819,50.7520663 77.9961827,52.8673232 77.9961827,55.132422 Z M71.5449679,47.4857817 C71.4345133,45.4988647 71.1366207,43.5179951 70.6472736,41.5888647 L74.6236373,41.5888647 C74.3270836,45.6641611 73.2928274,49.692422 71.599191,53.4075603 C71.599191,51.4367698 71.6554224,49.4545564 71.5449679,47.4857817 Z M69.5909265,57.1757817 C69.5909265,59.4260979 69.5929348,61.6764141 69.5909265,63.9260584 C69.58691,68.2775208 68.7193398,72.5584299 66.8730753,76.5067303 C62.8076786,85.1982323 54.5028356,91.4432125 45.0425712,92.8919082 C35.1752984,94.4017501 25.0335629,90.5213153 18.6138108,82.8706433 C15.6636703,79.3537263 13.5630257,75.1433706 12.5475133,70.6588647 C11.8292241,67.4879951 11.8319017,64.3050307 11.8319017,61.0770465 L11.8319017,54.643924 C11.8319017,51.6188647 11.6899844,48.5400505 12.0722241,45.5331335 C12.2415877,44.2020267 12.5053398,42.8830149 12.856786,41.5888647 L31.1259679,41.5888647 L39.740753,34.8016315 L49.0276373,41.5888647 L68.5660422,41.5888647 C69.9437117,46.6559398 69.5909265,51.976335 69.5909265,57.1757817 Z M55.8871993,95.4372046 C55.0042323,102.540248 50.9776621,108.544003 45.5921662,113.064122 L42.5389348,107.911039 L42.5396042,107.911039 L41.8219844,106.70088 L51.0954803,95.2383113 L55.9072819,95.2383113 C55.8992488,95.3041611 55.8945629,95.3713548 55.8871993,95.4372046 Z M57.5379926,97.7553864 C57.7060174,96.9242007 57.8425794,96.081592 57.9342902,95.2383113 C61.9876373,95.2383113 65.7504555,95.8208805 69.1899431,98.1457817 C73.0009596,100.722659 75.6773067,104.820801 76.4752571,109.367126 C77.0422571,112.607205 76.732315,116.133529 76.732315,119.404517 L76.732315,137.811552 L76.732315,157.383054 L76.732315,167.815545 L76.732315,167.978153 L64.0186621,167.978153 L64.0186621,119.72839 L62.0103976,119.72839 L62.0103976,167.978153 L40.6183646,167.978153 L40.6183646,140.934043 C42.9646869,138.027916 45.1108522,134.944398 47.0776125,131.768825 C50.1114307,126.874438 52.8781497,121.572857 54.1487117,115.911118 C54.9299265,112.427126 54.7284307,108.873924 54.7612323,105.32677 C56.0692819,102.961552 56.9964307,100.404161 57.5379926,97.7553864 Z M39.6651084,138.890011 C35.1712819,132.29092 31.0208687,124.954043 29.0400505,117.165624 C28.3987447,114.643173 28.1845298,112.167758 28.1805133,109.57341 C30.1787365,112.037402 32.5484885,114.122422 35.0246786,116.086493 L39.8324637,107.972857 C39.9703646,107.979576 40.1089348,107.98428 40.2461662,107.985624 L45.0465877,116.086493 C47.8849348,113.834833 50.5652984,111.409813 52.7328852,108.480841 C52.7201662,111.865386 52.4751579,114.997284 51.4201497,118.235347 C50.4769348,121.129379 49.1836125,123.903805 47.7403398,126.577442 C45.4080753,130.895979 42.6688026,135.012264 39.6651084,138.890011 Z M38.6101001,167.978153 L19.5643893,167.978153 L19.5643893,119.72839 L17.5561249,119.72839 L17.5561249,167.978153 L4.26543067,167.978153 L4.26543067,159.564833 L4.26543067,140.909853 L4.26543067,121.966612 C4.26543067,118.7776 4.24802571,115.588588 4.26543067,112.399576 C4.31362901,103.715465 10.9382241,96.1803667 19.6105794,95.3223034 C20.4513728,95.2396552 21.2928356,95.2383113 22.1369761,95.2383113 C22.5828108,99.3304062 23.9591414,103.298865 26.1635464,106.77009 C26.1776042,109.749458 26.0838852,112.701948 26.6408439,115.643687 C27.1690174,118.433568 28.059348,121.148193 29.1177034,123.778153 C31.000786,128.458865 33.4294472,132.920525 36.1238687,137.177244 C36.9224885,138.437797 37.7445381,139.683568 38.6101001,140.899102 L38.6101001,167.978153 Z M28.9751166,95.2383113 C32.0671745,99.0589437 35.1578935,102.880248 38.2492819,106.70088 L37.6206951,107.760525 L34.4784307,113.064122 C29.0293398,108.488904 25.0154885,102.424003 24.1686703,95.2383113 L28.9751166,95.2383113 Z M31.3776703,93.786256 C37.2498356,95.6596157 43.654191,95.7153864 49.5578191,93.9414734 C46.3834224,97.8649121 43.2096951,101.787679 40.0359679,105.711118 C36.8428274,101.764833 33.6503563,97.8185485 30.4578852,93.8722639 L30.4578852,93.4818686 C30.7611331,93.5893785 31.0710753,93.6874813 31.3776703,93.786256 Z M10.7400753,41.7514734 C9.6964472,45.9678765 9.82363728,50.2380346 9.82363728,54.5404457 C7.80131496,50.5182323 6.57426538,46.0827777 6.24624885,41.5888647 L10.7762241,41.5888647 C10.7621662,41.6426196 10.7534637,41.6977184 10.7400753,41.7514734 Z M9.82363728,62.4928173 C3.80286042,61.6703667 1.30190174,53.9498133 5.73949678,49.745505 C6.6934224,52.8666512 8.07510835,55.8675208 9.82363728,58.6204457 L9.82363728,62.4928173 Z M80.8700092,41.5888647 C80.8700092,33.2796947 78.7974803,25.2675208 74.2119431,18.2894576 C69.5621414,11.2153074 62.7179761,5.67720461 54.8288439,2.65080145 C46.6619017,-0.481767723 37.5256373,-0.848645193 29.1324307,1.60728366 C21.0023067,3.98728366 13.727034,8.97842991 8.52495959,15.6803271 C3.24590174,22.4809991 0.23484389,30.9037263 0.0139347987,39.5226592 C-0.00413958142,40.2107224 0.000546368995,40.9001295 0.000546368995,41.5888647 L4.23664554,41.5888647 C4.37655463,43.6228173 4.68649678,45.6352679 5.15977777,47.6060584 C1.95726538,50.0310781 0.623108352,54.3556631 1.91776951,58.17092 C3.08657943,61.6112362 6.22884389,64.1404062 9.83100091,64.5227382 C9.94681083,77.1215524 17.5889265,87.9397343 28.4496207,92.6768884 L28.4496207,93.2225011 C25.7250753,93.2225011 22.9710753,93.1015524 20.2492075,93.2513943 C15.0062984,93.5389833 10.0445464,96.0621058 6.68070339,100.103133 C3.80419926,103.558232 2.27858769,107.921118 2.2571662,112.411671 C2.25181083,113.652738 2.2571662,114.893805 2.2571662,116.134201 L2.2571662,134.820762 L2.2571662,157.223133 L2.2571662,169.80179 L2.2571662,169.993964 L78.7405794,169.993964 L78.7405794,159.609853 L78.7405794,137.60258 L78.7405794,117.68839 L78.7405794,112.793331 C78.7405794,109.377205 78.0089017,106.057165 76.3413728,103.056967 C73.8149761,98.5099714 69.4530257,95.1160188 64.4270092,93.8198528 C61.0290257,92.9436473 57.3867034,93.2225011 53.9043728,93.2225011 L52.3968356,93.2225011 L52.3968356,92.9214734 C63.562786,88.3200505 71.4746786,77.3439635 71.5924968,64.5227382 C75.282348,64.1309991 78.4815133,61.4869279 79.5827117,57.9310386 C80.8090918,53.9713153 79.230596,49.554003 75.7897695,47.2640426 C76.2175298,45.4021058 76.4873067,43.5032125 76.6191827,41.5888647 L80.8700092,41.5888647 Z" id="Fill-87" fill="#000000"></path>
                        <path d="M47.7431405,67.8656126 C47.7431405,71.9516601 44.3431488,75.3650988 40.2723967,75.3650988 C36.2016446,75.3650988 32.8016529,71.9516601 32.8016529,67.8656126 L47.7431405,67.8656126 Z" id="Fill-88" fill="#FFFFFF"></path>
                        <path d="M34.2181488,68.5375494 C34.7034793,71.6519763 37.4681901,74.0205534 40.6071074,74.0205534 C43.744686,74.0205534 46.5100661,71.6519763 46.9960661,68.5375494 L34.2181488,68.5375494 Z M40.6071074,76.0363636 C37.9916777,76.0363636 35.4813471,74.7879051 33.8874545,72.7089328 C32.4749752,70.8658103 32.1322314,68.7848221 32.1322314,66.5217391 L49.0819835,66.5217391 C49.0819835,68.786166 48.7405785,70.8637945 47.3260909,72.7089328 C45.7321983,74.7879051 43.2218678,76.0363636 40.6071074,76.0363636 Z" id="Fill-89" fill="#000000"></path>
                        <path d="M34.5126942,52.9331621 L32.5044298,52.9331621 C32.5044298,51.1867984 31.0450909,49.7233202 29.3066033,49.7233202 C27.5667769,49.7233202 26.107438,51.1867984 26.107438,52.9331621 L24.0991736,52.9331621 C24.0991736,50.0888538 26.4736116,47.7075099 29.3066033,47.7075099 C32.1382562,47.7075099 34.5126942,50.0895257 34.5126942,52.9331621" id="Fill-90" fill="#000000"></path>
                        <path d="M57.2723554,52.9331621 L55.2640909,52.9331621 C55.2640909,51.1867984 53.8047521,49.7233202 52.0662645,49.7233202 C50.326438,49.7233202 48.8677686,51.1867984 48.8677686,52.9331621 L46.8595041,52.9331621 C46.8595041,50.0888538 49.2332727,47.7075099 52.0662645,47.7075099 C54.8979174,47.7075099 57.2723554,50.0895257 57.2723554,52.9331621" id="Fill-91" fill="#000000"></path>
                        <path d="M62.2421405,120.803478 C57.4363636,120.803478 55.2018347,114.565889 58.8957025,111.488419 C62.5714959,108.425731 68.2207438,111.730316 67.4080661,116.443281 C66.9782975,118.932134 64.7591653,120.803478 62.2421405,120.803478 Z M74.9470909,111.396364 L71.2378264,108.980079 L70.0931157,104.693794 L65.6789504,104.922925 L62.2421405,102.134387 L58.8053306,104.922925 L54.3911653,104.693794 L53.2464545,108.980079 L49.5371901,111.395692 L51.1250579,115.539526 L49.5371901,119.682688 L53.2464545,122.0983 L54.3911653,126.385257 L58.8053306,126.155455 L62.2421405,128.944664 L65.6789504,126.155455 L70.0937851,126.384585 L71.2378264,122.0983 L74.9470909,119.682688 L73.3592231,115.539526 L74.9470909,111.396364 Z" id="Fill-92" fill="#FF5500"></path>
                        <polygon id="Fill-93" fill="#FFAEE4" points="70.1453306 126.293874 65.7304959 126.064743 62.293686 128.854625 58.8575455 126.064743 54.4433802 126.294545 53.553719 122.964427 53.553719 148.786957 62.293686 140.891028 71.0343223 148.786957 71.0343223 122.964427"></polygon>
                        <path d="M67.3620997,115.408154 C67.3620997,110.583648 61.1485295,108.340723 58.082579,112.049142 C55.0306865,115.738075 58.3235708,121.409221 63.0182237,120.592818 C65.4977609,120.162107 67.3620997,117.934636 67.3620997,115.408154" id="Fill-94" fill="#DDA812"></path>
                        <path d="M62.4139746,110.842004 C60.108487,110.842004 58.1765366,112.780541 58.1765366,115.095363 C58.1765366,117.409514 60.108487,119.348723 62.4139746,119.348723 C64.7201317,119.348723 66.6514126,117.409514 66.6514126,115.095363 C66.6514126,112.779869 64.7201317,110.842004 62.4139746,110.842004 M62.4139746,121.369909 C56.6730159,121.369909 54.0288011,113.920818 58.4409581,110.256075 C62.8377184,106.60477 69.6002143,110.608842 68.5606027,116.234296 C68.0177019,119.17066 65.3902226,121.369909 62.4139746,121.369909" id="Fill-95" fill="#000000"></path>
                        <path d="M73.6075785,119.237194 L70.2584628,121.417628 L69.224876,125.289328 L65.2391405,125.082372 L62.1350331,127.600791 L59.031595,125.082372 L55.0458595,125.289328 L54.0122727,121.417628 L50.6638264,119.237194 L52.0963884,115.49585 L50.6638264,111.753834 L54.0122727,109.573399 L55.0458595,105.7017 L59.031595,105.908656 L62.1350331,103.389565 L65.2391405,105.908656 L69.224876,105.7017 L70.2584628,109.572727 L73.6075785,111.753834 L72.1736777,115.49585 L73.6075785,119.237194 Z M62.1350331,139.577391 L54.4025455,146.563518 L54.4025455,127.346798 L58.3648512,127.141186 L62.1350331,130.199842 L65.9052149,127.141186 L69.8688595,127.346798 L69.8688595,146.563518 L62.1350331,139.577391 Z M76.0730579,110.950198 L72.0036446,108.300079 L70.7484793,103.599209 L65.9052149,103.850514 L62.1350331,100.790514 L58.3648512,103.850514 L53.5229256,103.599209 L52.2670909,108.300751 L48.1983471,110.950198 L49.9395124,115.49585 L48.1983471,120.04083 L52.2670909,122.690949 L52.3889256,123.144506 L52.3889256,151.102451 L62.1350331,142.296719 L71.8824793,151.102451 L71.8824793,123.144506 L72.0036446,122.690949 L76.0730579,120.04083 L74.3312231,115.49585 L76.0730579,110.950198 Z" id="Fill-96" fill="#000000"></path>
                    </g>
                </g>
            </g>
        </g>
    </g>
</svg>