<?xml version="1.0" encoding="UTF-8"?>
<svg width="121px" height="253px" viewBox="0 0 121 253" version="1.1" xmlns="http://www.w3.org/2000/svg" xmlns:xlink="http://www.w3.org/1999/xlink">
    <!-- Generator: sketchtool 50.2 (55047) - http://www.bohemiancoding.com/sketch -->
    <title>5F5184E6-3910-4849-82B3-3FE92B124914</title>
    <desc>Created with sketchtool.</desc>
    <defs></defs>
    <g id="Symbols" stroke="none" stroke-width="1" fill="none" fill-rule="evenodd">
        <g id="minh_win">
            <path d="M73.552,60.481 L59.158,50 L45.804,60.481 L17.896,60.481 C16.044,66.633 16,72.817 16,79.149 L16,94.723 C16,109.513 22.652,123.457 34.814,132.097 C48.376,141.735 66.734,142.956 81.451,135.187 C95.935,127.542 105.171,112.239 105.281,95.88 C105.31,91.723 105.282,87.565 105.282,83.408 C105.282,78.503 105.549,73.475 105.029,68.589 C104.736,65.843 104.184,63.125 103.388,60.481 L73.552,60.481 Z" id="Fill-66" fill="#EAA859"></path>
            <path d="M88.3904003,140 L83.3284003,140 L84.3904003,140 C83.9434003,145.926 82.2494003,151.246 79.5214003,156.064 C79.4724003,161.154 79.8214003,166.317 78.7694003,171.33 C77.8364003,175.772 76.1814003,180.049 74.2494003,184.145 C70.7824003,191.497 66.3634003,198.414 61.5204003,204.934 C60.5054003,206.3 59.4734003,207.656 58.3914003,208.971 C55.7914003,205.385 53.4394003,201.601 51.2284003,197.766 C46.9514003,190.346 43.1004003,182.452 41.0404003,174.103 C39.7354003,168.81 39.8244003,163.588 39.7954003,158.172 C36.3134003,152.811 34.1634003,146.802 33.6504003,140 L34.7124003,140 C28.6724003,140 23.0194003,140.475 17.6464003,143.557 C11.5404003,147.059 6.94940026,152.94 5.06540026,159.725 C3.57140026,165.109 4.08540026,171.109 4.08540026,176.65 L4.08540026,204.494 L4.08540026,234.688 L4.08540026,251.017 L4.08540026,251.254 L115.3394,251.254 L115.3394,238.603 L115.3394,210.641 L115.3394,181.84 C115.3394,176.926 115.3624,172.011 115.3394,167.098 C115.2814,154.386 106.3254,143.083 93.7754003,140.538 C92.0044003,140.18 90.1974003,140 88.3904003,140" id="Fill-67" fill="#9FE2A2"></path>
            <path d="M74.963,140 L60,158.427 L74.963,140 Z" id="Fill-68" fill="#9FE2A2"></path>
            <polygon id="Fill-69" fill="#000000" points="61.329 159.317 59 157.425 73.963 139 76.292 140.891"></polygon>
            <path d="M44,140 L58.963,158.427 L44,140 Z" id="Fill-70" fill="#9FE2A2"></path>
            <polygon id="Fill-71" fill="#000000" points="56.963 159.317 42 140.891 44.329 139 59.292 157.425"></polygon>
            <path d="M118.805,59.8437608 C118.805,35.3867608 103.119,12.9177608 80.145,4.51076078 C56.909,-3.99123922 30.16,3.32376078 14.436,22.3937608 C5.782,32.8887608 1,46.2417608 1,59.8437608 L45.478,59.8437608 L58.832,49.3627608 L73.226,59.8437608 L118.805,59.8437608 Z" id="Fill-72" fill="#000000"></path>
            <path d="M51.471,170.289 C41.339,162.283 34.943,152.465 34,140 L43.564,140 L58.527,158.427 L51.471,170.289 Z" id="Fill-73" fill="#FFAEE4"></path>
            <path d="M67.055,170.289 C77.188,162.283 83.584,152.465 84.527,140 L74.963,140 L60,158.427 L67.055,170.289 Z" id="Fill-74" fill="#FFAEE4"></path>
            <path d="M54.526,218.758441 C54.526,221.352441 52.357,223.521441 49.762,223.521441 C47.17,223.521441 45,221.352441 45,218.758441 C45,216.239441 47.05,214.100441 49.567,214.003441 C52.234,213.901441 54.526,216.080441 54.526,218.758441" id="Fill-75" fill="#FF5500"></path>
            <path d="M49.263,215 C45.054,215 45.065,221.525 49.263,221.525 C53.459,221.525 53.479,215 49.263,215 M49.263,224.525 C45.856,224.525 43,221.672 43,218.263 C43,214.854 45.855,212 49.263,212 C52.671,212 55.527,214.854 55.527,218.263 C55.527,221.672 52.671,224.525 49.263,224.525" id="Fill-76" fill="#000000"></path>
            <path d="M54.526,237.758506 C54.526,240.352506 52.357,242.521506 49.762,242.521506 C47.17,242.521506 45,240.351506 45,237.758506 C45,235.238506 47.05,233.100506 49.567,233.003506 C52.234,232.900506 54.526,235.080506 54.526,237.758506" id="Fill-77" fill="#FF5500"></path>
            <path d="M49.263,235 C45.053,235 45.065,241.526 49.263,241.526 C53.459,241.526 53.479,235 49.263,235 M49.263,244.526 C45.855,244.526 43,241.672 43,238.264 C43,234.855 45.855,232 49.263,232 C52.671,232 55.527,234.854 55.527,238.264 C55.527,241.673 52.672,244.526 49.263,244.526" id="Fill-78" fill="#000000"></path>
            <path d="M60.651,158.715 L75.614,140.288 L76.772,140.288 L76.772,137.341 C66.274,141.361 54.411,141.239 44,137 L44,140.288 L58.963,158.715 L58.689,159.174 C59.449,159.252 60.198,159.26 60.959,159.234 L60.651,158.715 Z" id="Fill-79" fill="#EAA859"></path>
            <path d="M74.963,140 L60,158.427 L74.963,140 Z" id="Fill-80" fill="#DDA812"></path>
            <polygon id="Fill-81" fill="#000000" points="61.329 159.317 59 157.425 73.963 139 76.292 140.891"></polygon>
            <path d="M67.124,170.225 L60.069,158.363 L60.377,158.881 C59.615,158.908 58.868,158.901 58.107,158.822 L58.381,158.363 L51.325,170.225 C46.723,166.587 42.9,162.571 40,158.108 C40.025,162.94 39.87,167.698 40.88,172.451 C41.795,176.759 43.275,180.939 45.006,184.983 C47.993,191.962 51.746,198.625 55.906,204.971 C56.776,206.299 57.663,207.621 58.596,208.907 C61.636,205.214 64.406,201.277 67.009,197.268 C71.903,189.729 76.439,181.553 78.627,172.773 C80.002,167.257 79.671,161.639 79.726,156 C76.715,161.319 72.44,166.025 67.124,170.225" id="Fill-82" fill="#DDA812"></path>
            <path d="M112.501,60 L103,60 C105.453,68.152 104.895,76.711 104.895,85.118 C109.387,77.741 112.114,69.173 112.501,60" id="Fill-83" fill="#000000"></path>
            <path d="M15.433,86.406 C15.433,77.604 14.761,68.528 17.329,60 L7,60 C7.412,69.714 10.456,78.744 15.433,86.406" id="Fill-84" fill="#000000"></path>
            <path d="M3,81.565 C3,88.5 8.621,94.121 15.556,94.121 L15.556,86.315 C12.535,81.664 10.231,76.505 8.791,71 C5.312,73.231 3,77.125 3,81.565" id="Fill-85" fill="#EAA859"></path>
            <path d="M111.046,71 C109.745,76.165 107.699,81.033 105,85.465 L105,94.559 C110.424,94.559 115.363,90.937 116.984,85.759 C118.75,80.119 116.219,73.849 111.046,71" id="Fill-86" fill="#EAA859"></path>
            <path d="M104.677816,58.8940163 L78.3288162,58.8940163 L74.2148162,58.8940163 L59.2988162,48.0330163 L45.4598162,58.8940163 L12.6738162,58.8940163 L3.02081618,58.8940163 C3.62281618,35.5610163 18.9178162,14.3920163 40.8478162,6.42101627 C63.0928162,-1.66498373 88.6188162,5.14401627 103.996816,23.0880163 C112.524816,33.0400163 117.448816,45.7900163 117.785816,58.8940163 L104.677816,58.8940163 Z M116.512816,82.0500163 C116.512816,87.6380163 112.346816,92.2710163 106.956816,93.0040163 L106.956816,85.9290163 C109.284816,82.0380163 111.129816,77.8030163 112.402816,73.4520163 C114.975816,75.5310163 116.512816,78.6790163 116.512816,82.0500163 Z M106.875816,70.6700163 C106.710816,67.7130163 106.265816,64.7650163 105.534816,61.8940163 L111.474816,61.8940163 C111.031816,67.9590163 109.486816,73.9540163 106.956816,79.4830163 C106.956816,76.5500163 107.040816,73.6000163 106.875816,70.6700163 Z M103.956816,85.0910163 C103.956816,88.4400163 103.959816,91.7890163 103.956816,95.1370163 C103.950816,101.613016 102.654816,107.984016 99.8968162,113.860016 C93.8238162,126.795016 81.4178162,136.089016 67.2858162,138.245016 C52.5458162,140.492016 37.3958162,134.717016 27.8058162,123.331016 C23.3988162,118.097016 20.2608162,111.831016 18.7438162,105.157016 C17.6708162,100.438016 17.6748162,95.7010163 17.6748162,90.8970163 L17.6748162,81.3230163 C17.6748162,76.8210163 17.4628162,72.2390163 18.0338162,67.7640163 C18.2868162,65.7830163 18.6808162,63.8200163 19.2058162,61.8940163 L46.4968162,61.8940163 L59.3658162,51.7930163 L73.2388162,61.8940163 L102.425816,61.8940163 C104.483816,69.4350163 103.956816,77.3530163 103.956816,85.0910163 Z M83.4858162,142.033016 C82.1668162,152.604016 76.1518162,161.539016 68.1068162,168.266016 L63.5458162,160.597016 L63.5468162,160.597016 L62.4748162,158.796016 L76.3278162,141.737016 L83.5158162,141.737016 C83.5038162,141.835016 83.4968162,141.935016 83.4858162,142.033016 Z M85.9518162,145.483016 C86.2028162,144.246016 86.4068162,142.992016 86.5438162,141.737016 C92.5988162,141.737016 98.2198162,142.604016 103.357816,146.064016 C109.050816,149.899016 113.048816,155.998016 114.240816,162.764016 C115.087816,167.586016 114.624816,172.834016 114.624816,177.702016 L114.624816,205.096016 L114.624816,234.223016 L114.624816,249.749016 L114.624816,249.991016 L95.6328162,249.991016 L95.6328162,178.184016 L92.6328162,178.184016 L92.6328162,249.991016 L60.6768162,249.991016 L60.6768162,209.743016 C64.1818162,205.418016 67.3878162,200.829016 70.3258162,196.103016 C74.8578162,188.819016 78.9908162,180.929016 80.8888162,172.503016 C82.0558162,167.318016 81.7548162,162.030016 81.8038162,156.751016 C83.7578162,153.231016 85.1428162,149.425016 85.9518162,145.483016 Z M59.2528162,206.701016 C52.5398162,196.880016 46.3398162,185.961016 43.3808162,174.370016 C42.4228162,170.616016 42.1028162,166.932016 42.0968162,163.071016 C45.0818162,166.738016 48.6218162,169.841016 52.3208162,172.764016 L59.5028162,160.689016 C59.7088162,160.699016 59.9158162,160.706016 60.1208162,160.708016 L67.2918162,172.764016 C71.5318162,169.413016 75.5358162,165.804016 78.7738162,161.445016 C78.7548162,166.482016 78.3888162,171.143016 76.8128162,175.962016 C75.4038162,180.269016 73.4718162,184.398016 71.3158162,188.377016 C67.8318162,194.804016 63.7398162,200.930016 59.2528162,206.701016 Z M57.6768162,249.991016 L29.2258162,249.991016 L29.2258162,178.184016 L26.2258162,178.184016 L26.2258162,249.991016 L6.37181618,249.991016 L6.37181618,237.470016 L6.37181618,209.707016 L6.37181618,181.515016 C6.37181618,176.769016 6.34581618,172.023016 6.37181618,167.277016 C6.44381618,154.353016 16.3398162,143.139016 29.2948162,141.862016 C30.5508162,141.739016 31.8078162,141.737016 33.0688162,141.737016 C33.7348162,147.827016 35.7908162,153.733016 39.0838162,158.899016 C39.1048162,163.333016 38.9648162,167.727016 39.7968162,172.105016 C40.5858162,176.257016 41.9158162,180.297016 43.4968162,184.211016 C46.3098162,191.177016 49.9378162,197.817016 53.9628162,204.152016 C55.1558162,206.028016 56.3838162,207.882016 57.6768162,209.691016 L57.6768162,249.991016 Z M43.2838162,141.737016 C47.9028162,147.423016 52.5198162,153.110016 57.1378162,158.796016 L56.1988162,160.373016 L51.5048162,168.266016 C43.3648162,161.457016 37.3688162,152.431016 36.1038162,141.737016 L43.2838162,141.737016 Z M46.8728162,139.576016 C55.6448162,142.364016 65.2118162,142.447016 74.0308162,139.807016 C69.2888162,145.646016 64.5478162,151.484016 59.8068162,157.323016 C55.0368162,151.450016 50.2678162,145.577016 45.4988162,139.704016 L45.4988162,139.123016 C45.9518162,139.283016 46.4148162,139.429016 46.8728162,139.576016 Z M16.0438162,62.1360163 C14.4848162,68.4110163 14.6748162,74.7660163 14.6748162,81.1690163 C11.6538162,75.1830163 9.82081618,68.5820163 9.33081618,61.8940163 L16.0978162,61.8940163 C16.0768162,61.9740163 16.0638162,62.0560163 16.0438162,62.1360163 Z M14.6748162,93.0040163 C5.68081618,91.7800163 1.94481618,80.2900163 8.57381618,74.0330163 C9.99881618,78.6780163 12.0628162,83.1440163 14.6748162,87.2410163 L14.6748162,93.0040163 Z M120.805816,61.8940163 C120.805816,49.5280163 117.709816,37.6040163 110.859816,27.2190163 C103.913816,16.6910163 93.6898162,8.44901627 81.9048162,3.94501627 C69.7048162,-0.716983728 56.0568162,-1.26298373 43.5188162,2.39201627 C31.3738162,5.93401627 20.5058162,13.3620163 12.7348162,23.3360163 C4.84881618,33.4570163 0.350816181,45.9920163 0.0208161808,58.8190163 C-0.00618381916,59.8430163 0.000816180845,60.8690163 0.000816180845,61.8940163 L6.32881618,61.8940163 C6.53781618,64.9210163 7.00081618,67.9160163 7.70781618,70.8490163 C2.92381618,74.4580163 0.930816181,80.8940163 2.86481618,86.5720163 C4.61081618,91.6920163 9.30481618,95.4560163 14.6858162,96.0250163 C14.8588162,114.775016 26.2748162,130.875016 42.4988162,137.925016 L42.4988162,138.737016 C38.4288162,138.737016 34.3148162,138.557016 30.2488162,138.780016 C22.4168162,139.208016 15.0048162,142.963016 9.97981618,148.977016 C5.68281618,154.119016 3.40381618,160.612016 3.37181618,167.295016 C3.36381618,169.142016 3.37181618,170.989016 3.37181618,172.835016 L3.37181618,200.645016 L3.37181618,233.985016 L3.37181618,252.705016 L3.37181618,252.991016 L117.624816,252.991016 L117.624816,237.537016 L117.624816,204.785016 L117.624816,175.148016 L117.624816,167.863016 C117.624816,162.779016 116.531816,157.838016 114.040816,153.373016 C110.266816,146.606016 103.750816,141.555016 96.2428162,139.626016 C91.1668162,138.322016 85.7258162,138.737016 80.5238162,138.737016 L78.2718162,138.737016 L78.2718162,138.289016 C94.9518162,131.441016 106.770816,115.106016 106.946816,96.0250163 C112.458816,95.4420163 117.237816,91.5070163 118.882816,86.2150163 C120.714816,80.3220163 118.356816,73.7480163 113.216816,70.3400163 C113.855816,67.5690163 114.258816,64.7430163 114.455816,61.8940163 L120.805816,61.8940163 Z" id="Fill-87" fill="#000000"></path>
            <path d="M71.32,101 C71.32,107.081 66.241,112.161 60.16,112.161 C54.079,112.161 49,107.081 49,101 L71.32,101 Z" id="Fill-88" fill="#FFFFFF"></path>
            <path d="M51.116,102 C51.841,106.635 55.971,110.16 60.66,110.16 C65.347,110.16 69.478,106.635 70.204,102 L51.116,102 Z M60.66,113.16 C56.753,113.16 53.003,111.302 50.622,108.208 C48.512,105.465 48,102.368 48,99 L73.32,99 C73.32,102.37 72.81,105.462 70.697,108.208 C68.316,111.302 64.566,113.16 60.66,113.16 Z" id="Fill-89" fill="#000000"></path>
            <path d="M51.556,78.777 L48.556,78.777 C48.556,76.178 46.376,74 43.779,74 C41.18,74 39,76.178 39,78.777 L36,78.777 C36,74.544 39.547,71 43.779,71 C48.009,71 51.556,74.545 51.556,78.777" id="Fill-90" fill="#000000"></path>
            <path d="M85.555,78.777 L82.555,78.777 C82.555,76.178 80.375,74 77.778,74 C75.179,74 73,76.178 73,78.777 L70,78.777 C70,74.544 73.546,71 77.778,71 C82.008,71 85.555,74.545 85.555,78.777" id="Fill-91" fill="#000000"></path>
            <path d="M92.979,179.784 C85.8,179.784 82.462,170.501 87.98,165.921 C93.471,161.363 101.91,166.281 100.696,173.295 C100.054,176.999 96.739,179.784 92.979,179.784 Z M111.958,165.784 L106.417,162.188 L104.707,155.809 L98.113,156.15 L92.979,152 L87.845,156.15 L81.251,155.809 L79.541,162.188 L74,165.783 L76.372,171.95 L74,178.116 L79.541,181.711 L81.251,188.091 L87.845,187.749 L92.979,191.9 L98.113,187.749 L104.708,188.09 L106.417,181.711 L111.958,178.116 L109.586,171.95 L111.958,165.784 Z" id="Fill-92" fill="#FF5500"></path>
            <polygon id="Fill-93" fill="#FFAEE4" points="104.785 187.955 98.19 187.614 93.056 191.766 87.923 187.614 81.329 187.956 80 183 80 221.43 93.056 209.679 106.113 221.43 106.113 183"></polygon>
            <path d="M100.627334,171.754488 C100.627334,164.574488 91.3453341,161.236488 86.7653341,166.755488 C82.2063341,172.245488 87.1253341,180.685488 94.1383341,179.470488 C97.8423341,178.829488 100.627334,175.514488 100.627334,171.754488" id="Fill-94" fill="#DDA812"></path>
            <path d="M93.2356905,164.958982 C89.7916905,164.958982 86.9056905,167.843982 86.9056905,171.288982 C86.9056905,174.732982 89.7916905,177.618982 93.2356905,177.618982 C96.6806905,177.618982 99.5656905,174.732982 99.5656905,171.288982 C99.5656905,167.842982 96.6806905,164.958982 93.2356905,164.958982 M93.2356905,180.626982 C84.6596905,180.626982 80.7096905,169.540982 87.3006905,164.086982 C93.8686905,158.652982 103.97069,164.611982 102.41769,172.983982 C101.60669,177.353982 97.6816905,180.626982 93.2356905,180.626982" id="Fill-95" fill="#000000"></path>
            <path d="M109.957,177.453 L104.954,180.698 L103.41,186.46 L97.456,186.152 L92.819,189.9 L88.183,186.152 L82.229,186.46 L80.685,180.698 L75.683,177.453 L77.823,171.885 L75.683,166.316 L80.685,163.071 L82.229,157.309 L88.183,157.617 L92.819,153.868 L97.456,157.617 L103.41,157.309 L104.954,163.07 L109.957,166.316 L107.815,171.885 L109.957,177.453 Z M92.819,207.724 L81.268,218.121 L81.268,189.522 L87.187,189.216 L92.819,193.768 L98.451,189.216 L104.372,189.522 L104.372,218.121 L92.819,207.724 Z M113.64,165.12 L107.561,161.176 L105.686,154.18 L98.451,154.554 L92.819,150 L87.187,154.554 L79.954,154.18 L78.078,161.177 L72,165.12 L74.601,171.885 L72,178.649 L78.078,182.593 L78.26,183.268 L78.26,224.876 L92.819,211.771 L107.38,224.876 L107.38,183.268 L107.561,182.593 L113.64,178.649 L111.038,171.885 L113.64,165.12 Z" id="Fill-96" fill="#000000"></path>
        </g>
    </g>
</svg>