<?xml version="1.0" encoding="UTF-8"?>
<svg width="120px" height="254px" viewBox="0 0 120 254" version="1.1" xmlns="http://www.w3.org/2000/svg" xmlns:xlink="http://www.w3.org/1999/xlink">
    <!-- Generator: sketchtool 50.2 (55047) - http://www.bohemiancoding.com/sketch -->
    <title>66CA2E45-F41B-49BB-8B4A-B9DF05331877</title>
    <desc>Created with sketchtool.</desc>
    <defs></defs>
    <g id="Symbols" stroke="none" stroke-width="1" fill="none" fill-rule="evenodd">
        <g id="fawzia">
            <path d="M43.1504,144.1238 C42.4754,141.8618 43.2574,139.4738 43.2084,137.1768 C43.1534,134.6848 41.8134,133.0018 39.8094,131.6478 C37.8654,130.3328 35.6584,129.4908 33.6154,128.3528 C31.4074,127.1248 29.3694,125.6028 27.5064,123.8988 C19.5324,116.6028 15.1454,106.6728 13.2954,96.1708 C9.5994,75.2008 12.4224,50.0228 27.7564,33.9728 C42.0624,18.9988 67.2464,13.9158 84.4654,26.8168 C102.2024,40.1068 108.6924,65.3558 106.7924,86.5278 C105.8044,97.5448 102.4454,108.5528 95.9684,117.6128 C92.7604,122.1008 88.7884,126.0428 84.2144,129.1328 C82.1294,130.5418 79.9554,131.6348 77.6934,132.7098 C75.8024,133.6098 74.8594,134.8088 75.0364,136.9718 C75.2484,139.5738 76.4934,142.2658 75.5844,144.8638 L59.5404,153.9238 L43.1504,144.1238 Z M117.3724,164.5948 C117.1464,143.3758 117.2914,122.1548 117.1294,100.9358 C117.0484,90.3068 117.0444,79.6648 116.7014,69.0398 C116.3774,59.0138 115.7174,49.1708 112.1244,39.7028 C106.3404,24.4608 94.3824,11.6818 79.0394,5.8648 C62.4784,-0.4142 43.4654,2.0748 28.7594,11.8128 C15.0144,20.9158 5.2114,35.9198 3.1384,52.3498 C2.8404,54.7078 2.7004,57.0878 2.7194,59.4658 C2.7174,59.2258 2.7184,59.0908 2.7184,59.0908 C2.5014,80.0188 1.7204,100.9358 1.4074,121.8608 C1.2524,132.2068 1.1504,142.5618 1.3624,152.9078 C1.4664,157.9888 1.4774,163.1338 2.2064,168.1718 C2.8894,172.8878 4.1494,177.5168 5.8974,181.9478 C11.7604,196.8128 23.2184,209.8588 37.9744,216.3248 C53.9754,223.3368 72.5494,221.3598 87.1014,211.8558 C101.1554,202.6788 111.0824,187.7008 115.6924,171.7088 C116.3684,169.3668 116.9314,166.9918 117.3724,164.5948 Z" id="Fill-107" fill="#DDA812"></path>
            <path d="M43.6968,144.5291 C44.5918,145.1891 45.4998,145.8421 46.4338,146.4791 C45.4998,145.8421 44.5928,145.1881 43.6968,144.5291" id="Fill-109" fill="#DDA812"></path>
            <path d="M43.6968,144.5291 C43.5138,144.3941 43.3318,144.2591 43.1508,144.1241 C43.1528,144.1301 43.1538,144.1371 43.1558,144.1431 C43.3308,144.2751 43.5198,144.3991 43.6968,144.5291" id="Fill-111" fill="#DDA812"></path>
            <path d="M93.5771,252.325 L93.5771,228.381 L117.3721,228.381 L117.3721,164.595 C113.5511,185.37 101.6721,206.307 82.0331,215.685 C61.1911,225.638 36.0521,219.396 20.1121,203.325 C10.4421,193.575 4.1871,180.565 1.5971,167.148 L1.5971,228.381 L25.5411,228.381 L25.5411,252.325 L117.3721,252.325 L93.5771,252.325 Z" id="Fill-113" fill="#FF5500"></path>
            <path d="M14.542,65.7556 C14.353,73.2736 14.485,80.7946 14.523,88.3136 C14.553,94.2866 15.326,100.0546 17.461,105.6666 C21.574,116.4726 29.834,125.5966 40.278,130.5966 C51.276,135.8616 64.263,136.3996 75.628,131.9536 C86.227,127.8066 95.025,119.4806 99.988,109.2646 C102.893,103.2856 104.311,96.8426 104.468,90.2126 C104.66,82.0946 104.632,73.8736 104.427,65.7556 C76.254,52.4086 42.715,52.4086 14.542,65.7556 M59.484,138.0496 C47.502,138.0496 35.736,133.3396 26.933,125.2356 C16.957,116.0536 11.693,103.2106 11.518,89.7376 C11.462,85.4506 11.559,81.1626 11.523,76.8756 C11.488,72.5226 11.304,68.1596 11.656,63.8156 C34.536,52.7516 61.105,49.8356 85.794,55.9556 C93.225,57.7976 100.424,60.4836 107.313,63.8156 C107.631,67.7296 107.451,71.6596 107.441,75.5806 C107.431,79.4636 107.449,83.3466 107.445,87.2306 C107.439,93.4376 106.879,99.4256 104.878,105.3406 C100.961,116.9176 92.663,126.8006 81.839,132.5086 C74.978,136.1266 67.242,138.0496 59.484,138.0496" id="Fill-115" fill="#000000"></path>
            <path d="M105.8877,64.7918 C76.8707,50.7468 42.0987,50.7468 13.0817,64.7918 C12.7067,70.4688 13.0297,76.2458 13.0297,81.9348 C13.0297,87.4838 12.8517,93.0838 13.8157,98.5738 C15.5667,108.5558 20.8947,117.8518 28.4127,124.6108 C32.5237,128.3068 37.2907,131.2738 42.4327,133.3058 C42.4327,136.8958 42.1137,140.6658 43.1557,144.1438 C48.0107,147.7798 53.4517,151.0798 59.5397,153.9238 C65.4577,151.7008 70.7857,148.5918 75.5837,144.8648 C76.8767,141.1718 76.5367,137.1568 76.5367,133.3058 C85.2687,129.8558 92.8437,123.6828 98.0817,115.9008 C100.7227,111.9778 102.7817,107.6448 104.0937,103.0978 C105.7647,97.3068 106.0407,91.2368 106.0327,85.2438 C106.0277,81.9338 105.9327,78.6238 105.9407,75.3128 C105.9497,71.8068 106.1187,68.2948 105.8877,64.7918" id="Fill-117" fill="#8C6150"></path>
            <path d="M116.8267,112.0168 C116.8267,112.0168 103.2637,151.6498 74.0247,159.7038 L74.2897,160.6678 C77.8217,161.5348 82.1637,162.3478 87.4897,163.0068 C100.4737,155.9188 110.2077,144.0148 116.9957,131.0678 L116.8267,112.0168 Z" id="Fill-119" fill="#FFAEE4"></path>
            <path d="M59.4844,109.0149 C52.2534,109.0149 46.3704,103.1319 46.3704,95.9009 L49.3704,95.9009 C49.3704,108.9149 69.5984,108.9389 69.5984,95.9009 L72.5984,95.9009 C72.5984,103.1319 66.7154,109.0149 59.4844,109.0149" id="Fill-121" fill="#000000"></path>
            <path d="M42.6855,63.9519 C32.2325,63.9519 32.4295,80.0169 42.6855,80.0169 C52.9055,80.0169 53.1925,63.9519 42.6855,63.9519" id="Fill-123" fill="#000000"></path>
            <path d="M78.3691,63.9519 C67.9161,63.9519 68.1131,80.0169 78.3691,80.0169 C88.5891,80.0169 88.8761,63.9519 78.3691,63.9519" id="Fill-125" fill="#000000"></path>
            <path d="M78.3691,67.8303 C74.6961,67.8303 74.6951,73.6133 78.3691,73.6133 C82.0011,73.6133 82.1541,67.8303 78.3691,67.8303" id="Fill-127" fill="#FFFFFF"></path>
            <path d="M42.6855,67.8303 C39.0125,67.8303 39.0115,73.6133 42.6855,73.6133 C46.3175,73.6133 46.4705,67.8303 42.6855,67.8303" id="Fill-129" fill="#FFFFFF"></path>
            <polygon id="Fill-131" fill="#8C6150" points="1.597 252.325 25.541 252.325 25.541 228.381 1.597 228.381"></polygon>
            <polygon id="Fill-133" fill="#8C6150" points="93.577 252.325 117.521 252.325 117.521 228.381 93.577 228.381"></polygon>
            <path d="M117.1948,148.825 L116.9548,148.679 C109.9758,160.148 99.8158,163.932 99.7138,163.969 L99.7618,164.105 C104.0608,164.362 108.8098,164.528 114.0508,164.577 C115.1318,163.659 116.2338,162.637 117.3378,161.502 L117.1948,148.825 Z" id="Fill-134" fill="#FF5500"></path>
            <path d="M109.9341,186.427 C92.3241,185.905 74.7691,181.987 58.8561,174.358 C44.0801,167.274 30.8351,157.16 19.7271,145.142 C13.0281,137.893 7.0231,129.954 2.0721,121.408 L1.9221,135.798 C20.1991,161.471 46.6581,181.07 77.1571,189.496 C86.4351,192.059 95.9911,193.597 105.5981,194.162 C107.2501,191.572 108.6871,188.965 109.9341,186.427" id="Fill-135" fill="#9FE2A2"></path>
            <path d="M29.0078,182.2278 C14.7208,170.6828 5.2048,157.7348 1.7478,152.6598 L1.6118,165.7818 C22.8268,192.2258 53.8668,213.3398 88.9808,211.7198 C92.9098,209.0508 96.3208,205.9278 99.2808,202.5828 C75.0008,207.1438 51.3838,200.3108 29.0078,182.2278" id="Fill-136" fill="#FF5500"></path>
            <path d="M1.5972,164.595 L1.5972,167.148 L1.6392,163.076 C1.6132,163.579 1.5972,164.085 1.5972,164.595" id="Fill-137" fill="#FF5500"></path>
            <path d="M3.0972,167.1638 L0.0972,167.1478 C0.0972,165.7648 0.0672,164.3758 0.1422,162.9948 L3.1392,163.0918 L3.0972,167.1638 Z" id="Fill-138" fill="#000000"></path>
            <path d="M59.4849,54.1921 C76.1169,54.1921 91.8589,58.0011 105.8879,64.7921 C105.1069,47.0421 93.3679,30.8011 77.0579,23.9591 C59.8399,16.7341 39.3999,21.2701 26.3829,34.5191 C18.4719,42.5691 13.5789,53.4961 13.0819,64.7921 C27.1109,58.0011 42.8529,54.1921 59.4849,54.1921" id="Fill-139" fill="#9FE2A2"></path>
            <path d="M95.078,250.825 L116.021,250.825 L116.021,229.881 L95.078,229.881 L95.078,250.825 Z M92.077,250.825 L27.041,250.825 L27.041,211.871 C44.964,224.768 70.937,225.443 89.369,213.203 L89.473,213.198 C90.361,212.598 91.224,211.967 92.077,211.319 L92.077,250.825 Z M13.665,193.07 C9.383,186.304 6.156,178.784 4.066,171.057 C19.168,188.56 38.413,203.433 60.888,209.879 C68.247,211.99 75.876,213.147 83.532,213.283 C58.419,226.477 28.339,216.253 13.665,193.07 Z M24.041,226.881 L3.097,226.881 L3.097,178.034 C7.366,190.007 14.181,201.362 24.041,209.547 L24.041,226.881 Z M3.097,250.825 L24.041,250.825 L24.041,229.881 L3.097,229.881 L3.097,250.825 Z M32.816,137.23 C39.543,143.879 47.194,149.387 55.733,153.751 L55.668,153.775 C62.393,156.914 69.261,159.706 76.441,161.625 C83.714,163.569 91.166,164.81 98.661,165.487 L98.68,165.543 C99.404,165.587 100.127,165.625 100.851,165.665 C105.595,166.025 110.483,166.186 115.529,166.127 C114.081,172.593 111.851,178.908 109.004,184.888 C65.283,183.29 25.625,158.729 3.576,121.007 L3.983,81.686 C7.448,97.906 15.25,119.868 32.816,137.23 Z M4.218,59.091 C4.218,36.844 18.768,16.091 39.277,7.77 C60.522,-0.849 85.389,5.631 100.604,22.544 C105.326,27.793 109.036,33.942 111.459,40.574 C114.332,48.438 114.751,56.39 114.751,64.678 C113.271,74.313 110.564,83.867 107.35,93.052 C107.876,84.456 107.44,75.815 107.44,67.21 L107.497,67.237 C107.491,67.098 107.404,64.725 107.386,64.725 L107.386,64.726 C106.583,46.479 94.599,29.8 77.864,22.683 C60.264,15.2 39.094,19.457 25.56,32.915 C17.14,41.287 12.108,52.817 11.586,64.671 C11.513,65.521 11.51,66.384 11.473,67.237 L11.529,67.21 C11.529,72.765 11.527,78.321 11.527,83.877 C11.528,89.352 11.44,94.798 12.597,100.183 C10.064,93.665 8.107,86.926 6.7,80.077 C5.288,73.202 4.215,66.123 4.218,59.091 Z M43.933,135.458 C53.939,138.895 65.03,138.894 75.037,135.458 C75.037,138.303 75.188,141.152 74.32,143.907 C69.825,147.368 64.883,150.234 59.591,152.289 C54.271,149.761 49.183,146.729 44.453,143.217 C43.783,140.68 43.933,138.055 43.933,135.458 Z M90.706,126.466 C87,131.719 82.773,136.626 77.96,140.895 C78.154,138.717 78.037,136.493 78.037,134.308 C82.673,132.356 86.944,129.7 90.706,126.466 Z M14.766,62.344 C14.844,61.666 14.925,60.988 15.01,60.31 C17.318,44.387 28.576,30.496 43.604,24.8 C59.811,18.657 78.862,22.761 91.172,34.943 C98.524,42.218 103.17,52.058 104.201,62.343 C76.066,49.534 42.9,49.534 14.766,62.344 Z M14.529,90.094 C14.529,81.991 14.343,73.866 14.542,65.765 C42.727,52.411 76.243,52.412 104.428,65.765 C104.584,72.209 104.447,78.655 104.44,85.099 C104.435,91.306 104.306,97.306 102.459,103.291 C99.385,113.254 92.813,121.919 84.114,127.651 C66.263,139.412 41.727,136.613 26.989,121.102 C19.107,112.806 14.529,101.55 14.529,90.094 Z M40.979,140.494 C34.672,135.299 29.437,129.521 25.109,123.5 C29.572,128.09 34.947,131.784 40.933,134.306 C40.933,136.362 40.839,138.442 40.979,140.494 Z M114.905,78.477 L115.28,111.885 C113.913,115.636 100.703,150.011 74.591,157.954 C70.699,156.81 66.937,155.498 63.349,153.979 C68.172,151.823 72.691,149.025 76.853,145.778 L76.879,145.703 C92.516,133.347 102.518,115.243 109.263,96.8 C111.459,90.796 113.341,84.676 114.905,78.477 Z M112.987,163.062 C110.339,163.029 107.69,162.965 105.043,162.861 C108.089,160.946 112.121,157.822 115.743,153.1 C115.772,155.698 115.801,158.296 115.831,160.895 C115.08,161.646 114.301,162.373 113.504,163.068 C113.333,163.066 113.159,163.065 112.987,163.062 Z M115.491,130.705 C109.05,142.88 99.977,154.08 87.918,161.036 C85.097,160.548 82.338,159.975 79.643,159.316 C96.486,152.165 108.007,135.635 115.366,119.52 L115.491,130.705 Z M92.472,161.744 C102.075,155.418 109.694,146.507 115.559,136.689 L115.685,147.882 C111.952,154.052 106.098,159.759 99.322,162.511 C97.003,162.308 94.719,162.053 92.472,161.744 Z M95.077,208.878 C98.066,206.257 100.676,203.27 103.303,200.301 L103.064,200.345 C104.212,198.872 105.32,197.33 106.382,195.711 L106.389,195.711 C108.593,192.256 110.502,188.672 112.308,184.997 L112.274,184.996 C113.633,182.055 114.823,179.043 115.872,175.979 L115.872,226.881 L95.077,226.881 L95.077,208.878 Z M3.117,165.26 C3.145,162.602 3.172,159.944 3.2,157.286 C19.141,178.832 41.398,197.782 68.134,203.643 C76.982,205.583 86.145,205.953 95.125,204.766 C93.018,206.809 90.797,208.641 88.486,210.24 C62.904,211.325 38.534,199.578 19.793,182.817 C13.771,177.43 8.196,171.543 3.117,165.26 Z M19.654,158.468 C35.808,173.77 63.263,192.424 102.924,195.473 C101.523,197.511 100.056,199.417 98.522,201.192 C83.579,203.905 68.024,201.933 54.099,195.935 C41.103,190.338 29.572,181.728 19.613,171.748 C13.61,165.731 8.07,159.205 3.252,152.198 L3.376,140.294 C8.29,146.77 13.747,152.872 19.654,158.468 Z M106.252,190.171 C105.784,190.993 105.293,191.804 104.794,192.609 C73.229,190.553 43.39,177.231 20.649,155.271 C14.322,149.16 8.553,142.473 3.427,135.324 L3.518,126.652 C20.721,153.497 47.19,174.511 78.048,183.173 C87.65,185.868 97.575,187.379 107.533,187.837 C107.117,188.627 106.689,189.405 106.252,190.171 Z M118.872,226.881 C118.864,194.564 118.801,162.256 118.485,129.94 C118.398,121.036 118.328,112.133 118.249,103.229 L118.185,103.416 L117.751,64.775 L117.737,64.774 C117.754,57.775 117.603,50.954 115.744,44.156 C114.093,38.115 111.448,32.359 107.968,27.156 C101.52,17.513 92.237,9.755 81.521,5.285 C69.868,0.426 56.702,-0.507 44.516,2.842 C33.218,5.946 22.956,12.547 15.339,21.435 C6.41,31.854 1.222,45.327 1.218,59.075 L0.629,115.927 L0.628,115.926 L0.417,136.27 L0.418,136.271 L0.298,147.866 L0.297,147.865 L0.106,166.302 L0.107,166.303 C-0.128,189.013 0.097,211.734 0.097,234.445 L0.097,253.825 L93.272,253.825 L119.021,253.825 L119.021,226.881 L118.872,226.881 Z" id="Fill-140" fill="#000000"></path>
        </g>
    </g>
</svg>