<svg xmlns="http://www.w3.org/2000/svg" width="137" height="309" viewBox="0 0 137 309">
    <g fill="none" fill-rule="evenodd">
        <path fill="#FFAEE4" d="M31.752 118.049c0 8.215-6.66 14.875-14.876 14.875S2 126.264 2 118.048s6.66-14.876 14.876-14.876 14.876 6.66 14.876 14.877"/>
        <path stroke="#000" stroke-width="4" d="M31.752 118.049c0 8.215-6.66 14.875-14.876 14.875S2 126.264 2 118.048s6.66-14.876 14.876-14.876 14.876 6.66 14.876 14.877z"/>
        <path fill="#FFAEE4" d="M132.76 118.049c0 8.215-6.66 14.875-14.876 14.875s-14.876-6.66-14.876-14.876 6.66-14.876 14.876-14.876 14.876 6.66 14.876 14.877"/>
        <path stroke="#000" stroke-width="4" d="M132.76 118.049c0 8.215-6.66 14.875-14.876 14.875s-14.876-6.66-14.876-14.876 6.66-14.876 14.876-14.876 14.876 6.66 14.876 14.877z"/>
        <path fill="#DDA812" d="M134.288 306.212H2.471v-99.886c0-17.635 14.296-31.93 31.931-31.93h67.955c17.635 0 31.931 14.295 31.931 31.93v99.886z"/>
        <path stroke="#000" stroke-width="4" d="M134.288 306.212H2.471v-99.886c0-17.635 14.296-31.93 31.931-31.93h67.955c17.635 0 31.931 14.295 31.931 31.93v99.886zM29.04 219.356v86.856M107.72 219.356v86.856"/>
        <path fill="#FFAEE4" d="M66.847 196.876c-10.722 0-19.415-8.692-19.415-19.415v-16.35h38.83v16.35c0 10.723-8.692 19.415-19.415 19.415"/>
        <path stroke="#000" stroke-width="4" d="M66.847 196.876c-10.722 0-19.415-8.692-19.415-19.415v-16.35h38.83v16.35c0 10.723-8.692 19.415-19.415 19.415z"/>
        <path fill="#FFF" d="M111.534 46.087c0 24.35-19.739 44.088-44.088 44.088-24.35 0-44.087-19.739-44.087-44.087 0-24.35 19.737-44.089 44.087-44.089 24.35 0 44.088 19.74 44.088 44.088"/>
        <path stroke="#000" stroke-width="4" d="M111.534 46.087c0 24.35-19.739 44.088-44.088 44.088-24.35 0-44.087-19.739-44.087-44.087 0-24.35 19.737-44.089 44.087-44.089 24.35 0 44.088 19.74 44.088 44.088z"/>
        <path fill="#FFAEE4" d="M120.25 121.502c0 29.212-23.68 52.893-52.892 52.893-29.212 0-52.893-23.68-52.893-52.893V95.056c0-29.212 23.681-52.892 52.893-52.892 29.211 0 52.892 23.68 52.892 52.892v26.446z"/>
        <path stroke="#000" stroke-width="4" d="M120.25 121.502c0 29.212-23.68 52.893-52.892 52.893-29.212 0-52.893-23.68-52.893-52.893V95.056c0-29.212 23.681-52.892 52.893-52.892 29.211 0 52.892 23.68 52.892 52.892v26.446z"/>
        <path fill="#FFF" d="M122.699 83.688c0-30.75-24.93-55.68-55.681-55.68-30.752 0-55.681 24.93-55.681 55.68L11.47 109h11.889l-.001-25.312h36.735l7.354-7.926 7.507 7.926h35.59l.99 25.312h11.89l-.725-25.312z"/>
        <path stroke="#000" stroke-width="4" d="M122.699 83.688c0-30.75-24.93-55.68-55.681-55.68-30.752 0-55.681 24.93-55.681 55.68L11.47 109h11.889l-.001-25.312h36.735l7.354-7.926 7.507 7.926h35.59l.99 25.312h11.89l-.725-25.312zM80.581 128.114c0 7.303-5.92 13.223-13.223 13.223-7.303 0-13.223-5.92-13.223-13.223"/>
        <path fill="#9FE2A2" d="M54.135 101.668a6.611 6.611 0 1 1-13.223-.001 6.611 6.611 0 0 1 13.223 0"/>
        <path stroke="#000" stroke-width="4" d="M54.135 101.668a6.611 6.611 0 1 1-13.223-.001 6.611 6.611 0 0 1 13.223 0z"/>
        <path fill="#9FE2A2" d="M93.804 101.668a6.611 6.611 0 1 1-13.222 0 6.611 6.611 0 0 1 13.222 0"/>
        <path stroke="#000" stroke-width="4" d="M93.804 101.668a6.611 6.611 0 1 1-13.222 0 6.611 6.611 0 0 1 13.222 0zM34.832 97.656l-6.607-2.313M34.682 102.982l-6.307 3.036M100.225 97.656l6.607-2.313M100.375 102.982l6.307 3.036"/>
        <path fill="#F50" d="M15.802 129a6 6 0 1 1-12.002-.002 6 6 0 0 1 12.002.002"/>
        <path stroke="#000" stroke-width="4" d="M15.802 129a6 6 0 1 1-12.002-.002 6 6 0 0 1 12.002.002z"/>
        <path fill="#F50" d="M130.801 129a6 6 0 1 1-12 0 6 6 0 0 1 12 0"/>
        <path stroke="#000" stroke-width="4" d="M130.801 129a6 6 0 1 1-12 0 6 6 0 0 1 12 0z"/>
        <path fill="#F50" d="M68.016 226.132c0-12.749-19.575-11.59-19.575 0 0 11.589 19.337 27.996 19.703 27.944.366-.052 19.703-16.355 19.703-27.944 0-11.59-19.575-12.749-19.575 0h-.257z"/>
        <path stroke="#000" stroke-width="4" d="M68.016 226.132c0-12.749-19.575-11.59-19.575 0 0 11.589 19.337 27.996 19.703 27.944.366-.052 19.703-16.355 19.703-27.944 0-11.59-19.575-12.749-19.575 0h-.257z"/>
    </g>
</svg>
