<svg id="Layer_1" data-name="Layer 1" xmlns="http://www.w3.org/2000/svg" viewBox="0 0 300 300"><defs><style>.cls-1{fill:#dda812;}.cls-1,.cls-2,.cls-3,.cls-4,.cls-5,.cls-6,.cls-7,.cls-8{stroke:#000;stroke-miterlimit:10;stroke-width:3px;}.cls-2{fill:#8c6150;}.cls-3{fill:#f50;}.cls-4{fill:none;}.cls-5{fill:#ffaee4;}.cls-7{fill:#fff;}.cls-8{fill:#9fe2a2;}</style></defs><title>portland_characters</title><path class="cls-1" d="M206.69,178.49V81.77a56.77,56.77,0,1,0-113.53,0v96.72Z"/><path class="cls-2" d="M196.38,112.77a46.46,46.46,0,0,1-92.91,0V89.54a46.46,46.46,0,0,1,92.91,0Z"/><path class="cls-3" d="M120.08,159.23h59.69a28,28,0,0,1,28,28V275a0,0,0,0,1,0,0H92a0,0,0,0,1,0,0V187.27A28,28,0,0,1,120.08,159.23Z"/><line class="cls-4" x1="115.98" y1="198.71" x2="115.98" y2="275"/><line class="cls-4" x1="184.02" y1="198.71" x2="184.02" y2="275"/><path class="cls-2" d="M132.87,147.56H167a0,0,0,0,1,0,0v14.36A17.05,17.05,0,0,1,149.93,179h0a17.05,17.05,0,0,1-17.05-17.05V147.56A0,0,0,0,1,132.87,147.56Z"/><path class="cls-1" d="M206.69,87.47s-10.31,71.76-56.76,89.15c0,0,7,10.65,57.88,10.65l-1.12-99.8"/><path class="cls-5" d="M207.27,138.69l-2-.61c-.12.36-11.62,36.25-40.85,44.3l.26,1a114,114,0,0,0,13.2,2.34c9.4-5.13,17.84-13.22,24.8-23.9,1.83-2.8,3.39-5.52,4.71-8Z"/><path class="cls-1" d="M93.16,81.77S92,189.82,207.81,187.27c0,0-9.36,55.84-57.88,55.84S92,189.82,92,189.82Z"/><path class="cls-2" d="M196.38,112.77a46.46,46.46,0,0,1-92.91,0V89.54a46.46,46.46,0,0,1,92.91,0Z"/><path class="cls-4" d="M161.54,118.58a11.62,11.62,0,0,1-23.23,0"/><path class="cls-3" d="M149.93,76.87a106.22,106.22,0,0,1,46.4,10.6,46.45,46.45,0,0,0-92.81,0A106.23,106.23,0,0,1,149.93,76.87Z"/><circle class="cls-6" cx="133.13" cy="94.66" r="6.53"/><circle class="cls-6" cx="168.81" cy="94.66" r="6.53"/><circle class="cls-7" cx="168.81" cy="93.4" r="4.39"/><circle class="cls-7" cx="133.13" cy="93.4" r="4.39"/><rect class="cls-2" x="92.04" y="251.06" width="23.94" height="23.94"/><rect class="cls-2" x="184.02" y="251.06" width="23.94" height="23.94"/><path class="cls-3" d="M207.64,171.5l-.24-.15a37.7,37.7,0,0,1-17.25,15.29l0,.14c4.3.26,9.05.42,14.29.47q1.62-1.38,3.29-3.07Z"/><path class="cls-8" d="M200.38,209.1c-32.14-.95-60.24-12.57-83.58-34.58a138.24,138.24,0,0,1-24.29-30.44l-.15,14.39a148.51,148.51,0,0,0,18.77,21.58A133.32,133.32,0,0,0,196,216.84,80.93,80.93,0,0,0,200.38,209.1Z"/><path class="cls-3" d="M119.45,204.9a143.53,143.53,0,0,1-27.26-29.57l-.14,13.13a150.78,150.78,0,0,0,22.23,22.45c19.25,15.61,40.09,23.58,61.25,23.58,1.3,0,2.59,0,3.89-.1a55,55,0,0,0,10.3-9.13C165.44,229.82,141.82,223,119.45,204.9Z"/></svg>