<?xml version="1.0" encoding="UTF-8"?>
<svg width="175px" height="175px" viewBox="0 0 175 175" version="1.1" xmlns="http://www.w3.org/2000/svg" xmlns:xlink="http://www.w3.org/1999/xlink">
    <!-- Generator: sketchtool 50.2 (55047) - http://www.bohemiancoding.com/sketch -->
    <title>3DA9E0B5-CDE0-42D1-ADBE-A350A9A5008C</title>
    <desc>Created with sketchtool.</desc>
    <defs>
        <circle id="path-1" cx="87.5" cy="87.5" r="87.5"></circle>
    </defs>
    <g id="Symbols" stroke="none" stroke-width="1" fill="none" fill-rule="evenodd">
        <g id="characters" transform="translate(-83.000000, -550.000000)">
            <g id="PLAYER-/-fawzia_lose" transform="translate(83.000000, 550.000000)">
                <mask id="mask-2" fill="white">
                    <use xlink:href="#path-1"></use>
                </mask>
                <use id="Mask" fill="#FFFFFF" xlink:href="#path-1"></use>
                <g id="fawzia_lose" mask="url(#mask-2)">
                    <g transform="translate(46.000000, 10.000000)">
                        <path d="M1.93543,41.5553852 C1.93543,41.5414508 1.93473,41.5275164 1.93473,41.5142787 C1.93473,41.5275164 1.93543,41.5421475 1.93543,41.5553852 M1.95013,42.0340328 C1.94943,42.0019836 1.94873,41.9713279 1.94733,41.9406721 C1.94873,41.9706311 1.94943,42.0026803 1.95013,42.0340328 M1.97183,42.5565738 C1.97113,42.5349754 1.97043,42.5161639 1.96903,42.4952623 C1.97043,42.5161639 1.97113,42.5349754 1.97183,42.5565738 M1.92703,41.1798525 C1.92703,41.143623 1.92633,41.1171475 1.92633,41.0850984 C1.92633,41.1164508 1.92703,41.1450164 1.92703,41.1798525 M81.39173,44.6878443 C81.38613,44.7261639 81.37423,44.8021066 81.35883,44.8996475 C81.37423,44.8021066 81.38613,44.7261639 81.39173,44.6878443 M82.18133,114.186492 C81.98953,97.1593197 81.81803,80.1307541 81.62133,63.103582 C81.57303,58.8953852 81.52333,54.6871885 81.47083,50.4789918 C81.42743,46.9577623 81.47993,43.4225984 81.13553,39.9139098 C80.58673,34.3255082 79.18183,28.8005082 76.81513,23.6963279 C72.20983,13.7652623 63.87843,5.93759836 53.25943,2.79329508 C41.84173,-0.587196721 29.38803,1.36222951 19.55233,8.03542623 C9.97143,14.5358361 3.36693,25.0598115 2.13773,36.5787049 C1.98303,38.028582 1.91233,39.4868197 1.92423,40.9450574 C1.92283,40.7757541 1.92353,40.6803033 1.92353,40.6803033 C1.75693,56.690959 1.58963,72.700918 1.42303,88.7122705 C1.34743,95.960959 0.58863,103.214525 0.90993,110.464607 C1.20743,117.18309 2.82863,123.505139 5.91493,129.489279 C10.92413,139.201574 19.22613,147.480016 29.67783,151.184484 C40.51453,155.023418 53.04663,153.365221 62.50783,146.847393 C72.10763,140.233418 78.25853,129.421697 81.21953,118.365426 C81.58913,116.984525 81.91113,115.590385 82.18133,114.186492" id="Fill-175" fill="#DDA812"></path>
                        <path d="M9.14151,62.2808238 L9.14151,47.7193484 C9.14151,44.8356189 9.26961,41.9860287 9.89121,39.1545533 C10.81801,34.9359057 12.60651,30.9179139 15.11531,27.3966844 C20.16371,20.3110287 28.02121,15.4409467 36.65011,14.1129959 C45.48061,12.7536926 54.64501,15.1107008 61.68351,20.5925041 C68.57991,25.9635287 73.09421,34.0315615 74.00211,42.7043484 C74.24431,45.0181598 74.17921,47.3521762 74.17921,49.6750451 L74.17921,58.8668893 C74.17921,61.225291 74.23871,63.5920533 73.97341,65.9407008 C73.47851,70.3168074 72.07501,74.5772582 69.86861,78.3945943 C65.53771,85.8892254 58.21081,91.4685697 49.79541,93.6256189 C41.11751,95.8509467 31.69761,94.3690205 24.14951,89.5588566 C16.81981,84.8880369 11.56351,77.3258238 9.80931,68.8355779 C9.36341,66.6806189 9.14151,64.4810697 9.14151,62.2808238" id="Fill-177" fill="#DDA812"></path>
                        <path d="M65.52504,168.342988 L65.52504,151.661389 L82.18154,151.661389 L82.18154,114.18684 C81.40524,118.607537 79.87714,122.973193 78.06624,127.067127 C74.39614,135.366471 68.80874,143.092414 60.94704,147.894217 C51.08334,153.92016 38.08714,154.704668 27.36104,150.536184 C18.31354,147.019832 11.41014,139.841512 6.85524,131.446717 C4.28834,126.71598 2.23944,121.517045 1.18874,116.225447 C1.17194,116.139053 1.15514,116.05266 1.13904,115.96557 L1.13904,151.661389 L17.89984,151.661389 L17.89984,168.342988 L82.18154,168.342988 L65.52504,168.342988 Z" id="Fill-179" fill="#FF5500"></path>
                        <path d="M74.179,62.2808238 C74.179,71.0797172 70.5005,79.6270943 64.1046,85.7011107 C57.6786,91.8036926 48.8817,95.0469303 40.0127,94.6059057 C31.2242,94.1697582 22.8613,90.100209 17.0954,83.4890205 C11.8454,77.4707418 9.1448,69.7991434 9.1413,61.8613975 C9.1392,56.7579139 9.1392,51.6544303 9.1413,46.5516434 C9.1448,38.6431598 11.8034,31.0036107 17.0114,24.985332 C22.7801,18.3184057 31.1808,14.2105369 40.0127,13.7716025 C48.8817,13.3312746 57.6786,16.5738156 64.1046,22.6763975 C70.5194,28.7685287 74.144,37.2845533 74.179,46.0973811 C74.1986,50.9507418 74.179,55.8047992 74.179,60.6588566 L74.179,62.2808238 Z" id="Fill-181" fill="#8C6150"></path>
                        <path d="M41.66008,14.7758566 C33.00878,14.7758566 24.61788,18.4155287 18.70358,24.6957746 C13.19178,30.549627 10.21258,38.2860205 10.19158,46.2878648 C10.17898,51.2826598 10.19158,56.2774549 10.19158,61.2729467 C10.19158,68.6052418 12.22858,75.5975369 16.78348,81.442332 C22.00898,88.1475779 29.89378,92.5543402 38.37988,93.4329057 C47.05358,94.3316762 55.84838,91.544791 62.40038,85.8184385 C68.87608,80.1582746 72.81148,71.9564713 73.11038,63.3791352 C73.28118,58.4588893 73.12928,53.512168 73.12928,48.589832 C73.12928,46.2161025 73.14118,43.8563074 72.79118,41.4992992 C72.16328,37.2729877 70.65198,33.1915943 68.38048,29.56725 C63.87178,22.3736025 56.46718,17.1809385 48.12458,15.4405287 C46.00078,14.9967172 43.83078,14.7758566 41.66008,14.7758566 M41.66008,95.692373 C32.58808,95.692373 23.77578,91.9419221 17.48558,85.4394221 C11.45858,79.2093402 8.11678,70.8417172 8.09158,62.2051598 C8.07688,57.1239713 8.09158,52.0420861 8.09158,46.9608975 C8.09158,39.0900369 10.41698,31.5459385 15.37298,25.3409385 C20.96528,18.3388893 29.30158,13.7600369 38.24968,12.8570861 C47.34618,11.9395041 56.56938,14.8162664 63.50428,20.7467582 C70.30758,26.5657746 74.57758,34.9981926 75.15858,43.914832 C75.50368,49.2231516 75.22928,54.6164713 75.22928,59.9324549 C75.22928,62.6594221 75.20128,65.3606107 74.72598,68.0604057 C73.95178,72.4636844 72.27318,76.6941762 69.82598,80.4411434 C64.95818,87.8953648 57.14268,93.2392172 48.38428,95.0193402 C46.17368,95.4680287 43.91688,95.692373 41.66008,95.692373" id="Fill-183" fill="#000000"></path>
                        <path d="M74.14239,44.6518238 C58.31609,37.0276025 39.91309,35.2481762 22.89539,39.6347336 C18.17109,40.8526025 13.56999,42.5358811 9.17819,44.6518238 C9.16629,50.4757172 9.13549,56.3010041 9.14179,62.1248975 C9.15299,72.8014549 14.42609,82.9429303 23.29369,88.9946516 C32.74019,95.4400205 45.30029,96.4516598 55.61899,91.4617418 C65.85579,86.5115369 72.90339,76.2739139 74.01779,65.0218648 C74.31739,61.998791 74.17319,58.9123156 74.16689,55.878791 C74.15919,52.3673156 74.15149,48.8558402 74.14379,45.3443648 C74.14309,45.11375 74.14239,44.8824385 74.14239,44.6518238" id="Fill-185" fill="#8C6150"></path>
                        <path d="M81.79969,80.3410943 L81.77869,78.4655205 C81.69959,78.7177336 72.30559,105.168061 51.83829,110.779455 C54.30999,111.382816 57.53559,112.620889 61.26379,113.080029 C70.35259,108.141668 77.16639,99.8478975 81.91799,90.8281434 L81.79969,80.3410943 Z" id="Fill-187" fill="#FFAEE4"></path>
                        <path d="M50.73138,71.1109303 C47.97128,68.3637582 43.47938,68.3637582 40.71858,71.1109303 L39.23388,69.6331844 C42.81298,66.0708484 48.63698,66.0708484 52.21608,69.6331844 L50.73138,71.1109303 Z" id="Fill-189" fill="#000000"></path>
                        <path d="M41.66043,37.2668566 C53.30283,37.2668566 64.32223,39.920668 74.14253,44.6521025 C73.56853,31.6547664 64.90183,19.9839877 52.59513,15.6064877 C40.10993,11.1662828 25.80473,14.9216107 17.11493,24.8700943 C12.32343,30.3560779 9.49963,37.3894795 9.17833,44.6521025 C18.99863,39.920668 30.01803,37.2668566 41.66043,37.2668566" id="Fill-191" fill="#9FE2A2"></path>
                        <path d="M29.90085,55.2598238 C26.80055,55.2598238 24.27775,52.7488402 24.27775,49.6630615 L26.37775,49.6630615 C26.37775,51.5699877 27.98495,53.1696598 29.90085,53.1696598 C31.81745,53.1696598 33.42395,51.5699877 33.42395,49.6630615 L35.52395,49.6630615 C35.52395,52.7488402 33.00185,55.2598238 29.90085,55.2598238" id="Fill-193" fill="#000000"></path>
                        <path d="M54.87944,55.2598238 C51.77914,55.2598238 49.25634,52.7488402 49.25634,49.6630615 L51.35634,49.6630615 C51.35634,51.5699877 52.96354,53.1696598 54.87944,53.1696598 C56.79604,53.1696598 58.40254,51.5699877 58.40254,49.6630615 L60.50254,49.6630615 C60.50254,52.7488402 57.98044,55.2598238 54.87944,55.2598238" id="Fill-195" fill="#000000"></path>
                        <polygon id="Fill-197" fill="#8C6150" points="1.1389 168.3425 17.8997 168.3425 17.8997 151.660902 1.1389 151.660902"></polygon>
                        <polygon id="Fill-199" fill="#8C6150" points="65.5249 168.3425 82.2857 168.3425 82.2857 151.660902 65.5249 151.660902"></polygon>
                        <path d="M82.05736,103.199545 L81.88936,103.097824 C77.00406,111.08852 69.89206,113.724914 69.82066,113.750693 L69.85426,113.845447 C72.86356,114.024504 76.18786,114.14016 79.85656,114.174299 C80.61326,113.534709 81.38466,112.82266 82.15746,112.031881 L82.05736,103.199545 Z" id="Fill-200" fill="#FF5500"></path>
                        <path d="M76.97487,129.398008 C64.79207,129.037803 52.70797,126.388172 41.66827,121.201082 C30.09797,115.765262 19.85487,107.690959 11.52067,98.0573934 C7.76727,93.7182131 4.35687,89.0543607 1.47147,84.0978852 L1.36647,94.1237049 C7.64337,102.89891 15.30767,110.728664 24.05627,117.079279 C32.67747,123.338623 42.34937,128.130672 52.59107,131.126574 C59.53577,133.15891 66.71497,134.363541 73.93967,134.786451 C75.09607,132.982639 76.10197,131.166287 76.97487,129.398008" id="Fill-201" fill="#9FE2A2"></path>
                        <path d="M20.32646,126.472336 C10.32556,118.427992 3.66436,109.406844 1.24446,105.870984 L1.14926,115.014057 C12.76436,129.422951 28.45766,141.717992 46.89706,145.719959 C51.95456,146.817295 57.13666,147.256926 62.30756,147.019344 C65.05786,145.160492 67.44556,142.983934 69.51756,140.653402 C52.52156,143.831148 35.98966,139.071148 20.32646,126.472336" id="Fill-202" fill="#FF5500"></path>
                        <path d="M41.66043,94.6470123 C37.59483,94.6470123 33.70703,93.8980369 30.11953,92.5422172 C31.46703,97.7146762 36.29073,101.436561 41.66043,101.436561 C47.03013,101.436561 51.85383,97.7146762 53.20133,92.5422172 C49.61383,93.8980369 45.72603,94.6470123 41.66043,94.6470123" id="Fill-203" fill="#8C6150"></path>
                        <path d="M31.85217,94.2367828 C33.63927,97.9579713 37.51657,100.391619 41.65987,100.391619 C45.80387,100.391619 49.68117,97.9579713 51.46757,94.2367828 C45.11997,96.1701844 38.19977,96.1701844 31.85217,94.2367828 M41.65987,102.481783 C38.07167,102.481783 34.58847,100.961537 32.14827,98.3453484 C30.13787,96.1910861 29.31467,93.618791 28.59227,90.8472336 C32.83917,92.4517828 37.07557,93.5999795 41.65987,93.6020697 C46.24417,93.6041598 50.48337,92.4510861 54.72817,90.8472336 C54.00577,93.6201844 53.18047,96.1876025 51.17217,98.3453484 C48.73617,100.96293 45.24527,102.481783 41.65987,102.481783" id="Fill-204" fill="#000000"></path>
                        <path d="M1.13904,107.219279 L1.13904,115.965918 L1.25244,105.131205 C1.17894,105.817475 1.13904,106.5135 1.13904,107.219279" id="Fill-205" fill="#FF5500"></path>
                        <path d="M2.18904,115.976648 L0.08904,115.9655 C0.08904,112.349516 -0.17556,108.622754 0.20734,105.020705 L2.30174,105.141934 L2.18904,115.976648 Z" id="Fill-206" fill="#000000"></path>
                        <path d="M64.72249,87.8015861 C63.75089,87.6956844 62.77929,87.6803566 61.80349,87.6803566 C59.22329,89.7099057 56.32879,91.3590451 53.20189,92.5420779 C51.85369,97.7152336 47.02999,101.436422 41.66029,101.436422 C36.29059,101.436422 31.46759,97.7152336 30.11939,92.5420779 C26.99179,91.3590451 24.09729,89.7099057 21.51709,87.6803566 C20.33129,87.6803566 19.15599,87.7131025 17.97859,87.8803156 C23.64649,95.209127 31.31639,101.933881 41.69179,106.754496 C51.51279,103.085561 59.02099,95.9581025 64.72249,87.8015861" id="Fill-207" fill="#FF5500"></path>
                        <path d="M82.18147,114.186492 C77.86177,114.186492 73.99707,114.077107 70.53487,113.884115 C74.21687,114.16768 78.09347,114.276369 82.18147,114.186492" id="Fill-208" fill="#FF5500"></path>
                        <path d="M79.42487,115.26223 C76.36517,115.26223 73.35867,115.150057 70.45367,114.92641 L70.59297,112.840426 C74.19097,113.040385 78.08997,113.14141 82.18147,113.14141 L82.20457,115.231574 C81.27427,115.251779 80.34677,115.26223 79.42487,115.26223" id="Fill-209" fill="#000000"></path>
                        <path d="M66.5756,167.298115 L81.2357,167.298115 L81.2357,152.705984 L66.5756,152.705984 L66.5756,167.298115 Z M61.8282,145.994467 C43.4658,146.735779 26.4131,138.285246 13.1103,126.192951 C9.1889,122.627828 5.5412,118.760328 2.2029,114.648975 C2.2225,112.797787 2.2414,110.946598 2.261,109.094713 C13.8257,124.651803 30.4465,138.442705 50.0584,141.848279 C55.4771,142.790246 61.0246,142.894057 66.4776,142.190369 C65.0594,143.554549 63.5145,144.835123 61.8282,145.994467 Z M64.4749,150.615123 L64.4749,167.298115 L18.9497,167.298115 L18.9497,150.778852 L18.9497,147.125246 C28.6174,154.047869 41.6535,155.916475 53.018,152.524139 C56.4102,151.511107 59.6253,150.000615 62.5765,148.053279 L62.6521,148.049795 C63.2744,147.633156 63.8785,147.191434 64.4749,146.740656 L64.4749,150.615123 Z M9.5865,134.025492 C6.5891,129.311475 4.3302,124.073525 2.8672,118.688566 C13.3973,130.835205 26.7988,141.157828 42.4515,145.680943 C47.6091,147.171926 52.9578,147.996148 58.3282,148.105533 C45.6344,154.74877 28.9254,152.882951 17.9466,143.746148 C14.6447,140.998279 11.8839,137.637295 9.5865,134.025492 Z M16.8497,150.615123 L2.1889,150.615123 L2.1889,123.550287 C5.1576,131.889344 9.9568,139.811066 16.8497,145.504672 L16.8497,145.505369 L16.8497,150.615123 Z M2.1889,167.298115 L16.8497,167.298115 L16.8497,152.705984 L2.1889,152.705984 L2.1889,167.298115 Z M2.9736,40.6801639 C2.9736,24.2856148 14.0952,9.06922131 29.7731,4.03471311 C46.1874,-1.23598361 64.8851,5.43860656 74.1979,19.8802459 C77.0602,24.3183607 78.9964,29.3438115 79.8469,34.5497131 C80.3901,37.8793443 80.3467,41.2145492 80.3467,44.5727459 C79.3128,51.2905328 77.4158,57.9504918 75.1653,64.3526639 C75.4901,59.0993852 75.229,53.7687705 75.229,48.5085246 L75.229,46.3361475 L75.2689,46.3556557 L75.1926,44.6284836 L75.1912,43.9958607 L75.1548,43.9784426 C74.3211,30.7734836 65.457,19.022582 52.9172,14.6032787 C40.2521,10.1386885 25.7327,13.765123 16.7321,23.6892213 C11.676,29.2636885 8.6394,36.4852049 8.1662,43.9784426 L8.1291,43.9958607 L8.1284,44.6277869 L8.0521,46.3556557 L8.0913,46.3361475 C8.0913,51.5315984 8.0871,56.7263525 8.0913,61.9211066 C8.0934,64.4014344 8.3174,66.8713115 8.8354,69.3007787 C6.5492,63.4420492 4.9322,57.3248361 3.948,51.1184426 C3.4041,47.6808197 2.9722,44.1665574 2.9736,40.6801639 Z M66.5749,145.039262 C68.6707,143.210369 70.4907,141.13623 72.3331,139.063484 L72.1644,139.095533 C72.982,138.049057 73.7506,136.970533 74.4856,135.865533 L74.4933,135.865533 C76.0361,133.459057 77.3731,130.960615 78.6366,128.400861 L78.6135,128.400164 C79.5641,126.353197 80.4048,124.254672 81.1314,122.118525 L81.1314,150.615123 L66.5749,150.615123 L66.5749,145.039262 Z M2.3842,97.2553279 C15.1221,113.964098 32.9021,126.676475 53.2553,132.39377 C59.3712,134.111189 65.6593,135.205041 71.9929,135.694836 C71.0423,137.061107 69.9944,138.407172 68.8534,139.707254 C58.4003,141.570984 47.6973,140.215861 37.9554,136.050164 C27.3273,131.506148 18.0642,124.079098 10.3362,115.59582 C7.448,112.424344 4.7348,109.077992 2.2974,105.549795 L2.3842,97.2553279 Z M20.7704,88.7246721 L21.1498,88.7246721 C23.6439,90.6497131 26.3669,92.199918 29.2558,93.3418443 C30.8917,98.6696721 36.0626,102.481434 41.6598,102.481434 C47.2633,102.481434 52.4384,98.6620082 54.0701,93.3272131 C56.9576,92.1825 59.7065,90.6169672 62.1649,88.7246721 C62.3483,88.7246721 62.5317,88.7246721 62.7151,88.7260656 C57.3188,96.0270082 50.3041,102.302377 41.7305,105.615287 C33.355,101.659303 25.921,95.8876639 20.0557,88.7406967 C20.2951,88.7309426 20.5338,88.7246721 20.7704,88.7246721 Z M18.1237,86.1043033 C18.347,86.322377 18.5787,86.53 18.8069,86.7411066 C18.7054,86.7508607 18.6046,86.7627049 18.5031,86.7738525 C18.2049,86.3795082 17.9088,85.9851639 17.6218,85.5873361 C17.7898,85.7594262 17.9515,85.935 18.1237,86.1043033 Z M36.4434,95.2891803 C41.447,96.0639344 46.6193,95.7065164 51.4626,94.2315574 C49.6874,97.9283607 45.78,100.39127 41.6598,100.39127 C37.5501,100.39127 33.6504,97.9402049 31.871,94.2559426 C33.362,94.7060246 34.8894,95.0488115 36.4434,95.2891803 Z M10.2326,63.890041 C9.9554,58.475123 10.2109,52.9981967 10.2221,47.5790984 C10.2235,46.8252459 10.2256,46.0713934 10.227,45.317541 C25.4415,38.1510656 42.896,36.4754508 59.241,40.4105328 C64.0101,41.5587295 68.6602,43.2294672 73.094,45.317541 C73.1031,49.7236066 73.1129,54.1296721 73.122,58.5357377 C73.1269,60.5332377 73.1822,62.5397951 73.0086,64.532418 C72.6572,68.5594672 71.5309,72.5105738 69.7067,76.1216803 C66.1122,83.240082 59.8465,88.9267213 52.3292,91.6989754 C43.3958,94.9916803 33.1968,93.899918 25.1111,88.91 C16.4143,83.5438525 10.7534,74.0677459 10.2326,63.8907377 L10.2326,63.890041 Z M75.2276,130.376762 C74.6403,131.477582 74.0005,132.588852 73.304,133.699426 C61.4915,132.925369 49.8603,129.978238 39.1825,124.874057 C30.9386,120.932705 23.3009,115.756762 16.5459,109.623525 C11.2994,104.860738 6.5576,99.5370902 2.4199,93.7933197 L2.4836,87.7513525 C14.5292,106.456926 33.0582,121.099221 54.6651,127.132828 C61.362,129.002828 68.2822,130.053484 75.2276,130.376762 Z M62.5835,114.017049 C68.3291,114.914426 74.431,115.331066 80.8885,115.253033 C80.3768,117.517377 79.03,122.619467 76.2741,128.323525 C64.3475,127.883197 52.5357,125.205 41.7494,120.075041 C30.4906,114.720738 20.5149,106.837336 12.3795,97.4462295 C8.7066,93.2066803 5.3641,88.6536066 2.5242,83.8176639 L2.8091,56.422582 C4.7222,65.3357377 8.5274,76.737582 16.0818,87.0929508 L16.0489,87.0971311 C18.9721,90.8782377 22.0773,94.4586885 25.6816,97.6190164 C29.7332,101.172295 34.2384,104.197459 39.046,106.642254 C41.8894,108.087951 44.8357,109.332295 47.8485,110.385041 C52.5161,112.336557 57.5911,113.324508 62.5835,114.017049 Z M77.7448,95.8577049 C73.1598,102.856967 67.7068,108.188975 61.5314,111.726926 C59.5602,111.387623 57.6338,110.988402 55.7536,110.530656 C69.1173,104.992418 77.2863,90.8838115 80.7849,83.4762705 C80.8115,85.8430328 80.8381,88.2090984 80.8647,90.5751639 C79.8945,92.4019672 78.8445,94.1772131 77.7448,95.8577049 Z M81.0411,106.177541 L81.1027,111.60918 C80.577,112.131721 80.0303,112.640328 79.471,113.125246 C77.4977,113.103648 75.5237,113.05627 73.5511,112.978934 C75.6833,111.644713 78.5057,109.468156 81.0411,106.177541 Z M80.9928,102.553893 C76.4841,109.927992 69.9503,112.57832 69.503,112.7525 C68.0064,112.62082 66.5315,112.46127 65.0804,112.268279 C71.8039,107.966721 76.8558,101.502541 80.9123,94.7443443 L80.9998,102.542049 L80.9928,102.553893 Z M10.5434,41.4221721 C12.2703,29.8517213 20.7354,19.9596721 31.8878,16.3241803 C43.6128,12.5026639 56.7833,16.0461885 65.0307,25.1481557 C69.4827,30.0621311 72.3114,36.3584016 72.9673,42.9479918 C57.5855,35.9779918 39.9392,34.3769262 23.5298,38.3921311 C19.0092,39.4978279 14.5894,41.0271311 10.353,42.9479918 C10.4041,42.4393852 10.4671,41.9279918 10.5434,41.4221721 Z M80.4069,54.3672541 C80.4223,54.3087295 80.4398,54.2453279 80.4545,54.1868033 L80.7261,78.289877 C79.9764,80.329877 70.8603,103.984262 52.1885,109.575451 C49.4746,108.779098 46.8608,107.852459 44.3513,106.793443 C53.7649,102.611721 60.7936,95.2522541 66.5931,86.955 L66.5504,86.950123 C73.1311,77.090123 77.4886,65.7983607 80.4069,54.3672541 Z M83.2314,150.615123 L83.2314,115.231434 L83.2433,115.231434 C83.2055,111.90041 83.4561,108.505984 83.1306,105.188197 L82.4467,44.6403279 L82.4369,44.6396311 C82.4439,41.9140574 82.5132,39.1856967 82.2199,36.469877 C81.7642,32.2477459 80.6218,28.105041 78.8725,24.2319672 C75.3886,16.5192623 69.51,9.92270492 62.1866,5.62532787 C46.8097,-3.39790984 26.5979,-0.911311475 13.6381,11.2213934 C5.5573,18.7863934 0.8771,29.6329508 0.8736,40.6697131 L0.0882,116.051475 L0.0889,116.057746 L0.0889,138.712336 L0.0889,156.27668 L0.0882,169.388279 L16.8028,169.388279 L28.6685,169.388279 L52.0296,169.388279 L64.533,169.388279 L82.0638,169.388279 L83.3357,169.388279 L83.3357,150.615123 L83.2314,150.615123 Z" id="Fill-210" fill="#000000"></path>
                    </g>
                </g>
            </g>
        </g>
    </g>
</svg>