<svg id="Layer_1" data-name="Layer 1" xmlns="http://www.w3.org/2000/svg" viewBox="0 0 300 300"><defs><style>.cls-1{fill:#dda812;}.cls-2{fill:#f50;}.cls-3{fill:#8c6150;}.cls-4{fill:#ffaee4;}.cls-5{fill:#9fe2a2;}</style></defs><title>portland_characters</title><path class="cls-1" d="M207.81,197.27q-.56-49.9-1.12-99.8c-.4-31.36-18.78-59.8-52.53-62.31-32.52-2.42-61.28,24.32-61,57v-.38l-.73,70.6c-.17,15.6-2.83,32.51,2.42,47.5,10.6,30.29,39.94,51.62,72.67,40.45,22.4-7.64,36-30.77,40.29-53Zm-1.13-99.75s0,.16,0,.3C206.66,97.68,206.68,97.57,206.68,97.52Zm-113.52-5v0Zm.07,2v0Zm0-.75v0Zm0-.69v0Z"/><path class="cls-1" d="M103.47,122.77V99.54a46.46,46.46,0,0,1,92.91,0v23.23a46.46,46.46,0,0,1-92.91,0Z"/><path class="cls-2" d="M184,275V251.06h23.79V197.27s-9.36,55.84-57.88,55.84S92,199.82,92,199.82v51.24H116V275h68Z"/><path class="cls-3" d="M196.38,122.77a46.46,46.46,0,0,1-92.91,0V99.54a46.46,46.46,0,0,1,92.91,0Z"/><path d="M149.93,170.72a48,48,0,0,1-48-47.95V99.54a48,48,0,0,1,95.91,0v23.23A48,48,0,0,1,149.93,170.72Zm0-116.13a45,45,0,0,0-45,45v23.23a45,45,0,0,0,89.91,0V99.54A45,45,0,0,0,149.93,54.59Z"/><path class="cls-3" d="M196.33,97.47a106.88,106.88,0,0,0-92.81,0l0,25.3a46.46,46.46,0,0,0,47.25,46.45c25.47-.43,45.66-21.74,45.66-47.22Z"/><path class="cls-4" d="M207.27,148.69l0-2.69c-.12.36-13.54,38.33-42.77,46.38h0c3.53.87,8.13,2.64,13.46,3.3,9.4-5.13,17.84-13.22,24.8-23.9,1.83-2.8,3.39-5.52,4.71-8Z"/><path d="M162.88,135.44a10.13,10.13,0,0,0-14.3,0l-2.12-2.12a13.14,13.14,0,0,1,18.55,0Z"/><path class="cls-2" d="M149.93,86.87a106.22,106.22,0,0,1,46.4,10.6,46.45,46.45,0,0,0-92.81,0A106.23,106.23,0,0,1,149.93,86.87Z"/><path d="M133.13,112.69a8,8,0,0,1-8-8h3a5,5,0,0,0,10.07,0h3A8,8,0,0,1,133.13,112.69Z"/><path d="M168.81,112.69a8,8,0,0,1-8-8h3a5,5,0,1,0,10.06,0h3A8,8,0,0,1,168.81,112.69Z"/><rect class="cls-3" x="92.04" y="251.06" width="23.94" height="23.94"/><rect class="cls-3" x="184.02" y="251.06" width="23.94" height="23.94"/><path class="cls-2" d="M207.64,181.5l-.24-.15a37.7,37.7,0,0,1-17.25,15.29l0,.14c4.3.26,9.05.42,14.29.47q1.62-1.38,3.29-3.07Z"/><path class="cls-5" d="M200.38,219.1c-32.14-.95-60.24-12.57-83.58-34.58a138.24,138.24,0,0,1-24.29-30.44l-.15,14.39a148.51,148.51,0,0,0,18.77,21.58A133.32,133.32,0,0,0,196,226.84,80.93,80.93,0,0,0,200.38,219.1Z"/><path class="cls-2" d="M119.45,214.9a143.53,143.53,0,0,1-27.26-29.57l-.14,13.13a150.78,150.78,0,0,0,22.23,22.45c19.25,15.61,40.09,23.58,61.25,23.58,1.3,0,2.59,0,3.89-.1a55,55,0,0,0,10.3-9.13C165.44,239.82,141.82,233,119.45,214.9Z"/><path class="cls-3" d="M149.93,169.22a46.24,46.24,0,0,1-16.49-3,17,17,0,0,0,33,0A46.23,46.23,0,0,1,149.93,169.22Z"/><path d="M149.93,180.47A18.53,18.53,0,0,1,132,166.58l-.73-2.81,2.71,1a45,45,0,0,0,31.91,0l2.71-1-.72,2.81A18.55,18.55,0,0,1,149.93,180.47Zm-14-11.83a15.54,15.54,0,0,0,28,0A48.31,48.31,0,0,1,135.91,168.64Z"/><path class="cls-2" d="M92,187.27v12.55l.16-15.55A27.15,27.15,0,0,0,92,187.27Z"/><path d="M93.54,199.84l-3,0V187.27a30.86,30.86,0,0,1,.17-3.16l3,.18Z"/><path class="cls-2" d="M182.87,159.4a28.84,28.84,0,0,0-3.1-.17H178.7a46.13,46.13,0,0,1-12.29,7,17,17,0,0,1-33,0,46.29,46.29,0,0,1-12.29-7h-1.07a29.28,29.28,0,0,0-4,.28A90.58,90.58,0,0,0,150,186.6C164,181.34,174.73,171.11,182.87,159.4Z"/><path class="cls-2" d="M207.81,197.27c-6.17,0-11.69-.16-16.64-.43C196.43,197.24,202,197.4,207.81,197.27Z"/><path d="M203.88,198.81c-4.38,0-8.67-.16-12.82-.48l.2-3c5.14.28,10.71.43,16.55.43l0,3C206.52,198.8,205.19,198.81,203.88,198.81Z"/><path d="M209.31,249.56V198.77h0l0-1.52v-10c0-1-.05-2-.14-2.92l-1-86.9h0V91.77a58.27,58.27,0,0,0-116.53,0h0L90.54,200h0V276.5H209.46V249.56Zm-4-138.15c0-.08,0-.17.07-.26l.38,34.6c-1.07,2.92-14.09,36.88-40.76,44.9a102.81,102.81,0,0,1-11.2-4l.86-.39,1.06-.51.67-.34c10.44-5.25,19.75-13.68,27.74-25.16l1.44-2.08h-.06c.13-.19.25-.38.37-.57l.31-.47c.72-1.11,1.43-2.25,2.12-3.41.81-1.35,1.6-2.71,2.35-4.09.1-.18.19-.36.29-.53.67-1.24,1.33-2.5,2-3.78.08-.16.15-.32.23-.47.66-1.33,1.3-2.67,1.93-4.05a2.92,2.92,0,0,0,.14-.31c.65-1.43,1.29-2.88,1.91-4.37v0h0c.45-1.07.88-2.13,1.29-3.19s.86-2.22,1.27-3.34l.17-.47c.35-1,.69-1.92,1-2.87,0-.16.11-.33.17-.5.32-.94.62-1.86.92-2.77l.15-.48c.29-.91.58-1.81.84-2.69l.12-.41c.28-.9.54-1.79.78-2.65l.06-.22c.24-.84.47-1.65.68-2.45l.09-.3C204.89,112.93,205.09,112.16,205.28,111.41ZM105.47,92.83c0-.27.1-.55.14-.82.09-.48.17-1,.26-1.45,0-.1,0-.21.07-.31a45.06,45.06,0,0,1,37-35.11l.22,0c.62-.1,1.24-.17,1.86-.24l.41,0c.58-.06,1.17-.1,1.76-.13l.5,0c1.5-.07,3-.07,4.51,0l.5,0c.59,0,1.18.07,1.76.13l.41,0c.62.07,1.24.14,1.86.24l.22,0a45.06,45.06,0,0,1,37,35.11c0,.1.05.21.07.31.1.48.18,1,.26,1.45,0,.27.1.55.14.82s.05.45.08.67c.07.51.14,1,.19,1.52l-.24-.1-1.13-.5c-.92-.41-1.85-.8-2.79-1.18l-1.55-.62-1.24-.47c-.93-.35-1.87-.68-2.81-1l-1.52-.52-1.3-.41c-.94-.29-1.89-.57-2.84-.84L177.71,89l-1.33-.34-1.53-.37c-1-.23-1.92-.44-2.89-.64-.44-.09-.89-.19-1.34-.27l-1.56-.29-1.35-.23-1.59-.25-1.33-.2-1.63-.2L161.85,86l-1.68-.16-1.28-.12-1.77-.12-1.2-.08c-.66,0-1.32-.06-2-.08l-1,0c-2-.06-4-.06-6,0l-1,0c-.66,0-1.33,0-2,.08-1,0-2,.12-3,.2l-1.27.12c-1,.09-2,.2-3,.32s-2,.25-3,.4l-1.6.25-1.33.23-1.57.29c-.45.08-.89.18-1.34.27l-1.55.33-1.34.31c-1.47.34-2.93.72-4.38,1.13l-1.32.38-1.52.46-1.3.41-1.52.51-1.28.45c-.92.33-1.85.67-2.77,1l-1.55.62-1.2.49c-.53.22-1.06.46-1.59.69l-1.13.5-.24.1c0-.51.12-1,.19-1.52C105.42,93.28,105.44,93.05,105.47,92.83Zm100.64,87.74a36.67,36.67,0,0,1-16.41,14.64c-2.14-.19-4.24-.42-6.32-.69,8.07-5.19,14.34-12.31,20.61-21.92.68-1,1.35-2.14,2-3.24l.13,11.2Zm.07,5.2,0,1.26.07,6.09v.45c-.75.75-1.53,1.48-2.33,2.18-2.78,0-5.49-.1-8.1-.2h-.36A41.12,41.12,0,0,0,206.18,185.77ZM201.47,171c-6.54,10-14.33,17.7-23.16,22.78q-4.22-.74-8.25-1.72c19.09-8,30.76-28.2,35.76-38.83l.06,5.27.05,4.92C204.55,166,203.05,168.55,201.47,171ZM179.82,197A157.39,157.39,0,0,0,206,198.8a91.42,91.42,0,0,1-6.6,18.76c-31.31-1.16-58.75-12.64-81.54-34.13A137,137,0,0,1,94,153.68l.4-39.32c2.74,12.79,8.17,29.16,19,44h0l1.57,2,.26.33c.45.58.91,1.16,1.37,1.73.06.06.11.13.16.19a91.91,91.91,0,0,0,6.56,7.23,94.11,94.11,0,0,0,35.51,21.9h0C164.19,194.08,171.32,195.84,179.82,197Zm18.06,23.48c-.84,1.58-1.75,3.17-2.75,4.77a132,132,0,0,1-83-36.31,147,147,0,0,1-18.29-21l.09-8.67a139.88,139.88,0,0,0,33.27,36,124.19,124.19,0,0,0,43.16,21.05A132.38,132.38,0,0,0,197.88,220.51ZM105,125.08q-.06-1.15-.06-2.31l0-24.35,1-.44,1.29-.6,1.39-.6,1.31-.55c.47-.2.94-.38,1.41-.57l1.31-.51,1.43-.53,1.32-.47q.72-.25,1.44-.48l1.33-.44,1.45-.45c.94-.28,1.88-.54,2.82-.8l1.32-.35,1.52-.37c.94-.23,1.89-.44,2.85-.64l1.31-.28,1.57-.29,1.3-.23,1.59-.25,1.3-.19c.54-.08,1.08-.14,1.62-.21l1.28-.16,1.69-.16,1.23-.12,1.79-.12,1.15-.08c.67,0,1.35-.06,2-.08l.93,0c2-.06,4-.06,6,0l.93,0c.67,0,1.35,0,2,.08l1.15.08,1.79.12,1.23.12,1.69.16c1,.11,1.94.23,2.9.37l1.3.19,1.59.25,1.3.23,1.57.29,1.31.28c1,.2,1.91.41,2.86.64l1.51.37,1.32.35,1.48.41c.45.12.89.26,1.34.39.93.28,1.85.58,2.78.88s1.85.63,2.76,1l1.43.53c1.35.51,2.7,1.06,4,1.63l1.39.6,1.3.6,1,.44,0,23.59c0,23.14-17.26,42.53-39.36,45.35l-.49.07-1.46.13-.93.08-1.2.05-1.15,0h-.93c-.52,0-1,0-1.55,0l-.48,0c-.66,0-1.33-.08-2-.15h0a44.5,44.5,0,0,1-14.8-4.18l-.21-.1c-.56-.27-1.12-.56-1.67-.86l-.24-.12a48.22,48.22,0,0,1-5.35-3.44l0,0a44.91,44.91,0,0,1-18-33.69Zm37.44,45.07h0c.73.11,1.46.21,2.2.29l.27,0c.69.07,1.38.12,2.08.16l.4,0c.82,0,1.64.06,2.47.06h.81l.61,0c.47,0,.93,0,1.39-.06q.44,0,.87-.06.82-.06,1.65-.15l.49-.06a48.11,48.11,0,0,0,8.18-1.73,15.51,15.51,0,0,1-28,0A47.91,47.91,0,0,0,142.47,170.15ZM116.3,157c.32.32.65.61,1,.92l-.44,0-1.26-1.7Zm3.78,3.76h.54a47.57,47.57,0,0,0,11.58,6.63,18.53,18.53,0,0,0,35.45,0l.39-.17c.8-.33,1.59-.67,2.37-1l.55-.26c.75-.37,1.49-.77,2.22-1.17l.87-.49c.75-.44,1.49-.89,2.21-1.37l.78-.54c.55-.38,1.09-.77,1.62-1.16.18-.14.38-.26.56-.41H180c-.35.48-.72,1-1.08,1.44a3.92,3.92,0,0,1-.25.32c-.37.48-.74,1-1.12,1.43l-.28.34c-.39.48-.78,1-1.18,1.42a1.63,1.63,0,0,1-.17.2,79.88,79.88,0,0,1-5.58,5.91l-.34.33c-.41.39-.83.77-1.26,1.15l-.45.4c-.42.37-.84.74-1.27,1.1-.15.12-.3.24-.44.37l-1.36,1.09-.24.19c-1.56,1.21-3.17,2.35-4.85,3.41l-.34.22-1.45.88-.57.33c-.47.27-1,.53-1.43.79l-.62.33c-.48.25-1,.5-1.47.74l-.56.26c-.53.25-1.06.5-1.61.74h0c-.67.29-1.35.57-2,.84l-.3-.15c-1.22-.58-2.41-1.2-3.59-1.82l-1-.56h0c-1.2-.65-2.37-1.33-3.53-2l-.06,0-.91-.57c-1-.61-1.9-1.23-2.84-1.86l-1-.69c-1-.68-1.92-1.39-2.86-2.11-.48-.37-1-.74-1.44-1.12q-1.23-1-2.43-2c-.63-.53-1.24-1.08-1.84-1.62-.23-.22-.46-.44-.7-.65a91.72,91.72,0,0,1-8.42-9Q119.57,160.72,120.08,160.72ZM93.82,173a145.09,145.09,0,0,0,31.7,30.83,134.41,134.41,0,0,0,38.92,19,137.1,137.1,0,0,0,28.82,5.34,66.32,66.32,0,0,1-4.49,5.76c-23.59,4.23-46.59-2.55-68.38-20.16a142.71,142.71,0,0,1-26.7-28.87Zm91.7,68.58a59.19,59.19,0,0,0,5.33-5.3l2.89-3.27-.24,0c.62-.79,1.23-1.59,1.82-2.43l.35-.5c.34-.5.69-1,1-1.51l.13-.19h0l.47-.75c.19-.29.37-.59.55-.88s.34-.53.5-.8l.11-.19.29-.49.83-1.44.17-.3.73-1.37c.08-.14.16-.28.23-.42l.12-.22.19-.36c.21-.4.4-.8.59-1.2a2.12,2.12,0,0,0,.11-.21l.11-.22.17-.34a2,2,0,0,0,.1-.21l.65-1.32h0c.12-.26.25-.53.36-.79l0-.08c.29-.66.58-1.31.85-2l.09-.23q.39-.95.75-1.86l.12-.3c.24-.6.46-1.19.67-1.77,0-.09.06-.18.1-.28q.31-.87.6-1.71v40.87H185.52ZM94.66,91.77a55.27,55.27,0,0,1,110.53,0v5.58c0,.14-.06.41-.13.81h0a177.65,177.65,0,0,1-7.27,27.57q.09-1.47.09-3V99.88l.06,0-.11-2.48v-.9l-.06,0c0-.38-.05-.76-.08-1.13l0-.43c-.06-.53-.12-1-.19-1.58,0-.29-.07-.59-.11-.88l-.18-1.06c-.08-.47-.16-.94-.25-1.4l-.12-.52a47.8,47.8,0,0,0-41.94-37.66h-.05c-.71-.07-1.42-.12-2.13-.16l-.32,0q-2.44-.12-4.89,0l-.32,0c-.71,0-1.42.09-2.13.16H145A47.81,47.81,0,0,0,103,89.5l-.12.52c-.09.46-.17.93-.25,1.4l-.18,1.06c0,.29-.07.59-.11.88-.07.53-.13,1-.18,1.58,0,.14,0,.29,0,.43,0,.37-.06.75-.08,1.13l-.06,0v.9l-.11,2.48.06,0v22.89c0,.84,0,1.68.07,2.52,0,.17,0,.34,0,.52,0,.67.09,1.34.16,2,0,.13,0,.25,0,.38.08.73.18,1.45.29,2.17a.5.5,0,0,1,0,.12c.13.79.28,1.57.44,2.36A126,126,0,0,1,97.18,113c-.07-.34-.13-.67-.2-1l-.06-.29a112,112,0,0,1-2.26-19.79ZM114.48,273.5H93.54V252.56h20.94Zm0-23.94H93.54V210.71l0,0c.22.64.46,1.28.71,1.91s.42,1.09.64,1.64c0,.12.1.23.14.35.24.57.48,1.15.74,1.74l.11.26c.26.59.54,1.19.82,1.8l.06.13c.29.62.6,1.25.92,1.89,0,.11.11.22.16.32.31.62.64,1.24,1,1.87l.2.37c.34.63.7,1.27,1.07,1.91l.17.28c.4.68.81,1.36,1.24,2s.72,1.11,1.1,1.68l.23.34c.38.56.78,1.13,1.19,1.7l.13.18c.41.56.84,1.13,1.29,1.7l.1.13c.47.6,1,1.2,1.46,1.8l.14.15q1.56,1.85,3.33,3.63l.09.08q1.83,1.83,3.9,3.56h0Zm-10.37-23.82-.74-1.18-.21-.36c-.25-.42-.5-.84-.74-1.26l-.42-.74-.25-.46-.38-.71-.26-.49-.35-.67-.25-.5-.33-.66-.24-.49c-.11-.22-.21-.44-.31-.66s-.16-.32-.23-.48l-.3-.65-.21-.47c-.1-.22-.19-.43-.29-.64s-.13-.31-.2-.47-.18-.42-.26-.63-.13-.3-.19-.45-.17-.42-.26-.62-.12-.3-.17-.44-.17-.41-.24-.62l-.17-.42-.23-.6-.15-.41-.21-.6c0-.12-.1-.25-.14-.38l-.21-.6-.12-.34c-.07-.22-.14-.42-.21-.63s-.07-.19-.1-.29-.15-.45-.22-.67l-.06-.21c-.19-.57-.35-1.12-.51-1.64,0-.1,0-.18-.08-.27s-.09-.33-.14-.49,0-.2-.08-.3l-.12-.41,0-.1c15.9,18.43,36.51,34,60.49,39.79A87.65,87.65,0,0,0,173.74,246a48.29,48.29,0,0,1-15,5L158,251l-1.48.19q-1.29.15-2.61.24l-.81,0c-15.21.79-29.91-4.22-40.66-15.19A63.4,63.4,0,0,1,104.11,225.74Zm78.41,23.82V273.5h-65V244.55c1,.72,2.06,1.42,3.14,2.09l.2.12,1.42.84.44.24,1.24.67.57.29c.38.19.77.39,1.16.57l.66.31,1.13.5.72.3c.38.16.75.31,1.14.45l.77.3,1.14.4.83.27,1.15.36.87.25c.68.19,1.38.37,2.07.53.4.1.81.19,1.21.27l.93.2,1.25.22.95.16q.66.11,1.32.18l1,.13,1.41.14.92.08,1.6.1.79,0c1.53.06,3.06.06,4.59,0l.66,0,1.45-.08c.72-.05,1.43-.12,2.14-.19l.68-.08q.79-.09,1.59-.21l.44-.07c1.38-.21,2.74-.48,4.08-.79l.41-.1c.53-.13,1.07-.27,1.59-.42l.45-.13c.55-.15,1.08-.32,1.62-.49l.33-.1a52.09,52.09,0,0,0,5.81-2.32l.11-.05c.59-.29,1.18-.58,1.76-.88l.15-.08c1.54-.81,3-1.71,4.49-2.67h.1l.35-.23c.77-.52,1.51-1.08,2.26-1.65Zm-3.78-6.64c-17.7.72-35-4.52-50.07-13.66a121.33,121.33,0,0,1-13.45-9.51,149.53,149.53,0,0,1-21.66-21.82l0-3.73,0-4.24a145.66,145.66,0,0,0,24.87,26.11c21.29,17.21,43.77,24.39,66.87,21.39A52.16,52.16,0,0,1,178.74,242.92Zm27.72,30.58H185.52V252.56h20.94Z"/></svg>