<?xml version="1.0" encoding="UTF-8"?>
<svg width="120px" height="244px" viewBox="0 0 120 244" version="1.1" xmlns="http://www.w3.org/2000/svg" xmlns:xlink="http://www.w3.org/1999/xlink">
    <!-- Generator: sketchtool 50.2 (55047) - http://www.bohemiancoding.com/sketch -->
    <title>823064C0-A993-4BF5-B5E5-A4F76AE58628</title>
    <desc>Created with sketchtool.</desc>
    <defs></defs>
    <g id="Symbols" stroke="none" stroke-width="1" fill="none" fill-rule="evenodd">
        <g id="fawzia_lose">
            <path d="M2.7649,59.6442 C2.7649,59.6242 2.7639,59.6042 2.7639,59.5852 C2.7639,59.6042 2.7649,59.6252 2.7649,59.6442 M2.7859,60.3312 C2.7849,60.2852 2.7839,60.2412 2.7819,60.1972 C2.7839,60.2402 2.7849,60.2862 2.7859,60.3312 M2.8169,61.0812 C2.8159,61.0502 2.8149,61.0232 2.8129,60.9932 C2.8149,61.0232 2.8159,61.0502 2.8169,61.0812 M2.7529,59.1052 C2.7529,59.0532 2.7519,59.0152 2.7519,58.9692 C2.7519,59.0142 2.7529,59.0552 2.7529,59.1052 M116.2739,64.1402 C116.2659,64.1952 116.2489,64.3042 116.2269,64.4442 C116.2489,64.3042 116.2659,64.1952 116.2739,64.1402 M117.4019,163.8912 C117.1279,139.4522 116.8829,115.0112 116.6019,90.5722 C116.5329,84.5322 116.4619,78.4922 116.3869,72.4522 C116.3249,67.3982 116.3999,62.3242 115.9079,57.2882 C115.1239,49.2672 113.1169,41.3372 109.7359,34.0112 C103.1569,19.7572 91.2549,8.5222 76.0849,4.0092 C59.7739,-0.8428 41.9829,1.9552 27.9319,11.5332 C14.2449,20.8632 4.8099,35.9682 3.0539,52.5012 C2.8329,54.5822 2.7319,56.6752 2.7489,58.7682 C2.7469,58.5252 2.7479,58.3882 2.7479,58.3882 C2.5099,81.3682 2.2709,104.3472 2.0329,127.3282 C1.9249,137.7322 0.8409,148.1432 1.2999,158.5492 C1.7249,168.1922 4.0409,177.2662 8.4499,185.8552 C15.6059,199.7952 27.4659,211.6772 42.3969,216.9942 C57.8779,222.5042 75.7809,220.1242 89.2969,210.7692 C103.0109,201.2762 111.7979,185.7582 116.0279,169.8892 C116.5559,167.9072 117.0159,165.9062 117.4019,163.8912" id="Fill-175" fill="#DDA812"></path>
            <path d="M13.0593,89.3913 L13.0593,68.4913 C13.0593,64.3523 13.2423,60.2623 14.1303,56.1983 C15.4543,50.1433 18.0093,44.3763 21.5933,39.3223 C28.8053,29.1523 40.0303,22.1623 52.3573,20.2563 C64.9723,18.3053 78.0643,21.6883 88.1193,29.5563 C97.9713,37.2653 104.4203,48.8453 105.7173,61.2933 C106.0633,64.6143 105.9703,67.9643 105.9703,71.2983 L105.9703,84.4913 C105.9703,87.8763 106.0553,91.2733 105.6763,94.6443 C104.9693,100.9253 102.9643,107.0403 99.8123,112.5193 C93.6253,123.2763 83.1583,131.2843 71.1363,134.3803 C58.7393,137.5743 45.2823,135.4473 34.4993,128.5433 C24.0283,121.8393 16.5193,110.9853 14.0133,98.7993 C13.3763,95.7063 13.0593,92.5493 13.0593,89.3913" id="Fill-177" fill="#DDA812"></path>
            <path d="M93.6072,241.6217 L93.6072,217.6787 L117.4022,217.6787 L117.4022,163.8917 C116.2932,170.2367 114.1102,176.5027 111.5232,182.3787 C106.2802,194.2907 98.2982,205.3797 87.0672,212.2717 C72.9762,220.9207 54.4102,222.0467 39.0872,216.0637 C26.1622,211.0167 16.3002,200.7137 9.7932,188.6647 C6.1262,181.8747 3.1992,174.4127 1.6982,166.8177 C1.6742,166.6937 1.6502,166.5697 1.6272,166.4447 L1.6272,217.6787 L25.5712,217.6787 L25.5712,241.6217 L117.4022,241.6217 L93.6072,241.6217 Z" id="Fill-179" fill="#FF5500"></path>
            <path d="M105.97,89.3913 C105.97,102.0203 100.715,114.2883 91.578,123.0063 C82.398,131.7653 69.831,136.4203 57.161,135.7873 C44.606,135.1613 32.659,129.3203 24.422,119.8313 C16.922,111.1933 13.064,100.1823 13.059,88.7893 C13.056,81.4643 13.056,74.1393 13.059,66.8153 C13.064,55.4643 16.862,44.4993 24.302,35.8613 C32.543,26.2923 44.544,20.3963 57.161,19.7663 C69.831,19.1343 82.398,23.7883 91.578,32.5473 C100.742,41.2913 105.92,53.5143 105.97,66.1633 C105.998,73.1293 105.97,80.0963 105.97,87.0633 L105.97,89.3913 Z" id="Fill-181" fill="#8C6150"></path>
            <path d="M59.5144,21.2077 C47.1554,21.2077 35.1684,26.4317 26.7194,35.4457 C18.8454,43.8477 14.5894,54.9517 14.5594,66.4367 C14.5414,73.6057 14.5594,80.7747 14.5594,87.9447 C14.5594,98.4687 17.4694,108.5047 23.9764,116.8937 C31.4414,126.5177 42.7054,132.8427 54.8284,134.1037 C67.2194,135.3937 79.7834,131.3937 89.1434,123.1747 C98.3944,115.0507 104.0164,103.2787 104.4434,90.9677 C104.6874,83.9057 104.4704,76.8057 104.4704,69.7407 C104.4704,66.3337 104.4874,62.9467 103.9874,59.5637 C103.0904,53.4977 100.9314,47.6397 97.6864,42.4377 C91.2454,32.1127 80.6674,24.6597 68.7494,22.1617 C65.7154,21.5247 62.6154,21.2077 59.5144,21.2077 M59.5144,137.3467 C46.5544,137.3467 33.9654,131.9637 24.9794,122.6307 C16.3694,113.6887 11.5954,101.6787 11.5594,89.2827 C11.5384,81.9897 11.5594,74.6957 11.5594,67.4027 C11.5594,56.1057 14.8814,45.2777 21.9614,36.3717 C29.9504,26.3217 41.8594,19.7497 54.6424,18.4537 C67.6374,17.1367 80.8134,21.2657 90.7204,29.7777 C100.4394,38.1297 106.5394,50.2327 107.3694,63.0307 C107.8624,70.6497 107.4704,78.3907 107.4704,86.0207 C107.4704,89.9347 107.4304,93.8117 106.7514,97.6867 C105.6454,104.0067 103.2474,110.0787 99.7514,115.4567 C92.7974,126.1557 81.6324,133.8257 69.1204,136.3807 C65.9624,137.0247 62.7384,137.3467 59.5144,137.3467" id="Fill-183" fill="#000000"></path>
            <path d="M105.9177,64.0885 C83.3087,53.1455 57.0187,50.5915 32.7077,56.8875 C25.9587,58.6355 19.3857,61.0515 13.1117,64.0885 C13.0947,72.4475 13.0507,80.8085 13.0597,89.1675 C13.0757,104.4915 20.6087,119.0475 33.2767,127.7335 C46.7717,136.9845 64.7147,138.4365 79.4557,131.2745 C94.0797,124.1695 104.1477,109.4755 105.7397,93.3255 C106.1677,88.9865 105.9617,84.5565 105.9527,80.2025 C105.9417,75.1625 105.9307,70.1225 105.9197,65.0825 C105.9187,64.7515 105.9177,64.4195 105.9177,64.0885" id="Fill-185" fill="#8C6150"></path>
            <path d="M116.8567,115.3131 L116.8267,112.6211 C116.7137,112.9831 103.2937,150.9471 74.0547,159.0011 C77.5857,159.8671 82.1937,161.6441 87.5197,162.3031 C100.5037,155.2151 110.2377,143.3111 117.0257,130.3651 L116.8567,115.3131 Z" id="Fill-187" fill="#FFAEE4"></path>
            <path d="M72.4734,102.0651 C68.5304,98.1221 62.1134,98.1221 58.1694,102.0651 L56.0484,99.9441 C61.1614,94.8311 69.4814,94.8311 74.5944,99.9441 L72.4734,102.0651 Z" id="Fill-189" fill="#000000"></path>
            <path d="M59.5149,53.4889 C76.1469,53.4889 91.8889,57.2979 105.9179,64.0889 C105.0979,45.4339 92.7169,28.6829 75.1359,22.3999 C57.2999,16.0269 36.8639,21.4169 24.4499,35.6959 C17.6049,43.5699 13.5709,53.6649 13.1119,64.0889 C27.1409,57.2979 42.8829,53.4889 59.5149,53.4889" id="Fill-191" fill="#9FE2A2"></path>
            <path d="M42.7155,79.3141 C38.2865,79.3141 34.6825,75.7101 34.6825,71.2811 L37.6825,71.2811 C37.6825,74.0181 39.9785,76.3141 42.7155,76.3141 C45.4535,76.3141 47.7485,74.0181 47.7485,71.2811 L50.7485,71.2811 C50.7485,75.7101 47.1455,79.3141 42.7155,79.3141" id="Fill-193" fill="#000000"></path>
            <path d="M78.3992,79.3141 C73.9702,79.3141 70.3662,75.7101 70.3662,71.2811 L73.3662,71.2811 C73.3662,74.0181 75.6622,76.3141 78.3992,76.3141 C81.1372,76.3141 83.4322,74.0181 83.4322,71.2811 L86.4322,71.2811 C86.4322,75.7101 82.8292,79.3141 78.3992,79.3141" id="Fill-195" fill="#000000"></path>
            <polygon id="Fill-197" fill="#8C6150" points="1.627 241.621 25.571 241.621 25.571 217.678 1.627 217.678"></polygon>
            <polygon id="Fill-199" fill="#8C6150" points="93.607 241.621 117.551 241.621 117.551 217.678 93.607 217.678"></polygon>
            <path d="M117.2248,148.1217 L116.9848,147.9757 C110.0058,159.4447 99.8458,163.2287 99.7438,163.2657 L99.7918,163.4017 C104.0908,163.6587 108.8398,163.8247 114.0808,163.8737 C115.1618,162.9557 116.2638,161.9337 117.3678,160.7987 L117.2248,148.1217 Z" id="Fill-200" fill="#FF5500"></path>
            <path d="M109.9641,185.7242 C92.5601,185.2072 75.2971,181.4042 59.5261,173.9592 C42.9971,166.1572 28.3641,154.5682 16.4581,140.7412 C11.0961,134.5132 6.2241,127.8192 2.1021,120.7052 L1.9521,135.0952 C10.9191,147.6902 21.8681,158.9282 34.3661,168.0432 C46.6821,177.0272 60.4991,183.9052 75.1301,188.2052 C85.0511,191.1222 95.3071,192.8512 105.6281,193.4582 C107.2801,190.8692 108.7171,188.2622 109.9641,185.7242" id="Fill-201" fill="#9FE2A2"></path>
            <path d="M29.0378,181.525 C14.7508,169.979 5.2348,157.031 1.7778,151.956 L1.6418,165.079 C18.2348,185.76 40.6538,203.407 66.9958,209.151 C74.2208,210.726 81.6238,211.357 89.0108,211.016 C92.9398,208.348 96.3508,205.224 99.3108,201.879 C75.0308,206.44 51.4138,199.608 29.0378,181.525" id="Fill-202" fill="#FF5500"></path>
            <path d="M59.5149,135.8463 C53.7069,135.8463 48.1529,134.7713 43.0279,132.8253 C44.9529,140.2493 51.8439,145.5913 59.5149,145.5913 C67.1859,145.5913 74.0769,140.2493 76.0019,132.8253 C70.8769,134.7713 65.3229,135.8463 59.5149,135.8463" id="Fill-203" fill="#8C6150"></path>
            <path d="M45.5031,135.2575 C48.0561,140.5985 53.5951,144.0915 59.5141,144.0915 C65.4341,144.0915 70.9731,140.5985 73.5251,135.2575 C64.4571,138.0325 54.5711,138.0325 45.5031,135.2575 M59.5141,147.0915 C54.3881,147.0915 49.4121,144.9095 45.9261,141.1545 C43.0541,138.0625 41.8781,134.3705 40.8461,130.3925 C46.9131,132.6955 52.9651,134.3435 59.5141,134.3465 C66.0631,134.3495 72.1191,132.6945 78.1831,130.3925 C77.1511,134.3725 75.9721,138.0575 73.1031,141.1545 C69.6231,144.9115 64.6361,147.0915 59.5141,147.0915" id="Fill-204" fill="#000000"></path>
            <path d="M1.6272,153.8912 L1.6272,166.4452 L1.7892,150.8942 C1.6842,151.8792 1.6272,152.8782 1.6272,153.8912" id="Fill-205" fill="#FF5500"></path>
            <path d="M3.1272,166.4606 L0.1272,166.4446 C0.1272,161.2546 -0.2508,155.9056 0.2962,150.7356 L3.2882,150.9096 L3.1272,166.4606 Z" id="Fill-206" fill="#000000"></path>
            <path d="M92.4607,126.0211 C91.0727,125.8691 89.6847,125.8471 88.2907,125.8471 C84.6047,128.7601 80.4697,131.1271 76.0027,132.8251 C74.0767,140.2501 67.1857,145.5911 59.5147,145.5911 C51.8437,145.5911 44.9537,140.2501 43.0277,132.8251 C38.5597,131.1271 34.4247,128.7601 30.7387,125.8471 C29.0447,125.8471 27.3657,125.8941 25.6837,126.1341 C33.7807,136.6531 44.7377,146.3051 59.5597,153.2241 C73.5897,147.9581 84.3157,137.7281 92.4607,126.0211" id="Fill-207" fill="#FF5500"></path>
            <path d="M117.4021,163.8912 C111.2311,163.8912 105.7101,163.7342 100.7641,163.4572 C106.0241,163.8642 111.5621,164.0202 117.4021,163.8912" id="Fill-208" fill="#FF5500"></path>
            <path d="M113.4641,165.4352 C109.0931,165.4352 104.7981,165.2742 100.6481,164.9532 L100.8471,161.9592 C105.9871,162.2462 111.5571,162.3912 117.4021,162.3912 L117.4351,165.3912 C116.1061,165.4202 114.7811,165.4352 113.4641,165.4352" id="Fill-209" fill="#000000"></path>
            <path d="M95.108,240.122 L116.051,240.122 L116.051,219.178 L95.108,219.178 L95.108,240.122 Z M88.326,209.545 C62.094,210.609 37.733,198.48 18.729,181.124 C13.127,176.007 7.916,170.456 3.147,164.555 C3.175,161.898 3.202,159.241 3.23,156.583 C19.751,178.912 43.495,198.706 71.512,203.594 C79.253,204.946 87.178,205.095 94.968,204.085 C92.942,206.043 90.735,207.881 88.326,209.545 Z M92.107,216.177 L92.107,240.122 L27.071,240.122 L27.071,216.412 L27.071,211.168 C40.882,221.104 59.505,223.786 75.74,218.917 C80.586,217.463 85.179,215.295 89.395,212.5 L89.503,212.495 C90.392,211.897 91.255,211.263 92.107,210.616 L92.107,216.177 Z M13.695,192.366 C9.413,185.6 6.186,178.082 4.096,170.353 C19.139,187.787 38.284,202.603 60.645,209.095 C68.013,211.235 75.654,212.418 83.326,212.575 C65.192,222.11 41.322,219.432 25.638,206.318 C20.921,202.374 16.977,197.55 13.695,192.366 Z M24.071,216.177 L3.127,216.177 L3.127,177.331 C7.368,189.3 14.224,200.67 24.071,208.842 L24.071,208.843 L24.071,216.177 Z M3.127,240.122 L24.071,240.122 L24.071,219.178 L3.127,219.178 L3.127,240.122 Z M4.248,58.388 C4.248,34.857 20.136,13.017 42.533,5.791 C65.982,-1.774 92.693,7.806 105.997,28.534 C110.086,34.904 112.852,42.117 114.067,49.589 C114.843,54.368 114.781,59.155 114.781,63.975 C113.304,73.617 110.594,83.176 107.379,92.365 C107.843,84.825 107.47,77.174 107.47,69.624 L107.47,66.506 L107.527,66.534 L107.418,64.055 L107.416,63.147 L107.364,63.122 C106.173,44.169 93.51,27.303 75.596,20.96 C57.503,14.552 36.761,19.757 23.903,34.001 C16.68,42.002 12.342,52.367 11.666,63.122 L11.613,63.147 L11.612,64.054 L11.503,66.534 L11.559,66.506 C11.559,73.963 11.553,81.419 11.559,88.875 C11.562,92.435 11.882,95.98 12.622,99.467 C9.356,91.058 7.046,82.278 5.64,73.37 C4.863,68.436 4.246,63.392 4.248,58.388 Z M95.107,208.174 C98.101,205.549 100.701,202.572 103.333,199.597 L103.092,199.643 C104.26,198.141 105.358,196.593 106.408,195.007 L106.419,195.007 C108.623,191.553 110.533,187.967 112.338,184.293 L112.305,184.292 C113.663,181.354 114.864,178.342 115.902,175.276 L115.902,216.177 L95.107,216.177 L95.107,208.174 Z M3.406,139.59 C21.603,163.572 47.003,181.818 76.079,190.024 C84.816,192.489 93.799,194.059 102.847,194.762 C101.489,196.723 99.992,198.655 98.362,200.521 C83.429,203.196 68.139,201.251 54.222,195.272 C39.039,188.75 25.806,178.09 14.766,165.914 C10.64,161.362 6.764,156.559 3.282,151.495 L3.406,139.59 Z M29.672,127.346 L30.214,127.346 C33.777,130.109 37.667,132.334 41.794,133.973 C44.131,141.62 51.518,147.091 59.514,147.091 C67.519,147.091 74.912,141.609 77.243,133.952 C81.368,132.309 85.295,130.062 88.807,127.346 C89.069,127.346 89.331,127.346 89.593,127.348 C81.884,137.827 71.863,146.834 59.615,151.589 C47.65,145.911 37.03,137.627 28.651,127.369 C28.993,127.355 29.334,127.346 29.672,127.346 Z M25.891,123.585 C26.21,123.898 26.541,124.196 26.867,124.499 C26.722,124.513 26.578,124.53 26.433,124.546 C26.007,123.98 25.584,123.414 25.174,122.843 C25.414,123.09 25.645,123.342 25.891,123.585 Z M52.062,136.768 C59.21,137.88 66.599,137.367 73.518,135.25 C70.982,140.556 65.4,144.091 59.514,144.091 C53.643,144.091 48.072,140.573 45.53,135.285 C47.66,135.931 49.842,136.423 52.062,136.768 Z M14.618,91.701 C14.222,83.929 14.587,76.068 14.603,68.29 C14.605,67.208 14.608,66.126 14.61,65.044 C36.345,54.758 61.28,52.353 84.63,58.001 C91.443,59.649 98.086,62.047 104.42,65.044 C104.433,71.368 104.447,77.692 104.46,84.016 C104.467,86.883 104.546,89.763 104.298,92.623 C103.796,98.403 102.187,104.074 99.581,109.257 C94.446,119.474 85.495,127.636 74.756,131.615 C61.994,136.341 47.424,134.774 35.873,127.612 C23.449,119.91 15.362,106.309 14.618,91.702 L14.618,91.701 Z M107.468,187.129 C106.629,188.709 105.715,190.304 104.72,191.898 C87.845,190.787 71.229,186.557 55.975,179.231 C44.198,173.574 33.287,166.145 23.637,157.342 C16.142,150.506 9.368,142.865 3.457,134.621 L3.548,125.949 C20.756,152.797 47.226,173.813 78.093,182.473 C87.66,185.157 97.546,186.665 107.468,187.129 Z M89.405,163.648 C97.613,164.936 106.33,165.534 115.555,165.422 C114.824,168.672 112.9,175.995 108.963,184.182 C91.925,183.55 75.051,179.706 59.642,172.343 C43.558,164.658 29.307,153.343 17.685,139.864 C12.438,133.779 7.663,127.244 3.606,120.303 L4.013,80.983 C6.746,93.776 12.182,110.141 22.974,125.004 L22.927,125.01 C27.103,130.437 31.539,135.576 36.688,140.112 C42.476,145.212 48.912,149.554 55.78,153.063 C59.842,155.138 64.051,156.924 68.355,158.435 C75.023,161.236 82.273,162.654 89.405,163.648 Z M111.064,137.584 C104.514,147.63 96.724,155.283 87.902,160.361 C85.086,159.874 82.334,159.301 79.648,158.644 C98.739,150.695 110.409,130.445 115.407,119.813 C115.445,123.21 115.483,126.606 115.521,130.002 C114.135,132.624 112.635,135.172 111.064,137.584 Z M115.773,152.396 L115.861,160.192 C115.11,160.942 114.329,161.672 113.53,162.368 C110.711,162.337 107.891,162.269 105.073,162.158 C108.119,160.243 112.151,157.119 115.773,152.396 Z M115.704,147.195 C109.263,157.779 99.929,161.583 99.29,161.833 C97.152,161.644 95.045,161.415 92.972,161.138 C102.577,154.964 109.794,145.686 115.589,135.986 L115.714,147.178 L115.704,147.195 Z M15.062,59.453 C17.529,42.846 29.622,28.648 45.554,23.43 C62.304,17.945 81.119,23.031 92.901,36.095 C99.261,43.148 103.302,52.185 104.239,61.643 C82.265,51.639 57.056,49.341 33.614,55.104 C27.156,56.691 20.842,58.886 14.79,61.643 C14.863,60.913 14.953,60.179 15.062,59.453 Z M114.867,78.033 C114.889,77.949 114.914,77.858 114.935,77.774 L115.323,112.369 C114.252,115.297 101.229,149.248 74.555,157.273 C70.678,156.13 66.944,154.8 63.359,153.28 C76.807,147.278 86.848,136.715 95.133,124.806 L95.072,124.799 C104.473,110.647 110.698,94.44 114.867,78.033 Z M118.902,216.177 L118.902,165.391 L118.919,165.391 C118.865,160.61 119.223,155.738 118.758,150.976 L117.781,64.072 L117.767,64.071 C117.777,60.159 117.876,56.243 117.457,52.345 C116.806,46.285 115.174,40.339 112.675,34.78 C107.698,23.71 99.3,14.242 88.838,8.074 C66.871,-4.877 37.997,-1.308 19.483,16.106 C7.939,26.964 1.253,42.532 1.248,58.373 L0.126,166.568 L0.127,166.577 L0.127,199.093 L0.127,224.303 L0.126,243.122 L24.004,243.122 L40.955,243.122 L74.328,243.122 L92.19,243.122 L117.234,243.122 L119.051,243.122 L119.051,216.177 L118.902,216.177 Z" id="Fill-210" fill="#000000"></path>
        </g>
    </g>
</svg>