<svg id="Layer_1" data-name="Layer 1" xmlns="http://www.w3.org/2000/svg" viewBox="0 0 300 300"><defs><style>.cls-1{fill:#dda812;}.cls-2{fill:#f50;}.cls-3{fill:#8c6150;}.cls-4{fill:#ffaee4;}.cls-5{fill:#9fe2a2;}.cls-6{fill:#fff;}</style></defs><title>portland_characters</title><path class="cls-1" d="M207.74,187.27c-.37-34.79.25-69.73-1.11-104.49-1.16-29.45-22-55.3-52.6-57.62-32.22-2.45-61.19,24.66-60.94,57,0-.24,0-.37,0-.37-.35,34.2-2.22,68.72-1.06,102.9.86,25.41,19.46,51,44.66,57.16,35.66,8.7,65-21.62,71.06-54.56ZM133.52,166.8c-.85-2.85.76-7.1-.57-9.71-1.54-3-8.83-5.45-12-7.93a46.66,46.66,0,0,1-6.4-6.17,42.71,42.71,0,0,1-8.43-14.4c-8.92-27.39-3.6-68.23,25.32-81.57,65.78-30.33,91,85.3,35.42,109-3.54,1.51.34,7.87-1,11.56l-16,9.06Z"/><path class="cls-1" d="M134.06,167.2c.9.66,1.81,1.32,2.74,2C135.87,168.52,135,167.86,134.06,167.2Z"/><path class="cls-1" d="M134.06,167.2l-.54-.4v0C133.7,167,133.89,167.07,134.06,167.2Z"/><path class="cls-2" d="M183.94,275V251.06h23.8V187.27c-3.43,18.63-13.77,38.11-30.14,48.26-27.82,17.24-62.37,4.12-77.29-23.15A79,79,0,0,1,92,189.82v61.24h24V275h68Z"/><path d="M149.85,160.72a48,48,0,0,1-47.95-47.95V89.54c0-1.47,0-2.17,0-2.19l.07-.86.78-.37a108.93,108.93,0,0,1,94.11,0l.77.37.07.86s.06.72.06,2.19v23.23A48,48,0,0,1,149.85,160.72ZM104.91,88.43c0,.29,0,.66,0,1.11v23.23c0,24.46,20.49,45,44.95,45s45-20.49,45-44.95V89.54c0-.45,0-.82,0-1.11A105.86,105.86,0,0,0,104.91,88.43Z"/><path class="cls-3" d="M196.25,87.47a107.43,107.43,0,0,0-92.8,0s0,.64,0,2.07v23.23A46.45,46.45,0,0,0,132.8,156h0v5.94a17.23,17.23,0,0,0,.72,4.9,93.58,93.58,0,0,0,16.39,9.78,61.14,61.14,0,0,0,16-9.06,16.87,16.87,0,0,0,1-5.62V156a46.46,46.46,0,0,0,29.41-43.21V89.54C196.31,88.11,196.25,87.47,196.25,87.47Z"/><path class="cls-4" d="M207.19,134.69s-13.56,39.64-42.8,47.69l.27,1a114,114,0,0,0,13.2,2.34c9.39-5.13,17.83-13.22,24.8-23.9,1.82-2.8,3.38-5.52,4.7-8Z"/><rect class="cls-3" x="91.96" y="251.06" width="23.94" height="23.94"/><rect class="cls-3" x="183.94" y="251.06" width="23.94" height="23.94"/><path class="cls-2" d="M207.56,171.5l-.24-.15a37.75,37.75,0,0,1-17.24,15.29l0,.14c4.3.26,9.05.42,14.29.47,1.08-.92,2.18-1.94,3.28-3.07Z"/><path class="cls-5" d="M200.3,209.1c-32.13-.95-60.23-12.57-83.58-34.58a138.12,138.12,0,0,1-24.28-30.44l-.15,14.39a147.76,147.76,0,0,0,18.76,21.58A133.34,133.34,0,0,0,196,216.84,78.81,78.81,0,0,0,200.3,209.1Z"/><path class="cls-2" d="M119.37,204.9a143.83,143.83,0,0,1-27.26-29.57L92,188.46c21.21,26.44,52.25,47.56,87.37,45.93a55,55,0,0,0,10.3-9.13C165.37,229.82,141.75,223,119.37,204.9Z"/><path class="cls-2" d="M92,187.27v2.55l.05-4.07C92,186.25,92,186.76,92,187.27Z"/><path d="M93.46,189.84l-3,0v-2.55c0-.54,0-1.07.05-1.6l3,.1Z"/><path class="cls-2" d="M149.85,76.87a106.22,106.22,0,0,1,46.4,10.6c-1.07-24.5-21.89-44.38-46.4-44.38S104.53,63,103.45,87.47A106.22,106.22,0,0,1,149.85,76.87Z"/><path d="M209.24,249.56l0-63.82-.36-32-.24-27.89-.07.19-.43-38.64h0l0-5.68c0-31.72-26.56-58.27-58.27-58.27S91.59,50,91.58,81.75h0L91,138.6h0L90.78,159h0l-.12,11.59h0L90.47,189h0V276.5H209.39V249.56Zm-12.62-36.71-.2.34c-.36.62-.72,1.22-1.08,1.81l-.18.28A132.06,132.06,0,0,1,112.08,179a147,147,0,0,1-18.29-21l.09-8.67a141.87,141.87,0,0,0,21.82,26.28c23,21.71,50.67,33.45,82.2,34.9C197.48,211.3,197.06,212.08,196.62,212.85ZM110,181.14a135,135,0,0,0,83.27,37,66.4,66.4,0,0,1-4.4,5.72c-23.66,4.29-46.72-2.48-68.57-20.13a142.09,142.09,0,0,1-26.7-28.87l.12-11.9A149.28,149.28,0,0,0,110,181.14Zm-16.54,6.79,0-3.65,0-4.32a145.54,145.54,0,0,0,24.86,26.11c21.35,17.26,43.89,24.43,67.06,21.37a53,53,0,0,1-6.64,5.48c-23.52,1-45.67-8.55-63.7-23.17A149.59,149.59,0,0,1,93.48,187.93Zm92,43.62c.56-.48,1.09-1,1.63-1.5l.27-.26c.52-.5,1-1,1.54-1.53.23-.23.45-.47.67-.71.41-.43.82-.85,1.22-1.3l2.9-3.27-.24,0q1.73-2.21,3.32-4.63h0l.47-.75c.18-.28.35-.57.53-.86s.35-.54.52-.82l.11-.19.33-.58.8-1.37.15-.27c.24-.43.46-.86.69-1.29.1-.17.19-.35.29-.53a2.12,2.12,0,0,1,.11-.21l.18-.34c.2-.39.38-.77.57-1.15l.14-.27.13-.27c.05-.1.11-.2.15-.3L202,209l.65-1.34h0c.12-.27.26-.54.37-.8l0,0q.45-1,.87-2a1.19,1.19,0,0,0,.08-.2c.27-.63.52-1.26.76-1.88,0-.09.08-.19.11-.28.24-.61.46-1.2.68-1.78l.09-.26c.21-.6.42-1.18.61-1.74v50.88h-20.8Zm-2.6-47.13a74.16,74.16,0,0,0,21.07-21.82c.69-1,1.36-2.14,2-3.24l.12,11.2h0a36.94,36.94,0,0,1-16.35,14.62C187.37,185,185.09,184.73,182.84,184.42Zm23-31c-6.44,12.18-15.52,23.38-27.57,30.33Q174,183,170,182c16.84-7.15,28.36-23.68,35.72-39.79Zm-2.51,32.36-2.92-.05-1.2,0-3-.1-.8,0a41.12,41.12,0,0,0,10.7-9.77l0,2.28.06,5.52c-.75.75-1.53,1.48-2.33,2.17Zm1.92-84.59.38,33.41c-1.37,3.75-14.58,38.13-40.69,46.07a104.87,104.87,0,0,1-11.24-4l.27-.13.33-.15,1-.49.77-.38.65-.33.42-.22.23-.12.28-.14a65.28,65.28,0,0,0,9.16-6l.35-.27,0-.07c1-.82,2-1.67,3-2.55.6-.53,1.2-1.07,1.79-1.63.36-.33.71-.68,1.06-1,.54-.53,1.07-1.06,1.59-1.61l1-1c.78-.83,1.55-1.69,2.31-2.57l.78-.93c.55-.66,1.1-1.33,1.64-2l.9-1.15c.55-.71,1.09-1.44,1.62-2.18.23-.32.47-.62.69-1,.73-1,1.45-2.08,2.16-3.16.22-.33.43-.68.65-1,.52-.82,1-1.65,1.56-2.5.23-.39.47-.78.7-1.18.58-1,1.16-2,1.73-3,.11-.2.23-.4.34-.61.67-1.24,1.33-2.5,2-3.78l.54-1.09q.74-1.48,1.44-3c.18-.38.36-.76.53-1.15,1.11-2.45,2.16-4.93,3.13-7.43l.11-.26c.4-1,.78-2,1.15-3.06l.15-.41c.36-1,.7-2,1-2.91.06-.15.11-.3.16-.45.32-1,.64-1.9.93-2.82.05-.14.09-.28.14-.42.3-.93.59-1.85.86-2.76,0-.1.06-.21.1-.32.28-.93.54-1.84.8-2.73l0-.12q.38-1.32.72-2.58l.06-.22.61-2.36Zm-73.92,62a89.53,89.53,0,0,1-15.87-17A48.06,48.06,0,0,0,131.3,157v4.94C131.3,162.34,131.32,162.75,131.35,163.17Zm-26.45-50.4V89.54c0-.45,0-.81,0-1.1a105.86,105.86,0,0,1,89.88,0c0,.29,0,.65,0,1.1v23.23a45,45,0,0,1-28.9,42l-1.19.44-.81.27-1.22.39-.88.25-1.18.31-1,.22q-.56.13-1.11.24l-1.1.2-1,.17-1.24.16-.92.11-1.44.11-.76,0a47.3,47.3,0,0,1-5.19,0l-1.44-.11-.93-.11-1.23-.16-1-.17-1.1-.2q-.56-.1-1.11-.24l-1-.22-1.18-.31-.87-.25-1.23-.39-.81-.27-1.19-.44A45,45,0,0,1,104.9,112.77ZM105.13,85c.08-.68.16-1.36.25-2,.06-.44.14-.87.21-1.29s.09-.57.15-.85c.1-.51.21-1,.33-1.51,0-.2.08-.39.13-.59.17-.69.35-1.37.55-2,.06-.2.13-.4.19-.6.15-.47.3-.95.46-1.42.09-.26.19-.52.29-.78s.29-.8.45-1.19.23-.55.35-.82.31-.74.48-1.11.26-.55.4-.83.33-.7.51-1,.3-.55.45-.83.36-.66.55-1,.32-.55.49-.82.38-.64.58-1,.36-.53.53-.8.41-.61.63-.91.38-.53.57-.79.43-.58.66-.87.4-.51.61-.76.46-.57.69-.84c.45-.52.91-1,1.38-1.54.22-.24.45-.47.67-.7l.77-.77c.23-.23.47-.45.71-.67s.53-.49.8-.73l.74-.65.83-.69.77-.61c.54-.42,1.1-.82,1.66-1.22.3-.21.59-.41.9-.61s.54-.37.82-.54.61-.38.92-.57l.85-.5,1-.53c.28-.16.57-.31.87-.46l1-.49c.63-.31,1.26-.6,1.91-.86l.9-.38,1-.4.92-.34,1.08-.35q1-.33,2-.6l.93-.25,1.16-.25.93-.2,1.2-.21c.31-.05.61-.11.92-.15l1.28-.16.87-.1c.48,0,1-.08,1.45-.11a46.57,46.57,0,0,1,5.15,0l.72,0c.49,0,1,.06,1.46.11l.86.1,1.3.16c.3,0,.59.1.89.15l1.23.21.9.19,1.19.27.9.23,1.15.32.88.28,1.13.37c.66.23,1.32.48,2,.74l.83.34,1.1.48.79.38c.37.17.74.35,1.1.54l.75.4c.36.19.73.39,1.09.6l.7.42c.36.21.73.44,1.09.67l.65.42c.36.25.73.49,1.08.75l.6.43c.37.26.73.54,1.09.82l.54.42c.36.3.73.6,1.08.91l.49.41,1.08,1,.42.39c.37.36.73.73,1.09,1.1l.35.36c.37.4.74.8,1.09,1.2l.29.33c.37.43.73.87,1.09,1.32l.21.27c.38.47.74,1,1.1,1.46l.14.19c.38.53.74,1.07,1.1,1.62l.06.09a44.74,44.74,0,0,1,6.7,17.94c0,.13,0,.26,0,.39.06.52.13,1,.18,1.55A108.88,108.88,0,0,0,105.13,85Zm75.94,64.12,0,0c-.45.64-.91,1.27-1.37,1.9l-.12.15c-.43.58-.87,1.16-1.32,1.73l-.18.23c-.44.55-.88,1.11-1.33,1.65l-.14.16c-.48.58-1,1.15-1.46,1.71l0,0a77.93,77.93,0,0,1-6.77,6.83c0-.55.07-1.1.07-1.65V157A48,48,0,0,0,181.07,149.14Zm-46.77,9,.49.16,1,.33c.38.12.76.22,1.14.33l1,.27c.58.15,1.16.28,1.75.41l.69.14c.61.13,1.22.24,1.84.34l.76.11,1.51.2.8.08c.53.05,1,.09,1.58.12l.71,0c1.47.07,2.94.07,4.41,0l.7-.05,1.39-.09.85-.09,1.21-.14.93-.14,1.1-.17,1-.19c.33-.07.66-.13,1-.21s.72-.16,1.07-.24l.87-.23,1.15-.31.77-.24,1.19-.38.21-.07v3.79a15.58,15.58,0,0,1-.71,4.66,60.15,60.15,0,0,1-7.5,5l-.64.35c-.48.26-1,.52-1.44.76l-.36.18-.49.24-1.38.65-.12.06-.76.34-1.48.61L150,175c-1.27-.6-2.51-1.23-3.74-1.88l-.55-.3c-1.12-.6-2.22-1.23-3.31-1.87l-.33-.19c-1.1-.66-2.17-1.34-3.24-2l-1.1-.75-1.9-1.33-1-.71a15.73,15.73,0,0,1-.52-4ZM94.58,81.77c0-30.08,25.19-55.27,55.27-55.27s55.27,25.19,55.27,55.27v5.58c0,.09,0,.24-.07.43v0c0,.09,0,.2,0,.31v0c0,.13,0,.27-.07.42v0c-.05.33-.12.71-.2,1.14l0,.13c0,.17-.06.34-.1.53l0,.18c0,.2-.08.4-.12.62l0,.13c0,.27-.11.55-.17.84h0c-.05.28-.11.56-.18.86a1.55,1.55,0,0,1,0,.23l-.15.73-.06.26c-.05.26-.11.53-.17.8l-.3,1.32v0c-.08.35-.17.71-.26,1.07a2.82,2.82,0,0,1-.07.31l-.21.88-.09.36-.24.94c0,.11-.05.21-.07.31-.11.42-.22.86-.34,1.3v.05c-.11.42-.23.84-.34,1.27,0,.12-.07.24-.1.36-.09.34-.19.68-.28,1l-.12.42-.3,1.06c0,.12-.07.25-.11.37-.28,1-.57,2-.88,3,0,.14-.09.28-.13.42-.12.36-.23.74-.35,1.11-.05.16-.1.32-.16.49-.12.38-.24.76-.37,1.14,0,.15-.09.29-.14.43-.32,1-.66,2-1,3,.06-1,.09-2,.09-3V89.88l.05,0-.07-1.65c0-.58,0-.86,0-.86h0c-1.15-26.27-24.06-47-50.3-45.76A47.83,47.83,0,0,0,102,87.35s0,.31,0,.9l-.07,1.66.06,0v22.89A48,48,0,0,0,103,122.86a126.18,126.18,0,0,1-5.85-19.92c-.07-.33-.14-.65-.2-1l-.06-.31a113.57,113.57,0,0,1-2.27-19.78Zm28.6,78.14a92.3,92.3,0,0,0,22.92,16.52l-.07,0,2,.93c12,5.8,25.69,9.4,41,10.78l0,.06,1,.06,1.18.06q7.11.54,14.68.46v0l-.17.73c0,.06,0,.13-.05.19-.06.25-.12.51-.19.78l0,.15-.25,1c0,.09,0,.19-.08.28-.09.35-.19.71-.29,1.09l-.06.17c-.13.46-.26.92-.4,1.38s-.25.83-.39,1.26l-.09.31-.38,1.15-.11.32c-.16.46-.32.93-.49,1.4s-.43,1.18-.65,1.77c0,.06,0,.13-.07.2-.25.66-.52,1.32-.78,2l-.67,1.6-.12.28c-.21.48-.43,1-.65,1.45-.06.14-.13.27-.19.41-.13.29-.27.58-.41.86C155.65,206,116,181.4,93.94,143.68l.41-39.32C97.82,120.58,105.62,142.54,123.18,159.91ZM114.41,273.5h-21V252.56h21Zm0-23.94h-21V200.71l0,0c.19.52.38,1.06.59,1.61l.12.31c.2.54.42,1.09.65,1.64,0,.12.09.23.14.35.23.57.48,1.15.73,1.73l.12.27c.26.59.53,1.19.81,1.79a.91.91,0,0,0,.07.14q.53,1.11,1.08,2.22c.31.61.64,1.23,1,1.86L99,213c.34.63.7,1.27,1.07,1.91.06.09.11.19.17.29.4.67.81,1.35,1.23,2a63.4,63.4,0,0,0,13,14.95ZM104,215.74c-.25-.39-.49-.78-.73-1.18s-.47-.78-.7-1.18l-.26-.46c-.14-.24-.28-.48-.41-.72s-.18-.32-.26-.48-.26-.46-.38-.69l-.6-1.16c-.09-.17-.18-.34-.26-.51s-.22-.43-.32-.65l-.25-.5c-.1-.22-.21-.43-.31-.64l-.23-.5-.29-.63-.22-.49-.28-.63c-.07-.15-.13-.31-.2-.47l-.27-.62c-.06-.16-.13-.31-.19-.47-.14-.35-.29-.7-.43-1.06l-.24-.6-.16-.43-.23-.6-.15-.41c-.08-.2-.15-.39-.22-.59s-.09-.26-.14-.39l-.21-.6-.12-.34c-.07-.22-.14-.42-.21-.63l-.09-.29c-.08-.23-.15-.45-.22-.67,0-.07,0-.14-.07-.21-.18-.58-.35-1.12-.5-1.65a2.17,2.17,0,0,1-.07-.24c-.08-.26-.16-.52-.23-.79l-.12-.44,0-.09a148.65,148.65,0,0,0,18.83,18.35c19.1,15.49,39.49,23.5,60.64,23.88C148.79,249.15,118.71,238.93,104,215.74Zm78.41,57.76h-65V234.55c17.92,12.89,43.89,13.57,62.33,1.33h.1l.35-.23c.76-.52,1.51-1.08,2.25-1.65V273.5Zm23.95,0H185.44V252.56h20.95Z"/><path class="cls-6" d="M161.54,118.58a11.62,11.62,0,0,1-23.23,0Z"/><path d="M149.93,131.69a13.13,13.13,0,0,1-13.12-13.11v-1.5H163v1.5A13.12,13.12,0,0,1,149.93,131.69Zm-10-11.61a10.12,10.12,0,0,0,20,0Z"/><path d="M141.16,94.66h-3a5,5,0,0,0-10.07,0h-3a8,8,0,0,1,16.07,0Z"/><path d="M176.84,94.66h-3a5,5,0,1,0-10.06,0h-3a8,8,0,1,1,16.06,0Z"/><path class="cls-5" d="M202.92,190l-5.54-3.6L195.67,180l-6.59.35-5.14-4.15-5.13,4.15-6.59-.35-1.71,6.38L165,190l2.37,6.17L165,202.35l5.54,3.6,1.71,6.38,6.59-.35,5.13,4.16,5.14-4.16,6.59.35,1.71-6.38,5.54-3.6-2.37-6.16Zm-19,14a7.84,7.84,0,1,1,7.84-7.83A7.84,7.84,0,0,1,183.94,204Z"/><polygon class="cls-4" points="195.67 212.33 189.08 211.99 183.94 216.13 178.81 211.99 172.22 212.33 170.89 207.37 170.89 245.8 183.94 234.05 197 245.8 197 207.37 195.67 212.33"/><circle class="cls-2" cx="183.94" cy="196.19" r="7.83"/><path d="M183.94,205.52a9.34,9.34,0,1,1,9.34-9.33A9.34,9.34,0,0,1,183.94,205.52Zm0-15.66a6.33,6.33,0,1,0,6.33,6.33A6.33,6.33,0,0,0,183.94,189.86Z"/><path d="M204.76,189.42l-6.07-3.94-1.88-7-7.23.37-5.64-4.55-5.63,4.55-7.23-.37-1.88,7-6.08,3.94,2.6,6.77-2.6,6.76,6.08,3.94.18.68v41.61l14.56-13.11,14.56,13.11V207.57l.19-.68,6.07-3.94-2.6-6.76ZM183.94,232l-11.55,10.39v-28.6l5.92-.3,5.63,4.55,5.64-4.55,5.92.3v28.6Zm17.14-30.28-5,3.25-1.55,5.76-5.95-.31-4.64,3.75-4.63-3.75-6,.31L171.81,205l-5-3.25,2.14-5.56-2.14-5.57,5-3.25,1.54-5.76,6,.31,4.63-3.75,4.64,3.75,5.95-.31,1.55,5.76,5,3.25-2.14,5.57Z"/></svg>