<?xml version="1.0" encoding="UTF-8"?>
<svg width="175px" height="175px" viewBox="0 0 175 175" version="1.1" xmlns="http://www.w3.org/2000/svg" xmlns:xlink="http://www.w3.org/1999/xlink">
    <!-- Generator: sketchtool 50.2 (55047) - http://www.bohemiancoding.com/sketch -->
    <title>E9DAC61B-D08B-431F-BD81-6B7867000775</title>
    <desc>Created with sketchtool.</desc>
    <defs>
        <circle id="path-1" cx="87.5" cy="87.5" r="87.5"></circle>
    </defs>
    <g id="Symbols" stroke="none" stroke-width="1" fill="none" fill-rule="evenodd">
        <g id="characters" transform="translate(-83.000000, -330.000000)">
            <g id="PLAYER-/-fawzia_win" transform="translate(83.000000, 330.000000)">
                <mask id="mask-2" fill="white">
                    <use xlink:href="#path-1"></use>
                </mask>
                <use id="Mask" fill="#FFFFFF" xlink:href="#path-1"></use>
                <g id="fawzia_win" mask="url(#mask-2)">
                    <g transform="translate(48.000000, 10.000000)">
                        <path d="M29.5125266,95.9124315 C28.8570644,93.7178861 30.356224,90.9293485 28.8617703,88.9719967 C27.5797534,87.2928268 25.1649635,86.4240125 23.3612661,85.4570955 C18.5155518,82.86006 14.5881568,77.9898623 12.2574005,73.0753169 C10.34614,69.0436963 9.4358879,64.4308505 8.90412319,60.0256331 C8.37975345,55.6755145 8.33000555,51.2642497 8.77303076,46.9040521 C9.6456358,38.330139 12.4617703,29.628558 18.1538711,23.0113248 C23.1905097,17.1560679 30.5202576,13.4731825 38.1310139,12.3544078 C43.7706778,11.5245659 49.5320224,12.4431035 54.5074845,15.2672537 C59.3451316,18.0141311 63.1589131,22.2795857 65.9468123,27.046305 C68.9874845,32.2437359 70.8926946,38.0842102 71.8298375,44.0194276 C72.7958879,50.1333801 72.74614,56.4408505 71.5367282,62.5185185 C70.3689971,68.3851983 68.0846274,74.0919572 64.4476526,78.875475 C62.6473165,81.2427082 60.523619,83.3626687 58.1283249,85.1278465 C56.8967282,86.0349612 55.5965602,86.8480046 54.2426106,87.5589137 C52.8382408,88.2973722 50.9673165,88.6024315 50.9269803,90.4905738 C50.8852997,92.4284394 51.9864761,94.4973327 51.3168963,96.4096647 L40.5310139,102.497412 L29.5125266,95.9124315 Z M79.4096694,109.667649 C79.2389131,93.6036568 79.3834509,77.5389928 79.1938711,61.4756726 C79.1024425,53.6785185 79.1427787,45.810139 78.5841232,38.0291114 C78.1928627,32.5850797 76.7817703,27.2149612 74.3952156,22.3031035 C69.7007618,12.6406529 61.2120224,5.0444078 50.8167282,2.07444733 C39.9716862,-1.02385307 28.2768963,1.10417065 19.0567282,7.53863705 C10.0469803,13.8272932 3.74849294,23.8505738 2.54580387,34.8226291 C2.39252655,36.2182418 2.32126605,37.6232616 2.33202235,39.0276094 C2.33067781,38.8663446 2.33135008,38.776305 2.33135008,38.776305 C2.17067781,54.2751983 1.54882908,69.7660284 1.39555176,85.2649216 C1.31958538,92.942471 1.28193832,100.644882 1.62950134,108.316384 C1.88361899,113.918321 3.39622403,119.433578 5.85135008,124.465712 C10.7663081,134.539388 19.6483249,143.006463 30.5901736,146.053696 C41.1669803,148.999467 52.2647955,146.590574 61.0056358,140.065396 C69.6375686,133.62085 75.7310139,123.930179 78.5209299,113.587728 C78.8698375,112.293578 79.1669803,110.985989 79.4096694,109.667649 Z" id="Fill-9" fill="#DDA812"></path>
                        <path d="M29.5798319,96.0869565 C30.1815126,96.5304348 30.7919328,96.9685375 31.4198319,97.3965613 C30.7919328,96.9685375 30.1821849,96.5297628 29.5798319,96.0869565" id="Fill-11" fill="#DDA812"></path>
                        <path d="M29.9468908,96.3590909 C29.8238655,96.2683794 29.7015126,96.177668 29.5798319,96.0869565 C29.5811765,96.0909881 29.5818487,96.0950198 29.5831933,96.0997233 C29.7008403,96.188419 29.8278992,96.2710672 29.9468908,96.3590909" id="Fill-13" fill="#DDA812"></path>
                        <path d="M63.1798319,168.474704 L63.1798319,152.386522 L79.1764706,152.386522 L79.1764706,109.525692 C76.410084,124.558261 67.2813445,139.735296 52.3421849,145.142372 C38.9505882,149.990395 23.947563,145.626166 14.010084,135.76751 C7.43394958,129.244348 3.09243697,120.288103 1.34453782,111.241146 L1.34453782,152.386522 L17.4413445,152.386522 L17.4413445,168.474704 L79.1764706,168.474704 L63.1798319,168.474704 Z" id="Fill-15" fill="#FF5500"></path>
                        <path d="M10.1499427,43.6529329 C10.0134722,49.0680712 10.1250688,54.5020238 10.1412033,59.918506 C10.1714554,69.9881503 15.3808671,79.4886641 23.7304469,85.0966483 C32.6124638,91.0614309 44.1788503,91.8395337 53.740531,87.0042768 C62.9862453,82.3289408 69.5375058,72.9843163 70.4679259,62.6338025 C70.7173377,59.8580317 70.585573,57.0244744 70.585573,54.2419843 C70.585573,51.0959764 70.5869175,47.9499685 70.585573,44.8032886 C70.585573,44.4202847 70.5869175,44.0359369 70.5768335,43.6529329 C51.6370016,34.684593 29.0897747,34.683921 10.1499427,43.6529329 M40.363052,92.2299289 C29.1785142,92.2299289 18.5889343,86.2335653 12.7865814,76.6833282 C9.85885031,71.8648697 8.24540493,66.303921 8.13179149,60.6683874 C8.07330409,57.7864507 8.12439653,54.8984665 8.12439653,52.0158578 C8.12439653,48.8120633 7.95027888,45.5464507 8.20977468,42.3493756 C24.0578419,34.6892965 42.3133041,32.8428143 59.3465814,37.4012333 C63.8951528,38.6187827 68.2803629,40.3013123 72.5170016,42.3493756 C72.7348167,45.0263716 72.6023797,47.7544349 72.6023797,50.4381503 C72.6023797,53.5928934 72.6111192,56.7476365 72.6023797,59.9030515 C72.5727999,70.6654625 67.1744806,80.8587432 58.1963293,86.8389803 C52.9351528,90.3438025 46.6850688,92.2299289 40.363052,92.2299289" id="Fill-17" fill="#000000"></path>
                        <path d="M71.1990297,42.6906621 C51.6918028,33.2533103 28.3156683,33.2533103 8.80844142,42.6906621 C8.67734898,44.6802668 8.77348344,46.7054842 8.77348344,48.6964328 L8.77348344,57.884496 C8.77348344,60.9411364 8.90860949,63.9541008 9.62121453,66.9455632 C10.7190297,71.5523617 12.8857523,75.8829941 15.9008784,79.5356423 C19.2568448,83.5995158 23.6360044,86.7918874 28.5402061,88.7277372 C28.5402061,91.1399901 28.3250801,93.6731917 29.0262565,96.0101877 C32.2901221,98.4526779 35.9479372,100.670741 40.0407103,102.581729 C44.0191977,101.088014 47.6010465,98.9989625 50.8265927,96.4946542 C51.6958364,94.0131917 51.4672649,91.3153656 51.4672649,88.7277372 C60.2470969,85.2605435 67.1492818,77.7986858 69.8928112,68.7678557 C71.7355002,62.7009387 71.2339876,56.2026383 71.2339876,49.9401877 C71.2339876,47.53667 71.3576851,45.0914921 71.1990297,42.6906621" id="Fill-19" fill="#8C6150"></path>
                        <path d="M78.5223529,74.5849802 C78.5223529,74.5849802 69.4043697,101.216522 49.7478992,106.6283 L49.9260504,107.275375 C52.2998319,107.858617 55.2194958,108.404229 58.8,108.847036 C67.5287395,104.084348 74.072605,96.0856126 78.6359664,87.3867194 L78.5223529,74.5849802 Z" id="Fill-21" fill="#FFAEE4"></path>
                        <polygon id="Fill-23" fill="#8C6150" points="1.34453782 168.617826 17.4413445 168.617826 17.4413445 152.529644 1.34453782 152.529644"></polygon>
                        <polygon id="Fill-25" fill="#8C6150" points="63.1932773 168.617826 79.290084 168.617826 79.290084 152.529644 63.1932773 152.529644"></polygon>
                        <path d="M78.9788235,99.5447431 L78.817479,99.4466403 C74.1257143,107.153083 67.2954622,109.695692 67.2268908,109.720553 L67.2591597,109.811937 C70.1492437,109.984625 73.3418487,110.096166 76.8652101,110.129091 C77.5919328,109.512253 78.3327731,108.825534 79.074958,108.062885 L78.9788235,99.5447431 Z" id="Fill-26" fill="#FF5500"></path>
                        <path d="M73.9576471,124.321067 C62.257479,123.973676 50.6521008,121.4183 40.0497479,116.415731 C28.9378151,111.172609 19.1005042,103.386206 11.0964706,94.095336 C7.49176471,89.9105138 4.21647059,85.4125692 1.44537815,80.6324111 L1.34453782,90.301581 C7.37277311,98.7646245 14.7334454,106.31585 23.1354622,112.440553 C31.4151261,118.477233 40.7038655,123.098814 50.5391597,125.988142 C57.2094118,127.948182 64.1042017,129.10996 71.0426891,129.517826 C72.1532773,127.778182 73.1193277,126.026443 73.9576471,124.321067" id="Fill-27" fill="#9FE2A2"></path>
                        <path d="M19.7620168,122.002885 C10.1566387,114.244704 3.76,105.544466 1.43596639,102.134387 L1.34453782,110.952213 C15.6067227,128.720237 36.4739496,142.908182 60.08,141.818972 C62.7213445,140.025573 65.0144538,137.927115 67.0043697,135.679486 C50.6816807,138.74419 34.8047059,134.153518 19.7620168,122.002885" id="Fill-28" fill="#FF5500"></path>
                        <path d="M1.34453782,109.874427 L1.34453782,111.590553 L1.37277311,108.853755 C1.35529412,109.191739 1.34453782,109.531739 1.34453782,109.874427" id="Fill-29" fill="#FF5500"></path>
                        <path d="M2.02079054,111.655059 L0.00398381575,111.644308 C0.00398381575,110.71502 -0.0161842515,109.782372 0.0342359166,108.853755 L2.04902583,108.918933 L2.02079054,111.655059 Z" id="Fill-30" fill="#000000"></path>
                        <path d="M39.9347899,35.4206089 C51.1159664,35.4206089 61.6988235,37.980016 71.130084,42.5431386 C70.5794958,30.0410832 62.0759664,18.8136919 50.3529412,14.5596603 C38.4020168,10.2229805 24.8631933,13.9703718 16.5109244,23.4594627 C11.867563,28.7348382 9.0487395,35.5119923 8.7394958,42.5431386 C18.1707563,37.980016 28.7536134,35.4206089 39.9347899,35.4206089" id="Fill-31" fill="#9FE2A2"></path>
                        <path d="M63.8842546,167.973983 L77.9635824,167.973983 L77.9635824,153.901612 L63.8842546,153.901612 L63.8842546,167.973983 Z M61.8667756,167.973983 L18.145095,167.973983 L18.145095,147.862916 L18.145095,141.80003 C30.1948429,150.465327 47.6550109,150.918884 60.0462714,142.694378 L60.1161874,142.691019 C60.7131622,142.287857 61.2933303,141.863864 61.8667756,141.427778 L61.8667756,163.123272 L61.8667756,167.973983 Z M9.15282606,129.165604 C6.2741706,124.619951 4.10475884,119.566987 2.70038909,114.374932 C13.4311454,126.80509 27.3612294,137.306789 43.5615656,141.159003 C47.6765235,142.137343 51.8936664,142.673548 56.1222378,142.748805 C39.2395488,151.613667 19.0177,144.743785 9.15282606,129.165604 Z M16.1282882,151.885801 L2.04896052,151.885801 L2.04896052,119.063034 C4.91887648,127.108805 9.49971682,134.737975 16.1282882,140.237778 L16.1282882,151.885801 Z M2.04828825,167.973983 L16.1282882,167.973983 L16.1282882,153.901612 L2.04828825,153.901612 L2.04828825,167.973983 Z M22.0281202,91.6453269 C26.5504731,96.1137064 31.6940025,99.8140621 37.4338345,102.746394 L37.390137,102.762521 C41.4378681,104.650663 45.507784,106.362758 49.8069437,107.606513 C55.1837504,109.16339 60.7205572,110.128963 66.2929941,110.632244 L66.3064395,110.670544 C66.7924899,110.699438 67.2785404,110.724971 67.765263,110.751849 C70.9545067,110.993074 74.2405572,111.101928 77.6334983,111.062283 C76.6593807,115.407027 75.160221,119.650307 73.2469437,123.668489 C43.8540025,122.594734 17.1931622,106.091295 2.37030506,80.7444969 L2.64459077,54.3232716 C4.97400253,65.2220858 10.2190446,79.9791609 22.0281202,91.6453269 Z M2.80190169,39.1408605 C2.80190169,22.7066313 14.4086244,7.781572 30.182742,3.35283682 C46.1491286,-1.1296533 63.3659353,6.21461548 71.8419017,20.3138645 C74.1619017,24.1727973 75.7813975,28.4483309 76.5632462,32.8837854 C77.1487925,36.2071846 77.1098009,39.5366313 77.1098009,42.8956431 C76.1148429,49.3690819 74.2950109,55.7887657 72.1343387,61.9605048 C72.4442546,56.8967894 72.1948429,51.7605048 72.1948429,46.690742 L72.1948429,44.5963151 L72.2331622,44.6144574 C72.2291286,44.5210582 72.1706412,42.9265522 72.1592126,42.9265522 C71.5871118,29.9413744 62.7494647,18.3329949 50.5444227,13.9875799 C38.2445908,9.60856805 24.1484563,13.3788052 15.5958513,23.2125997 C10.8489605,28.670742 8.0731622,35.6676194 7.75585127,42.8902677 C7.70677564,43.4614139 7.70475884,44.0412953 7.67921262,44.6144574 L7.71753195,44.5963151 C7.71753195,49.5733507 7.7141706,54.5510582 7.71753195,59.5280937 C7.71887648,61.9598329 7.92324623,64.3714139 8.43484287,66.7514139 C6.23719581,61.0984099 4.6829101,55.1947736 3.73770001,49.2051293 C3.2146748,45.8918092 2.80122943,42.5032321 2.80190169,39.1408605 Z M29.5010614,90.454655 C36.227784,92.7641016 43.6845908,92.7634297 50.4113135,90.454655 C50.4113135,92.366987 50.5134983,94.2806629 49.9292967,96.1318487 C46.9081202,98.4574218 43.5857672,100.383193 40.0274479,101.764023 C36.4509773,100.065366 33.0298009,98.0280542 29.8506412,95.6682123 C29.400221,93.9635088 29.5010614,92.1990028 29.5010614,90.454655 Z M60.945095,84.4132716 C58.4536664,87.9422835 55.612658,91.2394771 52.3763555,94.1079752 C52.5067756,92.6451688 52.4281202,91.1501095 52.4281202,89.6819277 C55.5454311,88.3696352 58.4160193,86.5856431 60.945095,84.4132716 Z M9.89299413,41.3266708 C9.94543111,40.8710977 10.0005572,40.4155246 10.0577,39.9599514 C11.7666076,28.1735088 20.5820698,18.268489 32.1007252,15.1903467 C42.8092967,12.32924 54.5054311,15.6499514 62.0704731,23.7494771 C66.5598849,28.5571846 69.3612294,34.7846945 70.0180361,41.3259989 C51.1037504,32.7191609 28.8066076,32.7191609 9.89299413,41.3266708 Z M9.73433867,59.9735878 C9.73433867,54.5282123 9.60862438,49.0687261 9.7424059,43.6253665 C28.6903051,34.652323 51.2220698,34.6529949 70.1699689,43.6253665 C70.2782042,48.0749317 70.1780361,52.5372637 70.1780361,56.9875009 C70.1780361,59.0953665 70.2271118,61.2059198 69.9958513,63.3057222 C69.5447588,67.3917696 68.245263,71.3703072 66.1995488,74.9376194 C62.0671118,82.1448131 54.9760193,87.4752874 46.8778681,89.3735088 C38.1188765,91.4256036 28.7299689,89.413825 21.5945067,83.9422439 C14.1874479,78.2637064 9.73433867,69.3088052 9.73433867,59.9735878 Z M27.515179,93.8385285 C23.2758513,90.3478171 19.7565235,86.4653665 16.8469437,82.4196352 C19.8466076,85.503825 23.460053,87.9859593 27.4842546,89.6799119 C27.4842546,91.0614139 27.4210614,92.4590424 27.515179,93.8385285 Z M77.2133303,52.1670265 L77.4661034,74.6150898 C76.5464395,77.1355246 67.6657672,100.233351 50.1114815,105.570544 C47.4950109,104.801849 44.9659353,103.920268 42.5538345,102.899596 C45.7968597,101.4509 48.8341706,99.5701491 51.6321538,97.3890424 L51.6503051,97.3386471 C62.5538345,88.7271056 69.4647588,75.8017301 73.985095,62.9025601 C75.2213975,59.3755641 76.2983723,55.7914534 77.2133303,52.1670265 Z M75.9245908,109.002797 C74.1437504,108.979951 72.3629101,108.937619 70.5840866,108.867738 C72.6311454,107.580979 75.3417336,105.481849 77.7766916,102.308963 C77.7961874,104.054655 77.8163555,105.801019 77.8358513,107.546038 C77.3309773,108.050663 76.8072798,108.540505 76.2721538,109.006157 C76.1565235,109.004813 76.0395488,109.004141 75.9245908,109.002797 Z M77.6079521,87.2609396 C73.2778681,95.4424416 67.1777,102.968133 59.0714815,107.641453 C57.1750109,107.313548 55.3195488,106.928529 53.507784,106.48505 C64.8308093,101.680702 72.5760193,90.5735878 77.5232462,79.7453269 L77.6079521,87.2609396 Z M62.1323219,108.117857 C68.5881202,103.866513 73.710137,97.8788843 77.6529941,91.2818092 L77.7377,98.8034692 C75.2281202,102.948647 71.292658,106.78339 66.7373639,108.633232 C65.1783723,108.496157 63.6435824,108.325485 62.1323219,108.117857 Z M63.8835824,139.788252 C65.8929941,138.027106 67.647616,136.02003 69.4143387,134.02505 L69.2529941,134.055287 C70.0247588,133.064853 70.7703051,132.029398 71.4835824,130.940861 L71.4889605,130.941532 C72.9699689,128.619319 74.2540025,126.211098 75.4674479,123.74173 L75.445263,123.741058 C76.3582042,121.764892 77.1582042,119.741691 77.8634143,117.682204 L77.8634143,151.885801 L63.8835824,151.885801 L63.8835824,139.788252 Z M2.0624059,110.479714 C2.08055716,108.693706 2.09938069,106.907698 2.11753195,105.121691 C13.2388765,120.145525 29.2341706,133.465999 48.1013975,136.72758 C53.3215656,137.629991 58.6654311,137.719359 63.9158513,137.025248 C62.4993807,138.398015 61.0062714,139.629003 59.4533303,140.70343 C42.0845908,141.439872 25.7188765,133.485485 13.0432462,122.071295 C9.0849269,118.506671 5.41097732,114.620861 2.0624059,110.479714 Z M13.1797168,105.91592 C24.0388765,116.197896 42.4960193,128.732204 69.1595488,130.78094 C68.2177,132.151019 67.2308093,133.431058 66.1995488,134.623746 C56.1511454,136.44671 45.8580361,135.162639 36.4819017,131.154536 C26.2398849,126.775525 17.3134983,119.595208 9.87282606,111.390861 C7.09904455,108.332876 4.49400253,105.105564 2.1531622,101.703548 L2.23585127,93.7041412 C5.53938069,98.0556036 9.20795211,102.155762 13.1797168,105.91592 Z M71.3961874,127.218331 C71.0815656,127.771335 70.7521538,128.315604 70.4166916,128.856513 C59.0573639,128.117382 47.8714815,125.278449 37.602574,120.352481 C29.6758513,116.549991 22.3319857,111.554141 15.8378681,105.633706 C10.7985404,101.039675 6.24459077,95.9047341 2.27080926,90.3652874 L2.33131346,84.5375799 C8.30038909,93.8479356 15.9534983,102.130228 24.7918177,108.782402 C33.4237504,115.28003 43.2449269,120.108568 53.700053,122.859477 C59.762574,124.455327 65.9971958,125.362442 72.2580361,125.65003 C71.9783723,126.180861 71.6899689,126.702955 71.3961874,127.218331 Z M79.880221,151.885801 C79.8795488,147.259517 79.8782042,142.633232 79.8768597,138.007619 C79.8748429,130.456394 79.8728261,122.905169 79.8708093,115.353944 C79.870137,111.92505 79.8634143,108.498173 79.825095,105.069951 C79.7592126,99.2086471 79.6859353,93.3466708 79.6274479,87.4853665 C79.567616,81.4547341 79.5205572,75.4241016 79.4667756,69.3927973 C79.4654311,69.194576 79.4634143,68.9963546 79.4613975,68.7988052 L79.4183723,68.9244574 L79.1266076,42.9594771 L79.1171958,42.9594771 C79.1245908,40.0224416 79.1857672,37.0927973 78.8012294,34.1725601 C78.2445908,29.9534692 76.972658,25.8365127 75.0741706,22.0279752 C71.3323219,14.5190819 65.1898009,8.26671034 57.7511454,4.38358781 C50.0503051,0.364062117 41.0936664,-0.974435907 32.5632462,0.714141168 C24.2761874,2.35501073 16.6580361,6.7743388 10.9961874,13.0233507 C5.29870842,19.3113348 1.66509497,27.3799514 0.928960518,35.8450107 C0.833498333,36.9375799 0.785767241,38.0341807 0.785767241,39.1301095 L0.785094972,39.1301095 L0.389128585,77.3310582 L0.247279846,91.0002677 L0.247952115,91.0009396 L0.167279846,98.7920463 L0.166607577,98.7913744 L0.0375319467,111.179872 L0.0388764845,111.181216 C-0.0444848601,119.194062 0.0321537954,127.212283 0.0321537954,135.225801 L0.0321537954,155.479319 L0.0321537954,169.989793 L16.0832462,169.989793 L27.4788765,169.989793 L49.9145067,169.989793 L61.922574,169.989793 L78.7588765,169.989793 L79.9803891,169.989793 L79.9803891,151.885801 L79.880221,151.885801 Z" id="Fill-32" fill="#000000"></path>
                        <path d="M47.8843697,63.8339921 C47.8843697,68.0866798 44.3307563,71.6378656 40.0766387,71.6378656 C35.822521,71.6378656 32.2689076,68.0866798 32.2689076,63.8339921 L47.8843697,63.8339921 Z" id="Fill-33" fill="#FFFFFF"></path>
                        <path d="M33.6880672,64.5059289 C34.1781513,67.787668 37.0957983,70.2939921 40.4127731,70.2939921 C43.7304202,70.2939921 46.647395,67.787668 47.137479,64.5059289 L33.6880672,64.5059289 Z M40.4127731,72.3098024 C37.7068908,72.3098024 35.1085714,71.0297628 33.4487395,68.8956917 C31.9690756,66.9927668 31.5966387,64.8331621 31.5966387,62.4901186 L49.2289076,62.4901186 C49.2289076,64.8331621 48.8564706,66.9927668 47.377479,68.8956917 C45.7176471,71.0297628 43.1186555,72.3098024 40.4127731,72.3098024 Z" id="Fill-34" fill="#000000"></path>
                        <path d="M34.330084,47.7296838 L32.3132773,47.7296838 C32.3132773,45.8905929 30.7697479,44.3478261 28.9297479,44.3478261 C27.0897479,44.3478261 25.5462185,45.8905929 25.5462185,47.7296838 L23.5294118,47.7296838 C23.5294118,44.7926482 25.9919328,42.3320158 28.9297479,42.3320158 C31.8682353,42.3320158 34.330084,44.7919763 34.330084,47.7296838" id="Fill-35" fill="#000000"></path>
                        <path d="M58.5317647,47.7296838 L56.514958,47.7296838 C56.514958,45.8905929 54.9714286,44.3478261 53.1314286,44.3478261 C51.2914286,44.3478261 49.7478992,45.8905929 49.7478992,47.7296838 L47.7310924,47.7296838 C47.7310924,44.7926482 50.1936134,42.3320158 53.1314286,42.3320158 C56.069916,42.3320158 58.5317647,44.7919763 58.5317647,47.7296838" id="Fill-36" fill="#000000"></path>
                        <path d="M63.1791597,120.802806 C58.3529412,120.802806 56.1089076,114.565889 59.8184874,111.488419 C63.509916,108.425731 69.1831933,111.730316 68.3663866,116.443281 C67.9354622,118.932134 65.7068908,120.802806 63.1791597,120.802806 Z M75.9381513,111.395692 L72.2131092,108.980079 L71.0635294,104.693794 L66.6305882,104.922925 L63.1791597,102.134387 L59.7277311,104.922925 L55.2947899,104.693794 L54.1452101,108.980079 L50.4201681,111.395692 L52.0141176,115.539526 L50.4201681,119.682688 L54.1452101,122.0983 L55.2947899,126.384585 L59.7277311,126.155455 L63.1791597,128.943992 L66.6305882,126.155455 L71.0635294,126.384585 L72.2131092,122.0983 L75.9381513,119.682688 L74.3435294,115.539526 L75.9381513,111.395692 Z" id="Fill-37" fill="#9FE2A2"></path>
                        <polygon id="Fill-38" fill="#FFAEE4" points="71.1152941 126.96581 66.6823529 126.73668 63.2309244 129.525889 59.7794958 126.73668 55.3465546 126.96581 54.4537815 123.636364 54.4537815 149.458221 63.2309244 141.562964 72.0080672 149.458221 72.0080672 123.636364"></polygon>
                        <path d="M68.3211599,116.080279 C68.3211599,111.255773 62.0804877,109.012848 59.0014961,112.720596 C55.9372944,116.4102 59.2441851,122.081347 63.958807,121.264943 C66.448891,120.83356 68.3211599,118.60609 68.3211599,116.080279" id="Fill-39" fill="#FF5500"></path>
                        <path d="M63.3520232,111.51394 C61.036729,111.51394 59.096561,113.452478 59.096561,115.7673 C59.096561,118.08145 61.0360568,120.02066 63.3520232,120.02066 C65.6679895,120.02066 67.6074853,118.08145 67.6074853,115.7673 C67.6074853,113.451806 65.6679895,111.51394 63.3520232,111.51394 M63.3520232,122.041846 C57.586645,122.041846 54.9305105,114.592755 59.3621072,110.928012 C63.7768971,107.276707 70.5688299,111.280778 69.5247963,116.906233 C68.9795862,119.842597 66.3409307,122.041846 63.3520232,122.041846" id="Fill-40" fill="#000000"></path>
                        <path d="M74.5929412,119.90913 L71.2302521,122.089565 L70.1915966,125.961265 L66.1889076,125.754308 L63.0722689,128.272727 L59.954958,125.754308 L55.9522689,125.961265 L54.9142857,122.089565 L51.5515966,119.90913 L52.9902521,116.167787 L51.5515966,112.425771 L54.9142857,110.244664 L55.9522689,106.372964 L59.954958,106.580593 L63.0722689,104.061502 L66.1889076,106.580593 L70.1915966,106.372964 L71.2302521,110.244664 L74.5929412,112.425771 L73.1536134,116.167787 L74.5929412,119.90913 Z M63.0722689,140.249328 L55.3062185,147.235455 L55.3062185,128.018063 L59.2860504,127.812451 L63.0722689,130.871779 L66.8578151,127.812451 L70.8383193,128.018063 L70.8383193,147.235455 L63.0722689,140.249328 Z M77.0689076,111.622134 L72.9821849,108.972016 L71.7216807,104.271146 L66.8578151,104.521779 L63.0722689,101.462451 L59.2860504,104.521779 L54.4228571,104.271146 L53.1623529,108.972016 L49.0756303,111.622134 L50.8242017,116.167787 L49.0756303,120.712095 L53.1623529,123.362885 L53.2840336,123.816443 L53.2840336,151.774387 L63.0722689,142.968656 L72.8605042,151.774387 L72.8605042,123.816443 L72.9821849,123.362885 L77.0689076,120.712095 L75.3203361,116.167787 L77.0689076,111.622134 Z" id="Fill-41" fill="#000000"></path>
                    </g>
                </g>
            </g>
        </g>
    </g>
</svg>