<?xml version="1.0" encoding="UTF-8"?>
<svg width="119px" height="253px" viewBox="0 0 119 253" version="1.1" xmlns="http://www.w3.org/2000/svg" xmlns:xlink="http://www.w3.org/1999/xlink">
    <!-- Generator: sketchtool 50.2 (55047) - http://www.bohemiancoding.com/sketch -->
    <title>B5120278-B164-456B-B2B7-3A50B08FD1F4</title>
    <desc>Created with sketchtool.</desc>
    <defs></defs>
    <g id="Symbols" stroke="none" stroke-width="1" fill="none" fill-rule="evenodd">
        <g id="fawzia_win">
            <path d="M43.8998832,142.740266 C42.9248832,139.474266 45.1548832,135.324266 42.9318832,132.411266 C41.0248832,129.912266 37.4328832,128.619266 34.7498832,127.180266 C27.5418832,123.315266 21.6998832,116.067266 18.2328832,108.753266 C15.3898832,102.753266 14.0358832,95.8882657 13.2448832,89.3322657 C12.4648832,82.8582657 12.3908832,76.2932657 13.0498832,69.8042657 C14.3478832,57.0442657 18.5368832,44.0942657 27.0038832,34.2462657 C34.4958832,25.5322657 45.3988832,20.0512657 56.7198832,18.3862657 C65.1088832,17.1512657 73.6788832,18.5182657 81.0798832,22.7212657 C88.2758832,26.8092657 93.9488832,33.1572657 98.0958832,40.2512657 C102.618883,47.9862657 105.452883,56.6782657 106.846883,65.5112657 C108.283883,74.6102657 108.209883,83.9972657 106.410883,93.0422657 C104.673883,101.773266 101.275883,110.266266 95.8658832,117.385266 C93.1878832,120.908266 90.0288832,124.063266 86.4658832,126.690266 C84.6338832,128.040266 82.6998832,129.250266 80.6858832,130.308266 C78.5968832,131.407266 75.8138832,131.861266 75.7538832,134.671266 C75.6918832,137.555266 77.3298832,140.634266 76.3338832,143.480266 L60.2898832,152.540266 L43.8998832,142.740266 Z M118.121883,163.211266 C117.867883,139.304266 118.082883,115.396266 117.800883,91.4902657 C117.664883,79.8862657 117.724883,68.1762657 116.893883,56.5962657 C116.311883,48.4942657 114.212883,40.5022657 110.662883,33.1922657 C103.679883,18.8122657 91.0528832,7.50726573 75.5898832,3.08726573 C59.4578832,-1.52373427 42.0618832,1.64326573 28.3468832,11.2192657 C14.9448832,20.5782657 5.57588325,35.4952657 3.78688325,51.8242657 C3.55888325,53.9012657 3.45288325,55.9922657 3.46888325,58.0822657 C3.46688325,57.8422657 3.46788325,57.7082657 3.46788325,57.7082657 C3.22888325,80.7742657 2.30388325,103.828266 2.07588325,126.894266 C1.96288325,138.320266 1.90688325,149.783266 2.42388325,161.200266 C2.80188325,169.537266 5.05188325,177.745266 8.70388325,185.234266 C16.0148832,200.226266 29.2268832,212.827266 45.5028832,217.362266 C61.2358832,221.746266 77.7438832,218.161266 90.7458832,208.450266 C103.585883,198.859266 112.649883,184.437266 116.799883,169.045266 C117.318883,167.119266 117.760883,165.173266 118.121883,163.211266 Z" id="Fill-9" fill="#DDA812"></path>
            <path d="M44,143 C44.895,143.66 45.803,144.312 46.737,144.949 C45.803,144.312 44.896,143.659 44,143" id="Fill-11" fill="#DDA812"></path>
            <path d="M44.546,143.405 C44.363,143.27 44.181,143.135 44,143 C44.002,143.006 44.003,143.012 44.005,143.019 C44.18,143.151 44.369,143.274 44.546,143.405" id="Fill-13" fill="#DDA812"></path>
            <path d="M93.98,250.73 L93.98,226.787 L117.775,226.787 L117.775,163 C113.66,185.372 100.081,207.959 77.859,216.006 C57.939,223.221 35.622,216.726 20.84,202.054 C11.058,192.346 4.6,179.017 2,165.553 L2,226.787 L25.944,226.787 L25.944,250.73 L117.775,250.73 L93.98,250.73 Z" id="Fill-15" fill="#FF5500"></path>
            <path d="M15.0980398,64.9658354 C14.8950398,73.0248354 15.0610398,81.1118354 15.0850398,89.1728354 C15.1300398,104.158835 22.8790398,118.297835 35.2990398,126.643835 C48.5110398,135.520835 65.7160398,136.678835 79.9390398,129.482835 C93.6920398,122.524835 103.43704,108.617835 104.82104,93.2138354 C105.19204,89.0828354 104.99604,84.8658354 104.99604,80.7248354 C104.99604,76.0428354 104.99804,71.3608354 104.99604,66.6778354 C104.99604,66.1078354 104.99804,65.5358354 104.98304,64.9658354 C76.8100398,51.6188354 43.2710398,51.6178354 15.0980398,64.9658354 M60.0400398,137.259835 C43.4030398,137.259835 27.6510398,128.335835 19.0200398,114.122835 C14.6650398,106.951835 12.2650398,98.6758354 12.0960398,90.2888354 C12.0090398,85.9998354 12.0850398,81.7018354 12.0850398,77.4118354 C12.0850398,72.6438354 11.8260398,67.7838354 12.2120398,63.0258354 C35.7860398,51.6258354 62.9410398,48.8778354 88.2780398,55.6618354 C95.0440398,57.4738354 101.56704,59.9778354 107.86904,63.0258354 C108.19304,67.0098354 107.99604,71.0698354 107.99604,75.0638354 C107.99604,79.7588354 108.00904,84.4538354 107.99604,89.1498354 C107.95204,105.166835 99.9220398,120.336835 86.5670398,129.236835 C78.7410398,134.452835 69.4440398,137.259835 60.0400398,137.259835" id="Fill-17" fill="#000000"></path>
            <path d="M105.908557,63.53375 C76.8915566,49.48875 42.1195566,49.48875 13.1025566,63.53375 C12.9075566,66.49475 13.0505566,69.50875 13.0505566,72.47175 L13.0505566,86.14575 C13.0505566,90.69475 13.2515566,95.17875 14.3115566,99.63075 C15.9445566,106.48675 19.1675566,112.93175 23.6525566,118.36775 C28.6445566,124.41575 35.1585566,129.16675 42.4535566,132.04775 C42.4535566,135.63775 42.1335566,139.40775 43.1765566,142.88575 C48.0315566,146.52075 53.4725566,149.82175 59.5605566,152.66575 C65.4785566,150.44275 70.8065566,147.33375 75.6045566,143.60675 C76.8975566,139.91375 76.5575566,135.89875 76.5575566,132.04775 C89.6175566,126.88775 99.8845566,115.78275 103.965557,102.34275 C106.706557,93.31375 105.960557,83.64275 105.960557,74.32275 C105.960557,70.74575 106.144557,67.10675 105.908557,63.53375" id="Fill-19" fill="#8C6150"></path>
            <path d="M116.802,111 C116.802,111 103.239,150.634 74,158.688 L74.265,159.651 C77.796,160.519 82.139,161.331 87.465,161.99 C100.449,154.902 110.183,142.998 116.971,130.052 L116.802,111 Z" id="Fill-21" fill="#FFAEE4"></path>
            <polygon id="Fill-23" fill="#8C6150" points="2 250.943 25.944 250.943 25.944 227 2 227"></polygon>
            <polygon id="Fill-25" fill="#8C6150" points="94 250.943 117.944 250.943 117.944 227 94 227"></polygon>
            <path d="M117.481,148.146 L117.241,148 C110.262,159.469 100.102,163.253 100,163.29 L100.048,163.426 C104.347,163.683 109.096,163.849 114.337,163.898 C115.418,162.98 116.52,161.958 117.624,160.823 L117.481,148.146 Z" id="Fill-26" fill="#FF5500"></path>
            <path d="M110.012,185.019 C92.608,184.502 75.345,180.699 59.574,173.254 C43.045,165.451 28.412,153.863 16.506,140.036 C11.144,133.808 6.272,127.114 2.15,120 L2,134.39 C10.967,146.985 21.916,158.223 34.414,167.338 C46.73,176.322 60.547,183.2 75.177,187.5 C85.099,190.417 95.355,192.146 105.676,192.753 C107.328,190.164 108.765,187.557 110.012,185.019" id="Fill-27" fill="#9FE2A2"></path>
            <path d="M29.396,181.569 C15.108,170.023 5.593,157.075 2.136,152 L2,165.123 C23.215,191.566 54.255,212.681 89.369,211.06 C93.298,208.391 96.709,205.268 99.669,201.923 C75.389,206.484 51.772,199.652 29.396,181.569" id="Fill-28" fill="#FF5500"></path>
            <path d="M2,163.519 L2,166.073 L2.042,162 C2.016,162.503 2,163.009 2,163.519" id="Fill-29" fill="#FF5500"></path>
            <path d="M3.00592593,166.169 L0.00592592593,166.153 C0.00592592593,164.77 -0.0240740741,163.382 0.0509259259,162 L3.04792593,162.097 L3.00592593,166.169 Z" id="Fill-30" fill="#000000"></path>
            <path d="M59.403,52.7142003 C76.035,52.7142003 91.777,56.5232003 105.806,63.3142003 C104.987,44.7082003 92.338,27.9992003 74.9,21.6682003 C57.123,15.2142003 36.984,20.7912003 24.56,34.9132003 C17.653,42.7642003 13.46,52.8502003 13,63.3142003 C27.029,56.5232003 42.771,52.7142003 59.403,52.7142003" id="Fill-31" fill="#9FE2A2"></path>
            <path d="M95.0278288,249.98481 L115.970829,249.98481 L115.970829,229.04181 L95.0278288,229.04181 L95.0278288,249.98481 Z M92.0268288,249.98481 L26.9908288,249.98481 L26.9908288,220.05481 L26.9908288,211.03181 C44.9148288,223.92781 70.8868288,224.60281 89.3188288,212.36281 L89.4228288,212.35781 C90.3108288,211.75781 91.1738288,211.12681 92.0268288,210.47781 L92.0268288,242.76581 L92.0268288,249.98481 Z M13.6148288,192.22881 C9.33282877,185.46381 6.10582877,177.94381 4.01682877,170.21681 C19.9788288,188.71581 40.6998288,204.34481 64.7978288,210.07781 C70.9188288,211.53381 77.1918288,212.33181 83.4818288,212.44381 C58.3688288,225.63681 28.2888288,215.41281 13.6148288,192.22881 Z M23.9908288,226.04181 L3.04782877,226.04181 L3.04782877,177.19381 C7.31682877,189.16781 14.1308288,200.52181 23.9908288,208.70681 L23.9908288,226.04181 Z M3.04682877,249.98481 L23.9908288,249.98481 L23.9908288,229.04181 L3.04682877,229.04181 L3.04682877,249.98481 Z M32.7668288,136.38981 C39.4938288,143.03981 47.1448288,148.54681 55.6828288,152.91081 L55.6178288,152.93481 C61.6388288,155.74481 67.6928288,158.29281 74.0878288,160.14381 C82.0858288,162.46081 90.3218288,163.89781 98.6108288,164.64681 L98.6308288,164.70381 C99.3538288,164.74681 100.076829,164.78481 100.800829,164.82481 C105.544829,165.18381 110.432829,165.34581 115.479829,165.28681 C114.030829,171.75281 111.800829,178.06781 108.954829,184.04781 C65.2328288,182.44981 25.5748288,157.88881 3.52582877,120.16681 L3.93382877,80.8458101 C7.39882877,97.0658101 15.2008288,119.02781 32.7668288,136.38981 Z M4.16782877,58.2508101 C4.16782877,33.7928101 21.4328288,11.5808101 44.8968288,4.98981009 C68.6468288,-1.68118991 94.2568288,9.24881009 106.864829,30.2318101 C110.315829,35.9748101 112.724829,42.3378101 113.887829,48.9388101 C114.758829,53.8848101 114.700829,58.8398101 114.700829,63.8388101 C113.220829,73.4728101 110.513829,83.0268101 107.299829,92.2118101 C107.760829,84.6758101 107.389829,77.0318101 107.389829,69.4868101 L107.389829,66.3698101 L107.446829,66.3968101 C107.440829,66.2578101 107.353829,63.8848101 107.336829,63.8848101 C106.485829,44.5598101 93.3398288,27.2838101 75.1848288,20.8168101 C56.8888288,14.2998101 35.9208288,19.9108101 23.1988288,34.5458101 C16.1378288,42.6688101 12.0088288,53.0818101 11.5368288,63.8308101 C11.4638288,64.6808101 11.4608288,65.5438101 11.4228288,66.3968101 L11.4798288,66.3698101 C11.4798288,73.7768101 11.4748288,81.1848101 11.4798288,88.5918101 C11.4818288,92.2108101 11.7858288,95.7998101 12.5468288,99.3418101 C9.27782877,90.9288101 6.96582877,82.1428101 5.55982877,73.2288101 C4.78182877,68.2978101 4.16682877,63.2548101 4.16782877,58.2508101 Z M43.8828288,134.61781 C53.8888288,138.05481 64.9808288,138.05381 74.9868288,134.61781 C74.9868288,137.46381 75.1388288,140.31181 74.2698288,143.06681 C69.7758288,146.52781 64.8338288,149.39381 59.5408288,151.44881 C54.2208288,148.92081 49.1318288,145.88881 44.4028288,142.37681 C43.7328288,139.83981 43.8828288,137.21381 43.8828288,134.61781 Z M90.6558288,125.62681 C86.9498288,130.87881 82.7238288,135.78581 77.9098288,140.05481 C78.1038288,137.87781 77.9868288,135.65281 77.9868288,133.46781 C82.6238288,131.51481 86.8938288,128.85981 90.6558288,125.62681 Z M14.7158288,61.5038101 C14.7938288,60.8258101 14.8758288,60.1478101 14.9608288,59.4698101 C17.5028288,41.9288101 30.6158288,27.1878101 47.7498288,22.6068101 C63.6788288,18.3488101 81.0768288,23.2908101 92.3298288,35.3448101 C99.0078288,42.4998101 103.174829,51.7678101 104.151829,61.5028101 C76.0168288,48.6938101 42.8498288,48.6938101 14.7158288,61.5038101 Z M14.4798288,89.2548101 C14.4798288,81.1508101 14.2928288,73.0258101 14.4918288,64.9248101 C42.6768288,51.5708101 76.1928288,51.5718101 104.377829,64.9248101 C104.538829,71.5468101 104.389829,78.1878101 104.389829,84.8108101 C104.389829,87.9478101 104.462829,91.0888101 104.118829,94.2138101 C103.447829,100.29481 101.514829,106.21581 98.4718288,111.52481 C92.3248288,122.25081 81.7768288,130.18381 69.7308288,133.00881 C56.7018288,136.06281 42.7358288,133.06881 32.1218288,124.92581 C21.1038288,116.47481 14.4798288,103.14781 14.4798288,89.2548101 Z M40.9288288,139.65381 C34.6228288,134.45881 29.3878288,128.68081 25.0598288,122.65981 C29.5218288,127.24981 34.8968288,130.94381 40.8828288,133.46481 C40.8828288,135.52081 40.7888288,137.60081 40.9288288,139.65381 Z M114.854829,77.6368101 L115.230829,111.04481 C113.862829,114.79581 100.652829,149.17081 74.5408288,157.11381 C70.6488288,155.96981 66.8868288,154.65781 63.2988288,153.13881 C68.1228288,150.98281 72.6408288,148.18381 76.8028288,144.93781 L76.8298288,144.86281 C93.0488288,132.04681 103.328829,112.81081 110.052829,93.6138101 C111.891829,88.3648101 113.493829,83.0308101 114.854829,77.6368101 Z M112.937829,162.22181 C110.288829,162.18781 107.639829,162.12481 104.993829,162.02081 C108.038829,160.10581 112.070829,156.98181 115.692829,152.25981 C115.721829,154.85781 115.751829,157.45681 115.780829,160.05381 C115.029829,160.80481 114.250829,161.53381 113.454829,162.22681 C113.282829,162.22481 113.108829,162.22381 112.937829,162.22181 Z M115.441829,129.86481 C109.000829,142.04081 99.9268288,153.24081 87.8688288,160.19581 C85.0478288,159.70781 82.2878288,159.13481 79.5928288,158.47481 C96.4358288,151.32481 107.956829,134.79481 115.315829,118.67981 L115.441829,129.86481 Z M92.4218288,160.90481 C102.024829,154.57781 109.643829,145.66681 115.508829,135.84881 L115.634829,147.04281 C111.901829,153.21181 106.047829,158.91881 99.2718288,161.67181 C96.9528288,161.46781 94.6698288,161.21381 92.4218288,160.90481 Z M95.0268288,208.03781 C98.0158288,205.41681 100.625829,202.42981 103.253829,199.46081 L103.013829,199.50581 C104.161829,198.03181 105.270829,196.49081 106.331829,194.87081 L106.339829,194.87181 C108.542829,191.41581 110.452829,187.83181 112.257829,184.15681 L112.224829,184.15581 C113.582829,181.21481 114.772829,178.20381 115.821829,175.13881 L115.821829,226.04181 L95.0268288,226.04181 L95.0268288,208.03781 Z M3.06782877,164.41981 C3.09482877,161.76181 3.12282877,159.10381 3.14982877,156.44581 C19.6928288,178.80481 43.4858288,198.62881 71.5508288,203.48281 C79.3158288,204.82581 87.2648288,204.95881 95.0748288,203.92581 C92.9678288,205.96881 90.7468288,207.80081 88.4368288,209.39981 C62.6008288,210.49581 38.2568288,198.65781 19.4018288,181.67081 C13.5138288,176.36581 8.04882877,170.58281 3.06782877,164.41981 Z M19.6048288,157.62781 C35.7578288,172.92981 63.2128288,191.58381 102.874829,194.63281 C101.473829,196.67181 100.005829,198.57681 98.4718288,200.35181 C83.5248288,203.06481 68.2138288,201.15381 54.2668288,195.18881 C39.0318288,188.67181 25.7538288,177.98581 14.6858288,165.77581 C10.5598288,161.22481 6.68482877,156.42181 3.20282877,151.35881 L3.32582877,139.45381 C8.23982877,145.92981 13.6968288,152.03181 19.6048288,157.62781 Z M106.201829,189.33081 C105.733829,190.15381 105.243829,190.96381 104.744829,191.76881 C87.8478288,190.66881 71.2088288,186.44381 55.9338288,179.11281 C44.1428288,173.45381 33.2188288,166.01881 23.5588288,157.20781 C16.0628288,150.37081 9.28882877,142.72881 3.37782877,134.48481 L3.46782877,125.81181 C12.3468288,139.66781 23.7308288,151.99381 36.8778288,161.89381 C49.7178288,171.56381 64.3268288,178.74981 79.8788288,182.84381 C88.8968288,185.21881 98.1708288,186.56881 107.483829,186.99681 C107.067829,187.78681 106.638829,188.56381 106.201829,189.33081 Z M118.821829,226.04181 C118.820829,219.15681 118.818829,212.27181 118.816829,205.38781 C118.813829,194.14981 118.810829,182.91181 118.807829,171.67381 C118.806829,166.57081 118.796829,161.47081 118.739829,156.36881 C118.641829,147.64581 118.532829,138.92181 118.445829,130.19881 C118.356829,121.22381 118.286829,112.24881 118.206829,103.27281 C118.204829,102.97781 118.201829,102.68281 118.198829,102.38881 L118.134829,102.57581 L117.700829,63.9338101 L117.686829,63.9338101 C117.697829,59.5628101 117.788829,55.2028101 117.216829,50.8568101 C116.388829,44.5778101 114.496829,38.4508101 111.672829,32.7828101 C106.106829,21.6078101 96.9698288,12.3028101 85.9048288,6.52381009 C74.4498288,0.541810091 61.1268288,-1.45018991 48.4378288,1.06281009 C36.1108288,3.50481009 24.7788288,10.0818101 16.3568288,19.3818101 C7.88182877,28.7398101 2.47682877,40.7478101 1.38182877,53.3458101 C1.23982877,54.9718101 1.16882877,56.6038101 1.16882877,58.2348101 L1.16782877,58.2348101 L0.578828771,115.08681 L0.367828771,135.42981 L0.368828771,135.43081 L0.248828771,147.02581 L0.247828771,147.02481 L0.0558287707,165.46181 L0.0578287707,165.46381 C-0.0661712293,177.38881 0.0478287707,189.32181 0.0478287707,201.24781 L0.0478287707,231.38981 L0.0478287707,252.98481 L23.9238288,252.98481 L40.8748288,252.98481 L74.2478288,252.98481 L92.1098288,252.98481 L117.153829,252.98481 L118.970829,252.98481 L118.970829,226.04181 L118.821829,226.04181 Z" id="Fill-32" fill="#000000"></path>
            <path d="M71.228,95 C71.228,101.329 65.942,106.614 59.614,106.614 C53.286,106.614 48,101.329 48,95 L71.228,95 Z" id="Fill-33" fill="#FFFFFF"></path>
            <path d="M50.111,96 C50.84,100.884 55.18,104.614 60.114,104.614 C65.049,104.614 69.388,100.884 70.117,96 L50.111,96 Z M60.114,107.614 C56.089,107.614 52.224,105.709 49.755,102.533 C47.554,99.701 47,96.487 47,93 L73.228,93 C73.228,96.487 72.674,99.701 70.474,102.533 C68.005,105.709 64.139,107.614 60.114,107.614 Z" id="Fill-34" fill="#000000"></path>
            <path d="M51.066,71.033 L48.066,71.033 C48.066,68.296 45.77,66 43.033,66 C40.296,66 38,68.296 38,71.033 L35,71.033 C35,66.662 38.663,63 43.033,63 C47.404,63 51.066,66.661 51.066,71.033" id="Fill-35" fill="#000000"></path>
            <path d="M87.066,71.033 L84.066,71.033 C84.066,68.296 81.77,66 79.033,66 C76.296,66 74,68.296 74,71.033 L71,71.033 C71,66.662 74.663,63 79.033,63 C83.404,63 87.066,66.661 87.066,71.033" id="Fill-36" fill="#000000"></path>
            <path d="M93.979,179.783 C86.8,179.783 83.462,170.501 88.98,165.921 C94.471,161.363 102.91,166.281 101.695,173.295 C101.054,176.999 97.739,179.783 93.979,179.783 Z M112.958,165.783 L107.417,162.188 L105.707,155.809 L99.113,156.15 L93.979,152 L88.845,156.15 L82.251,155.809 L80.541,162.188 L75,165.783 L77.371,171.95 L75,178.116 L80.541,181.711 L82.251,188.09 L88.845,187.749 L93.979,191.899 L99.113,187.749 L105.707,188.09 L107.417,181.711 L112.958,178.116 L110.586,171.95 L112.958,165.783 Z" id="Fill-37" fill="#9FE2A2"></path>
            <polygon id="Fill-38" fill="#FFAEE4" points="105.784 188.955 99.19 188.614 94.056 192.765 88.922 188.614 82.328 188.955 81 184 81 222.429 94.056 210.679 107.112 222.429 107.112 184"></polygon>
            <path d="M101.627725,172.754769 C101.627725,165.574769 92.3447254,162.236769 87.7647254,167.754769 C83.2067254,173.245769 88.1257254,181.685769 95.1387254,180.470769 C98.8427254,179.828769 101.627725,176.513769 101.627725,172.754769" id="Fill-39" fill="#FF5500"></path>
            <path d="M94.2361344,165.958982 C90.7921344,165.958982 87.9061344,168.843982 87.9061344,172.288982 C87.9061344,175.732982 90.7911344,178.618982 94.2361344,178.618982 C97.6811344,178.618982 100.566134,175.732982 100.566134,172.288982 C100.566134,168.842982 97.6811344,165.958982 94.2361344,165.958982 M94.2361344,181.626982 C85.6601344,181.626982 81.7091344,170.540982 88.3011344,165.086982 C94.8681344,159.652982 104.971134,165.611982 103.418134,173.983982 C102.607134,178.353982 98.6821344,181.626982 94.2361344,181.626982" id="Fill-40" fill="#000000"></path>
            <path d="M110.957,178.453 L105.955,181.698 L104.41,187.46 L98.456,187.152 L93.82,190.9 L89.183,187.152 L83.229,187.46 L81.685,181.698 L76.683,178.453 L78.823,172.885 L76.683,167.316 L81.685,164.07 L83.229,158.308 L89.183,158.617 L93.82,154.868 L98.456,158.617 L104.41,158.308 L105.955,164.07 L110.957,167.316 L108.816,172.885 L110.957,178.453 Z M93.82,208.724 L82.268,219.121 L82.268,190.521 L88.188,190.215 L93.82,194.768 L99.451,190.215 L105.372,190.521 L105.372,219.121 L93.82,208.724 Z M114.64,166.12 L108.561,162.176 L106.686,155.18 L99.451,155.553 L93.82,151 L88.188,155.553 L80.954,155.18 L79.079,162.176 L73,166.12 L75.601,172.885 L73,179.648 L79.079,183.593 L79.26,184.268 L79.26,225.876 L93.82,212.771 L108.38,225.876 L108.38,184.268 L108.561,183.593 L114.64,179.648 L112.039,172.885 L114.64,166.12 Z" id="Fill-41" fill="#000000"></path>
        </g>
    </g>
</svg>