<svg id="Layer_1" data-name="Layer 1" xmlns="http://www.w3.org/2000/svg" viewBox="0 0 300 300"><defs><style>.cls-1{fill:#ffaee4;}.cls-1,.cls-2,.cls-3,.cls-4,.cls-5,.cls-6,.cls-7{stroke:#000;stroke-miterlimit:10;stroke-width:3px;}.cls-2{fill:#684e43;}.cls-4{fill:none;}.cls-5{fill:#f50;}.cls-6{fill:#dda812;}.cls-7{fill:#fff;}</style></defs><title>portland_characters</title><path class="cls-1" d="M123.7,168.06h55a25.86,25.86,0,0,1,25.86,25.86V274.8a0,0,0,0,1,0,0H97.84a0,0,0,0,1,0,0V193.91A25.86,25.86,0,0,1,123.7,168.06Z"/><path class="cls-2" d="M150,194.36h0s-15.72-15.14-15.72-23.82V157.3h31.44v13.24C165.69,179.22,150,194.36,150,194.36Z"/><path class="cls-2" d="M193.22,125.22a42.84,42.84,0,1,1-85.67,0V103.81a42.84,42.84,0,1,1,85.67,0Z"/><path class="cls-3" d="M196.31,94.41c25.13-.81-20.37-45.52-45.51-45.52S80.17,93.55,105.29,94.41c29,1,45.51-22.76,45.51-22.76S165.69,95.4,196.31,94.41Z"/><path class="cls-4" d="M161.09,130.58a10.71,10.71,0,0,1-21.41,0"/><path class="cls-5" d="M107.61,115.09C80.17,94.44,89.62,25,150.78,25c69.22,0,62.74,78.81,42.49,90.09V95.28c0-21.88-19.17-39.61-42.83-39.61S107.61,73.4,107.61,95.28Z"/><path class="cls-2" d="M109.49,137.89a12,12,0,0,1-12-12c0-6.65,2.9-12.18,9.56-12.18C106.25,113.51,108.68,138,109.49,137.89Z"/><path class="cls-2" d="M203.33,125.84c0,6.66-4.65,12.11-11.3,12.11.74.06,1.55-24.43,1.62-24.29C200.3,113.66,203.33,119.19,203.33,125.84Z"/><path class="cls-6" d="M198,137.14a7,7,0,0,1,3.51-6.07,7,7,0,0,0-3.51-.95,7,7,0,1,0,0,14,7,7,0,0,0,3.51-.95A7,7,0,0,1,198,137.14Z"/><path class="cls-6" d="M103.42,137.14a7,7,0,0,0-3.51-6.07,7,7,0,0,1,3.51-.95,7,7,0,1,1,0,14,7,7,0,0,1-3.51-.95A7,7,0,0,0,103.42,137.14Z"/><path class="cls-5" d="M184.76,46.63V61.94a8.1,8.1,0,0,1-11.91,7.14L150,54.28,171.74,40.2A8.1,8.1,0,0,1,184.76,46.63Z"/><path class="cls-5" d="M115.24,61.93V46.62a8.1,8.1,0,0,1,11.91-7.14L150,54.28,128.26,68.36A8.1,8.1,0,0,1,115.24,61.93Z"/><circle class="cls-5" cx="150" cy="54.28" r="9.85"/><circle class="cls-3" cx="134.36" cy="108.7" r="6.02"/><circle class="cls-3" cx="167.26" cy="108.7" r="6.02"/><circle class="cls-7" cx="167.26" cy="107.54" r="4.05"/><circle class="cls-7" cx="134.36" cy="107.54" r="4.05"/><path class="cls-6" d="M129.82,199.36c3.85,4,2.25,7.54-3.2,7.27.27,5.45-3.31,7.05-7.27,3.2-3.95,3.85-7.53,2.25-7.26-3.2-5.45.27-7-3.31-3.2-7.27-3.85-4-2.25-7.53,3.2-7.26-.27-5.45,3.31-7,7.26-3.2,4-3.85,7.54-2.25,7.27,3.2C132.07,191.83,133.67,195.41,129.82,199.36Z"/><circle class="cls-5" cx="119.35" cy="199.36" r="5.1"/><path class="cls-6" d="M141.58,239.63c3.85,4,2.25,7.54-3.19,7.27.26,5.45-3.32,7-7.27,3.2-4,3.85-7.53,2.25-7.27-3.2-5.45.27-7-3.31-3.2-7.27-3.85-3.95-2.25-7.53,3.2-7.26-.26-5.45,3.31-7.05,7.27-3.2,3.95-3.85,7.53-2.25,7.27,3.2C143.83,232.1,145.43,235.68,141.58,239.63Z"/><circle class="cls-5" cx="131.12" cy="239.63" r="5.1"/><path class="cls-6" d="M192.05,257.32c3.85,3.95,2.25,7.53-3.2,7.27.27,5.44-3.31,7-7.27,3.19-4,3.85-7.53,2.25-7.27-3.19-5.44.26-7-3.32-3.19-7.27-3.85-4-2.25-7.54,3.19-7.27-.26-5.45,3.32-7.05,7.27-3.2,4-3.85,7.54-2.25,7.27,3.2C194.3,249.78,195.9,253.36,192.05,257.32Z"/><circle class="cls-5" cx="181.58" cy="257.32" r="5.1"/><path class="cls-6" d="M181.52,216.24c3.85,3.95,2.25,7.53-3.2,7.27.27,5.44-3.31,7-7.26,3.19-4,3.85-7.54,2.25-7.27-3.19-5.45.26-7-3.32-3.2-7.27-3.85-4-2.25-7.54,3.2-7.27-.27-5.45,3.31-7.05,7.27-3.2,3.95-3.85,7.53-2.25,7.26,3.2C183.77,208.7,185.37,212.28,181.52,216.24Z"/><circle class="cls-5" cx="171.06" cy="216.24" r="5.1"/><path class="cls-6" d="M202.85,184.59a25.88,25.88,0,0,0-18.67-16,9,9,0,0,0-.21,2.49c-5.44-.27-7,3.31-3.19,7.27-3.85,3.95-2.25,7.53,3.19,7.26-.26,5.45,3.32,7.05,7.27,3.2,4,3.85,7.53,2.25,7.27-3.2A6.22,6.22,0,0,0,202.85,184.59Z"/><circle class="cls-5" cx="191.24" cy="178.4" r="5.1"/><line class="cls-4" x1="183.07" y1="204.47" x2="183.07" y2="274.8"/><line class="cls-4" x1="119.35" y1="204.47" x2="119.35" y2="274.8"/><path class="cls-6" d="M120.9,275c3.85-3.95,2.25-7.53-3.2-7.27.27-5.44-3.31-7.05-7.26-3.19-4-3.86-7.54-2.25-7.27,3.19-5.45-.26-7,3.32-3.2,7.27Z"/><path class="cls-5" d="M110.44,269.9a5.1,5.1,0,0,0-5.11,5.1h10.21A5.1,5.1,0,0,0,110.44,269.9Z"/></svg>