<svg xmlns="http://www.w3.org/2000/svg" xmlns:xlink="http://www.w3.org/1999/xlink" width="146" height="296" viewBox="0 0 146 296">
    <defs>
        <path id="a" d="M0 295.99h146V0H0z"/>
    </defs>
    <g fill="none" fill-rule="evenodd">
        <path fill="#F50" d="M139.509 293.99H7.692v-99.886c0-17.635 14.296-31.931 31.93-31.931h67.956c17.635 0 31.93 14.296 31.93 31.931v99.886z"/>
        <path stroke="#000" stroke-width="4" d="M139.509 293.99H7.692v-99.886c0-17.635 14.296-31.931 31.93-31.931h67.956c17.635 0 31.93 14.296 31.93 31.931v99.886zM34.26 207.134v86.856M112.94 207.134v86.856"/>
        <path fill="#FFAEE4" d="M72.067 184.654c-10.723 0-19.415-8.692-19.415-19.415v-16.35h38.83v16.35c0 10.723-8.692 19.415-19.415 19.415"/>
        <path stroke="#000" stroke-width="4" d="M72.067 184.654c-10.723 0-19.415-8.692-19.415-19.415v-16.35h38.83v16.35c0 10.723-8.692 19.415-19.415 19.415z"/>
        <path fill="#F50" d="M129 155.5c0 35.5-25.296 36.5-56.5 36.5S16 191 16 155.5 41.296 129 72.5 129s56.5-9 56.5 26.5"/>
        <path stroke="#000" stroke-width="4" d="M129 155.5c0 35.5-25.296 36.5-56.5 36.5S16 191 16 155.5 41.296 129 72.5 129s56.5-9 56.5 26.5z"/>
        <path fill="#FFAEE4" d="M125.47 109.28c0 29.212-23.68 52.893-52.892 52.893-29.211 0-52.892-23.68-52.892-52.893V82.834c0-29.212 23.68-52.892 52.892-52.892 29.212 0 52.893 23.68 52.893 52.892v26.446z"/>
        <path stroke="#000" stroke-width="4" d="M125.47 109.28c0 29.212-23.68 52.893-52.892 52.893-29.211 0-52.892-23.68-52.892-52.893V82.834c0-29.212 23.68-52.892 52.892-52.892 29.212 0 52.893 23.68 52.893 52.892v26.446z"/>
        <path fill="#DDA812" d="M129.29 71.23c0-31.04-25.162-56.201-56.201-56.201-31.038 0-56.2 25.162-56.2 56.2H129.29z"/>
        <path stroke="#000" stroke-width="4" d="M129.29 71.23c0-31.04-25.162-56.201-56.201-56.201-31.038 0-56.2 25.162-56.2 56.2H129.29zM85.802 115.892c0 7.303-5.92 13.223-13.224 13.223-7.302 0-13.222-5.92-13.222-13.223"/>
        <path fill="#9FE2A2" d="M59.355 89.446a6.612 6.612 0 0 1-13.224 0 6.612 6.612 0 0 1 13.224 0"/>
        <path stroke="#000" stroke-width="4" d="M59.355 89.446a6.612 6.612 0 0 1-13.224 0 6.612 6.612 0 0 1 13.224 0z"/>
        <path fill="#9FE2A2" d="M99.024 89.446a6.611 6.611 0 1 1-13.222 0 6.611 6.611 0 0 1 13.222 0"/>
        <path stroke="#000" stroke-width="4" d="M99.024 89.446a6.611 6.611 0 1 1-13.222 0 6.611 6.611 0 0 1 13.222 0z"/>
        <mask id="b" fill="#fff">
            <use xlink:href="#a"/>
        </mask>
        <path fill="#FFAEE4" d="M7.691 293.99h25.546v-62.332H7.691z" mask="url(#b)"/>
        <path stroke="#000" stroke-width="4" d="M7.691 293.99h25.546v-62.332H7.691z" mask="url(#b)"/>
        <path fill="#FFAEE4" d="M112.941 293.99h25.546v-62.332h-25.546z" mask="url(#b)"/>
        <path stroke="#000" stroke-width="4" d="M112.941 293.99h25.546v-62.332h-25.546z" mask="url(#b)"/>
        <path fill="#F50" d="M125.47 88.79c0-27.02-23.68-48.922-52.892-48.922-29.211 0-52.892 21.903-52.892 48.922v24.46c0 27.02 23.68 48.923 52.892 48.923 29.212 0 52.893-21.903 52.893-48.922V88.79zM144 82.006c0 44.187-31.788 80.007-71 80.007S2 126.193 2 82.006C2 37.82 33.788 2 73 2s71 35.82 71 80.006z" mask="url(#b)"/>
        <path stroke="#000" stroke-width="4" d="M125.47 88.79c0-27.02-23.68-48.922-52.892-48.922-29.211 0-52.892 21.903-52.892 48.922v24.46c0 27.02 23.68 48.923 52.892 48.923 29.212 0 52.893-21.903 52.893-48.922V88.79zM144 82.006c0 44.187-31.788 80.007-71 80.007S2 126.193 2 82.006C2 37.82 33.788 2 73 2s71 35.82 71 80.006z" mask="url(#b)"/>
        <path fill="#FFAEE4" d="M22.074 124.925c-8.216 0-14.876-6.66-14.876-14.876S10.784 94.999 19 94.999c-.919-.178 2.084 29.994 3.074 29.926" mask="url(#b)"/>
        <path stroke="#000" stroke-width="4" d="M22.074 124.925c-8.216 0-14.876-6.66-14.876-14.876S10.784 94.999 19 94.999c-.919-.178 2.084 29.994 3.074 29.926z" mask="url(#b)"/>
        <path fill="#FFAEE4" d="M137.958 110.049c0 8.216-5.742 14.95-13.958 14.95.918.076 1.918-30.172 2-30 8.216 0 11.958 6.834 11.958 15.05" mask="url(#b)"/>
        <path stroke="#000" stroke-width="4" d="M137.958 110.049c0 8.216-5.742 14.95-13.958 14.95.918.076 1.918-30.172 2-30 8.216 0 11.958 6.834 11.958 15.05z" mask="url(#b)"/>
        <path fill="#FFF" d="M21 121a6 6 0 0 1-12 0 6 6 0 0 1 12 0" mask="url(#b)"/>
        <path stroke="#000" stroke-width="4" d="M21 121a6 6 0 0 1-12 0 6 6 0 0 1 12 0z" mask="url(#b)"/>
        <path fill="#FFF" d="M137 121a6 6 0 0 1-12 0 6 6 0 0 1 12 0" mask="url(#b)"/>
        <path stroke="#000" stroke-width="4" d="M137 121a6 6 0 0 1-12 0 6 6 0 0 1 12 0z" mask="url(#b)"/>
    </g>
</svg>
