<?xml version="1.0" encoding="UTF-8"?>
<svg width="119px" height="254px" viewBox="0 0 119 254" version="1.1" xmlns="http://www.w3.org/2000/svg" xmlns:xlink="http://www.w3.org/1999/xlink">
    <!-- Generator: sketchtool 50.2 (55047) - http://www.bohemiancoding.com/sketch -->
    <title>9CE36BB7-F222-43CF-AE52-BF2C9DF1961B</title>
    <desc>Created with sketchtool.</desc>
    <defs></defs>
    <g id="Symbols" stroke="none" stroke-width="1" fill="none" fill-rule="evenodd">
        <g id="fatima">
            <path d="M103.2065,90.9822 C103.1785,90.9222 102.7785,81.1302 102.7785,81.1302 C102.7785,77.8872 102.4055,74.7322 101.7235,71.6952 C73.9165,70.5472 60.3585,48.9762 60.3585,48.9762 C60.3585,48.9762 45.0605,70.8842 18.1625,71.7162 C17.4815,74.7462 17.1115,77.8942 17.1115,81.1302 C17.1115,81.1302 16.2065,90.9142 16.5565,90.9822 C11.3405,90.9822 8.0025,95.1752 7.2355,100.0192 C6.4095,105.2352 8.2205,110.7382 12.9115,113.5242 C12.6165,111.3292 11.3045,109.4592 9.4665,108.3952 C12.0605,106.8932 15.3965,107.2372 17.6335,109.2282 C19.9865,124.2492 30.1495,136.6732 43.8345,142.2352 C43.8255,142.2322 43.8165,142.2292 43.8095,142.2252 C43.8095,145.1502 43.4905,148.2062 44.3725,151.0382 C45.2015,153.7032 46.7045,156.1882 48.2475,158.4952 C51.4485,163.2822 55.4035,167.6792 59.5305,171.6842 L59.5315,171.6842 C63.6825,167.6572 67.5815,163.2052 70.9195,158.4772 C72.4485,156.3112 73.8415,153.9832 74.6335,151.4372 C75.5355,148.5362 75.2535,145.5522 75.2535,142.5622 C89.5405,137.0902 100.1455,124.1852 102.3475,108.5802 C102.3175,109.0412 102.2885,109.4902 102.2595,109.9222 C104.4305,107.3722 108.2075,106.7132 111.1105,108.3952 C109.2885,109.4502 107.9845,111.2992 107.6755,113.4702 C115.7475,108.1212 114.5515,90.9822 103.2065,90.9822" id="Fill-55" fill="#684E43"></path>
            <path d="M88.2886,145.3806 L75.2536,145.3806 C75.2536,148.2626 74.9916,150.7666 73.7586,153.4096 C72.6916,155.6956 71.2836,157.8326 69.8166,159.8796 C66.7846,164.1106 63.2666,168.0606 59.5316,171.6836 L59.5306,171.6836 C55.7506,168.0146 52.1906,163.9946 49.0846,159.7366 C47.6026,157.7056 46.2506,155.5646 45.2286,153.2626 C44.0826,150.6786 43.8096,148.1816 43.8096,145.3806 C35.5916,145.3806 27.4416,144.6556 20.0836,149.0046 C13.5486,152.8656 9.0376,159.5056 7.7756,166.9836 C7.0786,171.1136 7.3986,175.4226 7.3986,179.5946 L7.3986,193.6016 L7.3986,221.1246 L7.3986,252.1286 L114.1456,252.1286 L114.1456,198.1796 C114.1456,189.4226 114.2006,180.6646 114.1486,171.9086 C114.1106,165.5126 112.0296,159.3676 107.8676,154.4646 C103.0046,148.7376 95.8096,145.3806 88.2886,145.3806" id="Fill-57" fill="#FFAEE4"></path>
            <path d="M59.9458,120.1091 C53.2138,120.1091 47.7368,114.6321 47.7368,107.9011 L50.7368,107.9011 C50.7368,112.8641 54.9828,117.1091 59.9458,117.1091 C64.9088,117.1091 69.1538,112.8631 69.1538,107.9011 L72.1538,107.9011 C72.1538,114.6321 66.6768,120.1091 59.9458,120.1091" id="Fill-59" fill="#000000"></path>
            <path d="M107.6021,114.467 C107.6021,111.87 109.0151,109.609 111.1111,108.395 C106.5781,105.769 100.5831,109.229 100.5831,114.467 C100.5831,119.705 106.5781,123.165 111.1111,120.539 C109.0151,119.324 107.6021,117.063 107.6021,114.467" id="Fill-61" fill="#DDA812"></path>
            <path d="M12.9761,114.467 C12.9761,111.87 11.5631,109.609 9.4661,108.395 C14.0001,105.769 19.9951,109.229 19.9951,114.467 C19.9951,119.705 14.0001,123.165 9.4661,120.539 C11.5631,119.324 12.9761,117.063 12.9761,114.467" id="Fill-63" fill="#DDA812"></path>
            <path d="M60.3403,2.325 C-0.8197,2.325 -10.2667,71.763 17.1663,92.418 C17.1663,87.992 17.1653,83.566 17.1663,79.139 C17.1663,74.902 17.1353,70.64 17.7743,66.441 C18.9533,58.676 22.8363,51.514 28.3243,45.941 C31.0333,47.779 34.8073,47.995 37.8223,45.682 L51.2933,36.958 C55.1163,42.851 63.9993,42.852 67.8233,36.959 L82.4083,46.406 C85.4773,48.044 88.9043,47.482 91.2933,45.572 C96.7873,51.01 100.6453,58.046 102.1353,65.64 C102.9483,69.79 102.8463,73.985 102.8433,78.194 C102.8403,82.935 102.8323,87.677 102.8323,92.418 C123.0823,81.13 129.5613,2.325 60.3403,2.325" id="Fill-65" fill="#FF5500"></path>
            <path d="M43.9165,78.5056 C39.8595,78.5056 36.3935,81.9726 36.3935,86.0286 C36.3935,90.0856 39.8595,93.5526 43.9165,93.5526 C47.9735,93.5526 51.4395,90.0856 51.4395,86.0286 C51.4395,81.9726 47.9735,78.5056 43.9165,78.5056" id="Fill-67" fill="#000000"></path>
            <path d="M28.9136,181.7903 C26.1626,181.7903 23.8116,179.4383 23.8116,176.6893 C23.8116,173.9393 26.1626,171.5873 28.9136,171.5873 C31.6646,171.5873 34.0156,173.9383 34.0156,176.6893 C34.0156,179.4383 31.6636,181.7903 28.9136,181.7903 M36.1826,169.4203 C36.4456,163.9753 32.8666,162.3733 28.9136,166.2253 C24.9606,162.3733 21.3816,163.9753 21.6446,169.4203 C16.1996,169.1573 14.5976,172.7353 18.4496,176.6893 C14.5976,180.6423 16.1996,184.2213 21.6446,183.9573 C21.3816,189.4023 24.9606,191.0053 28.9136,187.1523 C32.8666,191.0053 36.4456,189.4023 36.1826,183.9573 C41.6276,184.2213 43.2296,180.6423 39.3776,176.6893 C43.2296,172.7353 41.6276,169.1573 36.1826,169.4203" id="Fill-69" fill="#A1D29D"></path>
            <path d="M76.8179,78.5056 C72.7609,78.5056 69.2949,81.9726 69.2949,86.0286 C69.2949,90.0856 72.7609,93.5526 76.8179,93.5526 C80.8749,93.5526 84.3409,90.0856 84.3409,86.0286 C84.3409,81.9726 80.8749,78.5056 76.8179,78.5056" id="Fill-71" fill="#000000"></path>
            <path d="M79.3667,84.8645 C79.3667,81.5835 74.2677,81.5835 74.2677,84.8645 C74.2677,88.1425 79.3667,88.1505 79.3667,84.8645" id="Fill-73" fill="#FFFFFF"></path>
            <path d="M46.4653,84.8645 C46.4653,81.5835 41.3663,81.5835 41.3663,84.8645 C41.3663,88.1425 46.4653,88.1505 46.4653,84.8645" id="Fill-75" fill="#FFFFFF"></path>
            <path d="M34.0151,176.6892 C34.0151,179.4392 31.6631,181.7902 28.9131,181.7902 C26.1631,181.7902 23.8121,179.4392 23.8121,176.6892 C23.8121,173.9382 26.1631,171.5872 28.9131,171.5872 C31.6621,171.5872 34.0151,173.9392 34.0151,176.6892" id="Fill-77" fill="#FF5500"></path>
            <path d="M40.6763,222.0608 C37.9263,222.0608 35.5753,219.7088 35.5753,216.9588 C35.5753,214.2098 37.9263,211.8578 40.6763,211.8578 C43.4283,211.8578 45.7783,214.2088 45.7783,216.9588 C45.7783,219.7088 43.4273,222.0608 40.6763,222.0608 M47.9453,209.6908 C48.2083,204.2458 44.6303,202.6438 40.6763,206.4958 C36.7233,202.6438 33.1443,204.2458 33.4083,209.6908 C27.9633,209.4268 26.3613,213.0058 30.2133,216.9588 C26.3613,220.9128 27.9633,224.4918 33.4083,224.2278 C33.1443,229.6728 36.7233,231.2758 40.6763,227.4228 C44.6303,231.2758 48.2083,229.6728 47.9453,224.2278 C53.3903,224.4918 54.9923,220.9128 51.1403,216.9588 C54.9923,213.0058 53.3903,209.4268 47.9453,209.6908" id="Fill-79" fill="#DDA812"></path>
            <path d="M91.1421,239.7434 C88.3911,239.7434 86.0401,237.3914 86.0401,234.6424 C86.0401,231.8924 88.3911,229.5404 91.1421,229.5404 C93.8931,229.5404 96.2441,231.8914 96.2431,234.6424 C96.2431,237.3914 93.8921,239.7434 91.1421,239.7434 M98.4111,227.3734 C98.6741,221.9284 95.0951,220.3264 91.1421,224.1784 C87.1891,220.3264 83.6101,221.9284 83.8731,227.3734 C78.4281,227.1104 76.8261,230.6884 80.6781,234.6424 C76.8261,238.5954 78.4281,242.1744 83.8731,241.9104 C83.6101,247.3554 87.1891,248.9584 91.1421,245.1054 C95.0951,248.9584 98.6741,247.3554 98.4111,241.9104 C103.8551,242.1744 105.4571,238.5954 101.6051,234.6424 C105.4571,230.6884 103.8551,227.1104 98.4111,227.3734" id="Fill-81" fill="#DDA812"></path>
            <path d="M45.7778,216.9592 C45.7778,219.7102 43.4258,222.0612 40.6758,222.0612 C37.9268,222.0612 35.5758,219.7102 35.5758,216.9592 C35.5758,214.2082 37.9258,211.8582 40.6758,211.8582 C43.4258,211.8582 45.7778,214.2092 45.7778,216.9592" id="Fill-83" fill="#FF5500"></path>
            <path d="M40.6772,213.3582 C36.0322,213.3582 36.0332,220.5612 40.6772,220.5612 C45.3212,220.5612 45.3212,213.3582 40.6772,213.3582 M40.6772,223.5612 C37.1182,223.5612 34.0752,220.5172 34.0752,216.9592 C34.0752,213.4002 37.1182,210.3582 40.6772,210.3582 C44.2362,210.3582 47.2792,213.4002 47.2792,216.9592 C47.2792,220.5182 44.2372,223.5612 40.6772,223.5612" id="Fill-85" fill="#000000"></path>
            <path d="M96.2437,234.6423 C96.2437,237.3923 93.8907,239.7433 91.1417,239.7433 C88.3917,239.7433 86.0407,237.3923 86.0407,234.6423 C86.0407,231.8913 88.3907,229.5403 91.1417,229.5403 C93.8907,229.5403 96.2437,231.8923 96.2437,234.6423" id="Fill-87" fill="#FF5500"></path>
            <path d="M80.6138,198.6633 C77.8638,198.6633 75.5128,196.3113 75.5128,193.5623 C75.5128,190.8123 77.8638,188.4603 80.6138,188.4603 C83.3658,188.4603 85.7158,190.8113 85.7158,193.5623 C85.7158,196.3113 83.3648,198.6633 80.6138,198.6633 M87.8828,186.2933 C88.1458,180.8483 84.5668,179.2463 80.6138,183.0983 C76.6608,179.2463 73.0818,180.8483 73.3448,186.2933 C67.9008,186.0293 66.2988,189.6083 70.1508,193.5623 C66.2988,197.5153 67.9008,201.0943 73.3448,200.8303 C73.0818,206.2753 76.6608,207.8783 80.6138,204.0253 C84.5668,207.8783 88.1458,206.2753 87.8828,200.8303 C93.3278,201.0943 94.9298,197.5153 91.0778,193.5623 C94.9298,189.6083 93.3278,186.0293 87.8828,186.2933" id="Fill-89" fill="#A1D29D"></path>
            <path d="M85.7153,193.5623 C85.7153,196.3123 83.3633,198.6633 80.6133,198.6633 C77.8643,198.6633 75.5133,196.3123 75.5133,193.5623 C75.5123,190.8113 77.8633,188.4603 80.6133,188.4603 C83.3633,188.4603 85.7153,190.8123 85.7153,193.5623" id="Fill-91" fill="#FF5500"></path>
            <path d="M80.6147,189.9607 C75.9707,189.9607 75.9697,197.1637 80.6147,197.1637 C85.2577,197.1637 85.2577,189.9607 80.6147,189.9607 M80.6147,200.1637 C77.0557,200.1637 74.0127,197.1207 74.0127,193.5627 C74.0127,190.0037 77.0557,186.9607 80.6147,186.9607 C84.1737,186.9607 87.2157,190.0037 87.2157,193.5627 C87.2157,197.1207 84.1737,200.1637 80.6147,200.1637" id="Fill-93" fill="#000000"></path>
            <path d="M105.9028,155.7214 C105.9028,158.4714 103.5498,160.8224 100.8008,160.8224 C98.0508,160.8224 95.6998,158.4714 95.6998,155.7214 C95.6998,152.9704 98.0498,150.6194 100.8008,150.6194 C103.5498,150.6194 105.9028,152.9714 105.9028,155.7214" id="Fill-95" fill="#FF5500"></path>
            <path d="M30.4585,252.325 C34.3105,248.372 32.7085,244.793 27.2635,245.056 C27.5265,239.611 23.9475,238.009 19.9945,241.862 C16.0415,238.009 12.4625,239.611 12.7265,245.056 C7.2805,244.793 5.6785,248.372 9.5305,252.325 L30.4585,252.325 Z" id="Fill-97" fill="#A1D29D"></path>
            <path d="M19.9946,247.2234 C17.1776,247.2234 14.8926,249.5074 14.8926,252.3254 L25.0966,252.3254 C25.0966,249.5074 22.8116,247.2234 19.9946,247.2234" id="Fill-99" fill="#FF5500"></path>
            <path d="M100.8013,160.8225 C98.0503,160.8225 95.6993,158.4705 95.6993,155.7215 C95.6993,152.9715 98.0503,150.6195 100.8013,150.6195 C103.5523,150.6195 105.9033,152.9705 105.9033,155.7215 C105.9023,158.4705 103.5513,160.8225 100.8013,160.8225 M112.4053,161.9115 C109.2993,153.8855 102.3083,147.7995 93.7353,145.9605 C93.5643,146.6695 93.4863,147.4985 93.5323,148.4525 C88.0873,148.1885 86.4853,151.7675 90.3373,155.7215 C86.4853,159.6745 88.0873,163.2535 93.5323,162.9895 C93.2693,168.4345 96.8483,170.0375 100.8013,166.1845 C104.7543,170.0375 108.3333,168.4345 108.0703,162.9895 C110.0533,163.0855 111.5203,162.6675 112.4053,161.9115" id="Fill-101" fill="#DDA812"></path>
            <path d="M91.2944,45.5715 C88.9044,47.4825 85.4774,48.0445 82.4084,46.4055 L67.8234,36.9595 C63.9994,42.8525 55.1164,42.8515 51.2934,36.9575 L37.8224,45.6825 C34.8114,47.9915 31.0434,47.7795 28.3354,45.9485 C21.6024,52.7915 17.4184,61.8195 17.1904,71.7515 C44.6964,71.4325 60.3584,48.9765 60.3584,48.9765 C60.3584,48.9765 74.2624,71.1295 102.8094,71.7445 C102.5734,61.6335 98.2444,52.4555 91.2944,45.5715" id="Fill-103" fill="#000000"></path>
            <path d="M94.1313,236.6477 L94.1313,232.6367 C94.9363,233.8337 94.9373,235.4517 94.1313,236.6477 Z M97.7433,234.6427 C97.7433,232.0787 96.2713,229.8567 94.1313,228.7637 L94.1313,223.8427 C97.2913,222.3817 96.9203,227.1247 96.8323,228.9517 C98.3613,228.8777 101.1923,228.2467 102.0813,229.9707 C102.9793,231.7117 100.5503,233.5757 99.5113,234.6427 C100.5553,235.7137 102.9803,237.5687 102.0813,239.3137 C101.1943,241.0367 98.3573,240.4067 96.8323,240.3327 C96.9203,242.1587 97.3023,246.9037 94.1313,245.4397 L94.1313,240.5207 C96.2713,239.4267 97.7433,237.2057 97.7433,234.6427 Z M112.6473,250.6287 L94.1313,250.6287 L94.1313,248.5867 C97.5643,249.3667 99.6293,246.4687 99.8863,243.3857 C101.7413,243.2317 103.7503,242.5137 104.7013,240.7967 C105.8313,238.7567 104.9153,236.3477 103.5943,234.6427 C104.9153,232.9367 105.8333,230.5307 104.7013,228.4877 C103.7503,226.7717 101.7413,226.0527 99.8863,225.8977 C99.6303,222.8247 97.5733,219.9107 94.1313,220.6917 L94.1313,199.7637 C94.9323,198.3667 94.7843,196.7367 94.1313,195.3097 L94.1313,191.8147 C94.7843,190.3867 94.9323,188.7567 94.1313,187.3597 L94.1313,181.7907 L91.1313,181.7907 L91.1313,185.1457 C90.5893,184.9837 89.9983,184.8717 89.3593,184.8177 C89.1993,182.9047 88.4323,180.8357 86.6153,179.9257 C84.5933,178.9127 82.2773,179.8217 80.6143,181.1097 C78.9073,179.7897 76.5033,178.8707 74.4603,180.0017 C72.7443,180.9527 72.0253,182.9617 71.8703,184.8177 C70.0143,184.9727 68.0063,185.6897 67.0553,187.4077 C65.9253,189.4477 66.8413,191.8567 68.1623,193.5627 C66.8403,195.2687 65.9233,197.6737 67.0553,199.7167 C68.0053,201.4327 70.0143,202.1517 71.8703,202.3067 C72.0293,204.2197 72.7973,206.2887 74.6133,207.1987 C76.6363,208.2117 78.9513,207.3027 80.6143,206.0137 C82.3213,207.3357 84.7243,208.2537 86.7683,207.1217 C88.4853,206.1707 89.2043,204.1617 89.3593,202.3057 C89.9983,202.2527 90.5893,202.1407 91.1313,201.9777 L91.1313,222.1827 C89.4273,220.8647 87.0273,219.9537 84.9873,221.0827 C83.2713,222.0327 82.5523,224.0427 82.3983,225.8977 C80.5413,226.0527 78.5333,226.7707 77.5823,228.4877 C76.4523,230.5277 77.3683,232.9367 78.6903,234.6427 C77.3673,236.3487 76.4503,238.7537 77.5823,240.7967 C78.5323,242.5127 80.5413,243.2317 82.3983,243.3867 C82.5523,245.2427 83.2703,247.2517 84.9873,248.2017 C87.0243,249.3287 89.4273,248.4187 91.1313,247.1017 L91.1313,250.6287 L33.4943,250.6287 C34.8643,247.6957 33.5023,244.7557 30.4133,243.8777 L30.4133,225.4427 C30.8863,225.5667 31.3903,225.6587 31.9333,225.7037 C32.0923,227.6167 32.8593,229.6857 34.6763,230.5957 C36.6983,231.6087 39.0143,230.7007 40.6773,229.4117 C42.3843,230.7337 44.7863,231.6517 46.8303,230.5197 C48.5473,229.5687 49.2673,227.5597 49.4213,225.7037 C51.2773,225.5487 53.2853,224.8317 54.2363,223.1137 C55.3653,221.0737 54.4493,218.6647 53.1293,216.9597 C54.4493,215.2527 55.3673,212.8477 54.2363,210.8047 C53.2853,209.0887 51.2773,208.3697 49.4213,208.2157 C49.2623,206.3027 48.4943,204.2327 46.6783,203.3227 C44.6553,202.3107 42.3403,203.2187 40.6773,204.5077 C38.9713,203.1867 36.5663,202.2687 34.5233,203.3997 C32.8063,204.3507 32.0873,206.3597 31.9333,208.2157 C31.3903,208.2607 30.8863,208.3527 30.4133,208.4767 L30.4133,190.0737 C34.2363,191.9967 37.3333,189.3297 37.6573,185.4327 C39.5133,185.2787 41.5223,184.5607 42.4733,182.8437 C43.6033,180.8037 42.6873,178.3947 41.3653,176.6897 C42.6873,174.9827 43.6053,172.5777 42.4733,170.5347 C41.5223,168.8187 39.5133,168.0997 37.6573,167.9447 C37.4983,166.0317 36.7313,163.9627 34.9143,163.0527 C32.8923,162.0397 30.5763,162.9487 28.9133,164.2367 C27.2073,162.9157 24.8023,161.9977 22.7593,163.1287 C21.0433,164.0797 20.3233,166.0887 20.1693,167.9447 C18.3133,168.0997 16.3043,168.8167 15.3543,170.5347 C14.2243,172.5747 15.1413,174.9837 16.4623,176.6897 C15.1413,178.3957 14.2223,180.8007 15.3543,182.8437 C16.3043,184.5597 18.3143,185.2787 20.1693,185.4327 C20.4903,189.3027 23.5863,192.0207 27.4133,190.0967 L27.4133,210.3637 C26.2223,211.9847 26.4903,214.0327 27.4133,215.7127 L27.4133,218.2057 C26.4913,219.8857 26.2223,221.9337 27.4133,223.5557 L27.4133,239.8417 C25.4373,237.3837 22.1813,238.1797 19.9943,239.8727 C18.2883,238.5517 15.8823,237.6337 13.8393,238.7657 C12.1233,239.7157 11.4043,241.7257 11.2503,243.5807 C10.3733,243.6537 9.5863,243.8357 8.8993,244.1117 L8.8993,193.3447 L8.8993,180.7367 C8.8993,176.9347 8.7603,173.0987 9.1103,169.3067 C9.7513,162.3717 12.9043,156.1777 18.4683,151.9097 C21.4893,149.5917 25.0553,147.9637 28.8103,147.2997 C33.2433,146.5147 37.8303,146.8807 42.3093,146.8807 C42.3093,152.2267 45.2863,156.9577 48.3233,161.1357 C51.6393,165.6967 55.4743,169.8587 59.5313,173.7657 C63.4553,169.9877 67.2763,166.0577 70.5013,161.6547 C73.6403,157.3697 76.7543,152.3617 76.7543,146.8807 C81.5493,146.8807 86.5363,146.4817 91.3043,147.0737 C89.5023,147.3687 87.6943,148.3027 87.0043,150.0887 C86.2503,152.0417 87.1403,154.1617 88.3493,155.7217 C87.0273,157.4277 86.1103,159.8327 87.2413,161.8767 C88.1923,163.5917 90.2003,164.3117 92.0573,164.4657 C92.2163,166.3787 92.9843,168.4467 94.8003,169.3577 C96.8223,170.3717 99.1373,169.4617 100.8013,168.1727 C102.5083,169.4957 104.9103,170.4137 106.9543,169.2807 C108.6713,168.3307 109.3903,166.3217 109.5453,164.4657 C110.2833,164.4037 110.9543,164.2597 111.5633,164.0507 C113.1453,169.1607 112.6473,174.7397 112.6473,180.0147 L112.6473,197.0097 L112.6473,231.3817 L112.6473,250.6287 Z M91.1313,191.0927 C90.5583,192.0267 89.7423,192.7827 88.9833,193.5627 C89.7423,194.3417 90.5583,195.0977 91.1313,196.0317 L91.1313,198.7127 C89.8083,199.6687 87.8393,199.3267 86.3053,199.2517 C86.3783,200.7657 86.9773,203.3787 85.4543,204.3967 C83.7013,205.5687 81.6993,202.9887 80.6143,201.9307 C79.5243,202.9947 77.5303,205.5707 75.7743,204.3967 C74.2553,203.3817 74.8513,200.7597 74.9243,199.2517 C73.3943,199.3267 70.5633,199.9597 69.6743,198.2327 C68.7773,196.4927 71.2053,194.6287 72.2453,193.5627 C71.2013,192.4917 68.7763,190.6347 69.6753,188.8907 C70.5623,187.1697 73.4003,187.7977 74.9243,187.8717 C74.8513,186.3587 74.2523,183.7457 75.7743,182.7277 C77.5273,181.5547 79.5283,184.1347 80.6143,185.1927 C81.7053,184.1297 83.6973,181.5507 85.4543,182.7277 C86.9733,183.7447 86.3783,186.3637 86.3053,187.8717 C87.8353,187.7977 89.8113,187.4567 91.1313,188.4107 L91.1313,191.0927 Z M91.1313,228.0417 C87.5773,228.0467 84.5403,231.0887 84.5403,234.6427 C84.5403,238.1967 87.5763,241.2367 91.1313,241.2427 L91.1313,243.0217 C90.0423,244.0837 88.0543,246.6477 86.3013,245.4767 C84.7823,244.4617 85.3783,241.8397 85.4513,240.3327 C83.9213,240.4067 81.0903,241.0397 80.2013,239.3137 C79.3053,237.5727 81.7333,235.7087 82.7733,234.6427 C81.7293,233.5717 79.3033,231.7147 80.2023,229.9707 C81.0893,228.2507 83.9273,228.8777 85.4513,228.9517 C85.3783,227.4387 84.7793,224.8257 86.3013,223.8077 C88.0513,222.6367 90.0473,225.2067 91.1313,226.2627 L91.1313,228.0417 Z M91.1313,238.2427 C86.5003,238.2287 86.5003,231.0557 91.1313,231.0417 L91.1313,238.2427 Z M30.4133,250.0127 L30.4133,247.1167 C31.5213,247.8267 30.9933,249.1267 30.4133,250.0127 Z M34.9063,209.6187 C34.8533,208.5177 34.8653,206.5947 36.0573,206.0267 C37.7633,205.2127 39.6563,207.5957 40.6773,208.5907 C41.7683,207.5267 43.7603,204.9487 45.5173,206.1247 C47.0353,207.1417 46.4413,209.7617 46.3673,211.2697 C47.8973,211.1947 50.7283,210.5637 51.6163,212.2887 C52.5123,214.0287 50.0853,215.8927 49.0473,216.9597 C50.1103,218.0507 52.6883,220.0437 51.5113,221.7997 C50.4953,223.3167 47.8743,222.7227 46.3673,222.6497 C46.4413,224.1627 47.0383,226.7757 45.5173,227.7937 C43.7633,228.9667 41.7623,226.3867 40.6773,225.3287 C39.5863,226.3917 37.5933,228.9687 35.8363,227.7937 C34.3183,226.7787 34.9133,224.1577 34.9863,222.6497 C33.4993,222.7217 31.7773,222.9907 30.4133,222.2587 L30.4133,219.0407 C30.9583,218.2787 31.6553,217.6277 32.3083,216.9597 C31.6553,216.2907 30.9583,215.6397 30.4133,214.8787 L30.4133,211.6587 C31.7763,210.9277 33.5003,211.1967 34.9863,211.2697 L34.9063,209.6187 Z M25.3123,176.6897 C25.3123,172.0447 32.5153,172.0447 32.5153,176.6897 C32.5153,181.3327 25.3123,181.3327 25.3123,176.6897 Z M27.4133,186.4907 C26.5753,187.2117 25.1123,188.2227 24.0323,187.4097 C22.6653,186.3807 23.1523,183.8177 23.2233,182.3787 C21.6933,182.4537 18.8623,183.0857 17.9743,181.3597 C17.0773,179.6197 19.5053,177.7557 20.5453,176.6897 C19.4823,175.5977 16.9023,173.6057 18.0783,171.8477 C19.0953,170.3297 21.7153,170.9257 23.2233,170.9987 C23.1503,169.4857 22.5513,166.8727 24.0723,165.8547 C25.8263,164.6807 27.8273,167.2617 28.9133,168.3197 C30.0043,167.2567 31.9963,164.6777 33.7533,165.8547 C35.2723,166.8717 34.6773,169.4907 34.6043,170.9987 C36.1163,170.9257 38.7303,170.3267 39.7483,171.8487 C40.9223,173.6027 38.3413,175.6037 37.2823,176.6897 C38.3263,177.7607 40.7513,179.6167 39.8533,181.3607 C38.9663,183.0827 36.1273,182.4537 34.6043,182.3787 C34.6743,183.8257 35.1613,186.3777 33.7943,187.4097 C32.7153,188.2247 31.2493,187.2107 30.4133,186.4907 L30.4133,183.1117 C33.5383,182.3817 35.7583,179.3157 35.4873,176.1187 C35.2103,172.8487 32.3803,170.1917 29.1063,170.0937 C25.8253,169.9947 22.8503,172.4927 22.3823,175.7417 C21.9053,179.0567 24.1503,182.3497 27.4133,183.1117 L27.4133,186.4907 Z M27.4133,250.6287 L26.3663,250.6287 C24.6663,244.2517 15.3223,244.2507 13.6213,250.6287 L10.0303,250.6287 C9.3593,249.8017 8.5273,248.4247 9.3023,247.4117 C10.3183,246.0827 12.9003,246.5667 14.3043,246.6347 C14.2313,245.1217 13.6323,242.5077 15.1523,241.4897 C16.9063,240.3177 18.9083,242.8977 19.9943,243.9557 C21.0853,242.8917 23.0783,240.3147 24.8353,241.4897 C26.3543,242.5057 25.7583,245.1267 25.6853,246.6347 C26.2613,246.6067 26.8373,246.5757 27.4133,246.5537 L27.4133,250.6287 Z M16.8273,250.6287 C18.1653,248.1427 21.8223,248.1417 23.1603,250.6287 L16.8273,250.6287 Z M46.9733,144.9407 C55.6553,147.6067 65.1253,147.5067 73.7543,144.6757 C73.7543,147.3197 73.7653,149.6447 72.7103,152.1177 C71.7843,154.2867 70.4703,156.2987 69.1343,158.2337 C66.3163,162.3177 63.0223,166.0567 59.5313,169.5767 C56.0023,166.0197 52.6693,162.2407 49.8333,158.1027 C48.4913,156.1457 47.1633,154.1027 46.2573,151.8997 C45.2353,149.4177 45.3093,147.0347 45.3093,144.3967 C45.8593,144.5897 46.4143,144.7707 46.9733,144.9407 Z M21.1553,116.8237 C21.9533,114.0587 21.2753,111.0337 19.3803,108.8687 C19.1183,106.7657 18.8483,104.3157 18.6113,101.9187 L18.6113,95.3837 L18.6663,95.4247 L18.6663,79.0767 C18.7713,77.0707 19.0273,75.1037 19.4053,73.1807 C41.9333,71.9827 56.1123,56.7097 60.3053,51.5177 C64.1943,56.7307 77.3193,71.7257 100.4783,73.1477 C101.3503,77.5547 101.3123,82.0647 101.2863,86.5357 C101.2603,91.1487 101.2783,95.7627 101.2783,100.3767 C101.1553,103.0097 101.0103,105.8997 100.8573,108.3977 C100.8033,108.7757 100.7413,109.1497 100.6773,109.5227 C99.4233,111.2747 98.8853,113.4397 99.1633,115.5727 C95.1763,127.5457 85.5253,137.3807 73.6113,141.5577 C60.6733,146.0927 45.8183,143.7147 34.9163,135.4137 C28.6993,130.6797 23.8623,124.1557 21.1553,116.8237 Z M12.9763,119.9847 C12.8033,119.9847 12.6293,119.9767 12.4573,119.9597 C15.1103,116.8197 15.1103,112.1137 12.4573,108.9737 C15.5423,108.6757 18.3823,111.1847 18.4873,114.2787 C18.5923,117.3217 16.0213,119.9847 12.9763,119.9847 Z M9.1853,106.8637 C7.3223,101.9387 8.9163,93.6957 14.9313,92.6197 C14.9483,94.2617 15.1263,97.0827 15.6113,102.0397 C15.6083,103.5117 15.6783,104.9777 15.8123,106.4437 C13.6343,105.6717 11.2503,105.8327 9.1853,106.8637 Z M69.8083,26.7547 L82.1103,18.7877 L82.2083,18.7187 C84.7303,16.7847 88.4443,17.0137 90.7673,19.1617 C93.8363,22.0017 92.8133,27.1307 92.8473,30.8767 C92.8683,33.3067 92.8933,35.7377 92.8473,38.1677 C92.8143,39.9097 92.6203,41.5007 91.5973,42.9647 C89.7163,45.6577 86.1063,46.6457 83.1693,45.1107 L69.8083,36.4577 C71.2613,33.3997 71.2613,29.8127 69.8083,26.7547 Z M51.2063,31.6057 C51.2063,24.7317 59.8223,20.7737 65.0293,25.2987 C70.5193,30.0687 67.1973,39.6487 59.9053,39.9547 C55.2623,40.1497 51.2063,36.2567 51.2063,31.6057 Z M26.7283,50.0247 C27.3273,49.2737 27.9603,48.5517 28.6133,47.8477 C31.8343,49.4757 35.8153,49.0837 38.6863,46.9107 L50.9333,38.9787 C55.3783,44.1937 63.7413,44.1907 68.1843,38.9797 L81.5943,47.6647 L81.7023,47.7287 C84.6393,49.2967 88.2203,49.2187 91.0883,47.5307 C96.9253,53.6767 100.6543,61.6967 101.2363,70.1857 C84.7953,69.3337 69.1883,60.1727 60.4223,46.2637 C50.9773,59.8007 35.4343,69.4697 18.7613,70.2077 C19.2633,62.8517 22.1293,55.7707 26.7283,50.0247 Z M49.3093,36.4557 L37.0073,44.4237 L36.9093,44.4917 C34.3883,46.4267 30.6733,46.1967 28.3513,44.0487 C25.2813,41.2097 26.3053,36.0797 26.2723,32.3337 C26.2493,29.9037 26.2253,27.4737 26.2713,25.0437 C26.3043,23.3007 26.4973,21.7097 27.5213,20.2447 C29.4023,17.5517 33.0133,16.5647 35.9493,18.1007 L49.3113,26.7537 C47.8573,29.8117 47.8573,33.3977 49.3093,36.4557 Z M7.0283,39.8767 C10.9383,28.1817 18.7833,17.8227 29.4753,11.5557 C39.9023,5.4437 52.1523,3.3767 64.1103,3.8977 C76.0353,4.4167 88.1683,7.7237 97.4853,15.4617 C107.2353,23.5577 112.7703,35.6357 114.4873,48.0237 C115.5363,55.5907 115.2463,63.3657 113.6573,70.8377 C112.2403,77.4997 109.5973,84.8947 104.3333,89.5147 L104.3333,73.2777 L104.3453,73.2777 L104.3333,72.7697 C104.3423,62.6187 100.2713,53.0127 93.4003,45.6217 C95.8923,42.8267 96.0073,38.8557 95.9243,35.3117 C95.8363,31.5837 96.1543,27.7757 95.8353,24.0647 C95.5153,20.3347 93.8923,16.9757 90.3763,15.3167 C87.1763,13.8077 83.2633,14.1567 80.4323,16.3007 L68.1783,24.2367 C63.7023,19.0117 55.4163,19.0107 50.9413,24.2357 L37.5253,15.5467 L37.4163,15.4817 C31.1443,12.1347 23.8543,16.6677 23.3373,23.5287 C23.0213,27.7327 23.2963,32.0567 23.2963,36.2727 C23.2963,39.8377 23.4523,43.4227 26.1613,46.0817 C19.5063,53.3957 15.7153,62.8467 15.6663,72.7517 L15.6543,73.2697 L15.6663,73.2697 L15.6663,78.9927 C15.5023,82.3657 15.6113,85.7617 15.6113,89.1377 C4.4503,78.5637 0.8043,58.4907 7.0283,39.8767 Z M111.3913,103.1687 C111.3913,104.3887 111.2053,105.5397 110.8833,106.6117 C108.6963,105.6957 106.2013,105.7417 104.0493,106.7347 C104.2543,104.6267 104.2783,102.5267 104.2783,100.4117 C104.3923,97.9707 104.4963,95.5277 104.6023,93.0857 C104.7783,92.9657 104.9533,92.8297 105.1293,92.6997 C110.8893,93.9687 111.3913,100.8947 111.3913,103.1687 Z M108.1203,119.9597 C104.9653,120.2647 102.0833,117.6327 102.0833,114.4667 C102.0833,111.3007 104.9643,108.6687 108.1203,108.9737 C105.4683,112.1137 105.4683,116.8197 108.1203,119.9597 Z M93.4603,149.9507 L95.1103,150.0307 C95.0743,149.3007 95.0123,148.5657 95.0203,147.8347 C96.3923,148.2297 97.7283,148.7427 99.0093,149.3737 C94.2313,150.7247 92.6623,157.1567 96.3063,160.5487 C100.2503,164.2197 107.0413,161.5237 107.3813,156.1397 C108.6253,157.7097 109.6733,159.4257 110.4963,161.2517 C109.2143,161.6547 107.8123,161.4757 106.4913,161.4117 C106.5653,162.9247 107.1633,165.5387 105.6413,166.5557 C103.8873,167.7287 101.8863,165.1487 100.8013,164.0897 C99.7103,165.1537 97.7173,167.7297 95.9603,166.5557 C94.4423,165.5407 95.0373,162.9187 95.1103,161.4117 C93.5973,161.4847 90.9843,162.0847 89.9653,160.5627 C88.7923,158.8077 91.3733,156.8077 92.4323,155.7217 C91.4433,154.7087 89.0563,152.8077 89.8673,151.1047 C90.4373,149.9107 92.3553,149.8997 93.4603,149.9507 Z M104.4023,155.7217 C104.4023,160.3647 97.1993,160.3647 97.1993,155.7217 C97.1993,151.0777 104.4023,151.0777 104.4023,155.7217 Z M114.1893,162.3617 C112.4453,157.8667 109.8193,153.7027 106.1573,150.5247 C102.3083,147.1847 97.5623,145.2467 92.6193,144.1867 L92.6103,144.2257 C87.4523,143.4027 81.9583,143.8807 76.7543,143.8807 L76.7543,143.5627 C87.6053,139.0967 96.3103,130.4507 100.8463,119.6347 C102.2943,121.5227 104.5363,122.7457 106.9053,122.9507 C109.6343,123.1867 111.8333,121.8547 114.1053,120.5397 C111.6043,119.0907 109.0113,117.6437 109.1123,114.3057 C110.9363,112.9437 112.3773,111.0777 113.2903,108.8657 L114.1053,108.3947 L113.5813,108.0917 C115.6593,102.0677 114.0313,93.2307 107.6793,90.4047 C113.3283,84.3467 115.9603,76.0157 117.2453,67.9947 C118.7583,58.5527 118.3293,48.7987 115.8193,39.5637 C113.6523,31.5897 109.8223,24.0437 104.3133,17.8557 C98.7973,11.6627 91.7063,7.1787 83.9133,4.4137 C68.7343,-0.9733 50.6503,-0.6993 35.7013,5.3647 C21.1113,11.2827 9.8453,23.0197 4.5473,37.8417 C-0.8417,52.9177 -0.6477,70.9127 8.1463,84.7007 C9.4053,86.6747 10.8413,88.5377 12.4623,90.2287 C5.7893,92.8487 4.0213,102.3157 6.5423,108.3547 L6.4743,108.3947 L6.5853,108.4597 C7.6153,110.8677 9.3223,112.9187 11.4693,114.3727 C11.5273,117.6697 8.9503,119.1047 6.4743,120.5397 C8.6093,121.7757 10.6553,123.0597 13.2193,122.9777 C15.5143,122.9037 17.7393,121.8757 19.2813,120.1737 C23.7583,130.4617 32.0253,138.7357 42.3093,143.2167 L42.3093,143.8807 C37.7923,143.8807 33.2283,143.5047 28.7473,144.2527 C25.1333,144.8567 21.6533,146.2137 18.5673,148.1857 C12.0433,152.3527 7.5603,159.1567 6.2903,166.7917 C5.5903,171.0027 5.8993,175.3827 5.8993,179.6357 L5.8993,193.6527 L5.8993,222.1377 L5.8993,253.6287 L8.7063,253.6287 L8.8983,253.8247 L31.0913,253.8247 L31.2813,253.6287 L115.6473,253.6287 L115.6473,181.6347 C115.6473,175.2657 116.2703,168.5087 114.1663,162.3807 L114.1893,162.3617 Z" id="Fill-105" fill="#000000"></path>
        </g>
    </g>
</svg>