<?xml version="1.0" encoding="UTF-8"?>
<svg width="175px" height="175px" viewBox="0 0 175 175" version="1.1" xmlns="http://www.w3.org/2000/svg" xmlns:xlink="http://www.w3.org/1999/xlink">
    <!-- Generator: sketchtool 50.2 (55047) - http://www.bohemiancoding.com/sketch -->
    <title>BD639450-8DBF-4554-965E-3EA012052F48</title>
    <desc>Created with sketchtool.</desc>
    <defs>
        <circle id="path-1" cx="87.5" cy="87.5" r="87.5"></circle>
        <polygon id="path-3" points="0.683953003 0.60922449 82.410894 0.60922449 82.410894 169.169429 0.683953003 169.169429"></polygon>
    </defs>
    <g id="Symbols" stroke="none" stroke-width="1" fill="none" fill-rule="evenodd">
        <g id="characters" transform="translate(-465.000000, -550.000000)">
            <g id="PLAYER-/-fatima_lose" transform="translate(465.000000, 550.000000)">
                <mask id="mask-2" fill="white">
                    <use xlink:href="#path-1"></use>
                </mask>
                <use id="Mask" fill="#FFFFFF" xlink:href="#path-1"></use>
                <g id="fatima_lose" mask="url(#mask-2)">
                    <g transform="translate(46.000000, 10.000000)">
                        <path d="M70.9707193,49.9534939 C51.575921,49.1576163 42.1201983,34.1892898 42.1201983,34.1892898 C42.1201983,34.1892898 31.4501647,49.3907592 12.6886773,49.9680653 C11.9716689,53.1467184 11.9563244,56.3212082 11.9563244,59.5491265 L11.9563244,68.9282694 C11.9563244,71.8342286 11.9967782,74.7020245 12.6077697,77.5649633 C13.5870303,82.1494122 15.6773748,86.4750449 18.6507277,90.1081878 C22.0000218,94.2006776 26.4373832,97.3779429 31.4090134,99.2194939 C33.9631815,105.131331 41.5426857,112.394147 41.5426857,112.394147 L41.5433832,112.394147 C41.5433832,112.394147 48.9220134,105.324229 51.5724336,99.4574939 C60.5957193,96.3614122 67.7595261,88.9313714 70.4762067,79.8263102 C72.2917445,73.7423918 71.7072571,67.0936571 71.7072571,60.8196163 C71.7072571,57.1649633 71.7839798,53.5526367 70.9707193,49.9534939" id="Fill-63" fill="#684E43"></path>
                        <path d="M42.1070857,1.81913878 C-0.550729412,1.81913878 -7.13981345,50.0006082 11.9941277,64.3333429 L11.9941277,54.7349347 C11.9941277,50.3572612 11.9955227,46.1128122 13.513237,41.9120776 C14.8440269,38.2275878 17.0180689,34.8706082 19.7765983,32.083302 C19.7556739,32.0694245 19.7375395,32.0513837 19.7166151,32.0375061 C21.6102706,33.3517102 24.2753378,33.5265673 26.4012538,31.9035878 L35.7969933,25.8502 C38.4634555,29.9392204 44.6591613,29.9399143 47.326321,25.8508939 L57.4990521,32.4052612 C59.6396151,33.5425265 62.0298756,33.1525673 63.6961529,31.8272612 C68.7396235,36.792649 71.7066992,43.5135469 71.744363,50.5876286 C71.7624975,53.8169347 71.744363,57.0462408 71.744363,60.2748531 L71.744363,64.3333429 C85.8683126,56.5001592 90.387279,1.81913878 42.1070857,1.81913878" id="Fill-65" fill="#FF5500"></path>
                        <path d="M61.6003681,94.143502 L61.0103008,94.143502 C58.2413092,96.4534204 55.0419731,98.2679102 51.5531832,99.4634612 C51.5594605,99.4613796 51.5657378,99.459298 51.5720151,99.4572163 C48.921595,105.323951 41.5429647,112.394563 41.5429647,112.394563 L41.5422672,112.394563 C41.5422672,112.394563 33.9634605,105.131747 31.4099899,99.2199102 C28.1980992,98.0299102 25.2484605,96.3063184 22.6677882,94.1573796 C13.0774521,94.4432571 5.29358655,102.433951 5.18198992,111.9484 C5.1492084,114.748196 5.18129244,117.550767 5.18129244,120.351951 L5.18129244,138.792441 L5.18129244,157.944849 L5.18129244,168.065053 L5.18129244,168.213543 L79.6350824,168.213543 L79.6350824,159.804441 L79.6350824,141.119012 L79.6350824,121.970767 C79.6350824,118.70538 79.6518218,115.439298 79.6350824,112.173216 C79.5932336,103.666971 73.5279563,96.1168898 65.073116,94.4758694 C63.9299479,94.2538286 62.765158,94.143502 61.6003681,94.143502" id="Fill-67" fill="#FFAEE4"></path>
                        <path d="M50.107658,79.5266939 C47.6044059,77.0363673 43.5290361,77.0356735 41.0250866,79.5266939 L39.5450361,78.0549796 C42.8657336,74.7514286 48.2677084,74.7528163 51.5870109,78.0549796 L50.107658,79.5266939 Z" id="Fill-69" fill="#000000"></path>
                        <path d="M41.5621454,16.3410939 C36.2375908,16.3410939 33.7503807,23.1757878 37.8229605,26.5757878 C41.9199521,29.9979918 48.2732882,26.2954612 47.2891454,21.0677878 C46.7792882,18.3637469 44.3255571,16.3410939 41.5621454,16.3410939 M41.5621454,30.013951 C38.2756244,30.013951 35.2569353,27.9101143 34.1263218,24.8424816 C32.9803639,21.735298 33.9665992,18.1646041 36.527742,16.0607673 C39.0581958,13.9826041 42.7234479,13.6842367 45.5559101,15.3363592 C48.4525403,17.025951 49.9953639,20.4467673 49.3195067,23.7225633 C48.5745992,27.3369714 45.2692462,30.013951 41.5621454,30.013951" id="Fill-71" fill="#000000"></path>
                        <path d="M30.6517605,65.1199224 C27.7586176,65.1199224 25.4046261,62.7780857 25.4046261,59.8998816 L27.497063,59.8998816 C27.497063,63.9438 33.806458,63.9465755 33.806458,59.8998816 L35.898895,59.8998816 C35.898895,62.7780857 33.5449034,65.1199224 30.6517605,65.1199224" id="Fill-73" fill="#000000"></path>
                        <path d="M53.5997958,65.1199224 C50.7066529,65.1199224 48.3526613,62.7780857 48.3526613,59.8998816 L50.4450983,59.8998816 C50.4450983,63.9438 56.7544933,63.9465755 56.7544933,59.8998816 L58.8469303,59.8998816 C58.8469303,62.7780857 56.4929387,65.1199224 53.5997958,65.1199224" id="Fill-75" fill="#000000"></path>
                        <path d="M28.3917891,147.349824 C26.4541924,147.349824 24.8339487,145.737947 24.8339487,143.810355 C24.8339487,141.882763 26.4541924,140.270886 28.3917891,140.270886 C30.3307807,140.270886 31.9503269,141.882763 31.9503269,143.810355 C31.9503269,145.737947 30.3300832,147.349824 28.3917891,147.349824" id="Fill-77" fill="#DDA812"></path>
                        <path d="M23.7458118,115.867837 C23.7458118,117.796122 22.1248706,119.408 20.1872739,119.408 C18.2503748,119.408 16.6294336,117.796122 16.6294336,115.867837 C16.6294336,113.939551 18.2496773,112.327673 20.1872739,112.327673 C22.1248706,112.327673 23.7458118,113.939551 23.7458118,115.867837" id="Fill-79" fill="#FF5500"></path>
                        <path d="M63.5906244,159.620078 C61.6523303,159.620078 60.0320866,158.007506 60.0320866,156.079914 C60.0320866,154.153016 61.6523303,152.540445 63.5906244,152.540445 C65.5289185,152.540445 67.1491622,154.152322 67.1484647,156.079914 C67.1484647,158.007506 65.528221,159.620078 63.5906244,159.620078 M68.6605992,151.036812 C68.8440361,147.258649 66.3477588,146.146363 63.5906244,148.819873 C60.8334899,146.146363 58.3372126,147.258649 58.5206496,151.036812 C54.7228765,150.853629 53.6055151,153.337016 56.2922042,156.079914 C53.6055151,158.823506 54.7228765,161.306894 58.5206496,161.12371 C58.3372126,164.901873 60.8334899,166.013465 63.5906244,163.340649 C66.3477588,166.013465 68.8440361,164.901873 68.6605992,161.12371 C72.4576748,161.306894 73.5750361,158.823506 70.8883471,156.079914 C73.5750361,153.337016 72.4576748,150.853629 68.6605992,151.036812" id="Fill-81" fill="#DDA812"></path>
                        <path d="M20.1875529,119.407653 C18.2492588,119.407653 16.6290151,117.795082 16.6290151,115.86749 C16.6290151,113.940592 18.2492588,112.32802 20.1875529,112.32802 C22.1258471,112.32802 23.7460908,113.939898 23.7460908,115.86749 C23.7460908,117.795082 22.1258471,119.407653 20.1875529,119.407653 M25.2575277,110.824388 C25.4409647,107.046224 22.9446874,105.933939 20.1875529,108.607449 C17.4304185,105.933939 14.9341412,107.046224 15.1175782,110.824388 C11.319805,110.641204 10.2024437,113.124592 12.8891328,115.86749 C10.2024437,118.611082 11.319805,121.094469 15.1175782,120.911286 C14.9341412,124.689449 17.4304185,125.801735 20.1875529,123.128224 C22.9446874,125.801735 25.4409647,124.689449 25.2575277,120.911286 C29.0553008,121.094469 30.1726622,118.611082 27.4859731,115.86749 C30.1726622,113.124592 29.0553008,110.641204 25.2575277,110.824388" id="Fill-83" fill="#9FE2A2"></path>
                        <path d="M31.9500479,143.810633 C31.9500479,145.738918 30.3298042,147.350796 28.3915101,147.350796 C26.4546109,147.350796 24.8343672,145.738918 24.8343672,143.810633 C24.8343672,141.881653 26.4546109,140.270469 28.3915101,140.270469 C30.3298042,140.270469 31.9500479,141.882347 31.9500479,143.810633" id="Fill-85" fill="#FF5500"></path>
                        <path d="M67.1488832,156.080192 C67.1488832,158.008478 65.527942,159.620355 63.5903454,159.620355 C61.6527487,159.620355 60.032505,158.008478 60.032505,156.080192 C60.032505,154.151212 61.6527487,152.540029 63.5903454,152.540029 C65.527942,152.540029 67.1488832,154.151906 67.1488832,156.080192" id="Fill-87" fill="#FF5500"></path>
                        <path d="M59.8056151,127.575633 C59.8056151,129.503918 58.1853714,131.115796 56.2470773,131.115796 C54.3101782,131.115796 52.6899345,129.503918 52.6899345,127.575633 C52.6899345,125.646653 54.3101782,124.035469 56.2470773,124.035469 C58.1853714,124.035469 59.8056151,125.647347 59.8056151,127.575633" id="Fill-89" fill="#FF5500"></path>
                        <path d="M73.8859723,101.318751 C73.8859723,103.247037 72.2650311,104.858914 70.3274345,104.858914 C68.3898378,104.858914 66.7695941,103.247037 66.7695941,101.318751 C66.7695941,99.3897714 68.3898378,97.7785878 70.3274345,97.7785878 C72.2650311,97.7785878 73.8859723,99.3904653 73.8859723,101.318751" id="Fill-91" fill="#FF5500"></path>
                        <path d="M13.9668076,164.809935 C12.0020092,164.809935 10.4082697,166.394751 10.4082697,168.350098 L17.5253454,168.350098 C17.5253454,166.394751 15.9316059,164.809935 13.9668076,164.809935" id="Fill-93" fill="#FF5500"></path>
                        <path d="M63.6969202,31.8266367 C62.0299454,33.1526367 59.6396849,33.5425959 57.4991218,32.4053306 L47.3263908,25.8509633 C44.6592311,29.9399837 38.4642227,29.9392898 35.797063,25.8502694 L26.4013235,31.9036571 C24.3012143,33.5065143 21.6731134,33.3594122 19.7843403,32.0889224 C15.0882143,36.8364327 12.1699622,43.1007592 12.010937,49.9930449 C31.1957941,49.7710041 42.1197101,34.1892898 42.1197101,34.1892898 C42.1197101,34.1892898 51.817458,49.5614531 71.7283908,49.9874939 C71.5637857,42.971698 68.5443992,36.6039837 63.6969202,31.8266367" id="Fill-95" fill="#000000"></path>
                        <path d="M9.02656387,78.9777673 C8.82080756,77.4547061 7.90571513,76.157849 6.62374874,75.4188694 C8.52577395,74.3225429 10.9955471,74.6500531 12.5439504,76.2001755 C11.8973874,71.2084204 11.212463,63.2669918 11.5688748,63.3363796 C8.02568151,63.3363796 5.78468151,65.8954 5.1409084,69.1899306 C4.39879076,72.9875224 5.54474874,76.9211143 9.02656387,78.9777673" id="Fill-97" fill="#684E43"></path>
                        <path d="M28.3917891,147.349824 C26.4541924,147.349824 24.8339487,145.737947 24.8339487,143.810355 C24.8339487,141.882763 26.4541924,140.270886 28.3917891,140.270886 C30.3307807,140.270886 31.9503269,141.882763 31.9503269,143.810355 C31.9503269,145.737947 30.3300832,147.349824 28.3917891,147.349824 M33.4617639,138.767253 C33.6452008,134.98909 31.149621,133.876804 28.3917891,136.550314 C25.6346546,133.876804 23.1383773,134.98909 23.3225118,138.767253 C19.5247387,138.584069 18.4073773,141.067457 21.0940664,143.810355 C18.4073773,146.553947 19.5247387,149.037335 23.3225118,148.854151 C23.1383773,152.63162 25.6346546,153.743906 28.3917891,151.070396 C31.149621,153.743906 33.6452008,152.63162 33.4617639,148.854151 C37.259537,149.037335 38.3768983,146.553947 35.6902092,143.810355 C38.3768983,141.067457 37.259537,138.584069 33.4617639,138.767253" id="Fill-99" fill="#DDA812"></path>
                        <path d="M9.07148151,79.6316776 C9.07148151,77.8303714 8.0859437,76.2615143 6.62333025,75.4191469 C9.83591849,73.5678816 13.9670866,75.9555143 13.9670866,79.6316776 C13.9670866,83.3085347 9.83661597,85.6961673 6.62333025,83.844902 C8.0859437,83.0025347 9.07148151,81.4336776 9.07148151,79.6316776" id="Fill-101" fill="#DDA812"></path>
                        <path d="M75.0711286,79.6316776 C75.0711286,77.8303714 76.0566664,76.2615143 77.5185824,75.4191469 C74.3059941,73.5678816 70.1755235,75.9555143 70.1755235,79.6316776 C70.1755235,83.3085347 74.3059941,85.6961673 77.5185824,83.844902 C76.0566664,83.0025347 75.0711286,81.4336776 75.0711286,79.6316776" id="Fill-103" fill="#DDA812"></path>
                        <path d="M71.6872395,76.1176041 C73.2370378,74.6354816 75.6579874,74.3461347 77.5181639,75.4188694 C76.2417773,76.1550735 75.3308697,77.4866245 75.1223235,78.9396041 C80.7523739,75.2287469 79.9181891,63.3363796 72.0052899,63.3363796 C71.9732059,63.2683796 71.6893319,71.494298 71.3447773,76.4791143 L71.3447773,76.4784204 C71.4521891,76.3521347 71.5672731,76.2320939 71.6872395,76.1176041" id="Fill-105" fill="#684E43"></path>
                        <path d="M70.3277134,104.858637 C68.3894193,104.858637 66.7691756,103.246065 66.7691756,101.318473 C66.7691756,99.3915755 68.3894193,97.7790041 70.3277134,97.7790041 C72.2660076,97.7790041 73.8862513,99.3908816 73.8862513,101.318473 C73.8862513,103.246065 72.2653101,104.858637 70.3277134,104.858637 M78.4212597,105.613576 C76.2548899,100.045208 71.3788143,95.8215755 65.3993269,94.5455347 C65.280058,95.0381878 65.2256546,95.6134122 65.2577387,96.2753714 C61.4599655,96.0921878 60.3426042,98.5755755 63.0292933,101.318473 C60.3426042,104.062065 61.4599655,106.545453 65.2577387,106.362269 C65.0743017,110.140433 67.570579,111.252024 70.3277134,108.579208 C73.0848479,111.252024 75.5811252,110.140433 75.3976882,106.362269 C76.7807891,106.428882 77.8039908,106.138841 78.4212597,105.613576" id="Fill-107" fill="#DDA812"></path>
                        <path d="M56.2473563,131.115518 C54.3097597,131.115518 52.689516,129.502947 52.689516,127.575355 C52.689516,125.648457 54.3097597,124.035886 56.2473563,124.035886 C58.1863479,124.035886 59.8058941,125.647763 59.8058941,127.575355 C59.8058941,129.502947 58.1856504,131.115518 56.2473563,131.115518 M61.3173311,122.532253 C61.5007681,118.75409 59.0044908,117.641804 56.2473563,120.315314 C53.4902218,117.641804 50.9939445,118.75409 51.1773815,122.532253 C47.3803059,122.349069 46.2629445,124.832457 48.9496336,127.575355 C46.2629445,130.318947 47.3803059,132.802335 51.1773815,132.619151 C50.9939445,136.397314 53.4902218,137.508906 56.2473563,134.83609 C59.0044908,137.508906 61.5007681,136.397314 61.3173311,132.619151 C65.1151042,132.802335 66.2324655,130.318947 63.5457765,127.575355 C66.2324655,124.832457 65.1151042,122.349069 61.3173311,122.532253" id="Fill-109" fill="#9FE2A2"></path>
                        <path d="M19.0364336,163.306302 C19.2205681,159.528139 16.7242908,158.415853 13.9664588,161.089363 C11.2093244,158.415853 8.71304706,159.528139 8.89718151,163.306302 C5.0994084,163.123118 3.98134958,165.606506 6.66873613,168.350098 L10.4086185,168.350098 C10.4086185,166.422506 12.0295597,164.809935 13.9664588,164.809935 C15.9040555,164.809935 17.5249966,166.422506 17.5249966,168.350098 L21.2641815,168.350098 C23.9515681,165.606506 22.8342067,163.123118 19.0364336,163.306302" id="Fill-111" fill="#9FE2A2"></path>
                        <g id="Group-115" stroke-width="1" fill="none" transform="translate(0.000000, 0.084653)">
                            <mask id="mask-4" fill="white">
                                <use xlink:href="#path-3"></use>
                            </mask>
                            <g id="Clip-114"></g>
                            <path d="M65.6755983,157.387388 L65.6755983,154.603551 C66.2370689,155.434122 66.2377664,156.556816 65.6755983,157.387388 Z M68.1948924,155.995469 C68.1948924,154.217755 67.1682034,152.675265 65.6755983,151.916857 L65.6755983,148.50298 C67.8810269,147.491306 67.6215647,150.776816 67.5594891,152.047306 C68.5910605,151.997347 70.5991025,151.642776 71.2038168,152.719673 C71.8468924,153.863878 70.1415563,155.266898 69.4280353,155.995469 C70.1422538,156.725429 71.8475899,158.127061 71.2045143,159.271265 C70.5998,160.348163 68.5910605,159.993592 67.5594891,159.943633 C67.6215647,161.213429 67.8886992,164.500327 65.6755983,163.486571 L65.6755983,160.074082 C67.1682034,159.315673 68.1948924,157.774571 68.1948924,155.995469 Z M78.5901193,167.087796 L65.6755983,167.087796 L65.6755983,165.670898 C68.0700437,166.212816 69.5103378,164.200571 69.6895899,162.062041 C70.9889933,161.955184 72.3825563,161.462531 73.0479513,160.266286 C73.8416824,158.840367 73.204884,157.188939 72.275842,155.995469 C73.1818672,154.831837 73.8137832,153.244245 73.1009597,151.830122 C72.4627664,150.563796 71.032237,150.039224 69.6895899,149.928204 C69.5110353,147.798 68.0756235,145.772571 65.6755983,146.315184 L65.6755983,131.794408 C66.234279,130.825755 66.1310521,129.694735 65.6755983,128.703878 L65.6755983,126.278776 C66.1310521,125.287918 66.234279,124.156204 65.6755983,123.187551 L65.6755983,119.322653 L63.5831613,119.322653 L63.5831613,121.651306 C63.2051277,121.538898 62.7929176,121.461184 62.3472286,121.423714 C62.2384218,120.130327 61.7425143,118.745347 60.5400605,118.082 C59.1060437,117.292367 57.4474387,117.927265 56.2477748,118.850816 C55.0474134,117.926571 53.3922958,117.29098 51.9554891,118.082 C50.7537328,118.744653 50.2571277,120.13102 50.1490185,121.423714 C48.8063714,121.534735 47.3751445,122.059306 46.7369513,123.325633 C46.0241277,124.739755 46.6560437,126.327347 47.5627664,127.49098 C46.6330269,128.685143 45.9955311,130.333796 46.7906571,131.761796 C47.4553546,132.956653 48.8496151,133.450694 50.1490185,133.557551 C50.2606151,134.893959 50.7886067,136.317102 52.0622034,136.952694 C53.484363,137.661837 55.0781025,137.03249 56.2477748,136.130449 C57.4481361,137.054694 59.1018588,137.69098 60.5400605,136.899265 C61.7418168,136.237306 62.2384218,134.850939 62.3472286,133.557551 C62.7929176,133.520776 63.2051277,133.443061 63.5831613,133.330653 L63.5831613,147.350449 C62.3828,146.428286 60.7311697,145.797551 59.2978504,146.587184 C58.0967916,147.249837 57.6001866,148.634816 57.4920773,149.928204 C56.1494303,150.039224 54.7175059,150.563796 54.0793126,151.830122 C53.3671866,153.244245 53.9991025,154.831837 54.9058252,155.995469 C53.9760857,157.189633 53.3385899,158.838286 54.1330185,160.266286 C54.797716,161.461143 56.1919765,161.955184 57.4920773,162.062041 C57.6001866,163.356122 58.0960941,164.741796 59.2978504,165.403755 C60.7290773,166.192 62.384195,165.561959 63.5831613,164.64049 L63.5831613,167.087796 L23.3825647,167.087796 C24.3374134,165.053347 23.3874471,163.013347 21.2336319,162.403429 L21.2336319,149.611796 C21.5635395,149.697837 21.9150689,149.761673 22.2938,149.792898 C22.4053966,151.128612 22.9333882,152.551755 24.2069849,153.187347 C25.6284471,153.897184 27.2221866,153.267837 28.3925563,152.365796 C29.5929176,153.290041 31.2466403,153.926327 32.6841445,153.133918 C33.8859008,152.471959 34.3832034,151.086286 34.4913126,149.792898 C35.7900185,149.685347 37.184279,149.192 37.8496739,147.996449 C38.643405,146.569837 38.0052118,144.918408 37.0775647,143.725633 C38.0059092,142.532163 38.6448,140.882816 37.8496739,139.454816 C37.184279,138.259959 35.7900185,137.765918 34.4913126,137.658367 C34.379716,136.322653 33.8517244,134.89951 32.5781277,134.264612 C31.1566655,133.555469 29.5622286,134.18551 28.3925563,135.085469 C27.1914975,134.161224 25.5363798,133.525633 24.1002706,134.317347 C22.8985143,134.98 22.4019092,136.36498 22.2938,137.658367 C21.9150689,137.689592 21.5635395,137.753429 21.2336319,137.839469 L21.2336319,125.070735 C23.9000941,126.404367 26.0601866,124.553796 26.2861697,121.849755 C27.5862706,121.742898 28.9798336,121.250245 29.6452286,120.054 C30.4382622,118.628082 29.8014639,116.976653 28.8724218,115.783184 C29.8007664,114.589714 30.4396571,112.940367 29.6452286,111.513061 C28.9798336,110.31751 27.5855731,109.823469 26.2861697,109.715918 C26.1745731,108.380204 25.645884,106.956367 24.3729849,106.321469 C22.9515227,105.61302 21.3570857,106.242367 20.1874134,107.14302 C18.9870521,106.218776 17.331237,105.583184 15.8951277,106.374204 C14.6933714,107.036857 14.1967664,108.423224 14.0886571,109.715918 C12.7892538,109.823469 11.3956908,110.316816 10.7302958,111.513061 C9.93656471,112.93898 10.5740605,114.590408 11.5031025,115.783184 C10.5740605,116.976653 9.93516975,118.626694 10.7302958,120.054 C11.3949933,121.248857 12.7892538,121.742898 14.0886571,121.849755 C14.3125479,124.534367 16.4719429,126.422408 19.141195,125.086 L19.141195,139.148816 C18.3104975,140.273592 18.4974218,141.694653 19.141195,142.860367 L19.141195,144.590898 C18.4981193,145.756612 18.3104975,147.177673 19.141195,148.302449 L19.141195,159.603633 C17.760884,157.895306 15.4926824,158.44902 13.9665983,159.625143 C12.766237,158.700204 11.1104218,158.065306 9.67431261,158.856327 C8.4725563,159.518286 7.97595126,160.904653 7.86784202,162.198041 C7.25615294,162.248694 6.70723697,162.374286 6.22806891,162.56649 L6.22806891,138.060122 C6.22806891,129.397061 6.1750605,120.734 6.22806891,112.071633 C6.28177479,103.137959 13.2691193,95.5975918 22.3105395,95.1285306 C24.8249513,97.1678367 27.6197496,98.7887347 30.6314639,99.954449 C33.0789176,105.236939 37.3684134,109.754082 41.5428252,113.75498 C45.6558588,109.813061 49.8470101,105.372939 52.3356151,100.207714 C55.6095815,99.0302041 58.6924387,97.2927347 61.388195,95.0993878 C62.1623966,95.0973061 62.9338084,95.1389388 63.7031277,95.234 C62.4490605,95.4386939 61.2075479,96.0645714 60.7144303,97.296898 C60.1662118,98.6686939 60.7876655,100.136939 61.6427748,101.233959 C60.7130353,102.428122 60.0755395,104.076776 60.8699681,105.505469 C61.5346655,106.699633 62.9289261,107.193673 64.2290269,107.300531 C64.3406235,108.636939 64.8686151,110.060082 66.1422118,110.695673 C67.5636739,111.404122 69.1574134,110.775469 70.3277832,109.873429 C71.5281445,110.797673 73.1818672,111.433959 74.6193714,110.642245 C75.8211277,109.98098 76.3184303,108.594612 76.4265395,107.301224 C76.941279,107.258898 77.4092874,107.15898 77.8340521,107.013265 C78.7637916,110.001102 78.5901193,113.107592 78.5901193,116.189796 L78.5901193,129.113265 L78.5901193,159.888122 L78.5901193,167.087796 Z M63.5831613,125.777102 C63.1835059,126.425878 62.614363,126.950449 62.0849765,127.49098 C62.614363,128.032204 63.1835059,128.556082 63.5831613,129.204857 L63.5831613,131.065143 C62.6603966,131.727796 61.2870605,131.49049 60.2171277,131.439143 C60.2666487,132.463306 60.6230605,134.465837 59.5398756,135.065347 C58.3911277,135.701633 56.9794303,134.007878 56.2477748,133.297347 C55.5154218,134.008571 54.1044218,135.700939 52.9556739,135.065347 C51.8724891,134.466531 52.2289008,132.464 52.2791193,131.439143 C51.2482454,131.489102 49.2388084,131.84298 48.6333966,130.766776 C47.991716,129.623265 49.6970521,128.219551 50.4105731,127.49098 C49.6956571,126.761714 47.991716,125.359388 48.6340941,124.215184 C49.2402034,123.13898 51.2468504,123.492857 52.2791193,123.542816 C52.2289008,122.517959 51.8724891,120.516122 52.9556739,119.916612 C54.1044218,119.279633 55.5161193,120.974082 56.2477748,121.683918 C56.9808252,120.973388 58.3904303,119.278939 59.5398756,119.916612 C60.6230605,120.516816 60.2666487,122.517265 60.2171277,123.542816 C61.2849681,123.490776 62.6610941,123.255551 63.5831613,123.91751 L63.5831613,125.777102 Z M63.5831613,151.415878 C61.0806067,151.419347 58.9860773,153.505837 58.9860773,155.995469 C58.9860773,158.485796 61.0799092,160.571592 63.5831613,160.575755 L63.5831613,161.809469 C62.8515059,162.519306 61.4453882,164.204041 60.2980353,163.569837 C59.2148504,162.97102 59.5712622,160.96849 59.6214807,159.943633 C58.5906067,159.993592 56.5811697,160.347469 55.9764555,159.271265 C55.3340773,158.127755 57.0394134,156.724041 57.7536319,155.995469 C57.0380185,155.266204 55.3340773,153.863878 55.9771529,152.719673 C56.5818672,151.644163 58.5899092,151.997347 59.6214807,152.047306 C59.5712622,151.022449 59.2148504,149.021306 60.2980353,148.421102 C61.4446908,147.78551 62.8522034,149.47302 63.5831613,150.181469 L63.5831613,151.415878 Z M63.5831613,158.493429 C60.3531361,158.483714 60.3531361,153.507224 63.5831613,153.49751 L63.5831613,158.493429 Z M21.2336319,166.652735 L21.2336319,164.651592 C22.0043462,165.143551 21.6367748,166.039347 21.2336319,166.652735 Z M20.1874134,118.281837 C16.948321,118.281837 16.9490185,113.283837 20.1874134,113.283837 C23.4265059,113.283837 23.4265059,118.281837 20.1874134,118.281837 Z M24.367405,138.632571 C24.317884,137.618816 24.4685395,135.747429 25.928363,136.091592 C26.9250605,136.326122 27.687405,137.235796 28.3925563,137.918571 C29.1256067,137.208041 30.5352118,135.514286 31.6846571,136.151959 C32.7671445,136.752163 32.4114303,138.752612 32.3612118,139.777469 C33.3913882,139.728204 35.4015227,139.37502 36.0055395,140.449837 C36.6486151,141.591959 34.9425815,142.997061 34.2304555,143.725633 C34.9439765,144.454898 36.6486151,145.857918 36.0055395,147.001429 C35.4015227,148.076939 33.3920857,147.723755 32.3612118,147.673796 C32.4114303,148.699347 32.7671445,150.699796 31.6846571,151.300694 C30.5352118,151.93698 29.1242118,150.242531 28.3925563,149.532694 C27.6595059,150.243224 26.2492034,151.93698 25.099758,151.300694 C24.0165731,150.70049 24.3729849,148.699347 24.4232034,147.673796 C23.3860521,147.723755 22.1849933,147.911102 21.2336319,147.403184 L21.2336319,145.169592 C21.613758,144.640857 22.0999008,144.189143 22.5553546,143.725633 C22.0999008,143.262122 21.613758,142.809714 21.2336319,142.28098 L21.2336319,140.050163 C22.1849933,139.542939 23.3853546,139.72751 24.4232034,139.777469 L24.367405,138.632571 Z M15.0665227,119.786857 C14.0475059,119.835429 12.1671025,119.686245 12.5123546,118.233265 C12.7488,117.242408 13.6645899,116.484 14.3509092,115.783184 C13.6359933,115.053918 11.9306571,113.651592 12.5737328,112.507388 C13.1784471,111.431184 15.1864891,111.785061 16.218758,111.83502 C16.1685395,110.810163 15.8121277,108.80902 16.8953126,108.208816 C18.0440605,107.571143 19.4550605,109.266286 20.1874134,109.976122 C20.9204639,109.264898 22.3300689,107.571143 23.4795143,108.208816 C24.5626992,108.80902 24.2062874,110.809469 24.1567664,111.83502 C25.1869429,111.785061 27.1963798,111.431184 27.8010941,112.507388 C28.4441697,113.650898 26.7388336,115.054612 26.0246151,115.783184 C26.7395311,116.513143 28.4434723,117.914776 27.8010941,119.05898 C27.1963798,120.135184 25.1876403,119.781306 24.1567664,119.730653 C24.2007076,120.645878 24.3436908,121.649224 24.0416824,122.530449 C23.5262454,124.030612 22.1550017,123.372816 21.2336319,122.583878 L21.2336319,120.239265 C23.5325227,119.70498 25.0830185,117.442939 24.7419513,115.119837 C24.4162286,112.90151 22.442363,111.202204 20.1874134,111.202204 C17.9840773,111.202204 16.0332286,112.829347 15.6517076,114.989388 C15.2360101,117.351347 16.7955731,119.694571 19.141195,120.239265 L19.141195,122.583878 C18.2247076,123.367959 16.8485815,124.032 16.333842,122.530449 C16.0311361,121.649918 16.1734218,120.645184 16.218758,119.730653 L15.0665227,119.786857 Z M19.141195,167.087796 L18.4109345,167.087796 C17.2245227,162.663633 10.7086739,162.662939 9.52226218,167.087796 L7.01622017,167.087796 C6.21411933,166.104571 5.79493445,164.820204 7.30358151,164.394163 C8.1670605,164.149224 9.11284202,164.274122 9.99794286,164.316449 C9.94772437,163.292286 9.59131261,161.290449 10.6744975,160.690939 C11.8232454,160.054653 13.2342454,161.748408 13.9665983,162.458245 C14.6996487,161.74702 16.1092538,160.053265 17.2586992,160.690939 C18.341884,161.291143 17.9854723,163.291592 17.9359513,164.316449 C18.3376992,164.297714 18.7394471,164.276204 19.141195,164.260245 L19.141195,167.087796 Z M11.7583798,167.087796 C12.6916067,165.36351 15.2408924,165.362816 16.1748168,167.087796 L11.7583798,167.087796 Z M49.4738588,101.083388 C47.3130689,104.663102 44.4757244,107.870898 41.5428252,110.839306 C38.5624975,107.823714 35.674237,104.561102 33.5064723,100.907837 C38.7724387,102.321959 44.1772034,102.346939 49.4738588,101.083388 Z M14.7763714,81.1829796 C15.3329597,79.265102 14.8607664,77.1675102 13.5411361,75.6659592 C13.3409597,74.0887755 13.1575227,72.4172245 13.0019849,70.833102 L13.0019849,66.305551 L13.0403462,66.334 L13.0403462,54.9793878 C13.1100941,53.6173061 13.2774891,52.252449 13.5439261,50.9000816 C29.2637076,50.0736735 39.1574471,39.4719184 42.0826739,35.8679184 C44.7958672,39.4864898 53.9544639,49.8960408 70.1150521,50.8785714 C70.8174134,54.4326122 70.6604807,58.060898 70.6604807,61.6628163 L70.6604807,69.7811837 C70.5732958,71.6428571 70.4728588,73.6294286 70.3647496,75.3516327 C70.3270857,75.6118367 70.283842,75.8706531 70.2392034,76.1287755 C69.3680521,77.3430612 68.9914134,78.8362857 69.1853126,80.3149388 C66.2001025,89.2326531 58.7810185,96.2845306 49.7005395,98.866449 C40.7198,101.419224 30.826758,99.3528571 23.604363,93.4764082 C19.6336151,90.2457143 16.5535479,85.9707347 14.7763714,81.1829796 Z M9.07169076,83.3763265 C8.95032941,83.3763265 8.82966555,83.3700816 8.70969916,83.3589796 C10.5601109,81.1802041 10.5601109,77.9141224 8.70969916,75.7353469 C9.6478084,75.6451429 10.6047496,75.9171429 11.3601193,76.4764082 C11.636321,78.0841224 12.0394639,79.6481224 12.5569933,81.1614694 C11.9432118,82.4673469 10.6138168,83.3763265 9.07169076,83.3763265 Z M7.26243025,73.9319592 C6.97158151,74.0228571 6.68073277,74.131102 6.40801849,74.267102 C5.1295395,70.850449 6.24759832,65.1405306 10.4268924,64.3897551 C10.4708336,66.5678367 10.6982118,68.7493878 10.9095479,70.9163673 C10.9074555,71.9377551 10.9458168,72.9556735 11.0357916,73.9735918 C9.79427899,73.581551 8.51440504,73.5302041 7.26243025,73.9319592 Z M48.7170941,18.6826531 L57.2912034,13.1573061 L57.3595563,13.1094286 C59.8049176,11.2435918 63.5573546,12.3288163 64.5275479,15.2701633 C64.9139513,16.4428163 64.7625983,17.8347347 64.7625983,19.0531837 L64.7625983,24.7242449 C64.7625983,25.8108571 64.8721025,26.9717143 64.7068,28.0520816 C64.2436739,31.0864082 60.7918504,32.8613469 58.0298336,31.4222449 L48.7170941,25.4215918 C49.7263462,23.3073469 49.7270437,20.796898 48.7170941,18.6826531 Z M35.7363126,22.0521224 C35.7363126,18.7784082 38.5785395,16.0993469 41.8573882,16.2637959 C44.9102538,16.4171429 47.3883966,19.0087755 47.3883966,22.0521224 C47.3883966,25.0947755 44.9095563,27.687102 41.8573882,27.840449 C38.5799345,28.004898 35.7363126,25.3265306 35.7363126,22.0521224 Z M19.9698,33.3172245 C22.2184723,34.4496327 24.9979261,34.1817959 27.0038756,32.6712245 L35.5459008,27.1673878 C38.6538672,30.7963673 44.4694471,30.7956735 47.5788084,27.1680816 L56.9313042,33.1944082 L57.0066319,33.2388163 C59.0572202,34.3275102 61.5569849,34.2726939 63.5587496,33.0993469 C67.6243546,37.3562857 70.2210689,42.9281224 70.6297916,48.8045714 C60.1452874,48.2633469 50.0911277,42.8927347 43.7426739,34.5752245 C43.1665563,33.8209796 42.6734387,33.0257959 42.1649765,32.2250612 C37.7945731,38.4394286 31.5591109,43.4478367 24.4908588,46.3128571 C20.8716403,47.7797143 17.013884,48.6456735 13.1080017,48.8177551 C13.5034723,43.1133878 15.9090773,37.6726939 19.9698,33.3172245 Z M34.4076151,25.420898 L25.8328084,30.945551 L25.7644555,30.9934286 C23.736884,32.5400816 20.7377244,32.1029388 19.2332622,30.0476735 C18.2784134,28.7452653 18.3621109,27.2499592 18.3621109,25.7366122 C18.3621109,22.7418367 18.2756235,19.7338776 18.3621109,16.7411837 C18.458363,13.3918367 22.0182958,11.0805306 25.0948756,12.6806122 L34.4083126,18.6819592 C33.398363,20.7948163 33.3976655,23.3073469 34.4076151,25.420898 Z M4.92308571,27.7911837 C6.80767395,22.1825714 10.0160773,16.9694694 14.3006908,12.8610204 C21.2224723,6.22408163 30.5589261,3.16338776 40.0439429,2.81297959 C49.9969681,2.44453061 60.4947244,4.49146939 68.2590605,11.0527755 C73.2836992,15.3 76.7334303,21.1056735 78.5705899,27.3679184 C80.2508168,33.0972653 80.6846487,39.2047755 79.9767076,45.1249388 C79.3587412,50.2908571 77.9170521,55.7676327 74.7853714,60.0266531 C74.1973966,60.8253061 73.5403714,61.5788571 72.791279,62.2324898 L72.791279,50.9666939 L72.7996487,50.9666939 L72.791279,50.6135102 C72.8059261,43.6171429 69.9909008,36.8511429 65.1831782,31.7684898 C67.4667244,29.2053061 66.8550353,25.3147347 66.8550353,22.1499592 C66.8550353,18.9456327 67.4939261,14.9558367 65.2027076,12.3544898 C62.9156739,9.75661224 58.8877328,9.34722449 56.1208336,11.4316327 L47.5788084,16.9361633 C44.4701445,13.3092653 38.6559597,13.3071837 35.5472958,16.9347755 L26.1941025,10.908449 L26.1180773,10.8640408 C23.439758,9.44228571 20.0639597,10.0237551 18.0126739,12.2483265 C16.7049008,13.6659184 16.2696739,15.4228163 16.2696739,17.294898 L16.2696739,26.6608571 C16.2696739,28.6953061 16.7251277,30.6152653 18.2456319,32.0932245 C13.6192538,37.1418776 10.9353546,43.7552245 10.9479092,50.603102 L10.9395395,50.9611429 L10.9479092,50.9611429 L10.9479092,55.0633469 C10.8446824,57.3614694 10.9095479,59.6720816 10.9095479,61.9715918 C3.12568235,54.6345306 0.581976471,40.7070204 4.92308571,27.7911837 Z M77.7140857,71.7080816 C77.7140857,72.5407347 77.5948168,73.3463265 77.3681361,74.0991837 C75.8281025,73.4580408 74.1318336,73.5315918 72.6113294,74.1720408 C72.7487328,72.7266939 72.7529176,71.2827347 72.7529176,69.8332245 C72.8331277,68.1214286 72.9049681,66.4082449 72.9795983,64.6957551 C73.1009597,64.6138776 73.222321,64.532 73.3429849,64.4431837 C77.3639513,65.3216327 77.7140857,70.1295102 77.7140857,71.7080816 Z M75.4326319,83.3589796 C73.5654807,83.538 71.793884,82.2813878 71.3405227,80.4731429 C71.6976319,79.3407347 71.9842958,78.1798776 72.2081866,76.9961224 C73.0158672,76.1010204 74.2266908,75.6194694 75.4326319,75.7353469 C73.5829176,77.9141224 73.5829176,81.1802041 75.4326319,83.3589796 Z M65.2068924,97.2302857 L66.3584303,97.2857959 C66.333321,96.7792653 66.2900773,96.2692653 66.2956571,95.7620408 C67.2532958,96.0361224 68.1837328,96.3920816 69.0779008,96.8299184 C65.4851866,97.840898 64.5840437,102.643918 67.5504218,104.883061 C70.4184555,107.047265 74.6905143,105.097469 74.917195,101.524694 C75.7848588,102.614082 76.5151193,103.804776 77.089842,105.071796 C76.194279,105.351429 75.2185059,105.226531 74.2964387,105.181429 C74.3466571,106.205592 74.7030689,108.208816 73.619884,108.808327 C72.4704387,109.444612 71.0594387,107.750857 70.3277832,107.040327 C69.5947328,107.751551 68.1844303,109.443918 67.0349849,108.808327 C65.9518,108.20951 66.3082118,106.20698 66.3584303,105.182122 C65.3275563,105.232082 63.3181193,105.585959 62.713405,104.509755 C62.0710269,103.366245 63.776363,101.962531 64.4905815,101.233959 C63.8035647,100.533837 62.8877748,99.7740408 62.6527244,98.7838776 C62.3081697,97.3343673 64.1857832,97.1817143 65.2068924,97.2302857 Z M70.3277832,98.7353061 C73.5661782,98.7353061 73.5661782,103.732612 70.3277832,103.732612 C67.0879933,103.732612 67.0886908,98.7353061 70.3277832,98.7353061 Z M79.6656319,105.841306 C78.3662286,102.513469 76.4586235,99.5589388 73.654758,97.285102 C71.0022454,95.1333878 67.9340353,93.9371429 64.6210101,93.2300816 L64.6147328,93.2578367 C64.2673882,93.2030204 63.9186487,93.1551429 63.5664218,93.1183673 C66.4428252,90.2859592 68.7710101,86.904 70.3605647,83.1348571 C71.6243966,84.7744898 73.6959092,85.6550204 75.7604471,85.4177143 C77.2028336,85.2518776 78.3836655,84.4657143 79.6077412,83.7614286 C77.8577664,82.7525306 76.0436235,81.7422449 76.1259261,79.4177551 C77.4023126,78.4595102 78.3941277,77.1668163 79.0232538,75.6694286 L79.6077412,75.332898 L79.2345899,75.1191837 C80.6985983,70.9427347 79.5519429,64.8019184 75.1222538,62.8437959 C79.2771361,58.412 81.1666067,51.986 81.972195,46.1185714 C82.8838,39.4837143 82.3816151,32.5990612 80.4007748,26.1938776 C78.0900269,18.7173469 73.5871025,11.962449 67.0768336,7.47791837 C57.353279,0.781306122 44.0962958,-0.619632653 32.6953042,1.56122449 C21.2071277,3.75873469 11.1187916,10.6003673 5.59196807,20.9557959 C-0.530502521,32.4290612 -1.46024202,47.9608163 5.87514454,59.1384898 C6.71211933,60.4152245 7.66138824,61.6197959 8.72225378,62.7209796 C4.06100168,64.5340816 2.82367395,71.1120408 4.58550588,75.304449 L4.53598487,75.332898 L4.61689244,75.3800816 C5.32483361,77.0245714 6.50078319,78.4574286 8.02058992,79.4829796 C8.0610437,81.7693061 6.26294286,82.7657143 4.53668235,83.7614286 C5.6540437,84.4046531 6.74559832,85.1387755 8.04081681,85.3677551 C10.0370017,85.7202449 12.1078168,85.0006939 13.4665059,83.509551 C15.0755899,87.1877959 17.3898252,90.4906531 20.2334471,93.2571429 C10.972321,94.6809796 4.19491765,102.754939 4.13563193,112.014735 C4.11610252,114.988 4.13563193,117.961265 4.13563193,120.933837 L4.13563193,139.712245 L4.13563193,158.892408 L4.13563193,169.024408 L4.13563193,169.169429 L80.6825563,169.169429 L80.6825563,148.448163 L80.6825563,117.291673 C80.6825563,113.446898 80.9308588,109.549388 79.6537748,105.85102 L79.6656319,105.841306 Z" id="Fill-113" fill="#000000" mask="url(#mask-4)"></path>
                        </g>
                        <path d="M56.2480538,125.076633 C53.0089613,125.076633 53.0082639,130.073939 56.2480538,130.073939 C59.4864487,130.073939 59.4864487,125.076633 56.2480538,125.076633 M56.2480538,132.155571 C53.7420118,132.155571 51.6432975,130.068388 51.6432975,127.57598 C51.6432975,125.083571 53.7420118,122.995 56.2480538,122.995 C58.7540958,122.995 60.8521126,125.083571 60.8521126,127.57598 C60.8521126,130.068388 58.7540958,132.155571 56.2480538,132.155571" id="Fill-116" fill="#000000"></path>
                        <path d="M28.3924866,141.311563 C25.1526966,141.311563 25.1533941,146.308869 28.3924866,146.308869 C31.631579,146.308869 31.631579,141.311563 28.3924866,141.311563 M28.3924866,148.390502 C25.8864445,148.390502 23.7877303,146.302624 23.7877303,143.810216 C23.7877303,141.317114 25.8864445,139.229931 28.3924866,139.229931 C30.8985286,139.229931 32.9972429,141.317114 32.9972429,143.810216 C32.9972429,146.302624 30.8985286,148.390502 28.3924866,148.390502" id="Fill-118" fill="#000000"></path>
                    </g>
                </g>
            </g>
        </g>
    </g>
</svg>