<?xml version="1.0" encoding="UTF-8"?>
<svg width="119px" height="245px" viewBox="0 0 119 245" version="1.1" xmlns="http://www.w3.org/2000/svg" xmlns:xlink="http://www.w3.org/1999/xlink">
    <!-- Generator: sketchtool 50.2 (55047) - http://www.bohemiancoding.com/sketch -->
    <title>004948BC-B797-4E03-A71C-AE389867B5E0</title>
    <desc>Created with sketchtool.</desc>
    <defs>
        <polygon id="path-1" points="0.980607318 0.878 118.155378 0.878 118.155378 243.803 0.980607318 243.803"></polygon>
    </defs>
    <g id="Symbols" stroke="none" stroke-width="1" fill="none" fill-rule="evenodd">
        <g id="fatima_lose">
            <path d="M101.7532,71.9918 C73.9462,70.8448 60.3892,49.2728 60.3892,49.2728 C60.3892,49.2728 45.0912,71.1808 18.1922,72.0128 C17.1642,76.5938 17.1422,81.1688 17.1422,85.8208 L17.1422,99.3378 C17.1422,103.5258 17.2002,107.6588 18.0762,111.7848 C19.4802,118.3918 22.4772,124.6258 26.7402,129.8618 C31.5422,135.7598 37.9042,140.3388 45.0322,142.9928 C48.6942,151.5128 59.5612,161.9798 59.5612,161.9798 L59.5622,161.9798 C59.5622,161.9798 70.1412,151.7908 73.9412,143.3358 C86.8782,138.8738 97.1492,128.1658 101.0442,115.0438 C103.6472,106.2758 102.8092,96.6938 102.8092,87.6518 C102.8092,82.3848 102.9192,77.1788 101.7532,71.9918" id="Fill-63" fill="#684E43"></path>
            <path d="M60.3704,2.6217 C-0.7896,2.6217 -10.2366,72.0597 17.1964,92.7157 L17.1964,78.8827 C17.1964,72.5737 17.1984,66.4567 19.3744,60.4027 C21.2824,55.0927 24.3994,50.2547 28.3544,46.2377 C28.3244,46.2177 28.2984,46.1917 28.2684,46.1717 C30.9834,48.0657 34.8044,48.3177 37.8524,45.9787 L51.3234,37.2547 C55.1464,43.1477 64.0294,43.1487 67.8534,37.2557 L82.4384,46.7017 C85.5074,48.3407 88.9344,47.7787 91.3234,45.8687 C98.5544,53.0247 102.8084,62.7107 102.8624,72.9057 C102.8884,77.5597 102.8624,82.2137 102.8624,86.8667 L102.8624,92.7157 C123.1124,81.4267 129.5914,2.6217 60.3704,2.6217" id="Fill-65" fill="#FF5500"></path>
            <path d="M88.3186,135.6774 L87.4726,135.6774 C83.5026,139.0064 78.9156,141.6214 73.9136,143.3444 C73.9226,143.3414 73.9316,143.3384 73.9406,143.3354 C70.1406,151.7904 59.5616,161.9804 59.5616,161.9804 L59.5606,161.9804 C59.5606,161.9804 48.6946,151.5134 45.0336,142.9934 C40.4286,141.2784 36.1996,138.7944 32.4996,135.6974 C18.7496,136.1094 7.5896,147.6254 7.4296,161.3374 C7.3826,165.3724 7.4286,169.4114 7.4286,173.4484 L7.4286,200.0244 L7.4286,227.6264 L7.4286,242.2114 L7.4286,242.4254 L114.1756,242.4254 L114.1756,230.3064 L114.1756,203.3774 L114.1756,175.7814 C114.1756,171.0754 114.1996,166.3684 114.1756,161.6614 C114.1156,149.4024 105.4196,138.5214 93.2976,136.1564 C91.6586,135.8364 89.9886,135.6774 88.3186,135.6774" id="Fill-67" fill="#FFAEE4"></path>
            <path d="M71.8411,114.612 C68.2521,111.023 62.4091,111.022 58.8191,114.612 L56.6971,112.491 C61.4581,107.73 69.2031,107.732 73.9621,112.491 L71.8411,114.612 Z" id="Fill-69" fill="#000000"></path>
            <path d="M59.5891,23.5504 C51.9551,23.5504 48.3891,33.4004 54.2281,38.3004 C60.1021,43.2324 69.2111,37.8964 67.8001,30.3624 C67.0691,26.4654 63.5511,23.5504 59.5891,23.5504 M59.5891,43.2554 C54.8771,43.2554 50.5491,40.2234 48.9281,35.8024 C47.2851,31.3244 48.6991,26.1784 52.3711,23.1464 C55.9991,20.1514 61.2541,19.7214 65.3151,22.1024 C69.4681,24.5374 71.6801,29.4674 70.7111,34.1884 C69.6431,39.3974 64.9041,43.2554 59.5891,43.2554" id="Fill-71" fill="#000000"></path>
            <path d="M43.9465,93.8493 C39.7985,93.8493 36.4235,90.4743 36.4235,86.3263 L39.4235,86.3263 C39.4235,92.1543 48.4695,92.1583 48.4695,86.3263 L51.4695,86.3263 C51.4695,90.4743 48.0945,93.8493 43.9465,93.8493" id="Fill-73" fill="#000000"></path>
            <path d="M76.8479,93.8493 C72.6999,93.8493 69.3249,90.4743 69.3249,86.3263 L72.3249,86.3263 C72.3249,92.1543 81.3709,92.1583 81.3709,86.3263 L84.3709,86.3263 C84.3709,90.4743 80.9959,93.8493 76.8479,93.8493" id="Fill-75" fill="#000000"></path>
            <path d="M40.7063,212.3571 C37.9283,212.3571 35.6053,210.0341 35.6053,207.2561 C35.6053,204.4781 37.9283,202.1551 40.7063,202.1551 C43.4863,202.1551 45.8083,204.4781 45.8083,207.2561 C45.8083,210.0341 43.4853,212.3571 40.7063,212.3571" id="Fill-77" fill="#DDA812"></path>
            <path d="M34.0452,166.986 C34.0452,169.765 31.7212,172.088 28.9432,172.088 C26.1662,172.088 23.8422,169.765 23.8422,166.986 C23.8422,164.207 26.1652,161.884 28.9432,161.884 C31.7212,161.884 34.0452,164.207 34.0452,166.986" id="Fill-79" fill="#FF5500"></path>
            <path d="M91.1721,230.0407 C88.3931,230.0407 86.0701,227.7167 86.0701,224.9387 C86.0701,222.1617 88.3931,219.8377 91.1721,219.8377 C93.9511,219.8377 96.2741,222.1607 96.2731,224.9387 C96.2731,227.7167 93.9501,230.0407 91.1721,230.0407 M98.4411,217.6707 C98.7041,212.2257 95.1251,210.6227 91.1721,214.4757 C87.2191,210.6227 83.6401,212.2257 83.9031,217.6707 C78.4581,217.4067 76.8561,220.9857 80.7081,224.9387 C76.8561,228.8927 78.4581,232.4717 83.9031,232.2077 C83.6401,237.6527 87.2191,239.2547 91.1721,235.4027 C95.1251,239.2547 98.7041,237.6527 98.4411,232.2077 C103.8851,232.4717 105.4871,228.8927 101.6351,224.9387 C105.4871,220.9857 103.8851,217.4067 98.4411,217.6707" id="Fill-81" fill="#DDA812"></path>
            <path d="M28.9436,172.0875 C26.1646,172.0875 23.8416,169.7635 23.8416,166.9855 C23.8416,164.2085 26.1646,161.8845 28.9436,161.8845 C31.7226,161.8845 34.0456,164.2075 34.0456,166.9855 C34.0456,169.7635 31.7226,172.0875 28.9436,172.0875 M36.2126,159.7175 C36.4756,154.2725 32.8966,152.6695 28.9436,156.5225 C24.9906,152.6695 21.4116,154.2725 21.6746,159.7175 C16.2296,159.4535 14.6276,163.0325 18.4796,166.9855 C14.6276,170.9395 16.2296,174.5185 21.6746,174.2545 C21.4116,179.6995 24.9906,181.3025 28.9436,177.4495 C32.8966,181.3025 36.4756,179.6995 36.2126,174.2545 C41.6576,174.5185 43.2596,170.9395 39.4076,166.9855 C43.2596,163.0325 41.6576,159.4535 36.2126,159.7175" id="Fill-83" fill="#9FE2A2"></path>
            <path d="M45.8079,207.2565 C45.8079,210.0355 43.4849,212.3585 40.7059,212.3585 C37.9289,212.3585 35.6059,210.0355 35.6059,207.2565 C35.6059,204.4765 37.9289,202.1545 40.7059,202.1545 C43.4849,202.1545 45.8079,204.4775 45.8079,207.2565" id="Fill-85" fill="#FF5500"></path>
            <path d="M96.2737,224.9391 C96.2737,227.7181 93.9497,230.0411 91.1717,230.0411 C88.3937,230.0411 86.0707,227.7181 86.0707,224.9391 C86.0707,222.1591 88.3937,219.8371 91.1717,219.8371 C93.9497,219.8371 96.2737,222.1601 96.2737,224.9391" id="Fill-87" fill="#FF5500"></path>
            <path d="M85.7454,183.859 C85.7454,186.638 83.4224,188.961 80.6434,188.961 C77.8664,188.961 75.5434,186.638 75.5434,183.859 C75.5434,181.079 77.8664,178.757 80.6434,178.757 C83.4224,178.757 85.7454,181.08 85.7454,183.859" id="Fill-89" fill="#FF5500"></path>
            <path d="M105.9329,146.0182 C105.9329,148.7972 103.6089,151.1202 100.8309,151.1202 C98.0529,151.1202 95.7299,148.7972 95.7299,146.0182 C95.7299,143.2382 98.0529,140.9162 100.8309,140.9162 C103.6089,140.9162 105.9329,143.2392 105.9329,146.0182" id="Fill-91" fill="#FF5500"></path>
            <path d="M20.0247,237.5202 C17.2077,237.5202 14.9227,239.8042 14.9227,242.6222 L25.1267,242.6222 C25.1267,239.8042 22.8417,237.5202 20.0247,237.5202" id="Fill-93" fill="#FF5500"></path>
            <path d="M91.3245,45.8678 C88.9345,47.7788 85.5075,48.3408 82.4385,46.7018 L67.8535,37.2558 C64.0295,43.1488 55.1475,43.1478 51.3235,37.2548 L37.8525,45.9788 C34.8415,48.2888 31.0735,48.0768 28.3655,46.2458 C21.6325,53.0878 17.4485,62.1158 17.2205,72.0488 C44.7265,71.7288 60.3885,49.2728 60.3885,49.2728 C60.3885,49.2728 74.2925,71.4268 102.8395,72.0408 C102.6035,61.9298 98.2745,52.7528 91.3245,45.8678" id="Fill-95" fill="#000000"></path>
            <path d="M12.9417,113.8209 C12.6467,111.6259 11.3347,109.7569 9.4967,108.6919 C12.2237,107.1119 15.7647,107.5839 17.9847,109.8179 C17.0577,102.6239 16.0757,91.1789 16.5867,91.2789 C11.5067,91.2789 8.2937,94.9669 7.3707,99.7149 C6.3067,105.1879 7.9497,110.8569 12.9417,113.8209" id="Fill-97" fill="#684E43"></path>
            <path d="M40.7063,212.3571 C37.9283,212.3571 35.6053,210.0341 35.6053,207.2561 C35.6053,204.4781 37.9283,202.1551 40.7063,202.1551 C43.4863,202.1551 45.8083,204.4781 45.8083,207.2561 C45.8083,210.0341 43.4853,212.3571 40.7063,212.3571 M47.9753,199.9881 C48.2383,194.5431 44.6603,192.9401 40.7063,196.7931 C36.7533,192.9401 33.1743,194.5431 33.4383,199.9881 C27.9933,199.7241 26.3913,203.3031 30.2433,207.2561 C26.3913,211.2101 27.9933,214.7891 33.4383,214.5251 C33.1743,219.9691 36.7533,221.5721 40.7063,217.7191 C44.6603,221.5721 48.2383,219.9691 47.9753,214.5251 C53.4203,214.7891 55.0223,211.2101 51.1703,207.2561 C55.0223,203.3031 53.4203,199.7241 47.9753,199.9881" id="Fill-99" fill="#DDA812"></path>
            <path d="M13.0061,114.7633 C13.0061,112.1673 11.5931,109.9063 9.4961,108.6923 C14.1021,106.0243 20.0251,109.4653 20.0251,114.7633 C20.0251,120.0623 14.1031,123.5033 9.4961,120.8353 C11.5931,119.6213 13.0061,117.3603 13.0061,114.7633" id="Fill-101" fill="#DDA812"></path>
            <path d="M107.6321,114.7633 C107.6321,112.1673 109.0451,109.9063 111.1411,108.6923 C106.5351,106.0243 100.6131,109.4653 100.6131,114.7633 C100.6131,120.0623 106.5351,123.5033 111.1411,120.8353 C109.0451,119.6213 107.6321,117.3603 107.6321,114.7633" id="Fill-103" fill="#DDA812"></path>
            <path d="M102.7805,109.6989 C105.0025,107.5629 108.4735,107.1459 111.1405,108.6919 C109.3105,109.7529 108.0045,111.6719 107.7055,113.7659 C115.7775,108.4179 114.5815,91.2789 103.2365,91.2789 C103.1905,91.1809 102.7835,103.0359 102.2895,110.2199 L102.2895,110.2189 C102.4435,110.0369 102.6085,109.8639 102.7805,109.6989" id="Fill-105" fill="#684E43"></path>
            <path d="M100.8313,151.1198 C98.0523,151.1198 95.7293,148.7958 95.7293,146.0178 C95.7293,143.2408 98.0523,140.9168 100.8313,140.9168 C103.6103,140.9168 105.9333,143.2398 105.9333,146.0178 C105.9333,148.7958 103.6093,151.1198 100.8313,151.1198 M112.4353,152.2078 C109.3293,144.1828 102.3383,138.0958 93.7653,136.2568 C93.5943,136.9668 93.5163,137.7958 93.5623,138.7498 C88.1173,138.4858 86.5153,142.0648 90.3673,146.0178 C86.5153,149.9718 88.1173,153.5508 93.5623,153.2868 C93.2993,158.7318 96.8783,160.3338 100.8313,156.4818 C104.7843,160.3338 108.3633,158.7318 108.1003,153.2868 C110.0833,153.3828 111.5503,152.9648 112.4353,152.2078" id="Fill-107" fill="#DDA812"></path>
            <path d="M80.6438,188.9606 C77.8658,188.9606 75.5428,186.6366 75.5428,183.8586 C75.5428,181.0816 77.8658,178.7576 80.6438,178.7576 C83.4238,178.7576 85.7458,181.0806 85.7458,183.8586 C85.7458,186.6366 83.4228,188.9606 80.6438,188.9606 M87.9128,176.5906 C88.1758,171.1456 84.5968,169.5426 80.6438,173.3956 C76.6908,169.5426 73.1118,171.1456 73.3748,176.5906 C67.9308,176.3266 66.3288,179.9056 70.1808,183.8586 C66.3288,187.8126 67.9308,191.3916 73.3748,191.1276 C73.1118,196.5726 76.6908,198.1746 80.6438,194.3226 C84.5968,198.1746 88.1758,196.5726 87.9128,191.1276 C93.3578,191.3916 94.9598,187.8126 91.1078,183.8586 C94.9598,179.9056 93.3578,176.3266 87.9128,176.5906" id="Fill-109" fill="#9FE2A2"></path>
            <path d="M27.2932,235.3532 C27.5572,229.9082 23.9782,228.3052 20.0242,232.1582 C16.0712,228.3052 12.4922,229.9082 12.7562,235.3532 C7.3112,235.0892 5.7082,238.6682 9.5612,242.6222 L14.9232,242.6222 C14.9232,239.8442 17.2472,237.5202 20.0242,237.5202 C22.8022,237.5202 25.1262,239.8442 25.1262,242.6222 L30.4872,242.6222 C34.3402,238.6682 32.7382,235.0892 27.2932,235.3532" id="Fill-111" fill="#9FE2A2"></path>
            <g id="Group-115" transform="translate(0.000000, 0.122000)">
                <mask id="mask-2" fill="white">
                    <use xlink:href="#path-1"></use>
                </mask>
                <g id="Clip-114"></g>
                <path d="M94.1614,226.823 L94.1614,222.811 C94.9664,224.008 94.9674,225.626 94.1614,226.823 Z M97.7734,224.817 C97.7734,222.255 96.3014,220.032 94.1614,218.939 L94.1614,214.019 C97.3234,212.561 96.9514,217.296 96.8624,219.127 C98.3414,219.055 101.2204,218.544 102.0874,220.096 C103.0094,221.745 100.5644,223.767 99.5414,224.817 C100.5654,225.869 103.0104,227.889 102.0884,229.538 C101.2214,231.09 98.3414,230.579 96.8624,230.507 C96.9514,232.337 97.3344,237.074 94.1614,235.613 L94.1614,230.695 C96.3014,229.602 97.7734,227.381 97.7734,224.817 Z M112.6774,240.803 L94.1614,240.803 L94.1614,238.761 C97.5944,239.542 99.6594,236.642 99.9164,233.56 C101.7794,233.406 103.7774,232.696 104.7314,230.972 C105.8694,228.917 104.9564,226.537 103.6244,224.817 C104.9234,223.14 105.8294,220.852 104.8074,218.814 C103.8924,216.989 101.8414,216.233 99.9164,216.073 C99.6604,213.003 97.6024,210.084 94.1614,210.866 L94.1614,189.939 C94.9624,188.543 94.8144,186.913 94.1614,185.485 L94.1614,181.99 C94.8144,180.562 94.9624,178.931 94.1614,177.535 L94.1614,171.965 L91.1614,171.965 L91.1614,175.321 C90.6194,175.159 90.0284,175.047 89.3894,174.993 C89.2334,173.129 88.5224,171.133 86.7984,170.177 C84.7424,169.039 82.3644,169.954 80.6444,171.285 C78.9234,169.953 76.5504,169.037 74.4904,170.177 C72.7674,171.132 72.0554,173.13 71.9004,174.993 C69.9754,175.153 67.9234,175.909 67.0084,177.734 C65.9864,179.772 66.8924,182.06 68.1924,183.737 C66.8594,185.458 65.9454,187.834 67.0854,189.892 C68.0384,191.614 70.0374,192.326 71.9004,192.48 C72.0604,194.406 72.8174,196.457 74.6434,197.373 C76.6824,198.395 78.9674,197.488 80.6444,196.188 C82.3654,197.52 84.7364,198.437 86.7984,197.296 C88.5214,196.342 89.2334,194.344 89.3894,192.48 C90.0284,192.427 90.6194,192.315 91.1614,192.153 L91.1614,212.358 C89.4404,211.029 87.0724,210.12 85.0174,211.258 C83.2954,212.213 82.5834,214.209 82.4284,216.073 C80.5034,216.233 78.4504,216.989 77.5354,218.814 C76.5144,220.852 77.4204,223.14 78.7204,224.817 C77.3874,226.538 76.4734,228.914 77.6124,230.972 C78.5654,232.694 80.5644,233.406 82.4284,233.56 C82.5834,235.425 83.2944,237.422 85.0174,238.376 C87.0694,239.512 89.4424,238.604 91.1614,237.276 L91.1614,240.803 L33.5244,240.803 C34.8934,237.871 33.5314,234.931 30.4434,234.052 L30.4434,215.617 C30.9164,215.741 31.4204,215.833 31.9634,215.878 C32.1234,217.803 32.8804,219.854 34.7064,220.77 C36.7444,221.793 39.0294,220.886 40.7074,219.586 C42.4284,220.918 44.7994,221.835 46.8604,220.693 C48.5834,219.739 49.2964,217.742 49.4514,215.878 C51.3134,215.723 53.3124,215.012 54.2664,213.289 C55.4044,211.233 54.4894,208.853 53.1594,207.134 C54.4904,205.414 55.4064,203.037 54.2664,200.979 C53.3124,199.257 51.3134,198.545 49.4514,198.39 C49.2914,196.465 48.5344,194.414 46.7084,193.499 C44.6704,192.477 42.3844,193.385 40.7074,194.682 C38.9854,193.35 36.6124,192.434 34.5534,193.575 C32.8304,194.53 32.1184,196.526 31.9634,198.39 C31.4204,198.435 30.9164,198.527 30.4434,198.651 L30.4434,180.249 C34.2664,182.171 37.3634,179.504 37.6874,175.607 C39.5514,175.453 41.5494,174.743 42.5034,173.019 C43.6404,170.964 42.7274,168.584 41.3954,166.864 C42.7264,165.144 43.6424,162.767 42.5034,160.71 C41.5494,158.987 39.5504,158.275 37.6874,158.12 C37.5274,156.195 36.7694,154.143 34.9444,153.228 C32.9064,152.207 30.6204,153.114 28.9434,154.412 C27.2224,153.08 24.8484,152.164 22.7894,153.304 C21.0664,154.259 20.3544,156.257 20.1994,158.12 C18.3364,158.275 16.3384,158.986 15.3844,160.71 C14.2464,162.765 15.1604,165.145 16.4924,166.864 C15.1604,168.584 14.2444,170.962 15.3844,173.019 C16.3374,174.741 18.3364,175.453 20.1994,175.607 C20.5204,179.476 23.6164,182.197 27.4434,180.271 L27.4434,200.538 C26.2524,202.159 26.5204,204.207 27.4434,205.887 L27.4434,208.381 C26.5214,210.061 26.2524,212.109 27.4434,213.73 L27.4434,230.017 C25.4644,227.555 22.2124,228.353 20.0244,230.048 C18.3034,228.715 15.9294,227.8 13.8704,228.94 C12.1474,229.894 11.4354,231.892 11.2804,233.756 C10.4034,233.829 9.6164,234.01 8.9294,234.287 L8.9294,198.969 C8.9294,186.484 8.8534,173.999 8.9294,161.515 C9.0064,148.64 19.0244,137.773 31.9874,137.097 C35.5924,140.036 39.5994,142.372 43.9174,144.052 C47.4264,151.665 53.5764,158.175 59.5614,163.941 C65.4584,158.26 71.4674,151.861 75.0354,144.417 C79.7294,142.72 84.1494,140.216 88.0144,137.055 C89.1244,137.052 90.2304,137.112 91.3334,137.249 C89.5354,137.544 87.7554,138.446 87.0484,140.222 C86.2624,142.199 87.1534,144.315 88.3794,145.896 C87.0464,147.617 86.1324,149.993 87.2714,152.052 C88.2244,153.773 90.2234,154.485 92.0874,154.639 C92.2474,156.565 93.0044,158.616 94.8304,159.532 C96.8684,160.553 99.1534,159.647 100.8314,158.347 C102.5524,159.679 104.9234,160.596 106.9844,159.455 C108.7074,158.502 109.4204,156.504 109.5754,154.64 C110.3134,154.579 110.9844,154.435 111.5934,154.225 C112.9264,158.531 112.6774,163.008 112.6774,167.45 L112.6774,186.075 L112.6774,230.427 L112.6774,240.803 Z M91.1614,181.267 C90.5884,182.202 89.7724,182.958 89.0134,183.737 C89.7724,184.517 90.5884,185.272 91.1614,186.207 L91.1614,188.888 C89.8384,189.843 87.8694,189.501 86.3354,189.427 C86.4064,190.903 86.9174,193.789 85.3644,194.653 C83.7174,195.57 81.6934,193.129 80.6444,192.105 C79.5944,193.13 77.5714,195.569 75.9244,194.653 C74.3714,193.79 74.8824,190.904 74.9544,189.427 C73.4764,189.499 70.5954,190.009 69.7274,188.458 C68.8074,186.81 71.2524,184.787 72.2754,183.737 C71.2504,182.686 68.8074,180.665 69.7284,179.016 C70.5974,177.465 73.4744,177.975 74.9544,178.047 C74.8824,176.57 74.3714,173.685 75.9244,172.821 C77.5714,171.903 79.5954,174.345 80.6444,175.368 C81.6954,174.344 83.7164,171.902 85.3644,172.821 C86.9174,173.686 86.4064,176.569 86.3354,178.047 C87.8664,177.972 89.8394,177.633 91.1614,178.587 L91.1614,181.267 Z M91.1614,218.217 C87.5734,218.222 84.5704,221.229 84.5704,224.817 C84.5704,228.406 87.5724,231.412 91.1614,231.418 L91.1614,233.196 C90.1124,234.219 88.0964,236.647 86.4514,235.733 C84.8984,234.87 85.4094,231.984 85.4814,230.507 C84.0034,230.579 81.1224,231.089 80.2554,229.538 C79.3344,227.89 81.7794,225.867 82.8034,224.817 C81.7774,223.766 79.3344,221.745 80.2564,220.096 C81.1234,218.546 84.0024,219.055 85.4814,219.127 C85.4094,217.65 84.8984,214.766 86.4514,213.901 C88.0954,212.985 90.1134,215.417 91.1614,216.438 L91.1614,218.217 Z M91.1614,228.417 C86.5304,228.403 86.5304,221.231 91.1614,221.217 L91.1614,228.417 Z M30.4434,240.176 L30.4434,237.292 C31.5484,238.001 31.0214,239.292 30.4434,240.176 Z M28.9434,170.465 C24.2994,170.465 24.3004,163.262 28.9434,163.262 C33.5874,163.262 33.5874,170.465 28.9434,170.465 Z M34.9364,199.794 C34.8654,198.333 35.0814,195.636 37.1744,196.132 C38.6034,196.47 39.6964,197.781 40.7074,198.765 C41.7584,197.741 43.7794,195.3 45.4274,196.219 C46.9794,197.084 46.4694,199.967 46.3974,201.444 C47.8744,201.373 50.7564,200.864 51.6224,202.413 C52.5444,204.059 50.0984,206.084 49.0774,207.134 C50.1004,208.185 52.5444,210.207 51.6224,211.855 C50.7564,213.405 47.8754,212.896 46.3974,212.824 C46.4694,214.302 46.9794,217.185 45.4274,218.051 C43.7794,218.968 41.7564,216.526 40.7074,215.503 C39.6564,216.527 37.6344,218.968 35.9864,218.051 C34.4334,217.186 34.9444,214.302 35.0164,212.824 C33.5294,212.896 31.8074,213.166 30.4434,212.434 L30.4434,209.215 C30.9884,208.453 31.6854,207.802 32.3384,207.134 C31.6854,206.466 30.9884,205.814 30.4434,205.052 L30.4434,201.837 C31.8074,201.106 33.5284,201.372 35.0164,201.444 L34.9364,199.794 Z M21.6014,172.634 C20.1404,172.704 17.4444,172.489 17.9394,170.395 C18.2784,168.967 19.5914,167.874 20.5754,166.864 C19.5504,165.813 17.1054,163.792 18.0274,162.143 C18.8944,160.592 21.7734,161.102 23.2534,161.174 C23.1814,159.697 22.6704,156.813 24.2234,155.948 C25.8704,155.029 27.8934,157.472 28.9434,158.495 C29.9944,157.47 32.0154,155.029 33.6634,155.948 C35.2164,156.813 34.7054,159.696 34.6344,161.174 C36.1114,161.102 38.9924,160.592 39.8594,162.143 C40.7814,163.791 38.3364,165.814 37.3124,166.864 C38.3374,167.916 40.7804,169.936 39.8594,171.585 C38.9924,173.136 36.1124,172.626 34.6344,172.553 C34.6974,173.872 34.9024,175.318 34.4694,176.588 C33.7304,178.75 31.7644,177.802 30.4434,176.665 L30.4434,173.286 C33.7394,172.516 35.9624,169.256 35.4734,165.908 C35.0064,162.711 32.1764,160.262 28.9434,160.262 C25.7844,160.262 22.9874,162.607 22.4404,165.72 C21.8444,169.124 24.0804,172.501 27.4434,173.286 L27.4434,176.665 C26.1294,177.795 24.1564,178.752 23.4184,176.588 C22.9844,175.319 23.1884,173.871 23.2534,172.553 L21.6014,172.634 Z M27.4434,240.803 L26.3964,240.803 C24.6954,234.427 15.3534,234.426 13.6524,240.803 L10.0594,240.803 C8.9094,239.386 8.3084,237.535 10.4714,236.921 C11.7094,236.568 13.0654,236.748 14.3344,236.809 C14.2624,235.333 13.7514,232.448 15.3044,231.584 C16.9514,230.667 18.9744,233.108 20.0244,234.131 C21.0754,233.106 23.0964,230.665 24.7444,231.584 C26.2974,232.449 25.7864,235.332 25.7154,236.809 C26.2914,236.782 26.8674,236.751 27.4434,236.728 L27.4434,240.803 Z M16.8584,240.803 C18.1964,238.318 21.8514,238.317 23.1904,240.803 L16.8584,240.803 Z M70.9324,145.679 C67.8344,150.838 63.7664,155.461 59.5614,159.739 C55.2884,155.393 51.1474,150.691 48.0394,145.426 C55.5894,147.464 63.3384,147.5 70.9324,145.679 Z M21.1854,116.999 C21.9834,114.235 21.3064,111.212 19.4144,109.048 C19.1274,106.775 18.8644,104.366 18.6414,102.083 L18.6414,95.558 L18.6964,95.599 L18.6964,79.235 C18.7964,77.272 19.0364,75.305 19.4184,73.356 C41.9564,72.165 56.1414,56.886 60.3354,51.692 C64.2254,56.907 77.3564,71.909 100.5264,73.325 C101.5334,78.447 101.3084,83.676 101.3084,88.867 L101.3084,100.567 C101.1834,103.25 101.0394,106.113 100.8844,108.595 C100.8304,108.97 100.7684,109.343 100.7044,109.715 C99.4554,111.465 98.9154,113.617 99.1934,115.748 C94.9134,128.6 84.2764,138.763 71.2574,142.484 C58.3814,146.163 44.1974,143.185 33.8424,134.716 C28.1494,130.06 23.7334,123.899 21.1854,116.999 Z M13.0064,120.16 C12.8324,120.16 12.6594,120.151 12.4874,120.135 C15.1404,116.995 15.1404,112.288 12.4874,109.148 C13.8324,109.018 15.2044,109.41 16.2874,110.216 C16.6834,112.533 17.2614,114.787 18.0034,116.968 C17.1234,118.85 15.2174,120.16 13.0064,120.16 Z M10.4124,106.549 C9.9954,106.68 9.5784,106.836 9.1874,107.032 C7.3544,102.108 8.9574,93.879 14.9494,92.797 C15.0124,95.936 15.3384,99.08 15.6414,102.203 C15.6384,103.675 15.6934,105.142 15.8224,106.609 C14.0424,106.044 12.2074,105.97 10.4124,106.549 Z M69.8474,26.925 L82.1404,18.962 L82.2384,18.893 C85.7444,16.204 91.1244,17.768 92.5154,22.007 C93.0694,23.697 92.8524,25.703 92.8524,27.459 L92.8524,35.632 C92.8524,37.198 93.0094,38.871 92.7724,40.428 C92.1084,44.801 87.1594,47.359 83.1994,45.285 L69.8474,36.637 C71.2944,33.59 71.2954,29.972 69.8474,26.925 Z M51.2364,31.781 C51.2364,27.063 55.3114,23.202 60.0124,23.439 C64.3894,23.66 67.9424,27.395 67.9424,31.781 C67.9424,36.166 64.3884,39.902 60.0124,40.123 C55.3134,40.36 51.2364,36.5 51.2364,31.781 Z M28.6314,48.016 C31.8554,49.648 35.8404,49.262 38.7164,47.085 L50.9634,39.153 C55.4194,44.383 63.7574,44.382 68.2154,39.154 L81.6244,47.839 L81.7324,47.903 C84.6724,49.472 88.2564,49.393 91.1264,47.702 C96.9554,53.837 100.6784,61.867 101.2644,70.336 C86.2324,69.556 71.8174,61.816 62.7154,49.829 C61.8894,48.742 61.1824,47.596 60.4534,46.442 C54.1874,55.398 45.2474,62.616 35.1134,66.745 C29.9244,68.859 24.3934,70.107 18.7934,70.355 C19.3604,62.134 22.8094,54.293 28.6314,48.016 Z M49.3314,36.636 L37.0374,44.598 L36.9394,44.667 C34.0324,46.896 29.7324,46.266 27.5754,43.304 C26.2064,41.427 26.3264,39.272 26.3264,37.091 C26.3264,32.775 26.2024,28.44 26.3264,24.127 C26.4644,19.3 31.5684,15.969 35.9794,18.275 L49.3324,26.924 C47.8844,29.969 47.8834,33.59 49.3314,36.636 Z M7.0584,40.052 C9.7604,31.969 14.3604,24.456 20.5034,18.535 C30.4274,8.97 43.8134,4.559 57.4124,4.054 C71.6824,3.523 86.7334,6.473 97.8654,15.929 C105.0694,22.05 110.0154,30.417 112.6494,39.442 C115.0584,47.699 115.6804,56.501 114.6654,65.033 C113.7794,72.478 111.7124,80.371 107.2224,86.509 C106.3794,87.66 105.4374,88.746 104.3634,89.688 L104.3634,73.452 L104.3754,73.452 L104.3634,72.943 C104.3844,62.86 100.3484,53.109 93.4554,45.784 C96.7294,42.09 95.8524,36.483 95.8524,31.922 C95.8524,27.304 96.7684,21.554 93.4834,17.805 C90.2044,14.061 84.4294,13.471 80.4624,16.475 L68.2154,24.408 C63.7584,19.181 55.4224,19.178 50.9654,24.406 L37.5554,15.721 L37.4464,15.657 C33.6064,13.608 28.7664,14.446 25.8254,17.652 C23.9504,19.695 23.3264,22.227 23.3264,24.925 L23.3264,38.423 C23.3264,41.355 23.9794,44.122 26.1594,46.252 C19.5264,53.528 15.6784,63.059 15.6964,72.928 L15.6844,73.444 L15.6964,73.444 L15.6964,79.356 C15.5484,82.668 15.6414,85.998 15.6414,89.312 C4.4814,78.738 0.8344,58.666 7.0584,40.052 Z M111.4214,103.344 C111.4214,104.544 111.2504,105.705 110.9254,106.79 C108.7174,105.866 106.2854,105.972 104.1054,106.895 C104.3024,104.812 104.3084,102.731 104.3084,100.642 C104.4234,98.175 104.5264,95.706 104.6334,93.238 C104.8074,93.12 104.9814,93.002 105.1544,92.874 C110.9194,94.14 111.4214,101.069 111.4214,103.344 Z M108.1504,120.135 C105.4734,120.393 102.9334,118.582 102.2834,115.976 C102.7954,114.344 103.2064,112.671 103.5274,110.965 C104.6854,109.675 106.4214,108.981 108.1504,109.148 C105.4984,112.288 105.4984,116.995 108.1504,120.135 Z M93.4894,140.126 L95.1404,140.206 C95.1044,139.476 95.0424,138.741 95.0504,138.01 C96.4234,138.405 97.7574,138.918 99.0394,139.549 C93.8884,141.006 92.5964,147.928 96.8494,151.155 C100.9614,154.274 107.0864,151.464 107.4114,146.315 C108.6554,147.885 109.7024,149.601 110.5264,151.427 C109.2424,151.83 107.8434,151.65 106.5214,151.585 C106.5934,153.061 107.1044,155.948 105.5514,156.812 C103.9034,157.729 101.8804,155.288 100.8314,154.264 C99.7804,155.289 97.7584,157.728 96.1104,156.812 C94.5574,155.949 95.0684,153.063 95.1404,151.586 C93.6624,151.658 90.7814,152.168 89.9144,150.617 C88.9934,148.969 91.4384,146.946 92.4624,145.896 C91.4774,144.887 90.1644,143.792 89.8274,142.365 C89.3334,140.276 92.0254,140.056 93.4894,140.126 Z M100.8314,142.295 C105.4744,142.295 105.4744,149.497 100.8314,149.497 C96.1864,149.497 96.1874,142.295 100.8314,142.295 Z M114.2194,152.536 C112.3564,147.74 109.6214,143.482 105.6014,140.205 C101.7984,137.104 97.3994,135.38 92.6494,134.361 L92.6404,134.401 C92.1424,134.322 91.6424,134.253 91.1374,134.2 C95.2614,130.118 98.5994,125.244 100.8784,119.812 C102.6904,122.175 105.6604,123.444 108.6204,123.102 C110.6884,122.863 112.3814,121.73 114.1364,120.715 C111.6274,119.261 109.0264,117.805 109.1444,114.455 C110.9744,113.074 112.3964,111.211 113.2984,109.053 L114.1364,108.568 L113.6014,108.26 C115.7004,102.241 114.0564,93.391 107.7054,90.569 C113.6624,84.182 116.3714,74.921 117.5264,66.465 C118.8334,56.903 118.1134,46.981 115.2734,37.75 C111.9604,26.975 105.5044,17.24 96.1704,10.777 C82.2294,1.126 63.2224,-0.893 46.8764,2.25 C30.4054,5.417 15.9414,15.277 8.0174,30.201 C-0.7606,46.736 -2.0936,69.12 8.4234,85.229 C9.6234,87.069 10.9844,88.805 12.5054,90.392 C5.8224,93.005 4.0484,102.485 6.5744,108.527 L6.5034,108.568 L6.6194,108.636 C7.6344,111.006 9.3204,113.071 11.4994,114.549 C11.5574,117.844 8.9794,119.28 6.5044,120.715 C8.1064,121.642 9.6714,122.7 11.5284,123.03 C14.3904,123.538 17.3594,122.501 19.3074,120.352 C21.6144,125.653 24.9324,130.413 29.0094,134.4 C15.7314,136.452 6.0144,148.088 5.9294,161.433 C5.9014,165.718 5.9294,170.003 5.9294,174.287 L5.9294,201.35 L5.9294,228.992 L5.9294,243.594 L5.9294,243.803 L115.6774,243.803 L115.6774,213.94 L115.6774,169.038 C115.6774,163.497 116.0334,157.88 114.2024,152.55 L114.2194,152.536 Z" id="Fill-113" fill="#000000" mask="url(#mask-2)"></path>
            </g>
            <path d="M80.6448,180.2575 C76.0008,180.2575 75.9998,187.4595 80.6448,187.4595 C85.2878,187.4595 85.2878,180.2575 80.6448,180.2575 M80.6448,190.4595 C77.0518,190.4595 74.0428,187.4515 74.0428,183.8595 C74.0428,180.2675 77.0518,177.2575 80.6448,177.2575 C84.2378,177.2575 87.2458,180.2675 87.2458,183.8595 C87.2458,187.4515 84.2378,190.4595 80.6448,190.4595" id="Fill-116" fill="#000000"></path>
            <path d="M40.7073,203.6549 C36.0623,203.6549 36.0633,210.8569 40.7073,210.8569 C45.3513,210.8569 45.3513,203.6549 40.7073,203.6549 M40.7073,213.8569 C37.1143,213.8569 34.1053,210.8479 34.1053,207.2559 C34.1053,203.6629 37.1143,200.6549 40.7073,200.6549 C44.3003,200.6549 47.3093,203.6629 47.3093,207.2559 C47.3093,210.8479 44.3003,213.8569 40.7073,213.8569" id="Fill-118" fill="#000000"></path>
        </g>
    </g>
</svg>