<svg id="Layer_1" data-name="Layer 1" xmlns="http://www.w3.org/2000/svg" viewBox="0 0 300 300"><defs><style>.cls-1{fill:#684e43;}.cls-2{fill:#f50;}.cls-3{fill:#ffaee4;}.cls-4{fill:#dda812;}</style></defs><title>portland_characters</title><path class="cls-1" d="M192.16,104.37c-27.8-1.15-41.36-22.72-41.36-22.72s-15.3,21.91-42.2,22.74a43,43,0,0,0-1,9.42v21.41a42.85,42.85,0,0,0,27.89,40.15h0c3.67,8.52,14.53,19,14.53,19h0s10.58-10.19,14.38-18.65a42.83,42.83,0,0,0,28.87-40.49V113.81A42.55,42.55,0,0,0,192.16,104.37Z"/><path class="cls-2" d="M150.78,35c-61.16,0-70.61,69.44-43.17,90.09V105.28a37.82,37.82,0,0,1,11.16-26.66l-.09-.07a8,8,0,0,0,9.58-.19l13.47-8.73a9.84,9.84,0,0,0,16.53,0l14.59,9.45a8,8,0,0,0,8.88-.83,37.89,37.89,0,0,1,11.54,27v19.81C213.52,113.81,220,35,150.78,35Z"/><path class="cls-3" d="M178.73,168.06h-.85a42.81,42.81,0,0,1-13.56,7.66h0c-3.8,8.46-14.38,18.65-14.38,18.65h0s-10.86-10.47-14.53-19a42.88,42.88,0,0,1-12.53-7.29,25.84,25.84,0,0,0-25.07,25.83V274.8H204.59V193.91A25.85,25.85,0,0,0,178.73,168.06Z"/><path d="M162.25,147a9.22,9.22,0,0,0-13,0l-2.12-2.12a12.22,12.22,0,0,1,17.26,0Z"/><path d="M150,75.63a11.35,11.35,0,1,1,11.35-11.35A11.36,11.36,0,0,1,150,75.63Zm0-19.7a8.35,8.35,0,1,0,8.35,8.35A8.36,8.36,0,0,0,150,55.93Z"/><path d="M134.36,126.23a7.54,7.54,0,0,1-7.53-7.53h3a4.53,4.53,0,1,0,9,0h3A7.53,7.53,0,0,1,134.36,126.23Z"/><path d="M167.26,126.23a7.53,7.53,0,0,1-7.52-7.53h3a4.52,4.52,0,1,0,9,0h3A7.53,7.53,0,0,1,167.26,126.23Z"/><circle class="cls-4" cx="131.12" cy="239.63" r="5.1"/><circle class="cls-2" cx="119.35" cy="199.36" r="5.1"/><path class="cls-4" d="M188.85,250.05c.26-5.45-3.31-7.05-7.27-3.2-4-3.85-7.53-2.25-7.27,3.2-5.44-.27-7,3.31-3.19,7.27-3.85,3.95-2.25,7.53,3.19,7.27-.26,5.44,3.32,7,7.27,3.19,4,3.85,7.53,2.25,7.27-3.19,5.45.26,7.05-3.32,3.2-7.27C195.9,253.36,194.3,249.78,188.85,250.05Zm-7.27,12.37a5.1,5.1,0,1,1,5.1-5.1A5.11,5.11,0,0,1,181.58,262.42Z"/><path class="cls-4" d="M126.62,192.1c.27-5.45-3.31-7-7.27-3.2-3.95-3.85-7.53-2.25-7.26,3.2-5.45-.27-7,3.31-3.2,7.26-3.85,4-2.25,7.54,3.2,7.27-.27,5.45,3.31,7.05,7.26,3.2,4,3.85,7.54,2.25,7.27-3.2,5.45.27,7-3.31,3.2-7.27C133.67,195.41,132.07,191.83,126.62,192.1Zm-7.27,12.37a5.11,5.11,0,1,1,5.11-5.11A5.11,5.11,0,0,1,119.35,204.47Z"/><circle class="cls-2" cx="131.12" cy="239.63" r="5.1"/><circle class="cls-2" cx="181.58" cy="257.32" r="5.1"/><circle class="cls-2" cx="171.06" cy="216.24" r="5.1"/><circle class="cls-2" cx="191.24" cy="178.4" r="5.1"/><path class="cls-2" d="M110.44,269.9a5.1,5.1,0,0,0-5.11,5.1h10.21A5.1,5.1,0,0,0,110.44,269.9Z"/><path d="M181.74,78.25a8.06,8.06,0,0,1-8.89.83l-14.59-9.45a9.84,9.84,0,0,1-16.53,0l-13.47,8.73a8,8,0,0,1-9.48.26,37.94,37.94,0,0,0-11.15,25.81c27.51-.32,43.17-22.78,43.17-22.78s13.9,22.15,42.45,22.77A38,38,0,0,0,181.74,78.25Z"/><path class="cls-1" d="M103.35,146.2a7,7,0,0,0-3.44-5.13,7,7,0,0,1,3.51-.95,7,7,0,0,1,5,2.08c-.93-7.2-1.91-18.64-1.4-18.54-6.66,0-9.56,5.53-9.56,12.18A12,12,0,0,0,103.35,146.2Z"/><path class="cls-4" d="M138.39,232.37c.26-5.45-3.32-7.05-7.27-3.2-4-3.85-7.53-2.25-7.27,3.2-5.45-.27-7,3.31-3.2,7.26-3.85,4-2.25,7.54,3.2,7.27-.26,5.45,3.31,7,7.27,3.2,3.95,3.85,7.53,2.25,7.27-3.2,5.44.27,7-3.31,3.19-7.27C145.43,235.68,143.83,232.1,138.39,232.37Zm-7.27,12.37a5.11,5.11,0,1,1,5.1-5.11A5.1,5.1,0,0,1,131.12,244.74Z"/><path class="cls-4" d="M103.42,147.14a7,7,0,0,0-3.51-6.07,7,7,0,0,1,3.51-.95,7,7,0,1,1,0,14,7,7,0,0,1-3.51-.95A7,7,0,0,0,103.42,147.14Z"/><path class="cls-4" d="M198,147.14a7,7,0,0,1,3.51-6.07,7,7,0,0,0-3.51-.95,7,7,0,1,0,0,14,7,7,0,0,0,3.51-.95A7,7,0,0,1,198,147.14Z"/><path class="cls-1" d="M193.19,142.08l.08-.07.46-.4.13-.09.45-.32.18-.1a3.21,3.21,0,0,1,.45-.24l.2-.1.46-.19.23-.09.47-.13.25-.06a4.17,4.17,0,0,1,.51-.09l.22,0a6.47,6.47,0,0,1,.76,0,7,7,0,0,1,3.51.95,6.58,6.58,0,0,0-.7.47l-.22.18-.43.37-.24.25-.33.37-.22.3a4.56,4.56,0,0,0-.27.39c-.07.11-.14.22-.2.33s-.14.28-.21.42a4,4,0,0,0-.17.36c-.06.14-.11.3-.16.45l-.12.37a7.25,7.25,0,0,0-.16.81,12.17,12.17,0,0,0,5.21-10.3c0-6.65-3-12.18-9.68-12.18-.05-.1-.46,11.75-1,18.94h0A6,6,0,0,1,193.19,142.08Z"/><path class="cls-4" d="M202.85,184.59a25.88,25.88,0,0,0-18.67-16,9,9,0,0,0-.21,2.49c-5.44-.27-7,3.31-3.19,7.27-3.85,3.95-2.25,7.53,3.19,7.26-.26,5.45,3.32,7.05,7.27,3.2,4,3.85,7.53,2.25,7.27-3.2A6.22,6.22,0,0,0,202.85,184.59Zm-11.61-1.09a5.11,5.11,0,1,1,5.1-5.1A5.1,5.1,0,0,1,191.24,183.5Z"/><path class="cls-4" d="M178.32,209c.27-5.45-3.31-7.05-7.26-3.2-4-3.85-7.54-2.25-7.27,3.2-5.45-.27-7,3.31-3.2,7.27-3.85,3.95-2.25,7.53,3.2,7.27-.27,5.44,3.31,7,7.27,3.19,3.95,3.85,7.53,2.25,7.26-3.19,5.45.26,7.05-3.32,3.2-7.27C185.37,212.28,183.77,208.7,178.32,209Zm-7.26,12.37a5.1,5.1,0,1,1,5.1-5.1A5.11,5.11,0,0,1,171.06,221.34Z"/><path class="cls-4" d="M117.7,267.73c.27-5.44-3.31-7.05-7.26-3.19-4-3.86-7.54-2.25-7.27,3.19-5.45-.26-7,3.32-3.2,7.27h5.36a5.11,5.11,0,0,1,10.21,0h5.36C124.75,271.05,123.15,267.47,117.7,267.73Z"/><path d="M204.63,185l-.39-1v0c-.18-.48-.39-1-.6-1.43-.07-.16-.15-.31-.22-.46s-.27-.55-.41-.82-.24-.47-.37-.7-.13-.22-.2-.33a27.17,27.17,0,0,0-12.29-11.23L190,169c-.33-.15-.66-.3-1-.43l-.49-.19c-.36-.14-.72-.27-1.09-.39l-1.07-.34-.47-.13-1.16-.29-.23-.05-1.43-.31v0c-.5-.08-1-.15-1.5-.2a44.56,44.56,0,0,0,9.74-14.39,8.47,8.47,0,0,0,11,2.2l2.25-1.29-2.25-1.3a5.56,5.56,0,0,1-2.76-4.78,1.37,1.37,0,0,1,0-.19,13,13,0,0,0,4.15-5.4l.84-.48-.54-.31a14.77,14.77,0,0,0,.82-4.92c0-6.3-2.53-10.91-6.71-12.77,8.51-9.13,13.55-30,8.29-50.27-3.82-14.68-16.12-39.3-55.63-39.3-27.19,0-48.18,14.24-56.16,38.1-6.37,19.08-2.83,39.69,8.3,51.29-4.39,1.72-7,6.36-7,13A13.48,13.48,0,0,0,97,141l-.08,0,.12.07a13.61,13.61,0,0,0,4.88,5.91s0,.06,0,.09a5.56,5.56,0,0,1-2.76,4.78l-2.25,1.3,2.25,1.29a8.47,8.47,0,0,0,10.56-1.66,44.56,44.56,0,0,0,9.7,14.05,27.19,27.19,0,0,0-23.08,27V276.3H206.09V193.91a27.09,27.09,0,0,0-1.48-8.86ZM191.24,174.8a3.6,3.6,0,1,1-3.6,3.6A3.6,3.6,0,0,1,191.24,174.8Zm-7.34-2.17,1.65.08-.08-1.65c0-.19,0-.37,0-.55l.26.07.57.18.72.25.27.1a23.28,23.28,0,0,1,2.17.94,6.6,6.6,0,1,0,8.37,6.77,25.28,25.28,0,0,1,2.24,3.34l.13.25.36.69.26.54c0,.09.08.19.13.29a7.26,7.26,0,0,1-2.36.24l-1.65-.08.08,1.65c.09,1.88-.35,3.27-1.15,3.63s-2.19-.24-3.57-1.58l-1-1-1,1c-1.39,1.34-2.76,2-3.57,1.58s-1.25-1.75-1.16-3.63l.08-1.65-1.65.08c-1.88.09-3.27-.36-3.64-1.16s.24-2.18,1.59-3.57l1-1-1-1.05c-1.35-1.38-1.95-2.75-1.59-3.57S182,172.54,183.9,172.63Zm14.66-20-.52,0a5.52,5.52,0,0,1-5.35-4.18,42.16,42.16,0,0,0,1.25-5,5.49,5.49,0,0,1,4.1-1.85,4.41,4.41,0,0,1,.52,0,8.48,8.48,0,0,0,0,11Zm3.27-16.8a12.19,12.19,0,0,1-.49,3.45h0l-.19-.06a6,6,0,0,0-.75-.26c-.16-.05-.33-.08-.5-.12l-.41-.08-.66-.09h-.22c-.18,0-.37,0-.55,0a8.57,8.57,0,0,0-2,.24h0a6.61,6.61,0,0,0-.76.22l-.22.08-.54.22h0c.13-1.38.2-2.77.2-4.18v-2.08c.1-2.23.19-4.33.26-6,0-.51,0-1,.06-1.42l.53-.37C201.33,126.64,201.83,133.57,201.83,135.84ZM97.47,72.55c3.62-10.84,16.07-36,53.31-36,37.5,0,49.13,23.22,52.73,37.06,5.19,20-.26,41.19-8.74,48.63V106h0l0-.51v-.16a38.66,38.66,0,0,0-5.92-20.52l0-.05c-.3-.48-.62-1-.95-1.44l-.13-.2c-.29-.42-.6-.83-.9-1.24l-.27-.36c-.27-.35-.55-.69-.83-1l-.41-.5-.76-.86c-.18-.21-.37-.42-.56-.62l-.14-.17.23-.28c.15-.18.29-.37.42-.56s.28-.4.41-.61.16-.29.23-.44.18-.36.27-.54l.18-.42a9.4,9.4,0,0,0,.31-.94c0-.1.05-.2.07-.3.06-.27.12-.54.16-.81,0-.11,0-.22,0-.33a10.34,10.34,0,0,0,.07-1.11V56.63A9.59,9.59,0,0,0,170.87,49l-12.24,7.93a11.34,11.34,0,0,0-17.25,0L128,48.22l-.11-.06a9.59,9.59,0,0,0-14.12,8.46V71.93a10.36,10.36,0,0,0,.08,1.25c0,.08,0,.17,0,.25a9.22,9.22,0,0,0,.25,1.16h0a9.23,9.23,0,0,0,1,2.38l0,0a8.82,8.82,0,0,0,1.38,1.73,39.29,39.29,0,0,0-10.46,26.53v.66h0v5.92c0,.65-.06,1.3-.06,1.94v8C94.89,111.24,91.25,91.17,97.47,72.55Zm42.27-3.41-12.29,8-.1.07a6,6,0,0,1-.86.55,1.24,1.24,0,0,1-.2.1,7.4,7.4,0,0,1-.71.32l-.23.08c-.24.07-.48.14-.72.19l-.25,0a5.87,5.87,0,0,1-.72.08h-.27c-.23,0-.45,0-.68,0l-.32,0c-.2,0-.41-.07-.61-.12l-.37-.1a5.77,5.77,0,0,1-.58-.22l-.34-.14a9.54,9.54,0,0,1-.87-.49v0a6.84,6.84,0,0,1-1.15-1l-.09-.1a4.57,4.57,0,0,1-.38-.49,1.09,1.09,0,0,1-.13-.17c-.11-.16-.2-.32-.3-.48s-.09-.17-.13-.26a4,4,0,0,1-.21-.47,3.62,3.62,0,0,1-.13-.35c0-.14-.09-.28-.13-.43s-.07-.32-.1-.48,0-.23-.06-.35a6.4,6.4,0,0,1-.06-.88V56.62a6.57,6.57,0,0,1,3.2-5.66,8.36,8.36,0,0,1,.79-.4l.26-.09a5.31,5.31,0,0,1,.56-.2l.32-.07.52-.11c.12,0,.24,0,.36,0l.49,0,.46,0,.34,0,.49.08c.1,0,.21,0,.31.06a5.34,5.34,0,0,1,.53.16,1.29,1.29,0,0,1,.26.08,4.66,4.66,0,0,1,.76.34l13.35,8.64a11.38,11.38,0,0,0,0,9.72ZM119,80.52h0a11,11,0,0,0,1.07.45l.71.21.41.11c.27.06.55.1.82.14l.29,0c.3,0,.6,0,.9.05h.28a10,10,0,0,0,1.1-.09l.39-.06c.26,0,.51-.11.77-.18s.45-.13.68-.21l.43-.16c.32-.13.63-.28.94-.44l.23-.14a11.08,11.08,0,0,0,1-.66l12.24-7.94a11.35,11.35,0,0,0,17.26,0L172,80.34l.11.06a9.74,9.74,0,0,0,1.14.52l.09,0a9.43,9.43,0,0,0,8.17-.75l.24.25.51.56c.21.24.42.47.62.71l.57.68c.16.2.31.4.47.59l.63.83.28.39a36.11,36.11,0,0,1,6.82,18.63c-26.28-1.37-39.48-21.78-39.61-22l-.2-.32-1-1.59-.92,1.32-.37.53c-.15.21-15,20.94-40.37,22.07A36.55,36.55,0,0,1,119,80.52Zm22.61-16.24A8.34,8.34,0,0,1,157,59.74h0a8.36,8.36,0,0,1,0,9.08h0a8.35,8.35,0,0,1-15.35-4.54Zm18.61-4.85,12.29-8,.1-.07a6.6,6.6,0,0,1,10.61,5.24V71.94a7.7,7.7,0,0,1,0,.83l0,.16a5.13,5.13,0,0,1-.13.66.74.74,0,0,1,0,.14,6,6,0,0,1-.21.64l-.06.14a6.36,6.36,0,0,1-.28.59l-.09.15c-.1.17-.21.34-.32.5l-.14.2-.3.34a6.65,6.65,0,0,1-.81.78h0a8.26,8.26,0,0,1-.8.56l-.12.06a5.94,5.94,0,0,1-.67.33,3,3,0,0,1-.39.14l-.43.15-.48.1-.37.07-.51,0h-.87l-.39,0a3.55,3.55,0,0,1-.47-.08,4.12,4.12,0,0,1-.47-.13,2.38,2.38,0,0,1-.38-.11,6.24,6.24,0,0,1-.84-.36l-13.35-8.65a11.36,11.36,0,0,0,0-9.71Zm-59.44,79.62a5.34,5.34,0,0,0-.52.18l-.36.16-.34.14a10.54,10.54,0,0,1-.66-3.69c0-3,.66-9.5,6.42-10.54,0,1.13.12,2.78.32,5.27.11,1.31.24,2.72.37,4.13v.52c0,1.31.07,2.61.18,3.89l-.06,0-.34-.11-.36-.1-.57-.12-.17,0a8.08,8.08,0,0,0-1.31-.12l-.33,0H103A8.69,8.69,0,0,0,100.82,139.05Zm2.6,13.61-.52,0a8.48,8.48,0,0,0,0-11,4.41,4.41,0,0,1,.52,0,5.44,5.44,0,0,1,3.28,1.1,44.77,44.77,0,0,0,1.71,6.75A5.51,5.51,0,0,1,103.42,152.66Zm8.18-3.16a8.74,8.74,0,0,0,.34-2.36,8.52,8.52,0,0,0-2.11-5.59c-.29-2.27-.55-4.68-.78-7v-6.52l.06,0V111.74a41.78,41.78,0,0,1,.72-5.88c22.54-1.19,36.72-16.47,40.92-21.67a54.8,54.8,0,0,0,40.19,21.64,41.32,41.32,0,0,1,.78,8v19.27c-.13,2.68-.27,5.54-.43,8,0,.37-.11.74-.17,1.11a8.44,8.44,0,0,0-1.6,4.93,10.17,10.17,0,0,0,.08,1.11,41.5,41.5,0,0,1-21.39,24.25l-.08,0c-.67.32-1.36.62-2,.91l-.15.06c-.73.3-1.47.57-2.21.83l-1.28.41-.29.09c-.49.15-1,.28-1.48.41l-.14,0c-.53.13-1.07.26-1.61.37h0a40.7,40.7,0,0,1-5,.74h0c-.53.05-1.07.08-1.6.1h-.12l-1.71,0c-.59,0-1.18,0-1.76,0l-.62,0-1.12-.07-.75-.08-1-.11-.82-.11-.88-.14-.86-.15-.82-.17-.88-.19-.75-.19-.93-.24-.59-.18A41.51,41.51,0,0,1,111.6,149.5Zm49.74,28.68c-.08.14-.16.28-.25.42s-.19.3-.28.46l-.53.8-.25.38c-.27.4-.54.79-.82,1.17l-.08.12-.77,1.05-.31.41-.57.74-.36.45-.54.67-.36.45-.54.66c-.12.13-.23.27-.34.4l-.61.71-.26.31-.82.93-.28.31-.53.59-.33.35-.44.48-.31.33c-.14.15-.27.3-.41.44l-.26.28-.4.41c-.07.07-.14.15-.21.21l-.51.53-.51-.52-.3-.32-.28-.29-.41-.43-.24-.26-.47-.51-.24-.25-.53-.58c-.06-.07-.12-.13-.17-.2-.65-.71-1.34-1.49-2-2.32a2.11,2.11,0,0,1-.19-.23l-.6-.7-.29-.36-.56-.69-.33-.42q-.28-.34-.54-.69l-.35-.45-.52-.69-.37-.51-.77-1.08-.48-.7c-.12-.17-.23-.35-.35-.53l-.43-.68-.33-.53c-.07-.13-.15-.25-.22-.37l.21,0q1.16.32,2.34.57l.49.1c.84.17,1.68.32,2.53.44l.2,0a43,43,0,0,0,5.6.42h.57q1.17,0,2.34-.06h.07a43.63,43.63,0,0,0,8.45-1.28ZM107.27,273.3a3.59,3.59,0,0,1,6.33,0Zm10.58,0h-1a6.6,6.6,0,0,0-12.75,0h-3.59c-.93-1.15-1.32-2.23-1-2.91s1.75-1.25,3.63-1.16l1.65.08-.08-1.65c-.09-1.88.36-3.28,1.16-3.64s2.18.24,3.57,1.59l1,1,1-1c1.39-1.35,2.76-1.95,3.57-1.59s1.25,1.76,1.16,3.64l-.08,1.65,1.65-.08h.07ZM112,205.13c-1.88.09-3.27-.35-3.63-1.15s.24-2.18,1.59-3.57l1-1-1-1c-1.35-1.39-2-2.75-1.59-3.57s1.75-1.25,3.63-1.16l1.65.08-.08-1.65c-.09-1.88.36-3.27,1.16-3.63s2.18.24,3.57,1.58l1,1,1.05-1c1.38-1.34,2.75-1.95,3.57-1.58s1.25,1.75,1.15,3.63l-.08,1.65,1.66-.08c1.88-.09,3.27.36,3.63,1.16s-.24,2.18-1.59,3.57l-1,1,1,1c1.35,1.39,2,2.75,1.59,3.57s-1.75,1.25-3.63,1.15l-1.66-.08.08,1.65c.1,1.89-.35,3.28-1.15,3.64s-1.89-.12-3.12-1.17v-3.38a6.6,6.6,0,1,0-3,0v3.38c-1.22,1.05-2.39,1.49-3.11,1.17s-1.25-1.75-1.16-3.64l.08-1.65Zm13.34,27.16c-.09-1.88.35-3.27,1.15-3.63s2.19.24,3.57,1.59l1.05,1,1-1c1.39-1.35,2.76-2,3.57-1.59s1.25,1.75,1.16,3.63l-.08,1.65,1.65-.08c1.88-.08,3.27.36,3.64,1.16s-.24,2.18-1.59,3.57l-1,1,1,1.05c1.35,1.38,2,2.75,1.59,3.57s-1.76,1.24-3.64,1.15l-1.65-.08.08,1.65c.09,1.89-.35,3.28-1.16,3.64s-2.18-.24-3.57-1.59l-1-1-1.05,1c-1.38,1.35-2.75,1.95-3.57,1.59s-1.24-1.75-1.15-3.64l.08-1.65-1.65.08a5.78,5.78,0,0,1-2.93-.47v-3.21a9.94,9.94,0,0,1,.88-1l1-1.05-1-1a9.94,9.94,0,0,1-.88-1v-3.21a5.9,5.9,0,0,1,2.93-.48l1.65.08Zm-6-29.32a3.61,3.61,0,1,1,3.61-3.61A3.61,3.61,0,0,1,119.35,203Zm1.5,69.71v-2.89a1.45,1.45,0,0,1,.56.6A2.54,2.54,0,0,1,120.85,272.68Zm60.72-11.76a3.6,3.6,0,0,1,0-7.2Zm0-10.2a6.6,6.6,0,0,0,0,13.2v1.78l-1,1c-1.39,1.34-2.76,2-3.57,1.59s-1.25-1.76-1.16-3.64l.08-1.65-1.65.08c-1.88.09-3.27-.35-3.64-1.16s.24-2.18,1.59-3.57l1-1-1-1.05c-1.35-1.38-1.95-2.75-1.58-3.57s1.75-1.24,3.63-1.15l1.65.08-.08-1.65c-.09-1.88.35-3.28,1.16-3.64s2.18.24,3.57,1.59l1,1Zm0-36.95a7.62,7.62,0,0,1-1.13,1.42l-1,1.05,1,1a8,8,0,0,1,1.13,1.43v2.68a5.27,5.27,0,0,1-3.17.62l-1.65-.08.08,1.65c.09,1.88-.36,3.27-1.16,3.64s-2.18-.25-3.57-1.59l-1-1-1.05,1c-1.39,1.34-2.76,2-3.57,1.59s-1.25-1.76-1.16-3.64l.08-1.65-1.65.08c-1.88.09-3.27-.35-3.63-1.16s.24-2.18,1.59-3.57l1-1-1-1.05c-1.35-1.38-2-2.75-1.59-3.57s1.75-1.24,3.63-1.15l1.65.08-.08-1.65c-.09-1.89.36-3.28,1.16-3.64s2.18.24,3.57,1.59l1.05,1,1-1c1.39-1.35,2.76-2,3.57-1.59s1.25,1.75,1.16,3.64l-.08,1.65,1.65-.08a5.2,5.2,0,0,1,3.17.62Zm21.52,59.53H184.57v-2a4.82,4.82,0,0,0,1.11.14,4.2,4.2,0,0,0,1.75-.37c1.68-.76,2.69-2.53,2.9-5,2.44-.2,4.21-1.22,5-2.89s.31-3.82-1.27-5.85c1.58-2,2-4.12,1.27-5.85s-2.53-2.69-5-2.9c-.21-2.44-1.22-4.21-2.9-5a4.48,4.48,0,0,0-2.86-.23V222.44c.07-.12.14-.23.2-.35a4.89,4.89,0,0,0-.2-4.11v-3.49a4.87,4.87,0,0,0,.2-4.1c-.06-.13-.13-.24-.2-.36v-5.56h-3v3.35a9.28,9.28,0,0,0-1.77-.33c-.2-2.44-1.22-4.21-2.9-5s-3.81-.31-5.84,1.27c-2-1.58-4.12-2-5.85-1.27s-2.7,2.53-2.9,5c-2.44.21-4.21,1.22-5,2.9s-.31,3.81,1.26,5.85c-1.57,2-2,4.12-1.26,5.85s2.53,2.69,5,2.89c.2,2.44,1.22,4.21,2.9,5s3.81.32,5.85-1.26a6.84,6.84,0,0,0,4.09,1.63,4.2,4.2,0,0,0,1.75-.37c1.68-.76,2.7-2.53,2.9-5a8,8,0,0,0,1.77-.33v20.21c-2-1.57-4.11-2-5.83-1.26s-2.7,2.53-2.9,5c-2.44.21-4.22,1.22-5,2.9s-.32,3.81,1.26,5.85c-1.58,2-2,4.12-1.26,5.85s2.53,2.69,5,2.89c.2,2.44,1.22,4.21,2.9,5s3.8.32,5.83-1.25v3.52H123.94a4.55,4.55,0,0,0-3.09-6.75V248.12a10,10,0,0,0,1.52.26c.21,2.44,1.22,4.21,2.9,5s3.81.31,5.85-1.26a6.87,6.87,0,0,0,4.1,1.63,4.23,4.23,0,0,0,1.75-.37c1.67-.76,2.69-2.53,2.89-5,2.44-.2,4.22-1.22,5-2.9s.32-3.81-1.26-5.85c1.58-2,2-4.12,1.26-5.84s-2.53-2.7-5-2.9c-.2-2.44-1.22-4.21-2.89-5s-3.82-.31-5.85,1.26c-2-1.57-4.12-2-5.85-1.26s-2.69,2.53-2.9,5a10,10,0,0,0-1.52.26v-18.4a6,6,0,0,0,2.6.7,4.2,4.2,0,0,0,1.75-.37c1.68-.76,2.7-2.53,2.9-5,2.44-.2,4.21-1.22,5-2.9s.31-3.81-1.26-5.85c1.57-2,2-4.12,1.26-5.84s-2.53-2.7-5-2.9c-.2-2.44-1.22-4.21-2.9-5s-3.81-.31-5.85,1.26c-2-1.57-4.11-2-5.84-1.26s-2.7,2.53-2.9,5c-2.44.2-4.21,1.22-5,2.9s-.32,3.81,1.26,5.84c-1.58,2-2,4.12-1.26,5.85s2.53,2.7,5,2.9c.2,2.44,1.22,4.21,2.9,5a5,5,0,0,0,4.34-.31V233a4.66,4.66,0,0,0-.45.75,5.08,5.08,0,0,0,.45,4.6v2.49a5.08,5.08,0,0,0-.45,4.6,4.66,4.66,0,0,0,.45.75v16.29a4.08,4.08,0,0,0-1.57-1.23c-1.72-.78-3.81-.32-5.84,1.26-2-1.58-4.12-2-5.85-1.26s-2.7,2.53-2.9,5a7.87,7.87,0,0,0-2.35.53V193.91A24.22,24.22,0,0,1,122.4,169.6a44.06,44.06,0,0,0,11.93,7c3.82,8.3,13.53,17.85,14.53,18.82l.07.07,1,1,1-1c.08-.08.5-.48,1.15-1.14,2.81-2.85,10-10.49,13.29-17.38.7-.26,1.39-.53,2.08-.82l.23-.1c.64-.27,1.27-.56,1.9-.86l.09,0a44.26,44.26,0,0,0,8.67-5.53h.31a24.82,24.82,0,0,1,3,.19,5.22,5.22,0,0,0-4.21,2.8c-.78,1.73-.32,3.81,1.26,5.85-1.58,2-2,4.12-1.26,5.85s2.53,2.69,5,2.89c.2,2.44,1.22,4.21,2.89,5s3.82.32,5.85-1.26a6.89,6.89,0,0,0,4.1,1.63,4.2,4.2,0,0,0,1.75-.37c1.68-.76,2.69-2.53,2.9-5a8.13,8.13,0,0,0,2-.41,24,24,0,0,1,1.09,7.18Zm-14.91-16a6.59,6.59,0,0,0-3.61-5.88v-4.92a2,2,0,0,1,1.63-.18c.8.36,1.24,1.76,1.15,3.64l-.08,1.65,1.65-.08c1.89-.09,3.28.35,3.64,1.15s-.24,2.19-1.59,3.57l-1,1.05,1,1c1.35,1.39,2,2.76,1.59,3.57s-1.75,1.25-3.64,1.16l-1.65-.08.08,1.65c.09,1.88-.35,3.27-1.15,3.64a2,2,0,0,1-1.63-.19V263.2A6.62,6.62,0,0,0,188.18,257.32Zm-3.61,2v-4a3.58,3.58,0,0,1,.61,2A3.53,3.53,0,0,1,184.57,259.32Z"/><path d="M171.06,222.84a6.6,6.6,0,1,1,6.6-6.6A6.62,6.62,0,0,1,171.06,222.84Zm0-10.2a3.6,3.6,0,1,0,3.6,3.6A3.61,3.61,0,0,0,171.06,212.64Z"/><path d="M131.12,246.24a6.61,6.61,0,1,1,6.6-6.61A6.62,6.62,0,0,1,131.12,246.24Zm0-10.21a3.61,3.61,0,1,0,3.6,3.6A3.6,3.6,0,0,0,131.12,236Z"/></svg>