<?xml version="1.0" encoding="UTF-8"?>
<svg width="175px" height="175px" viewBox="0 0 175 175" version="1.1" xmlns="http://www.w3.org/2000/svg" xmlns:xlink="http://www.w3.org/1999/xlink">
    <!-- Generator: sketchtool 50.2 (55047) - http://www.bohemiancoding.com/sketch -->
    <title>0C2F0620-4E52-4DD8-9B2D-600ADD98F178</title>
    <desc>Created with sketchtool.</desc>
    <defs>
        <circle id="path-1" cx="87.5" cy="87.5" r="87.5"></circle>
    </defs>
    <g id="Symbols" stroke="none" stroke-width="1" fill="none" fill-rule="evenodd">
        <g id="characters" transform="translate(-465.000000, -330.000000)">
            <g id="PLAYER-/-fatima_win" transform="translate(465.000000, 330.000000)">
                <mask id="mask-2" fill="white">
                    <use xlink:href="#path-1"></use>
                </mask>
                <use id="Mask" fill="#FFFFFF" xlink:href="#path-1"></use>
                <g id="fatima_win" mask="url(#mask-2)">
                    <g transform="translate(48.000000, 10.000000)">
                        <path d="M68.4052616,60.2402362 C68.3865158,60.2000787 68.1180497,53.6457087 68.1180497,53.6457087 C68.1180497,51.4751969 67.8689988,49.364252 67.4117361,47.3316142 C48.7958548,46.5632677 39.7182192,32.1259843 39.7182192,32.1259843 C39.7182192,32.1259843 29.4770073,46.7888189 11.4683548,47.345 C11.0131005,49.3742913 10.7647192,51.4805512 10.7647192,53.6457087 C10.7647192,53.6457087 10.1588294,60.1947244 10.3938209,60.2402362 C6.99280393,60.2402362 4.84105817,62.7085827 4.22378698,65.886378 C3.511448,69.5494094 4.61142257,73.343622 7.95352427,75.3274016 C7.75535478,73.8583071 6.87765139,72.6074016 5.64712596,71.8946063 C7.38378698,70.8886614 9.61721071,71.1202362 11.1148633,72.4514567 C12.6895073,82.5062205 19.4942192,90.8208268 28.6562107,94.5434252 C28.6501853,94.5414173 28.6441599,94.5394094 28.6388039,94.5367323 C28.6388039,95.778937 28.6126938,97.0231496 28.6388039,98.264685 C28.6709395,99.858937 29.2821853,101.360157 30.0139395,102.75563 C31.835626,106.229921 34.4600327,109.305984 37.124609,112.159173 C37.7900836,112.871299 38.464931,113.574724 39.1645497,114.252717 C40.9594565,112.513228 42.6452361,110.645906 44.2259056,108.710315 C46.4606683,105.972913 49.3053378,102.503976 49.6628463,98.8429528 C49.7940666,97.4990157 49.6909649,96.1109055 49.6909649,94.7616142 C59.2553209,91.0999213 66.355948,82.4627165 67.8301683,72.0184252 C67.8100836,72.3276378 67.7906683,72.6281496 67.7705836,72.9166142 C69.2247192,71.2099213 71.7533887,70.768189 73.6969226,71.8946063 C72.477109,72.601378 71.6040921,73.8375591 71.3965497,75.2905906 C76.8013548,71.7112205 76.0006429,60.2402362 68.4052616,60.2402362" id="Fill-97" fill="#684E43"></path>
                        <path d="M58.8446601,96.3998266 L50.117838,96.3998266 C50.117838,97.5858108 50.160016,98.7329762 49.8319652,99.8868345 C49.372694,101.503842 48.5277957,103.006401 47.6253211,104.413921 C45.7895753,107.278488 43.5501262,109.89274 41.2109228,112.357071 C40.6806855,112.91526 40.1437533,113.468094 39.5914228,114.004197 C38.0971177,112.554512 36.6831516,111.011795 35.3354652,109.426244 C33.0725838,106.764472 30.7119567,103.814236 29.5403465,100.479157 C29.0629991,99.1204959 29.065677,97.8173856 29.065677,96.3998266 C26.581194,96.3998266 24.091355,96.3476219 21.6075414,96.4045116 C16.7169058,96.5169526 12.0311347,98.7383305 8.84837194,102.452897 C6.13960923,105.613291 4.71091431,109.633724 4.68882109,113.783331 C4.68346516,114.947897 4.68882109,116.112464 4.68882109,117.277031 L4.68882109,134.923567 L4.68882109,155.946677 L4.68882109,167.667307 L4.68882109,167.845338 L76.1557024,167.845338 L76.1557024,159.734197 L76.1557024,141.71085 L76.1557024,123.241086 C76.1557024,120.091401 76.1717702,116.941047 76.1557024,113.790693 C76.115533,105.58585 70.2936347,98.3032912 62.1780584,96.7204171 C61.0807618,96.5062439 59.9620414,96.3998266 58.8446601,96.3998266" id="Fill-98" fill="#FFAEE4"></path>
                        <path d="M71.6476441,75.6267686 C71.6476441,73.8892883 72.5943051,72.3760205 73.9975593,71.5635009 C70.9138814,69.7778316 66.9484831,72.0801938 66.9491525,75.6267686 C66.9491525,79.1733434 70.9138814,81.4763749 73.9975593,79.6907056 C72.5943051,78.8781859 71.6476441,77.3649182 71.6476441,75.6267686" id="Fill-99" fill="#DDA812"></path>
                        <path d="M8.37466949,75.6267686 C8.37466949,73.8892883 7.42867797,72.3760205 6.02542373,71.5635009 C9.10910169,69.7778316 13.0738305,72.0801938 13.0738305,75.6267686 C13.0738305,79.1733434 9.10910169,81.4763749 6.02542373,79.6907056 C7.42867797,78.8781859 8.37466949,77.3649182 8.37466949,75.6267686" id="Fill-100" fill="#DDA812"></path>
                        <path d="M40.0293805,0.669291339 C-0.916721226,0.669291339 -7.24207716,47.1435433 11.1240839,60.9684252 L11.1240839,51.7101181 C11.1240839,47.4875591 11.1260923,43.3935039 12.5822364,39.3416142 C13.8596262,35.7876772 15.9471008,32.5489764 18.5949398,29.8604331 C20.4085923,31.0912598 22.9352533,31.2358268 24.9537703,29.6877559 L33.9724906,23.8488583 C36.5319567,27.7929921 42.4783805,27.7936614 45.0391856,23.8495276 L54.8037195,30.1716535 C56.8577195,31.268622 59.1520669,30.8924803 60.7521517,29.6141339 C65.5932449,34.4035827 68.4405923,40.8863386 68.4774144,47.7097638 C68.4948211,50.8246457 68.4774144,53.9395276 68.4774144,57.0537402 L68.4774144,60.9684252 C82.0346178,53.4127953 86.3722533,0.669291339 40.0293805,0.669291339" id="Fill-101" fill="#FF5500"></path>
                        <path d="M19.1351195,120.929574 C17.2746026,120.929574 15.7193738,119.374141 15.7193738,117.51485 C15.7193738,115.656228 17.2746026,114.100795 19.1351195,114.100795 C20.9956365,114.100795 22.5501958,115.655558 22.5501958,117.51485 C22.5501958,119.374141 20.994967,120.929574 19.1351195,120.929574 M24.0009839,112.65044 C24.1777297,109.006149 21.7816195,107.933275 19.1351195,110.512054 C16.48795,107.933275 14.0918399,109.006149 14.2685856,112.65044 C10.6232043,112.473747 9.55067884,114.869141 12.1295602,117.51485 C9.55067884,120.161228 10.6232043,122.556621 14.2685856,122.379928 C14.0918399,126.02422 16.48795,127.096424 19.1351195,124.518314 C21.7816195,127.096424 24.1777297,126.02422 24.0009839,122.379928 C27.6463653,122.556621 28.7188907,120.161228 26.1400093,117.51485 C28.7188907,114.869141 27.6463653,112.473747 24.0009839,112.65044" id="Fill-102" fill="#A2D39F"></path>
                        <path d="M22.2284576,117.194252 C22.2284576,119.054213 20.6732288,120.608976 18.8133814,120.608976 C16.9535339,120.608976 15.3983051,119.054213 15.3983051,117.194252 C15.3983051,115.334291 16.9535339,113.779528 18.8133814,113.779528 C20.6732288,113.779528 22.2284576,115.334291 22.2284576,117.194252" id="Fill-103" fill="#FF5500"></path>
                        <path d="M27.1690178,147.700558 C25.3085009,147.700558 23.7532721,146.145795 23.7532721,144.286503 C23.7532721,142.427212 25.3085009,140.872448 27.1690178,140.872448 C29.0295348,140.872448 30.5847636,142.427212 30.5847636,144.286503 C30.5847636,146.145795 29.0295348,147.700558 27.1690178,147.700558 M32.0355517,139.422094 C32.211628,135.777802 29.8155178,134.704928 27.1690178,137.283708 C24.5225178,134.704928 22.1264076,135.777802 22.3024839,139.422094 C18.6571026,139.245401 17.5845771,141.640795 20.1634585,144.286503 C17.5845771,146.932881 18.6571026,149.328275 22.3024839,149.150913 C22.1264076,152.795204 24.5225178,153.868078 27.1690178,151.289298 C29.8155178,153.868078 32.211628,152.795204 32.0355517,149.150913 C35.6809331,149.328275 36.7534585,146.932881 34.1745771,144.286503 C36.7534585,141.640795 35.6809331,139.245401 32.0355517,139.422094" id="Fill-104" fill="#DDA812"></path>
                        <path d="M60.6431353,159.748472 C58.7826183,159.748472 57.2273895,158.193039 57.2273895,156.333747 C57.2273895,154.475125 58.7826183,152.919692 60.6431353,152.919692 C62.5043217,152.919692 64.0588811,154.474456 64.0588811,156.333747 C64.0588811,158.193039 62.5036522,159.748472 60.6431353,159.748472 M65.5096692,151.469338 C65.6857455,147.825047 63.2896353,146.752172 60.6431353,149.330952 C57.9966353,146.752172 55.6005251,147.825047 55.7766014,151.469338 C52.13122,151.292645 51.0593641,153.688039 53.6382455,156.333747 C51.0593641,158.980125 52.13122,161.375519 55.7766014,161.198826 C55.6005251,164.843117 57.9966353,165.915322 60.6431353,163.337212 C63.2896353,165.915322 65.6857455,164.843117 65.5096692,161.198826 C69.1550505,161.375519 70.227576,158.980125 67.6486946,156.333747 C70.227576,153.688039 69.1550505,151.292645 65.5096692,151.469338" id="Fill-105" fill="#DDA812"></path>
                        <path d="M30.2630254,144.635197 C30.2630254,146.494488 28.7071271,148.049252 26.8472797,148.049252 C24.9881017,148.049252 23.4322034,146.494488 23.4322034,144.635197 C23.4322034,142.774567 24.9874322,141.220472 26.8472797,141.220472 C28.7071271,141.220472 30.2630254,142.775236 30.2630254,144.635197" id="Fill-106" fill="#FF5500"></path>
                        <path d="M26.5132034,141.889764 C23.4040847,141.889764 23.4040847,146.710669 26.5132034,146.710669 C29.622322,146.710669 29.6229915,141.889764 26.5132034,141.889764 M26.5132034,148.718543 C24.1077203,148.718543 22.0932203,146.703976 22.0932203,144.300551 C22.0932203,141.895787 24.1083898,139.88189 26.5132034,139.88189 C28.9186864,139.88189 30.9331864,141.895118 30.9331864,144.300551 C30.9331864,146.704646 28.9193559,148.718543 26.5132034,148.718543" id="Fill-107" fill="#000000"></path>
                        <path d="M63.7376017,156.01315 C63.7376017,157.87311 62.1823729,159.427874 60.3218559,159.427874 C58.462678,159.427874 56.9067797,157.87311 56.9067797,156.01315 C56.9067797,154.15252 58.462678,152.598425 60.3218559,152.598425 C62.1823729,152.598425 63.7376017,154.153189 63.7376017,156.01315" id="Fill-108" fill="#FF5500"></path>
                        <path d="M53.2791873,132.307527 C51.4186704,132.307527 49.8634415,130.752094 49.8634415,128.892802 C49.8634415,127.03418 51.4186704,125.478747 53.2791873,125.478747 C55.1397043,125.478747 56.6949331,127.033511 56.6949331,128.892802 C56.6949331,130.752094 55.1397043,132.307527 53.2791873,132.307527 M58.1457212,124.028393 C58.3217975,120.384102 55.9256873,119.311228 53.2791873,121.890007 C50.6326873,119.311228 48.2365771,120.384102 48.4126534,124.028393 C44.7672721,123.8517 43.6947466,126.247094 46.273628,128.892802 C43.6947466,131.53918 44.7672721,133.934574 48.4126534,133.757881 C48.2365771,137.402172 50.6326873,138.474377 53.2791873,135.896267 C55.9256873,138.474377 58.3217975,137.402172 58.1457212,133.757881 C61.7911026,133.934574 62.863628,131.53918 60.2847466,128.892802 C62.863628,126.247094 61.7911026,123.8517 58.1457212,124.028393" id="Fill-109" fill="#A2D39F"></path>
                        <path d="M57.0426864,128.572205 C57.0426864,130.432165 55.4867881,131.986929 53.6269407,131.986929 C51.7677627,131.986929 50.2118644,130.432165 50.2118644,128.572205 C50.2118644,126.711575 51.7670932,125.15748 53.6269407,125.15748 C55.4867881,125.15748 57.0426864,126.712244 57.0426864,128.572205" id="Fill-110" fill="#FF5500"></path>
                        <path d="M53.2928644,126.496063 C50.1837458,126.496063 50.1837458,131.316969 53.2928644,131.316299 C56.4013136,131.316299 56.4013136,126.496063 53.2928644,126.496063 M53.2928644,133.324173 C50.8880508,133.324173 48.8728814,131.310945 48.8728814,128.90685 C48.8728814,126.502087 50.8873814,124.488189 53.2928644,124.488189 C55.6990169,124.488189 57.712178,126.502087 57.712178,128.90685 C57.712178,131.310945 55.6990169,133.324173 53.2928644,133.324173" id="Fill-111" fill="#000000"></path>
                        <path d="M70.4325169,103.808425 C70.4325169,105.668386 68.8772881,107.22315 67.0167712,107.22315 C65.1575932,107.22315 63.6016949,105.668386 63.6016949,103.808425 C63.6016949,101.947795 65.1575932,100.393701 67.0167712,100.393701 C68.8772881,100.393701 70.4325169,101.948465 70.4325169,103.808425" id="Fill-112" fill="#FF5500"></path>
                        <path d="M20.1145507,168.381366 C22.6941015,165.735658 21.6209066,163.340264 17.9755252,163.516288 C18.1516015,159.871996 15.7561608,158.799792 13.1089913,161.377902 C10.4624913,158.799792 8.06638117,159.871996 8.24379642,163.516288 C4.59774557,163.340264 3.52522015,165.735658 6.10410151,168.381366 L20.1145507,168.381366 Z" id="Fill-113" fill="#A2D39F"></path>
                        <path d="M12.7879576,164.645669 C10.902,164.645669 9.37288136,166.174331 9.37288136,168.060394 L16.2037034,168.060394 C16.2037034,166.174331 14.6739153,164.645669 12.7879576,164.645669" id="Fill-114" fill="#FF5500"></path>
                        <path d="M67.3378748,106.994921 C65.4773579,106.994921 63.9221291,105.439488 63.9221291,103.580197 C63.9221291,101.721575 65.4773579,100.166142 67.3378748,100.166142 C69.1990613,100.166142 70.7536206,101.720906 70.7536206,103.580197 C70.7536206,105.439488 69.1983918,106.994921 67.3378748,106.994921 M75.1066545,107.72311 C73.0272138,102.352047 68.347468,98.2780709 62.6079172,97.0472441 C62.4934341,97.5224409 62.4412138,98.0772835 62.4713409,98.7157874 C58.8266291,98.5390945 57.7541036,100.934488 60.332985,103.580197 C57.7541036,106.226575 58.8266291,108.621969 62.4713409,108.445276 C62.2952646,112.089567 64.6913748,113.161772 67.3378748,110.583661 C69.9843748,113.161772 72.380485,112.089567 72.2044087,108.445276 C73.5326799,108.509528 74.5141545,108.229764 75.1066545,107.72311" id="Fill-115" fill="#DDA812"></path>
                        <path d="M60.9933559,29.8590945 C59.3939407,31.1381102 57.0989237,31.514252 55.0449237,30.4172835 L45.2803898,24.0951575 C42.7195847,28.0392913 36.773161,28.038622 34.2130254,24.0944882 L25.1949746,29.9333858 C23.1791356,31.4794488 20.6564915,31.3375591 18.8435085,30.1120866 C14.335822,34.6920472 11.5346695,40.7337402 11.3813559,47.381811 C29.7970593,47.1676378 40.2819661,32.1380315 40.2819661,32.1380315 C40.2819661,32.1380315 49.5912458,46.9655118 68.7032203,47.3764567 C68.5452203,40.609252 65.646322,34.4671654 60.9933559,29.8590945" id="Fill-116" fill="#000000"></path>
                        <path d="M62.3859471,157.91555 L62.3859471,155.230354 C62.9255573,156.031495 62.9255573,157.114409 62.3859471,157.91555 Z M64.8041505,156.572952 C64.8041505,154.857558 63.8193285,153.370393 62.3859471,152.638857 L62.3859471,149.344605 C64.5022098,148.366771 64.2538285,151.54122 64.1942437,152.764684 C65.1797353,152.716495 67.019498,152.385865 67.6595319,153.35433 C68.3799047,154.443936 66.6686844,155.874212 65.9878115,156.572952 C66.6680149,157.271023 68.3792353,158.702637 67.6602014,159.791574 C67.019498,160.761377 65.1797353,160.429409 64.1942437,160.381889 C64.2538285,161.604015 64.5095742,164.779802 62.3859471,163.79996 L62.3859471,160.507046 C63.8193285,159.775511 64.8041505,158.289015 64.8041505,156.572952 Z M74.7822522,167.272243 L62.3859471,167.272243 L62.3859471,165.90622 C64.684981,166.427598 66.067481,164.487991 66.2388708,162.424566 C67.4861336,162.321495 68.8237776,161.845629 69.4624725,160.691771 C70.2250234,159.316377 69.6131081,157.723464 68.7213454,156.572952 C69.6137776,155.421771 70.2256929,153.830865 69.4624725,152.453464 C68.8244471,151.300944 67.4861336,150.823739 66.2388708,150.720668 C66.067481,148.663936 64.6903369,146.713621 62.3859471,147.235668 L62.3859471,133.228739 C62.9222098,132.294409 62.8237946,131.203464 62.3859471,130.247716 L62.3859471,127.909212 C62.8237946,126.953464 62.9222098,125.862519 62.3859471,124.927519 L62.3859471,121.199566 L60.3774725,121.199566 L60.3774725,123.445708 C60.0152776,123.336613 59.6196081,123.261653 59.1911336,123.22618 C59.0833454,121.937794 58.5772098,120.56307 57.3540488,119.951338 C55.9902946,119.26933 54.458498,119.875708 53.3364302,120.744448 C52.1849047,119.852952 50.5948624,119.239881 49.2163793,120.002873 C48.0628454,120.641377 47.5868369,121.979291 47.4823963,123.22618 C46.2351336,123.329251 44.898159,123.805787 44.2587946,124.958976 C43.4969132,126.334369 44.108159,127.927283 44.9999217,129.078464 C44.108159,130.229645 43.4962437,131.82055 44.2587946,133.197283 C44.8974895,134.350472 46.2358031,134.827007 47.4823963,134.930747 C47.5895149,136.219133 48.09632,137.593188 49.3188115,138.20492 C50.6839047,138.887598 52.2150319,138.281889 53.3364302,137.41248 C54.4886251,138.303976 56.076659,138.917046 57.4571505,138.154054 C58.6100149,137.51622 59.0873624,136.177637 59.1911336,134.930078 C59.6189386,134.894605 60.0146081,134.819645 60.3774725,134.71055 L60.3774725,148.233582 C59.2272861,147.344763 57.6399217,146.736377 56.2641166,147.498031 C55.1112522,148.135865 54.6345742,149.473779 54.5308031,150.720668 C53.2828708,150.823739 51.9458963,151.300275 51.3065319,152.453464 C50.5446505,153.829527 51.1565658,155.421771 52.0483285,156.572952 C51.1565658,157.724133 50.5446505,159.315039 51.3065319,160.691771 C51.9452268,161.84496 53.2835403,162.321495 54.5308031,162.425235 C54.6345742,163.672794 55.1105827,165.010039 56.2641166,165.648542 C57.6379132,166.407519 59.2279556,165.800472 60.3774725,164.911653 L60.3774725,167.272243 L21.7899895,167.272243 C22.7071929,165.309881 21.7953454,163.342165 19.7272861,162.753857 L19.7272861,150.415472 C20.0446251,150.498464 20.3813793,150.560039 20.7449132,150.590826 C20.8520319,151.878542 21.3588369,153.252598 22.5813285,153.86433 C23.9457522,154.547676 25.4768793,153.941968 26.5989471,153.071889 C27.751142,153.964054 29.3391759,154.577125 30.718998,153.813464 C31.8725319,153.175629 32.3498793,151.837046 32.452981,150.590826 C33.7002437,150.486417 35.0378878,150.01055 35.6765827,148.857361 C36.4384641,147.481968 35.8265488,145.888385 34.9354556,144.738542 C35.8272183,143.587361 36.4398031,141.995787 35.6765827,140.618385 C35.0385573,139.465865 33.7002437,138.98933 32.452981,138.88559 C32.3458624,137.597873 31.8390573,136.223149 30.6165658,135.611417 C29.2528115,134.928739 27.7210149,135.535787 26.5989471,136.403857 C25.4474217,135.512361 23.8567098,134.89996 22.4788963,135.662952 C21.3253624,136.300787 20.8486844,137.6387 20.7449132,138.88559 C20.3813793,138.915708 20.0446251,138.977283 19.7272861,139.060275 L19.7272861,126.743976 C22.2874217,128.030354 24.3601675,126.246023 24.5770827,123.637125 C25.8250149,123.534054 27.162659,123.058188 27.8013539,121.90433 C28.5632353,120.528936 27.95132,118.936023 27.0595573,117.785511 C27.9519895,116.63433 28.5639047,115.043424 27.8013539,113.666692 C27.1633285,112.513503 25.8250149,112.036968 24.5770827,111.933228 C24.4699641,110.644842 23.963159,109.270117 22.7406675,108.658385 C21.3769132,107.976377 19.8451166,108.582755 18.7230488,109.451495 C17.5715234,108.55933 15.981481,107.947598 14.602998,108.70992 C13.4494641,109.348424 12.9727861,110.686338 12.8690149,111.933228 C11.6224217,112.036968 10.2841081,112.512834 9.64541322,113.666023 C8.88353186,115.041417 9.49611661,116.634999 10.3872098,117.785511 C9.49544712,118.936692 8.88286237,120.527598 9.64541322,121.904999 C10.2841081,123.057519 11.6224217,123.534054 12.8690149,123.637125 C13.0845912,126.227952 15.1566675,128.046417 17.7188115,126.7587 L17.7188115,140.323228 C16.9221166,141.408149 17.1015403,142.778857 17.7188115,143.903936 L17.7188115,145.57248 C17.1015403,146.696889 16.9221166,148.066928 17.7188115,149.152519 L17.7188115,160.052598 C16.3958963,158.40748 14.2167014,158.940235 12.7518539,160.074015 C11.600998,159.182519 10.0096166,158.570787 8.63180305,159.33244 C7.47826915,159.970275 7.00159119,161.308857 6.89782,162.555747 C6.31134542,162.604605 5.78445559,162.725747 5.32384542,162.911141 L5.32384542,154.10059 L5.32384542,135.536456 L5.32384542,118.660275 C5.32384542,114.38618 5.1678539,110.264684 7.30955729,106.345983 C9.41443864,102.494881 13.0671844,99.5854716 17.3003793,98.4182275 C20.3177776,97.5862984 23.5400403,97.8346055 26.6377776,97.8346055 L27.6915573,97.8346055 C27.6915573,101.096062 29.3130658,103.93118 31.1307353,106.549448 C32.9945997,109.233306 35.1517014,111.719054 37.4279725,114.059566 C38.0137776,114.661928 38.61632,115.24622 39.2215403,115.829172 C43.2317946,111.969369 47.3330997,107.612283 49.6850234,102.516298 C50.3879895,100.993661 50.7521929,99.505826 50.7521929,97.8346055 C53.9624047,97.8346055 57.301159,97.5682275 60.4939641,97.964448 C59.3370827,98.1531882 58.1748454,98.7214165 57.6707183,99.8377945 C57.0648285,101.180393 57.6720573,102.663542 58.5149471,103.75181 C57.6231844,104.902991 57.0112692,106.493897 57.7731505,107.871298 C58.4118454,109.023818 59.750159,109.500354 60.9974217,109.604094 C61.1045403,110.893149 61.6120149,112.265865 62.8338369,112.878267 C64.1982607,113.561613 65.7287183,112.955235 66.8514556,112.085157 C68.0036505,112.977322 69.5916844,113.590393 70.9715064,112.827401 C72.1250403,112.189566 72.6017183,110.851653 72.7054895,109.604094 C73.1995742,109.563267 73.6488031,109.46622 74.0571929,109.326338 C74.9489556,112.208306 74.7822522,115.204724 74.7822522,118.177716 L74.7822522,130.643267 L74.7822522,160.327676 L74.7822522,167.272243 Z M60.3774725,127.425314 C59.9945234,128.051102 59.4475488,128.557086 58.9394047,129.078464 C59.4482183,129.599842 59.9938539,130.105826 60.3774725,130.731613 L60.3774725,132.525983 C59.4924047,133.165826 58.1741759,132.936928 57.1465064,132.886731 C57.1947098,133.875944 57.53682,135.804172 56.4970997,136.384448 C55.3944471,136.999527 54.0393963,135.364448 53.3364302,134.679094 C52.6334641,135.365787 51.2797522,136.999527 50.1770997,136.384448 C49.1373793,135.804842 49.4794895,133.876613 49.5270234,132.886731 C48.5415319,132.93492 46.7017692,133.26622 46.0610658,132.297086 C45.3420319,131.208149 47.0525827,129.777204 47.7334556,129.078464 C47.0539217,128.380393 45.3420319,126.948109 46.0617353,125.859172 C46.7024386,124.892046 48.5428708,125.222007 49.5270234,125.270196 C49.4794895,124.280314 49.1373793,122.352755 50.1770997,121.77248 C51.2790827,121.156062 52.6341336,122.79181 53.3364302,123.477165 C54.0407353,122.791141 55.3937776,121.155393 56.4970997,121.77248 C57.5361505,122.353424 57.1947098,124.279645 57.1465064,125.270196 C58.171498,125.219999 59.4944132,124.991771 60.3774725,125.630944 L60.3774725,127.425314 Z M60.3774725,152.155629 C57.9753369,152.158306 55.9648539,154.171535 55.9648539,156.572952 C55.9648539,158.974369 57.9753369,160.986928 60.3774725,160.990944 L60.3774725,162.180944 C59.6751759,162.865629 58.325481,164.492007 57.2248369,163.878936 C56.1851166,163.29933 56.5272268,161.370432 56.5747607,160.381889 C55.5899386,160.429409 53.7501759,160.760708 53.1094725,159.791574 C52.3897692,158.702637 54.10032,157.271692 54.7818624,156.572952 C54.101659,155.874881 52.3897692,154.442598 53.110142,153.35433 C53.7508454,152.386535 55.5912776,152.716495 56.5747607,152.764684 C56.5272268,151.774802 56.1851166,149.847913 57.2248369,149.266968 C58.325481,148.651889 59.6758454,150.280944 60.3774725,150.964291 L60.3774725,152.155629 Z M60.3774725,158.982401 C57.2777268,158.973031 57.2777268,154.172204 60.3774725,154.163503 L60.3774725,158.982401 Z M19.7272861,166.85996 L19.7272861,164.921692 C20.4690827,165.397558 20.1162607,166.267637 19.7272861,166.85996 Z M22.7353115,139.824605 C22.6884471,138.84744 22.8330573,137.042361 24.2336336,137.373661 C25.1910064,137.599881 25.9227607,138.477991 26.5989471,139.136574 C27.3032522,138.45055 28.6556251,136.816141 29.7596166,137.432558 C30.797998,138.012834 30.4572268,139.939724 30.4083539,140.929605 C31.3938454,140.882086 33.2342776,140.551456 33.873642,141.519251 C34.5926759,142.608188 32.8841336,144.039133 32.2025912,144.738542 C32.8881505,145.441298 34.5243878,146.795275 33.9071166,147.897598 C33.3266675,148.934999 31.3985319,148.59433 30.4083539,148.546141 C30.4572268,149.536023 30.797998,151.462913 29.7596166,152.044527 C28.6562946,152.659605 27.3019132,151.023857 26.5989471,150.339842 C25.8953115,151.025196 24.5422692,152.659605 23.4389471,152.044527 C22.3992268,151.463582 22.7413369,149.536023 22.7888708,148.546141 C21.7933369,148.59433 20.6404725,148.774369 19.7272861,148.284448 L19.7272861,146.130668 C20.0928285,145.620668 20.5587946,145.185629 20.9959725,144.738542 C20.5594641,144.290787 20.092159,143.854409 19.7272861,143.345078 L19.7272861,141.190629 C20.6404725,140.700708 21.7940064,140.881417 22.7888708,140.929605 L22.7353115,139.824605 Z M16.3122098,117.785511 C16.3122098,114.677322 21.1345573,114.677322 21.1345573,117.785511 C21.1345573,120.8937 16.3122098,120.8937 16.3122098,117.785511 Z M17.7188115,124.345235 C16.8397692,125.102204 15.5195319,125.742716 15.0241081,124.294369 C14.7335488,123.444369 14.8707946,122.475235 14.913642,121.593779 C13.9281505,121.641968 12.0890573,121.973267 11.4490234,121.004133 C10.72932,119.915196 12.4392014,118.484251 13.1207437,117.785511 C12.4351844,117.081417 10.7982776,115.729448 11.4155488,114.625787 C11.995998,113.587716 13.9234641,113.929054 14.913642,113.977243 C14.8661081,112.987361 14.523998,111.060472 15.5630488,110.479527 C16.6663708,109.863109 18.0200827,111.498857 18.7230488,112.184212 C19.4273539,111.497519 20.7797268,109.86244 21.8837183,110.479527 C22.9227692,111.060472 22.5813285,112.986692 22.5331251,113.977243 C23.5226336,113.929054 25.4514386,113.587046 26.0318878,114.625787 C26.6484895,115.729448 25.0115827,117.082755 24.3260234,117.785511 C25.0068963,118.483582 26.7187861,119.915865 25.9984132,121.004133 C25.3583793,121.972598 23.5179471,121.641968 22.5331251,121.593779 C22.5759725,122.475905 22.7132183,123.4437 22.422659,124.294369 C21.9279047,125.741377 20.6123539,125.106889 19.7272861,124.345905 L19.7272861,122.084369 C21.9339302,121.568346 23.4228793,119.386456 23.0948285,117.145668 C22.7821759,115.005275 20.8875149,113.36685 18.7230488,113.36685 C16.6081251,113.36685 14.7362268,114.935668 14.3700149,117.019842 C13.9703285,119.29744 15.4673115,121.558306 17.7188115,122.084369 L17.7188115,124.345235 Z M17.7188115,167.272243 L17.0185234,167.272243 C15.8803878,163.004842 9.62398949,163.004172 8.4858539,167.272243 L6.08104034,167.272243 C5.31045559,166.323857 4.90809119,165.08433 6.35620136,164.673385 C7.18570136,164.437794 8.09286237,164.558267 8.94244712,164.599094 C8.89491322,163.61055 8.55280305,161.681653 9.5918539,161.102046 C10.6945064,160.486298 12.0488878,162.121377 12.7518539,162.806731 C13.456159,162.120039 14.8098708,160.485629 15.9131929,161.102046 C16.9515742,161.682322 16.6101336,163.609881 16.5619302,164.599094 C16.9475573,164.580354 17.3331844,164.560275 17.7188115,164.544881 L17.7188115,167.272243 Z M10.6322437,167.272243 C11.5280234,165.609054 13.9756844,165.607716 14.8721336,167.272243 L10.6322437,167.272243 Z M30.8140658,96.5368496 C36.6272607,98.3211803 42.9673454,98.2535819 48.7437183,96.3594874 C48.7437183,97.3955504 48.8387861,98.4798023 48.6332522,99.5024795 C48.2958285,101.178385 47.3946929,102.744527 46.4888708,104.171456 C44.4449132,107.386731 41.9008454,110.324251 39.2215403,113.025511 C36.5141166,110.29681 33.9385827,107.325157 31.8879302,104.067046 C30.9800997,102.625393 30.0709302,101.029133 29.7776929,99.3271252 C29.6002776,98.3011016 29.7000319,97.2088181 29.7000319,96.1727551 C30.0689217,96.3019283 30.4404895,96.4224008 30.8140658,96.5368496 Z M13.5291336,77.718385 C14.0640573,75.8677945 13.610142,73.8431882 12.3414556,72.3941724 C12.1653793,70.9866527 11.9852861,69.3462197 11.8259471,67.7425976 L11.8259471,63.3681094 L11.8627692,63.3955504 L11.8627692,52.4546449 C11.9337353,51.1113771 12.1044556,49.7948811 12.3575234,48.5078338 C27.440498,47.7066921 36.9325488,37.4846055 39.7397268,34.0089756 C42.3433793,37.4979913 51.1311251,47.5340149 66.6358793,48.4864165 C67.3140742,51.9185425 67.1708031,55.4082275 67.1708031,58.8858653 L67.1708031,66.7105504 C67.0891251,68.4721252 66.9920488,70.4063771 66.8889471,72.0789362 C66.8527946,72.331259 66.8112861,72.581574 66.7691081,72.831889 C65.9295658,74.0044874 65.5687098,75.4528338 65.7548285,76.8811016 C62.9295742,85.3637 55.9266929,92.1790937 47.3324302,94.6949598 C38.8365827,97.1820464 29.4857946,95.4238181 22.5009895,89.9737787 C18.4512353,86.8140543 15.309981,82.5372827 13.5291336,77.718385 Z M8.05336237,79.8340149 C7.93754034,79.8340149 7.82104881,79.8286606 7.70589627,79.8172827 C9.48205729,77.7157079 9.48205729,74.5660228 7.70589627,72.4637787 C9.79404034,72.262322 11.6726336,73.9241724 11.7435997,76.0143693 C11.8138963,78.0711016 10.1147268,79.8340149 8.05336237,79.8340149 Z M5.51598949,71.0522433 C4.26805729,67.7559834 5.33589627,62.2390149 9.3622183,61.5188575 C9.37359966,62.6178338 9.49343864,64.5059047 9.81747254,67.8235819 C9.81546407,68.8081094 9.86299797,69.7899598 9.95204034,70.7711409 C8.49455729,70.2537787 6.89848949,70.3622039 5.51598949,71.0522433 Z M46.1025742,17.4359834 L54.3379895,12.1037393 L54.4035997,12.0575582 C56.6765234,10.3147236 60.1297607,11.2262984 61.1975997,13.9007866 C61.6408031,15.0124795 61.5095827,16.3102354 61.5095827,17.485511 C61.5095827,20.2516921 61.5865742,23.0305897 61.5095827,25.7961016 C61.4212098,29.0261016 58.0161759,31.271574 55.046981,29.720826 L46.1025742,23.929448 C47.0753454,21.8834244 47.0753454,19.4820071 46.1025742,17.4359834 Z M33.6480234,20.6827157 C33.6480234,15.5733456 40.2425149,13.1866527 43.5236929,17.0946449 C46.8256251,21.0267315 43.2525488,27.122637 38.2085997,26.1782669 C35.5995912,25.6890149 33.6480234,23.334448 33.6480234,20.6827157 Z M17.2608793,33.0103929 C17.6619047,32.5077551 18.0850234,32.0238575 18.5228708,31.5526764 C20.6793031,32.6422827 23.3445488,32.3805897 25.2659895,30.9262197 L33.4652522,25.6174008 C36.4418115,29.1070858 42.0407692,29.1057472 45.01532,25.6180701 L53.9925319,31.4308653 L54.0648369,31.4737 C56.0311336,32.5224795 58.4292522,32.4702748 60.3486844,31.3411803 C64.2571759,35.4546449 66.7537098,40.8223614 67.1426844,46.5039756 C57.0855827,45.9825976 47.4529386,40.807637 41.3572183,32.7962197 C40.7948454,32.0566527 40.313481,31.2789362 39.8180573,30.4931882 C35.6290488,36.4953929 29.6591929,41.3337 22.8692098,44.0998811 C19.3891929,45.5174401 15.6815488,46.3520464 11.9263708,46.5187 C12.2624556,41.5947236 14.1812183,36.8561409 17.2608793,33.0103929 Z M32.3786675,23.9287787 L24.1419132,29.2610228 L24.0763031,29.3072039 C21.8047183,31.0500386 18.351481,30.1377945 17.2843115,27.4639756 C16.8404386,26.3516134 16.9709895,25.0545267 16.9709895,23.8785819 C16.9709895,21.1124008 16.8946675,18.3341724 16.9709895,15.5679913 C17.0607014,12.3379913 20.4657353,10.0925189 23.4335912,11.6432669 L32.3793369,17.4353142 C31.4065658,19.4813378 31.4058963,21.8820858 32.3786675,23.9287787 Z M4.07122678,26.2177551 C5.88086237,20.8085425 8.9598539,15.7801567 13.0732098,11.8172827 C19.7172437,5.415511 28.6790573,2.4639362 37.7828031,2.12527478 C47.3364471,1.77055037 57.4136336,3.74429053 64.8664132,10.0731094 C69.6894302,14.1698417 73.0000658,19.7704716 74.7635064,25.8101567 C76.376981,31.3364953 76.7934047,37.2275976 76.1138708,42.9379913 C75.5207014,47.9208653 74.1368624,53.2035819 71.1308454,57.3116921 C70.5664641,58.0827157 69.9351336,58.8095661 69.2160997,59.4400386 L69.2160997,48.5727551 L69.2241336,48.5734244 L69.2160997,48.2327551 C69.2227946,41.4387787 66.4966251,35.0095661 61.8972183,30.0635031 C64.1453708,27.5422827 63.5180573,23.6229126 63.5180573,20.4993299 C63.5180573,17.4239362 64.1018539,13.6933063 61.8463369,11.2309834 C59.6296505,8.80948738 55.8329641,8.45677084 53.2145827,10.4385425 L45.0106336,15.7507079 C42.014659,12.2529913 36.4672522,12.252322 33.4712776,15.7500386 L24.4887098,9.93389683 L24.4157353,9.89106218 C21.8448878,8.51968423 18.6052183,9.07988108 16.6355742,11.2262984 C15.4070573,12.5648811 14.9625149,14.2334244 14.9625149,16.0090543 L14.9625149,24.9199992 C14.9625149,26.9660228 15.3501505,28.8688181 16.8806081,30.3713771 C12.4258115,35.2659047 9.88776915,41.5913771 9.85429458,48.2213771 L9.84626068,48.5680701 L9.85429458,48.5674008 L9.85429458,52.3977551 C9.74449797,54.6552748 9.81747254,56.9281882 9.81747254,59.1877157 C2.34594712,52.1112984 -0.0950189838,38.6759441 4.07122678,26.2177551 Z M73.9413708,68.5792118 C73.9413708,69.3950779 73.8168454,70.1661016 73.6019386,70.8835819 C72.1377607,70.270511 70.4667098,70.3012984 69.0266336,70.9652354 C69.1632098,69.5550386 69.1792776,68.1488575 69.1792776,66.7339756 C69.2562692,65.0995661 69.3258963,63.4651567 69.3961929,61.8307472 C69.5146929,61.749763 69.6311844,61.6594086 69.7490149,61.5724008 C73.6052861,62.4210622 73.9413708,67.056574 73.9413708,68.5792118 Z M71.7514641,79.8172827 C69.6171251,80.0234244 67.7097437,78.2805897 67.7097437,76.1408653 C67.7097437,74.0004716 69.6164556,72.2583063 71.7514641,72.4637787 C69.9759725,74.5660228 69.9759725,77.7157079 71.7514641,79.8172827 Z M61.9367183,99.8899992 L63.0413793,99.9435425 C63.0172776,99.4542905 62.9764386,98.9623614 62.9811251,98.4731094 C63.9003369,98.7374795 64.7941081,99.080826 65.6523963,99.5038181 C62.2038454,100.478306 61.3388624,105.11181 64.1855403,107.271613 C66.939159,109.359802 71.0391251,107.478424 71.2573793,104.031574 C72.0902268,105.083031 72.7911844,106.231535 73.3428454,107.453661 C72.4845573,107.723385 71.5452607,107.602913 70.6608624,107.560078 C70.7097353,108.549291 71.0511759,110.477519 70.0121251,111.057794 C68.9081336,111.672873 67.5544217,110.037794 66.8514556,109.353109 C66.14782,110.039133 64.7947776,111.672873 63.6914556,111.057794 C62.6517353,110.478188 62.9938454,108.549291 63.0413793,107.560078 C62.0518708,107.608267 60.1237353,107.950944 59.5432861,106.911535 C58.9266844,105.808542 60.5629217,104.454566 61.248481,103.75181 C60.5897014,103.076495 59.710659,102.342952 59.4843708,101.388542 C59.1543115,99.9890543 60.9565827,99.8444874 61.9367183,99.8899992 Z M69.2622946,103.75181 C69.2622946,106.859999 64.4399471,106.859999 64.4399471,103.75181 C64.4399471,100.644291 69.2622946,100.644291 69.2622946,103.75181 Z M75.8146081,108.196574 C74.5378878,104.906338 72.6412183,102.000944 69.8541251,99.7889362 C67.3482183,97.8011409 64.4720827,96.6954716 61.3736759,96.0315346 L61.3676505,96.057637 C57.9150827,95.5074795 54.2368963,95.8267315 50.7521929,95.8267315 L50.7521929,95.6138968 C58.0168454,92.6248417 63.8454386,86.8388181 66.8815827,79.599763 C68.0953708,81.1819677 70.0844302,82.0319677 72.0667946,81.8024008 C73.4513031,81.6424401 74.5840827,80.8848023 75.7583708,80.2054716 C74.084642,79.2349992 72.347981,78.2665346 72.4155997,76.0324401 C73.6374217,75.1215346 74.602159,73.872637 75.2134047,72.3921645 L75.7583708,72.076259 L75.4082268,71.8734638 C76.7994302,67.842322 75.709498,61.9277945 71.4568878,60.0363771 C75.4450488,55.7596055 77.2573624,49.5592905 78.0299556,43.8984244 C78.9043115,37.4979913 78.4222776,30.8566134 76.5209217,24.6777157 C74.3028963,17.4661016 69.9799895,10.9505504 63.7316251,6.62558974 C54.3982437,0.165589742 41.6732183,-1.18504018 30.7297098,0.918542498 C19.7025149,3.03751888 10.0189895,9.63606218 4.71393864,19.6252354 C-1.16352746,30.6919677 -2.05930712,45.6780701 4.9777183,56.4623614 C5.78110813,57.6938575 6.6922861,58.8564165 7.70924373,59.9185819 C3.24172678,61.6721252 2.05806576,68.0083063 3.74652339,72.0494874 L3.70032847,72.076259 L3.77531152,72.119763 C4.4648878,73.7320858 5.60770983,75.1048023 7.04510813,76.0779519 C7.08326915,78.2839362 5.35865898,79.2443693 3.70032847,80.2054716 C4.7728539,80.8259047 5.82060813,81.5333456 7.0638539,81.7542118 C8.98060813,82.0948811 10.9703369,81.4001567 12.2751759,79.9598417 C15.2724895,86.8461803 20.8065064,92.3838968 27.6915573,95.382322 L27.6915573,95.8267315 C24.8395234,95.8267315 21.8743454,95.6072039 19.0430658,96.009448 C14.1504217,96.7041724 9.67620983,99.430196 6.78199797,103.429881 C4.48898949,106.599645 3.33009966,110.389172 3.31537085,114.288464 C3.31068441,115.560117 3.31537085,116.830432 3.31537085,118.102086 L3.31537085,136.129448 L3.31537085,157.306495 L3.31537085,169.106102 L3.31537085,169.280117 L5.19463356,169.280117 L5.32317593,169.411968 L20.1812014,169.411968 L20.3090742,169.280117 L76.7907268,169.280117 L76.7907268,149.29307 L76.7907268,119.24055 C76.7907268,115.530668 77.0257183,111.779291 75.7998793,108.208621 L75.8146081,108.196574 Z" id="Fill-117" fill="#000000"></path>
                        <path d="M47.1435847,71.6141732 C47.1435847,75.5194882 43.8811525,78.7809449 39.974,78.7809449 C36.0675169,78.7809449 32.8050847,75.5194882 32.8050847,71.6141732 L47.1435847,71.6141732 Z" id="Fill-118" fill="#FFFFFF"></path>
                        <path d="M33.5562542,72.2834646 C34.0396271,75.2189764 36.6660424,77.4423622 39.6399237,77.4423622 C42.6131356,77.4423622 45.2388814,75.2189764 45.7229237,72.2834646 L33.5562542,72.2834646 Z M39.6399237,79.4502362 C37.1085763,79.4502362 34.6850169,78.2441732 33.1471949,76.2369685 C31.7794237,74.4506299 31.4661017,72.456811 31.4661017,70.2755906 L47.8130763,70.2755906 C47.8130763,72.4554724 47.4990847,74.4512992 46.1313136,76.2369685 C44.594161,78.2441732 42.1706017,79.4502362 39.6399237,79.4502362 Z" id="Fill-119" fill="#000000"></path>
                        <path d="M34.1755339,56.5705118 L32.1670593,56.5705118 C32.1670593,52.6698819 26.1101695,52.667874 26.1101695,56.5705118 L24.1016949,56.5705118 C24.1016949,53.8297638 26.3967119,51.5354331 29.1389492,51.5354331 C31.8798475,51.5354331 34.1755339,53.8297638 34.1755339,56.5705118" id="Fill-120" fill="#000000"></path>
                        <path d="M56.2687542,56.5705118 L54.2602797,56.5705118 C54.2602797,52.6698819 48.2033898,52.667874 48.2033898,56.5705118 L46.1949153,56.5705118 C46.1949153,53.8297638 48.4899322,51.5354331 51.2321695,51.5354331 C53.9730678,51.5354331 56.2687542,53.8297638 56.2687542,56.5705118" id="Fill-121" fill="#000000"></path>
                        <path d="M60.9096695,126.350827 C56.1033898,126.350827 53.8686271,120.138465 57.5628814,117.07311 C61.2390593,114.02248 66.8895678,117.314055 66.0761356,122.008465 C65.646322,124.48752 63.4269576,126.350827 60.9096695,126.350827 Z M73.6159492,116.980748 L69.9062966,114.574646 L68.7621356,110.305236 L64.3475085,110.533465 L60.9096695,107.755906 L57.4725,110.533465 L53.0578729,110.305236 L51.9130424,114.574646 L48.2033898,116.980748 L49.7914237,121.108268 L48.2033898,125.235118 L51.9130424,127.64122 L53.0578729,131.91063 L57.4725,131.682402 L60.9096695,134.459961 L64.3475085,131.682402 L68.7621356,131.91063 L69.9062966,127.64122 L73.6159492,125.235118 L72.0285847,121.108268 L73.6159492,116.980748 Z" id="Fill-122" fill="#DDA812"></path>
                        <polygon id="Fill-123" fill="#FF5500" points="68.8130169 131.820276 64.3983898 131.592047 60.9605508 134.370276 57.5240508 131.592047 53.1094237 131.820276 52.220339 128.503937 52.220339 154.224134 60.9605508 146.359961 69.7021017 154.224134 69.7021017 128.503937"></polygon>
                        <path d="M66.0301514,120.977601 C66.0301514,116.172089 59.8159311,113.937995 56.7496599,117.631144 C53.697448,121.306223 56.9906768,126.955042 61.6864904,126.141853 C64.1656175,125.712168 66.0301514,123.493467 66.0301514,120.977601" id="Fill-124" fill="#A2D39F"></path>
                        <path d="M61.0815216,116.42924 C58.7757928,116.42924 56.8436402,118.360145 56.8436402,120.665854 C56.8436402,122.970893 58.7757928,124.902468 61.0815216,124.902468 C63.3879199,124.902468 65.319403,122.970893 65.319403,120.665854 C65.319403,118.359476 63.3879199,116.42924 61.0815216,116.42924 M61.0815216,126.915697 C55.3399623,126.915697 52.6954708,119.495933 57.1080894,115.845618 C61.5053097,112.208689 68.2685131,116.196996 67.2287928,121.800303 C66.6858352,124.725106 64.0580809,126.915697 61.0815216,126.915697" id="Fill-125" fill="#000000"></path>
                        <path d="M72.2762966,124.791378 L68.9268305,126.963228 L67.8931356,130.819685 L63.9069831,130.613543 L60.8025508,133.122047 L57.6987881,130.613543 L53.7126356,130.819685 L52.6789407,126.963228 L49.3301441,124.791378 L50.7628559,121.064764 L49.3301441,117.33748 L52.6789407,115.164961 L53.7126356,111.308504 L57.6987881,111.515315 L60.8025508,109.006142 L63.9069831,111.515315 L67.8931356,111.308504 L68.9268305,115.164961 L72.2762966,117.33748 L70.8422458,121.064764 L72.2762966,124.791378 Z M60.8025508,145.051496 L53.0692542,152.010118 L53.0692542,132.868386 L57.0319746,132.663583 L60.8025508,135.710866 L64.5731271,132.663583 L68.5371864,132.868386 L68.5371864,152.010118 L60.8025508,145.051496 Z M74.7420339,116.537008 L70.6721949,113.897323 L69.4168983,109.214961 L64.5731271,109.464606 L60.8025508,106.417323 L57.0319746,109.464606 L52.1895424,109.214961 L50.9335763,113.897323 L46.8644068,116.537008 L48.6057542,121.064764 L46.8644068,125.591181 L50.9335763,128.231535 L51.0554237,128.683307 L51.0554237,156.531181 L60.8025508,147.760118 L70.5510169,156.531181 L70.5510169,128.683307 L70.6721949,128.231535 L74.7420339,125.591181 L73.0000169,121.064764 L74.7420339,116.537008 Z" id="Fill-126" fill="#000000"></path>
                    </g>
                </g>
            </g>
        </g>
    </g>
</svg>