<svg id="Layer_1" data-name="Layer 1" xmlns="http://www.w3.org/2000/svg" viewBox="0 0 300 300"><defs><style>.cls-1{fill:#684e43;}.cls-2{fill:#ffaee4;}.cls-3{fill:#dda812;}.cls-4{fill:#f50;}.cls-5{fill:#fff;}.cls-6{fill:#a2d39f;}</style></defs><title>portland_characters</title><path class="cls-1" d="M193.61,113.66c0-.06-.43-9.85-.43-9.85a43.14,43.14,0,0,0-1.05-9.44c-27.81-1.15-41.37-22.72-41.37-22.72s-15.3,21.91-42.2,22.74a43,43,0,0,0-1,9.42s-.9,9.78-.55,9.85c-6.65,0-9.56,5.53-9.56,12.18a12,12,0,0,0,5.91,10.36,7,7,0,0,0-3.44-5.13,7,7,0,0,1,8.17.83,42.87,42.87,0,0,0,26.2,33h0v5.64c0,8.68,15.72,23.82,15.72,23.82h0s15.73-15.14,15.73-23.82v-5.3a42.9,42.9,0,0,0,27.09-34q0,.7-.09,1.35a7,7,0,0,1,8.85-1.53,7,7,0,0,0-3.43,5.07,12.17,12.17,0,0,0,5.21-10.3C203.29,119.19,200.26,113.66,193.61,113.66Z"/><path class="cls-2" d="M178.69,168.06h-13v2.48c0,8.68-15.73,23.82-15.73,23.82h0s-15.72-15.14-15.72-23.82v-2.48H123.66A25.85,25.85,0,0,0,97.8,193.91V274.8H204.55V193.91A25.85,25.85,0,0,0,178.69,168.06Z"/><path class="cls-3" d="M198,137.14a7,7,0,0,1,3.51-6.07,7,7,0,1,0,0,12.14A7,7,0,0,1,198,137.14Z"/><path class="cls-3" d="M103.38,137.14a7,7,0,0,0-3.51-6.07,7,7,0,0,1,3.51-.95,7,7,0,1,1,0,14,7,7,0,0,1-3.51-.95A7,7,0,0,0,103.38,137.14Z"/><path class="cls-4" d="M150.74,25c-61.16,0-70.61,69.44-43.17,90.09V95.28a37.86,37.86,0,0,1,11.16-26.66,8.06,8.06,0,0,0,9.5-.26l13.47-8.73a9.84,9.84,0,0,0,16.53,0l14.58,9.45a8.06,8.06,0,0,0,8.89-.83,37.93,37.93,0,0,1,11.54,27v19.81C213.49,103.81,220,25,150.74,25Z"/><path class="cls-3" d="M126.58,192.1c.27-5.45-3.31-7-7.26-3.2-4-3.85-7.54-2.25-7.27,3.2-5.45-.27-7,3.31-3.2,7.26-3.85,4-2.25,7.54,3.2,7.27-.27,5.45,3.31,7.05,7.27,3.2,4,3.85,7.53,2.25,7.26-3.2,5.45.27,7-3.31,3.2-7.27C133.63,195.41,132,191.83,126.58,192.1Zm-7.26,12.37a5.11,5.11,0,1,1,5.1-5.11A5.11,5.11,0,0,1,119.32,204.47Z"/><circle class="cls-4" cx="119.32" cy="199.36" r="5.1"/><path class="cls-3" d="M138.35,232.37c.26-5.45-3.32-7.05-7.27-3.2-4-3.85-7.53-2.25-7.27,3.2-5.44-.27-7,3.31-3.19,7.26-3.86,4-2.25,7.54,3.19,7.27-.26,5.45,3.32,7,7.27,3.2,3.95,3.85,7.53,2.25,7.27-3.2,5.44.27,7.05-3.31,3.19-7.27C145.4,235.68,143.79,232.1,138.35,232.37Zm-7.27,12.37a5.11,5.11,0,1,1,5.1-5.11A5.1,5.1,0,0,1,131.08,244.74Z"/><path class="cls-3" d="M188.81,250.05c.27-5.45-3.31-7.05-7.27-3.2-3.95-3.85-7.53-2.25-7.26,3.2-5.45-.27-7.05,3.31-3.2,7.27-3.85,3.95-2.25,7.53,3.2,7.27-.27,5.44,3.31,7,7.26,3.19,4,3.85,7.54,2.25,7.27-3.19,5.45.26,7.05-3.32,3.2-7.27C195.86,253.36,194.26,249.78,188.81,250.05Zm-7.27,12.37a5.1,5.1,0,1,1,5.11-5.1A5.11,5.11,0,0,1,181.54,262.42Z"/><circle class="cls-4" cx="131.08" cy="239.63" r="5.1"/><path d="M131.08,246.24a6.61,6.61,0,1,1,6.6-6.61A6.62,6.62,0,0,1,131.08,246.24Zm0-10.21a3.61,3.61,0,1,0,3.6,3.6A3.6,3.6,0,0,0,131.08,236Z"/><circle class="cls-4" cx="181.54" cy="257.32" r="5.1"/><path class="cls-3" d="M178.28,209c.27-5.45-3.31-7.05-7.26-3.2-4-3.85-7.54-2.25-7.27,3.2-5.45-.27-7.05,3.31-3.2,7.27-3.85,3.95-2.25,7.53,3.2,7.27-.27,5.44,3.31,7,7.27,3.19,3.95,3.85,7.53,2.25,7.26-3.19,5.45.26,7.05-3.32,3.2-7.27C185.33,212.28,183.73,208.7,178.28,209ZM171,221.34a5.1,5.1,0,1,1,5.1-5.1A5.1,5.1,0,0,1,171,221.34Z"/><circle class="cls-4" cx="171.02" cy="216.24" r="5.1"/><path d="M171,222.84a6.6,6.6,0,1,1,6.6-6.6A6.61,6.61,0,0,1,171,222.84Zm0-10.2a3.6,3.6,0,1,0,3.6,3.6A3.6,3.6,0,0,0,171,212.64Z"/><circle class="cls-4" cx="191.2" cy="178.4" r="5.1"/><path class="cls-3" d="M120.86,275c3.85-3.95,2.25-7.53-3.19-7.27.26-5.44-3.32-7.05-7.27-3.19-4-3.86-7.54-2.25-7.27,3.19-5.45-.26-7,3.32-3.2,7.27Z"/><path class="cls-4" d="M110.4,269.9a5.1,5.1,0,0,0-5.1,5.1h10.2A5.1,5.1,0,0,0,110.4,269.9Z"/><path class="cls-3" d="M202.81,184.59a25.88,25.88,0,0,0-18.67-16,8.66,8.66,0,0,0-.2,2.49c-5.45-.27-7.05,3.31-3.2,7.27-3.85,3.95-2.25,7.53,3.2,7.26-.27,5.45,3.31,7.05,7.26,3.2,4,3.85,7.54,2.25,7.27-3.2A6.2,6.2,0,0,0,202.81,184.59ZM191.2,183.5a5.11,5.11,0,1,1,5.1-5.1A5.11,5.11,0,0,1,191.2,183.5Z"/><path d="M181.7,68.25a8.06,8.06,0,0,1-8.89.83l-14.58-9.45a9.84,9.84,0,0,1-16.53,0l-13.47,8.73a8,8,0,0,1-9.49.26,37.94,37.94,0,0,0-11.15,25.81c27.51-.32,43.17-22.78,43.17-22.78s13.91,22.15,42.45,22.77A38,38,0,0,0,181.7,68.25Z"/><path d="M204.59,185l-.38-1c0-.07-.07-.14-.1-.22-.14-.36-.29-.71-.45-1.06-.07-.17-.15-.34-.23-.5s-.26-.54-.4-.81a27.22,27.22,0,0,0-14.5-13.06l-.54-.21-.67-.22-.91-.29-.51-.14c-.42-.12-.84-.22-1.26-.32l-.19,0-.17,0-.12,0-1.14-.25v0a28,28,0,0,0-4.32-.34H167.16v-.32a44.61,44.61,0,0,0,24.09-23.93,8.48,8.48,0,0,0,11,2.2l2.24-1.3-2.24-1.29a5.54,5.54,0,0,1-2.77-4.78.88.88,0,0,1,0-.16,12.87,12.87,0,0,0,4.17-5.44l.82-.47-.53-.3a14.91,14.91,0,0,0,.81-4.93c0-6.3-2.53-10.9-6.71-12.76,8.52-9.13,13.55-30,8.29-50.28-3.81-14.68-16.11-39.3-55.63-39.3-27.18,0-48.18,14.24-56.15,38.1-6.38,19.08-2.84,39.7,8.27,51.3-4.37,1.72-7,6.35-7,12.94A13.4,13.4,0,0,0,97,131l-.07,0,.11.06a13.71,13.71,0,0,0,4.88,5.92s0,.06,0,.09a5.56,5.56,0,0,1-2.76,4.78l-2.24,1.29,2.24,1.3a8.47,8.47,0,0,0,10.56-1.66,44.63,44.63,0,0,0,23,23v.67h-9.05A27.38,27.38,0,0,0,96.3,193.91V276.3h2.81l.19.2h22.19l.19-.2h84.37V193.91a27.3,27.3,0,0,0-1.48-8.85Zm-9.79-6.64a3.6,3.6,0,1,1-3.6-3.61A3.6,3.6,0,0,1,194.8,178.4Zm-10.94-5.77,1.65.08-.08-1.65c0-.19,0-.37,0-.55l.25.07.6.19.69.23.3.12a20.5,20.5,0,0,1,2.15.93,6.6,6.6,0,1,0,8.37,6.76,23.56,23.56,0,0,1,2.24,3.35l.13.25c.13.23.24.46.36.69l.26.54c0,.1.09.19.13.29a7,7,0,0,1-2.36.24l-1.65-.08.08,1.65c.09,1.88-.35,3.27-1.15,3.63s-2.19-.24-3.57-1.58l-1.05-1-1,1c-1.39,1.34-2.76,2-3.57,1.58s-1.25-1.75-1.16-3.63l.08-1.65-1.65.08c-1.89.09-3.27-.36-3.64-1.16s.25-2.18,1.59-3.57l1-1-1-1.05c-1.34-1.38-1.95-2.75-1.58-3.57S182,172.54,183.86,172.63Zm14.66-30-.52,0a5.52,5.52,0,0,1,0-11,4.41,4.41,0,0,1,.52,0,8.48,8.48,0,0,0,0,11Zm3.27-16.8a12.09,12.09,0,0,1-.5,3.45,8.39,8.39,0,0,0-6.84.12,41.37,41.37,0,0,0,.23-4.19v-2.13c.08-1.77.17-3.73.26-5.93,0-.5.05-1,.06-1.4l.53-.38C201.29,116.64,201.79,123.57,201.79,125.84ZM97.43,62.55c3.62-10.84,16.08-36,53.31-36,37.5,0,49.13,23.22,52.73,37.06,5.19,20-.26,41.19-8.73,48.63V96h0v-.67c0-.28,0-.57,0-.85v-.05h0A38.41,38.41,0,0,0,191.55,80l-.14-.33c-.18-.4-.37-.8-.56-1.19l-.32-.65c-.16-.31-.32-.62-.49-.93s-.32-.59-.49-.88-.28-.48-.42-.71-.44-.72-.66-1.07c-.11-.17-.22-.34-.34-.51-.27-.42-.56-.83-.85-1.24l-.24-.32c-.34-.47-.69-.92-1-1.37l-.13-.17c-.4-.5-.82-1-1.24-1.47l0,0c-.25-.28-.53-.55-.79-.83a9.51,9.51,0,0,0,2.42-6.36V46.63A9.59,9.59,0,0,0,170.83,39l-12.25,7.93a11.32,11.32,0,0,0-17.24,0l-13.41-8.69-.11-.06a9.59,9.59,0,0,0-14.12,8.46V61.93a9.55,9.55,0,0,0,2.86,6.83c-.56.61-1.11,1.24-1.63,1.88l-.24.32c-.31.39-.63.79-.92,1.2-.16.21-.31.43-.46.64s-.42.6-.62.91-.39.6-.59.9-.27.44-.41.66c-.22.38-.44.76-.65,1.14-.09.15-.17.3-.25.45-.24.44-.47.89-.7,1.34l-.12.25c-.25.51-.49,1-.71,1.55v0a38.34,38.34,0,0,0-3.16,14.32v.26c0,.23,0,.45,0,.68v.66h0v5.73c0,.71-.06,1.42-.06,2.14v8C94.85,101.24,91.21,81.17,97.43,62.55Zm42.28-3.42-12.3,8-.1.07a6.6,6.6,0,0,1-10.61-5.24V46.62a6.58,6.58,0,0,1,9.65-5.84l13.36,8.65a11.24,11.24,0,0,0,0,9.7ZM117.13,72.7c.13-.17.27-.33.41-.5l.79-.93.35-.39.34-.36h0a11.37,11.37,0,0,0,1.09.45c.22.08.45.14.68.21l.43.11c.27.06.54.1.81.14l.3,0c.3,0,.59,0,.89.05h.29a10.19,10.19,0,0,0,1.1-.09l.38-.06c.27,0,.53-.11.79-.18s.44-.13.66-.21l.44-.16c.31-.13.62-.28.93-.44l.24-.14c.34-.2.68-.42,1-.66l12.25-7.94a2.73,2.73,0,0,0,.23.25c.16.18.32.35.49.52s.27.25.41.37l.44.37.49.37.44.3.53.32.48.25.54.27c.18.08.37.14.55.21l.53.2c.21.07.42.12.64.18l.48.12c.25.06.52.09.78.13l.39.06a11.76,11.76,0,0,0,1.2.06,12.1,12.1,0,0,0,1.21-.06l.38-.06c.27,0,.53-.07.78-.13l.48-.12c.22-.06.44-.11.65-.18l.52-.19.55-.22.54-.26.48-.26.53-.32.45-.3.48-.36.44-.38c.14-.12.28-.24.41-.37l.5-.52c.07-.09.15-.16.23-.25L172,70.34l.1.06a10.55,10.55,0,0,0,1.14.52l.07,0a9.43,9.43,0,0,0,8.18-.73c.26.27.52.54.77.82l0,0a38.2,38.2,0,0,1,3.36,4.35l.32.49c.2.31.39.62.58.93l.43.74c.13.23.26.46.38.69s.33.61.49.92c.07.15.14.3.22.45a35.81,35.81,0,0,1,3.56,13.22c-26.29-1.36-39.48-21.8-39.61-22l-1.21-1.91-1.29,1.85c-.15.22-14.91,21-40.37,22.09a35.77,35.77,0,0,1,4.3-14.66l.06-.11a36.76,36.76,0,0,1,2.09-3.36c.14-.2.27-.41.42-.61l.46-.6C116.7,73.25,116.91,73,117.13,72.7Zm24.48-18.42A8.35,8.35,0,1,1,150,62.63,8.36,8.36,0,0,1,141.61,54.28Zm18.6-4.85,12.3-8,.1-.07a6.59,6.59,0,0,1,10.61,5.24V61.94a6.59,6.59,0,0,1-9.65,5.85l-13.36-8.66a11.24,11.24,0,0,0,0-9.7ZM99.59,129.54a10.31,10.31,0,0,1-.69-3.7c0-3,.67-9.51,6.43-10.55,0,1.65.2,4.47.68,9.42v.51c0,1.32.09,2.61.2,3.9a8.3,8.3,0,0,0-2.83-.5A8.48,8.48,0,0,0,99.59,129.54Zm3.79,13.12-.52,0a8.48,8.48,0,0,0,0-11,4.53,4.53,0,0,1,.52,0,5.52,5.52,0,1,1,0,11Zm8.18-3.16a8.74,8.74,0,0,0,.34-2.36,8.5,8.5,0,0,0-2.12-5.6c-.26-2.1-.53-4.55-.77-6.95v-6.53l.06,0V101.75a40.87,40.87,0,0,1,.74-5.89c22.53-1.2,36.7-16.48,40.9-21.67a54.77,54.77,0,0,0,40.17,21.63,41.24,41.24,0,0,1,.8,8v19.24c-.12,2.63-.27,5.52-.42,8,0,.38-.12.75-.18,1.13a8.44,8.44,0,0,0-1.59,4.94,8.17,8.17,0,0,0,.08,1.11A41.56,41.56,0,0,1,165,163.86q-.83.31-1.68.6l-.07,0c-.54.18-1.09.35-1.63.5l-.46.13-1.26.32-.59.13c-.38.09-.76.17-1.15.24l-.65.12q-.56.11-1.11.18l-.68.1-1.12.13-.67.07-1.22.08c-.19,0-.38,0-.58,0-.6,0-1.2.05-1.8.05s-1.24,0-1.85-.05l-.61,0-1.23-.08-.71-.07-1.14-.14-.7-.1c-.43-.06-.86-.14-1.28-.22l-.52-.09c-.58-.12-1.17-.25-1.75-.39l-.45-.12c-.45-.11-.89-.23-1.33-.36l-.57-.17-1.22-.4-.56-.19c-.44-.16-.89-.33-1.33-.51A41.53,41.53,0,0,1,111.56,139.5Zm25.82,28.12.63.18,1.05.29.74.19.95.22.8.17.93.18.81.14.94.14.8.1,1,.11.76.07,1.14.07.63,0c.59,0,1.19,0,1.79,0s1.16,0,1.74,0l.53,0,1.2-.07.6-.06,1.12-.11.6-.08,1.11-.15.57-.1,1.14-.21.53-.11c.38-.08.77-.16,1.15-.26l.51-.12,1.16-.31.5-.15,1.14-.34.21-.07v3.19c0,6.11-9.46,16.9-14.23,21.71-4.76-4.8-14.22-15.6-14.22-21.71v-3.47l0,0ZM107.23,273.3a3.59,3.59,0,0,1,6.33,0Zm10.59,0h-1a6.6,6.6,0,0,0-12.75,0h-3.59c-.93-1.15-1.32-2.23-1-2.92s1.75-1.24,3.64-1.15l1.65.08-.08-1.65c-.09-1.88.35-3.28,1.15-3.64s2.19.24,3.57,1.59l1.05,1,1-1c1.39-1.35,2.75-1.95,3.57-1.59s1.25,1.76,1.16,3.64l-.08,1.65,1.65-.08h.08Zm0-64.13c-1.23,1.05-2.4,1.5-3.12,1.17s-1.25-1.75-1.15-3.63l.08-1.66-1.66.08c-1.89.1-3.27-.35-3.63-1.15s.24-2.19,1.59-3.57l1-1-1-1c-1.35-1.39-2-2.75-1.59-3.57s1.75-1.25,3.63-1.16l1.66.08-.08-1.65c-.1-1.88.35-3.27,1.15-3.63s2.19.24,3.57,1.58l1,1,1-1c1.39-1.34,2.76-1.95,3.57-1.58s1.25,1.75,1.16,3.63l-.08,1.65,1.65-.08c1.88-.09,3.27.36,3.63,1.16s-.24,2.18-1.58,3.57l-1,1,1,1c1.34,1.38,1.95,2.75,1.58,3.57s-1.74,1.24-3.63,1.15l-1.65-.08.08,1.66c.09,1.88-.36,3.27-1.16,3.63s-1.89-.12-3.11-1.17v-3.38a6.61,6.61,0,1,0-3,0Zm-2.11-9.81a3.61,3.61,0,1,1,3.61,3.61A3.61,3.61,0,0,1,115.71,199.36Zm9.6,32.93c-.09-1.88.35-3.27,1.15-3.63s2.19.24,3.57,1.59l1.05,1,1-1c1.38-1.35,2.75-2,3.56-1.59s1.25,1.75,1.16,3.63l-.08,1.65,1.65-.08c1.9-.09,3.28.36,3.64,1.16s-.24,2.18-1.59,3.57l-1,1,1,1.05c1.35,1.38,2,2.75,1.59,3.57s-1.76,1.24-3.64,1.15l-1.65-.08.08,1.66c.09,1.88-.35,3.27-1.16,3.63s-2.18-.24-3.56-1.59l-1-1L130,249c-1.38,1.35-2.75,2-3.57,1.59s-1.24-1.75-1.15-3.63l.08-1.66-1.65.08a5.76,5.76,0,0,1-2.92-.47v-3.21a8.72,8.72,0,0,1,.87-1l1-1.05-1-1a8.72,8.72,0,0,1-.87-1v-3.22a5.94,5.94,0,0,1,2.92-.47l1.65.08Zm-4.49,40.4v-2.9a1.49,1.49,0,0,1,.56.59A2.63,2.63,0,0,1,120.82,272.69Zm60.71-11.77a3.6,3.6,0,0,1,0-7.2Zm0-10.2a6.6,6.6,0,0,0,0,13.2v1.78l-1,1c-1.39,1.34-2.76,2-3.57,1.58s-1.25-1.75-1.16-3.63l.08-1.65-1.65.08c-1.89.09-3.27-.35-3.63-1.16s.24-2.18,1.58-3.57l1-1-1-1.05c-1.34-1.38-2-2.75-1.58-3.57s1.74-1.24,3.63-1.15l1.65.08-.08-1.65c-.09-1.89.36-3.28,1.16-3.64s2.18.24,3.57,1.59l1,1Zm0-36.95a8.34,8.34,0,0,1-1.12,1.42l-1,1.05,1,1a8.39,8.39,0,0,1,1.12,1.43v2.68a5.2,5.2,0,0,1-3.17.62l-1.65-.08.08,1.65c.09,1.88-.35,3.27-1.16,3.63s-2.18-.23-3.57-1.58l-1-1-1.05,1c-1.38,1.35-2.76,2-3.57,1.58s-1.24-1.75-1.15-3.63l.08-1.65-1.65.08c-1.9.09-3.28-.35-3.64-1.16s.24-2.18,1.59-3.57l1-1-1-1.05c-1.35-1.38-2-2.75-1.59-3.57s1.74-1.24,3.64-1.15l1.65.08-.08-1.65c-.09-1.89.35-3.28,1.15-3.64s2.19.24,3.57,1.59l1.05,1,1-1c1.39-1.35,2.76-2,3.57-1.59s1.25,1.75,1.16,3.64l-.08,1.65,1.65-.08a5.18,5.18,0,0,1,3.17.62Zm21.52,59.53H184.53v-2a4.82,4.82,0,0,0,1.11.14,4.2,4.2,0,0,0,1.75-.37c1.68-.75,2.7-2.53,2.9-5,2.44-.2,4.21-1.22,5-2.89s.31-3.82-1.26-5.85c1.57-2,2-4.12,1.26-5.85s-2.53-2.69-5-2.9c-.2-2.44-1.22-4.21-2.9-5a4.48,4.48,0,0,0-2.86-.23V222.44c.07-.12.14-.23.2-.35a4.85,4.85,0,0,0-.2-4.11v-3.49a4.83,4.83,0,0,0,.2-4.1c-.06-.13-.13-.24-.2-.36v-5.56h-3v3.35a9.28,9.28,0,0,0-1.77-.33c-.2-2.44-1.22-4.21-2.9-5s-3.81-.31-5.84,1.27c-2-1.58-4.12-2-5.85-1.27s-2.69,2.53-2.9,5c-2.44.21-4.21,1.22-5,2.9s-.31,3.81,1.26,5.85c-1.57,2-2,4.12-1.26,5.85s2.53,2.69,5,2.89c.21,2.44,1.22,4.22,2.9,5s3.81.32,5.85-1.26a6.84,6.84,0,0,0,4.1,1.63,4.15,4.15,0,0,0,1.74-.37c1.68-.75,2.7-2.53,2.9-5a8,8,0,0,0,1.77-.33v20.21c-2-1.57-4.11-2-5.83-1.26s-2.7,2.53-2.9,5c-2.44.21-4.21,1.22-5,2.9s-.32,3.81,1.26,5.85c-1.58,2-2,4.12-1.26,5.85s2.53,2.69,5,2.89c.2,2.44,1.22,4.22,2.9,5s3.8.32,5.83-1.25v3.52H123.9a4.55,4.55,0,0,0-3.08-6.75V248.12a9.61,9.61,0,0,0,1.52.26c.2,2.44,1.22,4.21,2.89,5s3.81.31,5.85-1.26a6.89,6.89,0,0,0,4.1,1.63,4.2,4.2,0,0,0,1.75-.37c1.67-.76,2.69-2.53,2.89-5,2.44-.2,4.22-1.22,5-2.9s.32-3.81-1.26-5.85c1.58-2,2-4.12,1.26-5.84s-2.53-2.7-5-2.9c-.2-2.44-1.22-4.21-2.89-5s-3.81-.32-5.85,1.26c-2-1.57-4.12-2-5.85-1.26s-2.69,2.53-2.89,5a9.61,9.61,0,0,0-1.52.26v-18.4a5.77,5.77,0,0,0,2.6.7,4.19,4.19,0,0,0,1.74-.37c1.68-.76,2.7-2.53,2.9-5,2.44-.2,4.21-1.22,5-2.9s.32-3.81-1.26-5.85c1.58-2,2-4.12,1.26-5.84s-2.53-2.7-5-2.9c-.2-2.44-1.22-4.21-2.9-5s-3.81-.32-5.84,1.26c-2-1.58-4.12-2-5.85-1.26s-2.7,2.53-2.9,5c-2.44.2-4.21,1.22-5,2.9s-.31,3.81,1.26,5.84c-1.57,2-2,4.12-1.26,5.85s2.53,2.7,5,2.9c.2,2.44,1.22,4.21,2.9,5a5,5,0,0,0,4.35-.31V233a3.55,3.55,0,0,0-.45.75,5,5,0,0,0,.45,4.6v2.49a5,5,0,0,0-.45,4.6,3.55,3.55,0,0,0,.45.75v16.29a4.16,4.16,0,0,0-1.57-1.23c-1.73-.78-3.82-.32-5.85,1.26-2-1.58-4.12-2-5.85-1.26s-2.69,2.53-2.9,5a8,8,0,0,0-2.35.53V193.91a24.38,24.38,0,0,1,24.36-24.35h9.05v1c0,9.21,15.52,24.26,16.18,24.9l1,1,1-1c.67-.64,16.19-15.69,16.19-24.9v-1h11.53a25.11,25.11,0,0,1,3,.19,5.22,5.22,0,0,0-4.22,2.8c-.78,1.73-.32,3.81,1.26,5.85-1.58,2-2,4.12-1.26,5.84s2.53,2.7,5,2.9c.2,2.44,1.22,4.21,2.9,5s3.81.32,5.84-1.26a6.89,6.89,0,0,0,4.1,1.63,4.2,4.2,0,0,0,1.75-.37c1.68-.76,2.69-2.53,2.9-5a8.7,8.7,0,0,0,2-.41,24.32,24.32,0,0,1,1.08,7.18Zm-14.9-16a6.6,6.6,0,0,0-3.62-5.88v-4.92a2,2,0,0,1,1.63-.18c.8.36,1.25,1.75,1.15,3.64l-.08,1.65,1.66-.08c1.89-.09,3.27.35,3.63,1.15s-.24,2.19-1.59,3.57l-1,1.05,1,1c1.35,1.39,2,2.76,1.59,3.57s-1.74,1.25-3.63,1.16l-1.66-.08.08,1.65c.1,1.88-.35,3.27-1.15,3.63a2,2,0,0,1-1.63-.17V263.2A6.63,6.63,0,0,0,188.15,257.32Zm-3.62,2v-4a3.59,3.59,0,0,1,.62,2A3.53,3.53,0,0,1,184.53,259.32Z"/><path class="cls-5" d="M161.09,130.58a10.71,10.71,0,0,1-21.41,0Z"/><path d="M150.39,142.78a12.21,12.21,0,0,1-12.21-12.2v-1.5h24.41v1.5A12.21,12.21,0,0,1,150.39,142.78Zm-9.09-10.7a9.21,9.21,0,0,0,18.17,0Z"/><path d="M141.88,108.7h-3a4.53,4.53,0,0,0-9,0h-3a7.53,7.53,0,0,1,15,0Z"/><path d="M174.78,108.7h-3a4.52,4.52,0,0,0-9,0h-3a7.52,7.52,0,0,1,15,0Z"/><path class="cls-3" d="M201.2,198.12l-5.54-3.6L194,188.14l-6.59.35-5.14-4.16-5.13,4.16-6.59-.35-1.71,6.38-5.54,3.6,2.37,6.16-2.37,6.17,5.54,3.6,1.71,6.38,6.59-.35,5.13,4.15,5.14-4.15,6.59.35,1.71-6.38,5.54-3.6-2.37-6.17Zm-19,14a7.84,7.84,0,1,1,7.84-7.84A7.84,7.84,0,0,1,182.22,212.12Z"/><polygon class="cls-4" points="193.95 220.43 187.36 220.08 182.22 224.24 177.09 220.08 170.5 220.43 169.17 215.47 169.17 253.9 182.22 242.15 195.28 253.9 195.28 215.47 193.95 220.43"/><circle class="cls-6" cx="182.22" cy="204.28" r="7.83"/><path d="M182.22,213.62a9.34,9.34,0,1,1,9.34-9.34A9.35,9.35,0,0,1,182.22,213.62Zm0-15.66a6.33,6.33,0,1,0,6.33,6.32A6.33,6.33,0,0,0,182.22,198Z"/><path d="M203,197.52,197,193.58l-1.88-7-7.23.37-5.64-4.55L176.59,187l-7.23-.37-1.88,7-6.07,3.94,2.6,6.76-2.6,6.77,6.07,3.94.18.68v41.61l14.56-13.11,14.56,13.11V215.67L197,215l6.07-3.94-2.6-6.77Zm-20.82,42.6-11.55,10.4v-28.6l5.92-.3,5.63,4.55,5.64-4.55,5.92.3v28.6Zm17.14-30.27-5,3.25-1.54,5.76-6-.31-4.64,3.75-4.63-3.75-6,.31-1.54-5.76-5-3.25,2.14-5.57-2.14-5.56,5-3.25,1.54-5.76,6,.31,4.63-3.75,4.64,3.75,6-.31,1.54,5.76,5,3.25-2.14,5.56Z"/></svg>