<?xml version="1.0" encoding="UTF-8"?>
<svg width="118px" height="254px" viewBox="0 0 118 254" version="1.1" xmlns="http://www.w3.org/2000/svg" xmlns:xlink="http://www.w3.org/1999/xlink">
    <!-- Generator: sketchtool 50.2 (55047) - http://www.bohemiancoding.com/sketch -->
    <title>0DC52008-6507-4305-A168-DE57E1723D01</title>
    <desc>Created with sketchtool.</desc>
    <defs></defs>
    <g id="Symbols" stroke="none" stroke-width="1" fill="none" fill-rule="evenodd">
        <g id="fatima_win">
            <path d="M102.174948,90.006 C102.146948,89.946 101.745948,80.153 101.745948,80.153 C101.745948,76.91 101.373948,73.756 100.690948,70.719 C72.8849476,69.571 59.3259476,48 59.3259476,48 C59.3259476,48 44.0289476,69.908 17.1299476,70.739 C16.4499476,73.771 16.0789476,76.918 16.0789476,80.153 C16.0789476,80.153 15.1739476,89.938 15.5249476,90.006 C10.4449476,90.006 7.23094764,93.694 6.30894764,98.442 C5.24494764,103.915 6.88794764,109.584 11.8799476,112.548 C11.5839476,110.353 10.2729476,108.484 8.43494764,107.419 C11.0289476,105.916 14.3649476,106.262 16.6019476,108.251 C18.9539476,123.274 29.1179476,135.697 42.8029476,141.259 C42.7939476,141.256 42.7849476,141.253 42.7769476,141.249 C42.7769476,143.105 42.7379476,144.964 42.7769476,146.819 C42.8249476,149.201 43.7379476,151.444 44.8309476,153.529 C47.5519476,158.72 51.4719476,163.316 55.4519476,167.579 C56.4459476,168.643 57.4539476,169.694 58.4989476,170.707 C61.1799476,168.108 63.6979476,165.318 66.0589476,162.426 C69.3969476,158.336 73.6459476,153.153 74.1799476,147.683 C74.3759476,145.675 74.2219476,143.601 74.2219476,141.585 C88.5079476,136.114 99.1139476,123.209 101.315948,107.604 C101.285948,108.066 101.256948,108.515 101.226948,108.946 C103.398948,106.396 107.175948,105.736 110.078948,107.419 C108.256948,108.475 106.952948,110.322 106.642948,112.493 C114.715948,107.145 113.519948,90.006 102.174948,90.006" id="Fill-97" fill="#684E43"></path>
            <path d="M87.8945556,144.032682 L74.8595556,144.032682 C74.8595556,145.804682 74.9225556,147.518682 74.4325556,149.242682 C73.7465556,151.658682 72.4845556,153.903682 71.1365556,156.006682 C68.3945556,160.286682 65.0495556,164.192682 61.5555556,167.874682 C60.7635556,168.708682 59.9615556,169.534682 59.1365556,170.335682 C56.9045556,168.169682 54.7925556,165.864682 52.7795556,163.495682 C49.3995556,159.518682 45.8735556,155.110682 44.1235556,150.127682 C43.4105556,148.097682 43.4145556,146.150682 43.4145556,144.032682 C39.7035556,144.032682 35.9845556,143.954682 32.2745556,144.039682 C24.9695556,144.207682 17.9705556,147.526682 13.2165556,153.076682 C9.17055556,157.798682 7.03655556,163.805682 7.00355556,170.005682 C6.99555556,171.745682 7.00355556,173.485682 7.00355556,175.225682 L7.00355556,201.591682 L7.00355556,233.002682 L7.00355556,250.514682 L7.00355556,250.780682 L113.751556,250.780682 L113.751556,238.661682 L113.751556,211.732682 L113.751556,184.136682 C113.751556,179.430682 113.775556,174.723682 113.751556,170.016682 C113.691556,157.757682 104.995556,146.876682 92.8735556,144.511682 C91.2345556,144.191682 89.5635556,144.032682 87.8945556,144.032682" id="Fill-98" fill="#FFAEE4"></path>
            <path d="M107.018,112.99529 C107.018,110.39929 108.432,108.13829 110.528,106.92429 C105.922,104.25629 99.999,107.69629 100,112.99529 C100,118.29429 105.922,121.73529 110.528,119.06729 C108.432,117.85329 107.018,115.59229 107.018,112.99529" id="Fill-99" fill="#DDA812"></path>
            <path d="M12.509,112.99529 C12.509,110.39929 11.096,108.13829 9,106.92429 C13.606,104.25629 19.528,107.69629 19.528,112.99529 C19.528,118.29429 13.606,121.73529 9,119.06729 C11.096,117.85329 12.509,115.59229 12.509,112.99529" id="Fill-100" fill="#DDA812"></path>
            <path d="M59.7907202,1 C-1.36927981,1 -10.8172798,70.438 16.6157202,91.094 L16.6157202,77.261 C16.6157202,70.952 16.6187202,64.835 18.7937202,58.781 C20.7017202,53.471 23.8197202,48.632 27.7747202,44.615 C30.4837202,46.454 34.2577202,46.67 37.2727202,44.357 L50.7437202,35.633 C54.5667202,41.526 63.4487202,41.527 67.2737202,35.634 L81.8587202,45.08 C84.9267202,46.719 88.3537202,46.157 90.7437202,44.247 C97.9747202,51.403 102.22772,61.089 102.28272,71.284 C102.30872,75.938 102.28272,80.592 102.28272,85.245 L102.28272,91.094 C122.53272,79.805 129.01172,1 59.7907202,1" id="Fill-101" fill="#FF5500"></path>
            <path d="M28.5815709,180.683011 C25.8025709,180.683011 23.4795709,178.359011 23.4795709,175.581011 C23.4795709,172.804011 25.8025709,170.480011 28.5815709,170.480011 C31.3605709,170.480011 33.6825709,172.803011 33.6825709,175.581011 C33.6825709,178.359011 31.3595709,180.683011 28.5815709,180.683011 M35.8495709,168.313011 C36.1135709,162.868011 32.5345709,161.265011 28.5815709,165.118011 C24.6275709,161.265011 21.0485709,162.868011 21.3125709,168.313011 C15.8675709,168.049011 14.2655709,171.628011 18.1175709,175.581011 C14.2655709,179.535011 15.8675709,183.114011 21.3125709,182.850011 C21.0485709,188.295011 24.6275709,189.897011 28.5815709,186.045011 C32.5345709,189.897011 36.1135709,188.295011 35.8495709,182.850011 C41.2945709,183.114011 42.8965709,179.535011 39.0445709,175.581011 C42.8965709,171.628011 41.2945709,168.049011 35.8495709,168.313011" id="Fill-102" fill="#A2D39F"></path>
            <path d="M33.202,175.102 C33.202,177.881 30.879,180.204 28.101,180.204 C25.323,180.204 23,177.881 23,175.102 C23,172.323 25.323,170 28.101,170 C30.879,170 33.202,172.323 33.202,175.102" id="Fill-103" fill="#FF5500"></path>
            <path d="M40.5815709,220.682011 C37.8025709,220.682011 35.4795709,218.359011 35.4795709,215.581011 C35.4795709,212.803011 37.8025709,210.480011 40.5815709,210.480011 C43.3605709,210.480011 45.6835709,212.803011 45.6835709,215.581011 C45.6835709,218.359011 43.3605709,220.682011 40.5815709,220.682011 M47.8505709,208.313011 C48.1135709,202.868011 44.5345709,201.265011 40.5815709,205.118011 C36.6285709,201.265011 33.0495709,202.868011 33.3125709,208.313011 C27.8675709,208.049011 26.2655709,211.628011 30.1175709,215.581011 C26.2655709,219.535011 27.8675709,223.114011 33.3125709,222.849011 C33.0495709,228.294011 36.6285709,229.897011 40.5815709,226.044011 C44.5345709,229.897011 48.1135709,228.294011 47.8505709,222.849011 C53.2955709,223.114011 54.8975709,219.535011 51.0455709,215.581011 C54.8975709,211.628011 53.2955709,208.049011 47.8505709,208.313011" id="Fill-104" fill="#DDA812"></path>
            <path d="M90.5808856,238.683011 C87.8018856,238.683011 85.4788856,236.359011 85.4788856,233.581011 C85.4788856,230.804011 87.8018856,228.480011 90.5808856,228.480011 C93.3608856,228.480011 95.6828856,230.803011 95.6828856,233.581011 C95.6828856,236.359011 93.3598856,238.683011 90.5808856,238.683011 M97.8498856,226.313011 C98.1128856,220.868011 94.5338856,219.265011 90.5808856,223.118011 C86.6278856,219.265011 83.0488856,220.868011 83.3118856,226.313011 C77.8668856,226.049011 76.2658856,229.628011 80.1178856,233.581011 C76.2658856,237.535011 77.8668856,241.114011 83.3118856,240.850011 C83.0488856,246.295011 86.6278856,247.897011 90.5808856,244.045011 C94.5338856,247.897011 98.1128856,246.295011 97.8498856,240.850011 C103.294886,241.114011 104.896886,237.535011 101.044886,233.581011 C104.896886,229.628011 103.294886,226.049011 97.8498856,226.313011" id="Fill-105" fill="#DDA812"></path>
            <path d="M45.203,216.102 C45.203,218.88 42.879,221.203 40.101,221.203 C37.324,221.203 35,218.88 35,216.102 C35,213.322 37.323,211 40.101,211 C42.879,211 45.203,213.323 45.203,216.102" id="Fill-106" fill="#FF5500"></path>
            <path d="M39.602,212 C34.958,212 34.958,219.203 39.602,219.203 C44.246,219.203 44.247,212 39.602,212 M39.602,222.203 C36.009,222.203 33,219.193 33,215.602 C33,212.009 36.01,209 39.602,209 C43.195,209 46.204,212.008 46.204,215.602 C46.204,219.194 43.196,222.203 39.602,222.203" id="Fill-107" fill="#000000"></path>
            <path d="M95.203,233.102 C95.203,235.881 92.88,238.204 90.101,238.204 C87.324,238.204 85,235.881 85,233.102 C85,230.322 87.324,228 90.101,228 C92.88,228 95.203,230.323 95.203,233.102" id="Fill-108" fill="#FF5500"></path>
            <path d="M79.5815709,197.683011 C76.8025709,197.683011 74.4795709,195.359011 74.4795709,192.581011 C74.4795709,189.804011 76.8025709,187.480011 79.5815709,187.480011 C82.3605709,187.480011 84.6835709,189.803011 84.6835709,192.581011 C84.6835709,195.359011 82.3605709,197.683011 79.5815709,197.683011 M86.8505709,185.313011 C87.1135709,179.868011 83.5345709,178.265011 79.5815709,182.118011 C75.6285709,178.265011 72.0495709,179.868011 72.3125709,185.313011 C66.8675709,185.049011 65.2655709,188.628011 69.1175709,192.581011 C65.2655709,196.535011 66.8675709,200.114011 72.3125709,199.850011 C72.0495709,205.295011 75.6285709,206.897011 79.5815709,203.045011 C83.5345709,206.897011 87.1135709,205.295011 86.8505709,199.850011 C92.2955709,200.114011 93.8975709,196.535011 90.0455709,192.581011 C93.8975709,188.628011 92.2955709,185.049011 86.8505709,185.313011" id="Fill-109" fill="#A2D39F"></path>
            <path d="M85.203,192.102 C85.203,194.881 82.879,197.204 80.101,197.204 C77.324,197.204 75,194.881 75,192.102 C75,189.322 77.323,187 80.101,187 C82.879,187 85.203,189.323 85.203,192.102" id="Fill-110" fill="#FF5500"></path>
            <path d="M79.602,189 C74.958,189 74.958,196.203 79.602,196.202 C84.245,196.202 84.245,189 79.602,189 M79.602,199.202 C76.01,199.202 73,196.194 73,192.602 C73,189.009 76.009,186 79.602,186 C83.196,186 86.203,189.009 86.203,192.602 C86.203,196.194 83.196,199.202 79.602,199.202" id="Fill-111" fill="#000000"></path>
            <path d="M105.203,155.102 C105.203,157.881 102.88,160.204 100.101,160.204 C97.324,160.204 95,157.881 95,155.102 C95,152.322 97.324,150 100.101,150 C102.88,150 105.203,152.323 105.203,155.102" id="Fill-112" fill="#FF5500"></path>
            <path d="M30.0445187,251.581571 C33.8975187,247.628571 32.2945187,244.049571 26.8495187,244.312571 C27.1125187,238.867571 23.5345187,237.265571 19.5805187,241.117571 C15.6275187,237.265571 12.0485187,238.867571 12.3135187,244.312571 C6.86751871,244.049571 5.26551871,247.628571 9.11751871,251.581571 L30.0445187,251.581571 Z" id="Fill-113" fill="#A2D39F"></path>
            <path d="M19.101,246 C16.284,246 14,248.284 14,251.102 L24.203,251.102 C24.203,248.284 21.918,246 19.101,246" id="Fill-114" fill="#FF5500"></path>
            <path d="M100.580623,159.863 C97.8016231,159.863 95.4786231,157.539 95.4786231,154.761 C95.4786231,151.984 97.8016231,149.66 100.580623,149.66 C103.360623,149.66 105.682623,151.983 105.682623,154.761 C105.682623,157.539 103.359623,159.863 100.580623,159.863 M112.184623,160.951 C109.078623,152.926 102.088623,146.839 93.5156231,145 C93.3446231,145.71 93.2666231,146.539 93.3116231,147.493 C87.8676231,147.229 86.2656231,150.808 90.1176231,154.761 C86.2656231,158.715 87.8676231,162.294 93.3116231,162.03 C93.0486231,167.475 96.6276231,169.077 100.580623,165.225 C104.533623,169.077 108.112623,167.475 107.849623,162.03 C109.833623,162.126 111.299623,161.708 112.184623,160.951" id="Fill-115" fill="#DDA812"></path>
            <path d="M91.104,44.613 C88.715,46.524 85.287,47.086 82.219,45.447 L67.634,36.001 C63.809,41.894 54.927,41.893 51.103,36 L37.633,44.724 C34.622,47.034 30.854,46.822 28.146,44.991 C21.413,51.834 17.229,60.861 17,70.794 C44.507,70.474 60.168,48.018 60.168,48.018 C60.168,48.018 74.073,70.172 102.62,70.786 C102.384,60.675 98.054,51.498 91.104,44.613" id="Fill-116" fill="#000000"></path>
            <path d="M93.1840729,235.944411 L93.1840729,231.932411 C93.9900729,233.129411 93.9900729,234.747411 93.1840729,235.944411 Z M96.7960729,233.938411 C96.7960729,231.375411 95.3250729,229.153411 93.1840729,228.060411 L93.1840729,223.138411 C96.3450729,221.677411 95.9740729,226.420411 95.8850729,228.248411 C97.3570729,228.176411 100.105073,227.682411 101.061073,229.129411 C102.137073,230.757411 99.5810729,232.894411 98.5640729,233.938411 C99.5800729,234.981411 102.136073,237.120411 101.062073,238.747411 C100.105073,240.196411 97.3570729,239.700411 95.8850729,239.629411 C95.9740729,241.455411 96.3560729,246.200411 93.1840729,244.736411 L93.1840729,239.816411 C95.3250729,238.723411 96.7960729,236.502411 96.7960729,233.938411 Z M111.700073,249.924411 L93.1840729,249.924411 L93.1840729,247.883411 C96.6180729,248.662411 98.6830729,245.764411 98.9390729,242.681411 C100.802073,242.527411 102.800073,241.816411 103.754073,240.092411 C104.893073,238.037411 103.979073,235.657411 102.647073,233.938411 C103.980073,232.218411 104.894073,229.841411 103.754073,227.783411 C102.801073,226.061411 100.802073,225.348411 98.9390729,225.194411 C98.6830729,222.121411 96.6260729,219.207411 93.1840729,219.987411 L93.1840729,199.059411 C93.9850729,197.663411 93.8380729,196.033411 93.1840729,194.605411 L93.1840729,191.111411 C93.8380729,189.683411 93.9850729,188.053411 93.1840729,186.656411 L93.1840729,181.086411 L90.1840729,181.086411 L90.1840729,184.442411 C89.6430729,184.279411 89.0520729,184.167411 88.4120729,184.114411 C88.2510729,182.189411 87.4950729,180.135411 85.6680729,179.221411 C83.6310729,178.202411 81.3430729,179.108411 79.6670729,180.406411 C77.9470729,179.074411 75.5720729,178.158411 73.5130729,179.298411 C71.7900729,180.252411 71.0790729,182.251411 70.9230729,184.114411 C69.0600729,184.268411 67.0630729,184.980411 66.1080729,186.703411 C64.9700729,188.758411 65.8830729,191.138411 67.2150729,192.858411 C65.8830729,194.578411 64.9690729,196.955411 66.1080729,199.012411 C67.0620729,200.735411 69.0610729,201.447411 70.9230729,201.602411 C71.0830729,203.527411 71.8400729,205.580411 73.6660729,206.494411 C75.7050729,207.514411 77.9920729,206.609411 79.6670729,205.310411 C81.3880729,206.642411 83.7600729,207.558411 85.8220729,206.418411 C87.5440729,205.465411 88.2570729,203.465411 88.4120729,201.601411 C89.0510729,201.548411 89.6420729,201.436411 90.1840729,201.273411 L90.1840729,221.478411 C88.4660729,220.150411 86.0950729,219.241411 84.0400729,220.379411 C82.3180729,221.332411 81.6060729,223.331411 81.4510729,225.194411 C79.5870729,225.348411 77.5900729,226.060411 76.6350729,227.783411 C75.4970729,229.839411 76.4110729,232.218411 77.7430729,233.938411 C76.4110729,235.658411 75.4970729,238.035411 76.6350729,240.092411 C77.5890729,241.815411 79.5880729,242.527411 81.4510729,242.682411 C81.6060729,244.546411 82.3170729,246.544411 84.0400729,247.498411 C86.0920729,248.632411 88.4670729,247.725411 90.1840729,246.397411 L90.1840729,249.924411 L32.5470729,249.924411 C33.9170729,246.992411 32.5550729,244.052411 29.4660729,243.173411 L29.4660729,224.738411 C29.9400729,224.862411 30.4430729,224.954411 30.9860729,225.000411 C31.1460729,226.924411 31.9030729,228.977411 33.7290729,229.891411 C35.7670729,230.912411 38.0540729,230.007411 39.7300729,228.707411 C41.4510729,230.040411 43.8230729,230.956411 45.8840729,229.815411 C47.6070729,228.862411 48.3200729,226.862411 48.4740729,225.000411 C50.3370729,224.844411 52.3350729,224.133411 53.2890729,222.410411 C54.4270729,220.355411 53.5130729,217.974411 52.1820729,216.256411 C53.5140729,214.536411 54.4290729,212.158411 53.2890729,210.100411 C52.3360729,208.378411 50.3370729,207.666411 48.4740729,207.511411 C48.3140729,205.587411 47.5570729,203.533411 45.7310729,202.619411 C43.6940729,201.599411 41.4060729,202.506411 39.7300729,203.803411 C38.0100729,202.471411 35.6340729,201.556411 33.5760729,202.696411 C31.8530729,203.649411 31.1410729,205.648411 30.9860729,207.511411 C30.4430729,207.556411 29.9400729,207.648411 29.4660729,207.772411 L29.4660729,189.370411 C33.2900729,191.292411 36.3860729,188.626411 36.7100729,184.728411 C38.5740729,184.574411 40.5720729,183.863411 41.5260729,182.139411 C42.6640729,180.084411 41.7500729,177.704411 40.4180729,175.985411 C41.7510729,174.265411 42.6650729,171.888411 41.5260729,169.831411 C40.5730729,168.108411 38.5740729,167.396411 36.7100729,167.241411 C36.5500729,165.316411 35.7930729,163.262411 33.9670729,162.348411 C31.9300729,161.329411 29.6420729,162.235411 27.9660729,163.533411 C26.2460729,162.200411 23.8710729,161.286411 21.8120729,162.425411 C20.0890729,163.379411 19.3770729,165.378411 19.2220729,167.241411 C17.3600729,167.396411 15.3610729,168.107411 14.4070729,169.830411 C13.2690729,171.885411 14.1840729,174.266411 15.5150729,175.985411 C14.1830729,177.705411 13.2680729,180.082411 14.4070729,182.140411 C15.3610729,183.862411 17.3600729,184.574411 19.2220729,184.728411 C19.5440729,188.599411 22.6390729,191.316411 26.4660729,189.392411 L26.4660729,209.659411 C25.2760729,211.280411 25.5440729,213.328411 26.4660729,215.009411 L26.4660729,217.502411 C25.5440729,219.182411 25.2760729,221.229411 26.4660729,222.851411 L26.4660729,239.137411 C24.4900729,236.679411 21.2350729,237.475411 19.0470729,239.169411 C17.3280729,237.837411 14.9510729,236.923411 12.8930729,238.061411 C11.1700729,239.014411 10.4580729,241.014411 10.3030729,242.877411 C9.42707291,242.950411 8.64007291,243.131411 7.95207291,243.408411 L7.95207291,230.244411 L7.95207291,202.507411 L7.95207291,177.292411 C7.95207291,170.906411 7.71907291,164.748411 10.9180729,158.893411 C14.0620729,153.139411 19.5180729,148.792411 25.8410729,147.048411 C30.3480729,145.805411 35.1610729,146.176411 39.7880729,146.176411 L41.3620729,146.176411 C41.3620729,151.049411 43.7840729,155.285411 46.4990729,159.197411 C49.2830729,163.207411 52.5050729,166.921411 55.9050729,170.418411 C56.7800729,171.318411 57.6800729,172.191411 58.5840729,173.062411 C64.5740729,167.295411 70.7000729,160.785411 74.2130729,153.171411 C75.2630729,150.896411 75.8070729,148.673411 75.8070729,146.176411 C80.6020729,146.176411 85.5890729,145.778411 90.3580729,146.370411 C88.6300729,146.652411 86.8940729,147.501411 86.1410729,149.169411 C85.2360729,151.175411 86.1430729,153.391411 87.4020729,155.017411 C86.0700729,156.737411 85.1560729,159.114411 86.2940729,161.172411 C87.2480729,162.894411 89.2470729,163.606411 91.1100729,163.761411 C91.2700729,165.687411 92.0280729,167.738411 93.8530729,168.653411 C95.8910729,169.674411 98.1770729,168.768411 99.8540729,167.468411 C101.575073,168.801411 103.947073,169.717411 106.008073,168.577411 C107.731073,167.624411 108.443073,165.625411 108.598073,163.761411 C109.336073,163.700411 110.007073,163.555411 110.617073,163.346411 C111.949073,167.652411 111.700073,172.129411 111.700073,176.571411 L111.700073,195.196411 L111.700073,239.548411 L111.700073,249.924411 Z M90.1840729,190.388411 C89.6120729,191.323411 88.7950729,192.079411 88.0360729,192.858411 C88.7960729,193.637411 89.6110729,194.393411 90.1840729,195.328411 L90.1840729,198.009411 C88.8620729,198.965411 86.8930729,198.623411 85.3580729,198.548411 C85.4300729,200.026411 85.9410729,202.907411 84.3880729,203.774411 C82.7410729,204.693411 80.7170729,202.250411 79.6670729,201.226411 C78.6170729,202.252411 76.5950729,204.693411 74.9480729,203.774411 C73.3950729,202.908411 73.9060729,200.027411 73.9770729,198.548411 C72.5050729,198.620411 69.7570729,199.115411 68.8000729,197.667411 C67.7260729,196.040411 70.2810729,193.902411 71.2980729,192.858411 C70.2830729,191.815411 67.7260729,189.675411 68.8010729,188.048411 C69.7580729,186.603411 72.5070729,187.096411 73.9770729,187.168411 C73.9060729,185.689411 73.3950729,182.809411 74.9480729,181.942411 C76.5940729,181.021411 78.6180729,183.465411 79.6670729,184.489411 C80.7190729,183.464411 82.7400729,181.020411 84.3880729,181.942411 C85.9400729,182.810411 85.4300729,185.688411 85.3580729,187.168411 C86.8890729,187.093411 88.8650729,186.752411 90.1840729,187.707411 L90.1840729,190.388411 Z M90.1840729,227.338411 C86.5960729,227.342411 83.5930729,230.350411 83.5930729,233.938411 C83.5930729,237.526411 86.5960729,240.533411 90.1840729,240.539411 L90.1840729,242.317411 C89.1350729,243.340411 87.1190729,245.770411 85.4750729,244.854411 C83.9220729,243.988411 84.4330729,241.106411 84.5040729,239.629411 C83.0330729,239.700411 80.2850729,240.195411 79.3280729,238.747411 C78.2530729,237.120411 80.8080729,234.982411 81.8260729,233.938411 C80.8100729,232.895411 78.2530729,230.755411 79.3290729,229.129411 C80.2860729,227.683411 83.0350729,228.176411 84.5040729,228.248411 C84.4330729,226.769411 83.9220729,223.890411 85.4750729,223.022411 C87.1190729,222.103411 89.1360729,224.537411 90.1840729,225.558411 L90.1840729,227.338411 Z M90.1840729,237.538411 C85.5540729,237.524411 85.5540729,230.351411 90.1840729,230.338411 L90.1840729,237.538411 Z M29.4660729,249.308411 L29.4660729,246.412411 C30.5740729,247.123411 30.0470729,248.423411 29.4660729,249.308411 Z M33.9590729,208.914411 C33.8890729,207.454411 34.1050729,204.757411 36.1970729,205.252411 C37.6270729,205.590411 38.7200729,206.902411 39.7300729,207.886411 C40.7820729,206.861411 42.8020729,204.419411 44.4510729,205.340411 C46.0020729,206.207411 45.4930729,209.086411 45.4200729,210.565411 C46.8920729,210.494411 49.6410729,210.000411 50.5960729,211.446411 C51.6700729,213.073411 49.1180729,215.211411 48.1000729,216.256411 C49.1240729,217.306411 51.5680729,219.329411 50.6460729,220.976411 C49.7790729,222.526411 46.8990729,222.017411 45.4200729,221.945411 C45.4930729,223.424411 46.0020729,226.303411 44.4510729,227.172411 C42.8030729,228.091411 40.7800729,225.647411 39.7300729,224.625411 C38.6790729,225.649411 36.6580729,228.091411 35.0100729,227.172411 C33.4570729,226.304411 33.9680729,223.424411 34.0390729,221.945411 C32.5520729,222.017411 30.8300729,222.286411 29.4660729,221.554411 L29.4660729,218.336411 C30.0120729,217.574411 30.7080729,216.924411 31.3610729,216.256411 C30.7090729,215.587411 30.0110729,214.935411 29.4660729,214.174411 L29.4660729,210.955411 C30.8300729,210.223411 32.5530729,210.493411 34.0390729,210.565411 L33.9590729,208.914411 Z M24.3650729,175.985411 C24.3650729,171.341411 31.5680729,171.341411 31.5680729,175.985411 C31.5680729,180.629411 24.3650729,180.629411 24.3650729,175.985411 Z M26.4660729,185.786411 C25.1530729,186.917411 23.1810729,187.874411 22.4410729,185.710411 C22.0070729,184.440411 22.2120729,182.992411 22.2760729,181.675411 C20.8040729,181.747411 18.0570729,182.242411 17.1010729,180.794411 C16.0260729,179.167411 18.5800729,177.029411 19.5980729,175.985411 C18.5740729,174.933411 16.1290729,172.913411 17.0510729,171.264411 C17.9180729,169.713411 20.7970729,170.223411 22.2760729,170.295411 C22.2050729,168.816411 21.6940729,165.937411 23.2460729,165.069411 C24.8940729,164.148411 26.9160729,166.592411 27.9660729,167.616411 C29.0180729,166.590411 31.0380729,164.147411 32.6870729,165.069411 C34.2390729,165.937411 33.7290729,168.815411 33.6570729,170.295411 C35.1350729,170.223411 38.0160729,169.712411 38.8830729,171.264411 C39.8040729,172.913411 37.3590729,174.935411 36.3350729,175.985411 C37.3520729,177.028411 39.9090729,179.168411 38.8330729,180.794411 C37.8770729,182.241411 35.1280729,181.747411 33.6570729,181.675411 C33.7210729,182.993411 33.9260729,184.439411 33.4920729,185.710411 C32.7530729,187.872411 30.7880729,186.924411 29.4660729,185.787411 L29.4660729,182.408411 C32.7620729,181.637411 34.9860729,178.377411 34.4960729,175.029411 C34.0290729,171.831411 31.1990729,169.383411 27.9660729,169.383411 C24.8070729,169.383411 22.0110729,171.727411 21.4640729,174.841411 C20.8670729,178.244411 23.1030729,181.622411 26.4660729,182.408411 L26.4660729,185.786411 Z M26.4660729,249.924411 L25.4200729,249.924411 C23.7200729,243.548411 14.3750729,243.547411 12.6750729,249.924411 L9.08307291,249.924411 C7.93207291,248.507411 7.33107291,246.655411 9.49407291,246.041411 C10.7330729,245.689411 12.0880729,245.869411 13.3570729,245.930411 C13.2860729,244.453411 12.7750729,241.571411 14.3270729,240.705411 C15.9740729,239.785411 17.9970729,242.228411 19.0470729,243.252411 C20.0990729,242.226411 22.1210729,239.784411 23.7690729,240.705411 C25.3200729,241.572411 24.8100729,244.452411 24.7380729,245.930411 C25.3140729,245.902411 25.8900729,245.872411 26.4660729,245.849411 L26.4660729,249.924411 Z M15.8810729,249.924411 C17.2190729,247.439411 20.8750729,247.437411 22.2140729,249.924411 L15.8810729,249.924411 Z M46.0260729,144.237411 C54.7090729,146.903411 64.1790729,146.802411 72.8070729,143.972411 C72.8070729,145.520411 72.9490729,147.140411 72.6420729,148.668411 C72.1380729,151.172411 70.7920729,153.512411 69.4390729,155.644411 C66.3860729,160.448411 62.5860729,164.837411 58.5840729,168.873411 C54.5400729,164.796411 50.6930729,160.356411 47.6300729,155.488411 C46.2740729,153.334411 44.9160729,150.949411 44.4780729,148.406411 C44.2130729,146.873411 44.3620729,145.241411 44.3620729,143.693411 C44.9130729,143.886411 45.4680729,144.066411 46.0260729,144.237411 Z M20.2080729,116.120411 C21.0070729,113.355411 20.3290729,110.330411 18.4340729,108.165411 C18.1710729,106.062411 17.9020729,103.611411 17.6640729,101.215411 L17.6640729,94.6794106 L17.7190729,94.7204106 L17.7190729,78.3734106 C17.8250729,76.3664106 18.0800729,74.3994106 18.4580729,72.4764106 C40.9870729,71.2794106 55.1650729,56.0064106 59.3580729,50.8134106 C63.2470729,56.0264106 76.3730729,71.0214106 99.5320729,72.4444106 C100.545073,77.5724106 100.331073,82.7864106 100.331073,87.9824106 L100.331073,99.6734106 C100.209073,102.305411 100.064073,105.195411 99.9100729,107.694411 C99.8560729,108.071411 99.7940729,108.445411 99.7310729,108.819411 C98.4770729,110.571411 97.9380729,112.735411 98.2160729,114.869411 C93.9960729,127.543411 83.5360729,137.726411 70.6990729,141.485411 C58.0090729,145.201411 44.0420729,142.574411 33.6090729,134.431411 C27.5600729,129.710411 22.8680729,123.320411 20.2080729,116.120411 Z M12.0290729,119.281411 C11.8560729,119.281411 11.6820729,119.273411 11.5100729,119.256411 C14.1630729,116.116411 14.1630729,111.410411 11.5100729,108.269411 C14.6290729,107.968411 17.4350729,110.451411 17.5410729,113.574411 C17.6460729,116.647411 15.1080729,119.281411 12.0290729,119.281411 Z M8.23907291,106.160411 C6.37507291,101.235411 7.97007291,92.9924106 13.9840729,91.9164106 C14.0010729,93.5584106 14.1800729,96.3794106 14.6640729,101.336411 C14.6610729,102.807411 14.7320729,104.274411 14.8650729,105.740411 C12.6880729,104.967411 10.3040729,105.129411 8.23907291,106.160411 Z M68.8620729,26.0514106 L81.1630729,18.0844106 L81.2610729,18.0154106 C84.6560729,15.4114106 89.8140729,16.7734106 91.4090729,20.7694106 C92.0710729,22.4304106 91.8750729,24.3694106 91.8750729,26.1254106 C91.8750729,30.2584106 91.9900729,34.4104106 91.8750729,38.5424106 C91.7430729,43.3684106 86.6570729,46.7234106 82.2220729,44.4064106 L68.8620729,35.7534106 C70.3150729,32.6964106 70.3150729,29.1084106 68.8620729,26.0514106 Z M50.2590729,30.9024106 C50.2590729,23.2684106 60.1090729,19.7024106 65.0100729,25.5414106 C69.9420729,31.4164106 64.6050729,40.5244106 57.0710729,39.1134106 C53.1740729,38.3824106 50.2590729,34.8644106 50.2590729,30.9024106 Z M25.7820729,49.3214106 C26.3810729,48.5704106 27.0130729,47.8474106 27.6670729,47.1434106 C30.8880729,48.7714106 34.8690729,48.3804106 37.7390729,46.2074106 L49.9860729,38.2754106 C54.4320729,43.4894106 62.7950729,43.4874106 67.2380729,38.2764106 L80.6470729,46.9614106 L80.7550729,47.0254106 C83.6920729,48.5924106 87.2740729,48.5144106 90.1410729,46.8274106 C95.9790729,52.9734106 99.7080729,60.9934106 100.289073,69.4824106 C85.2670729,68.7034106 70.8790729,60.9714106 61.7740729,49.0014106 C60.9340729,47.8964106 60.2150729,46.7344106 59.4750729,45.5604106 C53.2180729,54.5284106 44.3010729,61.7574106 34.1590729,65.8904106 C28.9610729,68.0084106 23.4230729,69.2554106 17.8140729,69.5044106 C18.3160729,62.1474106 21.1820729,55.0674106 25.7820729,49.3214106 Z M48.3630729,35.7524106 L36.0600729,43.7194106 L35.9620729,43.7884106 C32.5690729,46.3924106 27.4110729,45.0294106 25.8170729,41.0344106 C25.1540729,39.3724106 25.3490729,37.4344106 25.3490729,35.6774106 C25.3490729,31.5444106 25.2350729,27.3934106 25.3490729,23.2604106 C25.4830729,18.4344106 30.5690729,15.0794106 35.0020729,17.3964106 L48.3640729,26.0504106 C46.9110729,29.1074106 46.9100729,32.6944106 48.3630729,35.7524106 Z M6.08107291,39.1724106 C8.78407291,31.0904106 13.3830729,23.5774106 19.5270729,17.6564106 C29.4510729,8.09141056 42.8370729,3.68141056 56.4350729,3.17541056 C70.7050729,2.64541056 85.7570729,5.59441056 96.8890729,15.0504106 C104.093073,21.1714106 109.038073,29.5394106 111.672073,38.5634106 C114.082073,46.8204106 114.704073,55.6224106 113.689073,64.1544106 C112.803073,71.5994106 110.736073,79.4924106 106.246073,85.6304106 C105.403073,86.7824106 104.460073,87.8684106 103.386073,88.8104106 L103.386073,72.5734106 L103.398073,72.5744106 L103.386073,72.0654106 C103.396073,61.9144106 99.3240729,52.3084106 92.4540729,44.9184106 C95.8120729,41.1514106 94.8750729,35.2954106 94.8750729,30.6284106 C94.8750729,26.0334106 95.7470729,20.4594106 92.3780729,16.7804106 C89.0670729,13.1624106 83.3960729,12.6354106 79.4850729,15.5964106 L67.2310729,23.5334106 C62.7560729,18.3074106 54.4700729,18.3064106 49.9950729,23.5324106 L36.5780729,14.8424106 L36.4690729,14.7784106 C32.6290729,12.7294106 27.7900729,13.5664106 24.8480729,16.7734106 C23.0130729,18.7734106 22.3490729,21.2664106 22.3490729,23.9194106 L22.3490729,37.2334106 C22.3490729,40.2904106 22.9280729,43.1334106 25.2140729,45.3784106 C18.5600729,52.6914106 14.7690729,62.1424106 14.7190729,72.0484106 L14.7070729,72.5664106 L14.7190729,72.5654106 L14.7190729,78.2884106 C14.5550729,81.6614106 14.6640729,85.0574106 14.6640729,88.4334106 C3.50407291,77.8604106 -0.14192709,57.7864106 6.08107291,39.1724106 Z M110.444073,102.465411 C110.444073,103.684411 110.258073,104.836411 109.937073,105.908411 C107.750073,104.992411 105.254073,105.038411 103.103073,106.030411 C103.307073,103.923411 103.331073,101.822411 103.331073,99.7084106 C103.446073,97.2664106 103.550073,94.8244106 103.655073,92.3824106 C103.832073,92.2614106 104.006073,92.1264106 104.182073,91.9964106 C109.942073,93.2644106 110.444073,100.190411 110.444073,102.465411 Z M107.173073,119.256411 C103.985073,119.564411 101.136073,116.960411 101.136073,113.763411 C101.136073,110.565411 103.984073,107.962411 107.173073,108.269411 C104.521073,111.410411 104.521073,116.116411 107.173073,119.256411 Z M92.5130729,149.247411 L94.1630729,149.327411 C94.1270729,148.596411 94.0660729,147.861411 94.0730729,147.130411 C95.4460729,147.525411 96.7810729,148.038411 98.0630729,148.670411 C92.9120729,150.126411 91.6200729,157.049411 95.8720729,160.276411 C99.9850729,163.396411 106.109073,160.585411 106.435073,155.435411 C107.679073,157.006411 108.726073,158.722411 109.550073,160.548411 C108.268073,160.951411 106.865073,160.771411 105.544073,160.707411 C105.617073,162.185411 106.127073,165.066411 104.575073,165.933411 C102.926073,166.852411 100.904073,164.409411 99.8540729,163.386411 C98.8030729,164.411411 96.7820729,166.852411 95.1340729,165.933411 C93.5810729,165.067411 94.0920729,162.185411 94.1630729,160.707411 C92.6850729,160.779411 89.8050729,161.291411 88.9380729,159.738411 C88.0170729,158.090411 90.4610729,156.067411 91.4850729,155.017411 C90.5010729,154.008411 89.1880729,152.912411 88.8500729,151.486411 C88.3570729,149.395411 91.0490729,149.179411 92.5130729,149.247411 Z M103.455073,155.017411 C103.455073,159.661411 96.2520729,159.661411 96.2520729,155.017411 C96.2520729,150.374411 103.455073,150.374411 103.455073,155.017411 Z M113.242073,161.658411 C111.335073,156.742411 108.502073,152.401411 104.339073,149.096411 C100.596073,146.126411 96.3000729,144.474411 91.6720729,143.482411 L91.6630729,143.521411 C86.5060729,142.699411 81.0120729,143.176411 75.8070729,143.176411 L75.8070729,142.858411 C86.6580729,138.392411 95.3640729,129.747411 99.8990729,118.931411 C101.712073,121.295411 104.683073,122.565411 107.644073,122.222411 C109.712073,121.983411 111.404073,120.851411 113.158073,119.836411 C110.658073,118.386411 108.064073,116.939411 108.165073,113.601411 C109.990073,112.240411 111.431073,110.374411 112.344073,108.162411 L113.158073,107.690411 L112.635073,107.387411 C114.713073,101.364411 113.085073,92.5274106 106.733073,89.7014106 C112.690073,83.3114106 115.397073,74.0474106 116.551073,65.5894106 C117.857073,56.0264106 117.137073,46.1034106 114.297073,36.8714106 C110.984073,26.0964106 104.527073,16.3614106 95.1940729,9.89941056 C81.2530729,0.247410555 62.2460729,-1.77058944 45.9000729,1.37241056 C29.4290729,4.53841056 14.9650729,14.3974106 7.04107291,29.3224106 C-1.73792709,45.8574106 -3.07592709,68.2484106 7.43507291,84.3614106 C8.63507291,86.2014106 9.99607291,87.9384106 11.5150729,89.5254106 C4.84207291,92.1454106 3.07407291,101.612411 5.59607291,107.650411 L5.52707291,107.690411 L5.63907291,107.755411 C6.66907291,110.164411 8.37607291,112.215411 10.5230729,113.669411 C10.5800729,116.965411 8.00407291,118.400411 5.52707291,119.836411 C7.12907291,120.763411 8.69407291,121.820411 10.5510729,122.150411 C13.4140729,122.659411 16.3860729,121.621411 18.3350729,119.469411 C22.8120729,129.758411 31.0780729,138.032411 41.3620729,142.512411 L41.3620729,143.176411 C37.1020729,143.176411 32.6730729,142.848411 28.4440729,143.449411 C21.1360729,144.487411 14.4530729,148.560411 10.1300729,154.536411 C6.70507291,159.272411 4.97407291,164.934411 4.95207291,170.760411 C4.94507291,172.660411 4.95207291,174.558411 4.95207291,176.458411 L4.95207291,203.393411 L4.95207291,235.034411 L4.95207291,252.664411 L4.95207291,252.924411 L7.75907291,252.924411 L7.95107291,253.121411 L30.1440729,253.121411 L30.3350729,252.924411 L114.700073,252.924411 L114.700073,223.061411 L114.700073,178.159411 C114.700073,172.616411 115.051073,167.011411 113.220073,161.676411 L113.242073,161.658411 Z" id="Fill-117" fill="#000000"></path>
            <path d="M70.417,107 C70.417,112.835 65.544,117.708 59.708,117.708 C53.873,117.708 49,112.835 49,107 L70.417,107 Z" id="Fill-118" fill="#FFFFFF"></path>
            <path d="M50.122,108 C50.844,112.386 54.767,115.708 59.209,115.708 C63.65,115.708 67.572,112.386 68.295,108 L50.122,108 Z M59.209,118.708 C55.428,118.708 51.808,116.906 49.511,113.907 C47.468,111.238 47,108.259 47,105 L71.417,105 C71.417,108.257 70.948,111.239 68.905,113.907 C66.609,116.906 62.989,118.708 59.209,118.708 Z" id="Fill-119" fill="#000000"></path>
            <path d="M51.047,84.523 L48.047,84.523 C48.047,78.695 39,78.692 39,84.523 L36,84.523 C36,80.428 39.428,77 43.524,77 C47.618,77 51.047,80.428 51.047,84.523" id="Fill-120" fill="#000000"></path>
            <path d="M84.047,84.523 L81.047,84.523 C81.047,78.695 72,78.692 72,84.523 L69,84.523 C69,80.428 72.428,77 76.524,77 C80.618,77 84.047,80.428 84.047,84.523" id="Fill-121" fill="#000000"></path>
            <path d="M90.979,188.783 C83.8,188.783 80.462,179.501 85.98,174.921 C91.471,170.363 99.911,175.281 98.696,182.295 C98.054,185.999 94.739,188.783 90.979,188.783 Z M109.958,174.783 L104.417,171.188 L102.708,164.809 L96.114,165.15 L90.979,161 L85.845,165.15 L79.251,164.809 L77.541,171.188 L72,174.783 L74.372,180.95 L72,187.116 L77.541,190.711 L79.251,197.09 L85.845,196.749 L90.979,200.899 L96.114,196.749 L102.708,197.09 L104.417,190.711 L109.958,187.116 L107.587,180.95 L109.958,174.783 Z" id="Fill-122" fill="#DDA812"></path>
            <polygon id="Fill-123" fill="#FF5500" points="102.784 196.955 96.19 196.614 91.055 200.765 85.922 196.614 79.328 196.955 78 192 78 230.429 91.055 218.679 104.112 230.429 104.112 192"></polygon>
            <path d="M98.6273147,180.754769 C98.6273147,173.574769 89.3453147,170.236769 84.7653147,175.754769 C80.2063147,181.245769 85.1253147,189.685769 92.1393147,188.470769 C95.8423147,187.828769 98.6273147,184.513769 98.6273147,180.754769" id="Fill-124" fill="#A2D39F"></path>
            <path d="M91.2356905,173.958982 C87.7916905,173.958982 84.9056905,176.843982 84.9056905,180.288982 C84.9056905,183.732982 87.7916905,186.618982 91.2356905,186.618982 C94.6806905,186.618982 97.5656905,183.732982 97.5656905,180.288982 C97.5656905,176.842982 94.6806905,173.958982 91.2356905,173.958982 M91.2356905,189.626982 C82.6596905,189.626982 78.7096905,178.540982 85.3006905,173.086982 C91.8686905,167.652982 101.97069,173.611982 100.41769,181.983982 C99.6066905,186.353982 95.6816905,189.626982 91.2356905,189.626982" id="Fill-125" fill="#000000"></path>
            <path d="M107.957,186.453 L102.954,189.698 L101.41,195.46 L95.456,195.152 L90.819,198.9 L86.183,195.152 L80.229,195.46 L78.685,189.698 L73.683,186.453 L75.823,180.885 L73.683,175.316 L78.685,172.07 L80.229,166.308 L86.183,166.617 L90.819,162.868 L95.456,166.617 L101.41,166.308 L102.954,172.07 L107.957,175.316 L105.815,180.885 L107.957,186.453 Z M90.819,216.724 L79.268,227.121 L79.268,198.521 L85.187,198.215 L90.819,202.768 L96.451,198.215 L102.372,198.521 L102.372,227.121 L90.819,216.724 Z M111.64,174.12 L105.561,170.176 L103.686,163.18 L96.451,163.553 L90.819,159 L85.187,163.553 L77.954,163.18 L76.078,170.176 L70,174.12 L72.601,180.885 L70,187.648 L76.078,191.593 L76.26,192.268 L76.26,233.876 L90.819,220.771 L105.38,233.876 L105.38,192.268 L105.561,191.593 L111.64,187.648 L109.038,180.885 L111.64,174.12 Z" id="Fill-126" fill="#000000"></path>
        </g>
    </g>
</svg>