<svg id="Layer_1" data-name="Layer 1" xmlns="http://www.w3.org/2000/svg" viewBox="0 0 300 300"><defs><style>.cls-1{fill:#daa725;}.cls-1,.cls-10,.cls-11,.cls-12,.cls-2,.cls-3,.cls-4,.cls-6,.cls-7,.cls-8,.cls-9{stroke:#000;}.cls-1,.cls-10,.cls-11,.cls-12,.cls-2,.cls-3,.cls-4,.cls-5,.cls-6,.cls-7,.cls-8,.cls-9{stroke-miterlimit:10;stroke-width:3px;}.cls-2{fill:#a1d29d;}.cls-3{fill:#eeadcd;}.cls-4{fill:#ef5722;}.cls-5,.cls-9{fill:none;}.cls-5{stroke:#211e20;}.cls-6{fill:#ffaee4;}.cls-7{fill:#684e43;}.cls-10{fill:#f50;}.cls-11{fill:#dda812;}.cls-12{fill:#fff;}</style></defs><title>portland_characters</title><rect class="cls-1" x="99.07" y="139.65" width="81.43" height="135.35"/><polyline class="cls-2" points="99.08 139.29 189.55 139.29 144.31 94.05 62.88 94.05"/><polyline class="cls-1" points="35.74 121.19 35.74 274.8 99.08 274.8 99.08 121.19"/><rect class="cls-3" x="44.79" y="229.56" width="45.24" height="9.05"/><rect class="cls-3" x="44.79" y="166.43" width="45.24" height="9.05"/><rect class="cls-4" x="53.84" y="202.42" width="27.14" height="27.14"/><polygon class="cls-2" points="108.12 121.19 67.41 85 26.69 121.19 108.12 121.19"/><rect class="cls-2" x="117.17" y="193.37" width="45.24" height="63.33"/><rect class="cls-4" x="53.84" y="139.29" width="27.14" height="27.14"/><circle class="cls-1" cx="148.84" cy="234.08" r="4.52"/><rect class="cls-5" x="135.26" y="157.38" width="18.1" height="9.05"/><rect class="cls-5" x="144.31" y="148.33" width="18.1" height="9.05"/><rect class="cls-5" x="144.31" y="166.43" width="18.1" height="9.05"/><line class="cls-5" x1="135.26" y1="157.38" x2="126.22" y2="157.38"/><line class="cls-5" x1="144.31" y1="148.33" x2="135.26" y2="148.33"/><line class="cls-5" x1="162.41" y1="148.33" x2="171.46" y2="148.33"/><line class="cls-5" x1="162.41" y1="166.43" x2="171.46" y2="166.43"/><line class="cls-5" x1="144.31" y1="175.48" x2="135.26" y2="175.48"/><line class="cls-5" x1="135.26" y1="166.43" x2="126.22" y2="166.43"/><line class="cls-5" x1="162.41" y1="157.38" x2="171.46" y2="157.38"/><line class="cls-5" x1="162.41" y1="175.48" x2="171.46" y2="175.48"/><rect class="cls-3" x="108.12" y="256.7" width="63.33" height="9.05"/><rect class="cls-3" x="99.07" y="265.75" width="81.43" height="9.05"/><rect class="cls-4" x="126.22" y="202.42" width="27.14" height="18.1"/><path class="cls-6" d="M190,168.06h55a25.86,25.86,0,0,1,25.86,25.86V274.8a0,0,0,0,1,0,0H164.14a0,0,0,0,1,0,0V193.91A25.86,25.86,0,0,1,190,168.06Z"/><path class="cls-7" d="M216.27,194.36h0s-15.72-15.14-15.72-23.82V157.3H232v13.24C232,179.22,216.27,194.36,216.27,194.36Z"/><path class="cls-7" d="M259.52,125.22a42.84,42.84,0,1,1-85.67,0V103.81a42.84,42.84,0,1,1,85.67,0Z"/><path class="cls-8" d="M262.61,94.41c25.12-.81-20.38-45.52-45.51-45.52s-70.64,44.66-45.52,45.52c29,1,45.52-22.76,45.52-22.76S232,95.4,262.61,94.41Z"/><path class="cls-9" d="M227.39,130.58a10.71,10.71,0,0,1-21.42,0"/><path class="cls-10" d="M173.9,115.09C146.47,94.44,155.92,25,217.08,25c69.22,0,62.74,78.81,42.49,90.09V95.28c0-21.88-19.18-39.61-42.83-39.61S173.9,73.4,173.9,95.28Z"/><path class="cls-7" d="M175.78,137.89a12,12,0,0,1-12-12c0-6.65,2.9-12.18,9.55-12.18C172.55,113.51,175,138,175.78,137.89Z"/><path class="cls-7" d="M269.63,125.84c0,6.66-4.65,12.11-11.3,12.11.74.06,1.55-24.43,1.62-24.29C266.6,113.66,269.63,119.19,269.63,125.84Z"/><path class="cls-11" d="M264.34,137.14a7,7,0,0,1,3.51-6.07,7,7,0,1,0,0,12.14A7,7,0,0,1,264.34,137.14Z"/><path class="cls-11" d="M169.71,137.14a7,7,0,0,0-3.51-6.07,7,7,0,1,1,0,12.14A7,7,0,0,0,169.71,137.14Z"/><path class="cls-10" d="M251.06,46.63V61.94a8.1,8.1,0,0,1-11.91,7.14L216.3,54.28,238,40.2A8.1,8.1,0,0,1,251.06,46.63Z"/><path class="cls-10" d="M181.53,61.93V46.62a8.1,8.1,0,0,1,11.92-7.14l22.85,14.8L194.56,68.36A8.1,8.1,0,0,1,181.53,61.93Z"/><circle class="cls-10" cx="216.3" cy="54.28" r="9.85"/><circle class="cls-8" cx="200.65" cy="108.7" r="6.02"/><circle class="cls-8" cx="233.56" cy="108.7" r="6.02"/><circle class="cls-12" cx="233.56" cy="107.54" r="4.05"/><circle class="cls-12" cx="200.65" cy="107.54" r="4.05"/><path class="cls-11" d="M196.12,199.36c3.85,4,2.25,7.54-3.2,7.27.26,5.45-3.31,7.05-7.27,3.2-4,3.85-7.53,2.25-7.27-3.2-5.44.27-7-3.31-3.19-7.27-3.85-4-2.25-7.53,3.19-7.26-.26-5.45,3.32-7,7.27-3.2,4-3.85,7.53-2.25,7.27,3.2C198.37,191.83,200,195.41,196.12,199.36Z"/><circle class="cls-10" cx="185.65" cy="199.36" r="5.1"/><path class="cls-11" d="M207.88,239.63c3.85,4,2.25,7.54-3.2,7.27.27,5.45-3.31,7-7.27,3.2-3.95,3.85-7.53,2.25-7.26-3.2-5.45.27-7.05-3.31-3.2-7.27-3.85-3.95-2.25-7.53,3.2-7.26-.27-5.45,3.31-7.05,7.26-3.2,4-3.85,7.54-2.25,7.27,3.2C210.13,232.1,211.73,235.68,207.88,239.63Z"/><circle class="cls-10" cx="197.41" cy="239.63" r="5.1"/><path class="cls-11" d="M258.34,257.32c3.86,3.95,2.25,7.53-3.19,7.27.26,5.44-3.32,7-7.27,3.19-3.95,3.85-7.53,2.25-7.27-3.19-5.44.26-7.05-3.32-3.19-7.27-3.86-4-2.25-7.54,3.19-7.27-.26-5.45,3.32-7.05,7.27-3.2,4-3.85,7.53-2.25,7.27,3.2C260.59,249.78,262.2,253.36,258.34,257.32Z"/><circle class="cls-10" cx="247.88" cy="257.32" r="5.1"/><path class="cls-11" d="M247.82,216.24c3.85,3.95,2.25,7.53-3.2,7.27.26,5.44-3.31,7-7.27,3.19-3.95,3.85-7.53,2.25-7.27-3.19-5.44.26-7-3.32-3.19-7.27-3.85-4-2.25-7.54,3.19-7.27-.26-5.45,3.32-7.05,7.27-3.2,4-3.85,7.53-2.25,7.27,3.2C250.07,208.7,251.67,212.28,247.82,216.24Z"/><circle class="cls-10" cx="237.35" cy="216.24" r="5.1"/><path class="cls-11" d="M269.14,184.59a25.84,25.84,0,0,0-18.67-16,8.66,8.66,0,0,0-.2,2.49c-5.44-.27-7.05,3.31-3.19,7.27-3.86,3.95-2.25,7.53,3.19,7.26-.26,5.45,3.32,7.05,7.27,3.2,3.95,3.85,7.53,2.25,7.27-3.2A6.17,6.17,0,0,0,269.14,184.59Z"/><circle class="cls-10" cx="257.54" cy="178.4" r="5.1"/><line class="cls-9" x1="249.37" y1="204.47" x2="249.37" y2="274.8"/><line class="cls-9" x1="185.65" y1="204.47" x2="185.65" y2="274.8"/><path class="cls-11" d="M187.2,275c3.85-3.95,2.25-7.53-3.2-7.27.26-5.44-3.31-7.05-7.27-3.19-3.95-3.86-7.53-2.25-7.27,3.19-5.44-.26-7,3.32-3.19,7.27Z"/><path class="cls-10" d="M176.73,269.9a5.1,5.1,0,0,0-5.1,5.1h10.2A5.1,5.1,0,0,0,176.73,269.9Z"/></svg>